<svg xmlns="http://www.w3.org/2000/svg" width="345" height="258" viewBox="0 0 345 258">
    <g fill="none" fill-rule="evenodd">
        <g transform="translate(.5)">
            <path fill="#6C63FF" fill-rule="nonzero" d="M70.536 8.822c-.767-1.043-2.35.089-1.635 1.17.187.283.393.555.586.818 2.36 3.172 3.583 7.063 4.638 10.893.256.952.507 1.941.212 2.854.421-2.486.149-5.054-.488-7.496s-1.628-4.76-2.651-7.066a6.427 6.427 0 0 0-.662-1.173z" opacity=".5"/>
            <path fill="#6C63FF" fill-rule="nonzero" d="M55.22 15.532c-1.583-.047-1.792 2.37-.209 2.496.415.035.837.044 1.236.054 4.875.133 9.487 1.903 13.918 3.805 1.087.466 2.218.99 2.851 1.989-1.999-2.319-4.628-4.015-7.425-5.265-2.797-1.249-5.777-2.067-8.755-2.831a7.648 7.648 0 0 0-1.615-.248z"/>
            <path fill="#6C63FF" fill-rule="nonzero" d="M55.66 21.462c-1.006.038-.778 1.469.235 1.478.263 0 .53 0 .78-.022 3.075-.124 6.227.726 9.28 1.662.751.228 1.543.488 2.088 1.05a16.724 16.724 0 0 0-5.423-2.788 41.971 41.971 0 0 0-5.904-1.3 5.338 5.338 0 0 0-1.055-.08z" opacity=".2"/>
            <path fill="#6C63FF" fill-rule="nonzero" d="M76.237 48.071c.286.968 1.616.39 1.372-.593-.063-.256-.142-.51-.215-.751-.884-2.952-.843-6.219-.697-9.412.038-.787.092-1.617.5-2.287a16.73 16.73 0 0 0-1.35 5.953c-.078 2.018-.01 4.04.207 6.047.026.353.088.703.183 1.043z" opacity=".5"/>
            <path fill="#6C63FF" fill-rule="nonzero" d="M57.492 7.48c-.605-.104-.65.778-.048.914.159.035.317.06.469.086 1.853.317 3.627 1.224 5.334 2.172.44.2.822.508 1.112.894a10.208 10.208 0 0 0-2.886-2.356 24.966 24.966 0 0 0-3.36-1.525 3.184 3.184 0 0 0-.621-.184z" opacity=".2"/>
            <path fill="#6C63FF" fill-rule="nonzero" d="M48.147 30.874c-1.536.793-.237 2.965 1.34 2.245.412-.19.814-.402 1.2-.602 4.692-2.436 10.137-3.333 15.522-4.024 1.314-.168 2.718-.317 3.934.203-3.316-.936-6.851-1.015-10.266-.615-3.415.4-6.738 1.252-10.026 2.156a9.081 9.081 0 0 0-1.704.637z"/>
            <path fill="#6C63FF" fill-rule="nonzero" d="M52.534 39.332c-1.102 1.03.634 2.248 1.777 1.268.317-.257.593-.53.868-.79 3.364-3.17 7.808-5.41 12.234-7.483 1.086-.51 5.559-1.028 6.75-1-3.117.28-9.484 1.27-12.316 2.538a68.18 68.18 0 0 0-8.033 4.515 8.436 8.436 0 0 0-1.28.952z" opacity=".5"/>
            <path fill="#6C63FF" fill-rule="nonzero" d="M60.41 52.828c-.318 1.475 1.782 1.497 2.175.022.102-.383.184-.773.263-1.144.973-4.513 3.351-8.896 5.816-13.12.605-1.036 3.988-4.008 4.986-4.664-2.408 2.004-7.093 6.43-8.69 9.1a68.53 68.53 0 0 0-4.047 8.287c-.214.49-.383.998-.504 1.52zM76.257 1.012c-.754-1.535-2.902-.273-2.218 1.3.178.412.377.815.567 1.198 2.316 4.69 3.11 10.11 3.706 15.44.146 1.307.273 2.703-.26 3.904.97-3.282 1.1-6.786.764-10.179-.336-3.393-1.125-6.7-1.96-9.976a8.987 8.987 0 0 0-.6-1.687zM64.28 3.621c.04.024.084.039.13.042.085 0 .142-.086.177-.162.187-.41.08-.951.37-1.269.291.347.527.737.7 1.155l1.103-.317c.107.433.031.892-.209 1.268.194.084.37.205.52.355a.568.568 0 0 1 .136.584 2.794 2.794 0 0 1-.78.076c.041.485.014.974-.082 1.452a.263.263 0 0 1-.095.184c-.08.05-.187 0-.27-.044a2.536 2.536 0 0 1-.905-.952l-.412.98a.444.444 0 0 1-.18.248.294.294 0 0 1-.346-.12.828.828 0 0 1-.12-.372l-.155-.932a.222.222 0 0 0-.051-.133.237.237 0 0 0-.161-.048h-1.17c-.066-.21.14-.4.34-.488.2-.089.434-.152.535-.346.203-.396-.317-.951-.098-1.284.26-.428.684-.045 1.023.123z"/>
            <path fill="#6C63FF" fill-rule="nonzero" d="M85.572 8.822c.767-1.043 2.35.089 1.635 1.17-.187.283-.393.555-.586.818-2.36 3.172-3.586 7.063-4.638 10.893-.26.952-.51 1.941-.215 2.854-.421-2.486-.146-5.054.491-7.496s1.628-4.776 2.651-7.081c.18-.408.402-.796.662-1.158z" opacity=".5"/>
            <path fill="#6C63FF" fill-rule="nonzero" d="M100.884 15.532c1.584-.047 1.797 2.37.21 2.496-.415.035-.834.044-1.233.054-4.878.133-9.487 1.903-13.918 3.805-1.086.466-2.217.99-2.85 1.989 1.995-2.319 4.624-4.015 7.424-5.265 2.8-1.249 5.778-2.064 8.743-2.828a7.648 7.648 0 0 1 1.624-.25z"/>
            <path fill="#6C63FF" fill-rule="nonzero" d="M100.447 21.462c1.004.038.78 1.469-.234 1.478-.263 0-.529 0-.782-.022-3.076-.124-6.225.726-9.278 1.662-.751.228-1.543.488-2.088 1.05a16.724 16.724 0 0 1 5.423-2.788 41.873 41.873 0 0 1 5.905-1.3 5.338 5.338 0 0 1 1.054-.08z" opacity=".5"/>
            <path fill="#6C63FF" fill-rule="nonzero" d="M98.613 7.48c.609-.104.653.778.051.914-.158.035-.317.06-.472.086-1.853.317-3.624 1.224-5.331 2.172-.44.2-.822.508-1.112.894a10.167 10.167 0 0 1 2.886-2.356c1.08-.59 2.202-1.1 3.357-1.525.201-.082.409-.143.621-.184zM82.858 49.901c-.136.603-.97.317-.859-.317.029-.162.064-.317.099-.47.424-1.832.269-3.82.057-5.761a2.92 2.92 0 0 0-.396-1.373 10.22 10.22 0 0 1 1.058 3.583c.127 1.227.164 2.462.11 3.694a3.333 3.333 0 0 1-.07.644z" opacity=".2"/>
            <path fill="#6C63FF" fill-rule="nonzero" d="M98.227 45.915c.472.802-.687.745-1.197-.057-.137-.21-.257-.419-.377-.634-1.438-2.452-3.63-4.878-5.835-7.221a8.093 8.093 0 0 0-1.812-1.563 28.555 28.555 0 0 1 4.751 4.059c1.416 1.484 2.668 3.028 3.893 4.573.212.267.404.549.577.843z" opacity=".5"/>
            <path fill="#6C63FF" fill-rule="nonzero" d="M56.168 45.915c-.472.802.69.745 1.2-.057.133-.21.257-.419.374-.634 1.438-2.452 3.63-4.878 5.838-7.221a8.077 8.077 0 0 1 1.809-1.563 28.815 28.815 0 0 0-4.752 4.059c-1.416 1.484-2.667 3.028-3.89 4.573-.212.267-.406.549-.58.843zM71.55 49.901c.136.603.966.317.858-.317-.029-.162-.067-.317-.101-.47-.422-1.832-.27-3.82-.054-5.761.016-.483.151-.955.392-1.373a10.213 10.213 0 0 0-1.058 3.583 25.296 25.296 0 0 0-.114 3.694c.005.217.03.433.076.644zM93.76 13.506c.606-.108.65.777.048.91a9.29 9.29 0 0 1-.469.089c-1.853.317-3.627 1.224-5.334 2.169a2.94 2.94 0 0 0-1.112.894 10.199 10.199 0 0 1 2.886-2.353 25.387 25.387 0 0 1 3.36-1.528c.201-.082.409-.142.622-.181zM88.116 1.678c.523-.318.893.478.386.827a8.513 8.513 0 0 1-.405.257c-1.6.986-2.905 2.493-4.134 4.008a2.95 2.95 0 0 0-.7 1.247 10.252 10.252 0 0 1 1.8-3.263 25.097 25.097 0 0 1 2.533-2.674c.16-.15.334-.285.52-.402z" opacity=".2"/>
            <path fill="#6C63FF" fill-rule="nonzero" d="M107.96 30.874c1.537.793.238 2.965-1.339 2.245-.412-.19-.817-.402-1.2-.602-4.695-2.436-10.137-3.333-15.522-4.024-1.314-.168-2.717-.317-3.934.203 3.317-.936 6.848-1.015 10.266-.615 3.418.4 6.735 1.252 10.026 2.156a9.18 9.18 0 0 1 1.704.637z"/>
            <path fill="#6C63FF" fill-rule="nonzero" d="M103.58 39.332c1.102 1.03-.633 2.248-1.777 1.268-.317-.257-.592-.53-.868-.79-3.373-3.174-7.808-5.422-12.243-7.496-1.086-.51-5.559-1.027-6.753-.999 3.12.28 9.487 1.269 12.319 2.537a68.18 68.18 0 0 1 8.033 4.516c.46.28.891.602 1.29.964z" opacity=".5"/>
            <path fill="#6C63FF" fill-rule="nonzero" d="M90.568 54.512c.136 1.503-1.958 1.268-2.16-.25-.054-.394-.086-.79-.121-1.167-.4-4.602-2.217-9.248-4.118-13.747-.472-1.104-3.456-4.478-4.365-5.252 2.138 2.29 6.23 7.268 7.482 10.12a68.492 68.492 0 0 1 2.98 8.726c.15.513.25 1.039.302 1.57zM91.825 3.621a.272.272 0 0 1-.13.042c-.082 0-.14-.086-.174-.162-.19-.41-.082-.951-.37-1.269-.291.347-.527.737-.7 1.155l-1.106-.317c-.105.433-.03.891.209 1.268-.194.085-.37.205-.52.355a.574.574 0 0 0-.132.584c.254.062.517.087.779.076a5.08 5.08 0 0 0 .082 1.452c.005.072.04.138.095.184.08.05.187 0 .27-.044.378-.234.69-.562.905-.952l.412.98c.027.103.091.191.18.248a.294.294 0 0 0 .346-.12.87.87 0 0 0 .12-.372l.155-.932a.222.222 0 0 1 .051-.133.237.237 0 0 1 .162-.048h1.169c.066-.21-.14-.4-.34-.488-.199-.089-.437-.152-.535-.346-.202-.396.317-.951.098-1.284-.26-.428-.674-.045-1.026.123z"/>
            <path fill="#6C63FF" fill-rule="nonzero" d="M95.154 49.099a.279.279 0 0 1-.13.038c-.085 0-.142-.086-.177-.162-.187-.406-.08-.935-.367-1.268-.295.353-.532.75-.704 1.176l-1.102-.34c-.106.435-.03.893.21 1.27-.195.082-.371.202-.52.351a.578.578 0 0 0-.137.584c.255.063.518.09.78.08-.041.484-.013.972.082 1.448a.289.289 0 0 0 .095.187c.082.051.187 0 .27-.047.38-.231.693-.56.905-.951l.412.98c.03.1.095.187.184.244a.288.288 0 0 0 .342-.118.889.889 0 0 0 .123-.37l.152-.936a.222.222 0 0 1 .051-.133.24.24 0 0 1 .165-.045c.386 0 .776-.016 1.166 0 .066-.206-.14-.4-.34-.488-.199-.089-.433-.152-.535-.346-.202-.393.317-.951.098-1.268-.26-.45-.684-.054-1.023.114z" opacity=".2"/>
            <path fill="#6C63FF" fill-rule="nonzero" d="M104.502 18.608a.247.247 0 0 1-.13.038c-.086 0-.143-.082-.177-.158-.187-.41-.08-.952-.371-1.269a4.482 4.482 0 0 0-.7 1.18l-1.102-.342c-.107.433-.031.892.209 1.268-.194.084-.37.203-.52.352a.574.574 0 0 0-.136.587c.255.061.517.087.78.076a5.2 5.2 0 0 0 .082 1.452c.005.072.04.138.095.184.079.05.187 0 .269-.044.38-.232.693-.56.906-.952l.412.98a.444.444 0 0 0 .18.248.298.298 0 0 0 .345-.121c.07-.112.11-.24.12-.371l.156-.951a.222.222 0 0 1 .05-.13.237.237 0 0 1 .162-.048h1.17c.066-.206-.14-.4-.34-.485-.2-.086-.434-.152-.535-.346-.203-.396.317-.951.098-1.268-.26-.435-.678-.041-1.023.12zM67.13 53.659a.373.373 0 0 1-.18.054c-.117 0-.196-.117-.247-.222-.26-.57-.11-1.31-.513-1.789a6.106 6.106 0 0 0-.976 1.643l-1.545-.488a2.298 2.298 0 0 0 .29 1.763 2.34 2.34 0 0 0-.724.495.803.803 0 0 0-.187.811c.355.088.72.125 1.086.111a7.206 7.206 0 0 0 .114 2.02c.007.1.055.194.133.257.111.073.26 0 .374-.06.533-.33.97-.793 1.267-1.345l.573 1.367c.043.14.132.261.254.343a.405.405 0 0 0 .478-.165 1.19 1.19 0 0 0 .171-.52l.212-1.3a.34.34 0 0 1 .073-.184.317.317 0 0 1 .228-.067c.542 0 1.084-.019 1.625-.016.095-.288-.193-.555-.472-.678-.278-.124-.605-.213-.744-.483-.285-.548.447-1.312.136-1.788-.358-.542-.95.006-1.425.241zM51.584 19.525a.377.377 0 0 1-.184.054c-.114 0-.196-.118-.243-.222-.263-.571-.111-1.31-.514-1.789a6.115 6.115 0 0 0-.978 1.643l-1.537-.479a2.282 2.282 0 0 0 .289 1.763c-.27.118-.515.286-.723.495a.803.803 0 0 0-.19.812c.356.087.721.124 1.087.11a7.092 7.092 0 0 0 .117 2.02.285.285 0 0 0 .507.197c.533-.33.97-.793 1.267-1.344l.57 1.366c.04.142.132.264.257.343a.408.408 0 0 0 .478-.165c.096-.158.154-.336.168-.52l.215-1.3a.317.317 0 0 1 .07-.184.317.317 0 0 1 .228-.064c.542 0 1.083-.022 1.628-.019.092-.288-.196-.555-.472-.678-.275-.124-.608-.213-.747-.482-.282-.549.45-1.313.139-1.789-.368-.552-.96-.003-1.432.232z"/>
            <path fill="#6C63FF" fill-rule="nonzero" d="M98.762 40.664a.184.184 0 0 1-.095.028c-.063 0-.104-.063-.133-.117-.14-.317-.057-.695-.272-.952a3.327 3.327 0 0 0-.52.873l-.817-.254c-.079.325-.023.668.155.951-.143.06-.274.15-.383.26a.425.425 0 0 0-.101.432c.188.046.382.067.576.06-.03.358-.008.72.063 1.072a.19.19 0 0 0 .07.136.196.196 0 0 0 .2-.032c.28-.176.512-.422.671-.713l.317.726c.02.074.068.139.133.18a.218.218 0 0 0 .257-.085.635.635 0 0 0 .088-.276l.114-.691a.178.178 0 0 1 .038-.098.155.155 0 0 1 .12-.035h.865c.048-.153-.104-.295-.253-.359-.149-.063-.317-.114-.396-.257-.149-.291.24-.697.076-.95-.165-.255-.523-.026-.773.1zM77.64 52.873a.253.253 0 0 1-.094.028.177.177 0 0 1-.13-.12c-.14-.302-.06-.695-.276-.952a3.277 3.277 0 0 0-.52.872l-.813-.253c-.078.32-.023.657.152.935a1.33 1.33 0 0 0-.384.263.425.425 0 0 0-.1.432c.187.047.382.066.576.057-.03.36-.009.721.063 1.075a.197.197 0 0 0 .07.136c.06.038.139 0 .2-.032.28-.176.512-.422.67-.713l.317.726c.021.074.069.139.134.18a.222.222 0 0 0 .256-.088.635.635 0 0 0 .089-.276l.114-.691a.168.168 0 0 1 .038-.095.165.165 0 0 1 .12-.035h.865c.047-.152-.105-.295-.25-.362-.146-.066-.317-.11-.396-.257-.152-.291.237-.697.073-.951-.165-.254-.52-.006-.773.12z" opacity=".2"/>
            <path fill="#6C63FF" fill-rule="nonzero" d="M57.2 10.144a.237.237 0 0 1-.095.029.177.177 0 0 1-.13-.12c-.139-.318-.06-.695-.272-.952-.22.26-.395.555-.52.872l-.817-.253c-.083.324-.027.67.155.95a1.305 1.305 0 0 0-.386.264.422.422 0 0 0-.098.431c.188.048.382.067.576.057-.03.36-.01.722.06 1.075a.197.197 0 0 0 .07.137c.06.038.14 0 .2-.032.282-.175.514-.42.671-.713l.317.726c.022.075.07.14.136.18.095.033.2-.004.254-.088a.635.635 0 0 0 .088-.276l.114-.691a.162.162 0 0 1 .038-.096.165.165 0 0 1 .12-.034h.866c.05-.153-.105-.295-.25-.362-.146-.067-.317-.11-.397-.257-.152-.292.238-.697.073-.951-.165-.254-.52-.022-.773.104zM68.081 34.22a.187.187 0 0 1-.098.028c-.06 0-.105-.06-.13-.117-.14-.301-.06-.694-.273-.951a3.197 3.197 0 0 0-.519.872l-.817-.254c-.08.325-.024.669.155.951a1.267 1.267 0 0 0-.383.264.422.422 0 0 0-.102.43c.189.048.383.068.577.058-.031.36-.01.721.06 1.075.005.053.03.101.07.136.06.038.14 0 .2-.035.282-.173.514-.418.67-.71l.318.726a.342.342 0 0 0 .136.181c.095.033.2-.004.253-.089a.635.635 0 0 0 .092-.276l.114-.69c0-.036.014-.07.038-.096a.155.155 0 0 1 .12-.035h.862c.05-.152-.101-.295-.25-.361-.15-.067-.317-.115-.396-.257-.149-.292.24-.698.073-.952-.168-.253-.52-.022-.77.102zM60.184 24.833a.174.174 0 0 1-.095.029c-.063 0-.104-.06-.13-.118-.14-.3-.06-.694-.275-.95a3.277 3.277 0 0 0-.52.871l-.814-.254c-.082.325-.027.67.152.952a1.33 1.33 0 0 0-.383.263.422.422 0 0 0-.101.431c.188.048.382.067.576.057-.03.36-.009.722.063 1.075a.197.197 0 0 0 .07.137c.06.038.14 0 .2-.035.282-.173.514-.418.671-.71l.317.726c.02.074.068.139.133.18a.222.222 0 0 0 .257-.088.635.635 0 0 0 .088-.276l.114-.691a.162.162 0 0 1 .038-.096.165.165 0 0 1 .12-.035h.865c.048-.152-.104-.294-.25-.361-.146-.067-.317-.114-.396-.257-.152-.292.238-.698.073-.951-.165-.254-.52-.022-.773.101zM94.096 27.044a.184.184 0 0 1-.095.028c-.063 0-.104-.06-.133-.117-.136-.302-.057-.695-.272-.952a3.277 3.277 0 0 0-.52.872l-.814-.253c-.078.32-.023.657.152.935a1.197 1.197 0 0 0-.383.263.422.422 0 0 0-.101.432c.188.046.382.065.576.057-.03.36-.008.721.064 1.075a.197.197 0 0 0 .07.136c.06.038.139 0 .199-.035.28-.175.512-.42.671-.71l.317.723c.02.076.068.141.133.184a.222.222 0 0 0 .257-.089.635.635 0 0 0 .088-.276l.114-.691a.178.178 0 0 1 .038-.098.168.168 0 0 1 .12-.032h.866c.047-.152-.105-.295-.25-.362-.146-.066-.317-.114-.397-.256-.152-.292.238-.698.073-.952-.164-.253-.52-.006-.773.118z" opacity=".5"/>
            <path fill="#6C63FF" fill-rule="nonzero" d="M77.64 25.198a.174.174 0 0 1-.094.028c-.064 0-.105-.063-.13-.117-.14-.317-.06-.694-.276-.951a3.381 3.381 0 0 0-.52.872l-.813-.254c-.082.325-.027.669.152.952-.143.062-.273.15-.384.26a.428.428 0 0 0-.1.434c.188.044.382.063.576.057-.03.359-.009.72.063 1.072a.184.184 0 0 0 .07.136c.06.042.139 0 .2-.031.281-.175.513-.421.67-.714l.317.726c.021.075.069.139.134.181.095.035.201 0 .256-.086a.635.635 0 0 0 .089-.276l.114-.69a.178.178 0 0 1 .038-.1.2.2 0 0 1 .12-.034h.865c.047-.152-.105-.295-.25-.358-.146-.064-.317-.115-.396-.257-.152-.292.237-.698.073-.952-.165-.253-.52-.022-.773.102z" opacity=".2"/>
            <path fill="#6C63FF" fill-rule="nonzero" d="M72.478 27.446a.184.184 0 0 1-.095.029c-.064 0-.105-.06-.133-.118-.14-.317-.058-.694-.273-.95a3.381 3.381 0 0 0-.52.871l-.817-.25c-.075.32-.02.657.156.935-.143.062-.273.15-.384.26a.428.428 0 0 0-.101.435c.189.044.383.063.576.057-.03.36-.008.721.064 1.075a.197.197 0 0 0 .07.136c.06.038.139 0 .199-.035.282-.175.514-.42.672-.713l.316.726c.02.076.068.141.133.184a.222.222 0 0 0 .257-.089.635.635 0 0 0 .089-.276l.114-.691a.178.178 0 0 1 .038-.098.187.187 0 0 1 .12-.035h.865c.047-.156-.105-.298-.25-.362-.146-.063-.317-.114-.396-.257-.152-.291.237-.697.072-.951-.164-.254-.519-.006-.772.117z" opacity=".3"/>
            <path fill="#6C63FF" fill-rule="nonzero" d="M67.666 13.852a.187.187 0 0 1-.098.028c-.06 0-.105-.06-.13-.117-.14-.317-.06-.695-.272-.952-.218.26-.394.554-.52.87l-.817-.251c-.083.325-.027.67.155.951-.143.063-.274.15-.386.26a.435.435 0 0 0-.099.435c.189.046.383.065.577.057-.03.36-.01.721.06 1.075a.197.197 0 0 0 .07.136c.06.038.14 0 .2-.035.283-.173.515-.42.67-.713l.318.726a.34.34 0 0 0 .136.184c.103.03.212-.02.256-.118a.635.635 0 0 0 .092-.275l.111-.692a.178.178 0 0 1 .038-.098.2.2 0 0 1 .12-.035h.865c.05-.155-.101-.298-.25-.361-.149-.064-.317-.115-.396-.257-.149-.292.238-.698.073-.952-.165-.253-.523-.006-.773.134z" opacity=".2"/>
            <path fill="#6C63FF" fill-rule="nonzero" d="M77.147 31.61a.218.218 0 0 1-.099.029c-.06 0-.104-.064-.13-.121-.139-.301-.06-.691-.272-.951a3.245 3.245 0 0 0-.52.872l-.817-.254a1.21 1.21 0 0 0 .156.951c-.144.062-.276.15-.387.26a.432.432 0 0 0-.098.432c.188.047.382.067.576.06-.03.358-.01.72.06 1.072.006.052.031.101.07.136a.196.196 0 0 0 .2-.032c.282-.175.514-.42.671-.713l.317.726c.022.075.07.14.136.18a.218.218 0 0 0 .254-.085.635.635 0 0 0 .092-.276l.114-.69a.13.13 0 0 1 .158-.134h.862c.05-.152-.102-.295-.25-.358-.15-.064-.317-.115-.397-.257-.148-.292.238-.698.073-.952-.164-.253-.52-.035-.77.105z" opacity=".3"/>
            <g fill-rule="nonzero" opacity=".1" transform="translate(219.83 78.962)">
                <ellipse cx="27.491" cy="161.56" fill="#3F3D56" rx="5.698" ry="7.468"/>
                <path fill="#3F3D56" d="M31.993 129.598a8.985 8.985 0 0 0 1.19-4.563c0-4.122-2.552-7.471-5.701-7.471-3.149 0-5.702 3.345-5.702 7.471a9.017 9.017 0 0 0 1.2 4.563 9.345 9.345 0 0 0 0 9.13 9.339 9.339 0 0 0 0 9.127 9.036 9.036 0 0 0-1.19 4.566c0 4.123 2.553 7.468 5.701 7.468 3.15 0 5.702-3.342 5.702-7.468a9.004 9.004 0 0 0-1.2-4.557 9.339 9.339 0 0 0 0-9.126 9.345 9.345 0 0 0 0-9.14z"/>
                <ellipse cx="27.491" cy="115.915" fill="#3F3D56" rx="5.698" ry="7.468"/>
                <ellipse cx="27.491" cy="106.788" fill="#3F3D56" rx="5.698" ry="7.468"/>
                <path fill="#6C63FF" d="M48.825 44.317a27.01 27.01 0 0 0 2.122-3.13l-14.976-2.461 16.196.12a27.411 27.411 0 0 0 .523-21.655L30.96 28.477l20.038-14.75A27.294 27.294 0 0 0 26.05.118 27.301 27.301 0 0 0 2.528 16.073a27.357 27.357 0 0 0 3.383 28.243 27.438 27.438 0 0 0-3.114 4.982l19.44 10.11L1.51 52.431a27.366 27.366 0 0 0 4.4 25.664c-8.802 11.204-7.524 27.298 2.935 36.97 10.458 9.671 26.586 9.671 37.044 0 10.46-9.672 11.737-25.766 2.935-36.97 7.789-9.915 7.789-23.877 0-33.792v.013z"/>
                <path fill="#000" d="M.07 61.213a27.231 27.231 0 0 0 5.84 16.896c-8.8 11.203-7.523 27.298 2.936 36.97 10.458 9.67 26.586 9.67 37.044 0 10.46-9.672 11.737-25.767 2.935-36.97C52.484 73.469.07 58.146.07 61.213z"/>
            </g>
            <g fill-rule="nonzero" opacity=".1" transform="translate(24.707 78.962)">
                <ellipse cx="27.308" cy="161.56" fill="#3F3D56" rx="5.698" ry="7.468"/>
                <path fill="#3F3D56" d="M31.818 129.598a9.017 9.017 0 0 0 1.191-4.563c0-4.122-2.553-7.471-5.701-7.471-3.149 0-5.702 3.345-5.702 7.471a8.985 8.985 0 0 0 1.2 4.563 9.345 9.345 0 0 0 0 9.13 9.339 9.339 0 0 0 0 9.127 9.004 9.004 0 0 0-1.19 4.566c0 4.123 2.553 7.468 5.701 7.468 3.149 0 5.702-3.342 5.702-7.468a9.036 9.036 0 0 0-1.191-4.566 9.339 9.339 0 0 0 0-9.127 9.345 9.345 0 0 0 0-9.13h-.01z"/>
                <ellipse cx="27.308" cy="115.915" fill="#3F3D56" rx="5.698" ry="7.468"/>
                <ellipse cx="27.308" cy="106.788" fill="#3F3D56" rx="5.698" ry="7.468"/>
                <path fill="#6C63FF" d="M5.974 44.317a27.01 27.01 0 0 1-2.122-3.13l14.976-2.461-16.196.12a27.411 27.411 0 0 1-.522-21.655l21.73 11.286L3.8 13.727A27.294 27.294 0 0 1 28.751.118a27.301 27.301 0 0 1 23.52 15.957 27.357 27.357 0 0 1-3.382 28.243 27.438 27.438 0 0 1 3.113 4.982l-19.44 10.11 20.726-6.977a27.366 27.366 0 0 1-4.4 25.664c8.802 11.204 7.524 27.298-2.934 36.97-10.46 9.671-26.586 9.671-37.045 0C-1.55 105.394-2.828 89.3 5.974 78.096c-7.788-9.915-7.788-23.877 0-33.792v.013z"/>
                <path fill="#000" d="M54.73 61.213a27.231 27.231 0 0 1-5.841 16.896c8.801 11.203 7.523 27.298-2.935 36.97-10.46 9.67-26.586 9.67-37.045 0-10.459-9.672-11.737-25.767-2.935-36.97-3.658-4.64 48.756-19.963 48.756-16.896z"/>
            </g>
            <g fill-rule="nonzero" opacity=".1" transform="translate(116.25 78.962)">
                <ellipse cx="27.339" cy="161.56" fill="#3F3D56" rx="5.698" ry="7.468"/>
                <path fill="#3F3D56" d="M31.85 129.598a9.014 9.014 0 0 0 1.188-4.563c0-4.122-2.534-7.471-5.702-7.471-3.167 0-5.701 3.345-5.701 7.471a8.985 8.985 0 0 0 1.197 4.563 9.345 9.345 0 0 0 0 9.13 9.339 9.339 0 0 0 0 9.127 9.004 9.004 0 0 0-1.191 4.566c0 4.123 2.553 7.468 5.702 7.468 3.148 0 5.701-3.342 5.701-7.468a9.036 9.036 0 0 0-1.188-4.566 9.358 9.358 0 0 0 0-9.127 9.364 9.364 0 0 0 0-9.13h-.006z"/>
                <ellipse cx="27.339" cy="115.915" fill="#3F3D56" rx="5.698" ry="7.468"/>
                <ellipse cx="27.339" cy="106.788" fill="#3F3D56" rx="5.698" ry="7.468"/>
                <path fill="#6C63FF" d="M6.018 44.317a27.01 27.01 0 0 1-2.122-3.13l14.973-2.461-16.192.12a27.411 27.411 0 0 1-.523-21.655l21.73 11.286-20.042-14.75A27.294 27.294 0 0 1 28.788.133 27.301 27.301 0 0 1 52.3 16.082a27.357 27.357 0 0 1-3.368 28.235 27.248 27.248 0 0 1 3.11 4.982l-19.449 10.11 20.726-6.977a27.366 27.366 0 0 1-4.4 25.664c8.802 11.204 7.524 27.298-2.935 36.97-10.458 9.671-26.586 9.671-37.044 0-10.46-9.672-11.737-25.766-2.935-36.97-7.789-9.915-7.789-23.877 0-33.792l.012.013z"/>
                <path fill="#000" d="M54.761 61.213a27.231 27.231 0 0 1-5.84 16.896c8.8 11.203 7.523 27.298-2.936 36.97-10.458 9.67-26.586 9.67-37.044 0-10.46-9.672-11.737-25.767-2.935-36.97-3.659-4.64 48.755-19.963 48.755-16.896z"/>
            </g>
            <g fill="#6C63FF" fill-rule="nonzero" opacity=".6">
                <path d="M165.81 44.694a.633.633 0 0 0-1.029.736c.117.177.247.349.37.514 1.486 2.01 2.256 4.44 2.921 6.862.162.593.317 1.224.133 1.81.23-1.579.122-3.19-.317-4.724a29.446 29.446 0 0 0-1.669-4.462 3.953 3.953 0 0 0-.408-.736z" opacity=".5"/>
                <path d="M156.162 48.921c-1.004-.031-1.13 1.49-.133 1.57.263.022.526.029.78.035 3.072.082 5.973 1.199 8.764 2.397.687.295 1.406.634 1.805 1.269a13.161 13.161 0 0 0-4.675-3.317 34.585 34.585 0 0 0-5.518-1.786 4.715 4.715 0 0 0-1.023-.168z"/>
                <path d="M156.44 52.663c-.633.022-.49.926.15.93h.49c1.94-.08 3.922.456 5.848 1.046.487.107.939.335 1.315.663a10.544 10.544 0 0 0-3.418-1.757 26.05 26.05 0 0 0-3.713-.831 3.575 3.575 0 0 0-.671-.05z" opacity=".2"/>
                <path d="M169.403 69.416c.18.61 1.016.248.864-.374-.04-.162-.088-.317-.136-.472-.554-1.862-.529-3.917-.437-5.93a3.006 3.006 0 0 1 .317-1.44 10.611 10.611 0 0 0-.862 3.748 26.35 26.35 0 0 0 .13 3.806c.02.224.062.446.124.662z" opacity=".5"/>
                <path d="M157.597 43.847c-.383-.066-.412.492-.032.574l.295.058c1.169.2 2.284.77 3.36 1.366.277.126.518.319.7.562a6.416 6.416 0 0 0-1.817-1.481 16.07 16.07 0 0 0-2.116-.952 2.383 2.383 0 0 0-.39-.127z" opacity=".2"/>
                <path d="M151.708 58.584c-.966.498-.148 1.868.846 1.414.26-.12.513-.254.754-.377 2.959-1.538 6.392-2.103 9.769-2.537.83-.108 1.714-.2 2.48.127a16.77 16.77 0 0 0-6.468-.387 42.215 42.215 0 0 0-6.313 1.36c-.369.097-.726.23-1.068.4z"/>
                <path d="M154.474 63.911c-.697.635.39 1.415 1.118.793.19-.165.374-.336.545-.498 2.119-1.991 4.919-3.409 7.706-4.715.685-.317 3.485-.635 4.255-.635-1.964.178-5.978.79-7.761 1.586a43.018 43.018 0 0 0-5.068 2.854c-.284.18-.55.386-.795.615z" opacity=".5"/>
                <path d="M159.431 72.413c-.203.93 1.125.951 1.372 0 .063-.24.117-.485.167-.72.612-2.854 2.11-5.603 3.662-8.264.38-.653 2.512-2.537 3.142-2.936-1.517 1.268-4.469 4.05-5.473 5.73a43.148 43.148 0 0 0-2.534 5.22 5.665 5.665 0 0 0-.336.97zM169.415 39.773c-.475-.968-1.827-.172-1.397.82.111.258.238.511.358.756 1.457 2.952 1.961 6.367 2.335 9.725.092.822.17 1.7-.165 2.458.571-2.086.735-4.263.482-6.412a42.564 42.564 0 0 0-1.236-6.285 5.658 5.658 0 0 0-.377-1.062zM161.864 41.418a.142.142 0 0 0 .079.023.14.14 0 0 0 .11-.099c.121-.26.051-.593.235-.808.185.223.333.473.44.742l.697-.216c.066.272.018.56-.133.796.118.054.226.13.317.222.094.098.125.24.082.368a1.69 1.69 0 0 1-.49.05c.027.306.01.613-.051.914a.178.178 0 0 1-.06.117.165.165 0 0 1-.168-.028 1.617 1.617 0 0 1-.574-.606l-.256.615a.279.279 0 0 1-.117.156.184.184 0 0 1-.216-.073.568.568 0 0 1-.076-.235l-.098-.59c0-.03-.012-.06-.032-.082a.142.142 0 0 0-.101-.029h-.735c-.044-.13.086-.25.212-.317.127-.067.273-.098.336-.219.13-.25-.203-.596-.06-.808.142-.213.453 0 .659.107z"/>
                <path d="M175.282 44.694a.633.633 0 1 1 1.032.736c-.12.177-.247.349-.37.514-1.486 2.01-2.259 4.44-2.92 6.862-.166.593-.318 1.224-.137 1.81-.23-1.579-.121-3.19.317-4.724a29.11 29.11 0 0 1 1.669-4.462c.11-.26.247-.506.409-.736z" opacity=".5"/>
                <path d="M184.93 48.921c1.001-.031 1.13 1.49.13 1.57-.26.022-.526.029-.776.035-3.073.082-5.977 1.199-8.768 2.397-.684.295-1.403.634-1.802 1.269a13.161 13.161 0 0 1 4.675-3.317 34.651 34.651 0 0 1 5.515-1.786c.335-.093.679-.15 1.026-.168z"/>
                <path d="M184.67 52.663c.634.022.488.926-.149.93h-.49c-1.94-.08-3.922.456-5.848 1.046-.487.106-.939.334-1.314.663a10.512 10.512 0 0 1 3.417-1.757 26.05 26.05 0 0 1 3.72-.818c.218-.042.441-.063.664-.064z" opacity=".5"/>
                <path d="M183.498 43.847c.384-.066.412.492.032.574l-.298.058c-1.165.2-2.284.77-3.357 1.366a1.822 1.822 0 0 0-.7.562 6.403 6.403 0 0 1 1.815-1.481 16.298 16.298 0 0 1 2.119-.952c.126-.054.256-.096.39-.127zM173.584 70.57c-.086.378-.608.191-.539-.193 0-.101.041-.2.064-.295.266-1.154.168-2.407.034-3.63-.01-.304-.096-.6-.25-.863.358.702.584 1.464.665 2.248.08.773.104 1.551.073 2.328a1.971 1.971 0 0 1-.047.406z" opacity=".2"/>
                <path d="M183.254 68.06c.298.503-.434.468-.753-.036-.086-.133-.162-.266-.238-.393-.906-1.544-2.287-3.073-3.678-4.547a5.092 5.092 0 0 0-1.137-.987 18.175 18.175 0 0 1 2.987 2.556 44.117 44.117 0 0 1 2.452 2.88c.134.167.257.343.367.526z" opacity=".5"/>
                <path d="M156.76 68.06c-.297.503.435.468.758-.036.082-.133.161-.266.234-.393.906-1.544 2.287-3.073 3.678-4.547.33-.384.713-.716 1.14-.987a18.197 18.197 0 0 0-2.99 2.556 45.124 45.124 0 0 0-2.452 2.88 4.757 4.757 0 0 0-.367.526zM166.45 70.57c.086.378.609.191.542-.193a6.848 6.848 0 0 0-.063-.295c-.266-1.154-.171-2.407-.035-3.63.008-.304.093-.601.247-.863a6.405 6.405 0 0 0-.665 2.248c-.08.773-.104 1.551-.07 2.328.002.136.017.272.044.406zM180.448 47.643c.38-.066.409.489.028.574-.098.022-.2.038-.294.054-1.169.2-2.284.77-3.36 1.37-.277.127-.517.32-.701.561a6.425 6.425 0 0 1 1.818-1.484 16.05 16.05 0 0 1 2.116-.951 2.07 2.07 0 0 1 .393-.124zM176.884 40.194c.317-.206.564.298.244.52l-.253.162c-1.007.634-1.83 1.57-2.607 2.537-.21.22-.36.491-.437.786a6.443 6.443 0 0 1 1.13-2.058c.494-.599 1.03-1.162 1.603-1.684.098-.098.205-.186.32-.263z" opacity=".2"/>
                <path d="M189.387 58.584c.966.498.149 1.868-.846 1.414-.26-.12-.513-.254-.757-.377-2.955-1.538-6.389-2.103-9.766-2.537-.83-.108-1.713-.2-2.48.127a16.77 16.77 0 0 1 6.465-.387 42.17 42.17 0 0 1 6.316 1.36 5.79 5.79 0 0 1 1.068.4z"/>
                <path d="M186.622 63.911c.696.635-.39 1.415-1.119.793-.19-.165-.373-.336-.548-.498-2.119-1.991-4.916-3.409-7.706-4.715-.681-.317-3.5-.635-4.251-.635 1.964.178 5.974.79 7.757 1.586a42.81 42.81 0 0 1 5.068 2.854c.285.18.552.386.799.615z" opacity=".5"/>
                <path d="M178.43 73.47c.086.95-1.235.795-1.362-.156-.032-.25-.054-.498-.076-.736-.25-2.898-1.394-5.825-2.6-8.66-.295-.695-2.177-2.82-2.747-3.308 1.346 1.443 3.925 4.58 4.714 6.374a43.237 43.237 0 0 1 1.875 5.496c.096.323.162.654.196.99zM179.222 41.418a.152.152 0 0 1-.082.023.149.149 0 0 1-.111-.099c-.117-.26-.05-.593-.231-.808a2.794 2.794 0 0 0-.444.742l-.694-.216c-.067.272-.018.56.134.796-.119.054-.226.13-.317.222a.365.365 0 0 0-.086.368c.16.04.326.057.491.05-.025.306-.007.613.054.914a.178.178 0 0 0 .06.117.165.165 0 0 0 .168-.028c.24-.149.439-.357.573-.606l.257.615c.02.063.06.118.114.156a.187.187 0 0 0 .219-.073.568.568 0 0 0 .076-.235l.098-.59c0-.03.012-.06.032-.082a.142.142 0 0 1 .1-.029h.736c.044-.13-.089-.25-.212-.317-.124-.067-.276-.098-.34-.219-.126-.25.206-.596.064-.808-.143-.213-.444 0-.659.107z"/>
                <path d="M181.319 70.063a.193.193 0 0 1-.082.026c-.054 0-.089-.054-.111-.102-.117-.257-.05-.593-.231-.808a2.715 2.715 0 0 0-.444.742l-.694-.216c-.066.272-.02.56.13.796a1.055 1.055 0 0 0-.316.225.362.362 0 0 0-.086.368c.16.038.326.054.491.048a3.27 3.27 0 0 0 .05.913.178.178 0 0 0 .06.117c.052.032.118 0 .172-.028a1.61 1.61 0 0 0 .57-.606l.26.615c.017.064.058.12.114.155.08.029.169-.001.215-.072a.559.559 0 0 0 .08-.235l.094-.59a.187.187 0 0 1 .032-.082.146.146 0 0 1 .105-.029h.735c.04-.13-.09-.25-.213-.317s-.275-.098-.339-.219c-.126-.25.203-.593.064-.809-.14-.215-.44 0-.656.108z" opacity=".2"/>
                <path d="M187.204 50.862a.206.206 0 0 1-.082.025c-.054 0-.089-.054-.11-.101-.121-.257-.051-.593-.235-.809a2.785 2.785 0 0 0-.44.742l-.697-.215c-.066.272-.018.56.133.796a1.02 1.02 0 0 0-.317.225.362.362 0 0 0-.086.368c.161.038.326.054.491.047a3.27 3.27 0 0 0 .051.913.178.178 0 0 0 .06.118.165.165 0 0 0 .168-.029c.24-.148.439-.357.573-.605l.26.615c.017.064.058.12.114.155.08.029.17-.002.216-.073a.514.514 0 0 0 .076-.234l.098-.59c0-.03.012-.06.032-.083a.142.142 0 0 1 .1-.028h.739c.041-.13-.089-.25-.215-.317-.127-.067-.273-.099-.336-.22-.13-.25.202-.595.063-.808-.14-.212-.44 0-.656.108zM163.666 72.936a.24.24 0 0 1-.114.035c-.073 0-.123-.076-.155-.142-.165-.359-.07-.822-.317-1.126-.257.31-.465.66-.614 1.034l-.97-.298c-.091.38-.025.78.184 1.11-.17.075-.326.183-.456.317a.505.505 0 0 0-.12.51c.223.056.453.08.684.07-.035.424-.01.85.073 1.268a.241.241 0 0 0 .085.165c.07.045.162 0 .234-.041.334-.208.61-.498.799-.844l.358.86c.025.09.083.166.161.215a.256.256 0 0 0 .317-.104.727.727 0 0 0 .108-.317l.133-.818a.159.159 0 0 1 .19-.159h1.023c.06-.18-.124-.352-.298-.428-.174-.076-.38-.133-.469-.317-.177-.346.282-.828.086-1.126-.25-.358-.621-.013-.922.136zM153.872 51.436a.237.237 0 0 1-.114.032c-.073 0-.124-.073-.155-.14-.165-.358-.07-.824-.317-1.126-.257.311-.465.66-.615 1.034l-.969-.301c-.092.38-.025.78.184 1.11-.17.078-.324.185-.456.317a.505.505 0 0 0-.118.514c.223.055.452.078.682.07-.035.424-.01.85.072 1.268a.235.235 0 0 0 .086.162c.07.047.161 0 .234-.038.335-.209.61-.5.799-.847l.357.862a.412.412 0 0 0 .162.216.263.263 0 0 0 .3-.105.74.74 0 0 0 .109-.317l.133-.821a.206.206 0 0 1 .047-.114.187.187 0 0 1 .143-.041h1.023c.06-.184-.12-.352-.298-.428-.177-.077-.38-.137-.469-.318-.177-.345.282-.827.089-1.125-.238-.346-.608-.013-.91.136z"/>
                <path d="M183.59 64.748a.104.104 0 0 1-.06.02.11.11 0 0 1-.082-.073c-.086-.194-.035-.438-.171-.6-.133.166-.24.35-.317.549l-.516-.159a.771.771 0 0 0 .098.59.757.757 0 0 0-.241.165.267.267 0 0 0-.063.273c.118.029.24.04.36.035-.019.227-.005.455.042.678a.127.127 0 0 0 .044.086.12.12 0 0 0 .124-.022c.179-.11.325-.265.424-.45l.19.46a.21.21 0 0 0 .086.113.14.14 0 0 0 .161-.057.438.438 0 0 0 .051-.18l.07-.438a.086.086 0 0 1 .101-.083h.542c.031-.095-.064-.184-.155-.225-.092-.041-.206-.073-.25-.161-.096-.184.148-.441.044-.6-.105-.158-.32.003-.482.08zM170.286 72.439a.133.133 0 0 1-.06.019.11.11 0 0 1-.082-.077c-.086-.19-.035-.434-.171-.596-.134.166-.24.35-.317.549l-.516-.159a.774.774 0 0 0 .098.59.757.757 0 0 0-.24.165.267.267 0 0 0-.064.273c.118.029.24.04.36.035-.019.226-.005.453.042.675a.136.136 0 0 0 .041.089c.038.022.089 0 .127-.022.179-.11.325-.265.424-.45l.19.46a.21.21 0 0 0 .086.113c.06.02.126-.004.162-.057a.39.39 0 0 0 .053-.171l.073-.438a.086.086 0 0 1 .102-.082h.541c.032-.095-.063-.187-.155-.225-.092-.038-.206-.073-.25-.162-.095-.184.149-.44.044-.6-.104-.158-.33-.006-.488.07z" opacity=".2"/>
                <path d="M157.43 45.525a.149.149 0 0 1-.061.019c-.041 0-.067-.041-.082-.076-.09-.19-.038-.438-.175-.596-.134.165-.24.35-.316.548l-.539-.174a.755.755 0 0 0 .095.59.855.855 0 0 0-.24.165.27.27 0 0 0-.064.272c.12.029.242.042.364.038-.019.226-.006.454.038.676a.12.12 0 0 0 .045.085c.038.026.085 0 .123-.019.178-.11.325-.265.425-.45l.19.457a.197.197 0 0 0 .085.114c.06.023.128 0 .162-.054a.419.419 0 0 0 .057-.174l.07-.435a.114.114 0 0 1 .025-.063.101.101 0 0 1 .076-.02h.545c.028-.098-.067-.186-.159-.228-.092-.04-.202-.07-.25-.161-.095-.184.149-.438.048-.596-.102-.159-.32.003-.463.082zM164.265 60.693a.101.101 0 0 1-.06 0c-.038 0-.067-.038-.083-.073-.088-.19-.038-.438-.17-.6a1.992 1.992 0 0 0-.318.552l-.513-.162a.759.759 0 0 0 .098.59.808.808 0 0 0-.243.165.273.273 0 0 0-.064.273c.12.028.242.041.364.038-.019.226-.006.453.038.675a.127.127 0 0 0 .045.086c.038.025.089 0 .127-.02.177-.11.322-.265.42-.45l.194.457a.197.197 0 0 0 .086.114.14.14 0 0 0 .158-.054.378.378 0 0 0 .057-.174l.073-.434c0-.023.008-.045.022-.064a.127.127 0 0 1 .076-.022h.545c.032-.098-.067-.187-.159-.228-.091-.042-.202-.07-.25-.162-.092-.184.152-.44.048-.6-.105-.158-.333.013-.491.093zM159.292 54.778a.133.133 0 0 1-.06.02.11.11 0 0 1-.083-.077c-.089-.19-.038-.437-.171-.596-.134.165-.241.35-.317.549l-.513-.159a.762.762 0 0 0 .098.59.808.808 0 0 0-.244.165.273.273 0 0 0-.063.273c.12.029.242.04.364.035-.019.225-.006.453.038.675a.127.127 0 0 0 .045.089c.038.022.088 0 .126-.022.178-.11.324-.266.422-.45l.193.46a.21.21 0 0 0 .085.113c.06.02.126-.004.159-.057a.406.406 0 0 0 .057-.174l.073-.435c0-.022.008-.043.022-.06a.108.108 0 0 1 .076-.022h.545c.031-.095-.067-.187-.159-.225-.092-.038-.202-.073-.25-.162-.095-.184.152-.44.048-.6-.105-.158-.333-.009-.491.07zM180.654 56.17a.149.149 0 0 1-.06.02.105.105 0 0 1-.083-.077c-.088-.19-.038-.434-.174-.596-.133.166-.24.35-.317.549l-.513-.159a.762.762 0 0 0 .095.59.795.795 0 0 0-.24.165.267.267 0 0 0-.064.273c.12.029.242.04.364.035-.019.225-.006.453.038.675a.127.127 0 0 0 .045.089c.038.022.085 0 .123-.022.18-.11.326-.265.425-.45l.19.46a.21.21 0 0 0 .085.113.14.14 0 0 0 .162-.057.406.406 0 0 0 .057-.174l.07-.435a.086.086 0 0 1 .1-.082h.546c.028-.095-.067-.187-.159-.225-.091-.038-.202-.073-.25-.162-.095-.184.149-.44.048-.6-.102-.158-.33-.009-.488.07z" opacity=".5"/>
                <path d="M170.286 55.007a.104.104 0 0 1-.06.019.11.11 0 0 1-.082-.073c-.086-.19-.035-.438-.171-.6-.133.166-.24.351-.317.55l-.516-.16a.771.771 0 0 0 .098.59.757.757 0 0 0-.24.165.267.267 0 0 0-.064.273c.118.029.24.04.36.035-.019.227-.005.455.042.678a.136.136 0 0 0 .041.086.127.127 0 0 0 .127-.022c.179-.11.325-.265.424-.45l.19.46a.21.21 0 0 0 .086.114c.06.019.126-.005.162-.058a.39.39 0 0 0 .053-.17l.073-.438a.086.086 0 0 1 .102-.083h.541c.032-.095-.063-.184-.155-.225-.092-.041-.206-.073-.25-.162-.095-.184.149-.44.044-.6-.104-.158-.33-.005-.488.07z" opacity=".2"/>
                <path d="M167.036 56.424a.161.161 0 0 1-.063.02c-.038 0-.063-.042-.082-.077-.086-.19-.035-.437-.171-.596-.134.165-.24.35-.317.549l-.516-.159a.774.774 0 0 0 .098.59.741.741 0 0 0-.241.165.267.267 0 0 0-.063.272c.118.03.24.041.36.035a2.42 2.42 0 0 0 .042.676.114.114 0 0 0 .044.085c.038.026.086 0 .124-.019.178-.11.324-.265.424-.45l.19.457c.014.048.044.09.086.117a.14.14 0 0 0 .161-.057.473.473 0 0 0 .057-.174l.07-.435a.086.086 0 0 1 .101-.082h.545c.029-.095-.066-.187-.158-.229-.092-.04-.203-.07-.25-.158-.095-.187.149-.441.044-.6-.104-.158-.326-.01-.485.07z" opacity=".3"/>
                <path d="M164.002 47.853a.101.101 0 0 1-.06.015c-.038 0-.067-.038-.083-.072-.085-.19-.035-.438-.17-.6-.134.166-.24.35-.318.549l-.516-.159a.771.771 0 0 0 .098.59.757.757 0 0 0-.24.165.267.267 0 0 0-.064.273c.118.028.24.04.361.038-.02.226-.005.453.042.675a.136.136 0 0 0 .04.086c.039.025.09 0 .127-.022.18-.109.326-.263.425-.448l.19.457a.21.21 0 0 0 .085.114.146.146 0 0 0 .162-.054.416.416 0 0 0 .054-.174l.073-.434a.114.114 0 0 1 .025-.064.12.12 0 0 1 .076-.022h.542c.031-.098-.064-.187-.155-.228-.092-.042-.206-.073-.25-.162-.096-.184.148-.44.044-.6-.105-.158-.33.007-.488.077z" opacity=".2"/>
                <path d="M169.976 59.04a.092.092 0 0 1-.143-.057c-.088-.19-.038-.437-.174-.599-.133.166-.24.35-.317.549l-.513-.159a.768.768 0 0 0 .095.59.833.833 0 0 0-.24.165.267.267 0 0 0-.064.272c.12.03.242.041.364.035-.019.227-.006.456.038.679a.127.127 0 0 0 .045.086.12.12 0 0 0 .123-.023c.178-.109.325-.263.425-.447l.19.457a.21.21 0 0 0 .085.114.14.14 0 0 0 .162-.057.394.394 0 0 0 .047-.178l.07-.437a.13.13 0 0 1 .025-.06.104.104 0 0 1 .076-.023h.545c.032-.095-.066-.184-.158-.225-.092-.041-.203-.073-.25-.162-.095-.183.152-.44.047-.599-.104-.158-.32 0-.478.08z" opacity=".3"/>
            </g>
            <g fill="#6C63FF" fill-rule="nonzero" opacity=".8">
                <path d="M249.802 12.583c-.77-1.046-2.36.089-1.64 1.17.186.286.392.558.589.822 2.366 3.2 3.592 7.084 4.646 10.921.26.951.51 1.95.216 2.88.424-2.493.149-5.074-.491-7.52-.64-2.444-1.616-4.785-2.658-7.11-.18-.409-.401-.8-.662-1.163z" opacity=".5"/>
                <path d="M234.446 19.303c-1.584-.051-1.8 2.375-.21 2.502.419.032.837.041 1.24.054 4.887.133 9.502 1.902 13.953 3.805 1.09.47 2.217.996 2.873 1.998-2.002-2.325-4.641-4.027-7.444-5.28-2.804-1.253-5.794-2.074-8.78-2.854a7.452 7.452 0 0 0-1.632-.225z"/>
                <path d="M234.886 25.268c-1.007.035-.78 1.471.235 1.477.266 0 .532 0 .785-.019 3.082-.126 6.24.727 9.303 1.662.754.232 1.546.492 2.094 1.056a16.753 16.753 0 0 0-5.439-2.794 41.709 41.709 0 0 0-5.917-1.303 5.17 5.17 0 0 0-1.06-.08z" opacity=".2"/>
                <path d="M255.52 51.924c.285.97 1.615.394 1.371-.593-.063-.257-.139-.51-.212-.754-.887-2.96-.846-6.235-.7-9.438.038-.786.092-1.62.5-2.29a16.804 16.804 0 0 0-1.352 5.966c-.08 2.024-.01 4.052.206 6.066.027.353.09.703.187 1.043z" opacity=".5"/>
                <path d="M236.723 11.229c-.605-.105-.652.78-.047.913.158.035.317.064.472.09 1.856.316 3.633 1.226 5.343 2.175.441.202.826.51 1.119.897a10.272 10.272 0 0 0-2.896-2.363 25.9 25.9 0 0 0-3.367-1.531 3.52 3.52 0 0 0-.624-.181z" opacity=".2"/>
                <path d="M227.354 34.686c-1.54.793-.238 2.971 1.343 2.248.415-.19.817-.402 1.203-.602 4.707-2.445 10.171-3.343 15.55-4.037 1.318-.168 2.724-.317 3.947.206-3.33-.951-6.87-1.018-10.295-.634-3.424.384-6.753 1.268-10.05 2.166a8.933 8.933 0 0 0-1.698.653z"/>
                <path d="M231.753 43.162c-1.108 1.034.634 2.255 1.78 1.269.317-.26.593-.536.872-.796 3.37-3.171 7.827-5.423 12.265-7.503 1.09-.51 5.571-1.03 6.769-1.002-3.127.279-9.503 1.268-12.354 2.537a68.044 68.044 0 0 0-8.052 4.525 8.534 8.534 0 0 0-1.28.97z" opacity=".5"/>
                <path d="M239.647 56.697c-.317 1.478 1.79 1.5 2.182.022.102-.387.184-.777.263-1.148.976-4.525 3.361-8.92 5.832-13.154.608-1.04 4-4.02 5.002-4.677-2.414 2.01-7.112 6.447-8.715 9.126a68.602 68.602 0 0 0-4.057 8.306 8.445 8.445 0 0 0-.507 1.525zM255.536 4.74c-.754-1.537-2.908-.272-2.218 1.307.18.413.38.815.574 1.202 2.318 4.7 3.117 10.148 3.715 15.479.146 1.312.27 2.708-.263 3.913.973-3.289 1.103-6.802.767-10.205-.336-3.403-1.137-6.707-1.974-10.002a8.838 8.838 0 0 0-.601-1.693zM243.53 7.36c.04.023.085.036.13.038.083 0 .143-.085.178-.161.187-.41.079-.952.37-1.269.295.354.532.752.704 1.18l1.105-.343c.104.434.029.892-.209 1.269.193.086.37.206.52.355a.574.574 0 0 1 .136.587 2.803 2.803 0 0 1-.78.076c.042.486.013.977-.085 1.455a.263.263 0 0 1-.095.184c-.08.054-.187 0-.27-.044a2.577 2.577 0 0 1-.908-.952l-.422.945a.438.438 0 0 1-.183.245.294.294 0 0 1-.346-.118.898.898 0 0 1-.12-.374l-.155-.951a.222.222 0 0 0-.051-.133.237.237 0 0 0-.162-.048h-1.172c-.066-.21.14-.403.34-.488.199-.086.436-.156.538-.35.203-.396-.317-.95-.102-1.287.273-.38.697.016 1.04.184z"/>
                <path d="M264.877 12.583c.77-1.046 2.357.089 1.64 1.17-.19.286-.392.558-.589.822-2.366 3.2-3.592 7.084-4.65 10.921-.26.951-.51 1.95-.212 2.88-.424-2.493-.149-5.074.491-7.52.64-2.444 1.628-4.785 2.655-7.1.181-.412.404-.805.665-1.173z" opacity=".5"/>
                <path d="M280.23 19.303c1.584-.051 1.8 2.375.21 2.502-.416.032-.837.041-1.236.054-4.89.133-9.503 1.902-13.953 3.805-1.09.47-2.237.996-2.873 1.998 2.002-2.325 4.637-4.027 7.443-5.28 2.807-1.253 5.79-2.074 8.781-2.854a7.452 7.452 0 0 1 1.628-.225z"/>
                <path d="M279.79 25.268c1.01.035.782 1.471-.231 1.477-.266 0-.533 0-.786-.019-3.085-.126-6.24.727-9.303 1.662-.754.232-1.55.492-2.094 1.056a16.753 16.753 0 0 1 5.439-2.794 41.709 41.709 0 0 1 5.933-1.31c.344-.059.693-.083 1.042-.072z" opacity=".5"/>
                <path d="M277.956 11.229c.605-.105.652.78.047.913a8.774 8.774 0 0 1-.472.09c-1.856.316-3.636 1.226-5.347 2.175a2.93 2.93 0 0 0-1.115.897 10.259 10.259 0 0 1 2.892-2.363 26.134 26.134 0 0 1 3.37-1.531c.203-.08.412-.14.625-.181zM262.153 53.76c-.136.603-.97.318-.859-.317.029-.158.067-.317.102-.469.42-1.836.269-3.83.054-5.775a2.92 2.92 0 0 0-.396-1.376c.57 1.118.929 2.332 1.06 3.58.128 1.23.165 2.469.112 3.704-.002.22-.026.439-.073.653z" opacity=".2"/>
                <path d="M277.566 49.762c.475.805-.69.751-1.203-.054-.134-.21-.257-.422-.374-.635-1.445-2.457-3.64-4.89-5.854-7.24a8.124 8.124 0 0 0-1.815-1.566 28.834 28.834 0 0 1 4.751 4.069c1.42 1.487 2.674 3.038 3.903 4.585.216.266.414.547.592.84z" opacity=".5"/>
                <path d="M235.396 49.762c-.475.805.69.751 1.2-.054.137-.21.26-.422.378-.635 1.444-2.457 3.64-4.89 5.853-7.24a8.055 8.055 0 0 1 1.815-1.566 28.7 28.7 0 0 0-4.751 4.069c-1.42 1.487-2.677 3.038-3.903 4.585a7.474 7.474 0 0 0-.592.84zM250.82 53.76c.135.603.968.318.857-.317-.028-.158-.066-.317-.1-.469-.422-1.836-.27-3.83-.055-5.775a2.92 2.92 0 0 1 .396-1.376 10.258 10.258 0 0 0-1.045 3.59 25.423 25.423 0 0 0-.11 3.704c-.004.216.015.431.056.643zM273.097 17.27c.605-.108.652.777.047.913-.158.035-.317.06-.472.086-1.856.317-3.633 1.23-5.347 2.179-.44.2-.823.508-1.115.894a10.205 10.205 0 0 1 2.896-2.36 25.08 25.08 0 0 1 3.367-1.531c.2-.082.41-.143.624-.18zM267.43 5.41c.523-.317.896.479.383.83-.133.093-.272.175-.402.258-1.606.99-2.914 2.499-4.146 4.02-.336.35-.577.779-.7 1.247a10.246 10.246 0 0 1 1.802-3.273 25.525 25.525 0 0 1 2.553-2.68c.156-.15.327-.285.51-.402z" opacity=".2"/>
                <path d="M287.326 34.686c1.539.793.237 2.971-1.344 2.248-.414-.19-.82-.402-1.203-.602-4.707-2.445-10.175-3.343-15.55-4.037-1.318-.168-2.724-.317-3.947.206 3.326-.951 6.87-1.018 10.295-.634 3.424.384 6.753 1.268 10.05 2.166.587.16 1.156.379 1.699.653z"/>
                <path d="M282.926 43.162c1.105 1.034-.634 2.255-1.784 1.269-.3-.26-.592-.536-.868-.796-3.373-3.171-7.83-5.423-12.264-7.503-1.09-.51-5.575-1.03-6.77-1.002 3.127.279 9.503 1.268 12.354 2.537a68.082 68.082 0 0 1 8.055 4.525c.455.283.883.608 1.277.97z" opacity=".5"/>
                <path d="M269.878 58.384c.137 1.506-1.967 1.268-2.17-.25-.053-.397-.085-.793-.117-1.174-.402-4.61-2.217-9.27-4.14-13.782-.472-1.106-3.465-4.487-4.377-5.264 2.144 2.296 6.25 7.294 7.504 10.148a68.34 68.34 0 0 1 2.984 8.746c.154.514.26 1.042.316 1.576zM271.145 7.36a.279.279 0 0 1-.13.038c-.085 0-.142-.085-.177-.161-.19-.41-.079-.952-.37-1.269a4.409 4.409 0 0 0-.704 1.18l-1.105-.343c-.106.434-.03.892.209 1.269a1.755 1.755 0 0 0-.523.355.578.578 0 0 0-.133.587c.255.061.518.087.78.076-.041.486-.013.976.082 1.455.007.072.04.138.095.184.082.054.19 0 .272-.044.38-.233.694-.561.91-.952l.411.983a.425.425 0 0 0 .184.245.288.288 0 0 0 .342-.118.86.86 0 0 0 .124-.374l.152-.951a.248.248 0 0 1 .053-.133.237.237 0 0 1 .162-.048h1.172c.067-.21-.143-.403-.342-.488-.2-.086-.434-.156-.535-.35-.203-.396.316-.95.098-1.287-.257-.418-.681-.022-1.027.146z"/>
                <path d="M274.484 52.955a.279.279 0 0 1-.13.038c-.085 0-.142-.082-.177-.159-.187-.412-.08-.95-.37-1.287a4.46 4.46 0 0 0-.704 1.18l-1.105-.343c-.105.434-.03.891.209 1.269-.194.085-.37.206-.52.355a.574.574 0 0 0-.136.586c.255.063.517.09.78.08a5.08 5.08 0 0 0 .085 1.452.27.27 0 0 0 .095.187c.079.051.187 0 .269-.047.38-.233.693-.561.91-.952l.41.983c.032.102.097.19.185.248a.317.317 0 0 0 .345-.12.898.898 0 0 0 .12-.375l.155-.935a.171.171 0 0 1 .213-.178c.39 0 .782-.016 1.172 0 .066-.21-.14-.4-.34-.488-.199-.09-.436-.153-.538-.35-.202-.392.317-.95.102-1.284-.25-.424-.688-.028-1.03.14z" opacity=".2"/>
                <path d="M283.857 22.391a.25.25 0 0 1-.133.039c-.082 0-.14-.083-.174-.159-.19-.41-.083-.951-.37-1.288a4.44 4.44 0 0 0-.704 1.183l-1.106-.345c-.106.433-.03.892.21 1.268a1.714 1.714 0 0 0-.523.355.59.59 0 0 0-.136.587c.256.063.519.09.782.08-.04.485-.013.974.082 1.452.007.072.04.139.095.187.083.05.187 0 .27-.045.38-.233.695-.56.912-.951l.409.983c.03.102.095.19.183.247a.298.298 0 0 0 .346-.12.844.844 0 0 0 .123-.374l.152-.952a.25.25 0 0 1 .05-.13.231.231 0 0 1 .166-.047h1.168c.07-.206-.139-.4-.339-.489-.2-.088-.437-.152-.535-.345-.203-.397.317-.952.098-1.288-.26-.412-.687-.016-1.026.152zM246.388 57.528a.373.373 0 0 1-.18.054c-.118 0-.2-.118-.248-.225-.263-.568-.11-1.31-.516-1.789a6.166 6.166 0 0 0-.98 1.643l-1.542-.476c-.144.604-.04 1.24.292 1.766a2.34 2.34 0 0 0-.726.495.81.81 0 0 0-.19.815c.357.087.723.125 1.09.111a7.137 7.137 0 0 0 .117 2.026.38.38 0 0 0 .13.257.364.364 0 0 0 .377-.063 3.56 3.56 0 0 0 1.267-1.345l.573 1.37c.041.142.132.264.257.343a.412.412 0 0 0 .481-.165c.095-.159.152-.337.168-.52l.216-1.304a.317.317 0 0 1 .07-.187.332.332 0 0 1 .227-.063c.545 0 1.09-.022 1.632 0 .095-.292-.197-.558-.472-.682-.276-.124-.608-.212-.748-.482-.285-.552.45-1.32.136-1.795-.364-.57-.956-.016-1.431.216zM230.8 23.305a.386.386 0 0 1-.184.054c-.114 0-.196-.118-.247-.225-.26-.571-.11-1.31-.513-1.792a6.195 6.195 0 0 0-.982 1.646l-1.54-.48a2.289 2.289 0 0 0 .292 1.77 2.303 2.303 0 0 0-.725.495.8.8 0 0 0-.19.815 3.93 3.93 0 0 0 1.09.108 7.238 7.238 0 0 0 .113 2.026.371.371 0 0 0 .133.26c.114.073.26 0 .377-.063.533-.33.97-.793 1.267-1.345l.574 1.37c.042.14.132.261.253.343a.412.412 0 0 0 .481-.165c.096-.159.154-.336.172-.52l.212-1.307a.34.34 0 0 1 .073-.184.317.317 0 0 1 .228-.063c.541 0 1.086-.022 1.631-.02.092-.288-.196-.557-.475-.678-.279-.12-.608-.215-.748-.485-.282-.552.45-1.316.14-1.792-.365-.555-.957-.006-1.432.232z"/>
                <path d="M278.114 44.498a.174.174 0 0 1-.095.028c-.063 0-.104-.063-.133-.117-.14-.317-.057-.698-.272-.952a3.197 3.197 0 0 0-.52.872l-.82-.253c-.083.325-.027.67.155.951a1.305 1.305 0 0 0-.386.263.435.435 0 0 0-.099.435c.19.044.383.063.577.057-.031.36-.01.722.063 1.075a.2.2 0 0 0 .07.14c.06.037.14 0 .2-.035.282-.176.513-.422.671-.714l.317.726a.34.34 0 0 0 .136.184.222.222 0 0 0 .257-.089.635.635 0 0 0 .088-.276l.114-.694a.127.127 0 0 1 .159-.13h.868c.05-.155-.105-.298-.25-.362-.146-.063-.317-.114-.4-.256-.149-.295.241-.701.073-.952-.168-.25-.532-.025-.773.099zM256.926 56.738a.187.187 0 0 1-.098.029c-.06 0-.105-.064-.13-.12-.14-.302-.06-.695-.272-.952a3.273 3.273 0 0 0-.523.875l-.817-.254a1.21 1.21 0 0 0 .155.952 1.248 1.248 0 0 0-.386.263.428.428 0 0 0-.102.434c.19.045.385.064.58.057-.031.36-.01.722.06 1.075a.197.197 0 0 0 .07.137c.06.041.14 0 .2-.032.283-.174.515-.42.674-.713l.317.726a.34.34 0 0 0 .136.184.222.222 0 0 0 .257-.089.635.635 0 0 0 .088-.276l.114-.694a.178.178 0 0 1 .038-.099.2.2 0 0 1 .12-.035h.869c.047-.155-.105-.298-.254-.361-.149-.064-.317-.114-.396-.257-.152-.295.238-.7.073-.951-.165-.25-.52-.026-.773.101z" opacity=".2"/>
                <path d="M236.432 13.896a.184.184 0 0 1-.095.029.171.171 0 0 1-.133-.118c-.14-.317-.06-.697-.273-.951a3.254 3.254 0 0 0-.522.872l-.817-.254c-.082.325-.026.67.155.952-.144.061-.275.15-.387.26a.432.432 0 0 0-.101.434c.19.047.385.067.58.057-.031.36-.01.724.06 1.078a.2.2 0 0 0 .073.137c.06.038.136 0 .2-.032.282-.176.513-.423.67-.717l.317.73c.022.075.07.139.137.18a.222.222 0 0 0 .256-.088.635.635 0 0 0 .089-.276l.114-.692a.178.178 0 0 1 .038-.098.165.165 0 0 1 .12-.035h.868c.048-.152-.104-.295-.253-.361-.149-.067-.317-.114-.396-.257-.152-.292.24-.701.073-.952-.168-.25-.52-.022-.773.102zM247.338 38.038a.168.168 0 0 1-.095.028c-.063 0-.105-.06-.13-.117-.14-.317-.06-.698-.276-.951a3.327 3.327 0 0 0-.52.872l-.82-.254c-.079.325-.023.669.156.951a1.267 1.267 0 0 0-.384.264.428.428 0 0 0-.1.434c.188.046.382.065.576.057-.03.36-.009.724.063 1.078a.197.197 0 0 0 .07.137c.06.038.139 0 .2-.035.283-.175.515-.42.674-.714l.317.727c.02.076.07.141.136.183.095.034.2-.003.253-.088a.635.635 0 0 0 .092-.276l.114-.691c0-.04.015-.077.041-.105a.155.155 0 0 1 .12-.035h.865c.051-.152-.1-.298-.25-.362-.149-.063-.317-.114-.396-.256-.152-.292.238-.701.073-.952-.165-.25-.526-.019-.78.105zM239.422 28.63a.237.237 0 0 1-.095.028.177.177 0 0 1-.13-.12c-.14-.302-.06-.695-.275-.952a3.26 3.26 0 0 0-.52.875l-.82-.254c-.079.325-.023.669.155.952-.144.061-.275.15-.387.26a.435.435 0 0 0-.098.434c.189.048.383.067.577.057-.03.36-.009.724.063 1.078a.197.197 0 0 0 .07.137c.06.038.14 0 .2-.032.282-.176.515-.423.674-.717l.317.73c.02.074.068.139.133.18a.222.222 0 0 0 .256-.088.635.635 0 0 0 .092-.276l.111-.691a.178.178 0 0 1 .038-.099.168.168 0 0 1 .124-.035h.864c.051-.152-.104-.295-.25-.361-.145-.067-.317-.114-.399-.257-.149-.292.24-.7.076-.951-.165-.25-.522-.026-.776.101zM273.423 30.843a.168.168 0 0 1-.095.028c-.063 0-.105-.06-.13-.117-.14-.317-.06-.698-.275-.952a3.245 3.245 0 0 0-.52.873l-.82-.254c-.08.325-.024.668.155.951a1.305 1.305 0 0 0-.387.263.435.435 0 0 0-.098.435c.189.046.383.065.577.057-.03.36-.009.723.063 1.078a.197.197 0 0 0 .07.136c.06.038.14 0 .2-.034.283-.175.515-.421.674-.714l.317.726c.02.076.07.142.136.184.095.032.2-.004.253-.089a.635.635 0 0 0 .092-.276l.114-.69a.127.127 0 0 1 .159-.134h.864c.051-.152-.104-.298-.25-.362-.146-.063-.317-.114-.399-.256-.149-.292.24-.701.076-.952-.165-.25-.52-.025-.776.099z" opacity=".5"/>
                <path d="M256.926 28.99a.187.187 0 0 1-.098.03c-.06 0-.105-.061-.13-.118-.14-.317-.06-.698-.272-.952a3.254 3.254 0 0 0-.523.873l-.817-.254c-.081.325-.025.669.155.951-.144.062-.275.15-.386.26a.432.432 0 0 0-.102.435c.19.047.385.066.58.057-.03.36-.01.723.06 1.078.006.053.03.101.07.136.06.038.14 0 .2-.031.283-.176.516-.423.674-.717l.317.73c.021.074.07.139.136.18a.222.222 0 0 0 .257-.089.635.635 0 0 0 .088-.276l.114-.69a.178.178 0 0 1 .038-.1.165.165 0 0 1 .12-.034h.869c.047-.152-.105-.295-.254-.362-.149-.066-.317-.114-.396-.257-.152-.291.238-.7.073-.95-.165-.251-.52-.023-.773.1z" opacity=".2"/>
                <path d="M251.747 31.248a.237.237 0 0 1-.095.029.177.177 0 0 1-.13-.12c-.14-.318-.06-.695-.275-.952a3.213 3.213 0 0 0-.52.875l-.82-.256c-.078.325-.022.668.155.95-.144.062-.275.15-.386.26a.435.435 0 0 0-.099.435c.189.048.383.067.577.057-.03.361-.008.724.063 1.079a.197.197 0 0 0 .07.136c.06.038.14 0 .2-.032.283-.176.515-.423.674-.716l.317.729c.022.075.07.14.136.18.095.033.2-.004.254-.088a.635.635 0 0 0 .091-.276l.114-.691a.175.175 0 0 1 .035-.099.168.168 0 0 1 .124-.034h.865c.05-.153-.105-.295-.25-.362-.146-.067-.317-.114-.4-.257-.149-.292.241-.7.076-.951-.164-.25-.522-.022-.776.104z" opacity=".3"/>
                <path d="M246.923 17.6a.187.187 0 0 1-.098.028c-.06 0-.105-.06-.13-.117-.14-.317-.06-.698-.273-.951a3.254 3.254 0 0 0-.522.872l-.817-.254c-.083.325-.027.67.155.951a1.305 1.305 0 0 0-.387.264.428.428 0 0 0-.101.434c.19.046.385.065.58.057-.031.36-.01.724.06 1.078.005.053.03.102.07.137.06.038.139 0 .2-.035a1.87 1.87 0 0 0 .674-.714l.317.727a.34.34 0 0 0 .136.183.222.222 0 0 0 .256-.088.635.635 0 0 0 .089-.276l.114-.692a.171.171 0 0 1 .038-.098.165.165 0 0 1 .12-.035h.868c.048-.155-.104-.298-.253-.361-.149-.064-.317-.114-.396-.257-.152-.295.238-.7.073-.951-.165-.251-.52-.026-.773.098z" opacity=".2"/>
                <path d="M256.429 35.415a.269.269 0 0 1-.098.029c-.06 0-.105-.064-.13-.12-.14-.302-.06-.695-.273-.952a3.273 3.273 0 0 0-.522.875l-.817-.253c-.082.325-.026.669.155.95-.144.062-.275.15-.387.261a.432.432 0 0 0-.101.434c.19.048.385.067.58.058-.031.36-.01.723.06 1.078.005.052.03.1.07.136.06.038.139 0 .202-.032.282-.176.514-.423.672-.716l.316.729c.022.075.07.14.137.18a.222.222 0 0 0 .256-.088.635.635 0 0 0 .089-.276l.114-.691a.178.178 0 0 1 .038-.099.165.165 0 0 1 .12-.034h.868c.048-.153-.104-.295-.253-.362-.149-.066-.317-.114-.396-.257-.152-.292.237-.7.073-.951-.165-.25-.52-.032-.773.101z" opacity=".3"/>
            </g>
            <path fill="#3F3D56" fill-rule="nonzero" d="M192.492 240.847a9.117 9.117 0 0 1-.023-.655 8.316 8.316 0 0 1 1.1-4.211 8.618 8.618 0 0 1 0-8.423 8.618 8.618 0 0 1 0-8.422 8.612 8.612 0 0 1 0-8.42 8.325 8.325 0 0 1-1.1-4.21c0-3.806 2.353-6.892 5.258-6.892s5.258 3.086 5.258 6.891a8.322 8.322 0 0 1-1.096 4.211 8.634 8.634 0 0 1 0 8.42 8.64 8.64 0 0 1 0 8.422 8.64 8.64 0 0 1 0 8.423 8.312 8.312 0 0 1 1.096 4.211c0 .247-.01.492-.029.732 20.739.185 40.181.55 57.612 1.064a8.207 8.207 0 0 1-.48-2.798 7.846 7.846 0 0 1 1.035-3.977 8.151 8.151 0 0 1 0-7.953 8.151 8.151 0 0 1 0-7.953 8.151 8.151 0 0 1 0-7.953 7.836 7.836 0 0 1-1.036-3.977c0-3.593 2.218-6.504 4.964-6.504 2.746 0 4.964 2.911 4.964 6.504a7.836 7.836 0 0 1-1.036 3.977 8.151 8.151 0 0 1 0 7.953 8.151 8.151 0 0 1 0 7.953 8.151 8.151 0 0 1 0 7.953 7.846 7.846 0 0 1 1.036 3.977c0 1.113-.213 2.16-.588 3.077 45.043 1.517 74.573 4.057 74.573 6.934 0 4.647-77.007 8.413-172 8.413S0 253.848 0 249.201c0-2.946 30.973-5.54 77.864-7.042a8.324 8.324 0 0 1 1.05-3.226 8.612 8.612 0 0 1 0-8.42 8.618 8.618 0 0 1 0-8.422 8.618 8.618 0 0 1 0-8.422 8.306 8.306 0 0 1-1.099-4.212c0-3.805 2.353-6.89 5.258-6.89s5.258 3.085 5.258 6.89a8.306 8.306 0 0 1-1.099 4.212 8.618 8.618 0 0 1 0 8.422 8.618 8.618 0 0 1 0 8.423 8.612 8.612 0 0 1 0 8.42 8.324 8.324 0 0 1 1.01 2.917c14.168-.387 29.57-.679 45.846-.858a6.915 6.915 0 0 1-.308-2.06 6.573 6.573 0 0 1 .868-3.326 6.815 6.815 0 0 1 0-6.66 6.809 6.809 0 0 1 0-6.66 6.815 6.815 0 0 1 0-6.659 6.583 6.583 0 0 1-.868-3.326c0-3.006 1.862-5.445 4.156-5.445 2.293 0 4.156 2.439 4.156 5.445a6.583 6.583 0 0 1-.868 3.326 6.815 6.815 0 0 1 0 6.66 6.809 6.809 0 0 1 0 6.66 6.815 6.815 0 0 1 0 6.659c.579 1.012.879 2.16.868 3.326 0 .7-.101 1.37-.285 1.985a3490.991 3490.991 0 0 1 50.685-.07z"/>
            <ellipse cx="265.051" cy="199.427" fill="#3F3D56" fill-rule="nonzero" rx="4.964" ry="6.507"/>
            <ellipse cx="265.051" cy="191.474" fill="#3F3D56" fill-rule="nonzero" rx="4.964" ry="6.507"/>
            <ellipse cx="83.073" cy="201.038" fill="#3F3D56" fill-rule="nonzero" rx="5.258" ry="6.891"/>
            <ellipse cx="83.073" cy="192.615" fill="#3F3D56" fill-rule="nonzero" rx="5.258" ry="6.891"/>
            <path fill="#651EFF" fill-rule="nonzero" d="M61.23 240.338l4.219-2.483a10.199 10.199 0 0 0-2.157-2.584l-7.957 2.48 6.233-3.673a10.126 10.126 0 0 0-10.036.17 10.15 10.15 0 0 0-4.968 8.732c0 5.603 4.539 5.8 10.136 5.8 5.597 0 10.136-.197 10.136-5.8a10.09 10.09 0 0 0-.871-4.123l-4.736 1.481z"/>
            <path fill="#000" fill-rule="nonzero" d="M62.303 245.786a7.92 7.92 0 0 0-1.495-1.176c-.763-.508-1.558-1.028-2.461-1.202-.792-.153-1.61-.023-2.417-.07a5.645 5.645 0 0 1-3.703-1.7c-.576-.596-1.03-1.329-1.723-1.782a3.769 3.769 0 0 0-2.578-.476c-.258.037-.513.09-.764.159a10.158 10.158 0 0 0-.598 3.44c0 5.604 4.539 5.8 10.136 5.8 2.718 0 5.182-.047 7.003-.735l-.316-.568a7.97 7.97 0 0 0-1.084-1.69z" opacity=".1"/>
            <path fill="#651EFF" fill-rule="nonzero" d="M308.301 240.338l4.22-2.483a10.199 10.199 0 0 0-2.158-2.584l-7.957 2.48 6.234-3.673a10.126 10.126 0 0 0-10.036.17 10.15 10.15 0 0 0-4.969 8.732c0 5.603 4.54 5.8 10.137 5.8s10.136-.197 10.136-5.8a10.09 10.09 0 0 0-.871-4.123l-4.736 1.481z"/>
            <path fill="#000" fill-rule="nonzero" d="M309.375 245.786a7.92 7.92 0 0 0-1.495-1.176c-.763-.508-1.558-1.028-2.461-1.202-.792-.153-1.61-.023-2.417-.07a5.645 5.645 0 0 1-3.703-1.7c-.576-.596-1.03-1.329-1.723-1.782a3.769 3.769 0 0 0-2.579-.476c-.257.037-.512.09-.763.159a10.158 10.158 0 0 0-.599 3.44c0 5.604 4.54 5.8 10.137 5.8 2.717 0 5.182-.047 7.003-.735l-.317-.568a7.97 7.97 0 0 0-1.083-1.69z" opacity=".1"/>
            <path fill="#651EFF" fill-rule="nonzero" d="M105.11 236l-3.297-1.94a8.059 8.059 0 0 1 1.685-2.018l6.218 1.935-4.872-2.854a7.911 7.911 0 0 1 7.83.126 7.93 7.93 0 0 1 3.893 6.803c0 4.379-3.544 4.531-7.919 4.531-4.374 0-7.919-.152-7.919-4.531a7.894 7.894 0 0 1 .681-3.216l3.7 1.164z"/>
            <path fill="#000" fill-rule="nonzero" d="M104.27 240.271c.351-.35.742-.659 1.166-.916a5.405 5.405 0 0 1 1.923-.951c.634-.12 1.267-.02 1.9-.054a4.432 4.432 0 0 0 2.893-1.329c.45-.466.804-1.04 1.346-1.395a2.943 2.943 0 0 1 2.014-.371c.201.03.4.07.596.123.306.858.462 1.763.46 2.674 0 4.379-3.545 4.531-7.92 4.531-2.122 0-4.048-.038-5.47-.574l.237-.444c.23-.466.517-.9.856-1.294zM129.611 240.271c.35-.35.742-.659 1.166-.916a5.405 5.405 0 0 1 1.923-.951c.633-.12 1.267-.02 1.9-.054a4.432 4.432 0 0 0 2.892-1.329c.45-.466.805-1.04 1.347-1.395a2.943 2.943 0 0 1 2.014-.371c.2.03.4.07.596.123.306.858.462 1.763.459 2.674 0 4.379-3.545 4.531-7.919 4.531-2.122 0-4.048-.038-5.47-.574l.237-.444c.229-.466.516-.9.855-1.294z" opacity=".1"/>
            <path fill="#651EFF" fill-rule="nonzero" d="M222.628 236l-3.298-1.94a8.059 8.059 0 0 1 1.685-2.018l6.218 1.935-4.872-2.854a7.911 7.911 0 0 1 7.83.126 7.93 7.93 0 0 1 3.894 6.803c0 4.379-3.545 4.531-7.92 4.531-4.374 0-7.918-.152-7.918-4.531a7.894 7.894 0 0 1 .68-3.216l3.7 1.164z"/>
            <path fill="#000" fill-rule="nonzero" d="M221.788 240.271c.35-.35.742-.659 1.166-.916a5.405 5.405 0 0 1 1.923-.951c.633-.12 1.267-.02 1.9-.054a4.432 4.432 0 0 0 2.892-1.329c.45-.466.805-1.04 1.346-1.395a2.943 2.943 0 0 1 2.015-.371c.2.03.4.07.595.123.307.858.462 1.763.46 2.674 0 4.379-3.545 4.531-7.92 4.531-2.122 0-4.047-.038-5.47-.574l.238-.444c.229-.466.516-.9.855-1.294z" opacity=".1"/>
            <ellipse cx="137.936" cy="205.649" fill="#3F3D56" fill-rule="nonzero" rx="4.156" ry="5.445"/>
            <ellipse cx="137.936" cy="198.996" fill="#3F3D56" fill-rule="nonzero" rx="4.156" ry="5.445"/>
            <ellipse cx="197.727" cy="198.086" fill="#3F3D56" fill-rule="nonzero" rx="5.258" ry="6.891"/>
            <ellipse cx="197.727" cy="189.663" fill="#3F3D56" fill-rule="nonzero" rx="5.258" ry="6.891"/>
        </g>
        <g fill-rule="nonzero">
            <path fill="#651EFF" d="M247.103 136.813a23.766 23.766 0 0 1-1.847-2.724l13.044-2.147-14.108.105a23.878 23.878 0 0 1-.453-18.859l18.926 9.83-17.456-12.852a23.78 23.78 0 0 1 21.744-11.917 23.785 23.785 0 0 1 20.523 13.919 23.834 23.834 0 0 1-2.99 24.636 23.921 23.921 0 0 1 2.712 4.341l-16.93 8.829 18.055-6.067a23.856 23.856 0 0 1-3.833 22.36c7.672 9.76 6.562 23.784-2.55 32.212-9.113 8.428-23.165 8.428-32.277 0-9.113-8.428-10.223-22.452-2.55-32.212-6.783-8.64-6.783-20.802 0-29.441l-.01-.013z"/>
            <path fill="#000" d="M289.577 151.534a23.734 23.734 0 0 1-5.087 14.72c7.672 9.76 6.562 23.785-2.55 32.213-9.113 8.428-23.165 8.428-32.277 0-9.113-8.428-10.223-22.453-2.55-32.213-3.203-4.053 42.464-17.394 42.464-14.72z" opacity=".1"/>
            <path fill="#651EFF" d="M103.396 134.752a25.64 25.64 0 0 0 1.957-2.886L91.55 129.59l14.941.111a25.281 25.281 0 0 0 .482-19.978l-20.057 10.411 18.486-13.604A25.179 25.179 0 0 0 82.392 94.01a25.185 25.185 0 0 0-21.678 14.708 25.237 25.237 0 0 0 3.09 26.033 25.079 25.079 0 0 0-2.87 4.598l17.945 9.32-19.123-6.425a25.262 25.262 0 0 0 4.06 23.676c-8.119 10.337-6.94 25.185 2.71 34.108 9.649 8.922 24.527 8.922 34.177 0 9.649-8.923 10.828-23.77 2.709-34.108 7.183-9.147 7.183-22.028 0-31.175l-.016.006z"/>
            <path fill="#000" d="M58.416 150.335a25.133 25.133 0 0 0 5.385 15.586c-8.12 10.337-6.94 25.185 2.709 34.108 9.65 8.922 24.528 8.922 34.177 0 9.649-8.923 10.828-23.77 2.709-34.108 3.373-4.29-44.98-18.418-44.98-15.586z" opacity=".1"/>
            <path fill="#651EFF" d="M154.128 153.218a20.002 20.002 0 0 0 1.546-2.28l-10.91-1.795 11.806.088a19.983 19.983 0 0 0 .38-15.785l-15.838 8.225 14.606-10.747a19.894 19.894 0 0 0-18.18-9.904 19.899 19.899 0 0 0-17.135 11.622 19.94 19.94 0 0 0 2.448 20.576 19.963 19.963 0 0 0-2.268 3.634l14.169 7.37-15.11-5.074a19.961 19.961 0 0 0 3.21 18.71c-6.416 8.166-5.485 19.898 2.14 26.948 7.623 7.05 19.378 7.05 27.002 0 7.624-7.05 8.556-18.782 2.14-26.949a19.945 19.945 0 0 0 0-24.633l-.006-.006z"/>
            <path fill="#000" d="M118.588 165.534a19.837 19.837 0 0 0 4.257 12.317c-6.416 8.167-5.484 19.899 2.14 26.948 7.624 7.05 19.379 7.05 27.003 0 7.624-7.05 8.555-18.78 2.14-26.948 2.673-3.387-35.54-14.559-35.54-12.317z" opacity=".1"/>
            <path fill="#651EFF" d="M178.686 131.79a24.553 24.553 0 0 1-1.957-2.886l13.813-2.27-14.941.11a25.281 25.281 0 0 1-.482-19.977l20.048 10.41-18.49-13.604a25.179 25.179 0 0 1 23.01-12.518 25.185 25.185 0 0 1 21.677 14.708 25.237 25.237 0 0 1-3.09 26.034 25.266 25.266 0 0 1 2.874 4.598l-17.935 9.33 19.123-6.426a25.236 25.236 0 0 1-4.061 23.676c8.12 10.337 6.94 25.185-2.71 34.108-9.649 8.922-24.527 8.922-34.176 0-9.65-8.923-10.829-23.77-2.71-34.108-7.187-9.147-7.187-22.031 0-31.178l.007-.007z"/>
            <path fill="#000" d="M223.666 147.38a25.118 25.118 0 0 1-5.385 15.589c8.12 10.337 6.94 25.185-2.709 34.108-9.65 8.922-24.528 8.922-34.177 0-9.65-8.923-10.828-23.771-2.709-34.108-3.377-4.29 44.98-18.418 44.98-15.59z" opacity=".1"/>
        </g>
        <g fill-rule="nonzero" transform="translate(142.965 190.746)">
            <path fill="#8E5362" d="M33.484 16.124h2.534v2.67h-2.534z"/>
            <path fill="#A0616A" d="M30.404 46.964c-.222 1.114-.551 1.983-1.164 2.496a10.768 10.768 0 0 0-1.472 1.88c0 1.828-.493 2.38-.493 2.38l-.493.134h-1.223a5.726 5.726 0 0 1-.262-.98 1.12 1.12 0 0 1 .191-.544 6.89 6.89 0 0 0 .8-2.594l.053-.539c-.102-3.343 1.218-4.43 1.778-4.737a.544.544 0 0 0 .276-.446l.098-.954 3.289.16c-.04.322-.02.648.058.963 0 .138.058.294.102.468.267 1.03-1.525 2.237-1.538 2.313zM35.982 44.656a8.373 8.373 0 0 1-.444 1.426c-.17.413-.265.854-.28 1.301v.045a11.39 11.39 0 0 1-.81 3.86c-.484 1.212-1.124 2.79-1.333 3.119-.189.472-.234.99-.128 1.489l-1.854-.13.031-3.12a11.642 11.642 0 0 1 .89-5.223c.153-.372.24-.769.257-1.172l.093-2.072.027-.61s3.276-.469 3.556.276c.066.266.065.545-.005.81z"/>
            <path fill="#8E5362" d="M30.404 46.964c-.222 1.114-.551 1.983-1.164 2.496a10.768 10.768 0 0 0-1.472 1.88c0 1.828-.493 2.38-.493 2.38l-.493.134h-1.223a5.726 5.726 0 0 1-.262-.98 1.12 1.12 0 0 1 .191-.544 6.89 6.89 0 0 0 .8-2.594l.053-.539c-.102-3.343 1.218-4.43 1.778-4.737a.544.544 0 0 0 .276-.446l.098-.954 3.289.16c-.04.322-.02.648.058.963 0 .138.058.294.102.468.267 1.03-1.525 2.237-1.538 2.313zM35.982 44.656a8.373 8.373 0 0 1-.444 1.426c-.17.413-.265.854-.28 1.301v.045a11.39 11.39 0 0 1-.81 3.86c-.484 1.212-1.124 2.79-1.333 3.119-.189.472-.234.99-.128 1.489l-1.854-.13.031-3.12a11.642 11.642 0 0 1 .89-5.223c.153-.372.24-.769.257-1.172l.093-2.072.027-.61s3.276-.469 3.556.276c.066.266.065.545-.005.81z"/>
            <path fill="#000" d="M31.844 44.205l-3.445-.169.098-.954 3.29.16c-.04.323-.02.649.057.963zM35.982 44.656l-3.556-.482.027-.61s3.276-.468 3.556.276c.06.27.051.55-.027.816z" opacity=".1"/>
            <path fill="#651EFF" d="M37.858 38.265l-1.427 6.275-4.222-.57v-2.158l-.365 2.229-5.062-.25.262-4.862c.27-.97.46-1.959.564-2.96.098-1.1.618-3.81.89-5.08.08-.446.133-.687.133-.687s8.676 1.81 9.245 2.465c.121.202.19.432.2.668.173 1.53-.218 4.93-.218 4.93z"/>
            <path fill="#000" d="M27.728 38.675s3.414-1.783 4.245-1.418l-4.245 1.418zM29.59 32.827s2.836 2.162 2.925 2.746l-2.924-2.746zM28.817 40.248s2.054-.085 2.707.446l-2.707-.446zM32.524 37.94s.974 3.2.551 4.077c-.422.878-.857-.205-.857-.205l.306-3.873z" opacity=".1"/>
            <path fill="#2F2E41" d="M31.146 54.63s-.964.147-.786 2.482c.177 2.336.444 2.741.786 2.772.343.032 2.05.446 1.965-.41-.084-.855-.178-2.772-.058-3.061.12-.29.316-1.066-.124-1.257l-.098.445s-.929-.86-1.485-.231a2.332 2.332 0 0 0-.11-.446c-.045-.138-.179-.21-.09-.294z"/>
            <path fill="#A0616A" d="M48.726 25.977s-.218.12-.543.277a6.02 6.02 0 0 1-1.778.597c-.888.076-1.19.165-2.222-.58-.796-.57-2.129-1.368-2.707-1.706l-.253-.152h-.027l.48-1.337 1.703-.891.444.365 1.258 1.083c.11.178.302.288.511.294.316-.022 2.01.12 2.01.12l.32.054.675.112.129 1.764z"/>
            <path fill="#000" d="M48.726 25.977s-.218.12-.543.277c-.342-.174-.764-.504-.6-1.043.165-.54.187-.87.307-1.141l.676.111.16 1.796z" opacity=".1"/>
            <path fill="#A0616A" d="M48.499 23.61s1.898-.547 1.756 1.752c-.143 2.3-1.605 1.039-1.605 1.039s-1.244-.326-.982-1.19c.262-.865.186-1.39.831-1.6zM28.804 16.168l-1.978.834h-.053l-.125-.063c-.511-.254-2.267-1.127-3.373-1.649-1.334-.61-1.107-1.225-1.107-1.225l-.191-6.423-.334-1.15s-.24-3.913 1.658-4.902c1.898-.99.671 5.66.671 5.66l.138 1.382c.098.882.272 1.755.52 2.607.085.278.137.565.156.856.058.936.493.891.493.891a6.065 6.065 0 0 1 2.623 1.083l.902 2.1z"/>
            <path fill="#8E5362" d="M35.849 19.234l-1.69-.178c.301-.456.542-.949.717-1.466.031-.098.056-.198.075-.299.064-.25.031-.517-.093-.744-.494-.731 2.942-1.752 2.942-1.752-.042.404-.056.811-.04 1.217.013.281.043.56.09.838.052.532.304 1.025.706 1.377 1.08.744-2.707 1.007-2.707 1.007z"/>
            <path fill="#000" d="M35.849 19.234l-1.69-.178c.301-.456.542-.949.717-1.466.195.28.262.272.537.33 0 0 1.703.254 2.436-1.07.053.532.305 1.025.707 1.377 1.08.744-2.707 1.007-2.707 1.007zM41.458 24.565a.943.943 0 0 0 0 .156l-.262-.308.48-1.337 1.703-.891.444.365c-.631.196-2.334.918-2.365 2.015zM28.804 16.168l-1.978.834h-.205l.027-.076c.165-.401.934-2.362.6-3.29.228.123.446.261.654.415l.902 2.117zM38.058 33.327c-.769-.072-8.476-.785-9.196-1.921a3.783 3.783 0 0 0-.383-.526c.08-.446.134-.687.134-.687s8.676 1.81 9.245 2.465c.122.203.19.432.2.669z" opacity=".1"/>
            <path fill="#FF8A80" d="M35.413 18.004s1.72.259 2.45-1.087c0 0 1.217 1.003 1.946 1.092.73.089 4.103 4.345 4.103 4.345s-2.707.891-2.534 2.277l-1.298-1.488s-.64-.027-1.19 1.751c0 0-.672 1.021-.583 4.261.089 3.24-.204 4.011-.204 4.011s-8.503-.73-9.26-1.93c-.755-1.199-.888-.61-.888-.61-.05-1.404.176-2.803.667-4.118.786-1.836.613-7.131.613-7.131s.085-2.598-2.476-2.362c0 0 1.076-2.514.583-3.476.825.223 1.67.362 2.524.414.645.009 1.28.16 1.858.446.299.13.562.33.77.584.306.415.854.571 1.333.378.205.643.46 1.268.76 1.872l.102.187c.053.085.102.17.155.246.109.213.33.345.57.338z"/>
            <path fill="#000" d="M37.76 16.012a3.04 3.04 0 0 1-2.494 1.292h-.315c.064-.25.031-.516-.093-.744-.494-.73 2.942-1.751 2.942-1.751-.042.4-.055.802-.04 1.203z" opacity=".1"/>
            <path fill="#A0616A" d="M38.325 14.154a3.062 3.062 0 0 1-3.058 3.066 3.062 3.062 0 0 1-3.058-3.066 3.062 3.062 0 0 1 3.058-3.067 3.032 3.032 0 0 1 2.169.892c.574.576.895 1.36.889 2.175z"/>
            <path fill="#000" d="M39.836 21.16l.062 2.05s.916-.736.943-1.44c.026-.704-1.005-.61-1.005-.61zM32.47 23.21s2.406 3.307 3.801 3.64c1.396.335-3.276-2.566-3.8-3.64zM35.018 23.553s1.333 1.515 2.302 1.707l-2.302-1.707zM30.302 27.377s2.444 2.406 3.845 2.554l-3.845-2.554zM38.325 14.154a3.048 3.048 0 0 1-.89 2.139l-.337-.205a.956.956 0 0 1-.324-.285 1.14 1.14 0 0 1-.072-.638 1.495 1.495 0 0 0-.444-1.239c-.582-.445-1.511-.21-2.094-.664a2.226 2.226 0 0 1-.373-.414l-.551-.74-.116-.143a3.052 3.052 0 0 1 3.326-.639 3.066 3.066 0 0 1 1.875 2.828z" opacity=".1"/>
            <path fill="#2F2E41" d="M33.413 10.232c.289-.187.594-.347.911-.477.303-.152.578-.348.89-.481.302-.154.65-.189.977-.099.685.237.943 1.195 1.65 1.364.115.027.24.027.36.05.46.088.863.368 1.106.77.234.406.355.868.351 1.337.008.26-.03.52-.11.767-.21.57-.73.963-1.085 1.457a2.786 2.786 0 0 0-.507 1.614l-.854-.53a.956.956 0 0 1-.324-.286 1.13 1.13 0 0 1-.071-.633 1.504 1.504 0 0 0-.445-1.243c-.582-.446-1.51-.205-2.093-.664a1.96 1.96 0 0 1-.374-.415c-.182-.245-.368-.49-.55-.74a2.108 2.108 0 0 1-.4-.557c-.125-.423.27-1.003.568-1.234z"/>
            <path fill="#000" d="M37.214 15.892a.916.916 0 0 1-.33-.281 1.14 1.14 0 0 1-.07-.637 1.482 1.482 0 0 0-.445-1.24c-.578-.445-1.507-.209-2.093-.663a2.226 2.226 0 0 1-.374-.415c-.182-.245-.364-.495-.551-.74a2.059 2.059 0 0 1-.4-.561 1.276 1.276 0 0 1 .404-1.056c-.347.277-.534.71-.497 1.154.102.206.237.394.4.557.182.25.369.495.55.74.105.155.23.295.374.414.582.446 1.511.2 2.094.664.331.324.495.783.444 1.244a1.13 1.13 0 0 0 .071.633.956.956 0 0 0 .325.285l.853.53v-.151l-.755-.477z" opacity=".1"/>
            <path fill="#2F2E41" d="M25.435 52.437s-.854.178-.68 2.514c.173 2.335.444 2.745.786 2.772.343.027 2.054.445 1.965-.406-.089-.851-.173-2.772-.058-3.066.116-.294.578-1.079.138-1.27l-.356.446s-.929-.86-1.484-.237c0 .018-.516-.552-.311-.753z"/>
            <path fill="#000" d="M25.973 53.881c.182.085.355.196.537.285.181.095.383.142.587.138a.444.444 0 0 0 .24-.084M31.569 56.172c.1.11.205.214.315.312.188.1.401.143.614.125a.27.27 0 0 0 .102 0 .214.214 0 0 0 .093-.085l.116-.147" opacity=".1"/>
            <path fill="#FFC1C7" d="M17.216 17.336s-.39-3.74 1.138-2.817c1.53.923.471 2.554.471 2.554l-.355 1.154-1.254-.891zM19.66 5.396l.89-.86S22.22-.295 23.883.944c1.663 1.239-2.106 4.38-2.106 4.38l-.996 1.169-1.12-1.097z"/>
            <path fill="#F86D70" d="M6.882 24.502l-.044.99s.8 1.403 1.137 1.506c.338.103.303-2.964.303-2.964l-1.396.468z"/>
            <path fill="#FFC1C7" d="M8.22 23.415l.058 3.659h4.062l-.306-2.13z"/>
            <path fill="#651EFF" d="M9.167 32.542l.19 1.168 2.37 5.286s1.08 1.662.204 3.061c-.875 1.4-1.778 3.592-1.92 4.903-.142 1.31-1.293 2.63-1.293 2.63l2.502 1.064s.173-2.09.89-3.066c.715-.976 2.942-5.286 2.942-5.286s.71-.641.55-2.553c-.16-1.912-.141-3.254-.141-3.254l-.25-3.048-6.044-.905z"/>
            <path fill="#000" d="M9.167 32.542l.19 1.168 2.37 5.286s1.08 1.662.204 3.061c-.875 1.4-1.778 3.592-1.92 4.903-.142 1.31-1.293 2.63-1.293 2.63l2.502 1.064s.173-2.09.89-3.066c.715-.976 2.942-5.286 2.942-5.286s.71-.641.55-2.553c-.16-1.912-.141-3.254-.141-3.254l-.25-3.048-6.044-.905z" opacity=".1"/>
            <path fill="#2F2E41" d="M8.935 49.447s-2.666.815-1.777 2.157c.889 1.341 3.769 3.9 4.933 3.81 1.165-.089.698-.95.698-.95l-.973-.962a24.081 24.081 0 0 1-.102-2.643c.07-.597-.832-.89-.947-.525-.116.365-1.832-.887-1.832-.887z"/>
            <path fill="#651EFF" d="M10.625 25.518L8.5 25.75a.766.766 0 0 0-.68.78c.022.851.04 2.228-.08 2.451a4.334 4.334 0 0 0 1.618 4.738l3.156 1.007-5.063.365.16 2.817.782-.446 9.61.446s2.72-.276.889-3.24c-1.831-2.964-5.778-5.865-5.778-5.865l-.045-2.309-.289-.668-2.155-.308z"/>
            <path fill="#000" d="M13.256 34.673a2.74 2.74 0 0 1 2.187 0h-2.187z" opacity=".1"/>
            <path fill="#2F2E41" d="M7.695 35.056s-3.111-.446-3.142.147c-.031.593.444 6.418 1.933 6.025 1.49-.392.863-2.322.863-2.322l1.12-1.078s.115-.597-.627-.54l-.147-2.232z"/>
            <path fill="#F86D70" d="M12.878 18.735l1.24 1.417s.538.669 1.178-.352c.64-1.02 1.831-2.843 1.831-2.843s1.334 1.168 1.676.931c.342-.236-3.218 4.863-3.218 4.863s-1.133 1.675-2.823-.308l-.493-.232.609-3.476z"/>
            <path fill="#000" d="M12.794 18.735l1.235 1.417s.538.669 1.178-.352c.64-1.02 1.836-2.843 1.836-2.843s1.333 1.168 1.671.931c.338-.236-3.213 4.863-3.213 4.863s-1.138 1.675-2.827-.308l-.494-.232.614-3.476z" opacity=".1"/>
            <ellipse cx="9.095" cy="10.401" fill="#FFC1C7" rx="2.578" ry="2.585"/>
            <path fill="#FF8A80" d="M9.095 11.613s-2.222 1.052-1.95 2.888c.172 1.382.275 2.771.306 4.163 0 0 1.004 1.488-.329 4.332 0 0-.853 1.448-.284 2.496 0 0 .63-1.663 2.257-.446 1.627 1.217 4.25 1.783 4.25 1.783s-1.356-5.955-.525-6.788c0 0 1.44-2.144.134-3.503-1.307-1.36-.658-2.625-.658-2.625l4.209-2.264s.889 0 2.08-1.854a31.752 31.752 0 0 1 2.547-3.414s-.889-1.36-1.747-1.462a3.084 3.084 0 0 0-.569 1.302c-.124.503-.964 1.337-1.729 2.023-.538.481-1.062.98-1.582 1.484-.387.37-1.249.891-3.111 1.208-3.094.499-3.299.677-3.299.677z"/>
            <path fill="#000" d="M11.002 22.617s1.716 2.54 1.778 2.977c-.018 0-.258-2.727-1.778-2.977zM8.744 14.065a2.112 2.112 0 0 0 2.93.236 3.716 3.716 0 0 1-2.93-.236z" opacity=".1"/>
            <path fill="#000" d="M9.673 7.696a.798.798 0 0 0-.186-.352 3.737 3.737 0 0 0-1.41-1.257c-.798-.3-1.7-.044-2.222.633-.209.285-.338.628-.52.931a4.107 4.107 0 0 1-1.418 1.337c-.338.21-.693.388-1.013.624a3.887 3.887 0 0 0-1.4 3.85c.124.62.395 1.235.324 1.864-.092.483-.289.94-.578 1.337A4.172 4.172 0 0 0 .601 18a1.312 1.312 0 0 0 .4 1.337c.16.084.309.185.445.303.085.097.156.207.209.325a3.193 3.193 0 0 0 1.991 1.573c.378.099.89.063 1.018-.303a.652.652 0 0 1 .071-.182c.125-.179.396-.076.587 0 .438.231.92.37 1.413.405.194.028.391.005.574-.067.156-.078.29-.195.39-.338a4.175 4.175 0 0 0 .672-2.135 5.094 5.094 0 0 0 0-1.47c-.147-.776-.618-1.503-.547-2.287.071-.785.751-1.529.858-2.367a1.813 1.813 0 0 0-.307-1.243 1.895 1.895 0 0 1-.235-.366.366.366 0 0 1 .071-.4.577.577 0 0 1 .182-.09c.526-.24.87-.758.89-1.337a2.752 2.752 0 0 1 .057-.633c.093-.316.382-.677.333-1.03z" opacity=".1"/>
            <path fill="#2F2E41" d="M9.5 7.696a.807.807 0 0 0-.191-.352 3.724 3.724 0 0 0-1.41-1.257c-.798-.3-1.7-.044-2.222.633-.188.301-.362.612-.52.931A4.107 4.107 0 0 1 3.74 8.988c-.337.21-.693.388-1.013.624a3.9 3.9 0 0 0-1.405 3.85c.13.62.4 1.235.33 1.864a3.28 3.28 0 0 1-.583 1.337A4.163 4.163 0 0 0 .424 18a1.312 1.312 0 0 0 .4 1.337c.158.085.307.186.444.303.084.098.153.207.205.325a3.215 3.215 0 0 0 1.995 1.573c.378.099.89.063 1.018-.303a.652.652 0 0 1 .071-.182c.125-.179.396-.076.587 0 .437.232.916.37 1.409.405.195.028.394.005.578-.067.156-.077.289-.194.387-.338a4.135 4.135 0 0 0 .67-2.135 4.942 4.942 0 0 0 0-1.47c-.146-.776-.617-1.503-.55-2.287.066-.785.755-1.529.857-2.367a1.786 1.786 0 0 0-.306-1.243 2.104 2.104 0 0 1-.231-.366.366.366 0 0 1 .07-.4.497.497 0 0 1 .183-.09A1.52 1.52 0 0 0 9.1 9.358c-.002-.212.02-.424.062-.633.098-.316.387-.677.338-1.03z"/>
            <path fill="#000" d="M4.295 21.062a.652.652 0 0 0-.071.182.591.591 0 0 1-.533.344c.333.03.684-.045.795-.344a.652.652 0 0 1 .071-.182.21.21 0 0 1 .09-.076.297.297 0 0 0-.352.076zM9.504 7.696a.763.763 0 0 0-.19-.352 3.652 3.652 0 0 0-1.41-1.24 1.774 1.774 0 0 0-.804-.12c.182.004.362.039.533.103.57.283 1.055.71 1.41 1.239.093.098.159.22.19.352.05.352-.24.713-.338 1.038-.043.208-.063.42-.057.633a1.533 1.533 0 0 1-.89 1.337.497.497 0 0 0-.182.09.362.362 0 0 0-.07.4c.064.131.143.254.235.366.252.362.362.805.307 1.243-.107.838-.787 1.525-.863 2.363-.075.837.405 1.515.551 2.29.074.488.074.984 0 1.471a4.157 4.157 0 0 1-.666 2.135c-.1.143-.235.26-.391.338a.887.887 0 0 1-.285.072c.185.02.373-.005.547-.072.156-.078.29-.195.391-.338a4.157 4.157 0 0 0 .667-2.135 4.942 4.942 0 0 0 0-1.47c-.147-.776-.618-1.503-.551-2.291.066-.79.755-1.525.862-2.363a1.786 1.786 0 0 0-.307-1.243 1.895 1.895 0 0 1-.235-.365.362.362 0 0 1 .07-.402.497.497 0 0 1 .183-.089A1.52 1.52 0 0 0 9.1 9.35c-.002-.212.02-.424.062-.633.102-.307.391-.668.342-1.02z"/>
            <path fill="#000" d="M6.197 38.621a1.18 1.18 0 0 0 1.21.334M11.794 53.578a.736.736 0 0 1-.605.156" opacity=".1"/>
        </g>
    </g>
</svg>
