<svg width="94" height="30" xmlns="http://www.w3.org/2000/svg">
  <g fill="none" fill-rule="evenodd">
    <path fill="#1BE9B6" d="M71.924 21.256h3.145V6.62h-3.145z"/>
    <path fill="#651EFF" d="M47.413 21.257h3.146V.143h-3.146z"/>
    <path
      d="M42.881 9.347a4.537 4.537 0 0 0-4.532 4.532 4.537 4.537 0 0 0 4.532 4.532 4.537 4.537 0 0 0 4.532-4.532 4.537 4.537 0 0 0-4.532-4.532zm0 12.209c-4.233 0-7.678-3.444-7.678-7.677 0-4.234 3.445-7.678 7.678-7.678 4.233 0 7.678 3.444 7.678 7.678 0 4.233-3.445 7.677-7.678 7.677zM12.209 21.255h3.146v-7.378H12.21z"
      fill="#0F007A"/>
    <path
      d="M15.356 13.878h-3.147a4.537 4.537 0 0 0-4.532-4.532 4.537 4.537 0 0 0-4.531 4.532H0C0 9.644 3.444 6.2 7.677 6.2s7.679 3.444 7.679 7.678"
      fill="#FF8A80"/>
    <path
      d="M75.674 2.178a2.178 2.178 0 1 1-4.356 0 2.178 2.178 0 0 1 4.356 0M0 21.257h3.145V.143H0zM93.404 13.878h-3.146a4.537 4.537 0 0 0-4.532-4.532 4.537 4.537 0 0 0-4.53 4.532h-3.147c0-4.234 3.443-7.678 7.677-7.678 4.233 0 7.678 3.444 7.678 7.678"
      fill="#0F007A"/>
    <path
      d="M90.258 6.619v7.259a4.538 4.538 0 0 1-4.532 4.533 4.537 4.537 0 0 1-4.53-4.533h-3.147c0 4.234 3.443 7.678 7.677 7.678 4.233 0 7.678-3.444 7.678-7.678v-7.26h-3.146z"
      fill="#651EFF"/>
    <path fill="#FF8A80" d="M60.96 17.392L56.163 6.619H52.72l6.518 14.638h.002z"/>
    <path fill="#0F007A"
          d="M65.756 6.619L59.24 21.256H62.682L69.2 6.619zM90.258 21.36a4.538 4.538 0 0 1-4.532 4.527 4.499 4.499 0 0 1-2.261-.611L81.889 28a7.626 7.626 0 0 0 3.837 1.033c4.233 0 7.677-3.445 7.678-7.677l-3.146.003zM27.447 17.857a4.51 4.51 0 0 1-.79.338l-.076.023a4.417 4.417 0 0 1-.355.091c-.015.003-.03.008-.046.01a4.346 4.346 0 0 1-.49.07 4.46 4.46 0 0 1-.41.022 4.536 4.536 0 0 1-4.246-2.96h-3.27a7.624 7.624 0 0 0 1.593 3.308 7.84 7.84 0 0 0 1.332 1.27 7.613 7.613 0 0 0 5.053 1.513 6.96 6.96 0 0 0 .595-.06c.137-.02.276-.042.412-.068l.04-.008a6.522 6.522 0 0 0 .546-.132c.115-.03.228-.066.34-.102l.147-.05c.093-.034.186-.068.279-.105l.157-.062c.12-.05.238-.105.355-.16a8.736 8.736 0 0 0 .372-.195l.132-.076-1.573-2.72c-.032.02-.065.036-.097.053M32.794 12.306c-.728-3.482-3.82-6.106-7.515-6.106-3.694 0-6.786 2.624-7.514 6.106h3.27a4.536 4.536 0 0 1 4.244-2.96 4.536 4.536 0 0 1 4.245 2.96 4.49 4.49 0 0 1 .287 1.572 4.49 4.49 0 0 1-.287 1.573h3.27a7.651 7.651 0 0 0 0-3.145"/>
    <path
      d="M29.524 12.306h-11.76a7.651 7.651 0 0 0 0 3.145h11.76c.182-.49.287-1.02.287-1.573 0-.553-.105-1.082-.287-1.572"
      fill="#1BE9B6"/>
  </g>
</svg>
