<svg width="251" height="33" viewBox="0 0 251 33" xmlns="http://www.w3.org/2000/svg"><g fill="#000" fill-rule="nonzero"><path d="M146.476 0c2.82 0 5.412.672 7.774 2.018 2.362 1.345 4.232 3.173 5.61 5.486 1.378 2.296 2.067 4.806 2.067 7.529s-.697 5.224-2.092 7.504c-1.377 2.264-3.255 4.06-5.634 5.388-2.362 1.329-4.937 1.993-7.725 1.993-1.64 0-3.043-.197-4.208-.59l.419-2.485c1.41.36 2.673.54 3.789.54a12.78 12.78 0 006.298-1.623 12.372 12.372 0 004.675-4.429c1.18-1.886 1.771-3.985 1.771-6.298s-.566-4.42-1.697-6.323a12.076 12.076 0 00-4.601-4.527c-1.952-1.1-4.1-1.649-6.446-1.649s-4.495.55-6.446 1.649a12.257 12.257 0 00-4.626 4.527c-1.132 1.902-1.698 4.01-1.698 6.323 0 2.05.427 3.838 1.28 5.363.853 1.51 1.902 2.772 3.149 3.79v-1.87h5.364v-3.74h5.412v-3.568h5.684c.016-.115.024-.311.024-.59 0-.59-.205-1.066-.615-1.427-.393-.361-.943-.542-1.648-.542-.558 0-1.05.066-1.476.197-.05-1.082-.37-1.952-.96-2.608-.574-.672-1.353-1.008-2.337-1.008-1 0-1.788.295-2.362.885-.558.574-.927 1.337-1.107 2.288a4.213 4.213 0 00-1.329-.566 6.865 6.865 0 00-1.525-.147c-.919 0-1.64.27-2.165.812-.525.541-.788 1.197-.788 1.968 0 .164.017.41.05.738h7.38v2.534h-9.521c-.377-.82-.566-1.829-.566-3.026 0-.853.172-1.706.517-2.559.36-.869.935-1.59 1.722-2.165.787-.59 1.788-.885 3.002-.885.721 0 1.345.106 1.87.32.36-.739.926-1.387 1.697-1.944.771-.558 1.805-.837 3.1-.837 1 0 1.878.197 2.633.59.77.394 1.386.895 1.845 1.501.46.59.746 1.19.861 1.796l.37-.024c.737 0 1.41.18 2.017.541a3.636 3.636 0 011.451 1.452c.361.623.542 1.337.542 2.14 0 .64-.05 1.239-.148 1.796a8.916 8.916 0 01-.32 1.304h-5.314v3.543h-5.413v3.74h-5.339v2.633h-2.608a14.92 14.92 0 01-5.191-5.265 13.935 13.935 0 01-1.944-7.16c0-2.723.689-5.233 2.067-7.529 1.378-2.313 3.247-4.141 5.61-5.486C141.054.671 143.654 0 146.475 0zM173.011 6.495c1.64 0 3.06.37 4.257 1.108 1.197.738 2.107 1.771 2.73 3.1.64 1.312.96 2.82.96 4.527 0 1.706-.32 3.223-.96 4.551-.623 1.313-1.533 2.338-2.73 3.076-1.198.738-2.617 1.107-4.257 1.107h-7.11V6.495h7.11zM169.345 9.4V21.06h3.15c1.492 0 2.681-.492 3.567-1.477.902-.984 1.353-2.435 1.353-4.354 0-1.92-.45-3.371-1.353-4.355-.886-.984-2.075-1.476-3.567-1.476h-3.15zM189.318 11.244c.312 0 .607.033.886.098.278.05.647.14 1.107.27l-.566 2.781c-.64-.164-1.173-.246-1.6-.246-.852 0-1.525.32-2.017.96-.492.64-.738 1.525-.738 2.657v6.2h-3.198V11.392h2.977v1.845c.656-1.329 1.705-1.993 3.149-1.993zM198.397 21.651c.706 0 1.304-.123 1.796-.369.509-.246 1.157-.697 1.944-1.353l1.796 1.968c-.886.902-1.78 1.542-2.682 1.92-.885.36-1.861.54-2.928.54-1.345 0-2.517-.27-3.518-.811a5.65 5.65 0 01-2.288-2.313c-.525-1-.787-2.165-.787-3.494 0-1.296.254-2.452.762-3.469.509-1.033 1.239-1.837 2.19-2.411.951-.59 2.075-.886 3.37-.886 1.887 0 3.339.558 4.356 1.673 1.017 1.1 1.525 2.633 1.525 4.601 0 .476-.016.894-.05 1.255h-9.029c.148.968.509 1.739 1.083 2.313.59.557 1.41.836 2.46.836zm-.443-8.168c-.82 0-1.484.246-1.992.738-.509.476-.853 1.14-1.034 1.993h5.88c-.065-.853-.344-1.517-.836-1.993-.492-.492-1.165-.738-2.018-.738zM211.504 10.973c1.756 0 3.1.41 4.035 1.23.952.82 1.427 1.911 1.427 3.273v8.488h-2.878V22.66c-.394.541-.935.968-1.624 1.28-.672.295-1.484.442-2.436.442-1.296 0-2.37-.295-3.223-.886-.853-.606-1.28-1.509-1.28-2.706 0-1.328.485-2.32 1.452-2.977.984-.672 2.313-1.156 3.986-1.452l2.953-.54v-.296c0-.607-.214-1.075-.64-1.402-.41-.345-.984-.517-1.722-.517-.788 0-1.444.156-1.969.467-.525.312-1.172.837-1.943 1.575l-2.018-1.845c.804-.952 1.681-1.657 2.633-2.116.951-.476 2.034-.714 3.247-.714zm-.934 10.85c.918 0 1.705-.237 2.361-.713.656-.492.985-1.247.985-2.264v-.738l-2.116.443c-1.067.23-1.862.492-2.387.788-.508.278-.763.688-.763 1.23 0 .393.164.705.492.935.345.213.82.32 1.427.32zM233.588 10.973c1.329 0 2.354.377 3.075 1.132.738.755 1.108 1.78 1.108 3.075v8.784h-3.199V16.14c0-.755-.164-1.345-.492-1.772-.312-.426-.812-.64-1.501-.64-.705 0-1.255.239-1.648.714-.378.46-.566 1.058-.566 1.796v7.726h-3.199V16.14c0-1.607-.664-2.411-1.992-2.411-.706 0-1.255.238-1.649.713-.377.46-.566 1.058-.566 1.796v7.726h-3.198V11.392h2.977v1.402c.738-1.214 1.935-1.82 3.592-1.82.804 0 1.5.163 2.091.491.59.312 1.058.763 1.403 1.354.852-1.23 2.107-1.846 3.764-1.846zM245.39 10.973c1.083 0 2.034.148 2.854.443.837.295 1.69.804 2.559 1.525l-1.722 2.092c-.738-.574-1.386-.96-1.944-1.157-.541-.213-1.148-.32-1.82-.32-.64 0-1.157.115-1.55.345-.378.23-.566.533-.566.91 0 .263.09.468.27.616.197.147.468.27.812.369.345.098.96.246 1.845.442 1.198.263 2.141.558 2.83.886.705.312 1.222.722 1.55 1.23.328.492.492 1.124.492 1.895 0 1.23-.484 2.222-1.452 2.977-.951.754-2.263 1.132-3.936 1.132-1.198 0-2.264-.173-3.199-.517-.918-.36-1.878-.984-2.878-1.87l1.845-2.067c.902.738 1.657 1.239 2.264 1.501.606.246 1.287.37 2.042.37.639 0 1.164-.116 1.574-.345.41-.23.615-.558.615-.984 0-.328-.123-.583-.369-.763a2.22 2.22 0 00-.885-.418c-.345-.099-.96-.246-1.846-.443-1.214-.263-2.148-.55-2.805-.861-.656-.328-1.123-.73-1.402-1.206-.279-.476-.418-1.09-.418-1.845 0-.722.205-1.378.615-1.969.41-.606 1.009-1.082 1.796-1.427.804-.36 1.747-.54 2.829-.54z"/><g><path d="M71.924 24.256h3.145V9.62h-3.145v14.636zm-24.511.001h3.146V3.143h-3.146v21.114z"/><path d="M42.881 12.347a4.537 4.537 0 00-4.532 4.532 4.537 4.537 0 004.532 4.532 4.537 4.537 0 004.532-4.532 4.537 4.537 0 00-4.532-4.532zm0 12.209c-4.233 0-7.678-3.444-7.678-7.677 0-4.234 3.445-7.678 7.678-7.678 4.233 0 7.678 3.444 7.678 7.678 0 4.233-3.445 7.677-7.678 7.677zm-30.672-.301h3.146v-7.378H12.21l-.001 7.378z"/><path d="M15.356 16.878h-3.147a4.537 4.537 0 00-4.532-4.532 4.537 4.537 0 00-4.531 4.532H0C0 12.644 3.444 9.2 7.677 9.2s7.679 3.444 7.679 7.678m60.318-11.7a2.178 2.178 0 11-4.356 0 2.178 2.178 0 014.356 0"/><path d="M0 24.257h3.145V3.143H0v21.114zm93.404-7.379h-3.146a4.537 4.537 0 00-4.532-4.532 4.537 4.537 0 00-4.53 4.532h-3.147c0-4.234 3.443-7.678 7.677-7.678 4.233 0 7.678 3.444 7.678 7.678z"/><path d="M90.258 9.619v7.259a4.538 4.538 0 01-4.532 4.533 4.537 4.537 0 01-4.53-4.533h-3.147c0 4.234 3.443 7.678 7.677 7.678 4.233 0 7.678-3.444 7.678-7.678v-7.26h-3.146v.001zM60.96 20.392L56.163 9.619H52.72l6.518 14.638h.002l1.72-3.865z"/><path d="M65.756 9.619L59.24 24.256h3.442L69.2 9.619h-3.444zM90.258 24.36a4.538 4.538 0 01-4.532 4.527 4.499 4.499 0 01-2.261-.611L81.889 31a7.626 7.626 0 003.837 1.033c4.233 0 7.677-3.445 7.678-7.677l-3.146.003v.001zm-62.811-3.503a4.51 4.51 0 01-.79.338l-.076.023a4.417 4.417 0 01-.355.091c-.015.003-.03.008-.046.01a4.346 4.346 0 01-.49.07 4.46 4.46 0 01-.41.022 4.536 4.536 0 01-4.246-2.96h-3.27a7.624 7.624 0 001.593 3.308c.393.474.84.9 1.332 1.27a7.613 7.613 0 005.648 1.453c.137-.02.276-.042.412-.068l.04-.008c.184-.036.366-.08.546-.132.115-.03.228-.066.34-.102l.147-.05c.093-.034.186-.068.279-.105l.157-.062c.12-.05.238-.105.355-.16.126-.062.25-.127.372-.195l.132-.076-1.573-2.72c-.032.02-.065.036-.097.053zm5.347-5.551c-.728-3.482-3.82-6.106-7.515-6.106-3.694 0-6.786 2.624-7.514 6.106h3.27a4.536 4.536 0 014.244-2.96 4.536 4.536 0 014.245 2.96 4.49 4.49 0 01.287 1.572 4.49 4.49 0 01-.287 1.573h3.27a7.651 7.651 0 000-3.145z"/><path d="M29.524 15.306h-11.76a7.651 7.651 0 000 3.145h11.76c.182-.49.287-1.02.287-1.573 0-.553-.105-1.082-.287-1.572"/></g><path d="M107.653 21l3.54-4.92-3.48-4.82h2.76c.18.3 1.96 2.84 2.14 3.12l2.12-3.12h2.64l-3.42 4.78 3.54 4.96h-2.72l-2.26-3.26c-.2.3-2.02 2.96-2.2 3.26h-2.66z"/></g></svg>