<?xml version="1.0" encoding="UTF-8"?>
<svg width="251px" height="33px" viewBox="0 0 251 33" version="1.1" xmlns="http://www.w3.org/2000/svg" xmlns:xlink="http://www.w3.org/1999/xlink">
    <!-- Generator: Sketch 55.2 (78181) - https://sketchapp.com -->
    <title>hedvig-wordmark-dreams</title>
    <desc>Created with Sketch.</desc>
    <g id="Page-1" stroke="none" stroke-width="1" fill="none" fill-rule="evenodd">
        <g id="hedvig-wordmark-dreams" fill="#000000" fill-rule="nonzero">
            <g id="dreams-logo-side-black" transform="translate(131.000000, 0.000000)">
                <path d="M15.4757,0 C18.2969,0 20.8885,0.672499 23.2504,2.0175 C25.6124,3.3625 27.4823,5.19137 28.8601,7.50411 C30.2379,9.80045 30.9268,12.31 30.9268,15.0328 C30.9268,17.7556 30.2297,20.257 28.8355,22.5369 C27.4577,24.8005 25.5796,26.5965 23.2012,27.9251 C20.8393,29.2537 18.2641,29.918 15.4757,29.918 C13.8354,29.918 12.433,29.7212 11.2685,29.3275 L11.6867,26.8426 C13.0973,27.2034 14.3603,27.3838 15.4757,27.3838 C17.7228,27.3838 19.8223,26.8426 21.7742,25.76 C23.7261,24.6938 25.2843,23.2176 26.4489,21.3313 C27.6299,19.4451 28.2204,17.3456 28.2204,15.0328 C28.2204,12.7201 27.6545,10.6124 26.5227,8.70969 C25.4074,6.7906 23.8737,5.28158 21.9218,4.18262 C19.97,3.08366 17.8212,2.53417 15.4757,2.53417 C13.1301,2.53417 10.9814,3.08366 9.02953,4.18262 C7.07765,5.28158 5.53582,6.7906 4.40405,8.70969 C3.27228,10.6124 2.7064,12.7201 2.7064,15.0328 C2.7064,17.0831 3.13286,18.871 3.98579,20.3964 C4.83871,21.9054 5.88847,23.1684 7.13505,24.1854 L7.13505,22.3155 L12.4986,22.3155 L12.4986,18.5757 L17.9114,18.5757 L17.9114,15.0082 L23.5949,15.0082 C23.6113,14.8934 23.6195,14.6966 23.6195,14.4177 C23.6195,13.8272 23.4145,13.3516 23.0044,12.9907 C22.6107,12.6299 22.0613,12.4494 21.356,12.4494 C20.7983,12.4494 20.3062,12.515 19.8797,12.6463 C19.8305,11.5637 19.5107,10.6944 18.9202,10.0383 C18.3461,9.36578 17.567,9.02953 16.5829,9.02953 C15.5823,9.02953 14.795,9.32478 14.2209,9.91526 C13.6632,10.4893 13.2942,11.2521 13.1137,12.2034 C12.6709,11.9246 12.228,11.7359 11.7851,11.6375 C11.3587,11.5391 10.8502,11.4899 10.2597,11.4899 C9.34118,11.4899 8.61947,11.7605 8.0946,12.3018 C7.56972,12.8431 7.30728,13.4992 7.30728,14.2701 C7.30728,14.4341 7.32368,14.6802 7.35649,15.0082 L14.7376,15.0082 L14.7376,17.5424 L5.21597,17.5424 C4.83872,16.7223 4.65009,15.7135 4.65009,14.5161 C4.65009,13.6632 4.82231,12.8103 5.16676,11.9574 C5.52762,11.088 6.1017,10.3663 6.88902,9.79225 C7.67633,9.20176 8.67688,8.90651 9.89066,8.90651 C10.6124,8.90651 11.2357,9.01313 11.7605,9.22636 C12.1214,8.48825 12.6873,7.84036 13.4582,7.28267 C14.2291,6.72499 15.2625,6.44615 16.5582,6.44615 C17.5588,6.44615 18.4363,6.64298 19.1908,7.03664 C19.9617,7.4303 20.5768,7.93057 21.0361,8.53746 C21.4954,9.12795 21.7824,9.72664 21.8972,10.3335 L22.2663,10.3089 C23.0044,10.3089 23.6769,10.4893 24.2838,10.8502 C24.9071,11.1947 25.391,11.6785 25.7354,12.3018 C26.0963,12.9251 26.2767,13.6386 26.2767,14.4423 C26.2767,15.082 26.2275,15.6807 26.1291,16.2384 C26.0306,16.7797 25.924,17.2143 25.8092,17.5424 L20.4948,17.5424 L20.4948,21.0853 L15.082,21.0853 L15.082,24.8251 L9.74304,24.8251 L9.74304,27.4577 L7.13505,27.4577 C4.96993,26.1455 3.23948,24.3904 1.94369,22.1925 C0.647896,19.9781 0,17.5916 0,15.0328 C0,12.31 0.688902,9.80045 2.06671,7.50411 C3.44451,5.19137 5.31439,3.3625 7.67633,2.0175 C10.0547,0.672499 12.6545,0 15.4757,0 Z" id="Path"></path>
                <path d="M42.0113,6.49536 C43.6515,6.49536 45.0703,6.86441 46.2677,7.60252 C47.4651,8.34063 48.3754,9.37398 48.9987,10.7026 C49.6384,12.0148 49.9583,13.5238 49.9583,15.2296 C49.9583,16.9355 49.6384,18.4527 48.9987,19.7813 C48.3754,21.0935 47.4651,22.1187 46.2677,22.8568 C45.0703,23.5949 43.6515,23.9639 42.0113,23.9639 L34.9008,23.9639 L34.9008,6.49536 L42.0113,6.49536 Z M38.3453,9.39859 L38.3453,21.0607 L41.4946,21.0607 C42.9872,21.0607 44.1764,20.5686 45.0621,19.5845 C45.9643,18.6003 46.4153,17.1487 46.4153,15.2296 C46.4153,13.3106 45.9643,11.859 45.0621,10.8748 C44.1764,9.89066 42.9872,9.39859 41.4946,9.39859 L38.3453,9.39859 Z" id="Shape"></path>
                <path d="M58.3179,11.2439 C58.6296,11.2439 58.9248,11.2767 59.2037,11.3423 C59.4825,11.3915 59.8515,11.4817 60.3108,11.6129 L59.7449,14.3931 C59.1052,14.2291 58.5722,14.1471 58.1457,14.1471 C57.2928,14.1471 56.6203,14.4669 56.1282,15.1066 C55.6361,15.7463 55.3901,16.6321 55.3901,17.7638 L55.3901,23.9639 L52.1916,23.9639 L52.1916,11.3915 L55.1687,11.3915 L55.1687,13.2368 C55.8248,11.9082 56.8745,11.2439 58.3179,11.2439 Z" id="Path"></path>
                <path d="M67.3972,21.6512 C68.1025,21.6512 68.7012,21.5282 69.1933,21.2821 C69.7018,21.0361 70.3497,20.585 71.137,19.9289 L72.9331,21.8972 C72.0473,22.7994 71.1534,23.4391 70.2513,23.8163 C69.3655,24.1772 68.3896,24.3576 67.3234,24.3576 C65.9784,24.3576 64.8057,24.087 63.8051,23.5457 C62.821,23.0044 62.0582,22.2335 61.517,21.2329 C60.9921,20.2324 60.7297,19.0678 60.7297,17.7392 C60.7297,16.4434 60.9839,15.2871 61.4924,14.2701 C62.0008,13.2368 62.7307,12.433 63.6821,11.859 C64.6334,11.2685 65.757,10.9732 67.0528,10.9732 C68.9391,10.9732 70.3907,11.5309 71.4076,12.6463 C72.4246,13.7452 72.9331,15.2789 72.9331,17.2471 C72.9331,17.7228 72.9166,18.1411 72.8838,18.5019 L63.8543,18.5019 C64.0019,19.4697 64.3628,20.2406 64.9369,20.8147 C65.5274,21.3724 66.3475,21.6512 67.3972,21.6512 Z M66.9544,13.4828 C66.1343,13.4828 65.4699,13.7288 64.9615,14.2209 C64.453,14.6966 64.1085,15.3609 63.9281,16.2138 L69.8084,16.2138 C69.7428,15.3609 69.4639,14.6966 68.9719,14.2209 C68.4798,13.7288 67.8073,13.4828 66.9544,13.4828 Z" id="Shape"></path>
                <path d="M80.5044,10.9732 C82.2595,10.9732 83.6045,11.3833 84.5394,12.2034 C85.4908,13.0235 85.9664,14.1143 85.9664,15.4757 L85.9664,23.9639 L83.0878,23.9639 L83.0878,22.6599 C82.6942,23.2012 82.1529,23.6277 81.464,23.9393 C80.7915,24.2346 79.9796,24.3822 79.0282,24.3822 C77.7324,24.3822 76.6581,24.087 75.8051,23.4965 C74.9522,22.8896 74.5258,21.9874 74.5258,20.7901 C74.5258,19.4615 75.0096,18.4691 75.9774,17.813 C76.9615,17.1405 78.2901,16.6567 79.9632,16.3614 L82.9156,15.8201 L82.9156,15.5249 C82.9156,14.918 82.7024,14.4505 82.2759,14.1225 C81.8658,13.778 81.2918,13.6058 80.5536,13.6058 C79.7663,13.6058 79.1102,13.7616 78.5854,14.0733 C78.0605,14.3849 77.4126,14.9098 76.6417,15.6479 L74.6242,13.8026 C75.4279,12.8513 76.3054,12.146 77.2568,11.6867 C78.2081,11.2111 79.2907,10.9732 80.5044,10.9732 Z M79.5695,21.8234 C80.488,21.8234 81.2754,21.5856 81.9314,21.1099 C82.5875,20.6178 82.9156,19.8633 82.9156,18.8464 L82.9156,18.1083 L80.7997,18.5511 C79.7335,18.7808 78.938,19.0432 78.4131,19.3385 C77.9047,19.6173 77.6504,20.0274 77.6504,20.5686 C77.6504,20.9623 77.8144,21.2739 78.1425,21.5036 C78.4869,21.7168 78.9626,21.8234 79.5695,21.8234 Z" id="Shape"></path>
                <path d="M102.588,10.9732 C103.917,10.9732 104.942,11.3505 105.663,12.105 C106.401,12.8595 106.771,13.8846 106.771,15.1804 L106.771,23.9639 L103.572,23.9639 L103.572,16.14 C103.572,15.3855 103.408,14.795 103.08,14.3685 C102.768,13.9421 102.268,13.7288 101.579,13.7288 C100.874,13.7288 100.324,13.9667 99.9307,14.4423 C99.5535,14.9016 99.3648,15.5003 99.3648,16.2384 L99.3648,23.9639 L96.1664,23.9639 L96.1664,16.14 C96.1664,14.5325 95.5021,13.7288 94.1735,13.7288 C93.4682,13.7288 92.9187,13.9667 92.525,14.4423 C92.1478,14.9016 91.9592,15.5003 91.9592,16.2384 L91.9592,23.9639 L88.7607,23.9639 L88.7607,11.3915 L91.7377,11.3915 L91.7377,12.7939 C92.4758,11.5801 93.6732,10.9732 95.3299,10.9732 C96.1336,10.9732 96.8307,11.1372 97.4212,11.4653 C98.0117,11.7769 98.4791,12.228 98.8236,12.8185 C99.6765,11.5883 100.931,10.9732 102.588,10.9732 Z" id="Path"></path>
                <path d="M114.39,10.9732 C115.473,10.9732 116.424,11.1208 117.244,11.4161 C118.081,11.7113 118.934,12.2198 119.803,12.9415 L118.081,15.0328 C117.343,14.4587 116.695,14.0733 116.137,13.8764 C115.596,13.6632 114.989,13.5566 114.317,13.5566 C113.677,13.5566 113.16,13.6714 112.767,13.9011 C112.389,14.1307 112.201,14.4341 112.201,14.8114 C112.201,15.0738 112.291,15.2789 112.471,15.4265 C112.668,15.5741 112.939,15.6971 113.283,15.7955 C113.628,15.8939 114.243,16.0416 115.128,16.2384 C116.326,16.5008 117.269,16.7961 117.958,17.1241 C118.663,17.4358 119.18,17.8458 119.508,18.3543 C119.836,18.8464 120,19.4779 120,20.2488 C120,21.479 119.516,22.4713 118.548,23.2258 C117.597,23.9803 116.285,24.3576 114.612,24.3576 C113.414,24.3576 112.348,24.1854 111.413,23.8409 C110.495,23.4801 109.535,22.8568 108.535,21.971 L110.38,19.9043 C111.282,20.6424 112.037,21.1427 112.644,21.4052 C113.25,21.6512 113.931,21.7742 114.686,21.7742 C115.325,21.7742 115.85,21.6594 116.26,21.4298 C116.67,21.2001 116.875,20.8721 116.875,20.4456 C116.875,20.1176 116.752,19.8633 116.506,19.6829 C116.26,19.4861 115.965,19.3467 115.621,19.2646 C115.276,19.1662 114.661,19.0186 113.775,18.8218 C112.561,18.5593 111.627,18.2723 110.97,17.9607 C110.314,17.6326 109.847,17.2307 109.568,16.7551 C109.289,16.2794 109.15,15.6643 109.15,14.9098 C109.15,14.1881 109.355,13.532 109.765,12.9415 C110.175,12.3346 110.774,11.859 111.561,11.5145 C112.365,11.1536 113.308,10.9732 114.39,10.9732 Z" id="Path"></path>
            </g>
            <g id="Group" transform="translate(0.000000, 3.000000)">
                <path d="M71.924,21.256 L75.069,21.256 L75.069,6.62 L71.924,6.62 L71.924,21.256 Z M47.413,21.257 L50.559,21.257 L50.559,0.143 L47.413,0.143 L47.413,21.257 Z" id="Shape"></path>
                <path d="M42.881,9.347 C40.3791878,9.34975561 38.3517556,11.3771878 38.349,13.879 C38.3517556,16.3808122 40.3791878,18.4082444 42.881,18.411 C45.3828122,18.4082444 47.4102444,16.3808122 47.413,13.879 C47.4102444,11.3771878 45.3828122,9.34975561 42.881,9.347 L42.881,9.347 Z M42.881,21.556 C38.648,21.556 35.203,18.112 35.203,13.879 C35.203,9.645 38.648,6.201 42.881,6.201 C47.114,6.201 50.559,9.645 50.559,13.879 C50.559,18.112 47.114,21.556 42.881,21.556 Z M12.209,21.255 L15.355,21.255 L15.355,13.877 L12.21,13.877 L12.209,21.255 Z" id="Shape"></path>
                <path d="M15.356,13.878 L12.209,13.878 C12.2062444,11.3761878 10.1788122,9.34875561 7.677,9.346 C5.17557835,9.34930652 3.14875451,11.3765777 3.146,13.878 L0,13.878 C0,9.644 3.444,6.2 7.677,6.2 C11.91,6.2 15.356,9.644 15.356,13.878 M75.674,2.178 C75.674,3.38087619 74.6988762,4.356 73.496,4.356 C72.2931238,4.356 71.318,3.38087619 71.318,2.178 C71.318,0.975123887 72.2931239,1.83591672e-07 73.496,1.83591672e-07 C74.6988761,1.83591672e-07 75.674,0.975123887 75.674,2.178" id="Shape"></path>
                <path d="M0,21.257 L3.145,21.257 L3.145,0.143 L0,0.143 L0,21.257 Z M93.404,13.878 L90.258,13.878 C90.2552444,11.3761878 88.2278122,9.34875561 85.726,9.346 C83.2249689,9.34985725 81.1987533,11.3769674 81.196,13.878 L78.049,13.878 C78.049,9.644 81.492,6.2 85.726,6.2 C89.959,6.2 93.404,9.644 93.404,13.878 L93.404,13.878 Z" id="Shape"></path>
                <path d="M90.258,6.619 L90.258,13.878 C90.2552455,16.3799746 88.2279739,18.4076935 85.726,18.411 C83.224579,18.4071416 81.1982024,16.379423 81.196,13.878 L78.049,13.878 C78.049,18.112 81.492,21.556 85.726,21.556 C89.959,21.556 93.404,18.112 93.404,13.878 L93.404,6.618 L90.258,6.618 L90.258,6.619 Z M60.96,17.392 L56.163,6.619 L52.72,6.619 L59.238,21.257 L59.24,21.257 L60.96,17.392 Z" id="Shape"></path>
                <path d="M65.756,6.619 L59.24,21.256 L62.682,21.256 L69.2,6.619 L65.756,6.619 Z M90.258,21.36 C90.2519431,23.8596313 88.2256364,25.8837024 85.726,25.887 C84.9316082,25.8865184 84.1515071,25.6757082 83.465,25.276 L81.889,28 C83.0542413,28.6773573 84.3781871,29.033791 85.726,29.0330026 C89.959,29.0330026 93.403,25.588 93.404,21.356 L90.258,21.359 L90.258,21.36 Z M27.447,17.857 C27.1950242,17.9945529 26.9304906,18.1077331 26.657,18.195 L26.581,18.218 C26.4639765,18.2532314 26.3455413,18.2835909 26.226,18.309 C26.211,18.312 26.196,18.317 26.18,18.319 C26.0181291,18.3516231 25.8545305,18.3749943 25.69,18.389 C25.5537435,18.4026236 25.4169319,18.4099647 25.28,18.411 C23.3853859,18.4079029 21.6922682,17.2275853 21.034,15.451 L17.764,15.451 C18.0175949,16.6669717 18.5644518,17.8025666 19.357,18.759 C19.7495998,19.2331597 20.1966794,19.6594293 20.689,20.029 C22.1392231,21.1193563 23.9311861,21.6559167 25.742,21.542 C25.9411014,21.5305338 26.1396179,21.5105153 26.337,21.482 C26.474,21.462 26.613,21.44 26.749,21.414 L26.789,21.406 C26.9728112,21.3698617 27.1549802,21.3258209 27.335,21.274 C27.45,21.244 27.563,21.208 27.675,21.172 L27.822,21.122 C27.915,21.088 28.008,21.054 28.101,21.017 L28.258,20.955 C28.378,20.905 28.496,20.85 28.613,20.795 C28.7385448,20.7329907 28.8625807,20.6679719 28.985,20.6 L29.117,20.524 L27.544,17.804 C27.512,17.824 27.479,17.84 27.447,17.857 L27.447,17.857 Z M32.794,12.306 C32.066,8.824 28.974,6.2 25.279,6.2 C21.585,6.2 18.493,8.824 17.765,12.306 L21.035,12.306 C21.6930126,10.5300997 23.3851186,9.34993155 25.279,9.346 C27.1732478,9.3495144 28.8658596,10.5297573 29.524,12.306 C29.7128926,12.808624 29.8100984,13.3410545 29.811,13.878 C29.810218,14.4152816 29.7130103,14.9480614 29.524,15.451 L32.794,15.451 C33.0117873,14.4139778 33.0117873,13.3430222 32.794,12.306 L32.794,12.306 Z" id="Shape"></path>
                <path d="M29.524,12.306 L17.764,12.306 C17.5462127,13.3430222 17.5462127,14.4139778 17.764,15.451 L29.524,15.451 C29.706,14.961 29.811,14.431 29.811,13.878 C29.811,13.325 29.706,12.796 29.524,12.306" id="Path"></path>
            </g>
            <path d="M107.653,21 L111.193,16.08 L107.713,11.26 L110.473,11.26 C110.653,11.56 112.433,14.1 112.613,14.38 L114.733,11.26 L117.373,11.26 L113.953,16.04 L117.493,21 L114.773,21 L112.513,17.74 C112.313,18.04 110.493,20.7 110.313,21 L107.653,21 L107.653,21 Z" id="Path"></path>
        </g>
    </g>
</svg>