<svg width="199" height="33" xmlns="http://www.w3.org/2000/svg">
  <g fill="none" fill-rule="evenodd">
    <path
      d="M149.402 7.647l-3.648 2.75c-1.723-1.496-3.948-1.789-5.167-1.789-1.22 0-2.538.358-2.732 1.256-.194.871.608 1.549 1.986 1.926 1.57.427 3.002.806 5.205 1.44 3.277.944 5.518 2.376 5.518 5.695 0 4.575-4.023 6.947-9.412 6.947-5.389 0-9.06-2.835-10.152-4.157l3.856-2.911c2.709 2.384 4.593 2.72 6.168 2.72 1.806 0 3.495-.391 3.712-1.423.176-.829-.505-1.488-2.043-1.851-1.741-.406-3.21-.732-4.85-1.167-4.445-1.178-5.698-3.787-5.698-6.13 0-3.227 2.975-6.541 8.416-6.541 5.58 0 8.847 3.227 8.847 3.227l-.006.008zm23.256-2.912h-16.267v20.529h16.56v-4.732h-10.848v-3.306h7.473V12.7h-7.473V9.425h10.551l.004-4.69zM152.182 30h1.27V0h-1.27v30zm22.906 0h1.269V0h-1.27v30zm4.202-4.736h13.062c3.493 0 6.322-2.126 6.322-5.53 0-2.654-1.721-4.412-4.134-5.191a1.341 1.341 0 0 0-.234-.03c.08-.007.158-.021.234-.041 1.382-.552 2.913-2.023 2.913-4.527 0-3.176-2.783-5.202-6.218-5.202H179.29v20.52zm5.738-16.253h4.563c1.05 0 1.9.837 1.9 1.8 0 .962-.845 1.802-1.9 1.802h-4.563V9.01zm5.581 11.692h-5.58V16.96h5.58c.995.04 1.782.865 1.782 1.87a1.864 1.864 0 0 1-1.782 1.871v.002z"
      fill="#000" fill-rule="nonzero"/>
    <g fill="#141033">
      <path d="M71.924 24.256h3.145V9.62h-3.145zM47.413 24.257h3.146V3.143h-3.146z"/>
      <path
        d="M42.881 12.347a4.537 4.537 0 0 0-4.532 4.532 4.537 4.537 0 0 0 4.532 4.532 4.537 4.537 0 0 0 4.532-4.532 4.537 4.537 0 0 0-4.532-4.532zm0 12.209c-4.233 0-7.678-3.444-7.678-7.677 0-4.234 3.445-7.678 7.678-7.678 4.233 0 7.678 3.444 7.678 7.678 0 4.233-3.445 7.677-7.678 7.677zM12.209 24.255h3.146v-7.378H12.21z"/>
      <path
        d="M15.356 16.878h-3.147a4.537 4.537 0 0 0-4.532-4.532 4.537 4.537 0 0 0-4.531 4.532H0C0 12.644 3.444 9.2 7.677 9.2s7.679 3.444 7.679 7.678M75.674 5.178a2.178 2.178 0 1 1-4.356 0 2.178 2.178 0 0 1 4.356 0"/>
      <path
        d="M0 24.257h3.145V3.143H0zM93.404 16.878h-3.146a4.537 4.537 0 0 0-4.532-4.532 4.537 4.537 0 0 0-4.53 4.532h-3.147c0-4.234 3.443-7.678 7.677-7.678 4.233 0 7.678 3.444 7.678 7.678"/>
      <path
        d="M90.258 9.619v7.259a4.538 4.538 0 0 1-4.532 4.533 4.537 4.537 0 0 1-4.53-4.533h-3.147c0 4.234 3.443 7.678 7.677 7.678 4.233 0 7.678-3.444 7.678-7.678v-7.26h-3.146zM60.96 20.392L56.163 9.619H52.72l6.518 14.638h.002z"/>
      <path
        d="M65.756 9.619L59.24 24.256H62.682L69.2 9.619zM90.258 24.36a4.538 4.538 0 0 1-4.532 4.527 4.499 4.499 0 0 1-2.261-.611L81.889 31a7.626 7.626 0 0 0 3.837 1.033c4.233 0 7.677-3.445 7.678-7.677l-3.146.003zM27.447 20.857a4.51 4.51 0 0 1-.79.338l-.076.023a4.417 4.417 0 0 1-.355.091c-.015.003-.03.008-.046.01a4.346 4.346 0 0 1-.49.07 4.46 4.46 0 0 1-.41.022 4.536 4.536 0 0 1-4.246-2.96h-3.27a7.624 7.624 0 0 0 1.593 3.308 7.84 7.84 0 0 0 1.332 1.27 7.613 7.613 0 0 0 5.053 1.513 6.96 6.96 0 0 0 .595-.06c.137-.02.276-.042.412-.068l.04-.008a6.522 6.522 0 0 0 .546-.132c.115-.03.228-.066.34-.102l.147-.05c.093-.034.186-.068.279-.105l.157-.062c.12-.05.238-.105.355-.16a8.736 8.736 0 0 0 .372-.195l.132-.076-1.573-2.72c-.032.02-.065.036-.097.053M32.794 15.306c-.728-3.482-3.82-6.106-7.515-6.106-3.694 0-6.786 2.624-7.514 6.106h3.27a4.536 4.536 0 0 1 4.244-2.96 4.536 4.536 0 0 1 4.245 2.96 4.49 4.49 0 0 1 .287 1.572 4.49 4.49 0 0 1-.287 1.573h3.27a7.651 7.651 0 0 0 0-3.145"/>
      <path
        d="M29.524 15.306h-11.76a7.651 7.651 0 0 0 0 3.145h11.76c.182-.49.287-1.02.287-1.573 0-.553-.105-1.082-.287-1.572"/>
    </g>
    <path
      d="M107.653 21l3.54-4.92-3.48-4.82h2.76c.18.3 1.96 2.84 2.14 3.12l2.12-3.12h2.64l-3.42 4.78 3.54 4.96h-2.72l-2.26-3.26c-.2.3-2.02 2.96-2.2 3.26h-2.66z"
      fill="#141033" fill-rule="nonzero"/>
  </g>
</svg>
