<svg width="270" height="258" viewBox="0 0 270 258" xmlns="http://www.w3.org/2000/svg" xmlns:xlink="http://www.w3.org/1999/xlink"><defs><filter x="-2.1%" y="-6.4%" width="104.3%" height="115.9%" filterUnits="objectBoundingBox" id="a"><feOffset dy="1" in="SourceAlpha" result="shadowOffsetOuter1"/><feGaussianBlur stdDeviation="1.5" in="shadowOffsetOuter1" result="shadowBlurOuter1"/><feColorMatrix values="0 0 0 0 0 0 0 0 0 0 0 0 0 0 0 0 0 0 0.1 0" in="shadowBlurOuter1"/></filter><path d="M6.284 0h222.252a6.284 6.284 0 016.284 6.284v50.269a6.284 6.284 0 01-6.284 6.283H6.284A6.284 6.284 0 010 56.553V6.283A6.284 6.284 0 016.284 0z" id="b"/></defs><g fill="none" fill-rule="evenodd"><path d="M10.256 0h249.488c3.567 0 4.86.371 6.163 1.069a7.27 7.27 0 013.024 3.024C269.63 5.396 270 6.689 270 10.256v237.488c0 3.567-.371 4.86-1.069 6.163a7.27 7.27 0 01-3.024 3.024c-1.303.698-2.596 1.069-6.163 1.069H10.256c-3.567 0-4.86-.371-6.163-1.069a7.27 7.27 0 01-3.024-3.024C.37 252.604 0 251.311 0 247.744V10.256c0-3.567.371-4.86 1.069-6.163a7.27 7.27 0 013.024-3.024C5.396.37 6.689 0 10.256 0z" fill="#FFF" fill-rule="nonzero"/><path d="M78.738 208c22.226 0 54.77-52.57 69.691-101.975C163.35 56.62 94.455 37 64.57 37 34.685 37 24 73.56 24 125.304 24 177.047 56.51 208 78.738 208z" fill="#0F007A"/><g transform="translate(5 91)"><use fill="#000" filter="url(#a)" xlink:href="#b"/><use fill="#F9FAFC" xlink:href="#b"/></g><path d="M16.774 115.957l1.35-.141v-10.023l-1.256-.188v-.644h1.917c.282 0 .686-.021 1.21-.063.502-.042.874-.063 1.115-.063 1.497 0 2.565.252 3.204.754.639.503.958 1.278.958 2.325a3.58 3.58 0 01-.636 2.074 3.06 3.06 0 01-1.72 1.24c.272.179.547.475.825.888.277.414.62.987 1.029 1.72.356.64.641 1.118.856 1.438.215.32.406.495.573.526l.66.173v.66h-1.838c-.167 0-.361-.178-.581-.534-.22-.356-.529-.932-.927-1.728-.43-.87-.783-1.535-1.06-1.995-.278-.461-.553-.77-.825-.927-1.278 0-2.016-.006-2.215-.016v4.383l1.618.141v.676h-4.257v-.676zm4.76-5.278c.722 0 1.293-.225 1.712-.676.419-.45.628-1.11.628-1.979 0-.764-.214-1.359-.644-1.783-.43-.424-1.178-.636-2.246-.636-.367 0-.728.02-1.084.063-.251.02-.414.031-.487.031v4.964c.188.01.565.016 1.131.016h.99zm9.865 6.127c-1.215 0-2.15-.417-2.804-1.25-.655-.832-.982-1.94-.982-3.322 0-.89.173-1.68.518-2.372.346-.691.825-1.228 1.438-1.61a3.822 3.822 0 012.066-.573c.932 0 1.657.267 2.175.8.519.535.799 1.305.84 2.31 0 .65-.03 1.11-.093 1.382h-5.593c0 1.1.249 1.998.746 2.694.498.697 1.197 1.045 2.097 1.045.44 0 .89-.078 1.351-.236.461-.157.817-.345 1.069-.565l.251.581c-.304.314-.746.579-1.327.793a5.023 5.023 0 01-1.752.323zm1.838-5.373c.031-.22.047-.45.047-.691-.01-.691-.175-1.241-.495-1.65-.32-.408-.809-.612-1.469-.612-1.434 0-2.215.984-2.34 2.953h4.257zm2.655.895c0-.848.165-1.625.495-2.332.33-.707.822-1.27 1.476-1.69.655-.418 1.453-.627 2.396-.627.408 0 .806.05 1.194.149.387.1.722.207 1.005.322l-.063 2.246h-.785l-.33-1.508c-.063-.314-.513-.471-1.351-.471-.817 0-1.469.314-1.956.942-.487.629-.73 1.488-.73 2.577 0 1.298.262 2.283.785 2.953.524.67 1.205 1.005 2.042 1.005.44 0 .867-.073 1.28-.22a4.381 4.381 0 001.03-.502l.251.518c-.304.304-.723.566-1.257.786-.534.22-1.063.33-1.586.33-.828 0-1.535-.197-2.121-.59a3.663 3.663 0 01-1.328-1.602c-.298-.675-.447-1.437-.447-2.286zm8.169-.11c0-.91.19-1.712.573-2.403.382-.691.885-1.22 1.508-1.587a3.802 3.802 0 011.956-.55c1.32 0 2.296.43 2.93 1.289.633.858.95 1.958.95 3.299 0 .91-.191 1.712-.573 2.403-.383.691-.885 1.22-1.509 1.587a3.802 3.802 0 01-1.955.55c-1.32 0-2.296-.43-2.93-1.289-.634-.858-.95-1.958-.95-3.299zm3.958 3.77c.807 0 1.43-.308 1.87-.926.44-.618.66-1.519.66-2.702 0-1.131-.205-2.058-.613-2.78-.409-.723-1.042-1.085-1.901-1.085-.806 0-1.432.31-1.877.927-.445.618-.668 1.519-.668 2.702 0 1.142.207 2.071.62 2.789.414.717 1.05 1.076 1.91 1.076zm5.451-.015l1.257-.094v-6.928l-1.21-.267v-.707l1.995-.251h.032l.298.251v.251l-.031 1.194h.031c.021-.02.16-.18.417-.479.256-.298.638-.584 1.146-.856.508-.272 1.019-.408 1.532-.408.168 0 .325.02.471.062v1.383a.828.828 0 00-.275-.094 2.06 2.06 0 00-.447-.048c-.597 0-1.105.09-1.524.267a5.752 5.752 0 00-1.163.66v5.954l2.09.126v.644H53.47v-.66zm10.463.833c-.618 0-1.19-.16-1.713-.48-.523-.319-.942-.803-1.257-1.453-.314-.649-.47-1.445-.47-2.387 0-.901.182-1.715.549-2.443a4.262 4.262 0 011.563-1.728c.676-.424 1.464-.636 2.364-.636.576 0 1.131.062 1.665.188v-3.11l-1.633-.157v-.566l2.576-.267h.031l.299.22v11.939h.958v.612c-.052.01-.23.053-.534.126-.304.073-.628.11-.974.11-.24 0-.411-.042-.51-.126-.1-.083-.15-.267-.15-.55v-.55c-.324.357-.72.655-1.186.896-.466.241-.992.362-1.578.362zm.518-.99c.45 0 .877-.107 1.28-.322.403-.215.704-.453.903-.715V109c-.083-.148-.3-.273-.651-.378a3.908 3.908 0 00-1.124-.157c-.9 0-1.623.322-2.168.966-.544.644-.816 1.62-.816 2.93 0 1.173.24 2.042.722 2.608.482.565 1.1.848 1.854.848zm9.551-1.477c0-1.016.503-1.751 1.508-2.207 1.006-.455 2.257-.699 3.755-.73v-.487c0-.534-.055-.956-.165-1.265a1.17 1.17 0 00-.574-.675c-.272-.142-.654-.213-1.147-.213-.534 0-1.018.082-1.453.244a8.93 8.93 0 00-1.264.59l-.346-.692c.115-.105.356-.251.723-.44a7.849 7.849 0 011.257-.503c.47-.146.926-.22 1.366-.22.712 0 1.275.1 1.689.299.414.199.712.518.895.958.184.44.275 1.032.275 1.775v5.184h.974v.581c-.576.158-1.063.236-1.46.236-.252 0-.425-.04-.52-.118-.093-.078-.14-.259-.14-.542v-.58a7.453 7.453 0 01-1.234.887 2.98 2.98 0 01-1.516.385c-.754 0-1.38-.21-1.877-.629-.497-.419-.746-1.031-.746-1.838zm3.095 1.54c.293 0 .644-.095 1.052-.283.409-.189.78-.414 1.116-.676v-2.78c-1.268.01-2.228.199-2.883.565-.655.367-.982.86-.982 1.477 0 .597.152 1.03.456 1.296.303.267.717.4 1.24.4zm8.608-7.965h3.33v.644l-1.162.204 1.681 4.666.77 2.23.66-2.151 1.68-4.745-1.1-.204v-.644h3.001v.644l-.8.204-3.096 7.996h-1.052l-3.173-7.996-.739-.204v-.644zm9.567 4.304c0-.91.191-1.712.574-2.403.382-.691.884-1.22 1.508-1.587a3.802 3.802 0 011.955-.55c1.32 0 2.297.43 2.93 1.289.634.858.95 1.958.95 3.299 0 .91-.19 1.712-.573 2.403-.382.691-.885 1.22-1.508 1.587a3.802 3.802 0 01-1.956.55c-1.32 0-2.296-.43-2.93-1.289-.633-.858-.95-1.958-.95-3.299zm3.959 3.77c.806 0 1.43-.308 1.87-.926.44-.618.659-1.519.659-2.702 0-1.131-.204-2.058-.613-2.78-.408-.723-1.042-1.085-1.9-1.085-.807 0-1.433.31-1.878.927-.445.618-.667 1.519-.667 2.702 0 1.142.207 2.071.62 2.789.414.717 1.05 1.076 1.909 1.076zm7.226-9.723c-.566 0-.848-.299-.848-.896 0-.303.089-.552.267-.746.178-.194.419-.29.722-.29.315 0 .54.086.676.259a.996.996 0 01.204.636c0 .325-.086.579-.26.762-.172.183-.42.275-.745.275h-.016zm-.503 2.686l-1.225-.267v-.707l2.152-.251h.032l.314.251v7.87l1.366.11v.676h-4.021v-.676l1.382-.125v-6.881zm3.582 3.377c0-.848.165-1.625.495-2.332.33-.707.822-1.27 1.476-1.69.655-.418 1.454-.627 2.396-.627.409 0 .807.05 1.194.149.388.1.723.207 1.005.322l-.062 2.246h-.786l-.33-1.508c-.063-.314-.513-.471-1.35-.471-.818 0-1.47.314-1.957.942-.487.629-.73 1.488-.73 2.577 0 1.298.262 2.283.785 2.953.524.67 1.205 1.005 2.043 1.005.44 0 .866-.073 1.28-.22a4.381 4.381 0 001.029-.502l.251.518c-.304.304-.722.566-1.257.786-.534.22-1.062.33-1.586.33-.827 0-1.534-.197-2.12-.59a3.663 3.663 0 01-1.328-1.602c-.299-.675-.448-1.437-.448-2.286zm11.986 4.478c-1.215 0-2.15-.417-2.804-1.25-.655-.832-.982-1.94-.982-3.322 0-.89.173-1.68.519-2.372.345-.691.824-1.228 1.437-1.61a3.822 3.822 0 012.066-.573c.932 0 1.657.267 2.175.8.519.535.799 1.305.84 2.31 0 .65-.03 1.11-.093 1.382h-5.593c0 1.1.249 1.998.746 2.694.498.697 1.197 1.045 2.097 1.045.44 0 .89-.078 1.351-.236.461-.157.817-.345 1.069-.565l.251.581c-.304.314-.746.579-1.327.793a5.023 5.023 0 01-1.752.323zm1.838-5.373c.031-.22.047-.45.047-.691-.01-.691-.175-1.241-.495-1.65-.32-.408-.809-.612-1.469-.612-1.434 0-2.214.984-2.34 2.953h4.257zm6.535 4.524l1.005-.125v-6.881l-1.21-.267v-.707l1.996-.251.345.251v.691l-.015.393c.387-.335.895-.644 1.523-.927.629-.283 1.2-.424 1.713-.424.565 0 1.018.094 1.359.283.34.188.6.481.777.88.325-.273.799-.535 1.422-.786.623-.251 1.196-.377 1.72-.377.66 0 1.17.126 1.532.377.361.251.615.639.762 1.162.146.524.22 1.231.22 2.121v4.462l1.193.125v.676h-3.518v-.676l1.068-.125v-4.415c0-.66-.047-1.183-.142-1.57-.094-.388-.277-.681-.55-.88-.272-.2-.67-.299-1.193-.299-.388 0-.794.087-1.218.26-.424.172-.788.369-1.092.589.105.481.158 1.11.158 1.885v4.43l1.193.125v.676h-3.597v-.676l1.131-.125v-4.446c0-.67-.04-1.194-.118-1.571-.078-.377-.243-.66-.495-.848-.25-.189-.623-.283-1.115-.283-.408 0-.85.102-1.327.306a5.444 5.444 0 00-1.25.73v6.112l1.116.125v.676h-3.393v-.676zm19.29.849c-1.214 0-2.149-.417-2.803-1.25-.655-.832-.982-1.94-.982-3.322 0-.89.173-1.68.518-2.372.346-.691.825-1.228 1.438-1.61a3.822 3.822 0 012.065-.573c.932 0 1.658.267 2.176.8.519.535.799 1.305.84 2.31 0 .65-.03 1.11-.094 1.382h-5.592c0 1.1.249 1.998.746 2.694.497.697 1.197 1.045 2.097 1.045.44 0 .89-.078 1.351-.236.461-.157.817-.345 1.068-.565l.252.581c-.304.314-.746.579-1.328.793a5.023 5.023 0 01-1.751.323zm1.839-5.373c.031-.22.047-.45.047-.691-.01-.691-.176-1.241-.495-1.65-.32-.408-.809-.612-1.469-.612-1.435 0-2.215.984-2.34 2.953h4.257zm4.115 3.959c.116.178.357.335.723.471.367.136.76.204 1.178.204 1.278 0 1.917-.471 1.917-1.414 0-.429-.178-.777-.534-1.044-.356-.267-.964-.563-1.823-.888-.848-.304-1.466-.665-1.853-1.084-.388-.419-.581-.979-.581-1.68 0-.451.138-.844.416-1.179.277-.335.65-.594 1.115-.777a4.106 4.106 0 011.516-.275c.534 0 .982.047 1.343.141.362.094.72.21 1.076.346v1.869h-.77l-.282-1.147c-.074-.136-.26-.251-.558-.345a3.247 3.247 0 00-.982-.142c-.502 0-.91.113-1.225.338a1.057 1.057 0 00-.471.903c0 .335.078.613.235.833.157.22.351.395.582.526.23.131.55.28.958.448l.298.126c.597.23 1.079.447 1.446.651a2.8 2.8 0 01.91.802c.242.33.362.74.362 1.233 0 .775-.296 1.385-.888 1.83-.591.445-1.38.668-2.364.668-.45 0-.963-.074-1.54-.22-.575-.147-1.005-.294-1.287-.44v-1.98h.848l.235 1.226zm7.792 0c.115.178.356.335.723.471.366.136.76.204 1.178.204 1.278 0 1.917-.471 1.917-1.414 0-.429-.179-.777-.535-1.044-.356-.267-.963-.563-1.822-.888-.848-.304-1.466-.665-1.854-1.084-.387-.419-.58-.979-.58-1.68 0-.451.138-.844.416-1.179.277-.335.649-.594 1.115-.777a4.106 4.106 0 011.516-.275c.534 0 .982.047 1.343.141.361.094.72.21 1.076.346v1.869h-.77l-.283-1.147c-.073-.136-.259-.251-.557-.345a3.247 3.247 0 00-.982-.142c-.503 0-.911.113-1.225.338a1.057 1.057 0 00-.472.903c0 .335.079.613.236.833.157.22.35.395.581.526.23.131.55.28.959.448l.298.126c.597.23 1.079.447 1.445.651a2.8 2.8 0 01.911.802c.241.33.362.74.362 1.233 0 .775-.296 1.385-.888 1.83-.592.445-1.38.668-2.364.668-.45 0-.964-.074-1.54-.22-.576-.147-1.005-.294-1.288-.44v-1.98h.849l.235 1.226zm6.598-1.053c0-1.016.503-1.751 1.508-2.207 1.005-.455 2.257-.699 3.755-.73v-.487c0-.534-.055-.956-.165-1.265a1.17 1.17 0 00-.574-.675c-.272-.142-.654-.213-1.147-.213-.534 0-1.018.082-1.453.244a8.93 8.93 0 00-1.264.59l-.346-.692c.115-.105.356-.251.723-.44a7.849 7.849 0 011.257-.503c.47-.146.926-.22 1.366-.22.712 0 1.275.1 1.689.299.414.199.712.518.895.958.184.44.275 1.032.275 1.775v5.184h.974v.581c-.576.158-1.063.236-1.46.236-.252 0-.425-.04-.52-.118-.093-.078-.14-.259-.14-.542v-.58a7.453 7.453 0 01-1.234.887 2.98 2.98 0 01-1.516.385c-.754 0-1.38-.21-1.877-.629-.497-.419-.746-1.031-.746-1.838zm3.095 1.54c.293 0 .644-.095 1.052-.283.409-.189.78-.414 1.116-.676v-2.78c-1.268.01-2.228.199-2.883.565-.655.367-.982.86-.982 1.477 0 .597.152 1.03.456 1.296.303.267.717.4 1.24.4zm9.284 4.995c-2.472 0-3.708-.785-3.708-2.356 0-.471.144-.9.432-1.288a3.21 3.21 0 011.03-.911c-.493-.262-.739-.697-.739-1.304 0-.388.11-.752.33-1.092.22-.34.503-.6.848-.778a2.724 2.724 0 01-1.154-.982c-.278-.424-.417-.918-.417-1.484 0-.607.168-1.139.503-1.594a3.23 3.23 0 011.312-1.045 4.097 4.097 0 011.688-.361c.974 0 1.755.214 2.341.644.157-.147.4-.291.73-.432.33-.142.684-.212 1.061-.212h.518v1.162h-1.79c.303.419.455.927.455 1.524 0 .618-.157 1.165-.471 1.641a3.166 3.166 0 01-1.265 1.108 3.893 3.893 0 01-1.751.393 4.6 4.6 0 01-1.179-.142 1.722 1.722 0 00-.447.51c-.11.195-.165.39-.165.59 0 .398.128.675.385.832.256.158.704.236 1.343.236h1.853c.974 0 1.694.189 2.16.566.467.377.7.906.7 1.586 0 .566-.205 1.092-.613 1.579-.409.487-.966.877-1.673 1.17-.707.294-1.48.44-2.317.44zm.11-8.137c1.33 0 1.995-.733 1.995-2.2 0-1.392-.691-2.089-2.074-2.089-1.382 0-2.073.686-2.073 2.058 0 .66.178 1.197.534 1.61.356.414.895.62 1.618.62zm-.032 7.336c.566 0 1.105-.081 1.618-.243.514-.163.927-.398 1.241-.707.315-.31.472-.668.472-1.076 0-.325-.05-.587-.15-.786-.1-.199-.293-.353-.58-.463-.289-.11-.705-.165-1.25-.165h-1.948c-.502 0-.885-.032-1.146-.095-.514.493-.77 1.069-.77 1.728 0 .597.188 1.048.565 1.351.377.304 1.027.456 1.948.456zm9.394-3.267c-1.214 0-2.15-.417-2.804-1.25-.654-.832-.982-1.94-.982-3.322 0-.89.173-1.68.519-2.372.345-.691.825-1.228 1.437-1.61a3.822 3.822 0 012.066-.573c.932 0 1.657.267 2.176.8.518.535.798 1.305.84 2.31 0 .65-.031 1.11-.094 1.382h-5.593c0 1.1.25 1.998.747 2.694.497.697 1.196 1.045 2.097 1.045.44 0 .89-.078 1.35-.236.462-.157.818-.345 1.069-.565l.251.581c-.303.314-.746.579-1.327.793a5.023 5.023 0 01-1.752.323zm1.838-5.373c.032-.22.047-.45.047-.691-.01-.691-.175-1.241-.494-1.65-.32-.408-.81-.612-1.47-.612-1.434 0-2.214.984-2.34 2.953h4.257zm6.645 2.906c0-1.016.503-1.751 1.508-2.207 1.006-.455 2.257-.699 3.755-.73v-.487c0-.534-.055-.956-.165-1.265a1.17 1.17 0 00-.574-.675c-.272-.142-.654-.213-1.146-.213-.534 0-1.019.082-1.453.244a8.93 8.93 0 00-1.265.59l-.346-.692c.116-.105.357-.251.723-.44a7.849 7.849 0 011.257-.503c.471-.146.927-.22 1.366-.22.713 0 1.276.1 1.69.299.413.199.711.518.895.958.183.44.275 1.032.275 1.775v5.184h.974v.581c-.576.158-1.063.236-1.461.236-.252 0-.425-.04-.519-.118-.094-.078-.141-.259-.141-.542v-.58a7.453 7.453 0 01-1.233.887 2.98 2.98 0 01-1.516.385c-.754 0-1.38-.21-1.878-.629-.497-.419-.746-1.031-.746-1.838zm3.095 1.54c.293 0 .644-.095 1.052-.283.409-.189.78-.414 1.116-.676v-2.78c-1.267.01-2.228.199-2.883.565-.654.367-.982.86-.982 1.477 0 .597.152 1.03.456 1.296.304.267.717.4 1.241.4zm6.55-6.928l-1.209-.267v-.707l1.995-.251h.047l.299.251v.691l-.016.393c.388-.335.9-.644 1.54-.927.638-.283 1.23-.424 1.775-.424.67 0 1.186.128 1.547.385.361.256.613.65.754 1.178.141.529.212 1.238.212 2.129v4.445l1.178.11v.676h-3.503v-.676l1.053-.11v-4.461c0-.66-.045-1.178-.134-1.555-.089-.377-.262-.663-.518-.856-.257-.194-.631-.291-1.123-.291-.42 0-.872.105-1.36.314-.486.21-.908.456-1.264.738v6.096l1.147.125v.676h-3.472v-.676l1.053-.125v-6.881zm12.725 7.855c-.618 0-1.189-.16-1.712-.48-.524-.319-.943-.803-1.257-1.453-.314-.649-.471-1.445-.471-2.387 0-.901.183-1.715.55-2.443a4.262 4.262 0 011.563-1.728c.675-.424 1.463-.636 2.364-.636.576 0 1.13.062 1.665.188v-3.11l-1.634-.157v-.566l2.577-.267h.031l.298.22v11.939h.959v.612c-.053.01-.23.053-.534.126-.304.073-.629.11-.974.11-.241 0-.411-.042-.51-.126-.1-.083-.15-.267-.15-.55v-.55c-.325.357-.72.655-1.186.896-.466.241-.992.362-1.579.362zm.518-.99c.45 0 .878-.107 1.28-.322.404-.215.705-.453.904-.715V109c-.084-.148-.301-.273-.652-.378a3.908 3.908 0 00-1.123-.157c-.9 0-1.623.322-2.168.966-.545.644-.817 1.62-.817 2.93 0 1.173.241 2.042.723 2.608.482.565 1.1.848 1.853.848zM19.413 138.798c-.555 0-.974-.128-1.257-.385-.283-.256-.424-.714-.424-1.374v-6.205h-1.194v-.613c.524-.115.828-.199.911-.251.157-.084.273-.246.346-.487.063-.157.147-.44.251-.849.105-.408.184-.727.236-.958h.723v2.23h2.78v.928h-2.78v5.09c0 .607.02 1.034.062 1.28.042.246.126.406.252.479.125.073.345.11.66.11.303 0 .644-.042 1.02-.126.378-.084.66-.173.849-.267l.204.597c-.24.189-.639.37-1.194.542-.555.173-1.037.26-1.445.26zm7.477 0c-1.214 0-2.149-.416-2.804-1.249-.654-.832-.981-1.94-.981-3.322 0-.89.172-1.681.518-2.372.346-.691.825-1.228 1.437-1.61a3.822 3.822 0 012.066-.574c.932 0 1.657.267 2.176.801.518.535.798 1.304.84 2.31 0 .649-.031 1.11-.094 1.382h-5.592c0 1.1.248 1.998.746 2.694.497.697 1.196 1.045 2.097 1.045.44 0 .89-.079 1.35-.236.462-.157.818-.345 1.07-.565l.25.58c-.303.315-.746.58-1.327.794a5.023 5.023 0 01-1.752.322zm1.838-5.372c.032-.22.048-.45.048-.691-.01-.692-.176-1.241-.495-1.65-.32-.408-.81-.613-1.47-.613-1.434 0-2.214.985-2.34 2.954h4.257zm4.116-6.677l-1.335-.141v-.581l2.293-.267h.016l.299.204v11.876l1.476.11v.675h-4.131v-.675l1.382-.126V126.75zm5.169 0l-1.336-.141v-.581l2.294-.267h.015l.299.204v11.876l1.477.11v.675H36.63v-.675l1.383-.126V126.75zm14.797 12.018c-.272 0-.47-.047-.596-.142-.126-.094-.189-.267-.189-.518v-.613c-.387.346-.843.65-1.367.912a3.486 3.486 0 01-1.57.392c-.954 0-1.632-.267-2.035-.8-.403-.535-.605-1.404-.605-2.609v-4.618l-.927-.267v-.581l1.901-.205h.016l.283.189v5.294c0 .66.047 1.175.141 1.547.094.372.267.647.519.825.25.178.617.267 1.1.267.46 0 .9-.1 1.319-.298.419-.2.78-.435 1.084-.707v-6.064l-1.194-.267v-.581l2.09-.205h.015l.361.189v8.027h.974l-.016.597c-.052.01-.204.053-.455.126-.252.073-.534.11-.849.11zm3.96-1.383c.114.178.355.336.722.472.366.136.76.204 1.178.204 1.278 0 1.916-.471 1.916-1.414 0-.43-.178-.777-.534-1.045-.356-.267-.963-.562-1.822-.887-.848-.304-1.466-.665-1.854-1.084-.387-.419-.58-.98-.58-1.68 0-.451.138-.844.415-1.18.278-.334.65-.593 1.116-.777a4.106 4.106 0 011.516-.275c.534 0 .982.048 1.343.142.361.094.72.21 1.076.345v1.87h-.77l-.283-1.147c-.073-.136-.259-.251-.557-.346a3.247 3.247 0 00-.982-.141c-.503 0-.911.113-1.225.338a1.057 1.057 0 00-.472.903c0 .335.079.613.236.833.157.22.35.395.581.526.23.13.55.28.959.448l.298.125c.597.23 1.079.448 1.445.652a2.8 2.8 0 01.911.801c.241.33.362.741.362 1.234 0 .774-.296 1.385-.888 1.83-.592.445-1.38.667-2.364.667-.45 0-.964-.073-1.54-.22-.576-.146-1.005-.293-1.288-.44v-1.979h.849l.235 1.225zm9.472-7.477h3.409v.644l-1.257.188 1.398 4.886.518 2.184.519-2.2 1.57-5.702h1.305l1.57 5.702.503 2.215.566-2.199 1.382-4.87-1.21-.204v-.644h3.08v.644l-.865.204-2.45 7.996h-1.273l-1.712-5.844-.44-1.979-.377 1.98-1.65 5.843h-1.24l-2.514-8.012-.832-.188v-.644zm14.83-3.158l-1.399-.141v-.581l2.325-.267h.031l.299.204v3.739l-.032 1.304c.336-.304.807-.597 1.414-.88.608-.283 1.205-.424 1.791-.424.66 0 1.173.125 1.54.377.366.251.623.641.77 1.17.146.529.22 1.244.22 2.144v4.43l1.146.126v.675h-3.519v-.675l1.1-.126v-4.445c0-.67-.045-1.194-.134-1.571-.089-.377-.264-.66-.526-.849-.262-.188-.644-.282-1.147-.282-.419 0-.869.102-1.35.306a5.737 5.737 0 00-1.273.73v6.111l1.162.126v.675h-3.409v-.675l.99-.11v-11.09zm9.425 9.583c0-1.016.502-1.752 1.508-2.207 1.005-.456 2.257-.7 3.754-.73v-.488c0-.534-.055-.955-.165-1.264a1.17 1.17 0 00-.573-.676c-.272-.141-.655-.212-1.147-.212-.534 0-1.018.081-1.453.244a8.93 8.93 0 00-1.265.589l-.345-.691c.115-.105.356-.252.722-.44a7.849 7.849 0 011.257-.503c.471-.147.927-.22 1.367-.22.712 0 1.275.1 1.689.299.413.199.712.518.895.958.183.44.275 1.031.275 1.775v5.184h.974v.581c-.576.157-1.063.236-1.461.236-.251 0-.424-.04-.519-.118-.094-.079-.14-.26-.14-.542v-.581a7.453 7.453 0 01-1.234.887 2.98 2.98 0 01-1.516.385c-.754 0-1.38-.21-1.877-.628-.498-.419-.746-1.032-.746-1.838zm3.094 1.54c.294 0 .644-.095 1.053-.283.408-.189.78-.414 1.115-.676v-2.78c-1.267.01-2.228.199-2.882.565-.655.367-.982.859-.982 1.477 0 .597.152 1.029.455 1.296.304.267.718.4 1.241.4zm8.279.926c-.555 0-.974-.128-1.257-.385-.283-.256-.424-.714-.424-1.374v-6.205h-1.194v-.613c.524-.115.828-.199.911-.251.157-.084.273-.246.346-.487.063-.157.147-.44.251-.849.105-.408.184-.727.236-.958h.723v2.23h2.78v.928h-2.78v5.09c0 .607.02 1.034.062 1.28.042.246.126.406.252.479.125.073.345.11.66.11.303 0 .644-.042 1.02-.126.378-.084.66-.173.849-.267l.204.597c-.24.189-.639.37-1.194.542-.555.173-1.037.26-1.445.26zm8.294-12.049l-1.398-.141v-.581l2.325-.267h.032l.298.204v3.739l-.031 1.304c.335-.304.806-.597 1.413-.88.608-.283 1.205-.424 1.791-.424.66 0 1.173.125 1.54.377.366.251.623.641.77 1.17.146.529.22 1.244.22 2.144v4.43l1.146.126v.675h-3.519v-.675l1.1-.126v-4.445c0-.67-.044-1.194-.133-1.571-.09-.377-.265-.66-.527-.849-.262-.188-.644-.282-1.146-.282-.42 0-.87.102-1.351.306a5.737 5.737 0 00-1.273.73v6.111l1.163.126v.675h-3.41v-.675l.99-.11v-11.09zm9.426 9.583c0-1.016.503-1.752 1.508-2.207 1.005-.456 2.257-.7 3.754-.73v-.488c0-.534-.055-.955-.165-1.264a1.17 1.17 0 00-.573-.676c-.272-.141-.654-.212-1.147-.212-.534 0-1.018.081-1.453.244a8.93 8.93 0 00-1.264.589l-.346-.691c.115-.105.356-.252.723-.44a7.849 7.849 0 011.256-.503c.472-.147.927-.22 1.367-.22.712 0 1.275.1 1.689.299.413.199.712.518.895.958.183.44.275 1.031.275 1.775v5.184h.974v.581c-.576.157-1.063.236-1.46.236-.252 0-.425-.04-.52-.118-.094-.079-.14-.26-.14-.542v-.581a7.453 7.453 0 01-1.234.887 2.98 2.98 0 01-1.516.385c-.754 0-1.38-.21-1.877-.628-.497-.419-.746-1.032-.746-1.838zm3.095 1.54c.293 0 .644-.095 1.052-.283.408-.189.78-.414 1.115-.676v-2.78c-1.267.01-2.228.199-2.882.565-.655.367-.982.859-.982 1.477 0 .597.152 1.029.455 1.296.304.267.718.4 1.242.4zm13.933-3.928c0 .9-.183 1.72-.55 2.459a4.293 4.293 0 01-1.562 1.751c-.676.43-1.448.644-2.317.644a6.46 6.46 0 01-.927-.07 4.387 4.387 0 01-.801-.181l.03 1.335v1.697l1.745.157v.691h-4.21v-.691l1.21-.157v-10.635l-1.226-.267v-.707l2.01-.252h.032l.283.252v.958a4.608 4.608 0 011.225-.888 3.505 3.505 0 011.618-.369c.608 0 1.173.152 1.697.456.523.304.945.775 1.264 1.414.32.638.48 1.44.48 2.403zm-3.958-3.314c-.45 0-.87.094-1.257.282-.387.189-.691.398-.911.629v5.985c.084.136.296.259.636.369.34.11.715.165 1.123.165.901 0 1.626-.333 2.176-.998.55-.665.825-1.646.825-2.945 0-1.163-.244-2.034-.73-2.616-.488-.58-1.108-.871-1.862-.871zm13.761 3.314c0 .9-.183 1.72-.55 2.459a4.293 4.293 0 01-1.563 1.751c-.675.43-1.448.644-2.317.644a6.46 6.46 0 01-.927-.07 4.387 4.387 0 01-.801-.181l.031 1.335v1.697l1.744.157v.691h-4.21v-.691l1.21-.157v-10.635l-1.226-.267v-.707l2.011-.252h.032l.282.252v.958a4.608 4.608 0 011.226-.888 3.505 3.505 0 011.618-.369c.607 0 1.173.152 1.696.456.524.304.945.775 1.265 1.414.32.638.479 1.44.479 2.403zm-3.959-3.314c-.45 0-.869.094-1.256.282-.388.189-.692.398-.912.629v5.985c.084.136.296.259.637.369.34.11.714.165 1.123.165.9 0 1.626-.333 2.176-.998.55-.665.824-1.646.824-2.945 0-1.163-.243-2.034-.73-2.616-.487-.58-1.108-.871-1.862-.871zm9.206 8.168c-1.215 0-2.15-.416-2.804-1.249-.655-.832-.982-1.94-.982-3.322 0-.89.173-1.681.518-2.372.346-.691.825-1.228 1.438-1.61a3.822 3.822 0 012.065-.574c.933 0 1.658.267 2.176.801.519.535.799 1.304.84 2.31 0 .649-.03 1.11-.094 1.382h-5.592c0 1.1.249 1.998.746 2.694.498.697 1.197 1.045 2.097 1.045.44 0 .89-.079 1.351-.236.461-.157.817-.345 1.068-.565l.252.58c-.304.315-.746.58-1.328.794a5.023 5.023 0 01-1.751.322zm1.838-5.372c.031-.22.047-.45.047-.691-.01-.692-.176-1.241-.495-1.65-.32-.408-.809-.613-1.469-.613-1.435 0-2.215.985-2.34 2.954h4.257zm3.817-2.482l-1.21-.267v-.707l1.996-.252h.047l.298.252v.69l-.016.394c.388-.335.901-.644 1.54-.927.639-.283 1.23-.424 1.775-.424.67 0 1.186.128 1.547.385.362.256.613.649.754 1.178.142.529.212 1.238.212 2.128v4.446l1.179.11v.675h-3.503v-.675l1.052-.11v-4.461c0-.66-.044-1.179-.133-1.556-.09-.377-.262-.662-.519-.856-.256-.193-.63-.29-1.123-.29-.419 0-.872.104-1.359.314-.487.21-.908.455-1.265.738v6.095l1.147.126v.675h-3.471v-.675l1.052-.126v-6.88zm13.086 7.854c-1.215 0-2.15-.416-2.804-1.249-.655-.832-.982-1.94-.982-3.322 0-.89.173-1.681.518-2.372.346-.691.825-1.228 1.438-1.61a3.822 3.822 0 012.065-.574c.932 0 1.658.267 2.176.801.518.535.799 1.304.84 2.31 0 .649-.03 1.11-.094 1.382h-5.592c0 1.1.249 1.998.746 2.694.497.697 1.197 1.045 2.097 1.045.44 0 .89-.079 1.351-.236.461-.157.817-.345 1.068-.565l.252.58c-.304.315-.746.58-1.328.794a5.023 5.023 0 01-1.751.322zm1.838-5.372c.031-.22.047-.45.047-.691-.01-.692-.176-1.241-.495-1.65-.32-.408-.809-.613-1.469-.613-1.435 0-2.215.985-2.34 2.954h4.257zm6.283 5.372c-.618 0-1.188-.16-1.712-.479-.524-.32-.942-.804-1.257-1.453-.314-.65-.471-1.445-.471-2.388 0-.9.183-1.715.55-2.443a4.262 4.262 0 011.563-1.728c.675-.424 1.463-.636 2.364-.636.576 0 1.131.063 1.665.189v-3.11l-1.633-.158v-.565l2.576-.267h.031l.299.22v11.939h.958v.612c-.052.01-.23.053-.534.126-.304.073-.628.11-.974.11-.241 0-.411-.042-.51-.126-.1-.084-.15-.267-.15-.55v-.55c-.325.357-.72.655-1.186.896-.466.24-.992.361-1.579.361zm.519-.99c.45 0 .877-.107 1.28-.321.403-.215.704-.453.903-.715v-5.781c-.083-.147-.3-.272-.652-.377a3.908 3.908 0 00-1.123-.157c-.9 0-1.623.322-2.168.966-.544.644-.817 1.62-.817 2.93 0 1.173.241 2.042.723 2.607.482.566 1.1.849 1.854.849zm6.896.99a.846.846 0 01-.864-.88.99.99 0 01.306-.738.992.992 0 01.715-.298c.283 0 .495.084.636.251a.94.94 0 01.212.628c0 .294-.1.54-.298.739a.966.966 0 01-.707.298z" fill="#0F007A" fill-rule="nonzero"/><g transform="translate(233.605 177.4)"><circle fill="#651EFF" cx="15.709" cy="15.709" r="15.709"/><circle fill="#FFF" cx="15.709" cy="15.709" r="6.284"/></g></g></svg>