<svg width="270" height="258" viewBox="0 0 270 258" fill="none" xmlns="http://www.w3.org/2000/svg"><path d="M0 12.8c0-4.48 0-6.72.872-8.432A8 8 0 014.368.872C6.08 0 8.32 0 12.8 0h244.4c4.48 0 6.721 0 8.432.872a8.001 8.001 0 013.496 3.496C270 6.08 270 8.32 270 12.8v232.4c0 4.48 0 6.721-.872 8.432a8.003 8.003 0 01-3.496 3.496c-1.711.872-3.952.872-8.432.872H12.8c-4.48 0-6.72 0-8.432-.872a8.001 8.001 0 01-3.496-3.496C0 251.921 0 249.68 0 245.2V12.8z" fill="#fff"/><path fill-rule="evenodd" clip-rule="evenodd" d="M78.737 208c22.227 0 54.772-52.569 69.692-101.975C163.35 56.62 94.455 37 64.569 37 34.685 37 24 73.56 24 125.304 24 177.047 56.51 208 78.737 208z" fill="#0F007A"/><path d="M132.268 191.368l-1.106.389c-.058-.385-.247-.733-.565-1.043-.319-.318-.758-.477-1.32-.477-.494 0-.905.142-1.231.427a1.347 1.347 0 00-.491 1.056c0 .326.097.603.29.829.201.226.485.381.854.465l1.332.289c.738.159 1.307.461 1.709.905.403.436.604.968.604 1.596 0 .72-.285 1.34-.855 1.86-.57.519-1.311.779-2.224.779-.997 0-1.781-.26-2.35-.779-.562-.528-.889-1.152-.981-1.873l1.182-.377c.05.537.259.989.628 1.358.369.368.871.553 1.508.553.587 0 1.039-.135 1.357-.403.319-.268.478-.607.478-1.018a1.23 1.23 0 00-.339-.867c-.227-.251-.558-.423-.993-.515l-1.27-.276c-.661-.143-1.189-.424-1.583-.842-.394-.419-.591-.951-.591-1.596 0-.704.285-1.32.855-1.848.578-.536 1.273-.804 2.086-.804.913 0 1.613.222 2.099.666.486.444.792.959.917 1.546zm3.104-1.069v1.911h1.307v1.068h-1.307v3.142c0 .285.063.494.189.628.134.134.352.201.653.201.176 0 .331-.017.465-.05v1.005c-.201.076-.469.113-.804.113-.519 0-.93-.15-1.231-.452-.302-.302-.453-.725-.453-1.269v-3.318h-1.156v-1.068h.327c.31 0 .54-.084.691-.252.159-.176.239-.402.239-.678v-.981h1.08zm2.507 6.334c0-.519.168-.934.503-1.244.335-.318.779-.515 1.332-.59l1.634-.239c.31-.042.465-.193.465-.453 0-.318-.109-.578-.327-.779-.218-.201-.545-.301-.98-.301-.402 0-.721.113-.955.339-.235.218-.373.511-.415.88l-1.131-.264a1.958 1.958 0 01.792-1.408c.469-.369 1.03-.553 1.684-.553.854 0 1.487.21 1.897.629.411.41.616.938.616 1.583v3.029c0 .36.025.691.075.993h-1.156a4.973 4.973 0 01-.063-.817 2.215 2.215 0 01-.741.703c-.318.201-.721.302-1.206.302-.595 0-1.081-.176-1.458-.528-.377-.36-.566-.787-.566-1.282zm2.187.817c.528 0 .951-.142 1.269-.427.319-.285.478-.737.478-1.357v-.277l-1.848.277c-.268.042-.481.138-.641.289-.159.151-.238.356-.238.616 0 .234.088.439.264.615.184.176.423.264.716.264zm8.124-5.303v1.257a3.522 3.522 0 00-.515-.038c-1.106 0-1.659.62-1.659 1.86v3.029h-1.182v-6.045h1.157v1.055c.368-.77.971-1.156 1.809-1.156a2 2 0 01.39.038zm3.162-1.848v1.911h1.307v1.068h-1.307v3.142c0 .285.062.494.188.628.134.134.352.201.654.201.175 0 .33-.017.465-.05v1.005c-.202.076-.47.113-.805.113-.519 0-.93-.15-1.231-.452-.302-.302-.453-.725-.453-1.269v-3.318h-1.156v-1.068h.327c.31 0 .54-.084.691-.252.159-.176.239-.402.239-.678v-.981h1.081zm2.506 6.334c0-.519.168-.934.503-1.244.335-.318.779-.515 1.332-.59l1.634-.239c.31-.042.465-.193.465-.453 0-.318-.109-.578-.327-.779-.218-.201-.544-.301-.98-.301-.402 0-.721.113-.955.339-.235.218-.373.511-.415.88l-1.131-.264a1.96 1.96 0 01.792-1.408c.469-.369 1.03-.553 1.684-.553.854 0 1.487.21 1.897.629.411.41.616.938.616 1.583v3.029c0 .36.025.691.076.993h-1.157a4.977 4.977 0 01-.062-.817 2.228 2.228 0 01-.742.703c-.318.201-.72.302-1.206.302-.595 0-1.081-.176-1.458-.528-.377-.36-.566-.787-.566-1.282zm2.187.817c.528 0 .951-.142 1.269-.427.319-.285.478-.737.478-1.357v-.277l-1.848.277c-.268.042-.481.138-.64.289-.16.151-.239.356-.239.616 0 .234.088.439.264.615.184.176.423.264.716.264zm9.079.805h-1.169v-6.045h1.169v6.045zm-1.194-7.729a.848.848 0 01-.239-.604c0-.234.08-.435.239-.603a.826.826 0 01.603-.251c.235 0 .436.084.604.251.167.159.251.36.251.603a.826.826 0 01-.251.604.847.847 0 01-.604.238.846.846 0 01-.603-.238zm4.385 4.235v3.494h-1.181v-6.045h1.156v.867c.402-.696 1.022-1.043 1.86-1.043.695 0 1.227.222 1.596.666.377.444.566 1.018.566 1.721v3.834h-1.182v-3.632c0-1.014-.469-1.521-1.407-1.521-.444 0-.792.159-1.043.477-.243.31-.365.704-.365 1.182zm5.31 1.923l1.068-.377c.042.326.185.599.428.816.243.21.569.315.98.315.318 0 .57-.076.754-.227a.737.737 0 00.277-.578c0-.402-.26-.662-.78-.779l-1.03-.226c-.469-.101-.838-.302-1.106-.603a1.59 1.59 0 01-.402-1.094c0-.519.209-.967.628-1.344a2.222 2.222 0 011.521-.566c.385 0 .729.059 1.03.176.302.109.536.256.704.44.168.184.293.356.377.515.084.159.147.323.189.49l-1.044.39a1.15 1.15 0 00-.087-.289 1.406 1.406 0 00-.202-.327.818.818 0 00-.377-.276 1.415 1.415 0 00-.59-.113c-.293 0-.536.079-.729.238a.727.727 0 00-.277.566c0 .385.231.628.692.729l.98.213c.536.118.947.336 1.231.654.294.31.44.691.44 1.144 0 .477-.197.909-.59 1.294-.386.385-.926.578-1.622.578-.745 0-1.328-.184-1.746-.553-.419-.377-.658-.779-.717-1.206zm7.417 3.958h-1.169v-8.432h1.144v.942a2.03 2.03 0 01.791-.779c.352-.201.763-.302 1.232-.302.871 0 1.55.298 2.036.893.494.595.741 1.349.741 2.262 0 .921-.255 1.684-.766 2.287-.503.603-1.186.905-2.049.905a2.45 2.45 0 01-1.181-.277 1.99 1.99 0 01-.779-.703v3.204zm3.569-5.416c0-.612-.163-1.114-.49-1.508-.319-.402-.75-.603-1.295-.603-.536 0-.972.201-1.307.603-.326.394-.49.896-.49 1.508 0 .628.164 1.143.49 1.546.335.393.771.59 1.307.59.537 0 .968-.197 1.295-.59.327-.403.49-.918.49-1.546zm3.478-.616h3.305c-.016-.452-.167-.821-.452-1.106-.285-.293-.687-.44-1.207-.44-.469 0-.854.155-1.156.465a1.623 1.623 0 00-.49 1.081zm3.481 1.571l1.018.352a2.706 2.706 0 01-.98 1.382c-.478.352-1.056.528-1.734.528-.846 0-1.567-.289-2.162-.867-.586-.587-.88-1.374-.88-2.363 0-.921.285-1.684.855-2.287.57-.603 1.248-.905 2.036-.905.913 0 1.625.289 2.136.867.511.57.767 1.337.767 2.3 0 .151-.008.277-.025.377h-4.55c.009.536.185.976.528 1.32.352.343.784.515 1.295.515.863 0 1.428-.406 1.696-1.219zm3.745 2.074h-1.181v-9.099h1.181v9.099zm3.191-3.494v3.494h-1.181v-6.045h1.156v.867c.402-.696 1.022-1.043 1.86-1.043.695 0 1.227.222 1.596.666.377.444.566 1.018.566 1.721v3.834h-1.182v-3.632c0-1.014-.469-1.521-1.407-1.521-.444 0-.792.159-1.043.477-.243.31-.365.704-.365 1.182zm7.044 3.494h-1.168v-6.045h1.168v6.045zm-1.193-7.729a.843.843 0 01-.239-.604c0-.234.079-.435.239-.603a.822.822 0 01.603-.251c.234 0 .435.084.603.251.168.159.251.36.251.603a.822.822 0 01-.251.604.846.846 0 01-.603.238.843.843 0 01-.603-.238zm4.385 4.235v3.494h-1.182v-6.045h1.156v.867c.403-.696 1.023-1.043 1.86-1.043.696 0 1.228.222 1.596.666.378.444.566 1.018.566 1.721v3.834h-1.181v-3.632c0-1.014-.469-1.521-1.408-1.521-.444 0-.792.159-1.043.477-.243.31-.364.704-.364 1.182zm5.435 3.82l1.144-.264c.042.428.214.78.515 1.056.302.285.679.427 1.131.427 1.232 0 1.848-.653 1.848-1.96v-.867c-.151.293-.39.532-.717.716-.318.184-.695.276-1.131.276-.804 0-1.47-.272-1.998-.816-.519-.553-.779-1.257-.779-2.112 0-.829.26-1.525.779-2.086.519-.57 1.186-.854 1.998-.854.922 0 1.542.318 1.86.955v-.842h1.169v5.592c0 .402-.055.775-.163 1.119a2.855 2.855 0 01-.491.967c-.226.293-.544.524-.955.691-.402.168-.875.252-1.42.252-.745 0-1.378-.214-1.897-.641a2.342 2.342 0 01-.893-1.609zm2.966-1.608c.511 0 .926-.176 1.244-.528.319-.36.478-.83.478-1.408s-.159-1.043-.478-1.395c-.318-.36-.733-.54-1.244-.54-.519 0-.942.176-1.269.528-.319.352-.478.821-.478 1.407 0 .595.155 1.069.465 1.42.319.344.746.516 1.282.516z" fill="#fff"/><g filter="url(#filter0_d)"><path fill-rule="evenodd" clip-rule="evenodd" d="M5 97.284A6.284 6.284 0 0111.284 91h225.252a6.284 6.284 0 016.284 6.284v50.269a6.284 6.284 0 01-6.284 6.283H11.284A6.283 6.283 0 015 147.553v-50.27z" fill="#F9FAFC"/></g><path d="M20.481 116.384a6.281 6.281 0 01-1.414-.142c-.408-.094-.88-.225-1.414-.392a6.304 6.304 0 00-.644-.189l.126-2.796h.817l.236 2.058c.199.188.513.351.942.487.44.136.917.204 1.43.204.848 0 1.497-.194 1.948-.581.45-.388.675-.922.675-1.603 0-.439-.12-.811-.361-1.115a2.878 2.878 0 00-.911-.77c-.367-.209-.88-.455-1.54-.738a13.338 13.338 0 01-1.586-.785 3.984 3.984 0 01-1.132-1.053c-.324-.45-.486-.984-.486-1.602 0-.576.157-1.089.47-1.54.315-.45.75-.796 1.305-1.037.565-.251 1.21-.377 1.932-.377a5.5 5.5 0 011.162.11c.346.063.78.168 1.304.315.283.083.45.13.503.141l-.094 2.576h-.786l-.283-1.948c-.125-.104-.371-.204-.738-.298a4.036 4.036 0 00-1.147-.157c-.775 0-1.366.162-1.775.487-.408.314-.613.785-.613 1.414 0 .429.11.79.33 1.083.22.283.503.524.849.723.345.199.88.466 1.602.801.754.356 1.34.665 1.76.927.429.251.8.587 1.115 1.005.324.409.487.906.487 1.493 0 .555-.163 1.089-.487 1.602-.325.503-.796.911-1.414 1.225-.618.315-1.34.472-2.168.472zm13.822-4.854c0 .9-.183 1.722-.55 2.466a4.29 4.29 0 01-1.57 1.744c-.67.429-1.44.644-2.31.644-.293 0-.602-.026-.926-.079a4.001 4.001 0 01-.802-.173l.032 1.336v1.696l1.744.157v.692h-4.21v-.692l1.21-.157v-10.635l-1.226-.267v-.707l2.01-.251h.032l.283.251v.958a4.49 4.49 0 011.225-.879 3.437 3.437 0 011.618-.377 3.33 3.33 0 011.697.455c.523.304.942.775 1.256 1.414.325.639.487 1.44.487 2.404zm-3.958-3.315c-.45 0-.87.094-1.257.283-.387.188-.691.398-.911.628v5.985c.084.136.293.262.628.377.346.105.723.157 1.131.157.9 0 1.623-.329 2.168-.989.555-.671.833-1.655.833-2.954 0-1.162-.246-2.031-.739-2.607-.481-.587-1.1-.88-1.853-.88zm9.206 8.169c-1.215 0-2.153-.414-2.812-1.241-.65-.838-.974-1.948-.974-3.331 0-.89.172-1.68.518-2.372.346-.691.822-1.225 1.43-1.602a3.827 3.827 0 012.073-.581c.932 0 1.655.267 2.168.801.524.534.806 1.304.848 2.309 0 .649-.031 1.11-.094 1.383h-5.592c0 1.099.246 2 .738 2.702.503.691 1.204 1.036 2.105 1.036.44 0 .89-.078 1.351-.235.46-.157.817-.346 1.068-.566l.252.581c-.304.315-.75.582-1.336.802a5.08 5.08 0 01-1.743.314zm1.837-5.373c.032-.22.048-.45.048-.691-.01-.691-.178-1.241-.503-1.649-.314-.409-.801-.613-1.461-.613-1.435 0-2.215.984-2.34 2.953h4.257zm4.117-6.676l-1.335-.142v-.581l2.293-.267h.016l.298.204v11.876l1.477.11v.676h-4.131v-.676l1.382-.125v-11.075zm3.976 9.582c0-1.015.503-1.749 1.508-2.199 1.005-.461 2.257-.707 3.755-.738v-.487c0-.534-.058-.953-.173-1.257a1.11 1.11 0 00-.566-.675c-.272-.147-.654-.22-1.147-.22-.534 0-1.02.083-1.46.251a8.53 8.53 0 00-1.257.581l-.346-.691c.115-.105.356-.251.723-.44a7.842 7.842 0 011.257-.502 4.58 4.58 0 011.366-.22c.712 0 1.273.099 1.681.298.419.199.717.518.895.958.189.44.283 1.032.283 1.775v5.184h.974v.582c-.576.157-1.063.235-1.46.235-.252 0-.425-.042-.52-.125-.093-.074-.14-.252-.14-.534v-.582c-.378.335-.791.634-1.242.896-.44.251-.942.377-1.508.377-.754 0-1.382-.21-1.885-.629-.492-.419-.738-1.031-.738-1.838zm3.095 1.54c.293 0 .644-.094 1.052-.283a5.66 5.66 0 001.115-.675v-2.781c-1.267.011-2.23.199-2.89.566-.65.366-.974.858-.974 1.476 0 .597.152 1.032.456 1.304.303.262.717.393 1.24.393zm11.12-9.614c-.565 0-.847-.299-.847-.895 0-.304.089-.55.267-.739.178-.199.419-.298.722-.298.314 0 .54.089.676.267a.963.963 0 01.204.628c0 .325-.09.581-.267.77-.168.178-.414.267-.738.267h-.016zm-.502 2.686l-1.225-.267v-.707l2.152-.251h.031l.314.251v7.87l1.367.11v.676h-4.021v-.676l1.382-.125v-6.881zm4.748 0l-1.21-.267v-.707l1.995-.251h.047l.299.251v.691l-.016.393c.388-.335.9-.644 1.54-.927.638-.282 1.23-.424 1.775-.424.67 0 1.183.131 1.54.393.366.251.617.644.753 1.178.147.524.22 1.231.22 2.121v4.445l1.178.11v.676H72.56v-.676l1.053-.11v-4.461c0-.66-.047-1.178-.142-1.555-.084-.377-.256-.66-.518-.848-.252-.199-.623-.299-1.115-.299-.42 0-.875.105-1.367.314-.482.21-.9.456-1.257.739v6.095l1.147.125v.676h-3.472v-.676l1.053-.125v-6.881zm16.818 7.855c-1.215 0-2.152-.414-2.812-1.241-.649-.838-.974-1.948-.974-3.331 0-.89.173-1.68.519-2.372.345-.691.822-1.225 1.43-1.602a3.827 3.827 0 012.073-.581c.932 0 1.655.267 2.168.801.523.534.806 1.304.848 2.309 0 .649-.031 1.11-.094 1.383h-5.593c0 1.099.246 2 .739 2.702.502.691 1.204 1.036 2.105 1.036.44 0 .89-.078 1.35-.235.461-.157.817-.346 1.069-.566l.251.581c-.303.315-.749.582-1.335.802a5.08 5.08 0 01-1.744.314zm1.838-5.373c.032-.22.047-.45.047-.691-.01-.691-.178-1.241-.502-1.649-.315-.409-.802-.613-1.461-.613-1.435 0-2.215.984-2.341 2.953h4.257zm5.546 5.373c-.555 0-.974-.126-1.257-.377-.282-.262-.424-.723-.424-1.383v-6.205H89.27v-.612c.524-.116.828-.199.911-.252.158-.084.273-.246.346-.487.063-.157.147-.44.251-.848.105-.408.184-.728.236-.958h.723v2.23h2.78v.927h-2.78v5.09c0 .607.02 1.037.063 1.288.041.241.125.398.25.471.126.074.346.11.66.11.304 0 .645-.042 1.022-.125.377-.084.66-.173.848-.267l.204.597c-.24.188-.639.371-1.194.549-.555.168-1.037.252-1.445.252zm6.382 0c-.555 0-.974-.126-1.257-.377-.283-.262-.424-.723-.424-1.383v-6.205h-1.194v-.612c.524-.116.828-.199.911-.252.157-.084.273-.246.346-.487.063-.157.147-.44.251-.848.105-.408.183-.728.236-.958h.723v2.23h2.78v.927h-2.78v5.09c0 .607.02 1.037.062 1.288.042.241.126.398.252.471.125.074.345.11.66.11.303 0 .644-.042 1.021-.125.377-.084.659-.173.848-.267l.204.597c-.241.188-.639.371-1.194.549-.555.168-1.037.252-1.445.252zm8.68-12.049l-1.335-.142v-.581l2.293-.267h.016l.298.204v11.876l1.477.11v.676h-4.131v-.676l1.382-.125v-11.075zm5.688 1.508c-.565 0-.848-.299-.848-.895 0-.304.089-.55.267-.739.178-.199.419-.298.723-.298.314 0 .539.089.675.267a.963.963 0 01.204.628c0 .325-.089.581-.267.77-.167.178-.413.267-.738.267h-.016zm-1.822 1.712l2.184-.251h.031l.299.251v8.562c0 2.461-.802 3.765-2.404 3.911a3.994 3.994 0 01-.518 0c-.21-.01-.335-.031-.377-.063l-.063-.644c.084.011.209 0 .377-.031.167-.021.34-.063.518-.126.451-.136.765-.492.943-1.068.178-.576.267-1.335.267-2.278l-.016-7.226-1.241-.283v-.754zm12.043 8.797c-.272 0-.471-.047-.597-.141-.126-.094-.189-.267-.189-.518v-.613a6.24 6.24 0 01-1.366.911 3.484 3.484 0 01-1.571.393c-.953 0-1.634-.267-2.042-.801-.398-.535-.597-1.404-.597-2.608v-4.619l-.927-.267v-.581l1.901-.204h.015l.283.188v5.294c0 .66.047 1.179.142 1.556.094.366.267.638.518.816.251.178.618.267 1.1.267.46 0 .9-.099 1.319-.298.419-.199.78-.435 1.084-.707v-6.064l-1.194-.267v-.581l2.09-.204h.015l.362.188v8.028h.974l-.016.597c-.053.01-.204.052-.456.125a3 3 0 01-.848.11zm6.125.032a3.263 3.263 0 01-1.712-.472c-.524-.324-.942-.811-1.257-1.46-.314-.65-.471-1.446-.471-2.388 0-.901.183-1.713.55-2.435a4.213 4.213 0 011.555-1.728c.681-.43 1.472-.644 2.372-.644.576 0 1.131.063 1.665.188v-3.11l-1.633-.157v-.566l2.576-.267h.031l.299.22v11.939h.958v.613c-.052.01-.23.052-.534.125-.304.074-.628.11-.974.11-.241 0-.414-.042-.518-.125-.095-.084-.142-.267-.142-.55v-.55a4.119 4.119 0 01-1.194.895c-.46.241-.984.362-1.571.362zm.519-.99c.45 0 .874-.105 1.272-.314.409-.22.712-.461.911-.723v-5.781c-.083-.146-.303-.272-.659-.377a3.86 3.86 0 00-1.116-.157c-.9 0-1.623.325-2.168.974-.544.639-.816 1.613-.816 2.922 0 1.173.24 2.042.722 2.608.482.565 1.1.848 1.854.848zm6.632-11.059l-1.289-.142v-.581l2.247-.267h.016l.298.204v7.808l-.031.99 3.895-4.006-1.178-.22v-.629h3.613v.629l-1.209.22-2.545 2.497 3.126 4.587 1.037.11v.676h-3.598v-.676l1.084-.125-2.466-3.865-1.759 1.728.031.802v1.335l1.21.125v.676h-3.519v-.676l1.037-.125v-11.075zm9.52 0l-1.335-.142v-.581l2.293-.267h.016l.299.204v11.876l1.476.11v.676h-4.131v-.676l1.382-.125v-11.075zm5.72 1.508c-.566 0-.848-.299-.848-.895 0-.304.089-.55.267-.739.178-.199.419-.298.722-.298.314 0 .54.089.676.267a.963.963 0 01.204.628c0 .325-.089.581-.267.77-.168.178-.414.267-.738.267h-.016zm-.503 2.686l-1.225-.267v-.707l2.152-.251h.031l.315.251v7.87l1.366.11v.676h-4.021v-.676l1.382-.125v-6.881zm12.131 3.001c0 .9-.183 1.722-.55 2.466a4.286 4.286 0 01-1.571 1.744c-.67.429-1.44.644-2.309.644-.293 0-.602-.026-.927-.079a4.018 4.018 0 01-.801-.173l.032 1.336v1.696l1.743.157v.692h-4.21v-.692l1.21-.157v-10.635l-1.226-.267v-.707l2.011-.251h.032l.282.251v.958a4.501 4.501 0 011.226-.879 3.434 3.434 0 011.618-.377c.607 0 1.173.152 1.696.455.524.304.943.775 1.257 1.414.325.639.487 1.44.487 2.404zm-3.959-3.315c-.45 0-.869.094-1.256.283-.388.188-.692.398-.911.628v5.985c.083.136.293.262.628.377a3.87 3.87 0 001.131.157c.901 0 1.623-.329 2.168-.989.555-.671.832-1.655.832-2.954 0-1.162-.246-2.031-.738-2.607-.482-.587-1.1-.88-1.854-.88zm13.762 3.315c0 .9-.183 1.722-.55 2.466a4.286 4.286 0 01-1.571 1.744c-.67.429-1.44.644-2.309.644-.293 0-.602-.026-.927-.079a3.986 3.986 0 01-.801-.173l.031 1.336v1.696l1.744.157v.692h-4.21v-.692l1.21-.157v-10.635l-1.226-.267v-.707l2.011-.251h.031l.283.251v.958a4.486 4.486 0 011.226-.879 3.434 3.434 0 011.618-.377c.607 0 1.173.152 1.696.455.524.304.943.775 1.257 1.414.325.639.487 1.44.487 2.404zm-3.959-3.315c-.45 0-.869.094-1.257.283-.387.188-.691.398-.911.628v5.985c.084.136.294.262.629.377a3.87 3.87 0 001.131.157c.9 0 1.623-.329 2.168-.989.555-.671.832-1.655.832-2.954 0-1.162-.246-2.031-.738-2.607-.482-.587-1.1-.88-1.854-.88zm12.573 8.169a3.264 3.264 0 01-1.713-.472c-.523-.324-.942-.811-1.256-1.46-.315-.65-.472-1.446-.472-2.388 0-.901.184-1.713.55-2.435a4.22 4.22 0 011.555-1.728c.681-.43 1.472-.644 2.372-.644.576 0 1.131.063 1.666.188v-3.11l-1.634-.157v-.566l2.576-.267h.032l.298.22v11.939h.958v.613c-.052.01-.23.052-.534.125-.304.074-.628.11-.974.11-.241 0-.413-.042-.518-.125-.094-.084-.142-.267-.142-.55v-.55a4.128 4.128 0 01-1.193.895c-.461.241-.985.362-1.571.362zm.518-.99c.45 0 .874-.105 1.272-.314.409-.22.713-.461.912-.723v-5.781c-.084-.146-.304-.272-.66-.377a3.86 3.86 0 00-1.116-.157c-.9 0-1.623.325-2.167.974-.545.639-.817 1.613-.817 2.922 0 1.173.241 2.042.722 2.608.482.565 1.1.848 1.854.848zm5.831-1.477c0-1.015.502-1.749 1.508-2.199 1.005-.461 2.257-.707 3.754-.738v-.487c0-.534-.057-.953-.173-1.257a1.108 1.108 0 00-.565-.675c-.272-.147-.655-.22-1.147-.22-.534 0-1.021.083-1.461.251a8.576 8.576 0 00-1.257.581l-.345-.691c.115-.105.356-.251.722-.44a7.87 7.87 0 011.257-.502 4.58 4.58 0 011.367-.22c.712 0 1.272.099 1.681.298.419.199.717.518.895.958.189.44.283 1.032.283 1.775v5.184h.974v.582c-.576.157-1.063.235-1.461.235-.251 0-.424-.042-.518-.125-.095-.074-.142-.252-.142-.534v-.582a7.681 7.681 0 01-1.241.896c-.44.251-.942.377-1.508.377-.754 0-1.382-.21-1.885-.629-.492-.419-.738-1.031-.738-1.838zm3.094 1.54c.294 0 .644-.094 1.053-.283.408-.188.78-.414 1.115-.675v-2.781c-1.267.011-2.23.199-2.89.566-.65.366-.974.858-.974 1.476 0 .597.152 1.032.455 1.304.304.262.718.393 1.241.393zm-1.445-9.645a.734.734 0 01-.581-.252c-.147-.167-.22-.382-.22-.644 0-.283.079-.524.236-.723.167-.209.398-.314.691-.314.251 0 .45.095.597.283a.92.92 0 01.235.628c0 .294-.083.54-.251.739-.168.188-.403.283-.707.283zm3.409 0a.718.718 0 01-.566-.252.983.983 0 01-.219-.644c0-.283.078-.524.235-.723.168-.209.398-.314.691-.314.252 0 .451.095.597.283a.92.92 0 01.236.628c0 .294-.084.54-.251.739-.168.188-.409.283-.723.283zm3.655 9.739l1.256-.094v-6.928l-1.209-.267v-.707l1.995-.251h.031l.299.251v.252l-.032 1.193h.032c.021-.02.157-.178.408-.471.262-.304.644-.592 1.147-.864.513-.272 1.026-.408 1.539-.408.168 0 .325.021.472.063v1.382c-.042-.031-.137-.063-.283-.094a1.922 1.922 0 00-.44-.047c-.597 0-1.105.089-1.524.267a5.779 5.779 0 00-1.162.659v5.954l2.089.126v.644h-4.618v-.66zm14.193.833a3.264 3.264 0 01-1.713-.472c-.523-.324-.942-.811-1.256-1.46-.314-.65-.472-1.446-.472-2.388 0-.901.184-1.713.55-2.435a4.22 4.22 0 011.555-1.728c.681-.43 1.472-.644 2.373-.644.576 0 1.131.063 1.665.188v-3.11l-1.634-.157v-.566l2.576-.267h.032l.298.22v11.939h.958v.613c-.052.01-.23.052-.534.125-.303.074-.628.11-.974.11-.241 0-.413-.042-.518-.125-.094-.084-.141-.267-.141-.55v-.55a4.146 4.146 0 01-1.194.895c-.461.241-.985.362-1.571.362zm.518-.99c.45 0 .875-.105 1.273-.314.408-.22.712-.461.911-.723v-5.781c-.084-.146-.304-.272-.66-.377a3.852 3.852 0 00-1.115-.157c-.901 0-1.624.325-2.168.974-.545.639-.817 1.613-.817 2.922 0 1.173.241 2.042.722 2.608.482.565 1.1.848 1.854.848zm12.931.958c-.272 0-.471-.047-.597-.141-.125-.094-.188-.267-.188-.518v-.613a6.247 6.247 0 01-1.367.911 3.48 3.48 0 01-1.571.393c-.953 0-1.634-.267-2.042-.801-.398-.535-.597-1.404-.597-2.608v-4.619l-.927-.267v-.581l1.901-.204h.016l.283.188v5.294c0 .66.047 1.179.141 1.556.094.366.267.638.518.816.252.178.618.267 1.1.267a3.04 3.04 0 001.32-.298c.418-.199.78-.435 1.083-.707v-6.064l-1.193-.267v-.581l2.089-.204h.016l.361.188v8.028h.974l-.016.597c-.052.01-.204.052-.455.125-.252.074-.535.11-.849.11zm-208.439 9.26l2.294-.267h.031l.299.22v4.776a4.385 4.385 0 011.162-.77c.46-.21.969-.314 1.524-.314.618 0 1.183.152 1.696.455.524.304.943.775 1.257 1.414.325.639.487 1.44.487 2.404 0 .9-.183 1.722-.55 2.466a4.291 4.291 0 01-1.57 1.744c-.681.429-1.467.644-2.357.644-.65 0-1.267-.068-1.854-.204-.586-.137-.942-.268-1.068-.393v-11.452l-1.35-.142v-.581zm4.791 4.603c-.44 0-.853.105-1.24.314-.388.21-.697.44-.927.691v5.813c.073.167.277.303.612.408.346.094.728.142 1.147.142.9 0 1.623-.33 2.168-.99.544-.67.817-1.65.817-2.938 0-1.152-.246-2.01-.739-2.576-.481-.576-1.094-.864-1.838-.864zm9.2 8.169c-1.215 0-2.152-.414-2.812-1.241-.65-.838-.974-1.948-.974-3.331 0-.89.173-1.68.518-2.372.346-.691.822-1.225 1.43-1.602a3.826 3.826 0 012.073-.581c.932 0 1.655.267 2.168.801.524.534.807 1.304.849 2.309 0 .649-.032 1.11-.095 1.383h-5.592c0 1.099.246 2 .738 2.702.503.691 1.205 1.036 2.105 1.036.44 0 .89-.078 1.351-.235.461-.157.817-.346 1.069-.566l.25.581c-.303.315-.748.582-1.334.802a5.08 5.08 0 01-1.744.314zm1.838-5.373c.031-.22.047-.45.047-.691-.01-.691-.178-1.241-.503-1.649-.314-.409-.8-.613-1.46-.613-1.435 0-2.216.984-2.341 2.953h4.257zm2.89 4.54l1.258-.094v-6.928l-1.21-.267v-.707l1.995-.251h.031l.299.251v.252L37 131h.032c.02-.02.157-.178.408-.471.262-.304.644-.592 1.147-.864.513-.272 1.026-.408 1.54-.408.167 0 .324.021.47.063v1.382c-.041-.031-.135-.063-.282-.094a1.92 1.92 0 00-.44-.047c-.597 0-1.105.089-1.523.267a5.788 5.788 0 00-1.163.659v5.954l2.09.126v.644h-4.62v-.66zm7.104-1.634c0-1.015.503-1.749 1.508-2.199 1.006-.461 2.257-.707 3.755-.738v-.487c0-.534-.058-.953-.173-1.257a1.11 1.11 0 00-.565-.675c-.273-.147-.655-.22-1.147-.22-.534 0-1.021.083-1.461.251a8.53 8.53 0 00-1.257.581l-.345-.691c.115-.105.356-.251.722-.44a7.842 7.842 0 011.257-.502 4.58 4.58 0 011.367-.22c.712 0 1.272.099 1.68.298.42.199.718.518.896.958.189.44.283 1.032.283 1.775v5.184h.974v.582c-.576.157-1.063.235-1.461.235-.252 0-.424-.042-.519-.125-.094-.074-.141-.252-.141-.534v-.582c-.377.335-.79.634-1.241.896-.44.251-.943.377-1.508.377-.754 0-1.383-.21-1.885-.629-.492-.419-.739-1.031-.739-1.838zm3.095 1.54c.293 0 .644-.094 1.053-.283.408-.188.78-.414 1.115-.675v-2.781c-1.267.011-2.23.199-2.89.566-.65.366-.974.858-.974 1.476 0 .597.151 1.032.455 1.304.304.262.718.393 1.241.393zm-1.445-9.645a.734.734 0 01-.581-.252c-.147-.167-.22-.382-.22-.644 0-.283.078-.524.235-.723.168-.209.398-.314.692-.314.25 0 .45.095.596.283a.92.92 0 01.236.628c0 .294-.084.54-.251.739-.168.188-.403.283-.707.283zm3.409 0a.717.717 0 01-.566-.252.98.98 0 01-.22-.644c0-.283.079-.524.236-.723.167-.209.398-.314.691-.314.252 0 .45.095.597.283a.92.92 0 01.236.628c0 .294-.084.54-.252.739-.167.188-.408.283-.722.283zm6.31 10.572c-.556 0-.975-.126-1.258-.377-.282-.262-.424-.723-.424-1.383v-6.205h-1.194v-.612c.524-.116.828-.199.912-.252.157-.084.272-.246.345-.487.063-.157.147-.44.252-.848.104-.408.183-.728.235-.958h.723v2.23h2.78v.927h-2.78v5.09c0 .607.02 1.037.063 1.288.041.241.125.398.25.471.127.074.346.11.66.11.304 0 .645-.042 1.022-.125.377-.084.66-.173.848-.267l.204.597c-.24.188-.639.371-1.194.549-.555.168-1.036.252-1.445.252zm6.381 0c-.555 0-.974-.126-1.257-.377-.282-.262-.424-.723-.424-1.383v-6.205H56.64v-.612c.524-.116.828-.199.911-.252.158-.084.273-.246.346-.487.063-.157.147-.44.251-.848.105-.408.184-.728.236-.958h.723v2.23h2.78v.927h-2.78v5.09c0 .607.02 1.037.062 1.288.042.241.126.398.252.471.125.074.345.11.66.11.303 0 .644-.042 1.02-.125.378-.084.66-.173.849-.267l.204.597c-.24.188-.639.371-1.194.549-.555.168-1.037.252-1.445.252zm3.758-2.467c0-1.015.503-1.749 1.509-2.199 1.005-.461 2.256-.707 3.754-.738v-.487c0-.534-.058-.953-.173-1.257a1.11 1.11 0 00-.565-.675c-.273-.147-.655-.22-1.147-.22-.534 0-1.021.083-1.461.251-.43.157-.848.351-1.257.581l-.345-.691c.115-.105.356-.251.722-.44a7.84 7.84 0 011.257-.502 4.58 4.58 0 011.367-.22c.712 0 1.272.099 1.68.298.42.199.718.518.896.958.188.44.283 1.032.283 1.775v5.184h.974v.582c-.576.157-1.063.235-1.461.235-.252 0-.425-.042-.519-.125-.094-.074-.141-.252-.141-.534v-.582c-.377.335-.79.634-1.241.896-.44.251-.943.377-1.508.377-.754 0-1.383-.21-1.885-.629-.492-.419-.739-1.031-.739-1.838zm3.095 1.54c.293 0 .644-.094 1.053-.283a5.66 5.66 0 001.115-.675v-2.781c-1.267.011-2.23.199-2.89.566-.65.366-.974.858-.974 1.476 0 .597.151 1.032.455 1.304.304.262.718.393 1.241.393zm5.618.094l1.257-.094v-6.928l-1.21-.267v-.707l1.996-.251h.03l.3.251v.252L74.325 131h.031c.021-.02.157-.178.409-.471.262-.304.644-.592 1.147-.864.513-.272 1.026-.408 1.54-.408.167 0 .324.021.47.063v1.382c-.042-.031-.136-.063-.282-.094a1.921 1.921 0 00-.44-.047c-.597 0-1.105.089-1.524.267a5.785 5.785 0 00-1.163.659v5.954l2.09.126v.644h-4.619v-.66zm10.062-8.059h3.33v.644l-1.162.205 1.68 4.665.77 2.231.66-2.152 1.681-4.744-1.1-.205v-.644h3v.644l-.8.205-3.095 7.996h-1.052l-3.174-7.996-.738-.205v-.644zm9.667 6.425c0-1.015.503-1.749 1.508-2.199 1.006-.461 2.257-.707 3.755-.738v-.487c0-.534-.058-.953-.173-1.257a1.11 1.11 0 00-.565-.675c-.273-.147-.655-.22-1.147-.22-.534 0-1.021.083-1.461.251a8.53 8.53 0 00-1.257.581l-.345-.691c.115-.105.356-.251.722-.44a7.842 7.842 0 011.257-.502 4.58 4.58 0 011.367-.22c.712 0 1.272.099 1.68.298.42.199.718.518.896.958.189.44.283 1.032.283 1.775v5.184h.974v.582c-.576.157-1.063.235-1.461.235-.252 0-.424-.042-.519-.125-.094-.074-.141-.252-.141-.534v-.582c-.377.335-.79.634-1.241.896-.44.251-.943.377-1.508.377-.754 0-1.382-.21-1.885-.629-.492-.419-.739-1.031-.739-1.838zm3.095 1.54c.293 0 .644-.094 1.053-.283.408-.188.78-.414 1.115-.675v-2.781c-1.267.011-2.23.199-2.89.566-.65.366-.974.858-.974 1.476 0 .597.151 1.032.455 1.304.304.262.718.393 1.241.393zm9.012.927a3.264 3.264 0 01-1.713-.472c-.523-.324-.942-.811-1.257-1.46-.314-.65-.471-1.446-.471-2.388 0-.901.183-1.713.55-2.435a4.22 4.22 0 011.555-1.728c.681-.43 1.472-.644 2.372-.644.576 0 1.131.063 1.665.188v-3.11l-1.633-.157v-.566l2.576-.267h.031l.299.22v11.939h.958v.613c-.052.01-.23.052-.534.125-.304.074-.628.11-.974.11-.241 0-.414-.042-.518-.125-.095-.084-.142-.267-.142-.55v-.55a4.119 4.119 0 01-1.194.895c-.46.241-.984.362-1.57.362zm.518-.99c.45 0 .874-.105 1.272-.314.409-.22.712-.461.911-.723v-5.781c-.083-.146-.303-.272-.659-.377a3.86 3.86 0 00-1.116-.157c-.9 0-1.623.325-2.168.974-.544.639-.816 1.613-.816 2.922 0 1.173.24 2.042.722 2.608.482.565 1.1.848 1.854.848zm10.752-.424c.115.178.356.335.723.471.366.136.759.204 1.178.204 1.278 0 1.917-.471 1.917-1.413 0-.43-.178-.775-.535-1.037-.356-.272-.963-.571-1.822-.896-.848-.303-1.466-.665-1.853-1.084-.388-.418-.582-.979-.582-1.68 0-.451.136-.843.409-1.179a2.696 2.696 0 011.115-.769 4.054 4.054 0 011.524-.283c.534 0 .979.047 1.335.141.367.095.728.21 1.084.346v1.869h-.77l-.282-1.147c-.074-.136-.262-.251-.566-.345a3.178 3.178 0 00-.974-.141c-.503 0-.911.115-1.225.345-.314.22-.471.519-.471.896 0 .335.078.612.235.832.157.22.351.398.581.534.231.126.55.273.959.44l.298.126c.597.23 1.079.45 1.445.66.367.199.671.466.911.801.241.324.362.733.362 1.225 0 .775-.299 1.388-.896 1.838-.586.44-1.372.66-2.356.66-.45 0-.963-.074-1.539-.22-.576-.147-1.006-.293-1.289-.44v-1.979h.849l.235 1.225zm6.505-3.173c0-.911.189-1.713.566-2.404.387-.691.89-1.22 1.508-1.586a3.839 3.839 0 011.964-.55c1.319 0 2.293.429 2.921 1.288.639.859.959 1.958.959 3.299 0 .911-.194 1.712-.582 2.403-.377.692-.879 1.22-1.508 1.587a3.764 3.764 0 01-1.948.55c-1.319 0-2.298-.43-2.937-1.288-.628-.859-.943-1.959-.943-3.299zm3.959 3.77c.806 0 1.43-.309 1.869-.927.44-.618.66-1.519.66-2.702 0-1.131-.204-2.058-.612-2.78-.409-.723-1.043-1.084-1.901-1.084-.807 0-1.435.309-1.885.926-.44.618-.66 1.519-.66 2.702 0 1.142.204 2.074.613 2.797.418.712 1.057 1.068 1.916 1.068zm5.368-.032l1.006-.125v-6.881l-1.21-.267v-.707l1.995-.251.346.251v.691l-.016.393c.387-.335.895-.644 1.524-.927.628-.282 1.199-.424 1.712-.424.566 0 1.016.094 1.351.283.346.188.607.482.785.88.325-.273.796-.534 1.414-.786.629-.251 1.205-.377 1.728-.377.66 0 1.168.126 1.524.377.367.252.623.639.77 1.163.146.523.22 1.23.22 2.12v4.462l1.194.125v.676h-3.519v-.676l1.068-.125v-4.414c0-.66-.047-1.184-.141-1.571-.095-.388-.278-.681-.55-.88-.272-.199-.67-.299-1.194-.299-.388 0-.796.089-1.225.267a5.02 5.02 0 00-1.084.582c.104.481.157 1.11.157 1.885v4.43l1.194.125v.676h-3.598v-.676l1.131-.125v-4.446c0-.67-.042-1.194-.125-1.571-.074-.377-.236-.66-.487-.848-.252-.189-.623-.283-1.116-.283-.408 0-.853.105-1.335.314a5.29 5.29 0 00-1.241.723v6.111l1.115.125v.676h-3.393v-.676zm20.119-11.2l-1.399-.142v-.581l2.325-.267H152l.298.204v3.739l-.031 1.304c.335-.304.806-.597 1.414-.88.607-.282 1.204-.424 1.791-.424.659 0 1.172.126 1.539.377.367.252.623.644.77 1.178.146.524.22 1.236.22 2.137v4.43l1.146.125v.676h-3.518v-.676l1.099-.125v-4.446c0-.67-.047-1.194-.141-1.571-.084-.377-.257-.66-.519-.848-.261-.189-.644-.283-1.146-.283-.419 0-.87.105-1.351.314-.482.199-.906.44-1.273.723v6.111l1.163.125v.676h-3.409v-.676l.99-.11v-11.09zm9.43 9.582c0-1.015.503-1.749 1.508-2.199 1.006-.461 2.257-.707 3.755-.738v-.487c0-.534-.058-.953-.173-1.257a1.11 1.11 0 00-.565-.675c-.273-.147-.655-.22-1.147-.22-.534 0-1.021.083-1.461.251a8.576 8.576 0 00-1.257.581l-.345-.691c.115-.105.356-.251.722-.44a7.87 7.87 0 011.257-.502 4.58 4.58 0 011.367-.22c.712 0 1.272.099 1.68.298.419.199.718.518.896.958.188.44.283 1.032.283 1.775v5.184h.974v.582c-.576.157-1.063.235-1.461.235-.252 0-.424-.042-.519-.125-.094-.074-.141-.252-.141-.534v-.582a7.681 7.681 0 01-1.241.896c-.44.251-.943.377-1.508.377-.754 0-1.383-.21-1.885-.629-.492-.419-.739-1.031-.739-1.838zm3.095 1.54c.293 0 .644-.094 1.053-.283.408-.188.78-.414 1.115-.675v-2.781c-1.267.011-2.231.199-2.891.566-.649.366-.973.858-.973 1.476 0 .597.151 1.032.455 1.304.304.262.717.393 1.241.393zm-1.445-9.645a.732.732 0 01-.581-.252c-.147-.167-.22-.382-.22-.644 0-.283.078-.524.235-.723.168-.209.398-.314.692-.314.251 0 .45.095.596.283a.916.916 0 01.236.628c0 .294-.084.54-.251.739-.168.188-.403.283-.707.283zm3.409 0a.717.717 0 01-.566-.252.984.984 0 01-.22-.644c0-.283.079-.524.236-.723.167-.209.398-.314.691-.314.251 0 .45.095.597.283a.92.92 0 01.236.628c0 .294-.084.54-.252.739-.167.188-.408.283-.722.283zm4.581 2.717l-1.209-.267v-.707l1.995-.251h.047l.298.251v.691l-.016.393c.388-.335.901-.644 1.54-.927.639-.282 1.231-.424 1.775-.424.67 0 1.184.131 1.54.393.366.251.617.644.754 1.178.146.524.22 1.231.22 2.121v4.445l1.178.11v.676h-3.503v-.676l1.052-.11v-4.461c0-.66-.047-1.178-.141-1.555-.084-.377-.257-.66-.519-.848-.251-.199-.623-.299-1.115-.299-.419 0-.874.105-1.367.314-.481.21-.9.456-1.256.739v6.095l1.146.125v.676h-3.471v-.676l1.052-.125v-6.881zm12.73 7.855a3.264 3.264 0 01-1.713-.472c-.523-.324-.942-.811-1.256-1.46-.315-.65-.472-1.446-.472-2.388 0-.901.184-1.713.55-2.435a4.22 4.22 0 011.555-1.728c.681-.43 1.472-.644 2.372-.644.576 0 1.131.063 1.665.188v-3.11l-1.633-.157v-.566l2.576-.267h.031l.299.22v11.939h.958v.613c-.052.01-.23.052-.534.125-.304.074-.628.11-.974.11-.241 0-.414-.042-.518-.125-.095-.084-.142-.267-.142-.55v-.55a4.119 4.119 0 01-1.194.895c-.46.241-.984.362-1.57.362zm.518-.99c.45 0 .874-.105 1.272-.314.409-.22.713-.461.911-.723v-5.781c-.083-.146-.303-.272-.659-.377a3.86 3.86 0 00-1.116-.157c-.9 0-1.623.325-2.167.974-.545.639-.817 1.613-.817 2.922 0 1.173.241 2.042.722 2.608.482.565 1.1.848 1.854.848zm9.554.99c-1.215 0-2.153-.414-2.812-1.241-.65-.838-.974-1.948-.974-3.331 0-.89.173-1.68.518-2.372.346-.691.822-1.225 1.43-1.602a3.826 3.826 0 012.073-.581c.932 0 1.655.267 2.168.801.524.534.807 1.304.848 2.309 0 .649-.031 1.11-.094 1.383h-5.592c0 1.099.246 2 .738 2.702.503.691 1.204 1.036 2.105 1.036.44 0 .89-.078 1.351-.235.461-.157.817-.346 1.068-.566l.252.581c-.304.315-.749.582-1.336.802a5.078 5.078 0 01-1.743.314zm1.838-5.373c.031-.22.047-.45.047-.691-.011-.691-.178-1.241-.503-1.649-.314-.409-.801-.613-1.461-.613-1.435 0-2.215.984-2.341 2.953h4.258zm3.99 5.373a.86.86 0 01-.612-.236.87.87 0 01-.252-.644 1.018 1.018 0 011.021-1.037c.283 0 .493.084.629.252.146.167.22.377.22.628 0 .293-.1.539-.299.738a.966.966 0 01-.707.299z" fill="#0F007A"/><g filter="url(#filter1_d)" fill-rule="evenodd" clip-rule="evenodd"><path d="M249.303 208.818c8.67 0 15.698-7.033 15.698-15.709 0-8.676-7.028-15.709-15.698-15.709-8.669 0-15.698 7.033-15.698 15.709 0 8.676 7.029 15.709 15.698 15.709z" fill="#651EFF"/><path d="M249.303 199.393a6.282 6.282 0 006.279-6.284 6.282 6.282 0 00-6.279-6.284 6.283 6.283 0 00-6.28 6.284 6.283 6.283 0 006.28 6.284z" fill="#fff"/></g><defs><filter id="filter0_d" x="2" y="89" width="243.82" height="68.836" filterUnits="userSpaceOnUse" color-interpolation-filters="sRGB"><feFlood flood-opacity="0" result="BackgroundImageFix"/><feColorMatrix in="SourceAlpha" values="0 0 0 0 0 0 0 0 0 0 0 0 0 0 0 0 0 0 127 0"/><feOffset dy="1"/><feGaussianBlur stdDeviation="1.5"/><feColorMatrix values="0 0 0 0 0 0 0 0 0 0 0 0 0 0 0 0 0 0 0.1 0"/><feBlend in2="BackgroundImageFix" result="effect1_dropShadow"/><feBlend in="SourceGraphic" in2="effect1_dropShadow" result="shape"/></filter><filter id="filter1_d" x="230.605" y="175.4" width="37.395" height="37.418" filterUnits="userSpaceOnUse" color-interpolation-filters="sRGB"><feFlood flood-opacity="0" result="BackgroundImageFix"/><feColorMatrix in="SourceAlpha" values="0 0 0 0 0 0 0 0 0 0 0 0 0 0 0 0 0 0 127 0"/><feOffset dy="1"/><feGaussianBlur stdDeviation="1.5"/><feColorMatrix values="0 0 0 0 0 0 0 0 0 0 0 0 0 0 0 0 0 0 0.1 0"/><feBlend in2="BackgroundImageFix" result="effect1_dropShadow"/><feBlend in="SourceGraphic" in2="effect1_dropShadow" result="shape"/></filter></defs></svg>