<svg width="270" height="258" viewBox="0 0 270 258" fill="none" xmlns="http://www.w3.org/2000/svg">
<path d="M0 12.8C0 8.31958 0 6.07937 0.871948 4.36808C1.63893 2.86278 2.86278 1.63893 4.36808 0.871948C6.07937 0 8.31958 0 12.8 0H257.2C261.68 0 263.921 0 265.632 0.871948C267.137 1.63893 268.361 2.86278 269.128 4.36808C270 6.07937 270 8.31958 270 12.8V245.2C270 249.68 270 251.921 269.128 253.632C268.361 255.137 267.137 256.361 265.632 257.128C263.921 258 261.68 258 257.2 258H12.8C8.31958 258 6.07937 258 4.36808 257.128C2.86278 256.361 1.63893 255.137 0.871948 253.632C0 251.921 0 249.68 0 245.2V12.8Z" fill="white"/>
<path fill-rule="evenodd" clip-rule="evenodd" d="M78.7375 208C100.964 208 133.509 155.431 148.429 106.025C163.35 56.6196 94.4551 37 64.5697 37C34.6844 37 24 73.5605 24 125.304C24 177.047 56.5106 208 78.7375 208Z" fill="#0F007A"/>
<path d="M132.268 191.368L131.162 191.757C131.104 191.372 130.915 191.024 130.597 190.714C130.278 190.396 129.839 190.237 129.277 190.237C128.783 190.237 128.372 190.379 128.046 190.664C127.719 190.949 127.555 191.301 127.555 191.72C127.555 192.046 127.652 192.323 127.845 192.549C128.046 192.775 128.33 192.93 128.699 193.014L130.031 193.303C130.769 193.462 131.338 193.764 131.74 194.208C132.143 194.644 132.344 195.176 132.344 195.804C132.344 196.524 132.059 197.144 131.489 197.664C130.919 198.183 130.178 198.443 129.265 198.443C128.268 198.443 127.484 198.183 126.915 197.664C126.353 197.136 126.026 196.512 125.934 195.791L127.116 195.414C127.166 195.951 127.375 196.403 127.744 196.772C128.113 197.14 128.615 197.325 129.252 197.325C129.839 197.325 130.291 197.19 130.609 196.922C130.928 196.654 131.087 196.315 131.087 195.904C131.087 195.569 130.974 195.28 130.748 195.037C130.521 194.786 130.19 194.614 129.755 194.522L128.485 194.246C127.824 194.103 127.296 193.822 126.902 193.404C126.508 192.985 126.311 192.453 126.311 191.808C126.311 191.104 126.596 190.488 127.166 189.96C127.744 189.424 128.439 189.156 129.252 189.156C130.165 189.156 130.865 189.378 131.351 189.822C131.837 190.266 132.143 190.781 132.268 191.368ZM135.372 190.299V192.21H136.679V193.278H135.372V196.42C135.372 196.705 135.435 196.914 135.561 197.048C135.695 197.182 135.913 197.249 136.214 197.249C136.39 197.249 136.545 197.232 136.679 197.199V198.204C136.478 198.28 136.21 198.317 135.875 198.317C135.356 198.317 134.945 198.167 134.644 197.865C134.342 197.563 134.191 197.14 134.191 196.596V193.278H133.035V192.21H133.362C133.672 192.21 133.902 192.126 134.053 191.958C134.212 191.782 134.292 191.556 134.292 191.28V190.299H135.372ZM137.879 196.633C137.879 196.114 138.047 195.699 138.382 195.389C138.717 195.071 139.161 194.874 139.714 194.799L141.348 194.56C141.658 194.518 141.813 194.367 141.813 194.107C141.813 193.789 141.704 193.529 141.486 193.328C141.268 193.127 140.941 193.027 140.506 193.027C140.104 193.027 139.785 193.14 139.551 193.366C139.316 193.584 139.178 193.877 139.136 194.246L138.005 193.982C138.064 193.404 138.327 192.934 138.797 192.574C139.266 192.205 139.827 192.021 140.481 192.021C141.335 192.021 141.968 192.231 142.378 192.65C142.789 193.06 142.994 193.588 142.994 194.233V197.262C142.994 197.622 143.019 197.953 143.069 198.255H141.913C141.871 198.003 141.85 197.731 141.85 197.438C141.683 197.706 141.436 197.94 141.109 198.141C140.791 198.342 140.388 198.443 139.903 198.443C139.308 198.443 138.822 198.267 138.445 197.915C138.068 197.555 137.879 197.128 137.879 196.633ZM140.066 197.45C140.594 197.45 141.017 197.308 141.335 197.023C141.654 196.738 141.813 196.286 141.813 195.666V195.389L139.965 195.666C139.697 195.708 139.484 195.804 139.324 195.955C139.165 196.106 139.086 196.311 139.086 196.571C139.086 196.805 139.174 197.01 139.35 197.186C139.534 197.362 139.773 197.45 140.066 197.45ZM148.19 192.147V193.404C148.014 193.378 147.842 193.366 147.675 193.366C146.569 193.366 146.016 193.986 146.016 195.226V198.255H144.834V192.21H145.991V193.265C146.359 192.495 146.962 192.109 147.8 192.109C147.934 192.109 148.064 192.122 148.19 192.147ZM151.352 190.299V192.21H152.659V193.278H151.352V196.42C151.352 196.705 151.414 196.914 151.54 197.048C151.674 197.182 151.892 197.249 152.194 197.249C152.369 197.249 152.524 197.232 152.659 197.199V198.204C152.457 198.28 152.189 198.317 151.854 198.317C151.335 198.317 150.924 198.167 150.623 197.865C150.321 197.563 150.17 197.14 150.17 196.596V193.278H149.014V192.21H149.341C149.651 192.21 149.881 192.126 150.032 191.958C150.191 191.782 150.271 191.556 150.271 191.28V190.299H151.352ZM153.858 196.633C153.858 196.114 154.026 195.699 154.361 195.389C154.696 195.071 155.14 194.874 155.693 194.799L157.327 194.56C157.637 194.518 157.792 194.367 157.792 194.107C157.792 193.789 157.683 193.529 157.465 193.328C157.247 193.127 156.921 193.027 156.485 193.027C156.083 193.027 155.764 193.14 155.53 193.366C155.295 193.584 155.157 193.877 155.115 194.246L153.984 193.982C154.043 193.404 154.307 192.934 154.776 192.574C155.245 192.205 155.806 192.021 156.46 192.021C157.314 192.021 157.947 192.231 158.357 192.65C158.768 193.06 158.973 193.588 158.973 194.233V197.262C158.973 197.622 158.998 197.953 159.049 198.255H157.892C157.85 198.003 157.83 197.731 157.83 197.438C157.662 197.706 157.415 197.94 157.088 198.141C156.77 198.342 156.368 198.443 155.882 198.443C155.287 198.443 154.801 198.267 154.424 197.915C154.047 197.555 153.858 197.128 153.858 196.633ZM156.045 197.45C156.573 197.45 156.996 197.308 157.314 197.023C157.633 196.738 157.792 196.286 157.792 195.666V195.389L155.944 195.666C155.676 195.708 155.463 195.804 155.304 195.955C155.144 196.106 155.065 196.311 155.065 196.571C155.065 196.805 155.153 197.01 155.329 197.186C155.513 197.362 155.752 197.45 156.045 197.45ZM165.124 198.255H163.955V192.21H165.124V198.255ZM163.93 190.526C163.771 190.358 163.691 190.157 163.691 189.922C163.691 189.688 163.771 189.487 163.93 189.319C164.098 189.152 164.299 189.068 164.533 189.068C164.768 189.068 164.969 189.152 165.137 189.319C165.304 189.478 165.388 189.679 165.388 189.922C165.388 190.157 165.304 190.358 165.137 190.526C164.969 190.685 164.768 190.764 164.533 190.764C164.299 190.764 164.098 190.685 163.93 190.526ZM168.315 194.761V198.255H167.134V192.21H168.29V193.077C168.692 192.381 169.312 192.034 170.15 192.034C170.845 192.034 171.377 192.256 171.746 192.7C172.123 193.144 172.312 193.718 172.312 194.421V198.255H171.13V194.623C171.13 193.609 170.661 193.102 169.723 193.102C169.279 193.102 168.931 193.261 168.68 193.579C168.437 193.889 168.315 194.283 168.315 194.761ZM173.625 196.684L174.693 196.307C174.735 196.633 174.878 196.906 175.121 197.123C175.364 197.333 175.69 197.438 176.101 197.438C176.419 197.438 176.671 197.362 176.855 197.211C177.039 197.052 177.132 196.86 177.132 196.633C177.132 196.231 176.872 195.971 176.352 195.854L175.322 195.628C174.853 195.527 174.484 195.326 174.216 195.025C173.948 194.723 173.814 194.359 173.814 193.931C173.814 193.412 174.023 192.964 174.442 192.587C174.869 192.21 175.376 192.021 175.963 192.021C176.348 192.021 176.692 192.08 176.993 192.197C177.295 192.306 177.529 192.453 177.697 192.637C177.865 192.821 177.99 192.993 178.074 193.152C178.158 193.311 178.221 193.475 178.263 193.642L177.219 194.032C177.203 193.931 177.173 193.835 177.132 193.743C177.09 193.642 177.023 193.533 176.93 193.416C176.847 193.299 176.721 193.207 176.553 193.14C176.386 193.064 176.189 193.027 175.963 193.027C175.67 193.027 175.427 193.106 175.234 193.265C175.05 193.424 174.957 193.613 174.957 193.831C174.957 194.216 175.188 194.459 175.649 194.56L176.629 194.773C177.165 194.891 177.576 195.109 177.86 195.427C178.154 195.737 178.3 196.118 178.3 196.571C178.3 197.048 178.103 197.48 177.71 197.865C177.324 198.25 176.784 198.443 176.088 198.443C175.343 198.443 174.76 198.259 174.342 197.89C173.923 197.513 173.684 197.111 173.625 196.684ZM181.042 200.642H179.873V192.21H181.017V193.152C181.193 192.834 181.457 192.574 181.808 192.373C182.16 192.172 182.571 192.071 183.04 192.071C183.911 192.071 184.59 192.369 185.076 192.964C185.57 193.559 185.817 194.313 185.817 195.226C185.817 196.147 185.562 196.91 185.051 197.513C184.548 198.116 183.865 198.418 183.002 198.418C182.558 198.418 182.164 198.326 181.821 198.141C181.477 197.957 181.218 197.723 181.042 197.438V200.642ZM184.611 195.226C184.611 194.614 184.448 194.112 184.121 193.718C183.802 193.316 183.371 193.115 182.826 193.115C182.29 193.115 181.854 193.316 181.519 193.718C181.193 194.112 181.029 194.614 181.029 195.226C181.029 195.854 181.193 196.369 181.519 196.772C181.854 197.165 182.29 197.362 182.826 197.362C183.363 197.362 183.794 197.165 184.121 196.772C184.448 196.369 184.611 195.854 184.611 195.226ZM188.089 194.61H191.394C191.378 194.158 191.227 193.789 190.942 193.504C190.657 193.211 190.255 193.064 189.735 193.064C189.266 193.064 188.881 193.219 188.579 193.529C188.278 193.831 188.114 194.191 188.089 194.61ZM191.57 196.181L192.588 196.533C192.412 197.094 192.086 197.555 191.608 197.915C191.13 198.267 190.552 198.443 189.874 198.443C189.028 198.443 188.307 198.154 187.712 197.576C187.126 196.989 186.832 196.202 186.832 195.213C186.832 194.292 187.117 193.529 187.687 192.926C188.257 192.323 188.935 192.021 189.723 192.021C190.636 192.021 191.348 192.31 191.859 192.888C192.37 193.458 192.626 194.225 192.626 195.188C192.626 195.339 192.618 195.465 192.601 195.565H188.051C188.06 196.101 188.236 196.541 188.579 196.885C188.931 197.228 189.363 197.4 189.874 197.4C190.737 197.4 191.302 196.994 191.57 196.181ZM195.315 198.255H194.134V189.156H195.315V198.255ZM198.506 194.761V198.255H197.325V192.21H198.481V193.077C198.883 192.381 199.503 192.034 200.341 192.034C201.036 192.034 201.568 192.256 201.937 192.7C202.314 193.144 202.503 193.718 202.503 194.421V198.255H201.321V194.623C201.321 193.609 200.852 193.102 199.914 193.102C199.47 193.102 199.122 193.261 198.871 193.579C198.628 193.889 198.506 194.283 198.506 194.761ZM205.55 198.255H204.382V192.21H205.55V198.255ZM204.357 190.526C204.197 190.358 204.118 190.157 204.118 189.922C204.118 189.688 204.197 189.487 204.357 189.319C204.524 189.152 204.725 189.068 204.96 189.068C205.194 189.068 205.395 189.152 205.563 189.319C205.731 189.478 205.814 189.679 205.814 189.922C205.814 190.157 205.731 190.358 205.563 190.526C205.395 190.685 205.194 190.764 204.96 190.764C204.725 190.764 204.524 190.685 204.357 190.526ZM208.742 194.761V198.255H207.56V192.21H208.716V193.077C209.119 192.381 209.739 192.034 210.576 192.034C211.272 192.034 211.804 192.256 212.172 192.7C212.55 193.144 212.738 193.718 212.738 194.421V198.255H211.557V194.623C211.557 193.609 211.088 193.102 210.149 193.102C209.705 193.102 209.357 193.261 209.106 193.579C208.863 193.889 208.742 194.283 208.742 194.761ZM214.177 198.581L215.321 198.317C215.363 198.745 215.535 199.097 215.836 199.373C216.138 199.658 216.515 199.8 216.967 199.8C218.199 199.8 218.815 199.147 218.815 197.84V196.973C218.664 197.266 218.425 197.505 218.098 197.689C217.78 197.873 217.403 197.965 216.967 197.965C216.163 197.965 215.497 197.693 214.969 197.149C214.45 196.596 214.19 195.892 214.19 195.037C214.19 194.208 214.45 193.512 214.969 192.951C215.488 192.381 216.155 192.097 216.967 192.097C217.889 192.097 218.509 192.415 218.827 193.052V192.21H219.996V197.802C219.996 198.204 219.941 198.577 219.833 198.921C219.732 199.272 219.569 199.595 219.342 199.888C219.116 200.181 218.798 200.412 218.387 200.579C217.985 200.747 217.512 200.831 216.967 200.831C216.222 200.831 215.589 200.617 215.07 200.19C214.55 199.771 214.253 199.235 214.177 198.581ZM217.143 196.973C217.654 196.973 218.069 196.797 218.387 196.445C218.706 196.085 218.865 195.615 218.865 195.037C218.865 194.459 218.706 193.994 218.387 193.642C218.069 193.282 217.654 193.102 217.143 193.102C216.624 193.102 216.201 193.278 215.874 193.63C215.555 193.982 215.396 194.451 215.396 195.037C215.396 195.632 215.551 196.106 215.861 196.457C216.18 196.801 216.607 196.973 217.143 196.973Z" fill="white"/>
<g filter="url(#filter0_d)">
<path fill-rule="evenodd" clip-rule="evenodd" d="M5 97.2836C5 93.8133 7.81328 91 11.2836 91H236.536C240.007 91 242.82 93.8133 242.82 97.2836V147.553C242.82 151.023 240.006 153.836 236.536 153.836H11.2836C7.81327 153.836 5 151.023 5 147.553V97.2836Z" fill="#F9FAFC"/>
</g>
<path d="M20.4811 116.384C19.947 116.384 19.4757 116.337 19.0673 116.242C18.6588 116.148 18.1876 116.017 17.6534 115.85C17.2974 115.734 17.0827 115.672 17.0094 115.661L17.135 112.865H17.9519L18.1876 114.923C18.3865 115.111 18.7007 115.274 19.1301 115.41C19.57 115.546 20.0465 115.614 20.5596 115.614C21.4079 115.614 22.0572 115.42 22.5076 115.033C22.9579 114.645 23.183 114.111 23.183 113.43C23.183 112.991 23.0626 112.619 22.8217 112.315C22.5913 112.011 22.2876 111.755 21.9106 111.545C21.5441 111.336 21.0309 111.09 20.3711 110.807C19.7532 110.545 19.2244 110.283 18.7845 110.022C18.3551 109.76 17.9781 109.409 17.6534 108.969C17.3288 108.519 17.1665 107.985 17.1665 107.367C17.1665 106.791 17.3236 106.278 17.6377 105.827C17.9519 105.377 18.3865 105.031 18.9416 104.79C19.5071 104.539 20.1512 104.413 20.8738 104.413C21.3137 104.413 21.7012 104.45 22.0363 104.523C22.3819 104.586 22.8165 104.691 23.3401 104.838C23.6229 104.921 23.7905 104.968 23.8428 104.979L23.7486 107.555H22.9631L22.6804 105.607C22.5547 105.503 22.3086 105.403 21.942 105.309C21.586 105.204 21.2037 105.152 20.7953 105.152C20.0203 105.152 19.4286 105.314 19.0201 105.639C18.6117 105.953 18.4075 106.424 18.4075 107.053C18.4075 107.482 18.5174 107.843 18.7374 108.136C18.9573 108.419 19.2401 108.66 19.5857 108.859C19.9313 109.058 20.4654 109.325 21.188 109.66C21.942 110.016 22.5285 110.325 22.9474 110.587C23.3768 110.838 23.7486 111.174 24.0628 111.592C24.3874 112.001 24.5497 112.498 24.5497 113.085C24.5497 113.64 24.3874 114.174 24.0628 114.687C23.7381 115.19 23.2668 115.598 22.6489 115.912C22.031 116.227 21.3084 116.384 20.4811 116.384ZM34.3034 111.53C34.3034 112.43 34.1201 113.252 33.7535 113.996C33.387 114.729 32.8634 115.31 32.1826 115.74C31.5124 116.169 30.7426 116.384 29.8734 116.384C29.5802 116.384 29.2712 116.358 28.9466 116.305C28.6219 116.263 28.3549 116.206 28.1454 116.132L28.1768 117.468V119.164L29.9205 119.321V120.013H25.7105V119.321L26.9201 119.164V108.529L25.6948 108.262V107.555L27.7055 107.304H27.737L28.0197 107.555V108.513C28.3549 108.168 28.7633 107.875 29.245 107.634C29.7268 107.382 30.2661 107.257 30.8631 107.257C31.4705 107.257 32.036 107.409 32.5597 107.712C33.0833 108.016 33.5022 108.487 33.8164 109.126C34.141 109.765 34.3034 110.566 34.3034 111.53ZM30.3447 108.215C29.8943 108.215 29.4754 108.309 29.0879 108.498C28.7005 108.686 28.3967 108.896 28.1768 109.126V115.111C28.2606 115.247 28.4701 115.373 28.8052 115.488C29.1508 115.593 29.5278 115.645 29.9362 115.645C30.8369 115.645 31.5595 115.316 32.1041 114.656C32.6591 113.985 32.9367 113.001 32.9367 111.702C32.9367 110.54 32.6906 109.671 32.1983 109.095C31.7166 108.508 31.0987 108.215 30.3447 108.215ZM39.5506 116.384C38.3357 116.384 37.3984 115.97 36.7386 115.143C36.0893 114.305 35.7647 113.195 35.7647 111.812C35.7647 110.922 35.9375 110.132 36.2831 109.44C36.6287 108.749 37.1052 108.215 37.7126 107.838C38.3305 107.451 39.0217 107.257 39.7862 107.257C40.7183 107.257 41.4409 107.524 41.9541 108.058C42.4777 108.592 42.7605 109.362 42.8024 110.367C42.8024 111.016 42.7709 111.477 42.7081 111.75H37.1157C37.1157 112.849 37.3618 113.75 37.854 114.452C38.3567 115.143 39.0584 115.488 39.959 115.488C40.3989 115.488 40.8492 115.41 41.31 115.253C41.7708 115.096 42.1269 114.907 42.3782 114.687L42.6296 115.268C42.3258 115.583 41.8808 115.85 41.2943 116.07C40.7183 116.279 40.137 116.384 39.5506 116.384ZM41.3885 111.011C41.42 110.791 41.4357 110.561 41.4357 110.32C41.4252 109.629 41.2576 109.079 40.933 108.671C40.6188 108.262 40.1318 108.058 39.472 108.058C38.0373 108.058 37.257 109.042 37.1314 111.011H41.3885ZM45.5049 104.335L44.1697 104.193V103.612L46.4632 103.345H46.4789L46.7774 103.549V115.425L48.254 115.535V116.211H44.1225V115.535L45.5049 115.41V104.335ZM49.4809 113.917C49.4809 112.902 49.9836 112.168 50.989 111.718C51.9944 111.257 53.2459 111.011 54.7435 110.98V110.493C54.7435 109.959 54.6859 109.54 54.5707 109.236C54.4659 108.922 54.2774 108.697 54.0051 108.561C53.7329 108.414 53.3506 108.341 52.8584 108.341C52.3243 108.341 51.8373 108.424 51.3974 108.592C50.9681 108.749 50.5491 108.943 50.1407 109.173L49.7951 108.482C49.9103 108.377 50.1512 108.231 50.5177 108.042C50.8843 107.854 51.3032 107.686 51.7745 107.54C52.2457 107.393 52.7013 107.32 53.1411 107.32C53.8533 107.32 54.4136 107.419 54.822 107.618C55.2409 107.817 55.5394 108.136 55.7174 108.576C55.9059 109.016 56.0002 109.608 56.0002 110.351V115.535H56.9742V116.117C56.3982 116.274 55.9112 116.352 55.5132 116.352C55.2619 116.352 55.0891 116.31 54.9948 116.227C54.9006 116.153 54.8534 115.975 54.8534 115.693V115.111C54.4764 115.446 54.0627 115.745 53.6124 116.007C53.1726 116.258 52.6699 116.384 52.1043 116.384C51.3503 116.384 50.7219 116.174 50.2193 115.755C49.727 115.336 49.4809 114.724 49.4809 113.917ZM52.5756 115.457C52.8689 115.457 53.2197 115.363 53.6281 115.174C54.0366 114.986 54.4083 114.76 54.7435 114.499V111.718C53.4763 111.729 52.5128 111.917 51.853 112.284C51.2037 112.65 50.879 113.142 50.879 113.76C50.879 114.357 51.0309 114.792 51.3346 115.064C51.6383 115.326 52.052 115.457 52.5756 115.457ZM63.6968 105.843C63.1313 105.843 62.8485 105.544 62.8485 104.948C62.8485 104.644 62.9375 104.398 63.1156 104.209C63.2936 104.01 63.5345 103.911 63.8382 103.911C64.1524 103.911 64.3775 104 64.5137 104.178C64.6498 104.345 64.7179 104.555 64.7179 104.806C64.7179 105.131 64.6289 105.387 64.4508 105.576C64.2833 105.754 64.0372 105.843 63.7125 105.843H63.6968ZM63.1941 108.529L61.9688 108.262V107.555L64.1209 107.304H64.1524L64.4665 107.555V115.425L65.8332 115.535V116.211H61.8117V115.535L63.1941 115.41V108.529ZM67.9417 108.529L66.7321 108.262V107.555L68.7271 107.304H68.7743L69.0727 107.555V108.246L69.057 108.639C69.4445 108.304 69.9577 107.995 70.5965 107.712C71.2354 107.43 71.8271 107.288 72.3716 107.288C73.0419 107.288 73.5551 107.419 73.9111 107.681C74.2777 107.932 74.529 108.325 74.6652 108.859C74.8118 109.383 74.8851 110.09 74.8851 110.98V115.425L76.0633 115.535V116.211H72.5602V115.535L73.6127 115.425V110.964C73.6127 110.304 73.5655 109.786 73.4713 109.409C73.3875 109.032 73.2147 108.749 72.9529 108.561C72.7015 108.362 72.3298 108.262 71.8375 108.262C71.4186 108.262 70.9631 108.367 70.4708 108.576C69.9891 108.786 69.5702 109.032 69.2141 109.315V115.41L70.3609 115.535V116.211H66.8892V115.535L67.9417 115.41V108.529ZM84.7602 116.384C83.5454 116.384 82.6081 115.97 81.9483 115.143C81.299 114.305 80.9743 113.195 80.9743 111.812C80.9743 110.922 81.1471 110.132 81.4927 109.44C81.8383 108.749 82.3148 108.215 82.9223 107.838C83.5402 107.451 84.2314 107.257 84.9959 107.257C85.9279 107.257 86.6506 107.524 87.1637 108.058C87.6874 108.592 87.9701 109.362 88.012 110.367C88.012 111.016 87.9806 111.477 87.9178 111.75H82.3253C82.3253 112.849 82.5714 113.75 83.0636 114.452C83.5663 115.143 84.268 115.488 85.1687 115.488C85.6085 115.488 86.0588 115.41 86.5196 115.253C86.9804 115.096 87.3365 114.907 87.5879 114.687L87.8392 115.268C87.5355 115.583 87.0904 115.85 86.5039 116.07C85.9279 116.279 85.3467 116.384 84.7602 116.384ZM86.5982 111.011C86.6296 110.791 86.6453 110.561 86.6453 110.32C86.6348 109.629 86.4673 109.079 86.1426 108.671C85.8284 108.262 85.3415 108.058 84.6817 108.058C83.2469 108.058 82.4667 109.042 82.341 111.011H86.5982ZM92.1441 116.384C91.5891 116.384 91.1701 116.258 90.8874 116.007C90.6046 115.745 90.4632 115.284 90.4632 114.624V108.419H89.2693V107.807C89.793 107.691 90.0967 107.608 90.1805 107.555C90.3376 107.471 90.4528 107.309 90.5261 107.068C90.5889 106.911 90.6727 106.628 90.7774 106.22C90.8821 105.812 90.9607 105.492 91.0131 105.262H91.7357V107.492H94.5162V108.419H91.7357V113.509C91.7357 114.116 91.7566 114.546 91.7985 114.797C91.8404 115.038 91.9242 115.195 92.0499 115.268C92.1755 115.342 92.3955 115.378 92.7096 115.378C93.0133 115.378 93.3537 115.336 93.7307 115.253C94.1077 115.169 94.3905 115.08 94.579 114.986L94.7832 115.583C94.5424 115.771 94.1444 115.954 93.5893 116.132C93.0343 116.3 92.5525 116.384 92.1441 116.384ZM98.5259 116.384C97.9709 116.384 97.552 116.258 97.2692 116.007C96.9864 115.745 96.8451 115.284 96.8451 114.624V108.419H95.6512V107.807C96.1748 107.691 96.4785 107.608 96.5623 107.555C96.7194 107.471 96.8346 107.309 96.9079 107.068C96.9707 106.911 97.0545 106.628 97.1592 106.22C97.264 105.812 97.3425 105.492 97.3949 105.262H98.1175V107.492H100.898V108.419H98.1175V113.509C98.1175 114.116 98.1384 114.546 98.1803 114.797C98.2222 115.038 98.306 115.195 98.4317 115.268C98.5573 115.342 98.7773 115.378 99.0915 115.378C99.3952 115.378 99.7355 115.336 100.113 115.253C100.49 115.169 100.772 115.08 100.961 114.986L101.165 115.583C100.924 115.771 100.526 115.954 99.9712 116.132C99.4161 116.3 98.9344 116.384 98.5259 116.384ZM107.206 104.335L105.871 104.193V103.612L108.164 103.345H108.18L108.478 103.549V115.425L109.955 115.535V116.211H105.824V115.535L107.206 115.41V104.335ZM112.894 105.843C112.329 105.843 112.046 105.544 112.046 104.948C112.046 104.644 112.135 104.398 112.313 104.209C112.491 104.01 112.732 103.911 113.036 103.911C113.35 103.911 113.575 104 113.711 104.178C113.847 104.345 113.915 104.555 113.915 104.806C113.915 105.131 113.826 105.387 113.648 105.576C113.481 105.754 113.235 105.843 112.91 105.843H112.894ZM111.072 107.555L113.256 107.304H113.287L113.586 107.555V116.117C113.586 118.578 112.784 119.882 111.182 120.028C111.056 120.039 110.884 120.039 110.664 120.028C110.454 120.018 110.329 119.997 110.287 119.965L110.224 119.321C110.308 119.332 110.433 119.321 110.601 119.29C110.768 119.269 110.941 119.227 111.119 119.164C111.57 119.028 111.884 118.672 112.062 118.096C112.24 117.52 112.329 116.761 112.329 115.818L112.313 108.592L111.072 108.309V107.555ZM123.115 116.352C122.843 116.352 122.644 116.305 122.518 116.211C122.392 116.117 122.329 115.944 122.329 115.693V115.08C121.942 115.425 121.486 115.729 120.963 115.991C120.439 116.253 119.916 116.384 119.392 116.384C118.439 116.384 117.758 116.117 117.35 115.583C116.952 115.048 116.753 114.179 116.753 112.975V108.356L115.826 108.089V107.508L117.727 107.304H117.742L118.025 107.492V112.786C118.025 113.446 118.072 113.965 118.167 114.342C118.261 114.708 118.434 114.98 118.685 115.158C118.936 115.336 119.303 115.425 119.785 115.425C120.245 115.425 120.685 115.326 121.104 115.127C121.523 114.928 121.884 114.692 122.188 114.42V108.356L120.994 108.089V107.508L123.084 107.304H123.099L123.461 107.492V115.52H124.435L124.419 116.117C124.366 116.127 124.215 116.169 123.963 116.242C123.712 116.316 123.429 116.352 123.115 116.352ZM129.24 116.384C128.623 116.384 128.052 116.227 127.528 115.912C127.004 115.588 126.586 115.101 126.271 114.452C125.957 113.802 125.8 113.006 125.8 112.064C125.8 111.163 125.983 110.351 126.35 109.629C126.716 108.896 127.235 108.32 127.905 107.901C128.586 107.471 129.377 107.257 130.277 107.257C130.853 107.257 131.408 107.32 131.942 107.445V104.335L130.309 104.178V103.612L132.885 103.345H132.916L133.215 103.565V115.504H134.173V116.117C134.121 116.127 133.943 116.169 133.639 116.242C133.335 116.316 133.011 116.352 132.665 116.352C132.424 116.352 132.251 116.31 132.147 116.227C132.052 116.143 132.005 115.96 132.005 115.677V115.127C131.681 115.483 131.283 115.782 130.811 116.022C130.351 116.263 129.827 116.384 129.24 116.384ZM129.759 115.394C130.209 115.394 130.633 115.289 131.031 115.08C131.44 114.86 131.743 114.619 131.942 114.357V108.576C131.859 108.43 131.639 108.304 131.283 108.199C130.937 108.095 130.565 108.042 130.167 108.042C129.267 108.042 128.544 108.367 127.999 109.016C127.455 109.655 127.183 110.629 127.183 111.938C127.183 113.111 127.423 113.98 127.905 114.546C128.387 115.111 129.005 115.394 129.759 115.394ZM136.391 104.335L135.102 104.193V103.612L137.349 103.345H137.365L137.663 103.549V111.357L137.632 112.347L141.527 108.341L140.349 108.121V107.492H143.962V108.121L142.753 108.341L140.208 110.838L143.334 115.425L144.371 115.535V116.211H140.773V115.535L141.857 115.41L139.391 111.545L137.632 113.273L137.663 114.075V115.41L138.873 115.535V116.211H135.354V115.535L136.391 115.41V104.335ZM145.911 104.335L144.576 104.193V103.612L146.869 103.345H146.885L147.184 103.549V115.425L148.66 115.535V116.211H144.529V115.535L145.911 115.41V104.335ZM151.631 105.843C151.065 105.843 150.783 105.544 150.783 104.948C150.783 104.644 150.872 104.398 151.05 104.209C151.228 104.01 151.469 103.911 151.772 103.911C152.086 103.911 152.312 104 152.448 104.178C152.584 104.345 152.652 104.555 152.652 104.806C152.652 105.131 152.563 105.387 152.385 105.576C152.217 105.754 151.971 105.843 151.647 105.843H151.631ZM151.128 108.529L149.903 108.262V107.555L152.055 107.304H152.086L152.401 107.555V115.425L153.767 115.535V116.211H149.746V115.535L151.128 115.41V108.529ZM163.259 111.53C163.259 112.43 163.076 113.252 162.709 113.996C162.343 114.729 161.819 115.31 161.138 115.74C160.468 116.169 159.698 116.384 158.829 116.384C158.536 116.384 158.227 116.358 157.902 116.305C157.578 116.263 157.311 116.206 157.101 116.132L157.133 117.468V119.164L158.876 119.321V120.013H154.666V119.321L155.876 119.164V108.529L154.65 108.262V107.555L156.661 107.304H156.693L156.975 107.555V108.513C157.311 108.168 157.719 107.875 158.201 107.634C158.682 107.382 159.222 107.257 159.819 107.257C160.426 107.257 160.992 107.409 161.515 107.712C162.039 108.016 162.458 108.487 162.772 109.126C163.097 109.765 163.259 110.566 163.259 111.53ZM159.3 108.215C158.85 108.215 158.431 108.309 158.044 108.498C157.656 108.686 157.352 108.896 157.133 109.126V115.111C157.216 115.247 157.426 115.373 157.761 115.488C158.106 115.593 158.483 115.645 158.892 115.645C159.793 115.645 160.515 115.316 161.06 114.656C161.615 113.985 161.892 113.001 161.892 111.702C161.892 110.54 161.646 109.671 161.154 109.095C160.672 108.508 160.054 108.215 159.3 108.215ZM173.062 111.53C173.062 112.43 172.879 113.252 172.512 113.996C172.146 114.729 171.622 115.31 170.941 115.74C170.271 116.169 169.501 116.384 168.632 116.384C168.339 116.384 168.03 116.358 167.705 116.305C167.38 116.263 167.113 116.206 166.904 116.132L166.935 117.468V119.164L168.679 119.321V120.013H164.469V119.321L165.679 119.164V108.529L164.453 108.262V107.555L166.464 107.304H166.495L166.778 107.555V108.513C167.113 108.168 167.522 107.875 168.004 107.634C168.485 107.382 169.025 107.257 169.622 107.257C170.229 107.257 170.795 107.409 171.318 107.712C171.842 108.016 172.261 108.487 172.575 109.126C172.9 109.765 173.062 110.566 173.062 111.53ZM169.103 108.215C168.653 108.215 168.234 108.309 167.846 108.498C167.459 108.686 167.155 108.896 166.935 109.126V115.111C167.019 115.247 167.229 115.373 167.564 115.488C167.909 115.593 168.286 115.645 168.695 115.645C169.595 115.645 170.318 115.316 170.863 114.656C171.418 113.985 171.695 113.001 171.695 111.702C171.695 110.54 171.449 109.671 170.957 109.095C170.475 108.508 169.857 108.215 169.103 108.215ZM181.676 116.384C181.058 116.384 180.487 116.227 179.963 115.912C179.44 115.588 179.021 115.101 178.707 114.452C178.392 113.802 178.235 113.006 178.235 112.064C178.235 111.163 178.419 110.351 178.785 109.629C179.152 108.896 179.67 108.32 180.34 107.901C181.021 107.471 181.812 107.257 182.712 107.257C183.288 107.257 183.843 107.32 184.378 107.445V104.335L182.744 104.178V103.612L185.32 103.345H185.352L185.65 103.565V115.504H186.608V116.117C186.556 116.127 186.378 116.169 186.074 116.242C185.77 116.316 185.446 116.352 185.1 116.352C184.859 116.352 184.687 116.31 184.582 116.227C184.488 116.143 184.44 115.96 184.44 115.677V115.127C184.116 115.483 183.718 115.782 183.247 116.022C182.786 116.263 182.262 116.384 181.676 116.384ZM182.194 115.394C182.644 115.394 183.068 115.289 183.466 115.08C183.875 114.86 184.179 114.619 184.378 114.357V108.576C184.294 108.43 184.074 108.304 183.718 108.199C183.372 108.095 183 108.042 182.602 108.042C181.702 108.042 180.979 108.367 180.435 109.016C179.89 109.655 179.618 110.629 179.618 111.938C179.618 113.111 179.859 113.98 180.34 114.546C180.822 115.111 181.44 115.394 182.194 115.394ZM188.025 113.917C188.025 112.902 188.527 112.168 189.533 111.718C190.538 111.257 191.79 111.011 193.287 110.98V110.493C193.287 109.959 193.23 109.54 193.114 109.236C193.01 108.922 192.821 108.697 192.549 108.561C192.277 108.414 191.894 108.341 191.402 108.341C190.868 108.341 190.381 108.424 189.941 108.592C189.512 108.749 189.093 108.943 188.684 109.173L188.339 108.482C188.454 108.377 188.695 108.231 189.061 108.042C189.428 107.854 189.847 107.686 190.318 107.54C190.789 107.393 191.245 107.32 191.685 107.32C192.397 107.32 192.957 107.419 193.366 107.618C193.785 107.817 194.083 108.136 194.261 108.576C194.45 109.016 194.544 109.608 194.544 110.351V115.535H195.518V116.117C194.942 116.274 194.455 116.352 194.057 116.352C193.806 116.352 193.633 116.31 193.539 116.227C193.444 116.153 193.397 115.975 193.397 115.693V115.111C193.02 115.446 192.606 115.745 192.156 116.007C191.716 116.258 191.214 116.384 190.648 116.384C189.894 116.384 189.266 116.174 188.763 115.755C188.271 115.336 188.025 114.724 188.025 113.917ZM191.119 115.457C191.413 115.457 191.763 115.363 192.172 115.174C192.58 114.986 192.952 114.76 193.287 114.499V111.718C192.02 111.729 191.057 111.917 190.397 112.284C189.747 112.65 189.423 113.142 189.423 113.76C189.423 114.357 189.575 114.792 189.878 115.064C190.182 115.326 190.596 115.457 191.119 115.457ZM189.674 105.812C189.433 105.812 189.24 105.728 189.093 105.56C188.946 105.393 188.873 105.178 188.873 104.916C188.873 104.633 188.952 104.392 189.109 104.193C189.276 103.984 189.507 103.879 189.8 103.879C190.051 103.879 190.25 103.974 190.397 104.162C190.554 104.34 190.632 104.55 190.632 104.79C190.632 105.084 190.549 105.33 190.381 105.529C190.213 105.717 189.978 105.812 189.674 105.812ZM193.083 105.812C192.853 105.812 192.664 105.728 192.517 105.56C192.371 105.382 192.298 105.167 192.298 104.916C192.298 104.633 192.376 104.392 192.533 104.193C192.701 103.984 192.931 103.879 193.224 103.879C193.476 103.879 193.675 103.974 193.821 104.162C193.978 104.34 194.057 104.55 194.057 104.79C194.057 105.084 193.973 105.33 193.806 105.529C193.638 105.717 193.397 105.812 193.083 105.812ZM196.738 115.551L197.994 115.457V108.529L196.785 108.262V107.555L198.78 107.304H198.811L199.11 107.555V107.807L199.078 109H199.11C199.131 108.98 199.267 108.822 199.518 108.529C199.78 108.225 200.162 107.937 200.665 107.665C201.178 107.393 201.691 107.257 202.204 107.257C202.372 107.257 202.529 107.278 202.676 107.32V108.702C202.634 108.671 202.539 108.639 202.393 108.608C202.257 108.576 202.11 108.561 201.953 108.561C201.356 108.561 200.848 108.65 200.429 108.828C200.01 109.006 199.623 109.226 199.267 109.487V115.441L201.356 115.567V116.211H196.738V115.551ZM210.931 116.384C210.313 116.384 209.742 116.227 209.218 115.912C208.695 115.588 208.276 115.101 207.962 114.452C207.648 113.802 207.49 113.006 207.49 112.064C207.49 111.163 207.674 110.351 208.04 109.629C208.407 108.896 208.925 108.32 209.595 107.901C210.276 107.471 211.067 107.257 211.968 107.257C212.544 107.257 213.099 107.32 213.633 107.445V104.335L211.999 104.178V103.612L214.575 103.345H214.607L214.905 103.565V115.504H215.863V116.117C215.811 116.127 215.633 116.169 215.329 116.242C215.026 116.316 214.701 116.352 214.355 116.352C214.114 116.352 213.942 116.31 213.837 116.227C213.743 116.143 213.696 115.96 213.696 115.677V115.127C213.371 115.483 212.973 115.782 212.502 116.022C212.041 116.263 211.517 116.384 210.931 116.384ZM211.449 115.394C211.899 115.394 212.324 115.289 212.722 115.08C213.13 114.86 213.434 114.619 213.633 114.357V108.576C213.549 108.43 213.329 108.304 212.973 108.199C212.627 108.095 212.256 108.042 211.858 108.042C210.957 108.042 210.234 108.367 209.69 109.016C209.145 109.655 208.873 110.629 208.873 111.938C208.873 113.111 209.114 113.98 209.595 114.546C210.077 115.111 210.695 115.394 211.449 115.394ZM224.38 116.352C224.108 116.352 223.909 116.305 223.783 116.211C223.658 116.117 223.595 115.944 223.595 115.693V115.08C223.207 115.425 222.752 115.729 222.228 115.991C221.705 116.253 221.181 116.384 220.657 116.384C219.704 116.384 219.023 116.117 218.615 115.583C218.217 115.048 218.018 114.179 218.018 112.975V108.356L217.091 108.089V107.508L218.992 107.304H219.008L219.291 107.492V112.786C219.291 113.446 219.338 113.965 219.432 114.342C219.526 114.708 219.699 114.98 219.95 115.158C220.202 115.336 220.568 115.425 221.05 115.425C221.511 115.425 221.951 115.326 222.37 115.127C222.788 114.928 223.15 114.692 223.453 114.42V108.356L222.26 108.089V107.508L224.349 107.304H224.365L224.726 107.492V115.52H225.7L225.684 116.117C225.632 116.127 225.48 116.169 225.229 116.242C224.977 116.316 224.694 116.352 224.38 116.352ZM15.9412 125.612L18.2347 125.345H18.2661L18.5646 125.565V130.341C18.8892 130.037 19.2767 129.78 19.727 129.571C20.1878 129.361 20.6958 129.257 21.2508 129.257C21.8687 129.257 22.4342 129.409 22.9474 129.712C23.471 130.016 23.89 130.487 24.2041 131.126C24.5288 131.765 24.6911 132.566 24.6911 133.53C24.6911 134.43 24.5078 135.252 24.1413 135.996C23.7748 136.729 23.2511 137.31 22.5704 137.74C21.8897 138.169 21.1042 138.384 20.214 138.384C19.5647 138.384 18.9468 138.316 18.3604 138.18C17.7739 138.043 17.4178 137.912 17.2921 137.787V126.335L15.9412 126.193V125.612ZM20.7324 130.215C20.2926 130.215 19.8789 130.32 19.4914 130.529C19.1039 130.739 18.795 130.969 18.5646 131.22V137.033C18.6379 137.2 18.8421 137.336 19.1772 137.441C19.5228 137.535 19.9051 137.583 20.324 137.583C21.2246 137.583 21.9473 137.253 22.4918 136.593C23.0364 135.923 23.3087 134.943 23.3087 133.655C23.3087 132.503 23.0626 131.645 22.5704 131.079C22.0886 130.503 21.476 130.215 20.7324 130.215ZM29.9318 138.384C28.717 138.384 27.7797 137.97 27.1199 137.143C26.4706 136.305 26.1459 135.195 26.1459 133.812C26.1459 132.922 26.3187 132.132 26.6643 131.44C27.0099 130.749 27.4864 130.215 28.0939 129.838C28.7117 129.451 29.4029 129.257 30.1675 129.257C31.0995 129.257 31.8221 129.524 32.3353 130.058C32.8589 130.592 33.1417 131.362 33.1836 132.367C33.1836 133.016 33.1522 133.477 33.0893 133.75H27.4969C27.4969 134.849 27.743 135.75 28.2352 136.452C28.7379 137.143 29.4396 137.488 30.3403 137.488C30.7801 137.488 31.2304 137.41 31.6912 137.253C32.152 137.096 32.5081 136.907 32.7595 136.687L33.0108 137.268C32.7071 137.583 32.262 137.85 31.6755 138.07C31.0995 138.279 30.5183 138.384 29.9318 138.384ZM31.7698 133.011C31.8012 132.791 31.8169 132.561 31.8169 132.32C31.8064 131.629 31.6389 131.079 31.3142 130.671C31 130.262 30.5131 130.058 29.8533 130.058C28.4185 130.058 27.6383 131.042 27.5126 133.011H31.7698ZM34.6609 137.551L35.9176 137.457V130.529L34.708 130.262V129.555L36.703 129.304H36.7345L37.0329 129.555V129.807L37.0015 131H37.0329C37.0539 130.98 37.19 130.822 37.4414 130.529C37.7032 130.225 38.0854 129.937 38.5881 129.665C39.1013 129.393 39.6145 129.257 40.1276 129.257C40.2952 129.257 40.4523 129.278 40.5989 129.32V130.702C40.557 130.671 40.4628 130.639 40.3161 130.608C40.18 130.576 40.0334 130.561 39.8763 130.561C39.2793 130.561 38.7714 130.65 38.3525 130.828C37.9336 131.006 37.5461 131.226 37.19 131.487V137.441L39.2793 137.567V138.211H34.6609V137.551ZM41.7644 135.917C41.7644 134.902 42.2671 134.168 43.2725 133.718C44.2779 133.257 45.5294 133.011 47.027 132.98V132.493C47.027 131.959 46.9694 131.54 46.8542 131.236C46.7495 130.922 46.561 130.697 46.2887 130.561C46.0164 130.414 45.6341 130.341 45.1419 130.341C44.6078 130.341 44.1208 130.424 43.681 130.592C43.2516 130.749 42.8327 130.943 42.4242 131.173L42.0786 130.482C42.1938 130.377 42.4347 130.231 42.8012 130.042C43.1678 129.854 43.5867 129.686 44.058 129.54C44.5292 129.393 44.9848 129.32 45.4247 129.32C46.1368 129.32 46.6971 129.419 47.1055 129.618C47.5244 129.817 47.8229 130.136 48.001 130.576C48.1895 131.016 48.2837 131.608 48.2837 132.351V137.535H49.2577V138.117C48.6817 138.274 48.1947 138.352 47.7967 138.352C47.5454 138.352 47.3726 138.31 47.2783 138.227C47.1841 138.153 47.137 137.975 47.137 137.693V137.111C46.7599 137.446 46.3463 137.745 45.8959 138.007C45.4561 138.258 44.9534 138.384 44.3879 138.384C43.6338 138.384 43.0055 138.174 42.5028 137.755C42.0106 137.336 41.7644 136.724 41.7644 135.917ZM44.8591 137.457C45.1524 137.457 45.5032 137.363 45.9116 137.174C46.3201 136.986 46.6919 136.76 47.027 136.499V133.718C45.7598 133.729 44.7963 133.917 44.1365 134.284C43.4872 134.65 43.1626 135.142 43.1626 135.76C43.1626 136.357 43.3144 136.792 43.6181 137.064C43.9218 137.326 44.3355 137.457 44.8591 137.457ZM43.4139 127.812C43.173 127.812 42.9793 127.728 42.8327 127.56C42.686 127.393 42.6127 127.178 42.6127 126.916C42.6127 126.633 42.6913 126.392 42.8484 126.193C43.0159 125.984 43.2463 125.879 43.5396 125.879C43.7909 125.879 43.9899 125.974 44.1365 126.162C44.2936 126.34 44.3722 126.55 44.3722 126.79C44.3722 127.084 44.2884 127.33 44.1208 127.529C43.9532 127.717 43.7176 127.812 43.4139 127.812ZM46.8228 127.812C46.5924 127.812 46.4039 127.728 46.2572 127.56C46.1106 127.382 46.0373 127.167 46.0373 126.916C46.0373 126.633 46.1159 126.392 46.273 126.193C46.4405 125.984 46.6709 125.879 46.9642 125.879C47.2155 125.879 47.4145 125.974 47.5611 126.162C47.7182 126.34 47.7967 126.55 47.7967 126.79C47.7967 127.084 47.713 127.33 47.5454 127.529C47.3778 127.717 47.137 127.812 46.8228 127.812ZM53.1322 138.384C52.5771 138.384 52.1582 138.258 51.8755 138.007C51.5927 137.745 51.4513 137.284 51.4513 136.624V130.419H50.2574V129.807C50.7811 129.691 51.0848 129.608 51.1685 129.555C51.3256 129.471 51.4408 129.309 51.5141 129.068C51.577 128.911 51.6608 128.628 51.7655 128.22C51.8702 127.812 51.9488 127.492 52.0011 127.262H52.7237V129.492H55.5043V130.419H52.7237V135.509C52.7237 136.116 52.7447 136.546 52.7866 136.797C52.8285 137.038 52.9123 137.195 53.0379 137.268C53.1636 137.342 53.3835 137.378 53.6977 137.378C54.0014 137.378 54.3418 137.336 54.7188 137.253C55.0958 137.169 55.3786 137.08 55.5671 136.986L55.7713 137.583C55.5304 137.771 55.1325 137.954 54.5774 138.132C54.0224 138.3 53.5406 138.384 53.1322 138.384ZM59.514 138.384C58.9589 138.384 58.54 138.258 58.2573 138.007C57.9745 137.745 57.8331 137.284 57.8331 136.624V130.419H56.6392V129.807C57.1629 129.691 57.4666 129.608 57.5504 129.555C57.7075 129.471 57.8227 129.309 57.896 129.068C57.9588 128.911 58.0426 128.628 58.1473 128.22C58.252 127.812 58.3306 127.492 58.3829 127.262H59.1056V129.492H61.8861V130.419H59.1056V135.509C59.1056 136.116 59.1265 136.546 59.1684 136.797C59.2103 137.038 59.2941 137.195 59.4197 137.268C59.5454 137.342 59.7653 137.378 60.0795 137.378C60.3832 137.378 60.7236 137.336 61.1006 137.253C61.4776 137.169 61.7604 137.08 61.9489 136.986L62.1531 137.583C61.9123 137.771 61.5143 137.954 60.9592 138.132C60.4042 138.3 59.9224 138.384 59.514 138.384ZM63.2724 135.917C63.2724 134.902 63.7751 134.168 64.7805 133.718C65.7859 133.257 67.0373 133.011 68.5349 132.98V132.493C68.5349 131.959 68.4773 131.54 68.3621 131.236C68.2574 130.922 68.0689 130.697 67.7966 130.561C67.5243 130.414 67.1421 130.341 66.6499 130.341C66.1157 130.341 65.6288 130.424 65.1889 130.592C64.7595 130.749 64.3406 130.943 63.9322 131.173L63.5866 130.482C63.7018 130.377 63.9427 130.231 64.3092 130.042C64.6757 129.854 65.0947 129.686 65.5659 129.54C66.0372 129.393 66.4928 129.32 66.9326 129.32C67.6448 129.32 68.2051 129.419 68.6135 129.618C69.0324 129.817 69.3309 130.136 69.5089 130.576C69.6974 131.016 69.7917 131.608 69.7917 132.351V137.535H70.7656V138.117C70.1896 138.274 69.7027 138.352 69.3047 138.352C69.0533 138.352 68.8805 138.31 68.7863 138.227C68.692 138.153 68.6449 137.975 68.6449 137.693V137.111C68.2679 137.446 67.8542 137.745 67.4039 138.007C66.964 138.258 66.4613 138.384 65.8958 138.384C65.1418 138.384 64.5134 138.174 64.0107 137.755C63.5185 137.336 63.2724 136.724 63.2724 135.917ZM66.3671 137.457C66.6603 137.457 67.0112 137.363 67.4196 137.174C67.828 136.986 68.1998 136.76 68.5349 136.499V133.718C67.2677 133.729 66.3043 133.917 65.6445 134.284C64.9952 134.65 64.6705 135.142 64.6705 135.76C64.6705 136.357 64.8224 136.792 65.1261 137.064C65.4298 137.326 65.8435 137.457 66.3671 137.457ZM71.9853 137.551L73.242 137.457V130.529L72.0324 130.262V129.555L74.0275 129.304H74.0589L74.3574 129.555V129.807L74.326 131H74.3574C74.3783 130.98 74.5145 130.822 74.7658 130.529C75.0276 130.225 75.4099 129.937 75.9126 129.665C76.4257 129.393 76.9389 129.257 77.4521 129.257C77.6196 129.257 77.7767 129.278 77.9233 129.32V130.702C77.8814 130.671 77.7872 130.639 77.6406 130.608C77.5044 130.576 77.3578 130.561 77.2007 130.561C76.6038 130.561 76.0958 130.65 75.6769 130.828C75.258 131.006 74.8705 131.226 74.5145 131.487V137.441L76.6038 137.567V138.211H71.9853V137.551ZM82.047 129.492H85.3773V130.136L84.2148 130.341L85.8957 135.006L86.6654 137.237L87.3252 135.085L89.0061 130.341L87.9065 130.136V129.492H90.9069V130.136L90.1057 130.341L87.011 138.337H85.9585L82.7853 130.341L82.047 130.136V129.492ZM91.7144 135.917C91.7144 134.902 92.2171 134.168 93.2225 133.718C94.2279 133.257 95.4794 133.011 96.977 132.98V132.493C96.977 131.959 96.9194 131.54 96.8042 131.236C96.6995 130.922 96.511 130.697 96.2387 130.561C95.9664 130.414 95.5841 130.341 95.0919 130.341C94.5578 130.341 94.0708 130.424 93.631 130.592C93.2016 130.749 92.7827 130.943 92.3742 131.173L92.0286 130.482C92.1438 130.377 92.3847 130.231 92.7512 130.042C93.1178 129.854 93.5367 129.686 94.008 129.54C94.4792 129.393 94.9348 129.32 95.3747 129.32C96.0868 129.32 96.6471 129.419 97.0555 129.618C97.4744 129.817 97.7729 130.136 97.951 130.576C98.1395 131.016 98.2337 131.608 98.2337 132.351V137.535H99.2077V138.117C98.6317 138.274 98.1447 138.352 97.7467 138.352C97.4954 138.352 97.3226 138.31 97.2283 138.227C97.1341 138.153 97.087 137.975 97.087 137.693V137.111C96.7099 137.446 96.2963 137.745 95.8459 138.007C95.4061 138.258 94.9034 138.384 94.3379 138.384C93.5838 138.384 92.9555 138.174 92.4528 137.755C91.9606 137.336 91.7144 136.724 91.7144 135.917ZM94.8091 137.457C95.1024 137.457 95.4532 137.363 95.8616 137.174C96.2701 136.986 96.6419 136.76 96.977 136.499V133.718C95.7098 133.729 94.7463 133.917 94.0865 134.284C93.4372 134.65 93.1126 135.142 93.1126 135.76C93.1126 136.357 93.2644 136.792 93.5681 137.064C93.8718 137.326 94.2855 137.457 94.8091 137.457ZM103.821 138.384C103.203 138.384 102.632 138.227 102.108 137.912C101.585 137.588 101.166 137.101 100.851 136.452C100.537 135.802 100.38 135.006 100.38 134.064C100.38 133.163 100.563 132.351 100.93 131.629C101.297 130.896 101.815 130.32 102.485 129.901C103.166 129.471 103.957 129.257 104.857 129.257C105.433 129.257 105.988 129.32 106.522 129.445V126.335L104.889 126.178V125.612L107.465 125.345H107.496L107.795 125.565V137.504H108.753V138.117C108.701 138.127 108.523 138.169 108.219 138.242C107.915 138.316 107.591 138.352 107.245 138.352C107.004 138.352 106.831 138.31 106.727 138.227C106.632 138.143 106.585 137.96 106.585 137.677V137.127C106.261 137.483 105.863 137.782 105.391 138.022C104.931 138.263 104.407 138.384 103.821 138.384ZM104.339 137.394C104.789 137.394 105.213 137.289 105.611 137.08C106.02 136.86 106.323 136.619 106.522 136.357V130.576C106.439 130.43 106.219 130.304 105.863 130.199C105.517 130.095 105.145 130.042 104.747 130.042C103.847 130.042 103.124 130.367 102.579 131.016C102.035 131.655 101.763 132.629 101.763 133.938C101.763 135.111 102.003 135.98 102.485 136.546C102.967 137.111 103.585 137.394 104.339 137.394ZM115.091 136.97C115.206 137.148 115.447 137.305 115.814 137.441C116.18 137.577 116.573 137.645 116.992 137.645C118.27 137.645 118.909 137.174 118.909 136.232C118.909 135.802 118.731 135.457 118.374 135.195C118.018 134.923 117.411 134.624 116.552 134.299C115.704 133.996 115.086 133.634 114.699 133.215C114.311 132.797 114.117 132.236 114.117 131.535C114.117 131.084 114.253 130.692 114.526 130.356C114.809 130.021 115.18 129.765 115.641 129.587C116.112 129.398 116.62 129.304 117.165 129.304C117.699 129.304 118.144 129.351 118.5 129.445C118.867 129.54 119.228 129.655 119.584 129.791V131.66H118.814L118.532 130.513C118.458 130.377 118.27 130.262 117.966 130.168C117.673 130.074 117.348 130.027 116.992 130.027C116.489 130.027 116.081 130.142 115.767 130.372C115.453 130.592 115.296 130.891 115.296 131.268C115.296 131.603 115.374 131.88 115.531 132.1C115.688 132.32 115.882 132.498 116.112 132.634C116.343 132.76 116.662 132.907 117.071 133.074L117.369 133.2C117.966 133.43 118.448 133.65 118.814 133.86C119.181 134.059 119.485 134.326 119.725 134.661C119.966 134.985 120.087 135.394 120.087 135.886C120.087 136.661 119.788 137.274 119.191 137.724C118.605 138.164 117.819 138.384 116.835 138.384C116.385 138.384 115.872 138.31 115.296 138.164C114.72 138.017 114.29 137.871 114.007 137.724V135.745H114.856L115.091 136.97ZM121.596 133.797C121.596 132.886 121.785 132.084 122.162 131.393C122.549 130.702 123.052 130.173 123.67 129.807C124.298 129.44 124.953 129.257 125.634 129.257C126.953 129.257 127.927 129.686 128.555 130.545C129.194 131.404 129.514 132.503 129.514 133.844C129.514 134.755 129.32 135.556 128.932 136.247C128.555 136.939 128.053 137.467 127.424 137.834C126.807 138.2 126.157 138.384 125.476 138.384C124.157 138.384 123.178 137.954 122.539 137.096C121.911 136.237 121.596 135.137 121.596 133.797ZM125.555 137.567C126.361 137.567 126.985 137.258 127.424 136.64C127.864 136.022 128.084 135.121 128.084 133.938C128.084 132.807 127.88 131.88 127.472 131.158C127.063 130.435 126.429 130.074 125.571 130.074C124.764 130.074 124.136 130.383 123.686 131C123.246 131.618 123.026 132.519 123.026 133.702C123.026 134.844 123.23 135.776 123.639 136.499C124.057 137.211 124.696 137.567 125.555 137.567ZM130.923 137.535L131.929 137.41V130.529L130.719 130.262V129.555L132.714 129.304L133.06 129.555V130.246L133.044 130.639C133.431 130.304 133.939 129.995 134.568 129.712C135.196 129.43 135.767 129.288 136.28 129.288C136.846 129.288 137.296 129.382 137.631 129.571C137.977 129.759 138.238 130.053 138.416 130.451C138.741 130.178 139.212 129.917 139.83 129.665C140.459 129.414 141.035 129.288 141.558 129.288C142.218 129.288 142.726 129.414 143.082 129.665C143.449 129.917 143.705 130.304 143.852 130.828C143.998 131.351 144.072 132.058 144.072 132.948V137.41L145.266 137.535V138.211H141.747V137.535L142.815 137.41V132.996C142.815 132.336 142.768 131.812 142.674 131.425C142.579 131.037 142.396 130.744 142.124 130.545C141.852 130.346 141.454 130.246 140.93 130.246C140.542 130.246 140.134 130.335 139.705 130.513C139.286 130.681 138.924 130.875 138.621 131.095C138.725 131.576 138.778 132.205 138.778 132.98V137.41L139.972 137.535V138.211H136.374V137.535L137.505 137.41V132.964C137.505 132.294 137.463 131.77 137.38 131.393C137.306 131.016 137.144 130.733 136.893 130.545C136.641 130.356 136.27 130.262 135.777 130.262C135.369 130.262 134.924 130.367 134.442 130.576C133.971 130.775 133.557 131.016 133.201 131.299V137.41L134.316 137.535V138.211H130.923V137.535ZM151.042 126.335L149.643 126.193V125.612L151.968 125.345H152L152.298 125.549V129.288L152.267 130.592C152.602 130.288 153.073 129.995 153.681 129.712C154.288 129.43 154.885 129.288 155.472 129.288C156.131 129.288 156.644 129.414 157.011 129.665C157.378 129.917 157.634 130.309 157.781 130.843C157.927 131.367 158.001 132.079 158.001 132.98V137.41L159.147 137.535V138.211H155.629V137.535L156.728 137.41V132.964C156.728 132.294 156.681 131.77 156.587 131.393C156.503 131.016 156.33 130.733 156.068 130.545C155.807 130.356 155.424 130.262 154.922 130.262C154.503 130.262 154.052 130.367 153.571 130.576C153.089 130.775 152.665 131.016 152.298 131.299V137.41L153.461 137.535V138.211H150.052V137.535L151.042 137.425V126.335ZM160.472 135.917C160.472 134.902 160.975 134.168 161.98 133.718C162.986 133.257 164.237 133.011 165.735 132.98V132.493C165.735 131.959 165.677 131.54 165.562 131.236C165.457 130.922 165.269 130.697 164.997 130.561C164.724 130.414 164.342 130.341 163.85 130.341C163.316 130.341 162.829 130.424 162.389 130.592C161.96 130.749 161.541 130.943 161.132 131.173L160.787 130.482C160.902 130.377 161.143 130.231 161.509 130.042C161.876 129.854 162.295 129.686 162.766 129.54C163.237 129.393 163.693 129.32 164.133 129.32C164.845 129.32 165.405 129.419 165.813 129.618C166.232 129.817 166.531 130.136 166.709 130.576C166.897 131.016 166.992 131.608 166.992 132.351V137.535H167.966V138.117C167.39 138.274 166.903 138.352 166.505 138.352C166.253 138.352 166.081 138.31 165.986 138.227C165.892 138.153 165.845 137.975 165.845 137.693V137.111C165.468 137.446 165.054 137.745 164.604 138.007C164.164 138.258 163.661 138.384 163.096 138.384C162.342 138.384 161.713 138.174 161.211 137.755C160.719 137.336 160.472 136.724 160.472 135.917ZM163.567 137.457C163.86 137.457 164.211 137.363 164.62 137.174C165.028 136.986 165.4 136.76 165.735 136.499V133.718C164.468 133.729 163.504 133.917 162.844 134.284C162.195 134.65 161.871 135.142 161.871 135.76C161.871 136.357 162.022 136.792 162.326 137.064C162.63 137.326 163.043 137.457 163.567 137.457ZM162.122 127.812C161.881 127.812 161.687 127.728 161.541 127.56C161.394 127.393 161.321 127.178 161.321 126.916C161.321 126.633 161.399 126.392 161.556 126.193C161.724 125.984 161.954 125.879 162.248 125.879C162.499 125.879 162.698 125.974 162.844 126.162C163.002 126.34 163.08 126.55 163.08 126.79C163.08 127.084 162.996 127.33 162.829 127.529C162.661 127.717 162.426 127.812 162.122 127.812ZM165.531 127.812C165.3 127.812 165.112 127.728 164.965 127.56C164.819 127.382 164.745 127.167 164.745 126.916C164.745 126.633 164.824 126.392 164.981 126.193C165.148 125.984 165.379 125.879 165.672 125.879C165.923 125.879 166.122 125.974 166.269 126.162C166.426 126.34 166.505 126.55 166.505 126.79C166.505 127.084 166.421 127.33 166.253 127.529C166.086 127.717 165.845 127.812 165.531 127.812ZM170.112 130.529L168.903 130.262V129.555L170.898 129.304H170.945L171.243 129.555V130.246L171.227 130.639C171.615 130.304 172.128 129.995 172.767 129.712C173.406 129.43 173.998 129.288 174.542 129.288C175.212 129.288 175.726 129.419 176.082 129.681C176.448 129.932 176.699 130.325 176.836 130.859C176.982 131.383 177.056 132.09 177.056 132.98V137.425L178.234 137.535V138.211H174.731V137.535L175.783 137.425V132.964C175.783 132.304 175.736 131.786 175.642 131.409C175.558 131.032 175.385 130.749 175.123 130.561C174.872 130.362 174.5 130.262 174.008 130.262C173.589 130.262 173.134 130.367 172.641 130.576C172.16 130.786 171.741 131.032 171.385 131.315V137.41L172.531 137.535V138.211H169.06V137.535L170.112 137.41V130.529ZM182.842 138.384C182.224 138.384 181.653 138.227 181.129 137.912C180.606 137.588 180.187 137.101 179.873 136.452C179.558 135.802 179.401 135.006 179.401 134.064C179.401 133.163 179.585 132.351 179.951 131.629C180.318 130.896 180.836 130.32 181.506 129.901C182.187 129.471 182.978 129.257 183.878 129.257C184.454 129.257 185.009 129.32 185.543 129.445V126.335L183.91 126.178V125.612L186.486 125.345H186.517L186.816 125.565V137.504H187.774V138.117C187.722 138.127 187.544 138.169 187.24 138.242C186.936 138.316 186.612 138.352 186.266 138.352C186.025 138.352 185.852 138.31 185.748 138.227C185.653 138.143 185.606 137.96 185.606 137.677V137.127C185.282 137.483 184.884 137.782 184.412 138.022C183.952 138.263 183.428 138.384 182.842 138.384ZM183.36 137.394C183.81 137.394 184.234 137.289 184.632 137.08C185.041 136.86 185.345 136.619 185.543 136.357V130.576C185.46 130.43 185.24 130.304 184.884 130.199C184.538 130.095 184.166 130.042 183.768 130.042C182.868 130.042 182.145 130.367 181.601 131.016C181.056 131.655 180.784 132.629 180.784 133.938C180.784 135.111 181.025 135.98 181.506 136.546C181.988 137.111 182.606 137.394 183.36 137.394ZM192.914 138.384C191.699 138.384 190.761 137.97 190.102 137.143C189.452 136.305 189.128 135.195 189.128 133.812C189.128 132.922 189.301 132.132 189.646 131.44C189.992 130.749 190.468 130.215 191.076 129.838C191.694 129.451 192.385 129.257 193.149 129.257C194.081 129.257 194.804 129.524 195.317 130.058C195.841 130.592 196.124 131.362 196.165 132.367C196.165 133.016 196.134 133.477 196.071 133.75H190.479C190.479 134.849 190.725 135.75 191.217 136.452C191.72 137.143 192.421 137.488 193.322 137.488C193.762 137.488 194.212 137.41 194.673 137.253C195.134 137.096 195.49 136.907 195.741 136.687L195.993 137.268C195.689 137.583 195.244 137.85 194.657 138.07C194.081 138.279 193.5 138.384 192.914 138.384ZM194.752 133.011C194.783 132.791 194.799 132.561 194.799 132.32C194.788 131.629 194.621 131.079 194.296 130.671C193.982 130.262 193.495 130.058 192.835 130.058C191.4 130.058 190.62 131.042 190.494 133.011H194.752ZM198.742 138.384C198.501 138.384 198.297 138.305 198.13 138.148C197.962 137.981 197.878 137.766 197.878 137.504C197.878 137.211 197.978 136.965 198.177 136.766C198.386 136.567 198.627 136.467 198.899 136.467C199.182 136.467 199.392 136.551 199.528 136.719C199.674 136.886 199.748 137.096 199.748 137.347C199.748 137.64 199.648 137.886 199.449 138.085C199.25 138.284 199.015 138.384 198.742 138.384Z" fill="#0F007A"/>
<g filter="url(#filter1_d)">
<path fill-rule="evenodd" clip-rule="evenodd" d="M249.303 208.818C257.973 208.818 265.001 201.785 265.001 193.109C265.001 184.433 257.973 177.4 249.303 177.4C240.634 177.4 233.605 184.433 233.605 193.109C233.605 201.785 240.634 208.818 249.303 208.818Z" fill="#651EFF"/>
<path fill-rule="evenodd" clip-rule="evenodd" d="M249.303 199.393C252.77 199.393 255.582 196.579 255.582 193.109C255.582 189.639 252.77 186.825 249.303 186.825C245.835 186.825 243.023 189.639 243.023 193.109C243.023 196.579 245.835 199.393 249.303 199.393Z" fill="white"/>
</g>
<defs>
<filter id="filter0_d" x="2" y="89" width="243.82" height="68.8364" filterUnits="userSpaceOnUse" color-interpolation-filters="sRGB">
<feFlood flood-opacity="0" result="BackgroundImageFix"/>
<feColorMatrix in="SourceAlpha" type="matrix" values="0 0 0 0 0 0 0 0 0 0 0 0 0 0 0 0 0 0 127 0"/>
<feOffset dy="1"/>
<feGaussianBlur stdDeviation="1.5"/>
<feColorMatrix type="matrix" values="0 0 0 0 0 0 0 0 0 0 0 0 0 0 0 0 0 0 0.1 0"/>
<feBlend mode="normal" in2="BackgroundImageFix" result="effect1_dropShadow"/>
<feBlend mode="normal" in="SourceGraphic" in2="effect1_dropShadow" result="shape"/>
</filter>
<filter id="filter1_d" x="230.605" y="175.4" width="37.3953" height="37.4182" filterUnits="userSpaceOnUse" color-interpolation-filters="sRGB">
<feFlood flood-opacity="0" result="BackgroundImageFix"/>
<feColorMatrix in="SourceAlpha" type="matrix" values="0 0 0 0 0 0 0 0 0 0 0 0 0 0 0 0 0 0 127 0"/>
<feOffset dy="1"/>
<feGaussianBlur stdDeviation="1.5"/>
<feColorMatrix type="matrix" values="0 0 0 0 0 0 0 0 0 0 0 0 0 0 0 0 0 0 0.1 0"/>
<feBlend mode="normal" in2="BackgroundImageFix" result="effect1_dropShadow"/>
<feBlend mode="normal" in="SourceGraphic" in2="effect1_dropShadow" result="shape"/>
</filter>
</defs>
</svg>
