<?xml version="1.0" encoding="UTF-8"?>
<svg width="270px" height="258px" viewBox="0 0 270 258" version="1.1" xmlns="http://www.w3.org/2000/svg" xmlns:xlink="http://www.w3.org/1999/xlink">
    <!-- Generator: Sketch 53.1 (72631) - https://sketchapp.com -->
    <title>report_claims</title>
    <desc>Created with Sketch.</desc>
    <defs>
        <path d="M6.28363636,0 L228.536131,8.8817842e-16 C232.006488,2.50684266e-16 234.819767,2.81327983 234.819767,6.28363636 L234.819767,56.5527273 C234.819767,60.0230838 232.006488,62.8363636 228.536131,62.8363636 L6.28363636,62.8363636 C2.81327983,62.8363636 1.19713156e-14,60.0230838 1.15463195e-14,56.5527273 L0,6.28363636 C-4.24996103e-16,2.81327983 2.81327983,-2.02704111e-15 6.28363636,-2.66453526e-15 Z" id="path-1"></path>
        <filter x="-2.1%" y="-6.4%" width="104.3%" height="115.9%" filterUnits="objectBoundingBox" id="filter-2">
            <feOffset dx="0" dy="1" in="SourceAlpha" result="shadowOffsetOuter1"></feOffset>
            <feGaussianBlur stdDeviation="1.5" in="shadowOffsetOuter1" result="shadowBlurOuter1"></feGaussianBlur>
            <feColorMatrix values="0 0 0 0 0   0 0 0 0 0   0 0 0 0 0  0 0 0 0.1 0" type="matrix" in="shadowBlurOuter1"></feColorMatrix>
        </filter>
    </defs>
    <g id="Page-1" stroke="none" stroke-width="1" fill="none" fill-rule="evenodd">
        <g id="English-Translations-Flattened" transform="translate(-947.000000, -304.000000)">
            <g id="report_claims" transform="translate(947.000000, 304.000000)">
                <path d="M10.2555408,-4.14336123e-16 L259.744459,4.14336123e-16 C263.310534,-2.4074122e-16 264.603679,0.371302445 265.907383,1.06853082 C267.211087,1.76575919 268.234241,2.78891348 268.931469,4.09261719 C269.628698,5.39632089 270,6.68946584 270,10.2555408 L270,247.744459 C270,251.310534 269.628698,252.603679 268.931469,253.907383 C268.234241,255.211087 267.211087,256.234241 265.907383,256.931469 C264.603679,257.628698 263.310534,258 259.744459,258 L10.2555408,258 C6.68946584,258 5.39632089,257.628698 4.09261719,256.931469 C2.78891348,256.234241 1.76575919,255.211087 1.06853082,253.907383 C0.371302445,252.603679 1.60494146e-16,251.310534 -2.76224082e-16,247.744459 L2.76224082e-16,10.2555408 C-1.60494146e-16,6.68946584 0.371302445,5.39632089 1.06853082,4.09261719 C1.76575919,2.78891348 2.78891348,1.76575919 4.09261719,1.06853082 C5.39632089,0.371302445 6.68946584,2.4074122e-16 10.2555408,-4.14336123e-16 Z" id="Rectangle-Copy-2" fill="#FFFFFF" fill-rule="nonzero"></path>
                <path d="M78.7375296,208 C100.964445,208 133.508716,155.430711 148.429189,106.025151 C163.349661,56.6195921 94.455059,37 64.56971,37 C34.6843609,37 24,73.5604807 24,125.303583 C24,177.046686 56.510614,208 78.7375296,208 Z" id="Oval-Copy" fill="#0F007A"></path>
                <g id="UI/Hej,-det-är-jag-som-är-Hedvig.-Component-Copy-3" transform="translate(5.000000, 91.000000)">
                    <g id="BG">
                        <use fill="black" fill-opacity="1" filter="url(#filter-2)" xlink:href="#path-1"></use>
                        <use fill="#F9FAFC" fill-rule="evenodd" xlink:href="#path-1"></use>
                    </g>
                    <path d="M11.7738266,24.9572364 L13.1248085,24.8158545 L13.1248085,14.7934545 L11.8680812,14.6049455 L11.8680812,13.9608727 L13.7845903,13.9608727 C14.0673553,13.9608727 14.4705513,13.9399275 14.9941903,13.8980364 C15.4968837,13.8561452 15.8686618,13.8352 16.1095357,13.8352 C17.6071432,13.8352 18.6753507,14.0865429 19.3141903,14.5892364 C19.9530298,15.0919298 20.2724448,15.8669039 20.2724448,16.9141818 C20.2724448,17.6786947 20.0603742,18.3698878 19.6362266,18.9877818 C19.2120791,19.6056758 18.638703,20.0193444 17.9160812,20.2288 C18.1883735,20.4068373 18.4632798,20.7026888 18.7408085,21.1163636 C19.0183371,21.5300384 19.3613155,22.1034145 19.7697539,22.8365091 C20.1258284,23.4753486 20.4112074,23.9544711 20.6258994,24.2738909 C20.8405913,24.5933107 21.0317167,24.7687271 21.1992812,24.8001455 L21.859063,24.9729455 L21.859063,25.6327273 L20.0210994,25.6327273 C19.8535349,25.6327273 19.6597914,25.4546927 19.439863,25.0986182 C19.2199346,24.7425437 18.9109923,24.1665494 18.5130266,23.3706182 C18.0836427,22.5013775 17.7301917,21.8363659 17.452663,21.3755636 C17.1751343,20.9147613 16.900228,20.605819 16.6279357,20.4487273 C15.3502566,20.4487273 14.6119367,20.443491 14.4129539,20.4330182 L14.4129539,24.8158545 L16.0309903,24.9572364 L16.0309903,25.6327273 L11.7738266,25.6327273 L11.7738266,24.9572364 Z M16.5336812,19.6789818 C17.256303,19.6789818 17.8270609,19.4538204 18.2459721,19.0034909 C18.6648833,18.5531614 18.8743357,17.8933862 18.8743357,17.0241455 C18.8743357,16.2596325 18.659647,15.6653112 18.230263,15.2411636 C17.800879,14.8170161 17.0520865,14.6049455 15.983863,14.6049455 C15.6173157,14.6049455 15.2560102,14.6258907 14.8999357,14.6677818 C14.648589,14.6887274 14.4862634,14.6992 14.4129539,14.6992 L14.4129539,19.6632727 C14.6014639,19.6737455 14.9784784,19.6789818 15.5440085,19.6789818 L16.5336812,19.6789818 Z M26.3989903,25.8055273 C25.1841478,25.8055273 24.2494663,25.3892405 23.5949175,24.5566545 C22.9403688,23.7240686 22.6130994,22.6165887 22.6130994,21.2341818 C22.6130994,20.3439955 22.7858976,19.5533125 23.1314994,18.8621091 C23.4771011,18.1709056 23.9562236,17.6341837 24.5688812,17.2519273 C25.1815388,16.8696708 25.8701137,16.6785455 26.6346266,16.6785455 C27.566704,16.6785455 28.2919331,16.9455973 28.8103357,17.4797091 C29.3287383,18.0138209 29.608881,18.7835586 29.6507721,19.7889455 C29.6507721,20.4382578 29.6193542,20.8990532 29.5565175,21.1713455 L23.9640812,21.1713455 C23.9640812,22.2709873 24.212806,23.1690147 24.710263,23.8654545 C25.20772,24.5618944 25.9067676,24.9101091 26.8074266,24.9101091 C27.2472834,24.9101091 27.6976062,24.8315644 28.1584085,24.6744727 C28.6192108,24.517381 28.9752799,24.3288738 29.2266266,24.1089455 L29.4779721,24.6901818 C29.1742615,25.0043652 28.7317932,25.2687989 28.1505539,25.4834909 C27.5693146,25.6981829 26.9854659,25.8055273 26.3989903,25.8055273 Z M28.2369539,20.4330182 C28.2683723,20.2130898 28.2840812,19.9826921 28.2840812,19.7418182 C28.2736084,19.0506147 28.1086646,18.500802 27.7892448,18.0923636 C27.469825,17.6839252 26.9802299,17.4797091 26.3204448,17.4797091 C24.885674,17.4797091 24.1054636,18.4641356 23.9797903,20.4330182 L28.2369539,20.4330182 Z M30.8917903,21.3284364 C30.8917903,20.4801412 31.0567341,19.702549 31.3866266,18.9956364 C31.7165192,18.2887237 32.2087325,17.7258203 32.8632812,17.3069091 C33.5178299,16.8879979 34.3163674,16.6785455 35.2589175,16.6785455 C35.667356,16.6785455 36.0653156,16.7282904 36.4528085,16.8277818 C36.8403013,16.9272732 37.1754252,17.0346176 37.4581903,17.1498182 L37.3953539,19.3962182 L36.6098994,19.3962182 L36.2800085,17.8881455 C36.2171718,17.5739621 35.766849,17.4168727 34.9290266,17.4168727 C34.1121498,17.4168727 33.4602291,17.7310514 32.9732448,18.3594182 C32.4862606,18.987785 32.2427721,19.84654 32.2427721,20.9357091 C32.2427721,22.2343338 32.5045877,23.2187603 33.0282266,23.8890182 C33.5518656,24.5592761 34.2325861,24.8944 35.0704085,24.8944 C35.5102652,24.8944 35.9370246,24.8210916 36.3506994,24.6744727 C36.7643742,24.5278538 37.1073525,24.3602919 37.3796448,24.1717818 L37.6309903,24.6901818 C37.3272797,24.9938924 36.9083748,25.255708 36.374263,25.4756364 C35.8401512,25.6955647 35.3112838,25.8055273 34.7876448,25.8055273 C33.9602952,25.8055273 33.2533932,25.6091656 32.6669175,25.2164364 C32.0804419,24.8237071 31.6379736,24.2896034 31.3394994,23.6141091 C31.0410251,22.9386148 30.8917903,22.1767315 30.8917903,21.3284364 Z M39.0605175,21.2184727 C39.0605175,20.3073409 39.2516429,19.5061853 39.6338994,18.8149818 C40.0161558,18.1237784 40.5188417,17.5949109 41.1419721,17.2283636 C41.7651025,16.8618163 42.4170232,16.6785455 43.0977539,16.6785455 C44.4173241,16.6785455 45.3938962,17.107923 46.0274994,17.9666909 C46.6611025,18.8254588 46.9778994,19.9250842 46.9778994,21.2656 C46.9778994,22.1767318 46.786774,22.9778875 46.4045175,23.6690909 C46.0222611,24.3602944 45.5195752,24.8891618 44.8964448,25.2557091 C44.2733144,25.6222564 43.6213937,25.8055273 42.940663,25.8055273 C41.6210928,25.8055273 40.6445207,25.3761497 40.0109175,24.5173818 C39.3773144,23.6586139 39.0605175,22.5589885 39.0605175,21.2184727 Z M43.0192085,24.9886545 C43.8256125,24.9886545 44.4487335,24.6797122 44.8885903,24.0618182 C45.328447,23.4439242 45.5483721,22.5432786 45.5483721,21.3598545 C45.5483721,20.2287943 45.344156,19.3019672 44.9357175,18.5793455 C44.5272791,17.8567237 43.8936855,17.4954182 43.0349175,17.4954182 C42.2285135,17.4954182 41.6027743,17.8043605 41.1576812,18.4222545 C40.712588,19.0401485 40.4900448,19.9407941 40.4900448,21.1242182 C40.4900448,22.2657512 40.6968791,23.1951964 41.1105539,23.9125818 C41.5242287,24.6299672 42.1604405,24.9886545 43.0192085,24.9886545 Z M48.470263,24.9729455 L49.7269903,24.8786909 L49.7269903,17.9509818 L48.5173903,17.6839273 L48.5173903,16.9770182 L50.5124448,16.7256727 L50.543863,16.7256727 L50.8423357,16.9770182 L50.8423357,17.2283636 L50.8109175,18.4222545 L50.8423357,18.4222545 C50.8632813,18.401309 51.0020435,18.2416015 51.2586266,17.9431273 C51.5152097,17.6446531 51.8974605,17.3592741 52.4053903,17.0869818 C52.9133201,16.8146895 53.4238604,16.6785455 53.9370266,16.6785455 C54.1045911,16.6785455 54.2616805,16.6994907 54.4082994,16.7413818 L54.4082994,18.1237818 C54.3664082,18.0923635 54.2747728,18.0609456 54.1333903,18.0295273 C53.9920077,17.9981089 53.8427729,17.9824 53.6856812,17.9824 C53.0887327,17.9824 52.5808106,18.0714173 52.1618994,18.2494545 C51.7429882,18.4274918 51.3555011,18.6474169 50.9994266,18.9092364 L50.9994266,24.8629818 L53.0887357,24.9886545 L53.0887357,25.6327273 L48.470263,25.6327273 L48.470263,24.9729455 Z M58.9325175,25.8055273 C58.3146235,25.8055273 57.7438656,25.6458198 57.2202266,25.3264 C56.6965877,25.0069802 56.2776828,24.5226214 55.9634994,23.8733091 C55.649316,23.2239968 55.4922266,22.4280774 55.4922266,21.4855273 C55.4922266,20.5848682 55.6754975,19.7706218 56.0420448,19.0427636 C56.4085921,18.3149055 56.9296051,17.7389112 57.6050994,17.3147636 C58.2805937,16.8906161 59.0686585,16.6785455 59.9693175,16.6785455 C60.5453204,16.6785455 61.1003694,16.7413812 61.6344812,16.8670545 L61.6344812,13.7566545 L60.0007357,13.5995636 L60.0007357,13.0340364 L62.5770266,12.7669818 L62.6084448,12.7669818 L62.9069175,12.9869091 L62.9069175,24.9258182 L63.8651721,24.9258182 L63.8651721,25.5384727 C63.8128082,25.5489455 63.6347736,25.590836 63.331063,25.6641455 C63.0273524,25.7374549 62.7027011,25.7741091 62.3570994,25.7741091 C62.1162254,25.7741091 61.9460453,25.7322186 61.8465539,25.6484364 C61.7470625,25.5646541 61.6973175,25.3813832 61.6973175,25.0986182 L61.6973175,24.5488 C61.3726614,24.9048745 60.9773199,25.2033443 60.5112812,25.4442182 C60.0452425,25.6850921 59.5189932,25.8055273 58.9325175,25.8055273 Z M59.4509175,24.8158545 C59.9012471,24.8158545 60.3280064,24.7085102 60.7312085,24.4938182 C61.1344105,24.2791262 61.4354984,24.040874 61.6344812,23.7790545 L61.6344812,17.9981091 C61.5506989,17.8514902 61.333392,17.7258187 60.9825539,17.6210909 C60.6317158,17.5163631 60.2573195,17.464 59.8593539,17.464 C58.9586949,17.464 58.2360839,17.7860331 57.6914994,18.4301091 C57.1469148,19.074185 56.8746266,20.0507571 56.8746266,21.3598545 C56.8746266,22.5328059 57.115497,23.4020335 57.5972448,23.9675636 C58.0789927,24.5330937 58.6968774,24.8158545 59.4509175,24.8158545 Z M69.0020448,23.3392 C69.0020448,22.3233404 69.5047307,21.5876386 70.5101175,21.1320727 C71.5155044,20.6765068 72.7669828,20.4330183 74.2645903,20.4016 L74.2645903,19.9146182 C74.2645903,19.3805064 74.209609,18.9589834 74.0996448,18.6500364 C73.9896806,18.3410894 73.7985553,18.115928 73.526263,17.9745455 C73.2539707,17.8331629 72.87172,17.7624727 72.3794994,17.7624727 C71.8453876,17.7624727 71.3610288,17.8436356 70.9264085,18.0059636 C70.4917881,18.1682917 70.070265,18.3646534 69.6618266,18.5950545 L69.3162266,17.9038545 C69.4314272,17.7991267 69.6722975,17.65251 70.0388448,17.464 C70.4053921,17.27549 70.824297,17.107928 71.2955721,16.9613091 C71.7668472,16.8146902 72.2224063,16.7413818 72.662263,16.7413818 C73.374412,16.7413818 73.9373155,16.8408717 74.3509903,17.0398545 C74.7646651,17.2388374 75.0631348,17.5582523 75.2464085,17.9981091 C75.4296821,18.4379658 75.5213175,19.029669 75.5213175,19.7732364 L75.5213175,24.9572364 L76.4952812,24.9572364 L76.4952812,25.5384727 C75.9192783,25.6955644 75.4323014,25.7741091 75.0343357,25.7741091 C74.782989,25.7741091 74.6101907,25.7348368 74.5159357,25.6562909 C74.4216807,25.5777451 74.3745539,25.3970923 74.3745539,25.1143273 L74.3745539,24.5330909 C73.9975338,24.8682199 73.5864834,25.1640714 73.1413903,25.4206545 C72.6962971,25.6772376 72.1909931,25.8055273 71.625463,25.8055273 C70.8714229,25.8055273 70.2456837,25.5960748 69.7482266,25.1771636 C69.2507696,24.7582525 69.0020448,24.145604 69.0020448,23.3392 Z M72.0967357,24.8786909 C72.3899736,24.8786909 72.7408064,24.7844373 73.1492448,24.5959273 C73.5576832,24.4074172 73.9294613,24.1822559 74.2645903,23.9204364 L74.2645903,21.1399273 C72.9973839,21.1504001 72.0365208,21.3389073 71.3819721,21.7054545 C70.7274234,22.0720018 70.4001539,22.5642151 70.4001539,23.1821091 C70.4001539,23.7790575 70.5520069,24.2110532 70.8557175,24.4781091 C71.1594282,24.745165 71.5730967,24.8786909 72.0967357,24.8786909 Z M80.7053175,16.9141818 L84.0356448,16.9141818 L84.0356448,17.5582545 L82.8731721,17.7624727 L84.5540448,22.4280727 L85.3237903,24.6587636 L85.9835721,22.5066182 L87.6644448,17.7624727 L86.5648085,17.5582545 L86.5648085,16.9141818 L89.5652448,16.9141818 L89.5652448,17.5582545 L88.7640812,17.7624727 L85.6693903,25.7584 L84.6168812,25.7584 L81.4436448,17.7624727 L80.7053175,17.5582545 L80.7053175,16.9141818 Z M90.2721539,21.2184727 C90.2721539,20.3073409 90.4632793,19.5061853 90.8455357,18.8149818 C91.2277922,18.1237784 91.7304781,17.5949109 92.3536085,17.2283636 C92.9767388,16.8618163 93.6286596,16.6785455 94.3093903,16.6785455 C95.6289605,16.6785455 96.6055326,17.107923 97.2391357,17.9666909 C97.8727389,18.8254588 98.1895357,19.9250842 98.1895357,21.2656 C98.1895357,22.1767318 97.9984104,22.9778875 97.6161539,23.6690909 C97.2338975,24.3602944 96.7312116,24.8891618 96.1080812,25.2557091 C95.4849508,25.6222564 94.83303,25.8055273 94.1522994,25.8055273 C92.8327291,25.8055273 91.8561571,25.3761497 91.2225539,24.5173818 C90.5889507,23.6586139 90.2721539,22.5589885 90.2721539,21.2184727 Z M94.2308448,24.9886545 C95.0372489,24.9886545 95.6603699,24.6797122 96.1002266,24.0618182 C96.5400834,23.4439242 96.7600085,22.5432786 96.7600085,21.3598545 C96.7600085,20.2287943 96.5557923,19.3019672 96.1473539,18.5793455 C95.7389155,17.8567237 95.1053218,17.4954182 94.2465539,17.4954182 C93.4401499,17.4954182 92.8144107,17.8043605 92.3693175,18.4222545 C91.9242244,19.0401485 91.7016812,19.9407941 91.7016812,21.1242182 C91.7016812,22.2657512 91.9085155,23.1951964 92.3221903,23.9125818 C92.7358651,24.6299672 93.3720769,24.9886545 94.2308448,24.9886545 Z M101.457027,15.2647273 C100.891497,15.2647273 100.608736,14.9662575 100.608736,14.3693091 C100.608736,14.0655985 100.697753,13.8168737 100.87579,13.6231273 C101.053828,13.4293808 101.294698,13.3325091 101.598408,13.3325091 C101.912592,13.3325091 102.137753,13.4189082 102.273899,13.5917091 C102.410046,13.76451 102.478118,13.9765806 102.478118,14.2279273 C102.478118,14.5525834 102.391718,14.8065445 102.218918,14.9898182 C102.046117,15.1730918 101.797392,15.2647273 101.472736,15.2647273 L101.457027,15.2647273 Z M100.954336,17.9509818 L99.7290266,17.6839273 L99.7290266,16.9770182 L101.881172,16.7256727 L101.91259,16.7256727 L102.226772,16.9770182 L102.226772,24.8472727 L103.593463,24.9572364 L103.593463,25.6327273 L99.5719357,25.6327273 L99.5719357,24.9572364 L100.954336,24.8315636 L100.954336,17.9509818 Z M104.536008,21.3284364 C104.536008,20.4801412 104.700952,19.702549 105.030845,18.9956364 C105.360737,18.2887237 105.852951,17.7258203 106.507499,17.3069091 C107.162048,16.8879979 107.960586,16.6785455 108.903136,16.6785455 C109.311574,16.6785455 109.709534,16.7282904 110.097027,16.8277818 C110.484519,16.9272732 110.819643,17.0346176 111.102408,17.1498182 L111.039572,19.3962182 L110.254118,19.3962182 L109.924227,17.8881455 C109.86139,17.5739621 109.411067,17.4168727 108.573245,17.4168727 C107.756368,17.4168727 107.104447,17.7310514 106.617463,18.3594182 C106.130479,18.987785 105.88699,19.84654 105.88699,20.9357091 C105.88699,22.2343338 106.148806,23.2187603 106.672445,23.8890182 C107.196084,24.5592761 107.876804,24.8944 108.714627,24.8944 C109.154483,24.8944 109.581243,24.8210916 109.994918,24.6744727 C110.408592,24.5278538 110.751571,24.3602919 111.023863,24.1717818 L111.275208,24.6901818 C110.971498,24.9938924 110.552593,25.255708 110.018481,25.4756364 C109.484369,25.6955647 108.955502,25.8055273 108.431863,25.8055273 C107.604513,25.8055273 106.897611,25.6091656 106.311136,25.2164364 C105.72466,24.8237071 105.282192,24.2896034 104.983718,23.6141091 C104.685243,22.9386148 104.536008,22.1767315 104.536008,21.3284364 Z M116.522045,25.8055273 C115.307202,25.8055273 114.372521,25.3892405 113.717972,24.5566545 C113.063423,23.7240686 112.736154,22.6165887 112.736154,21.2341818 C112.736154,20.3439955 112.908952,19.5533125 113.254554,18.8621091 C113.600156,18.1709056 114.079278,17.6341837 114.691936,17.2519273 C115.304593,16.8696708 115.993168,16.6785455 116.757681,16.6785455 C117.689759,16.6785455 118.414988,16.9455973 118.93339,17.4797091 C119.451793,18.0138209 119.731936,18.7835586 119.773827,19.7889455 C119.773827,20.4382578 119.742409,20.8990532 119.679572,21.1713455 L114.087136,21.1713455 C114.087136,22.2709873 114.335861,23.1690147 114.833318,23.8654545 C115.330775,24.5618944 116.029822,24.9101091 116.930481,24.9101091 C117.370338,24.9101091 117.820661,24.8315644 118.281463,24.6744727 C118.742265,24.517381 119.098334,24.3288738 119.349681,24.1089455 L119.601027,24.6901818 C119.297316,25.0043652 118.854848,25.2687989 118.273608,25.4834909 C117.692369,25.6981829 117.10852,25.8055273 116.522045,25.8055273 Z M118.360008,20.4330182 C118.391427,20.2130898 118.407136,19.9826921 118.407136,19.7418182 C118.396663,19.0506147 118.231719,18.500802 117.912299,18.0923636 C117.59288,17.6839252 117.103284,17.4797091 116.443499,17.4797091 C115.008729,17.4797091 114.228518,18.4641356 114.102845,20.4330182 L118.360008,20.4330182 Z M124.89499,24.9572364 L125.900372,24.8315636 L125.900372,17.9509818 L124.690772,17.6839273 L124.690772,16.9770182 L126.685827,16.7256727 L127.031427,16.9770182 L127.031427,17.6682182 L127.015718,18.0609455 C127.40321,17.7258165 127.911133,17.4168741 128.539499,17.1341091 C129.167866,16.851344 129.738624,16.7099636 130.25179,16.7099636 C130.81732,16.7099636 131.270261,16.8042172 131.610627,16.9927273 C131.950992,17.1812373 132.210189,17.4744707 132.388227,17.8724364 C132.712883,17.6001441 133.186769,17.3383285 133.809899,17.0869818 C134.43303,16.8356351 135.006406,16.7099636 135.530045,16.7099636 C136.18983,16.7099636 136.70037,16.8356351 137.061681,17.0869818 C137.422992,17.3383285 137.676953,17.7258156 137.823572,18.2494545 C137.970191,18.7730935 138.043499,19.4799955 138.043499,20.3701818 L138.043499,24.8315636 L139.23739,24.9572364 L139.23739,25.6327273 L135.718554,25.6327273 L135.718554,24.9572364 L136.786772,24.8315636 L136.786772,20.4173091 C136.786772,19.757524 136.739645,19.2338928 136.64539,18.8464 C136.551135,18.4589072 136.367864,18.1656737 136.095572,17.9666909 C135.82328,17.7677081 135.42532,17.6682182 134.901681,17.6682182 C134.514188,17.6682182 134.108374,17.7546173 133.684227,17.9274182 C133.260079,18.100219 132.896155,18.2965807 132.592445,18.5165091 C132.697173,18.998257 132.749536,19.6266143 132.749536,20.4016 L132.749536,24.8315636 L133.943427,24.9572364 L133.943427,25.6327273 L130.346045,25.6327273 L130.346045,24.9572364 L131.477099,24.8315636 L131.477099,20.3858909 C131.477099,19.715633 131.437827,19.1920019 131.359281,18.8149818 C131.280735,18.4379618 131.115792,18.1552009 130.864445,17.9666909 C130.613098,17.7781809 130.24132,17.6839273 129.749099,17.6839273 C129.340661,17.6839273 128.898193,17.7860353 128.421681,17.9902545 C127.94517,18.1944737 127.528883,18.4379622 127.172808,18.7207273 L127.172808,24.8315636 L128.288154,24.9572364 L128.288154,25.6327273 L124.89499,25.6327273 L124.89499,24.9572364 Z M144.185754,25.8055273 C142.970911,25.8055273 142.03623,25.3892405 141.381681,24.5566545 C140.727132,23.7240686 140.399863,22.6165887 140.399863,21.2341818 C140.399863,20.3439955 140.572661,19.5533125 140.918263,18.8621091 C141.263865,18.1709056 141.742987,17.6341837 142.355645,17.2519273 C142.968302,16.8696708 143.656877,16.6785455 144.42139,16.6785455 C145.353468,16.6785455 146.078697,16.9455973 146.597099,17.4797091 C147.115502,18.0138209 147.395645,18.7835586 147.437536,19.7889455 C147.437536,20.4382578 147.406118,20.8990532 147.343281,21.1713455 L141.750845,21.1713455 C141.750845,22.2709873 141.99957,23.1690147 142.497027,23.8654545 C142.994484,24.5618944 143.693531,24.9101091 144.59419,24.9101091 C145.034047,24.9101091 145.48437,24.8315644 145.945172,24.6744727 C146.405974,24.517381 146.762044,24.3288738 147.01339,24.1089455 L147.264736,24.6901818 C146.961025,25.0043652 146.518557,25.2687989 145.937318,25.4834909 C145.356078,25.6981829 144.77223,25.8055273 144.185754,25.8055273 Z M146.023718,20.4330182 C146.055136,20.2130898 146.070845,19.9826921 146.070845,19.7418182 C146.060372,19.0506147 145.895428,18.500802 145.576008,18.0923636 C145.256589,17.6839252 144.766994,17.4797091 144.107208,17.4797091 C142.672438,17.4797091 141.892227,18.4641356 141.766554,20.4330182 L146.023718,20.4330182 Z M150.139499,24.3917091 C150.2547,24.5697463 150.49557,24.7268357 150.862118,24.8629818 C151.228665,24.999128 151.621388,25.0672 152.040299,25.0672 C153.317978,25.0672 153.956808,24.595932 153.956808,23.6533818 C153.956808,23.2239979 153.778774,22.8757832 153.422699,22.6087273 C153.066625,22.3416714 152.459213,22.0458198 151.600445,21.7211636 C150.75215,21.417453 150.134265,21.0561475 149.746772,20.6372364 C149.359279,20.2183252 149.165536,19.6580399 149.165536,18.9563636 C149.165536,18.5060341 149.304298,18.1133108 149.581827,17.7781818 C149.859355,17.4430529 150.231133,17.1838555 150.697172,17.0005818 C151.163211,16.8173082 151.668515,16.7256727 152.213099,16.7256727 C152.747211,16.7256727 153.194916,16.7727995 153.556227,16.8670545 C153.917538,16.9613096 154.276225,17.0765084 154.632299,17.2126545 L154.632299,19.0820364 L153.862554,19.0820364 L153.57979,17.9352727 C153.506481,17.7991266 153.320592,17.6839277 153.022118,17.5896727 C152.723643,17.4954177 152.396374,17.4482909 152.040299,17.4482909 C151.537606,17.4482909 151.129174,17.5608716 150.81499,17.7860364 C150.500807,18.0112011 150.343718,18.312289 150.343718,18.6893091 C150.343718,19.024438 150.422262,19.3019625 150.579354,19.5218909 C150.736446,19.7418193 150.930189,19.9172357 151.16059,20.0481455 C151.390991,20.1790552 151.710406,20.3282901 152.118845,20.4958545 L152.417318,20.6215273 C153.014266,20.8519284 153.496007,21.0692353 153.862554,21.2734545 C154.229101,21.4776737 154.532807,21.7447256 154.773681,22.0746182 C155.014555,22.4045107 155.13499,22.8155612 155.13499,23.3077818 C155.13499,24.0827675 154.839139,24.6927978 154.247427,25.1378909 C153.655715,25.582984 152.86765,25.8055273 151.883208,25.8055273 C151.432879,25.8055273 150.91972,25.7322189 150.343718,25.5856 C149.767715,25.4389811 149.338337,25.2923644 149.055572,25.1457455 L149.055572,23.1664 L149.903863,23.1664 L150.139499,24.3917091 Z M157.931208,24.3917091 C158.046409,24.5697463 158.287279,24.7268357 158.653827,24.8629818 C159.020374,24.999128 159.413097,25.0672 159.832008,25.0672 C161.109688,25.0672 161.748518,24.595932 161.748518,23.6533818 C161.748518,23.2239979 161.570483,22.8757832 161.214408,22.6087273 C160.858334,22.3416714 160.250922,22.0458198 159.392154,21.7211636 C158.543859,21.417453 157.925974,21.0561475 157.538481,20.6372364 C157.150988,20.2183252 156.957245,19.6580399 156.957245,18.9563636 C156.957245,18.5060341 157.096007,18.1133108 157.373536,17.7781818 C157.651064,17.4430529 158.022842,17.1838555 158.488881,17.0005818 C158.95492,16.8173082 159.460224,16.7256727 160.004808,16.7256727 C160.53892,16.7256727 160.986625,16.7727995 161.347936,16.8670545 C161.709247,16.9613096 162.067934,17.0765084 162.424008,17.2126545 L162.424008,19.0820364 L161.654263,19.0820364 L161.371499,17.9352727 C161.29819,17.7991266 161.112301,17.6839277 160.813827,17.5896727 C160.515352,17.4954177 160.188083,17.4482909 159.832008,17.4482909 C159.329315,17.4482909 158.920883,17.5608716 158.606699,17.7860364 C158.292516,18.0112011 158.135427,18.312289 158.135427,18.6893091 C158.135427,19.024438 158.213971,19.3019625 158.371063,19.5218909 C158.528155,19.7418193 158.721898,19.9172357 158.952299,20.0481455 C159.182701,20.1790552 159.502116,20.3282901 159.910554,20.4958545 L160.209027,20.6215273 C160.805975,20.8519284 161.287716,21.0692353 161.654263,21.2734545 C162.02081,21.4776737 162.324516,21.7447256 162.56539,22.0746182 C162.806264,22.4045107 162.926699,22.8155612 162.926699,23.3077818 C162.926699,24.0827675 162.630848,24.6927978 162.039136,25.1378909 C161.447424,25.582984 160.659359,25.8055273 159.674918,25.8055273 C159.224588,25.8055273 158.71143,25.7322189 158.135427,25.5856 C157.559424,25.4389811 157.130046,25.2923644 156.847281,25.1457455 L156.847281,23.1664 L157.695572,23.1664 L157.931208,24.3917091 Z M164.529027,23.3392 C164.529027,22.3233404 165.031713,21.5876386 166.037099,21.1320727 C167.042486,20.6765068 168.293965,20.4330183 169.791572,20.4016 L169.791572,19.9146182 C169.791572,19.3805064 169.736591,18.9589834 169.626627,18.6500364 C169.516662,18.3410894 169.325537,18.115928 169.053245,17.9745455 C168.780953,17.8331629 168.398702,17.7624727 167.906481,17.7624727 C167.372369,17.7624727 166.888011,17.8436356 166.45339,18.0059636 C166.01877,18.1682917 165.597247,18.3646534 165.188808,18.5950545 L164.843208,17.9038545 C164.958409,17.7991267 165.199279,17.65251 165.565827,17.464 C165.932374,17.27549 166.351279,17.107928 166.822554,16.9613091 C167.293829,16.8146902 167.749388,16.7413818 168.189245,16.7413818 C168.901394,16.7413818 169.464297,16.8408717 169.877972,17.0398545 C170.291647,17.2388374 170.590117,17.5582523 170.77339,17.9981091 C170.956664,18.4379658 171.048299,19.029669 171.048299,19.7732364 L171.048299,24.9572364 L172.022263,24.9572364 L172.022263,25.5384727 C171.44626,25.6955644 170.959283,25.7741091 170.561318,25.7741091 C170.309971,25.7741091 170.137173,25.7348368 170.042918,25.6562909 C169.948663,25.5777451 169.901536,25.3970923 169.901536,25.1143273 L169.901536,24.5330909 C169.524516,24.8682199 169.113465,25.1640714 168.668372,25.4206545 C168.223279,25.6772376 167.717975,25.8055273 167.152445,25.8055273 C166.398405,25.8055273 165.772665,25.5960748 165.275208,25.1771636 C164.777751,24.7582525 164.529027,24.145604 164.529027,23.3392 Z M167.623718,24.8786909 C167.916955,24.8786909 168.267788,24.7844373 168.676227,24.5959273 C169.084665,24.4074172 169.456443,24.1822559 169.791572,23.9204364 L169.791572,21.1399273 C168.524366,21.1504001 167.563503,21.3389073 166.908954,21.7054545 C166.254405,22.0720018 165.927136,22.5642151 165.927136,23.1821091 C165.927136,23.7790575 166.078989,24.2110532 166.382699,24.4781091 C166.68641,24.745165 167.100079,24.8786909 167.623718,24.8786909 Z M176.90779,29.8741818 C174.436214,29.8741818 173.200445,29.0887351 173.200445,27.5178182 C173.200445,27.0465431 173.344443,26.6171656 173.632445,26.2296727 C173.920446,25.8421799 174.263425,25.5384738 174.66139,25.3185455 C174.16917,25.056726 173.923063,24.6221121 173.923063,24.0146909 C173.923063,23.6271981 174.033026,23.2632744 174.252954,22.9229091 C174.472882,22.5825438 174.755643,22.3233463 175.101245,22.1453091 C174.609024,21.9149079 174.224155,21.5876385 173.946627,21.1634909 C173.669098,20.7393433 173.530336,20.2445119 173.530336,19.6789818 C173.530336,19.0715606 173.697898,18.540075 174.033027,18.0845091 C174.368156,17.6289432 174.805388,17.2807285 175.344736,17.0398545 C175.884084,16.7989806 176.446987,16.6785455 177.033463,16.6785455 C178.007432,16.6785455 178.787642,16.8932342 179.374118,17.3226182 C179.531209,17.1759993 179.774698,17.0320007 180.10459,16.8906182 C180.434483,16.7492357 180.787934,16.6785455 181.164954,16.6785455 L181.683354,16.6785455 L181.683354,17.8410182 L179.892518,17.8410182 C180.196228,18.2599294 180.348081,18.7678516 180.348081,19.3648 C180.348081,19.982694 180.190992,20.5298885 179.876808,21.0064 C179.562625,21.4829115 179.141102,21.8520714 178.612227,22.1138909 C178.083351,22.3757104 177.499503,22.5066182 176.860663,22.5066182 C176.431279,22.5066182 176.038556,22.4594914 175.682481,22.3652364 C175.493971,22.5118553 175.344736,22.6820354 175.234772,22.8757818 C175.124808,23.0695282 175.069827,23.2658899 175.069827,23.4648727 C175.069827,23.8628384 175.198116,24.1403629 175.454699,24.2974545 C175.711282,24.4545462 176.158987,24.5330909 176.797827,24.5330909 L178.651499,24.5330909 C179.625468,24.5330909 180.345461,24.7215981 180.811499,25.0986182 C181.277538,25.4756382 181.510554,26.0045057 181.510554,26.6852364 C181.510554,27.2507665 181.306338,27.7770157 180.897899,28.264 C180.489461,28.7509843 179.931794,29.1410894 179.224881,29.4343273 C178.517969,29.7275651 177.745613,29.8741818 176.90779,29.8741818 Z M177.017754,21.7368727 C178.347797,21.7368727 179.012808,21.0037891 179.012808,19.5376 C179.012808,18.1447203 178.321615,17.4482909 176.939208,17.4482909 C175.556802,17.4482909 174.865608,18.1342477 174.865608,19.5061818 C174.865608,20.1659669 175.043643,20.7026888 175.399718,21.1163636 C175.755792,21.5300384 176.295132,21.7368727 177.017754,21.7368727 Z M176.986336,29.0730182 C177.551866,29.0730182 178.091206,28.9918554 178.604372,28.8295273 C179.117538,28.6671992 179.531207,28.4315652 179.84539,28.1226182 C180.159574,27.8136712 180.316663,27.4549839 180.316663,27.0465455 C180.316663,26.7218893 180.266918,26.4600737 180.167427,26.2610909 C180.067935,26.0621081 179.874192,25.9076369 179.58619,25.7976727 C179.298189,25.6877085 178.881902,25.6327273 178.337318,25.6327273 L176.38939,25.6327273 C175.886697,25.6327273 175.504446,25.6013094 175.242627,25.5384727 C174.72946,26.0306934 174.472881,26.6066876 174.472881,27.2664727 C174.472881,27.8634212 174.661388,28.3137439 175.038408,28.6174545 C175.415429,28.9211652 176.064731,29.0730182 176.986336,29.0730182 Z M186.380372,25.8055273 C185.16553,25.8055273 184.230848,25.3892405 183.576299,24.5566545 C182.921751,23.7240686 182.594481,22.6165887 182.594481,21.2341818 C182.594481,20.3439955 182.767279,19.5533125 183.112881,18.8621091 C183.458483,18.1709056 183.937605,17.6341837 184.550263,17.2519273 C185.162921,16.8696708 185.851496,16.6785455 186.616008,16.6785455 C187.548086,16.6785455 188.273315,16.9455973 188.791718,17.4797091 C189.31012,18.0138209 189.590263,18.7835586 189.632154,19.7889455 C189.632154,20.4382578 189.600736,20.8990532 189.537899,21.1713455 L183.945463,21.1713455 C183.945463,22.2709873 184.194188,23.1690147 184.691645,23.8654545 C185.189102,24.5618944 185.888149,24.9101091 186.788808,24.9101091 C187.228665,24.9101091 187.678988,24.8315644 188.13979,24.6744727 C188.600593,24.517381 188.956662,24.3288738 189.208008,24.1089455 L189.459354,24.6901818 C189.155643,25.0043652 188.713175,25.2687989 188.131936,25.4834909 C187.550696,25.6981829 186.966848,25.8055273 186.380372,25.8055273 Z M188.218336,20.4330182 C188.249754,20.2130898 188.265463,19.9826921 188.265463,19.7418182 C188.25499,19.0506147 188.090046,18.500802 187.770627,18.0923636 C187.451207,17.6839252 186.961612,17.4797091 186.301827,17.4797091 C184.867056,17.4797091 184.086845,18.4641356 183.961172,20.4330182 L188.218336,20.4330182 Z M194.863281,23.3392 C194.863281,22.3233404 195.365967,21.5876386 196.371354,21.1320727 C197.376741,20.6765068 198.628219,20.4330183 200.125827,20.4016 L200.125827,19.9146182 C200.125827,19.3805064 200.070845,18.9589834 199.960881,18.6500364 C199.850917,18.3410894 199.659792,18.115928 199.387499,17.9745455 C199.115207,17.8331629 198.732956,17.7624727 198.240736,17.7624727 C197.706624,17.7624727 197.222265,17.8436356 196.787645,18.0059636 C196.353024,18.1682917 195.931501,18.3646534 195.523063,18.5950545 L195.177463,17.9038545 C195.292664,17.7991267 195.533534,17.65251 195.900081,17.464 C196.266628,17.27549 196.685533,17.107928 197.156808,16.9613091 C197.628084,16.8146902 198.083643,16.7413818 198.523499,16.7413818 C199.235648,16.7413818 199.798552,16.8408717 200.212227,17.0398545 C200.625901,17.2388374 200.924371,17.5582523 201.107645,17.9981091 C201.290918,18.4379658 201.382554,19.029669 201.382554,19.7732364 L201.382554,24.9572364 L202.356518,24.9572364 L202.356518,25.5384727 C201.780515,25.6955644 201.293538,25.7741091 200.895572,25.7741091 C200.644225,25.7741091 200.471427,25.7348368 200.377172,25.6562909 C200.282917,25.5777451 200.23579,25.3970923 200.23579,25.1143273 L200.23579,24.5330909 C199.85877,24.8682199 199.44772,25.1640714 199.002627,25.4206545 C198.557534,25.6772376 198.052229,25.8055273 197.486699,25.8055273 C196.732659,25.8055273 196.10692,25.5960748 195.609463,25.1771636 C195.112006,24.7582525 194.863281,24.145604 194.863281,23.3392 Z M197.957972,24.8786909 C198.25121,24.8786909 198.602043,24.7844373 199.010481,24.5959273 C199.41892,24.4074172 199.790698,24.1822559 200.125827,23.9204364 L200.125827,21.1399273 C198.85862,21.1504001 197.897757,21.3389073 197.243208,21.7054545 C196.58866,22.0720018 196.26139,22.5642151 196.26139,23.1821091 C196.26139,23.7790575 196.413243,24.2110532 196.716954,24.4781091 C197.020665,24.745165 197.434333,24.8786909 197.957972,24.8786909 Z M204.508663,17.9509818 L203.299063,17.6839273 L203.299063,16.9770182 L205.294118,16.7256727 L205.341245,16.7256727 L205.639718,16.9770182 L205.639718,17.6682182 L205.624008,18.0609455 C206.011501,17.7258165 206.52466,17.4168741 207.163499,17.1341091 C207.802339,16.851344 208.394042,16.7099636 208.938627,16.7099636 C209.608885,16.7099636 210.124661,16.8382533 210.485972,17.0948364 C210.847283,17.3514195 211.098626,17.7441428 211.240008,18.2730182 C211.381391,18.8018936 211.452081,19.5114137 211.452081,20.4016 L211.452081,24.8472727 L212.630263,24.9572364 L212.630263,25.6327273 L209.127136,25.6327273 L209.127136,24.9572364 L210.179645,24.8472727 L210.179645,20.3858909 C210.179645,19.7261058 210.135136,19.207711 210.046118,18.8306909 C209.957099,18.4536708 209.784301,18.1682919 209.527718,17.9745455 C209.271134,17.780799 208.896738,17.6839273 208.404518,17.6839273 C207.985606,17.6839273 207.532665,17.7886535 207.045681,17.9981091 C206.558697,18.2075647 206.137174,18.4536713 205.781099,18.7364364 L205.781099,24.8315636 L206.927863,24.9572364 L206.927863,25.6327273 L203.456154,25.6327273 L203.456154,24.9572364 L204.508663,24.8315636 L204.508663,17.9509818 Z M217.233027,25.8055273 C216.615133,25.8055273 216.044375,25.6458198 215.520736,25.3264 C214.997097,25.0069802 214.578192,24.5226214 214.264008,23.8733091 C213.949825,23.2239968 213.792736,22.4280774 213.792736,21.4855273 C213.792736,20.5848682 213.976007,19.7706218 214.342554,19.0427636 C214.709101,18.3149055 215.230114,17.7389112 215.905608,17.3147636 C216.581103,16.8906161 217.369168,16.6785455 218.269827,16.6785455 C218.84583,16.6785455 219.400879,16.7413812 219.93499,16.8670545 L219.93499,13.7566545 L218.301245,13.5995636 L218.301245,13.0340364 L220.877536,12.7669818 L220.908954,12.7669818 L221.207427,12.9869091 L221.207427,24.9258182 L222.165681,24.9258182 L222.165681,25.5384727 C222.113317,25.5489455 221.935283,25.590836 221.631572,25.6641455 C221.327861,25.7374549 221.00321,25.7741091 220.657608,25.7741091 C220.416735,25.7741091 220.246554,25.7322186 220.147063,25.6484364 C220.047572,25.5646541 219.997827,25.3813832 219.997827,25.0986182 L219.997827,24.5488 C219.67317,24.9048745 219.277829,25.2033443 218.81179,25.4442182 C218.345752,25.6850921 217.819502,25.8055273 217.233027,25.8055273 Z M217.751427,24.8158545 C218.201756,24.8158545 218.628516,24.7085102 219.031718,24.4938182 C219.43492,24.2791262 219.736007,24.040874 219.93499,23.7790545 L219.93499,17.9981091 C219.851208,17.8514902 219.633901,17.7258187 219.283063,17.6210909 C218.932225,17.5163631 218.557829,17.464 218.159863,17.464 C217.259204,17.464 216.536593,17.7860331 215.992008,18.4301091 C215.447424,19.074185 215.175136,20.0507571 215.175136,21.3598545 C215.175136,22.5328059 215.416006,23.4020335 215.897754,23.9675636 C216.379502,24.5330937 216.997387,24.8158545 217.751427,24.8158545 Z M14.4129539,47.7982545 C13.8578966,47.7982545 13.4389917,47.6699649 13.1562266,47.4133818 C12.8734616,47.1567987 12.7320812,46.6986215 12.7320812,46.0388364 L12.7320812,39.8337455 L11.5381903,39.8337455 L11.5381903,39.2210909 C12.0618293,39.1058903 12.3655353,39.0221094 12.4493175,38.9697455 C12.6064092,38.8859632 12.7216081,38.7236376 12.7949175,38.4827636 C12.8577542,38.3256719 12.9415352,38.0429111 13.046263,37.6344727 C13.1509908,37.2260343 13.2295355,36.9066193 13.2818994,36.6762182 L14.0045175,36.6762182 L14.0045175,38.9069091 L16.7850266,38.9069091 L16.7850266,39.8337455 L14.0045175,39.8337455 L14.0045175,44.9234909 C14.0045175,45.5309121 14.0254628,45.9576715 14.0673539,46.2037818 C14.109245,46.4498921 14.193026,46.6095996 14.3186994,46.6829091 C14.4443727,46.7562185 14.6642978,46.7928727 14.9784812,46.7928727 C15.2821918,46.7928727 15.622552,46.7509822 15.9995721,46.6672 C16.3765922,46.5834178 16.659353,46.4944005 16.847863,46.4001455 L17.0520812,46.9970909 C16.8112073,47.1856009 16.4132476,47.3662537 15.8581903,47.5390545 C15.303133,47.7118554 14.8213923,47.7982545 14.4129539,47.7982545 Z M21.8904812,47.7982545 C20.6756387,47.7982545 19.7409572,47.3819678 19.0864085,46.5493818 C18.4318597,45.7167958 18.1045903,44.609316 18.1045903,43.2269091 C18.1045903,42.3367228 18.2773885,41.5460398 18.6229903,40.8548364 C18.968592,40.1636329 19.4477145,39.626911 20.0603721,39.2446545 C20.6730297,38.8623981 21.3616046,38.6712727 22.1261175,38.6712727 C23.0581949,38.6712727 23.783424,38.9383246 24.3018266,39.4724364 C24.8202292,40.0065481 25.1003719,40.7762859 25.142263,41.7816727 C25.142263,42.4309851 25.1108451,42.8917805 25.0480085,43.1640727 L19.4555721,43.1640727 C19.4555721,44.2637146 19.7042969,45.161742 20.2017539,45.8581818 C20.6992109,46.5546217 21.3982585,46.9028364 22.2989175,46.9028364 C22.7387743,46.9028364 23.1890971,46.8242917 23.6498994,46.6672 C24.1107017,46.5101083 24.4667708,46.3216011 24.7181175,46.1016727 L24.969463,46.6829091 C24.6657524,46.9970925 24.2232841,47.2615262 23.6420448,47.4762182 C23.0608056,47.6909102 22.4769568,47.7982545 21.8904812,47.7982545 Z M23.7284448,42.4257455 C23.7598632,42.2058171 23.7755721,41.9754194 23.7755721,41.7345455 C23.7650993,41.043342 23.6001555,40.4935293 23.2807357,40.0850909 C22.961316,39.6766525 22.4717208,39.4724364 21.8119357,39.4724364 C20.3771649,39.4724364 19.5969545,40.4568629 19.4712812,42.4257455 L23.7284448,42.4257455 Z M27.8442266,35.7493818 L26.5089539,35.608 L26.5089539,35.0267636 L28.8024812,34.7597091 L28.8181903,34.7597091 L29.116663,34.9639273 L29.116663,46.84 L30.5933175,46.9499636 L30.5933175,47.6254545 L26.4618266,47.6254545 L26.4618266,46.9499636 L27.8442266,46.8242909 L27.8442266,35.7493818 Z M33.0125175,35.7493818 L31.6772448,35.608 L31.6772448,35.0267636 L33.9707721,34.7597091 L33.9864812,34.7597091 L34.2849539,34.9639273 L34.2849539,46.84 L35.7616085,46.9499636 L35.7616085,47.6254545 L31.6301175,47.6254545 L31.6301175,46.9499636 L33.0125175,46.8242909 L33.0125175,35.7493818 Z M47.8104812,47.7668364 C47.5381889,47.7668364 47.3392091,47.7197096 47.2135357,47.6254545 C47.0878624,47.5311995 47.0250266,47.3584013 47.0250266,47.1070545 L47.0250266,46.4944 C46.6375338,46.8400017 46.1819747,47.1437078 45.6583357,47.4055273 C45.1346967,47.6673468 44.6110656,47.7982545 44.0874266,47.7982545 C43.1344037,47.7982545 42.4563014,47.5312027 42.0530994,46.9970909 C41.6498973,46.4629791 41.4482994,45.5937515 41.4482994,44.3893818 L41.4482994,39.7709091 L40.521463,39.5038545 L40.521463,38.9226182 L42.422263,38.7184 L42.4379721,38.7184 L42.7207357,38.9069091 L42.7207357,44.2008727 C42.7207357,44.8606578 42.7678625,45.3764345 42.8621175,45.7482182 C42.9563726,46.1200019 43.1291708,46.3949082 43.3805175,46.5729455 C43.6318643,46.7509827 43.998406,46.84 44.4801539,46.84 C44.9409562,46.84 45.3808064,46.7405101 45.7997175,46.5415273 C46.2186287,46.3425445 46.5799342,46.1069105 46.8836448,45.8346182 L46.8836448,39.7709091 L45.6897539,39.5038545 L45.6897539,38.9226182 L47.779063,38.7184 L47.7947721,38.7184 L48.1560812,38.9069091 L48.1560812,46.9342545 L49.1300448,46.9342545 L49.1143357,47.5312 C49.0619718,47.5416728 48.9101188,47.5835633 48.6587721,47.6568727 C48.4074254,47.7301822 48.1246646,47.7668364 47.8104812,47.7668364 Z M51.7691721,46.3844364 C51.8843727,46.5624736 52.125243,46.719563 52.4917903,46.8557091 C52.8583376,46.9918552 53.2510609,47.0599273 53.6699721,47.0599273 C54.9476512,47.0599273 55.5864812,46.5886593 55.5864812,45.6461091 C55.5864812,45.2167251 55.4084466,44.8685104 55.0523721,44.6014545 C54.6962976,44.3343987 54.0888855,44.0385471 53.2301175,43.7138909 C52.3818224,43.4101803 51.7639377,43.0488748 51.3764448,42.6299636 C50.988952,42.2110525 50.7952085,41.6507671 50.7952085,40.9490909 C50.7952085,40.4987614 50.9339707,40.106038 51.2114994,39.7709091 C51.489028,39.4357801 51.8608061,39.1765827 52.3268448,38.9933091 C52.7928835,38.8100354 53.2981876,38.7184 53.8427721,38.7184 C54.3768839,38.7184 54.8245885,38.7655268 55.1858994,38.8597818 C55.5472103,38.9540368 55.9058976,39.0692357 56.2619721,39.2053818 L56.2619721,41.0747636 L55.4922266,41.0747636 L55.209463,39.928 C55.1361535,39.7918539 54.9502645,39.676655 54.6517903,39.5824 C54.3533161,39.488145 54.0260466,39.4410182 53.6699721,39.4410182 C53.1672787,39.4410182 52.7588464,39.5535989 52.444663,39.7787636 C52.1304796,40.0039284 51.9733903,40.3050163 51.9733903,40.6820364 C51.9733903,41.0171653 52.0519349,41.2946898 52.2090266,41.5146182 C52.3661183,41.7345466 52.5598619,41.909963 52.790263,42.0408727 C53.0206642,42.1717825 53.3400791,42.3210173 53.7485175,42.4885818 L54.0469903,42.6142545 C54.6439387,42.8446557 55.1256794,43.0619626 55.4922266,43.2661818 C55.8587739,43.470401 56.16248,43.7374529 56.4033539,44.0673455 C56.6442278,44.397238 56.764663,44.8082884 56.764663,45.3005091 C56.764663,46.0754948 56.4688114,46.685525 55.8770994,47.1306182 C55.2853873,47.5757113 54.4973225,47.7982545 53.5128812,47.7982545 C53.0625517,47.7982545 52.5493932,47.7249462 51.9733903,47.5783273 C51.3973874,47.4317084 50.9680099,47.2850916 50.6852448,47.1384727 L50.6852448,45.1591273 L51.5335357,45.1591273 L51.7691721,46.3844364 Z M61.2417539,38.9069091 L64.6506266,38.9069091 L64.6506266,39.5509818 L63.3938994,39.7394909 L64.7920085,44.6250182 L65.3104085,46.8085818 L65.8288085,44.6093091 L67.3997175,38.9069091 L68.7035721,38.9069091 L70.2744812,44.6093091 L70.7771721,46.8242909 L71.3426994,44.6250182 L72.7250994,39.7552 L71.5154994,39.5509818 L71.5154994,38.9069091 L74.5944812,38.9069091 L74.5944812,39.5509818 L73.7304812,39.7552 L71.279863,47.7511273 L70.0074266,47.7511273 L68.2951357,41.9073455 L67.8552812,39.928 L67.478263,41.9073455 L65.8288085,47.7511273 L64.5877903,47.7511273 L62.0743357,39.7394909 L61.2417539,39.5509818 L61.2417539,38.9069091 Z M76.0711357,35.7493818 L74.6730266,35.608 L74.6730266,35.0267636 L76.9979721,34.7597091 L77.0293903,34.7597091 L77.327863,34.9639273 L77.327863,38.7026909 L77.2964448,40.0065455 C77.6315738,39.7028348 78.1028418,39.4096014 78.710263,39.1268364 C79.3176842,38.8440713 79.9146237,38.7026909 80.5010994,38.7026909 C81.1608845,38.7026909 81.674043,38.8283624 82.0405903,39.0797091 C82.4071376,39.3310558 82.6637168,39.721161 82.8103357,40.2500364 C82.9569546,40.7789117 83.030263,41.4936682 83.030263,42.3943273 L83.030263,46.8242909 L84.1770266,46.9499636 L84.1770266,47.6254545 L80.6581903,47.6254545 L80.6581903,46.9499636 L81.7578266,46.8242909 L81.7578266,42.3786182 C81.7578266,41.7083603 81.713318,41.1847292 81.6242994,40.8077091 C81.5352807,40.430689 81.3598643,40.1479282 81.0980448,39.9594182 C80.8362253,39.7709081 80.4539746,39.6766545 79.9512812,39.6766545 C79.53237,39.6766545 79.0820472,39.7787626 78.6002994,39.9829818 C78.1185515,40.187201 77.6944103,40.4306895 77.327863,40.7134545 L77.327863,46.8242909 L78.4903357,46.9499636 L78.4903357,47.6254545 L75.081463,47.6254545 L75.081463,46.9499636 L76.0711357,46.84 L76.0711357,35.7493818 Z M85.4965903,45.3319273 C85.4965903,44.3160676 85.9992762,43.5803659 87.004663,43.1248 C88.0100498,42.6692341 89.2615282,42.4257456 90.7591357,42.3943273 L90.7591357,41.9073455 C90.7591357,41.3732337 90.7041545,40.9517106 90.5941903,40.6427636 C90.4842261,40.3338166 90.2931007,40.1086553 90.0208085,39.9672727 C89.7485162,39.8258902 89.3662655,39.7552 88.8740448,39.7552 C88.3399331,39.7552 87.8555743,39.8363628 87.4209539,39.9986909 C86.9863336,40.161019 86.5648105,40.3573807 86.1563721,40.5877818 L85.8107721,39.8965818 C85.9259727,39.791854 86.166843,39.6452373 86.5333903,39.4567273 C86.8999376,39.2682172 87.3188425,39.1006553 87.7901175,38.9540364 C88.2613926,38.8074174 88.7169517,38.7341091 89.1568085,38.7341091 C89.8689575,38.7341091 90.4318609,38.833599 90.8455357,39.0325818 C91.2592105,39.2315646 91.5576803,39.5509796 91.7409539,39.9908364 C91.9242276,40.4306931 92.015863,41.0223963 92.015863,41.7659636 L92.015863,46.9499636 L92.9898266,46.9499636 L92.9898266,47.5312 C92.4138238,47.6882917 91.9268468,47.7668364 91.5288812,47.7668364 C91.2775345,47.7668364 91.1047362,47.727564 91.0104812,47.6490182 C90.9162262,47.5704723 90.8690994,47.3898196 90.8690994,47.1070545 L90.8690994,46.5258182 C90.4920793,46.8609471 90.0810289,47.1567987 89.6359357,47.4133818 C89.1908426,47.6699649 88.6855386,47.7982545 88.1200085,47.7982545 C87.3659683,47.7982545 86.7402291,47.5888021 86.2427721,47.1698909 C85.7453151,46.7509797 85.4965903,46.1383313 85.4965903,45.3319273 Z M88.5912812,46.8714182 C88.884519,46.8714182 89.2353519,46.7771646 89.6437903,46.5886545 C90.0522287,46.4001445 90.4240068,46.1749831 90.7591357,45.9131636 L90.7591357,43.1326545 C89.4919294,43.1431273 88.5310663,43.3316345 87.8765175,43.6981818 C87.2219688,44.0647291 86.8946994,44.5569424 86.8946994,45.1748364 C86.8946994,45.7717848 87.0465524,46.2037805 87.350263,46.4708364 C87.6539736,46.7378922 88.0676422,46.8714182 88.5912812,46.8714182 Z M96.8699721,47.7982545 C96.3149148,47.7982545 95.8960099,47.6699649 95.6132448,47.4133818 C95.3304798,47.1567987 95.1890994,46.6986215 95.1890994,46.0388364 L95.1890994,39.8337455 L93.9952085,39.8337455 L93.9952085,39.2210909 C94.5188474,39.1058903 94.8225535,39.0221094 94.9063357,38.9697455 C95.0634274,38.8859632 95.1786263,38.7236376 95.2519357,38.4827636 C95.3147724,38.3256719 95.3985534,38.0429111 95.5032812,37.6344727 C95.608009,37.2260343 95.6865536,36.9066193 95.7389175,36.6762182 L96.4615357,36.6762182 L96.4615357,38.9069091 L99.2420448,38.9069091 L99.2420448,39.8337455 L96.4615357,39.8337455 L96.4615357,44.9234909 C96.4615357,45.5309121 96.482481,45.9576715 96.5243721,46.2037818 C96.5662632,46.4498921 96.6500442,46.6095996 96.7757175,46.6829091 C96.9013909,46.7562185 97.121316,46.7928727 97.4354994,46.7928727 C97.73921,46.7928727 98.0795702,46.7509822 98.4565903,46.6672 C98.8336103,46.5834178 99.1163712,46.4944005 99.3048812,46.4001455 L99.5090994,46.9970909 C99.2682254,47.1856009 98.8702658,47.3662537 98.3152085,47.5390545 C97.7601511,47.7118554 97.2784105,47.7982545 96.8699721,47.7982545 Z M105.164372,35.7493818 L103.766263,35.608 L103.766263,35.0267636 L106.091208,34.7597091 L106.122627,34.7597091 L106.421099,34.9639273 L106.421099,38.7026909 L106.389681,40.0065455 C106.72481,39.7028348 107.196078,39.4096014 107.803499,39.1268364 C108.410921,38.8440713 109.00786,38.7026909 109.594336,38.7026909 C110.254121,38.7026909 110.767279,38.8283624 111.133827,39.0797091 C111.500374,39.3310558 111.756953,39.721161 111.903572,40.2500364 C112.050191,40.7789117 112.123499,41.4936682 112.123499,42.3943273 L112.123499,46.8242909 L113.270263,46.9499636 L113.270263,47.6254545 L109.751427,47.6254545 L109.751427,46.9499636 L110.851063,46.8242909 L110.851063,42.3786182 C110.851063,41.7083603 110.806554,41.1847292 110.717536,40.8077091 C110.628517,40.430689 110.453101,40.1479282 110.191281,39.9594182 C109.929462,39.7709081 109.547211,39.6766545 109.044518,39.6766545 C108.625606,39.6766545 108.175284,39.7787626 107.693536,39.9829818 C107.211788,40.187201 106.787647,40.4306895 106.421099,40.7134545 L106.421099,46.8242909 L107.583572,46.9499636 L107.583572,47.6254545 L104.174699,47.6254545 L104.174699,46.9499636 L105.164372,46.84 L105.164372,35.7493818 Z M114.589827,45.3319273 C114.589827,44.3160676 115.092513,43.5803659 116.097899,43.1248 C117.103286,42.6692341 118.354765,42.4257456 119.852372,42.3943273 L119.852372,41.9073455 C119.852372,41.3732337 119.797391,40.9517106 119.687427,40.6427636 C119.577462,40.3338166 119.386337,40.1086553 119.114045,39.9672727 C118.841753,39.8258902 118.459502,39.7552 117.967281,39.7552 C117.433169,39.7552 116.948811,39.8363628 116.51419,39.9986909 C116.07957,40.161019 115.658047,40.3573807 115.249608,40.5877818 L114.904008,39.8965818 C115.019209,39.791854 115.260079,39.6452373 115.626627,39.4567273 C115.993174,39.2682172 116.412079,39.1006553 116.883354,38.9540364 C117.354629,38.8074174 117.810188,38.7341091 118.250045,38.7341091 C118.962194,38.7341091 119.525097,38.833599 119.938772,39.0325818 C120.352447,39.2315646 120.650917,39.5509796 120.83419,39.9908364 C121.017464,40.4306931 121.109099,41.0223963 121.109099,41.7659636 L121.109099,46.9499636 L122.083063,46.9499636 L122.083063,47.5312 C121.50706,47.6882917 121.020083,47.7668364 120.622118,47.7668364 C120.370771,47.7668364 120.197973,47.727564 120.103718,47.6490182 C120.009463,47.5704723 119.962336,47.3898196 119.962336,47.1070545 L119.962336,46.5258182 C119.585316,46.8609471 119.174265,47.1567987 118.729172,47.4133818 C118.284079,47.6699649 117.778775,47.7982545 117.213245,47.7982545 C116.459205,47.7982545 115.833465,47.5888021 115.336008,47.1698909 C114.838551,46.7509797 114.589827,46.1383313 114.589827,45.3319273 Z M117.684518,46.8714182 C117.977755,46.8714182 118.328588,46.7771646 118.737027,46.5886545 C119.145465,46.4001445 119.517243,46.1749831 119.852372,45.9131636 L119.852372,43.1326545 C118.585166,43.1431273 117.624303,43.3316345 116.969754,43.6981818 C116.315205,44.0647291 115.987936,44.5569424 115.987936,45.1748364 C115.987936,45.7717848 116.139789,46.2037805 116.443499,46.4708364 C116.74721,46.7378922 117.160879,46.8714182 117.684518,46.8714182 Z M131.618481,42.9441455 C131.618481,43.8448045 131.43521,44.6642872 131.068663,45.4026182 C130.702116,46.1409491 130.181103,46.7247979 129.505608,47.1541818 C128.830114,47.5835658 128.057758,47.7982545 127.188518,47.7982545 C126.89528,47.7982545 126.586337,47.7746911 126.261681,47.7275636 C125.937025,47.6804361 125.669973,47.6202185 125.460518,47.5469091 L125.491936,48.8821818 L125.491936,50.5787636 L127.235645,50.7358545 L127.235645,51.4270545 L123.025608,51.4270545 L123.025608,50.7358545 L124.235208,50.5787636 L124.235208,39.9437091 L123.009899,39.6766545 L123.009899,38.9697455 L125.020663,38.7184 L125.052081,38.7184 L125.334845,38.9697455 L125.334845,39.928 C125.669974,39.5823983 126.078406,39.2865467 126.560154,39.0404364 C127.041902,38.794326 127.581242,38.6712727 128.17819,38.6712727 C128.785611,38.6712727 129.351133,38.8231258 129.874772,39.1268364 C130.398411,39.430547 130.819934,39.901815 131.139354,40.5406545 C131.458774,41.1794941 131.618481,41.9806497 131.618481,42.9441455 Z M127.65979,39.6295273 C127.209461,39.6295273 126.790556,39.7237809 126.403063,39.9122909 C126.01557,40.1008009 125.711864,40.3102534 125.491936,40.5406545 L125.491936,46.5258182 C125.575718,46.6619643 125.787789,46.7850176 126.128154,46.8949818 C126.468519,47.004946 126.842916,47.0599273 127.251354,47.0599273 C128.152013,47.0599273 128.877242,46.7274215 129.427063,46.0624 C129.976884,45.3973785 130.25179,44.4155701 130.25179,43.1169455 C130.25179,41.9544669 130.008302,41.0826211 129.521318,40.5013818 C129.034333,39.9201425 128.41383,39.6295273 127.65979,39.6295273 Z M141.420954,42.9441455 C141.420954,43.8448045 141.237683,44.6642872 140.871136,45.4026182 C140.504588,46.1409491 139.983575,46.7247979 139.308081,47.1541818 C138.632587,47.5835658 137.860231,47.7982545 136.99099,47.7982545 C136.697752,47.7982545 136.38881,47.7746911 136.064154,47.7275636 C135.739498,47.6804361 135.472446,47.6202185 135.26299,47.5469091 L135.294408,48.8821818 L135.294408,50.5787636 L137.038118,50.7358545 L137.038118,51.4270545 L132.828081,51.4270545 L132.828081,50.7358545 L134.037681,50.5787636 L134.037681,39.9437091 L132.812372,39.6766545 L132.812372,38.9697455 L134.823136,38.7184 L134.854554,38.7184 L135.137318,38.9697455 L135.137318,39.928 C135.472446,39.5823983 135.880879,39.2865467 136.362627,39.0404364 C136.844375,38.794326 137.383715,38.6712727 137.980663,38.6712727 C138.588084,38.6712727 139.153606,38.8231258 139.677245,39.1268364 C140.200884,39.430547 140.622407,39.901815 140.941827,40.5406545 C141.261246,41.1794941 141.420954,41.9806497 141.420954,42.9441455 Z M137.462263,39.6295273 C137.011933,39.6295273 136.593029,39.7237809 136.205536,39.9122909 C135.818043,40.1008009 135.514337,40.3102534 135.294408,40.5406545 L135.294408,46.5258182 C135.378191,46.6619643 135.590261,46.7850176 135.930627,46.8949818 C136.270992,47.004946 136.645388,47.0599273 137.053827,47.0599273 C137.954486,47.0599273 138.679715,46.7274215 139.229536,46.0624 C139.779357,45.3973785 140.054263,44.4155701 140.054263,43.1169455 C140.054263,41.9544669 139.810775,41.0826211 139.32379,40.5013818 C138.836806,39.9201425 138.216303,39.6295273 137.462263,39.6295273 Z M146.66779,47.7982545 C145.452948,47.7982545 144.518266,47.3819678 143.863718,46.5493818 C143.209169,45.7167958 142.881899,44.609316 142.881899,43.2269091 C142.881899,42.3367228 143.054698,41.5460398 143.400299,40.8548364 C143.745901,40.1636329 144.225024,39.626911 144.837681,39.2446545 C145.450339,38.8623981 146.138914,38.6712727 146.903427,38.6712727 C147.835504,38.6712727 148.560733,38.9383246 149.079136,39.4724364 C149.597538,40.0065481 149.877681,40.7762859 149.919572,41.7816727 C149.919572,42.4309851 149.888154,42.8917805 149.825318,43.1640727 L144.232881,43.1640727 C144.232881,44.2637146 144.481606,45.161742 144.979063,45.8581818 C145.47652,46.5546217 146.175568,46.9028364 147.076227,46.9028364 C147.516083,46.9028364 147.966406,46.8242917 148.427208,46.6672 C148.888011,46.5101083 149.24408,46.3216011 149.495427,46.1016727 L149.746772,46.6829091 C149.443061,46.9970925 149.000593,47.2615262 148.419354,47.4762182 C147.838115,47.6909102 147.254266,47.7982545 146.66779,47.7982545 Z M148.505754,42.4257455 C148.537172,42.2058171 148.552881,41.9754194 148.552881,41.7345455 C148.542408,41.043342 148.377465,40.4935293 148.058045,40.0850909 C147.738625,39.6766525 147.24903,39.4724364 146.589245,39.4724364 C145.154474,39.4724364 144.374264,40.4568629 144.24859,42.4257455 L148.505754,42.4257455 Z M152.323063,39.9437091 L151.113463,39.6766545 L151.113463,38.9697455 L153.108518,38.7184 L153.155645,38.7184 L153.454118,38.9697455 L153.454118,39.6609455 L153.438408,40.0536727 C153.825901,39.7185438 154.33906,39.4096014 154.977899,39.1268364 C155.616739,38.8440713 156.208442,38.7026909 156.753027,38.7026909 C157.423285,38.7026909 157.939061,38.8309805 158.300372,39.0875636 C158.661683,39.3441467 158.913026,39.7368701 159.054408,40.2657455 C159.195791,40.7946208 159.266481,41.504141 159.266481,42.3943273 L159.266481,46.84 L160.444663,46.9499636 L160.444663,47.6254545 L156.941536,47.6254545 L156.941536,46.9499636 L157.994045,46.84 L157.994045,42.3786182 C157.994045,41.7188331 157.949536,41.2004382 157.860518,40.8234182 C157.771499,40.4463981 157.598701,40.1610192 157.342118,39.9672727 C157.085534,39.7735263 156.711138,39.6766545 156.218918,39.6766545 C155.800006,39.6766545 155.347065,39.7813808 154.860081,39.9908364 C154.373097,40.200292 153.951574,40.4463986 153.595499,40.7291636 L153.595499,46.8242909 L154.742263,46.9499636 L154.742263,47.6254545 L151.270554,47.6254545 L151.270554,46.9499636 L152.323063,46.8242909 L152.323063,39.9437091 Z M165.408736,47.7982545 C164.193893,47.7982545 163.259212,47.3819678 162.604663,46.5493818 C161.950114,45.7167958 161.622845,44.609316 161.622845,43.2269091 C161.622845,42.3367228 161.795643,41.5460398 162.141245,40.8548364 C162.486847,40.1636329 162.965969,39.626911 163.578627,39.2446545 C164.191284,38.8623981 164.879859,38.6712727 165.644372,38.6712727 C166.576449,38.6712727 167.301679,38.9383246 167.820081,39.4724364 C168.338484,40.0065481 168.618626,40.7762859 168.660518,41.7816727 C168.660518,42.4309851 168.6291,42.8917805 168.566263,43.1640727 L162.973827,43.1640727 C162.973827,44.2637146 163.222551,45.161742 163.720008,45.8581818 C164.217465,46.5546217 164.916513,46.9028364 165.817172,46.9028364 C166.257029,46.9028364 166.707352,46.8242917 167.168154,46.6672 C167.628956,46.5101083 167.985025,46.3216011 168.236372,46.1016727 L168.487718,46.6829091 C168.184007,46.9970925 167.741539,47.2615262 167.160299,47.4762182 C166.57906,47.6909102 165.995211,47.7982545 165.408736,47.7982545 Z M167.246699,42.4257455 C167.278118,42.2058171 167.293827,41.9754194 167.293827,41.7345455 C167.283354,41.043342 167.11841,40.4935293 166.79899,40.0850909 C166.47957,39.6766525 165.989975,39.4724364 165.33019,39.4724364 C163.895419,39.4724364 163.115209,40.4568629 162.989536,42.4257455 L167.246699,42.4257455 Z M173.530336,47.7982545 C172.912442,47.7982545 172.341684,47.6385471 171.818045,47.3191273 C171.294406,46.9997075 170.875501,46.5153487 170.561318,45.8660364 C170.247134,45.216724 170.090045,44.4208047 170.090045,43.4782545 C170.090045,42.5775955 170.273316,41.7633491 170.639863,41.0354909 C171.00641,40.3076327 171.527423,39.7316385 172.202918,39.3074909 C172.878412,38.8833433 173.666477,38.6712727 174.567136,38.6712727 C175.143139,38.6712727 175.698188,38.7341085 176.232299,38.8597818 L176.232299,35.7493818 L174.598554,35.5922909 L174.598554,35.0267636 L177.174845,34.7597091 L177.206263,34.7597091 L177.504736,34.9796364 L177.504736,46.9185455 L178.46299,46.9185455 L178.46299,47.5312 C178.410626,47.5416728 178.232592,47.5835633 177.928881,47.6568727 C177.625171,47.7301822 177.300519,47.7668364 176.954918,47.7668364 C176.714044,47.7668364 176.543863,47.7249459 176.444372,47.6411636 C176.344881,47.5573814 176.295136,47.3741105 176.295136,47.0913455 L176.295136,46.5415273 C175.97048,46.8976018 175.575138,47.1960715 175.109099,47.4369455 C174.643061,47.6778194 174.116811,47.7982545 173.530336,47.7982545 Z M174.048736,46.8085818 C174.499065,46.8085818 174.925825,46.7012374 175.329027,46.4865455 C175.732229,46.2718535 176.033317,46.0336013 176.232299,45.7717818 L176.232299,39.9908364 C176.148517,39.8442174 175.93121,39.718546 175.580372,39.6138182 C175.229534,39.5090904 174.855138,39.4567273 174.457172,39.4567273 C173.556513,39.4567273 172.833902,39.7787604 172.289318,40.4228364 C171.744733,41.0669123 171.472445,42.0434844 171.472445,43.3525818 C171.472445,44.5255331 171.713315,45.3947608 172.195063,45.9602909 C172.676811,46.525821 173.294696,46.8085818 174.048736,46.8085818 Z M180.945027,47.7982545 C180.704153,47.7982545 180.499937,47.7170917 180.332372,47.5547636 C180.164808,47.3924356 180.081027,47.1803649 180.081027,46.9185455 C180.081027,46.6253076 180.183135,46.379201 180.387354,46.1802182 C180.591573,45.9812354 180.829825,45.8817455 181.102118,45.8817455 C181.384883,45.8817455 181.596953,45.9655264 181.738336,46.1330909 C181.879718,46.3006554 181.950408,46.5101078 181.950408,46.7614545 C181.950408,47.0546924 181.850919,47.300799 181.651936,47.4997818 C181.452953,47.6987646 181.217319,47.7982545 180.945027,47.7982545 Z" id="Recordavoicemessageandtelluswhathappened." fill="#0F007A" fill-rule="nonzero"></path>
                    <g id="icons/chat/record_audio" transform="translate(228.604651, 86.400000)">
                        <circle id="Oval" fill="#651EFF" cx="15.7090909" cy="15.7090909" r="15.7090909"></circle>
                        <circle id="Oval" fill="#FFFFFF" cx="15.7090909" cy="15.7090909" r="6.28363636"></circle>
                    </g>
                </g>
            </g>
        </g>
    </g>
</svg>