<svg width="48" height="48" viewBox="0 0 48 48" fill="none" xmlns="http://www.w3.org/2000/svg"><mask id="a" maskUnits="userSpaceOnUse" x="0" y="0" width="48" height="48"><path fill-rule="evenodd" clip-rule="evenodd" d="M0 0h48v48H0V0z" fill="#fff"/></mask><g mask="url(#a)"><path fill-rule="evenodd" clip-rule="evenodd" d="M48 24c0 13.255-10.745 24-24 24S0 37.255 0 24 10.745 0 24 0s24 10.745 24 24" fill="#1BE9B6"/></g><mask id="b" maskUnits="userSpaceOnUse" x="0" y="0" width="48" height="48"><path fill-rule="evenodd" clip-rule="evenodd" d="M0 48h48V0H0v48z" fill="#fff"/></mask><g mask="url(#b)" fill-rule="evenodd" clip-rule="evenodd" fill="#fff"><path d="M21.847 15.654h4.305v-1h-4.305v1zM30.573 37.894H17.427a2.127 2.127 0 01-2.123-2.124V23.853h1V35.77c0 .62.504 1.124 1.123 1.124h13.146c.62 0 1.123-.504 1.123-1.124V16.831h1v18.94a2.126 2.126 0 01-2.122 2.123"/><path d="M16.304 25.359h-1v-13.13c0-1.17.952-2.122 2.123-2.122h13.147c1.17 0 2.123.952 2.123 2.123v10.817h-1V12.23c0-.62-.504-1.123-1.123-1.123H17.427c-.62 0-1.123.503-1.123 1.123v13.129zM25.523 32.795a1.523 1.523 0 10-3.046 0 1.523 1.523 0 003.046 0"/><path d="M38.003 25.692c-1.585 0-2.403-.696-3.126-1.311-.677-.575-1.26-1.072-2.478-1.072-1.216 0-1.8.497-2.476 1.072-.723.615-1.54 1.31-3.126 1.31-1.584 0-2.402-.695-3.124-1.31-.676-.575-1.26-1.072-2.476-1.072s-1.8.497-2.476 1.072c-.723.615-1.54 1.31-3.125 1.31-1.584 0-2.403-.695-3.124-1.31-.676-.575-1.26-1.072-2.476-1.072v-1c1.584 0 2.403.696 3.124 1.31.676.576 1.26 1.073 2.476 1.073 1.217 0 1.801-.497 2.476-1.072.723-.615 1.541-1.311 3.125-1.311s2.403.696 3.124 1.31c.676.576 1.26 1.073 2.476 1.073 1.217 0 1.802-.497 2.477-1.073.723-.614 1.542-1.31 3.125-1.31 1.585 0 2.404.696 3.126 1.31.677.576 1.261 1.073 2.478 1.073v1z"/></g></svg>