<svg width="48" height="48" viewBox="0 0 48 48" fill="none" xmlns="http://www.w3.org/2000/svg">
<mask id="mask0" mask-type="alpha" maskUnits="userSpaceOnUse" x="0" y="0" width="48" height="48">
<path fill-rule="evenodd" clip-rule="evenodd" d="M0 0H47.9999V47.9998H0V0Z" fill="white"/>
</mask>
<g mask="url(#mask0)">
<path fill-rule="evenodd" clip-rule="evenodd" d="M48 24C48 37.255 37.255 48 24 48C10.745 48 0 37.255 0 24C0 10.745 10.745 0 24 0C37.255 0 48 10.745 48 24" fill="#1BE9B6"/>
</g>
<path fill-rule="evenodd" clip-rule="evenodd" d="M20.5236 10.5459C20.2456 12.0059 19.4026 15.7039 17.6426 18.0909C17.0896 18.9519 16.5236 19.7109 15.9756 20.4449C14.4036 22.5509 13.1626 24.2149 13.1626 27.2359C13.1626 32.6839 18.3286 37.6449 24.0006 37.6449C29.6716 37.6449 34.8376 32.6839 34.8376 27.2359C34.8376 24.5219 31.7916 20.0859 30.5386 18.3769L29.4986 20.9899C29.2816 21.5359 28.7796 21.8689 28.1746 21.8239C27.5916 21.7849 27.1256 21.3919 26.9846 20.8239C26.2096 17.6719 24.3576 12.2839 20.5236 10.5459V10.5459ZM24.0006 38.645C17.8046 38.645 12.1626 33.207 12.1626 27.236C12.1626 23.883 13.5576 22.012 15.1736 19.847C15.7116 19.127 16.2676 18.381 16.8196 17.524C18.8776 14.73 19.6346 9.82904 19.6426 9.78004L19.7316 9.18604L20.2996 9.38204C24.9566 10.986 27.0946 17.089 27.9556 20.584C28.0056 20.789 28.1726 20.822 28.2436 20.827C28.2966 20.83 28.4866 20.827 28.5686 20.62L30.2586 16.375L30.7946 17.056C31.0016 17.317 35.8376 23.494 35.8376 27.236C35.8376 33.207 30.1956 38.645 24.0006 38.645V38.645Z" fill="white"/>
<path fill-rule="evenodd" clip-rule="evenodd" d="M23.7825 23.7319L20.2245 27.7639C19.1955 28.8739 18.6565 30.2839 18.6565 31.8529C18.6565 35.0469 21.0515 37.6459 23.9955 37.6459C26.9235 37.6459 29.3395 35.0439 29.3805 31.8459C29.3805 30.3539 28.8235 28.9019 27.8115 27.7659L23.7825 23.7319ZM23.9955 38.646C20.5005 38.646 17.6565 35.598 17.6565 31.853C17.6565 30.053 18.3045 28.363 19.4835 27.093L23.7375 22.272L28.5395 27.08C29.7335 28.421 30.3805 30.108 30.3805 31.853C30.3315 35.601 27.4675 38.646 23.9955 38.646V38.646Z" fill="white"/>
</svg>
