<svg width="48" height="48" viewBox="0 0 48 48" fill="none" xmlns="http://www.w3.org/2000/svg"><g opacity=".3"><mask id="a" maskUnits="userSpaceOnUse" x="0" y="0" width="48" height="48"><path fill-rule="evenodd" clip-rule="evenodd" d="M0 0h48v48H0V0z" fill="#fff"/></mask><g mask="url(#a)"><path fill-rule="evenodd" clip-rule="evenodd" d="M48 24c0 13.255-10.745 24-24 24S0 37.255 0 24 10.745 0 24 0s24 10.745 24 24" fill="#FF8A80"/></g><path fill-rule="evenodd" clip-rule="evenodd" d="M20.524 10.546c-.278 1.46-1.121 5.158-2.881 7.545-.553.86-1.12 1.62-1.667 2.355-1.572 2.106-2.813 3.769-2.813 6.79 0 5.449 5.166 10.41 10.838 10.41 5.67 0 10.837-4.961 10.837-10.41 0-2.711-3.046-7.15-4.3-8.86l-1.04 2.614c-.216.546-.725.886-1.323.834a1.298 1.298 0 01-1.19-1c-.775-3.152-2.627-8.54-6.461-10.278zM24 38.646c-6.196 0-11.838-5.438-11.838-11.41 0-3.354 1.395-5.224 3.01-7.389.539-.72 1.095-1.466 1.647-2.324 2.057-2.79 2.815-7.694 2.823-7.743l.089-.593.568.195c4.657 1.604 6.795 7.707 7.656 11.202.05.204.217.238.288.242.056.002.243 0 .325-.207l1.69-4.244.536.68c.207.262 5.043 6.439 5.043 10.181 0 5.972-5.642 11.41-11.837 11.41z" fill="#fff"/><path fill-rule="evenodd" clip-rule="evenodd" d="M23.782 23.731l-3.558 4.032c-1.029 1.11-1.568 2.521-1.568 4.09 0 3.193 2.395 5.792 5.34 5.792 2.927 0 5.343-2.602 5.384-5.8a6.147 6.147 0 00-1.569-4.08l-4.029-4.034zm.213 14.914c-3.495 0-6.339-3.047-6.339-6.793 0-1.799.648-3.489 1.827-4.76l4.254-4.82 4.802 4.808c1.194 1.34 1.841 3.029 1.841 4.773-.049 3.748-2.913 6.792-6.385 6.792z" fill="#fff"/></g></svg>