<svg width="48" height="47" viewBox="0 0 48 47" fill="none" xmlns="http://www.w3.org/2000/svg"><mask id="a" maskUnits="userSpaceOnUse" x="0" y="0" width="48" height="47"><path fill-rule="evenodd" clip-rule="evenodd" d="M0 .232h48v46.563H0V.232z" fill="#fff"/></mask><g mask="url(#a)"><path fill-rule="evenodd" clip-rule="evenodd" d="M48 23.514c0 12.858-10.745 23.281-24 23.281S0 36.372 0 23.514C0 10.656 10.745.232 24 .232s24 10.424 24 23.282z" fill="#FF8A80"/></g><path fill-rule="evenodd" clip-rule="evenodd" d="M20.524 10.462c-.278 1.418-1.121 5.004-2.881 7.32-.553.835-1.12 1.572-1.667 2.284-1.572 2.043-2.813 3.656-2.813 6.588 0 5.285 5.166 10.097 10.838 10.097 5.67 0 10.837-4.812 10.837-10.097 0-2.631-3.046-6.936-4.3-8.595l-1.04 2.535c-.216.53-.725.86-1.323.809a1.288 1.288 0 01-1.19-.97c-.775-3.058-2.627-8.285-6.461-9.97zM24 37.722c-6.196 0-11.838-5.276-11.838-11.068 0-3.254 1.395-5.068 3.01-7.168.539-.7 1.095-1.422 1.647-2.255 2.057-2.706 2.815-7.464 2.823-7.512l.089-.575.568.19c4.657 1.555 6.795 7.476 7.656 10.866.05.199.217.23.288.236a.32.32 0 00.325-.201l1.69-4.118.536.66c.207.254 5.043 6.246 5.043 9.877 0 5.792-5.642 11.067-11.837 11.067z" fill="#fff"/><path fill-rule="evenodd" clip-rule="evenodd" d="M23.782 23.253l-3.558 3.912c-1.029 1.076-1.568 2.445-1.568 3.966 0 3.098 2.395 5.62 5.34 5.62 2.927 0 5.343-2.524 5.384-5.627 0-1.447-.557-2.855-1.569-3.959l-4.029-3.912zm.213 14.468c-3.495 0-6.339-2.956-6.339-6.59 0-1.745.648-3.384 1.827-4.617l4.254-4.677L28.54 26.5c1.194 1.3 1.841 2.938 1.841 4.63-.049 3.637-2.913 6.59-6.385 6.59z" fill="#fff"/></svg>