<svg width="48" height="48" viewBox="0 0 48 48" fill="none" xmlns="http://www.w3.org/2000/svg"><mask id="a" maskUnits="userSpaceOnUse" x="0" y="0" width="48" height="48"><path fill-rule="evenodd" clip-rule="evenodd" d="M0 0h48v48H0V0z" fill="#fff"/></mask><g mask="url(#a)"><path fill-rule="evenodd" clip-rule="evenodd" d="M48 24c0 13.255-10.745 24-24 24S0 37.255 0 24 10.745 0 24 0s24 10.745 24 24" fill="#1BE9B6"/></g><path fill-rule="evenodd" clip-rule="evenodd" d="M20.524 10.546c-.278 1.46-1.121 5.158-2.881 7.545-.553.86-1.12 1.62-1.667 2.354-1.572 2.106-2.813 3.77-2.813 6.79 0 5.449 5.166 10.41 10.838 10.41 5.67 0 10.837-4.961 10.837-10.41 0-2.713-3.046-7.15-4.3-8.858l-1.04 2.613a1.287 1.287 0 01-1.323.834 1.298 1.298 0 01-1.19-1c-.775-3.152-2.627-8.54-6.461-10.278zM24 38.645c-6.196 0-11.838-5.438-11.838-11.409 0-3.353 1.395-5.224 3.01-7.389.539-.72 1.095-1.466 1.647-2.323 2.058-2.794 2.815-7.695 2.823-7.744l.089-.594.568.196c4.657 1.604 6.795 7.707 7.656 11.202.05.205.217.238.288.243.053.003.243 0 .325-.207l1.69-4.245.536.681c.207.261 5.043 6.438 5.043 10.18 0 5.971-5.642 11.409-11.837 11.409z" fill="#fff"/><path fill-rule="evenodd" clip-rule="evenodd" d="M23.782 23.732l-3.558 4.032c-1.029 1.11-1.567 2.52-1.567 4.089 0 3.194 2.395 5.793 5.338 5.793 2.928 0 5.345-2.602 5.386-5.8a6.14 6.14 0 00-1.57-4.08l-4.029-4.034zm.213 14.914c-3.495 0-6.338-3.048-6.338-6.793 0-1.8.648-3.49 1.826-4.76l4.255-4.821 4.802 4.808c1.194 1.341 1.84 3.028 1.84 4.773-.049 3.748-2.912 6.793-6.384 6.793z" fill="#fff"/></svg>