<svg width="270" height="258" viewBox="0 0 270 258" xmlns="http://www.w3.org/2000/svg" xmlns:xlink="http://www.w3.org/1999/xlink"><defs><path d="M5.184 0H217.08a5.184 5.184 0 015.184 5.184v54.432a5.184 5.184 0 01-5.184 5.184H5.184A5.184 5.184 0 010 59.616V5.184A5.184 5.184 0 015.184 0z" id="b"/><path id="c" d="M0 31.372h40.7V0H0z"/><path d="M5.184 0H217.08a5.184 5.184 0 015.184 5.184v54.432a5.184 5.184 0 01-5.184 5.184H5.184A5.184 5.184 0 010 59.616V5.184A5.184 5.184 0 015.184 0z" id="f"/><path d="M5.184 0H217.08a5.184 5.184 0 015.184 5.184v54.432a5.184 5.184 0 01-5.184 5.184H5.184A5.184 5.184 0 010 59.616V5.184A5.184 5.184 0 015.184 0z" id="h"/><filter x="-1.6%" y="-3.9%" width="103.1%" height="110.8%" filterUnits="objectBoundingBox" id="a"><feOffset dy="1" in="SourceAlpha" result="shadowOffsetOuter1"/><feGaussianBlur stdDeviation="1" in="shadowOffsetOuter1" result="shadowBlurOuter1"/><feColorMatrix values="0 0 0 0 0 0 0 0 0 0 0 0 0 0 0 0 0 0 0.15 0" in="shadowBlurOuter1"/></filter><filter x="-1.6%" y="-3.9%" width="103.1%" height="110.8%" filterUnits="objectBoundingBox" id="e"><feOffset dy="1" in="SourceAlpha" result="shadowOffsetOuter1"/><feGaussianBlur stdDeviation="1" in="shadowOffsetOuter1" result="shadowBlurOuter1"/><feColorMatrix values="0 0 0 0 0 0 0 0 0 0 0 0 0 0 0 0 0 0 0.15 0" in="shadowBlurOuter1"/></filter><filter x="-1.6%" y="-3.9%" width="103.1%" height="110.8%" filterUnits="objectBoundingBox" id="g"><feOffset dy="1" in="SourceAlpha" result="shadowOffsetOuter1"/><feGaussianBlur stdDeviation="1" in="shadowOffsetOuter1" result="shadowBlurOuter1"/><feColorMatrix values="0 0 0 0 0 0 0 0 0 0 0 0 0 0 0 0 0 0 0.15 0" in="shadowBlurOuter1"/></filter></defs><g fill="none" fill-rule="evenodd"><path d="M10.256 0h249.488c3.567 0 4.86.371 6.163 1.069a7.27 7.27 0 013.024 3.024C269.63 5.396 270 6.689 270 10.256v237.488c0 3.567-.371 4.86-1.069 6.163a7.27 7.27 0 01-3.024 3.024c-1.303.698-2.596 1.069-6.163 1.069H10.256c-3.567 0-4.86-.371-6.163-1.069a7.27 7.27 0 01-3.024-3.024C.37 252.604 0 251.311 0 247.744V10.256c0-3.567.371-4.86 1.069-6.163a7.27 7.27 0 013.024-3.024C5.396.37 6.689 0 10.256 0z" fill="#FFF" fill-rule="nonzero"/><circle fill="#651EFF" cx="186" cy="175" r="68"/><g transform="translate(24 89.984)"><use fill="#000" filter="url(#a)" xlink:href="#b"/><use fill="#FFF" xlink:href="#b"/></g><path d="M233.723 119.12l.458.458-6.06 6.061-6.062-6.06.458-.459 5.603 5.603z" fill="#9B9BAA" fill-rule="nonzero"/><path d="M84.601 118.242c-.67 0-1.246-.164-1.726-.492-.48-.329-.845-.787-1.094-1.374-.249-.588-.373-1.269-.373-2.043 0-.795.152-1.494.456-2.1.304-.604.719-1.07 1.244-1.399a3.24 3.24 0 011.752-.492c.684 0 1.27.159 1.758.477.487.318.857.767 1.109 1.347.252.581.378 1.262.378 2.043 0 .802-.155 1.508-.466 2.12-.311.612-.733 1.084-1.265 1.415a3.284 3.284 0 01-1.773.498zm.166-7.413c-.74 0-1.327.299-1.763.897-.435.598-.653 1.467-.653 2.607 0 .664.093 1.255.28 1.773.187.519.46.923.82 1.213.359.29.787.436 1.285.436.484 0 .905-.133 1.265-.4.36-.266.639-.665.84-1.197.2-.532.3-1.182.3-1.95 0-.67-.093-1.259-.28-1.767-.186-.508-.458-.904-.814-1.187-.356-.283-.782-.425-1.28-.425zm6.46 7.413a2.13 2.13 0 01-1.131-.316c-.346-.211-.622-.53-.83-.96-.207-.428-.31-.953-.31-1.575 0-.595.12-1.132.362-1.612.242-.48.586-.86 1.032-1.14.446-.28.966-.42 1.56-.42.38 0 .747.04 1.1.124v-2.053l-1.079-.104v-.373l1.7-.176h.021l.197.145v7.88h.633v.404c-.035.007-.152.034-.353.083-.2.048-.415.072-.643.072-.159 0-.271-.027-.337-.083-.065-.055-.098-.176-.098-.363v-.362a2.764 2.764 0 01-.783.59 2.236 2.236 0 01-1.042.239zm.341-.653c.297 0 .58-.071.845-.213.266-.141.465-.299.596-.471v-3.816c-.055-.097-.198-.18-.43-.249a2.58 2.58 0 00-.741-.103c-.595 0-1.072.212-1.431.637-.36.425-.54 1.07-.54 1.934 0 .774.16 1.348.478 1.721.318.373.726.56 1.223.56zm6.304.653c-.802 0-1.419-.275-1.85-.824-.433-.55-.649-1.28-.649-2.193 0-.588.114-1.11.342-1.566a2.58 2.58 0 01.95-1.062 2.523 2.523 0 011.363-.379c.615 0 1.093.176 1.435.529.343.353.528.86.555 1.524 0 .429-.02.733-.062.912h-3.691c0 .726.164 1.319.492 1.779.329.46.79.69 1.385.69.29 0 .587-.053.891-.156.304-.104.54-.229.705-.374l.166.384c-.2.207-.492.382-.876.524a3.315 3.315 0 01-1.156.212zm1.213-3.546c.02-.145.031-.297.031-.456-.007-.456-.116-.82-.326-1.089-.211-.27-.534-.404-.97-.404-.947 0-1.462.65-1.545 1.95h2.81zm2.52-1.638l-.799-.176v-.467l1.317-.166h.031l.197.166v.456l-.01.26c.255-.222.594-.425 1.016-.612.421-.187.812-.28 1.171-.28.443 0 .783.085 1.022.254.238.17.404.429.497.778.093.349.14.817.14 1.404v2.935l.778.072v.446h-2.312v-.446l.694-.072v-2.945c0-.435-.029-.778-.088-1.026-.059-.25-.173-.438-.342-.565-.17-.128-.416-.192-.741-.192-.277 0-.576.069-.897.207-.321.138-.6.3-.835.487v4.023l.757.083v.446h-2.291v-.446l.694-.083v-4.541zm8.574 7.87c-1.631 0-2.447-.519-2.447-1.556 0-.31.095-.594.285-.85a2.12 2.12 0 01.68-.601c-.326-.173-.488-.46-.488-.86 0-.257.072-.497.218-.721a1.45 1.45 0 01.56-.514 1.798 1.798 0 01-.763-.648 1.749 1.749 0 01-.274-.98c0-.4.11-.751.331-1.052.222-.3.51-.53.866-.69a2.704 2.704 0 011.115-.238c.643 0 1.158.142 1.545.425.103-.096.264-.191.482-.285.217-.093.45-.14.7-.14h.342v.767h-1.182c.2.277.3.612.3 1.006 0 .408-.103.77-.31 1.084a2.09 2.09 0 01-.835.73 2.57 2.57 0 01-1.156.26c-.284 0-.543-.031-.778-.094-.124.097-.223.21-.295.337a.78.78 0 00-.11.39c0 .262.085.445.255.549.17.103.465.155.886.155h1.224c.642 0 1.118.125 1.425.373.308.25.462.598.462 1.048 0 .373-.135.72-.405 1.042-.27.321-.637.579-1.104.772-.466.194-.976.29-1.53.29zm.072-5.371c.878 0 1.317-.484 1.317-1.452 0-.92-.456-1.379-1.368-1.379-.913 0-1.369.453-1.369 1.358 0 .436.117.79.352 1.063.235.273.591.41 1.068.41zm-.02 4.842c.373 0 .729-.054 1.068-.161a2.01 2.01 0 00.819-.467.967.967 0 00.31-.71c0-.214-.032-.387-.098-.518-.065-.132-.193-.234-.383-.306-.19-.073-.465-.109-.825-.109h-1.285c-.332 0-.584-.02-.757-.062-.339.325-.508.705-.508 1.14 0 .394.124.691.373.892.249.2.677.3 1.286.3zm3.743-3.785c0-.67.331-1.156.995-1.456.663-.301 1.49-.462 2.478-.483v-.321c0-.352-.037-.63-.11-.835a.772.772 0 00-.378-.445c-.18-.094-.432-.14-.756-.14-.353 0-.673.053-.96.16a5.893 5.893 0 00-.834.39l-.228-.457c.076-.07.235-.166.477-.29a5.18 5.18 0 01.83-.332c.31-.097.61-.145.901-.145.47 0 .842.065 1.115.197.273.131.47.342.59.632.122.29.182.681.182 1.172v3.421h.643v.384c-.38.103-.702.155-.964.155-.166 0-.28-.026-.342-.077-.063-.052-.094-.172-.094-.358v-.384c-.248.221-.52.417-.814.586-.293.17-.627.254-1 .254-.498 0-.91-.138-1.239-.415-.328-.276-.492-.68-.492-1.213zm2.042 1.016c.194 0 .425-.062.695-.186.27-.125.515-.273.736-.446v-1.835c-.837.007-1.47.131-1.903.373-.432.242-.648.567-.648.975 0 .394.1.679.3.855.201.176.474.264.82.264zm5.464.612c-.366 0-.643-.085-.83-.254-.186-.17-.28-.472-.28-.907v-4.096h-.787v-.404c.345-.076.546-.131.6-.166.105-.055.18-.162.229-.321.042-.104.097-.29.166-.56.069-.27.12-.48.155-.632h.477v1.472h1.836v.611h-1.836v3.36c0 .4.014.682.042.845.027.162.083.268.166.316.083.048.228.072.435.072.2 0 .425-.027.674-.082.249-.056.436-.114.56-.177l.135.394c-.16.125-.422.244-.788.358a3.281 3.281 0 01-.954.171zm2.478-1.628c0-.67.332-1.156.995-1.456.664-.301 1.49-.462 2.478-.483v-.321c0-.352-.036-.63-.109-.835a.772.772 0 00-.378-.445c-.18-.094-.432-.14-.757-.14-.353 0-.672.053-.959.16a5.893 5.893 0 00-.835.39l-.228-.457c.076-.07.235-.166.477-.29a5.18 5.18 0 01.83-.332c.31-.097.611-.145.902-.145.47 0 .841.065 1.114.197.273.131.47.342.591.632s.182.681.182 1.172v3.421h.642v.384c-.38.103-.701.155-.964.155-.166 0-.28-.026-.342-.077-.062-.052-.093-.172-.093-.358v-.384c-.25.221-.52.417-.814.586-.294.17-.627.254-1 .254-.498 0-.911-.138-1.24-.415-.328-.276-.492-.68-.492-1.213zM126 117.63c.194 0 .425-.062.695-.186.27-.125.515-.273.736-.446v-1.835c-.836.007-1.47.131-1.902.373-.432.242-.648.567-.648.975 0 .394.1.679.3.855.2.176.474.264.82.264zm4.324-4.572l-.798-.176v-.467l1.316-.166h.031l.197.166v.456l-.01.26c.256-.222.594-.425 1.016-.612.422-.187.812-.28 1.172-.28.442 0 .782.085 1.02.254.24.17.405.429.499.778.093.349.14.817.14 1.404v2.935l.777.072v.446h-2.312v-.446l.695-.072v-2.945c0-.435-.03-.778-.088-1.026-.06-.25-.173-.438-.343-.565-.169-.128-.416-.192-.74-.192-.277 0-.576.069-.898.207-.321.138-.6.3-.834.487v4.023l.757.083v.446h-2.292v-.446l.695-.083v-4.541zm8.647 4.717c.643-.359 1.242-.782 1.799-1.27a7.166 7.166 0 001.337-1.519c.335-.525.503-1.009.503-1.451 0-.408-.121-.733-.363-.975s-.587-.362-1.037-.362c-.414 0-.776.084-1.083.254a3.82 3.82 0 00-.824.606l-.29-.394c.255-.283.597-.537 1.026-.762a2.969 2.969 0 011.4-.337c.47 0 .865.088 1.186.264.322.177.56.408.716.695.155.287.233.596.233.928 0 .705-.337 1.436-1.01 2.193-.675.757-1.502 1.422-2.484 1.996l3.349-.218.342-.902.456.093-.249 1.514h-4.883l-.124-.353zm6.158 0c.643-.359 1.243-.782 1.8-1.27a7.166 7.166 0 001.337-1.519c.335-.525.503-1.009.503-1.451 0-.408-.121-.733-.363-.975s-.588-.362-1.037-.362c-.415 0-.776.084-1.084.254a3.82 3.82 0 00-.824.606l-.29-.394c.256-.283.598-.537 1.026-.762a2.969 2.969 0 011.4-.337c.47 0 .866.088 1.187.264.321.177.56.408.715.695.156.287.234.596.234.928 0 .705-.337 1.436-1.011 2.193-.674.757-1.502 1.422-2.483 1.996l3.349-.218.342-.902.456.093-.249 1.514h-4.883l-.125-.353z" fill="#414150" fill-rule="nonzero"/><path d="M82.593 132.68h-.843v-4.364h.843v4.364zm-.861-5.58a.61.61 0 01-.173-.435c0-.17.06-.314.177-.435a.58.58 0 01.431-.182c.17 0 .315.06.436.177a.59.59 0 01.181.44.58.58 0 01-.181.431.602.602 0 01-.436.177.61.61 0 01-.435-.172zm1.905 4.446l.77-.272c.031.236.134.43.31.585.175.154.41.231.707.231.23 0 .411-.056.544-.168a.52.52 0 00.2-.412c0-.29-.188-.478-.563-.563l-.744-.163c-.338-.073-.604-.218-.798-.436a1.147 1.147 0 01-.29-.789c0-.375.153-.698.458-.97.305-.273.67-.409 1.093-.409.278 0 .526.041.744.123.218.081.387.189.508.322s.212.257.272.372c.06.115.106.233.136.354l-.753.28a.907.907 0 00-.063-.212 1.183 1.183 0 00-.14-.232.657.657 0 00-.277-.204 1.084 1.084 0 00-.427-.077.78.78 0 00-.522.172.52.52 0 00-.204.409c0 .278.167.453.5.526l.707.154c.387.085.685.24.894.467.208.227.313.504.313.83 0 .345-.141.657-.422.935-.282.278-.673.417-1.175.417-.538 0-.959-.134-1.261-.404-.303-.269-.475-.558-.517-.866zm8.61-2.576c-.37 0-.683.133-.94.399-.257.266-.385.64-.385 1.125 0 .477.128.852.385 1.125.257.272.573.408.948.408.363 0 .64-.09.83-.272.19-.182.32-.39.386-.626l.753.326a2.06 2.06 0 01-.685.953c-.336.272-.764.408-1.284.408-.635 0-1.161-.22-1.578-.662-.418-.442-.626-.995-.626-1.66 0-.678.208-1.233.626-1.665.417-.432.94-.649 1.57-.649.531 0 .962.136 1.292.409.33.272.546.598.648.98l-.77.326a1.378 1.378 0 00-.382-.653c-.187-.182-.45-.272-.789-.272zm3.827 2.676c.267.272.59.408.971.408s.703-.138.966-.413c.263-.275.395-.657.395-1.147 0-.484-.132-.864-.395-1.139a1.285 1.285 0 00-.966-.413c-.38 0-.703.138-.966.413-.263.275-.395.655-.395 1.139 0 .49.13.874.39 1.152zm-.635-2.803c.424-.442.959-.663 1.606-.663.647 0 1.181.22 1.601.658.42.438.63.99.63 1.656 0 .671-.208 1.226-.625 1.664-.417.439-.953.658-1.606.658-.653 0-1.188-.22-1.606-.658-.417-.438-.626-.993-.626-1.664 0-.666.21-1.216.626-1.651zm8.528-.527l-1.742 4.364h-.862l-1.769-4.364h.962l1.243 3.366 1.252-3.366h.916zm1.234 1.733h2.386a1.16 1.16 0 00-.327-.803c-.205-.208-.496-.313-.87-.313-.34 0-.618.11-.835.331-.218.221-.336.483-.354.785zm2.513 1.134l.735.254a1.932 1.932 0 01-.708.994c-.345.257-.762.385-1.252.385-.61 0-1.13-.21-1.556-.63-.426-.42-.64-.988-.64-1.701 0-.666.206-1.216.618-1.652.41-.435.9-.653 1.47-.653.658 0 1.173.207 1.541.622.37.414.554.969.554 1.664 0 .11-.006.2-.018.273h-3.284c.006.387.134.704.385.952s.561.372.93.372c.623 0 1.031-.293 1.225-.88zm4.273-2.912v.907a2.629 2.629 0 00-.372-.027c-.799 0-1.198.448-1.198 1.343v2.186h-.852v-4.364h.834v.762c.266-.556.702-.834 1.307-.834.096 0 .19.009.28.027zm1.415 1.778h2.386a1.16 1.16 0 00-.327-.803c-.205-.208-.496-.313-.87-.313-.34 0-.617.11-.835.331-.218.221-.336.483-.354.785zm2.513 1.134l.735.254a1.932 1.932 0 01-.708.994c-.345.257-.762.385-1.252.385-.61 0-1.13-.21-1.556-.63-.426-.42-.64-.988-.64-1.701 0-.666.206-1.216.618-1.652.41-.435.9-.653 1.47-.653.659 0 1.173.207 1.542.622.368.414.553.969.553 1.664 0 .11-.006.2-.018.273h-3.284c.006.387.134.704.385.952s.561.372.93.372c.623 0 1.031-.293 1.225-.88zm2.359-.698c0 .46.113.834.34 1.125.227.29.54.435.939.435.38 0 .686-.148.916-.445.23-.296.345-.674.345-1.134 0-.453-.112-.82-.336-1.097-.224-.278-.53-.418-.916-.418-.387 0-.699.143-.935.427-.235.284-.353.653-.353 1.107zm2.549 1.605v-.072c-.115.224-.289.41-.522.558-.233.148-.51.222-.83.222-.623 0-1.123-.22-1.501-.658-.378-.438-.567-.99-.567-1.655 0-.635.193-1.175.58-1.62.387-.444.883-.667 1.488-.667.357 0 .647.071.871.214.224.142.378.316.463.521v-2.821h.843v5.76c0 .297.016.566.046.808h-.826a3.388 3.388 0 01-.045-.59z" fill="#9B9BAA" fill-rule="nonzero"/><g transform="translate(31.128 106.17)"><path d="M10.441 26.36h2.038v-2.416a1.02 1.02 0 00-2.038 0v2.416zm4.299 2.262H8.18v-4.678a3.284 3.284 0 013.28-3.28 3.284 3.284 0 013.28 3.28v4.678z" fill="#FF8A80"/><mask id="d" fill="#fff"><use xlink:href="#c"/></mask><path fill="#FF8A80" mask="url(#d)" d="M1.384 31.372h2.261v-10.56h-2.26z"/><path fill="#AA0045" mask="url(#d)" d="M1.599 23.497L0 21.897l11.493-11.492 9.504 9.504-1.598 1.598-7.906-7.905z"/><path d="M28.185 15.267h2.038v-2.416a1.02 1.02 0 00-2.038 0v2.416zm4.3 2.261h-6.56v-4.677a3.284 3.284 0 013.28-3.28 3.284 3.284 0 013.28 3.28v4.677zM28.185 26.36h2.038v-2.416a1.02 1.02 0 00-2.038 0v2.416zm4.3 2.262h-6.56v-4.678a3.284 3.284 0 013.28-3.28 3.284 3.284 0 013.28 3.28v4.678zM34.72 7.9l-.046-5.818 2.261-.017.045 5.817zM37.036 31.336h2.261V10.408h-2.26zM19.117 31.336h2.261V10.408h-2.26z" fill="#FF8A80" mask="url(#d)"/><path fill="#AA0045" mask="url(#d)" d="M19.308 13.116l-1.599-1.599L29.226 0 40.7 11.474l-1.599 1.599-9.875-9.876z"/></g><g><g transform="translate(24 20)"><use fill="#000" filter="url(#e)" xlink:href="#f"/><use fill="#FFF" xlink:href="#f"/></g><path fill="#651EFF" d="M57.627 54.437l1.599 1.599 7.17-7.17-1.6-1.598z"/><path d="M54.573 45.947c-1.17 0-2.12.952-2.12 2.12 0 1.168.95 2.12 2.12 2.12 1.169 0 2.12-.952 2.12-2.12 0-1.168-.951-2.12-2.12-2.12m0 6.5a4.386 4.386 0 01-4.381-4.38 4.386 4.386 0 014.38-4.38 4.386 4.386 0 014.382 4.38 4.386 4.386 0 01-4.381 4.38" fill="#0F007A"/><path d="M60.508 64.167h-2.26v-6.066a3.679 3.679 0 00-3.675-3.674 3.679 3.679 0 00-3.674 3.674v5.935h-2.262v-5.935a5.942 5.942 0 015.936-5.936 5.942 5.942 0 015.935 5.936v6.066zM40.311 52.494l-7.17-7.17 1.599-1.6 7.17 7.172z" fill="#0F007A"/><path d="M44.963 42.404c-1.169 0-2.12.952-2.12 2.12 0 1.168.951 2.12 2.12 2.12 1.17 0 2.12-.952 2.12-2.12 0-1.168-.95-2.12-2.12-2.12m0 6.5a4.386 4.386 0 01-4.38-4.38 4.386 4.386 0 014.38-4.38 4.386 4.386 0 014.381 4.38 4.386 4.386 0 01-4.38 4.38" fill="#651EFF"/><path d="M50.899 66.146h-2.262V54.558a3.679 3.679 0 00-3.674-3.675 3.679 3.679 0 00-3.674 3.675v2.12h-2.261v-2.12a5.942 5.942 0 015.935-5.936 5.942 5.942 0 015.936 5.936v11.588z" fill="#651EFF"/><path d="M40.17 57.808c-1.17 0-2.12.951-2.12 2.12 0 1.168.95 2.12 2.12 2.12 1.169 0 2.12-.952 2.12-2.12 0-1.169-.951-2.12-2.12-2.12m0 6.5a4.386 4.386 0 01-4.381-4.38 4.386 4.386 0 014.38-4.381 4.386 4.386 0 014.381 4.38 4.386 4.386 0 01-4.38 4.382" fill="#0F007A"/><g fill="#9B9BAA" fill-rule="nonzero"><path d="M233.723 49.136l.458.458-6.06 6.061-6.062-6.06.458-.459 5.603 5.603z"/></g><path d="M83.99 48.258c-.353 0-.664-.031-.934-.093s-.58-.149-.933-.26a4.172 4.172 0 00-.425-.124l.083-1.845h.539l.156 1.358c.13.124.34.231.627.321s.6.135.938.135c.56 0 .989-.128 1.286-.384.297-.255.446-.608.446-1.057 0-.29-.078-.536-.234-.736-.155-.2-.356-.37-.601-.508-.245-.139-.586-.301-1.021-.488a8.349 8.349 0 01-1.042-.518 2.573 2.573 0 01-.752-.7c-.214-.294-.321-.644-.321-1.052 0-.38.103-.719.31-1.016.208-.297.497-.527.866-.69a3.13 3.13 0 011.27-.243c.29 0 .548.022.773.067.225.045.51.116.855.213.187.055.297.086.332.093l-.062 1.7h-.519l-.186-1.285c-.083-.07-.244-.137-.482-.203a2.86 2.86 0 00-.762-.098c-.512 0-.902.105-1.172.316-.27.211-.404.524-.404.938 0 .284.072.52.217.71.146.19.332.351.56.483.228.131.58.307 1.058.529.497.235.886.437 1.166.606.28.17.526.39.736.664.211.273.317.603.317.99 0 .366-.108.717-.322 1.052-.214.335-.525.607-.933.814-.408.207-.885.311-1.43.311zm3.597-3.027c0-.602.126-1.13.378-1.587.253-.456.584-.805.996-1.047a2.51 2.51 0 011.29-.363c.871 0 1.516.284 1.934.85.418.567.627 1.293.627 2.178 0 .601-.126 1.13-.378 1.586a2.695 2.695 0 01-.995 1.047 2.51 2.51 0 01-1.291.363c-.871 0-1.516-.283-1.934-.85-.418-.567-.627-1.293-.627-2.177zm2.613 2.488c.532 0 .943-.204 1.233-.612.29-.408.436-1.002.436-1.783 0-.747-.135-1.358-.404-1.835-.27-.477-.688-.716-1.255-.716-.532 0-.945.204-1.239.612-.294.408-.44 1.002-.44 1.783 0 .754.136 1.367.409 1.84.273.474.693.71 1.26.71zm4.458-4.707H93.61v-.415l1.047-.197v-.508c0-.415.107-.797.321-1.146.215-.349.493-.627.835-.834a2.04 2.04 0 011.654-.228v.85c-.056-.042-.168-.083-.337-.125a2.476 2.476 0 00-.586-.062c-.366 0-.633.097-.798.29-.166.194-.25.522-.25.986v.777h1.504v.612h-1.503v4.614l1.182.072v.446h-2.934v-.446l.912-.083v-4.603zm4.406-1.71c-.373 0-.56-.198-.56-.592a.7.7 0 01.177-.492.616.616 0 01.477-.192c.207 0 .356.057.445.17.09.115.135.255.135.42 0 .215-.057.383-.17.504-.115.12-.279.181-.493.181h-.01zm-.331 1.772l-.81-.176v-.467l1.421-.166h.021l.207.166v5.195l.902.072v.446H97.82v-.446l.913-.083v-4.541zm2.54 3.556c0-.67.331-1.156.995-1.456.664-.301 1.49-.462 2.478-.483v-.321c0-.352-.036-.63-.109-.835a.772.772 0 00-.378-.445c-.18-.094-.432-.14-.757-.14-.353 0-.672.053-.96.16a5.893 5.893 0 00-.834.39l-.228-.457c.076-.07.235-.166.477-.29a5.18 5.18 0 01.83-.332c.31-.097.611-.145.901-.145.47 0 .842.065 1.115.197.273.131.47.342.591.632.12.29.181.681.181 1.172v3.421h.643v.384c-.38.103-.701.155-.964.155-.166 0-.28-.026-.342-.077-.062-.052-.093-.172-.093-.358v-.384c-.25.221-.52.417-.814.586-.294.17-.628.254-1 .254-.499 0-.911-.138-1.24-.415-.328-.276-.492-.68-.492-1.213zm2.042 1.016c.194 0 .425-.062.695-.186.27-.125.515-.273.736-.446v-1.835c-.836.007-1.47.131-1.903.373-.432.242-.648.567-.648.975 0 .394.1.679.301.855.2.176.474.264.82.264z" fill="#414150" fill-rule="nonzero"/><path d="M82.593 62.696h-.843v-4.364h.843v4.364zm-.861-5.58a.61.61 0 01-.173-.435c0-.17.06-.314.177-.435a.58.58 0 01.431-.182c.17 0 .315.06.436.177a.59.59 0 01.181.44.58.58 0 01-.181.431.602.602 0 01-.436.177.61.61 0 01-.435-.172zm1.905 4.446l.77-.272c.031.236.134.43.31.585.175.154.41.231.707.231.23 0 .411-.056.544-.168a.52.52 0 00.2-.412c0-.29-.188-.478-.563-.563l-.744-.163c-.338-.073-.604-.218-.798-.436a1.147 1.147 0 01-.29-.789c0-.375.153-.698.458-.97.305-.273.67-.409 1.093-.409.278 0 .526.041.744.123.218.081.387.189.508.322s.212.257.272.372c.06.115.106.233.136.354l-.753.28a.907.907 0 00-.063-.212 1.183 1.183 0 00-.14-.232.657.657 0 00-.277-.204 1.084 1.084 0 00-.427-.077.78.78 0 00-.522.172.52.52 0 00-.204.409c0 .278.167.453.5.526l.707.154c.387.085.685.24.894.467.208.227.313.504.313.83 0 .345-.141.657-.422.935-.282.278-.673.417-1.175.417-.538 0-.959-.134-1.261-.404-.303-.269-.475-.558-.517-.866zm8.61-2.576c-.37 0-.683.133-.94.399-.257.266-.385.64-.385 1.125 0 .477.128.852.385 1.125.257.272.573.408.948.408.363 0 .64-.09.83-.272.19-.182.32-.39.386-.626l.753.326a2.06 2.06 0 01-.685.953c-.336.272-.764.408-1.284.408-.635 0-1.161-.22-1.578-.662-.418-.442-.626-.995-.626-1.66 0-.678.208-1.233.626-1.665.417-.432.94-.649 1.57-.649.531 0 .962.136 1.292.409.33.272.546.598.648.98l-.77.326a1.378 1.378 0 00-.382-.653c-.187-.182-.45-.272-.789-.272zm3.827 2.676c.267.272.59.408.971.408s.703-.138.966-.413c.263-.275.395-.657.395-1.147 0-.484-.132-.864-.395-1.139a1.285 1.285 0 00-.966-.413c-.38 0-.703.138-.966.413-.263.275-.395.655-.395 1.139 0 .49.13.874.39 1.152zm-.635-2.803c.424-.442.959-.663 1.606-.663.647 0 1.181.22 1.601.658.42.438.63.99.63 1.656 0 .671-.208 1.226-.625 1.664-.417.439-.953.658-1.606.658-.653 0-1.188-.22-1.606-.658-.417-.438-.626-.993-.626-1.664 0-.666.21-1.216.626-1.651zm8.528-.527l-1.742 4.364h-.862l-1.769-4.364h.962l1.243 3.366 1.252-3.366h.916zm1.234 1.733h2.386a1.16 1.16 0 00-.327-.803c-.205-.208-.496-.313-.87-.313-.34 0-.618.11-.835.331-.218.221-.336.483-.354.785zm2.513 1.134l.735.254a1.932 1.932 0 01-.708.994c-.345.257-.762.385-1.252.385-.61 0-1.13-.21-1.556-.63-.426-.42-.64-.988-.64-1.701 0-.666.206-1.216.618-1.652.41-.435.9-.653 1.47-.653.658 0 1.173.207 1.541.622.37.414.554.969.554 1.664 0 .11-.006.2-.018.273h-3.284c.006.387.134.704.385.952s.561.372.93.372c.623 0 1.031-.293 1.225-.88zm4.273-2.912v.907a2.629 2.629 0 00-.372-.027c-.799 0-1.198.448-1.198 1.343v2.186h-.852v-4.364h.834v.762c.266-.556.702-.834 1.307-.834.096 0 .19.009.28.027zm1.415 1.778h2.386a1.16 1.16 0 00-.327-.803c-.205-.208-.496-.313-.87-.313-.34 0-.617.11-.835.331-.218.221-.336.483-.354.785zm2.513 1.134l.735.254a1.932 1.932 0 01-.708.994c-.345.257-.762.385-1.252.385-.61 0-1.13-.21-1.556-.63-.426-.42-.64-.988-.64-1.701 0-.666.206-1.216.618-1.652.41-.435.9-.653 1.47-.653.659 0 1.173.207 1.542.622.368.414.553.969.553 1.664 0 .11-.006.2-.018.273h-3.284c.006.387.134.704.385.952s.561.372.93.372c.623 0 1.031-.293 1.225-.88zm2.359-.698c0 .46.113.834.34 1.125.227.29.54.435.939.435.38 0 .686-.148.916-.445.23-.296.345-.674.345-1.134 0-.453-.112-.82-.336-1.097-.224-.278-.53-.418-.916-.418-.387 0-.699.143-.935.427-.235.284-.353.653-.353 1.107zm2.549 1.605v-.072c-.115.224-.289.41-.522.558-.233.148-.51.222-.83.222-.623 0-1.123-.22-1.501-.658-.378-.438-.567-.99-.567-1.655 0-.635.193-1.175.58-1.62.387-.444.883-.667 1.488-.667.357 0 .647.071.871.214.224.142.378.316.463.521v-2.821h.843v5.76c0 .297.016.566.046.808h-.826a3.388 3.388 0 01-.045-.59z" fill="#9B9BAA" fill-rule="nonzero"/></g><g><g transform="translate(24 159.968)"><use fill="#000" filter="url(#g)" xlink:href="#h"/><use fill="#FFF" xlink:href="#h"/></g><path d="M233.723 189.104l.458.458-6.06 6.061-6.062-6.06.458-.459 5.603 5.603z" fill="#9B9BAA" fill-rule="nonzero"/><path d="M82.755 180.968l-1.15-.114v-.445h2.446l1.607 4.79.384 1.389.342-1.39 1.597-4.79h2.426v.446l-1.14.114.819 6.594.943.104v.446H88.24v-.446l.964-.093-.477-4.728-.228-2.074-.456 1.431-1.876 5.537h-.415l-1.763-4.956-.674-2.012-.207 2.074-.425 4.728 1.016.093v.446h-2.592v-.446l.881-.093.767-6.605zm9.601 9.726c-.097 0-.195-.007-.295-.021a.75.75 0 01-.213-.052v-.767c.083.041.26.062.529.062.214 0 .41-.043.586-.13.176-.086.357-.26.544-.523.187-.263.37-.646.55-1.151H93.6l-1.98-5.194-.487-.135v-.425h2.291v.425l-.84.124 1.089 3.173.54 1.69.517-1.7.975-3.163-.726-.124v-.425h1.991v.425l-.54.124c-.518 1.59-.927 2.832-1.228 3.728-.3.895-.492 1.442-.575 1.643-.242.608-.456 1.076-.643 1.405a2.189 2.189 0 01-.664.751c-.255.173-.577.26-.964.26zm8.46-3.401c.077.117.236.221.477.311.242.09.502.135.778.135.843 0 1.265-.311 1.265-.933a.823.823 0 00-.353-.69c-.235-.176-.635-.371-1.202-.586-.56-.2-.968-.439-1.224-.715-.255-.277-.383-.646-.383-1.11 0-.297.091-.556.274-.777.184-.221.429-.392.737-.513a2.71 2.71 0 011-.182c.353 0 .648.031.887.094.238.062.475.138.71.228v1.234h-.508l-.187-.757c-.048-.09-.171-.166-.368-.228a2.143 2.143 0 00-.648-.094c-.332 0-.601.075-.809.223a.698.698 0 00-.31.596c0 .222.051.405.155.55.103.145.231.26.383.347.152.087.363.185.633.296l.197.083c.394.152.712.295.954.43s.442.31.601.529c.159.217.239.489.239.814 0 .511-.196.914-.586 1.207-.39.294-.91.441-1.56.441-.298 0-.637-.048-1.017-.145-.38-.097-.663-.194-.85-.29v-1.307h.56l.156.809zm6.087.933c-.367 0-.643-.085-.83-.254-.187-.17-.28-.472-.28-.907v-4.096h-.788v-.404c.346-.076.546-.131.602-.166.103-.055.18-.162.228-.321.041-.104.096-.29.166-.56.069-.27.12-.48.155-.632h.477v1.472h1.835v.611h-1.835v3.36c0 .4.014.682.041.845.028.162.083.268.166.316.083.048.228.072.436.072.2 0 .425-.027.674-.082.249-.056.435-.114.56-.177l.134.394c-.159.125-.421.244-.788.358a3.281 3.281 0 01-.953.171zm7.164-.02c-.18 0-.311-.032-.394-.094-.083-.062-.125-.176-.125-.342v-.404a4.101 4.101 0 01-.902.6 2.3 2.3 0 01-1.036.26c-.63 0-1.077-.176-1.343-.529-.266-.352-.4-.926-.4-1.72v-3.049l-.61-.176v-.384l1.254-.135h.01l.187.125v3.494c0 .435.03.776.093 1.021.062.245.176.427.342.544.166.118.408.177.726.177.304 0 .594-.066.87-.197.277-.132.516-.287.716-.467v-4.002l-.788-.176v-.384l1.38-.135h.01l.238.125v5.298h.643l-.01.394a5.714 5.714 0 00-.301.083 1.998 1.998 0 01-.56.072zm2.664-5.226h-1.047v-.415l1.047-.197v-.508c0-.415.108-.797.322-1.146.214-.349.492-.627.834-.834a2.04 2.04 0 011.654-.228v.85c-.055-.042-.167-.083-.337-.125a2.476 2.476 0 00-.586-.062c-.366 0-.632.097-.798.29-.166.194-.249.522-.249.986v.777h1.504v.612h-1.504v4.614l1.182.072v.446h-2.934v-.446l.912-.083v-4.603zm4.096 0h-1.047v-.415l1.047-.197v-.508c0-.415.107-.797.321-1.146.214-.349.493-.627.835-.834a2.04 2.04 0 011.653-.228v.85c-.055-.042-.167-.083-.336-.125a2.476 2.476 0 00-.586-.062c-.367 0-.633.097-.799.29-.165.194-.248.522-.248.986v.777h1.503v.612h-1.503v4.614l1.182.072v.446h-2.935v-.446l.913-.083v-4.603z" fill="#414150" fill-rule="nonzero"/><path d="M82.593 202.664h-.843V198.3h.843v4.364zm-.861-5.58a.61.61 0 01-.173-.435c0-.17.06-.314.177-.435a.58.58 0 01.431-.182c.17 0 .315.06.436.177a.59.59 0 01.181.44.58.58 0 01-.181.431.602.602 0 01-.436.177.61.61 0 01-.435-.172zm1.905 4.446l.77-.272c.031.236.134.43.31.585.175.154.41.231.707.231.23 0 .411-.056.544-.168a.52.52 0 00.2-.412c0-.29-.188-.478-.563-.563l-.744-.163c-.338-.073-.604-.218-.798-.436a1.147 1.147 0 01-.29-.789c0-.375.153-.698.458-.97.305-.273.67-.409 1.093-.409.278 0 .526.041.744.123.218.081.387.189.508.322s.212.257.272.372c.06.115.106.233.136.354l-.753.28a.907.907 0 00-.063-.212 1.183 1.183 0 00-.14-.232.657.657 0 00-.277-.204 1.084 1.084 0 00-.427-.077.78.78 0 00-.522.172.52.52 0 00-.204.409c0 .278.167.453.5.526l.707.154c.387.085.685.24.894.467.208.227.313.504.313.83 0 .345-.141.657-.422.935-.282.278-.673.417-1.175.417-.538 0-.959-.134-1.261-.404-.303-.269-.475-.558-.517-.866zm8.61-2.576c-.37 0-.683.133-.94.399-.257.266-.385.64-.385 1.125 0 .477.128.852.385 1.125.257.272.573.408.948.408.363 0 .64-.09.83-.272.19-.182.32-.39.386-.626l.753.326a2.06 2.06 0 01-.685.953c-.336.272-.764.408-1.284.408-.635 0-1.161-.22-1.578-.662-.418-.442-.626-.995-.626-1.66 0-.678.208-1.233.626-1.665.417-.432.94-.649 1.57-.649.531 0 .962.136 1.292.409.33.272.546.598.648.98l-.77.326a1.378 1.378 0 00-.382-.653c-.187-.182-.45-.272-.789-.272zm3.827 2.676c.267.272.59.408.971.408s.703-.138.966-.413c.263-.275.395-.657.395-1.147 0-.484-.132-.864-.395-1.139a1.285 1.285 0 00-.966-.413c-.38 0-.703.138-.966.413-.263.275-.395.655-.395 1.139 0 .49.13.874.39 1.152zm-.635-2.803c.424-.442.959-.663 1.606-.663.647 0 1.181.22 1.601.658.42.438.63.99.63 1.656 0 .671-.208 1.226-.625 1.664-.417.439-.953.658-1.606.658-.653 0-1.188-.22-1.606-.658-.417-.438-.626-.993-.626-1.664 0-.666.21-1.216.626-1.651zm8.528-.527l-1.742 4.364h-.862l-1.769-4.364h.962l1.243 3.366 1.252-3.366h.916zm1.234 1.733h2.386a1.16 1.16 0 00-.327-.803c-.205-.208-.496-.313-.87-.313-.34 0-.618.11-.835.331-.218.221-.336.483-.354.785zm2.513 1.134l.735.254a1.932 1.932 0 01-.708.994c-.345.257-.762.385-1.252.385-.61 0-1.13-.21-1.556-.63-.426-.42-.64-.988-.64-1.701 0-.666.206-1.216.618-1.652.41-.435.9-.653 1.47-.653.658 0 1.173.207 1.541.622.37.414.554.969.554 1.664 0 .11-.006.2-.018.273h-3.284c.006.387.134.704.385.952s.561.372.93.372c.623 0 1.031-.293 1.225-.88zm4.273-2.912v.907a2.629 2.629 0 00-.372-.027c-.799 0-1.198.448-1.198 1.343v2.186h-.852V198.3h.834v.762c.266-.556.702-.834 1.307-.834.096 0 .19.009.28.027zm1.415 1.778h2.386a1.16 1.16 0 00-.327-.803c-.205-.208-.496-.313-.87-.313-.34 0-.617.11-.835.331-.218.221-.336.483-.354.785zm2.513 1.134l.735.254a1.932 1.932 0 01-.708.994c-.345.257-.762.385-1.252.385-.61 0-1.13-.21-1.556-.63-.426-.42-.64-.988-.64-1.701 0-.666.206-1.216.618-1.652.41-.435.9-.653 1.47-.653.659 0 1.173.207 1.542.622.368.414.553.969.553 1.664 0 .11-.006.2-.018.273h-3.284c.006.387.134.704.385.952s.561.372.93.372c.623 0 1.031-.293 1.225-.88zm2.359-.698c0 .46.113.834.34 1.125.227.29.54.435.939.435.38 0 .686-.148.916-.445.23-.296.345-.674.345-1.134 0-.453-.112-.82-.336-1.097-.224-.278-.53-.418-.916-.418-.387 0-.699.143-.935.427-.235.284-.353.653-.353 1.107zm2.549 1.605v-.072c-.115.224-.289.41-.522.558-.233.148-.51.222-.83.222-.623 0-1.123-.22-1.501-.658-.378-.438-.567-.99-.567-1.655 0-.635.193-1.175.58-1.62.387-.444.883-.667 1.488-.667.357 0 .647.071.871.214.224.142.378.316.463.521v-2.821h.843v5.76c0 .297.016.566.046.808h-.826a3.388 3.388 0 01-.045-.59z" fill="#9B9BAA" fill-rule="nonzero"/><path d="M54.351 206.628a2.591 2.591 0 01-1.315-2.251V195h2.261v9.376c0 .139.087.237.168.283l-1.114 1.968z" fill="#B0FEEB"/><path d="M67.298 206.962h-12.39V204.7h12.39a.325.325 0 00.325-.324V192.12h2.26v12.256a2.588 2.588 0 01-2.585 2.585" fill="#1BE9B6"/><path fill="#009175" d="M59.492 183.481h3.935v-2.26h-3.935zM63.156 200.73a1.696 1.696 0 11-3.392 0 1.696 1.696 0 013.392 0"/><path d="M55.297 195h-2.261v-15.13a2.589 2.589 0 012.586-2.585h11.676a2.589 2.589 0 012.586 2.585v12.25h-2.261v-12.25a.325.325 0 00-.325-.324H55.622a.325.325 0 00-.325.324V195zM35.88 195.831a4.44 4.44 0 00-4.435 4.435 4.44 4.44 0 004.435 4.434 4.44 4.44 0 004.435-4.434 4.44 4.44 0 00-4.435-4.435m0 11.13a6.703 6.703 0 01-6.696-6.695 6.703 6.703 0 016.696-6.696 6.703 6.703 0 016.696 6.696 6.703 6.703 0 01-6.696 6.696" fill="#009175"/><path d="M37.91 199.107l3.925-6.635h6.522l-3.924 6.646-6.524-.011zm14.409-8.896H40.545l-5.212 8.81 1.337 2.345 9.052.015 6.597-11.17z" fill="#1BE9B6"/><path fill="#009175" d="M40.545 190.211H52.32l-6.597 11.17-1.29-2.263 3.925-6.646h-6.522z"/><path d="M54.908 195.831a4.44 4.44 0 00-4.435 4.435 4.44 4.44 0 004.435 4.434 4.44 4.44 0 004.436-4.434 4.44 4.44 0 00-4.436-4.435m0 11.13a6.703 6.703 0 01-6.696-6.695 6.703 6.703 0 016.696-6.696 6.703 6.703 0 016.697 6.696 6.703 6.703 0 01-6.697 6.696" fill="#1BE9B6"/><path fill="#1BE9B6" d="M53.85 200.639l-5.36-14.216h6.807v2.26H51.76l4.207 11.158zM38.271 188.684h5.027v-2.262h-5.027z"/></g></g></svg>