<svg width="540" height="516" viewBox="0 0 540 516" fill="none" xmlns="http://www.w3.org/2000/svg"><rect width="540" height="516" rx="8" fill="#fff"/><path fill-rule="evenodd" clip-rule="evenodd" d="M372 486c75.111 0 136-60.889 136-136 0-75.111-60.889-136-136-136-75.111 0-136 60.889-136 136 0 75.111 60.889 136 136 136z" fill="#651EFF"/><g filter="url(#filter0_d)"><path fill-rule="evenodd" clip-rule="evenodd" d="M48 190.336c0-5.726 4.642-10.368 10.368-10.368H482.16c5.726 0 10.368 4.642 10.368 10.368V299.2c0 5.726-4.642 10.368-10.368 10.368H58.368C52.642 309.568 48 304.926 48 299.2V190.336z" fill="#fff"/></g><path d="M467.443 238.24l.916.917-12.122 12.122-12.122-12.122.916-.917 11.206 11.206 11.206-11.206z" fill="#9B9BAA"/><path d="M169.201 239.595c-1.341 0-2.495-.325-3.463-.975-.954-.664-1.68-1.583-2.177-2.758-.498-1.175-.747-2.537-.747-4.085 0-1.59.304-2.986.912-4.189.609-1.216 1.438-2.149 2.489-2.799 1.05-.664 2.219-.995 3.504-.995 1.369 0 2.537.318 3.505.954.981.635 1.721 1.534 2.218 2.695.512 1.161.768 2.523.768 4.085 0 1.604-.311 3.021-.934 4.251-.622 1.217-1.465 2.157-2.529 2.82-1.065.664-2.247.996-3.546.996zm.332-14.827c-1.48 0-2.655.602-3.526 1.804-.87 1.189-1.306 2.924-1.306 5.205 0 1.327.187 2.509.56 3.546.373 1.037.919 1.845 1.638 2.426.719.581 1.576.871 2.571.871.968 0 1.811-.263 2.53-.788.719-.539 1.279-1.341 1.68-2.405.401-1.065.601-2.364.601-3.899 0-1.341-.187-2.516-.56-3.525-.373-1.023-.919-1.818-1.638-2.385-.705-.566-1.555-.85-2.55-.85zm12.913 14.827a4.309 4.309 0 01-2.26-.623c-.692-.428-1.244-1.071-1.659-1.928-.415-.857-.622-1.908-.622-3.152 0-1.189.242-2.26.725-3.214a5.567 5.567 0 012.053-2.281c.899-.567 1.943-.85 3.131-.85a9.57 9.57 0 012.199.249v-4.106l-2.157-.207v-.747l3.401-.352h.041l.394.29v15.759h1.265v.809c-.069.014-.304.069-.705.166a5.454 5.454 0 01-1.286.145c-.318 0-.546-.055-.684-.166-.124-.11-.187-.352-.187-.726v-.725c-.428.47-.953.864-1.575 1.182-.609.318-1.3.477-2.074.477zm.684-1.307c.595 0 1.155-.138 1.68-.415.539-.29.94-.608 1.203-.953v-7.631c-.111-.194-.401-.36-.871-.498a5.067 5.067 0 00-1.473-.207c-1.189 0-2.142.428-2.861 1.285-.719.844-1.079 2.129-1.079 3.857 0 1.549.318 2.696.954 3.442.636.747 1.452 1.12 2.447 1.12zm12.611 1.307c-1.603 0-2.841-.546-3.712-1.639-.857-1.106-1.285-2.571-1.285-4.396 0-1.175.228-2.218.684-3.131.456-.912 1.085-1.617 1.887-2.115.816-.511 1.728-.767 2.737-.767 1.23 0 2.184.352 2.862 1.057.691.705 1.064 1.722 1.119 3.049 0 .857-.041 1.465-.124 1.824h-7.382c0 1.452.325 2.641.975 3.567.663.912 1.589 1.369 2.778 1.369.581 0 1.175-.104 1.784-.311.608-.208 1.078-.457 1.41-.747l.331.767c-.401.415-.988.768-1.762 1.058a6.708 6.708 0 01-2.302.415zm2.426-7.092c.042-.29.062-.595.062-.913-.013-.912-.235-1.638-.663-2.177-.415-.539-1.058-.809-1.929-.809-1.893 0-2.923 1.3-3.089 3.899h5.619zm5.04-3.276l-1.597-.353v-.933l2.634-.332h.062l.394.332v.912l-.021.519c.512-.443 1.189-.85 2.032-1.224.844-.373 1.625-.56 2.343-.56.885 0 1.563.173 2.033.519.483.332.815.85.995 1.555.193.691.29 1.624.29 2.799v5.869l1.555.145v.891h-4.624v-.891l1.39-.145v-5.889c0-.871-.063-1.556-.187-2.053-.111-.498-.339-.871-.684-1.12-.332-.263-.823-.394-1.473-.394-.553 0-1.154.138-1.804.415a7.378 7.378 0 00-1.659.974v8.046l1.514.166v.891h-4.582v-.891l1.389-.166v-9.082zm17.155 15.738c-3.262 0-4.894-1.037-4.894-3.11 0-.622.187-1.189.56-1.701a4.35 4.35 0 011.369-1.202c-.65-.346-.975-.92-.975-1.721 0-.512.145-.989.436-1.431.29-.456.663-.802 1.12-1.037a3.693 3.693 0 01-1.535-1.286c-.359-.566-.539-1.223-.539-1.969 0-.802.221-1.5.663-2.095a4.254 4.254 0 011.722-1.389 5.474 5.474 0 012.239-.477c1.286 0 2.316.283 3.09.85.207-.193.525-.38.954-.56.442-.193.912-.29 1.41-.29h.684v1.534h-2.364c.401.553.601 1.224.601 2.012 0 .815-.207 1.541-.622 2.177a4.19 4.19 0 01-1.679 1.452c-.692.345-1.459.518-2.302.518a6.042 6.042 0 01-1.555-.187c-.249.194-.45.422-.602.685a1.56 1.56 0 00-.207.767c0 .525.166.892.498 1.099.345.207.94.311 1.783.311h2.447c1.286 0 2.232.249 2.841.746.622.498.933 1.196.933 2.095 0 .746-.27 1.437-.809 2.073-.539.65-1.279 1.168-2.219 1.556-.926.387-1.942.58-3.048.58zm.145-10.741c1.756 0 2.634-.968 2.634-2.903 0-1.839-.913-2.758-2.737-2.758-1.825 0-2.738.905-2.738 2.716 0 .871.236 1.583.706 2.136.47.539 1.181.809 2.135.809zm-.041 9.684c.746 0 1.458-.111 2.136-.332.677-.207 1.223-.519 1.638-.933.415-.401.622-.871.622-1.41 0-.429-.069-.774-.207-1.037-.125-.263-.381-.47-.768-.622-.373-.138-.919-.208-1.638-.208h-2.571c-.664 0-1.168-.041-1.514-.124-.677.65-1.016 1.41-1.016 2.281 0 .788.249 1.382.747 1.783.497.401 1.354.602 2.571.602zm7.479-7.569c0-1.341.663-2.309 1.991-2.903 1.327-.608 2.979-.933 4.955-.975v-.642c0-.705-.076-1.258-.228-1.659-.138-.415-.387-.712-.746-.892-.36-.194-.864-.29-1.514-.29-.705 0-1.348.11-1.928.331-.567.208-1.12.464-1.659.768l-.456-.913c.152-.138.47-.331.953-.58.484-.249 1.037-.47 1.659-.664a6.081 6.081 0 011.804-.29c.94 0 1.68.131 2.219.394.553.263.947.684 1.182 1.265.249.58.373 1.361.373 2.343v6.843h1.286v.767c-.76.207-1.403.311-1.928.311-.332 0-.56-.055-.685-.166-.124-.097-.186-.332-.186-.705v-.767c-.498.442-1.044.836-1.639 1.182-.58.332-1.244.498-1.99.498-.996 0-1.825-.277-2.488-.83-.65-.553-.975-1.362-.975-2.426zm4.085 2.032c.387 0 .85-.124 1.389-.373a7.435 7.435 0 001.472-.892v-3.67c-1.672.014-2.944.263-3.815.746-.857.484-1.286 1.134-1.286 1.95 0 .788.201 1.361.602 1.721.401.345.947.518 1.638.518zm10.92 1.224c-.732 0-1.285-.166-1.659-.498-.373-.346-.559-.954-.559-1.825v-8.191h-1.576v-.808c.691-.152 1.092-.263 1.202-.332.208-.111.36-.325.457-.643.082-.207.193-.581.331-1.12.139-.539.242-.96.311-1.265h.954v2.945h3.67v1.223h-3.67v6.719c0 .802.028 1.368.083 1.7.055.318.166.526.332.622.166.097.456.145.871.145.401 0 .85-.055 1.348-.165.497-.111.871-.229 1.119-.353l.27.788c-.318.249-.843.491-1.576.726-.733.221-1.369.332-1.908.332zm4.961-3.256c0-1.341.664-2.309 1.991-2.903 1.327-.608 2.979-.933 4.956-.975v-.642c0-.705-.076-1.258-.228-1.659-.138-.415-.387-.712-.747-.892-.359-.194-.864-.29-1.513-.29-.705 0-1.348.11-1.929.331-.567.208-1.12.464-1.659.768l-.456-.913c.152-.138.47-.331.954-.58.484-.249 1.037-.47 1.659-.664a6.076 6.076 0 011.804-.29c.94 0 1.68.131 2.219.394.553.263.947.684 1.182 1.265.248.58.373 1.361.373 2.343v6.843h1.285v.767c-.76.207-1.403.311-1.928.311-.332 0-.56-.055-.684-.166-.125-.097-.187-.332-.187-.705v-.767c-.498.442-1.044.836-1.638 1.182-.581.332-1.244.498-1.991.498-.995 0-1.824-.277-2.488-.83-.65-.553-.975-1.362-.975-2.426zm4.085 2.032c.387 0 .851-.124 1.39-.373a7.435 7.435 0 001.472-.892v-3.67c-1.673.014-2.945.263-3.815.746-.858.484-1.286 1.134-1.286 1.95 0 .788.2 1.361.601 1.721.401.345.947.518 1.638.518zm8.64-9.144l-1.597-.353v-.933l2.634-.332h.062l.394.332v.912l-.021.519c.512-.443 1.189-.85 2.032-1.224.844-.373 1.625-.56 2.343-.56.885 0 1.563.173 2.033.519.483.332.815.85.995 1.555.193.691.29 1.624.29 2.799v5.869l1.555.145v.891h-4.624v-.891l1.39-.145v-5.889c0-.871-.063-1.556-.187-2.053-.111-.498-.339-.871-.684-1.12-.332-.263-.823-.394-1.473-.394-.553 0-1.154.138-1.804.415a7.378 7.378 0 00-1.659.974v8.046l1.514.166v.891h-4.582v-.891l1.389-.166v-9.082zm17.307 9.434a20.996 20.996 0 003.587-2.529c1.12-.982 2.011-1.998 2.675-3.049.677-1.05 1.016-2.018 1.016-2.903 0-.815-.242-1.465-.726-1.949s-1.175-.726-2.073-.726c-.83 0-1.556.173-2.178.519a7.491 7.491 0 00-1.638 1.203l-.58-.788c.511-.567 1.195-1.072 2.052-1.514a5.873 5.873 0 012.8-.684c.94 0 1.728.179 2.364.539.649.345 1.126.808 1.431 1.389a3.72 3.72 0 01.476 1.846c0 1.41-.677 2.875-2.032 4.396-1.341 1.506-2.993 2.833-4.956 3.981l6.698-.436.684-1.804.913.187-.498 3.027h-9.767l-.248-.705zm12.312 0a20.996 20.996 0 003.587-2.529c1.12-.982 2.011-1.998 2.675-3.049.677-1.05 1.016-2.018 1.016-2.903 0-.815-.242-1.465-.726-1.949s-1.175-.726-2.073-.726c-.83 0-1.556.173-2.178.519a7.491 7.491 0 00-1.638 1.203l-.58-.788c.511-.567 1.195-1.072 2.052-1.514a5.873 5.873 0 012.8-.684c.94 0 1.728.179 2.364.539.649.345 1.126.808 1.431 1.389a3.72 3.72 0 01.476 1.846c0 1.41-.677 2.875-2.032 4.396-1.341 1.506-2.993 2.833-4.956 3.981l6.698-.436.684-1.804.913.187-.498 3.027h-9.767l-.248-.705z" fill="#414150"/><path d="M162.954 265.093c0-.75.242-1.349.726-1.796.484-.46 1.125-.744 1.923-.853l2.359-.345c.447-.06.671-.278.671-.653 0-.46-.157-.835-.472-1.125-.314-.29-.786-.435-1.415-.435-.58 0-1.04.163-1.379.49-.338.314-.538.737-.599 1.27l-1.632-.381c.084-.835.465-1.512 1.143-2.032.677-.533 1.487-.799 2.431-.799 1.234 0 2.147.303 2.74.907.592.593.889 1.355.889 2.287V266c0 .52.036.998.109 1.434h-1.67a7.245 7.245 0 01-.09-1.18c-.242.387-.599.726-1.071 1.016-.46.291-1.04.436-1.742.436-.859 0-1.56-.254-2.104-.762-.545-.52-.817-1.137-.817-1.851zm3.157 1.179c.762 0 1.373-.205 1.833-.617.459-.411.689-1.064.689-1.959v-.399l-2.667.399c-.387.06-.696.2-.925.417-.23.218-.345.514-.345.889 0 .339.127.635.381.889.266.254.611.381 1.034.381zm-2.068-10.106c0-.29.096-.538.29-.744.206-.205.454-.308.744-.308.302 0 .556.103.762.308.206.206.308.454.308.744 0 .303-.102.557-.308.762a1.07 1.07 0 01-.762.291c-.29 0-.538-.097-.744-.291a1.065 1.065 0 01-.29-.762zm3.393 0c0-.29.096-.538.29-.744.206-.205.46-.308.762-.308.29 0 .538.103.744.308.206.206.308.454.308.744 0 .303-.102.557-.308.762a1.047 1.047 0 01-.744.291 1.07 1.07 0 01-.762-.291 1.065 1.065 0 01-.29-.762zm10.404 2.45v1.814a5.3 5.3 0 00-.744-.054c-1.596 0-2.395.895-2.395 2.685v4.373h-1.705v-8.728h1.669v1.524c.532-1.112 1.403-1.669 2.613-1.669.193 0 .381.018.562.055zm10.745 1.633h-2.105v7.185h-1.76v-7.185h-1.615v-1.543h1.615v-1.469c0-.932.272-1.664.817-2.196.544-.532 1.227-.798 2.05-.798.52 0 .859.06 1.016.181v1.524c-.182-.072-.43-.108-.744-.108a1.49 1.49 0 00-.98.344c-.266.218-.399.599-.399 1.143v1.379h2.105v1.543zm3.27 5.116a2.614 2.614 0 001.941.817c.763 0 1.404-.273 1.924-.817.532-.556.798-1.324.798-2.304 0-.968-.266-1.724-.798-2.268a2.527 2.527 0 00-1.924-.835c-.762 0-1.409.278-1.941.835-.52.544-.78 1.3-.78 2.268 0 .98.26 1.748.78 2.304zm-1.27-5.606c.847-.883 1.917-1.325 3.211-1.325 1.295 0 2.359.442 3.194 1.325.847.871 1.27 1.971 1.27 3.302 0 1.343-.417 2.455-1.252 3.338-.835.871-1.905 1.307-3.212 1.307-1.306 0-2.376-.436-3.211-1.307-.835-.883-1.252-1.995-1.252-3.338 0-1.331.417-2.431 1.252-3.302zm.454-3.593c0-.29.096-.538.29-.744.206-.205.453-.308.744-.308.302 0 .556.103.762.308.205.206.308.454.308.744 0 .303-.103.557-.308.762a1.07 1.07 0 01-.762.291c-.291 0-.538-.097-.744-.291a1.065 1.065 0 01-.29-.762zm3.393 0c0-.29.096-.538.29-.744.205-.205.459-.308.762-.308.29 0 .538.103.744.308.205.206.308.454.308.744 0 .303-.103.557-.308.762a1.047 1.047 0 01-.744.291c-.303 0-.557-.097-.762-.291a1.065 1.065 0 01-.29-.762zm10.854 2.45v1.814a5.296 5.296 0 00-.743-.054c-1.597 0-2.395.895-2.395 2.685v4.373h-1.706v-8.728h1.669v1.524c.532-1.112 1.403-1.669 2.613-1.669.194 0 .381.018.562.055zm1.002 6.55l1.542-.545c.06.472.266.865.617 1.18.351.302.822.453 1.415.453.46 0 .823-.109 1.089-.326.266-.23.399-.508.399-.835 0-.581-.375-.956-1.125-1.125l-1.488-.327c-.677-.145-1.209-.435-1.596-.87-.388-.436-.581-.962-.581-1.579 0-.75.302-1.397.907-1.941.617-.545 1.349-.817 2.196-.817.556 0 1.052.085 1.487.254.436.157.774.369 1.016.635s.424.514.545.744c.121.23.211.466.272.708l-1.506.562a1.677 1.677 0 00-.127-.417 2.093 2.093 0 00-.29-.472 1.194 1.194 0 00-.545-.399 2.06 2.06 0 00-.852-.163c-.424 0-.775.115-1.053.344-.266.23-.399.502-.399.817 0 .556.333.907.998 1.052l1.415.309c.774.169 1.367.484 1.778.943.424.448.635.998.635 1.651 0 .69-.284 1.313-.852 1.869-.557.557-1.337.835-2.341.835-1.077 0-1.917-.266-2.522-.799-.605-.544-.95-1.125-1.034-1.741zm8.299-.073c0-.75.241-1.349.725-1.796.484-.46 1.125-.744 1.924-.853l2.358-.345c.448-.06.672-.278.672-.653 0-.46-.158-.835-.472-1.125-.315-.29-.786-.435-1.415-.435-.581 0-1.041.163-1.379.49-.339.314-.539.737-.599 1.27l-1.633-.381c.085-.835.466-1.512 1.143-2.032.677-.533 1.488-.799 2.431-.799 1.234 0 2.147.303 2.74.907.593.593.889 1.355.889 2.287V266c0 .52.036.998.109 1.434h-1.669a7.13 7.13 0 01-.091-1.18c-.242.387-.599.726-1.07 1.016-.46.291-1.041.436-1.742.436-.859 0-1.561-.254-2.105-.762-.544-.52-.816-1.137-.816-1.851zm3.157 1.179c.762 0 1.372-.205 1.832-.617.46-.411.69-1.064.69-1.959v-.399l-2.668.399c-.387.06-.695.2-.925.417-.23.218-.345.514-.345.889 0 .339.127.635.381.889.266.254.611.381 1.035.381zm-2.069-10.106c0-.29.097-.538.29-.744.206-.205.454-.308.744-.308.303 0 .557.103.762.308.206.206.309.454.309.744 0 .303-.103.557-.309.762a1.066 1.066 0 01-.762.291c-.29 0-.538-.097-.744-.291a1.07 1.07 0 01-.29-.762zm3.393 0c0-.29.097-.538.29-.744.206-.205.46-.308.762-.308.291 0 .539.103.744.308.206.206.309.454.309.744 0 .303-.103.557-.309.762a1.043 1.043 0 01-.744.291 1.07 1.07 0 01-.762-.291 1.07 1.07 0 01-.29-.762zm13.38 2.54l-3.719 3.684 3.792 5.044h-2.141l-2.849-3.847-1.216 1.216v2.631h-1.687v-13.137h1.687v8.274l3.774-3.865h2.359zm6.557-.09v1.814a5.3 5.3 0 00-.744-.054c-1.596 0-2.395.895-2.395 2.685v4.373h-1.705v-8.728h1.669v1.524c.532-1.112 1.403-1.669 2.613-1.669.193 0 .381.018.562.055zm1.274 6.477c0-.75.242-1.349.725-1.796.484-.46 1.125-.744 1.924-.853l2.358-.345c.448-.06.672-.278.672-.653 0-.46-.157-.835-.472-1.125-.314-.29-.786-.435-1.415-.435-.581 0-1.04.163-1.379.49-.339.314-.538.737-.599 1.27l-1.633-.381c.085-.835.466-1.512 1.143-2.032.678-.533 1.488-.799 2.432-.799 1.233 0 2.147.303 2.739.907.593.593.889 1.355.889 2.287V266c0 .52.037.998.109 1.434h-1.669a7.13 7.13 0 01-.091-1.18c-.242.387-.599.726-1.07 1.016-.46.291-1.041.436-1.742.436-.859 0-1.561-.254-2.105-.762-.544-.52-.816-1.137-.816-1.851zm3.157 1.179c.762 0 1.373-.205 1.832-.617.46-.411.69-1.064.69-1.959v-.399l-2.667.399c-.387.06-.696.2-.926.417-.23.218-.344.514-.344.889 0 .339.127.635.381.889.266.254.61.381 1.034.381zm7.9-3.229c0 .919.224 1.669.672 2.25.459.58 1.088.871 1.887.871.762 0 1.373-.297 1.832-.89.46-.592.69-1.348.69-2.268 0-.907-.224-1.639-.672-2.195-.447-.556-1.058-.835-1.832-.835s-1.397.285-1.869.853c-.472.569-.708 1.307-.708 2.214zm5.099 3.211v-.145c-.23.448-.581.823-1.053 1.125-.459.29-1.01.435-1.651.435-1.246 0-2.25-.435-3.012-1.306-.75-.883-1.124-1.99-1.124-3.32 0-1.27.387-2.347 1.161-3.23.774-.895 1.766-1.343 2.975-1.343.714 0 1.295.146 1.742.436.448.278.756.623.926 1.034v-5.643h1.687v11.522c0 .592.03 1.131.091 1.615h-1.651a6.73 6.73 0 01-.091-1.18z" fill="#9B9BAA"/><path fill-rule="evenodd" clip-rule="evenodd" d="M83.538 266.233h4.153v-4.924c0-1.146-.931-2.077-2.076-2.077a2.079 2.079 0 00-2.077 2.077v4.924zm8.76 4.608H78.93v-9.532c0-3.686 3-6.685 6.685-6.685a6.692 6.692 0 016.684 6.685v9.532z" fill="#FF8A80"/><mask id="a" maskUnits="userSpaceOnUse" x="62" y="212" width="84" height="65"><path fill-rule="evenodd" clip-rule="evenodd" d="M62.258 276.446h82.944v-63.934H62.258v63.934z" fill="#fff"/></mask><g mask="url(#a)" fill-rule="evenodd" clip-rule="evenodd"><path d="M65.078 276.446h4.608v-21.522h-4.608v21.522z" fill="#FF8A80"/><path d="M65.516 260.396l-3.258-3.257 23.421-23.423 19.37 19.369-3.258 3.257-16.112-16.11-20.163 20.164z" fill="#AA0045"/><path d="M119.702 243.626h4.153v-4.924a2.078 2.078 0 00-2.076-2.077 2.079 2.079 0 00-2.077 2.077v4.924zm8.761 4.608h-13.369v-9.532c0-3.686 3-6.685 6.685-6.685a6.693 6.693 0 016.684 6.685v9.532zM119.702 266.233h4.153v-4.924a2.078 2.078 0 00-2.076-2.077 2.079 2.079 0 00-2.077 2.077v4.924zm8.761 4.608h-13.369v-9.532c0-3.686 3-6.685 6.685-6.685a6.693 6.693 0 016.684 6.685v9.532zM133.014 228.611l-.092-11.856 4.608-.035.092 11.855-4.608.036zM137.734 276.372h4.608v-42.649h-4.608v42.649zM101.219 276.372h4.608v-42.649h-4.608v42.649z" fill="#FF8A80"/><path d="M101.609 239.241l-3.257-3.258 23.47-23.471 23.384 23.383-3.258 3.258-20.126-20.125-20.213 20.213z" fill="#AA0045"/></g><g><g filter="url(#filter1_d)"><path fill-rule="evenodd" clip-rule="evenodd" d="M48 50.368C48 44.642 52.642 40 58.368 40H482.16c5.726 0 10.368 4.642 10.368 10.368v108.864c0 5.726-4.642 10.368-10.368 10.368H58.368C52.642 169.6 48 164.958 48 159.232V50.368z" fill="#fff"/></g><g fill-rule="evenodd" clip-rule="evenodd"><path d="M116.328 109.738l3.258 3.258 14.612-14.61-3.259-3.259-14.611 14.611z" fill="#651EFF"/><path d="M110.108 92.436a4.325 4.325 0 00-4.32 4.32 4.325 4.325 0 004.32 4.32 4.325 4.325 0 004.32-4.32 4.326 4.326 0 00-4.32-4.32zm0 13.248c-4.923 0-8.928-4.005-8.928-8.928 0-4.922 4.005-8.928 8.928-8.928 4.922 0 8.928 4.006 8.928 8.928 0 4.923-4.006 8.928-8.928 8.928z" fill="#0F007A"/><path d="M122.2 129.568h-4.608v-12.363c0-4.129-3.359-7.488-7.488-7.488-4.129 0-7.488 3.359-7.488 7.488v12.096h-4.608v-12.096c0-6.67 5.426-12.096 12.096-12.096s12.096 5.426 12.096 12.096v12.363zM81.043 105.779L66.43 91.165l3.257-3.258 14.614 14.614-3.258 3.258z" fill="#0F007A"/><path d="M90.522 85.216a4.325 4.325 0 00-4.32 4.32 4.325 4.325 0 004.32 4.32 4.325 4.325 0 004.32-4.32 4.325 4.325 0 00-4.32-4.32zm0 13.248c-4.923 0-8.928-4.005-8.928-8.928 0-4.922 4.005-8.928 8.928-8.928 4.922 0 8.928 4.005 8.928 8.928 0 4.922-4.006 8.928-8.928 8.928z" fill="#651EFF"/><path d="M102.622 133.6h-4.608v-23.616c0-4.129-3.36-7.488-7.488-7.488-4.13 0-7.488 3.359-7.488 7.488v4.32H78.43v-4.32c0-6.67 5.426-12.096 12.096-12.096s12.096 5.426 12.096 12.096V133.6z" fill="#651EFF"/><path d="M80.756 116.608a4.325 4.325 0 00-4.32 4.32 4.325 4.325 0 004.32 4.32 4.325 4.325 0 004.32-4.32 4.325 4.325 0 00-4.32-4.32zm0 13.248c-4.922 0-8.928-4.006-8.928-8.928 0-4.922 4.006-8.928 8.928-8.928 4.923 0 8.928 4.006 8.928 8.928 0 4.922-4.005 8.928-8.928 8.928z" fill="#0F007A"/></g><path d="M467.443 98.272l.916.917-12.122 12.122-12.122-12.122.916-.917 11.206 11.206 11.206-11.206z" fill="#9B9BAA"/><path d="M162.026 102.239a3.864 3.864 0 001.7-.954 3.741 3.741 0 001.058-1.7c.18-.567.29-1.203.332-1.908.055-.705.083-1.88.083-3.525v-9.02l-2.074-.249v-.891h5.785v.891l-1.99.25v10.18c0 .871-.014 1.59-.042 2.157-.027.553-.083 1.05-.166 1.493-.221 1.12-.739 2.025-1.555 2.716-.802.692-1.693 1.127-2.675 1.307l-.456-.747zm8.854-5.868c0-1.34.664-2.309 1.991-2.903 1.327-.608 2.979-.933 4.956-.975v-.642c0-.706-.076-1.258-.228-1.66-.138-.414-.387-.711-.747-.891-.359-.194-.864-.29-1.513-.29-.705 0-1.348.11-1.929.331-.567.208-1.12.464-1.659.768l-.456-.913c.152-.138.47-.331.954-.58.484-.25 1.037-.47 1.659-.664a6.057 6.057 0 011.804-.29c.94 0 1.68.131 2.219.394.553.263.947.684 1.182 1.265.248.58.373 1.361.373 2.343v6.843h1.285v.767c-.76.207-1.403.311-1.928.311-.332 0-.56-.055-.684-.166-.125-.097-.187-.332-.187-.705v-.767c-.498.442-1.044.836-1.638 1.182-.581.332-1.244.497-1.991.497-.995 0-1.824-.276-2.488-.829-.65-.553-.975-1.362-.975-2.426zm4.085 2.032c.387 0 .851-.124 1.39-.373a7.449 7.449 0 001.472-.892v-3.67c-1.673.014-2.945.263-3.815.746-.858.484-1.286 1.134-1.286 1.95 0 .788.2 1.361.601 1.72.401.346.947.52 1.638.52zm12.248 6.594c-3.263 0-4.894-1.037-4.894-3.11 0-.622.187-1.189.56-1.701a4.342 4.342 0 011.369-1.202c-.65-.346-.975-.92-.975-1.721 0-.512.145-.989.436-1.431.29-.456.663-.802 1.119-1.037-.649-.304-1.161-.733-1.534-1.286-.36-.566-.539-1.223-.539-1.97 0-.801.221-1.5.663-2.094a4.25 4.25 0 011.721-1.39 5.484 5.484 0 012.24-.476c1.285 0 2.315.283 3.089.85.208-.193.526-.38.954-.56.443-.193.913-.29 1.41-.29h.685v1.534h-2.364c.401.553.601 1.224.601 2.012 0 .815-.207 1.541-.622 2.177a4.195 4.195 0 01-1.68 1.452c-.691.345-1.458.518-2.301.518a6.065 6.065 0 01-1.555-.187 2.36 2.36 0 00-.602.685 1.564 1.564 0 00-.207.767c0 .525.166.891.497 1.099.346.207.941.31 1.784.31h2.447c1.285 0 2.232.25 2.84.747.623.498.934 1.196.934 2.095 0 .746-.27 1.437-.809 2.073-.539.65-1.279 1.168-2.219 1.556-.926.387-1.942.58-3.048.58zm.145-10.741c1.756 0 2.634-.968 2.634-2.903 0-1.839-.913-2.758-2.738-2.758-1.824 0-2.737.906-2.737 2.716 0 .871.235 1.583.705 2.136.47.54 1.182.809 2.136.809zm-.041 9.684c.746 0 1.458-.111 2.135-.332.678-.208 1.224-.519 1.639-.933.414-.401.622-.871.622-1.41 0-.429-.069-.774-.208-1.037-.124-.263-.38-.47-.767-.622-.373-.138-.919-.208-1.638-.208h-2.571c-.664 0-1.168-.041-1.514-.124-.677.65-1.016 1.41-1.016 2.281 0 .788.249 1.382.746 1.783.498.401 1.355.602 2.572.602z" fill="#414150"/><path d="M162.954 125.125c0-.75.242-1.349.726-1.796.484-.46 1.125-.744 1.923-.853l2.359-.345c.447-.06.671-.278.671-.653 0-.46-.157-.835-.472-1.125-.314-.29-.786-.435-1.415-.435-.58 0-1.04.163-1.379.49-.338.314-.538.737-.599 1.27l-1.632-.381c.084-.835.465-1.512 1.143-2.033.677-.532 1.487-.798 2.431-.798 1.234 0 2.147.303 2.74.907.592.593.889 1.355.889 2.286v4.373c0 .52.036.998.109 1.434h-1.67a7.245 7.245 0 01-.09-1.18c-.242.387-.599.726-1.071 1.016-.46.291-1.04.436-1.742.436-.859 0-1.56-.254-2.104-.762-.545-.52-.817-1.137-.817-1.851zm3.157 1.179c.762 0 1.373-.205 1.833-.617.459-.411.689-1.064.689-1.959v-.399l-2.667.399c-.387.06-.696.199-.925.417-.23.218-.345.514-.345.889 0 .339.127.635.381.889.266.254.611.381 1.034.381zm-2.068-10.106c0-.29.096-.538.29-.744.206-.205.454-.308.744-.308.302 0 .556.103.762.308.206.206.308.454.308.744 0 .303-.102.557-.308.762a1.07 1.07 0 01-.762.291c-.29 0-.538-.097-.744-.291a1.065 1.065 0 01-.29-.762zm3.393 0c0-.29.096-.538.29-.744.206-.205.46-.308.762-.308.29 0 .538.103.744.308.206.206.308.454.308.744 0 .303-.102.557-.308.762a1.047 1.047 0 01-.744.291 1.07 1.07 0 01-.762-.291 1.065 1.065 0 01-.29-.762zm10.404 2.45v1.814a5.3 5.3 0 00-.744-.054c-1.596 0-2.395.895-2.395 2.685v4.373h-1.705v-8.728h1.669v1.524c.532-1.112 1.403-1.669 2.613-1.669.193 0 .381.018.562.055zm10.745 1.633h-2.105v7.185h-1.76v-7.185h-1.615v-1.543h1.615v-1.469c0-.932.272-1.664.817-2.196.544-.532 1.227-.798 2.05-.798.52 0 .859.06 1.016.181v1.524c-.182-.072-.43-.108-.744-.108a1.49 1.49 0 00-.98.344c-.266.218-.399.599-.399 1.143v1.379h2.105v1.543zm3.27 5.116a2.614 2.614 0 001.941.817c.763 0 1.404-.273 1.924-.817.532-.556.798-1.324.798-2.304 0-.968-.266-1.724-.798-2.268a2.527 2.527 0 00-1.924-.835c-.762 0-1.409.278-1.941.835-.52.544-.78 1.3-.78 2.268 0 .98.26 1.748.78 2.304zm-1.27-5.606c.847-.883 1.917-1.325 3.211-1.325 1.295 0 2.359.442 3.194 1.325.847.871 1.27 1.971 1.27 3.302 0 1.343-.417 2.455-1.252 3.338-.835.871-1.905 1.307-3.212 1.307-1.306 0-2.376-.436-3.211-1.307-.835-.883-1.252-1.995-1.252-3.338 0-1.331.417-2.431 1.252-3.302zm.454-3.593c0-.29.096-.538.29-.744.206-.205.453-.308.744-.308.302 0 .556.103.762.308.205.206.308.454.308.744 0 .303-.103.557-.308.762a1.07 1.07 0 01-.762.291c-.291 0-.538-.097-.744-.291a1.065 1.065 0 01-.29-.762zm3.393 0c0-.29.096-.538.29-.744.205-.205.459-.308.762-.308.29 0 .538.103.744.308.205.206.308.454.308.744 0 .303-.103.557-.308.762a1.047 1.047 0 01-.744.291c-.303 0-.557-.097-.762-.291a1.065 1.065 0 01-.29-.762zm10.854 2.45v1.814a5.296 5.296 0 00-.743-.054c-1.597 0-2.395.895-2.395 2.685v4.373h-1.706v-8.728h1.669v1.524c.532-1.112 1.403-1.669 2.613-1.669.194 0 .381.018.562.055zm1.002 6.55l1.542-.545c.06.472.266.865.617 1.18.351.302.822.453 1.415.453.46 0 .823-.109 1.089-.326.266-.23.399-.508.399-.835 0-.581-.375-.956-1.125-1.125l-1.488-.327c-.677-.145-1.209-.435-1.596-.87-.388-.436-.581-.962-.581-1.579 0-.75.302-1.397.907-1.941.617-.545 1.349-.817 2.196-.817.556 0 1.052.085 1.487.254.436.157.774.369 1.016.635s.424.514.545.744c.121.23.211.466.272.708l-1.506.562a1.677 1.677 0 00-.127-.417 2.093 2.093 0 00-.29-.472 1.194 1.194 0 00-.545-.399 2.06 2.06 0 00-.852-.163c-.424 0-.775.115-1.053.344-.266.23-.399.502-.399.817 0 .556.333.907.998 1.052l1.415.309c.774.169 1.367.484 1.778.943.424.448.635.998.635 1.651 0 .69-.284 1.313-.852 1.869-.557.557-1.337.835-2.341.835-1.077 0-1.917-.266-2.522-.799-.605-.544-.95-1.125-1.034-1.741zm8.299-.073c0-.75.241-1.349.725-1.796.484-.46 1.125-.744 1.924-.853l2.358-.345c.448-.06.672-.278.672-.653 0-.46-.158-.835-.472-1.125-.315-.29-.786-.435-1.415-.435-.581 0-1.041.163-1.379.49-.339.314-.539.737-.599 1.27l-1.633-.381c.085-.835.466-1.512 1.143-2.033.677-.532 1.488-.798 2.431-.798 1.234 0 2.147.303 2.74.907.593.593.889 1.355.889 2.286v4.373c0 .52.036.998.109 1.434h-1.669a7.13 7.13 0 01-.091-1.18c-.242.387-.599.726-1.07 1.016-.46.291-1.041.436-1.742.436-.859 0-1.561-.254-2.105-.762-.544-.52-.816-1.137-.816-1.851zm3.157 1.179c.762 0 1.372-.205 1.832-.617.46-.411.69-1.064.69-1.959v-.399l-2.668.399c-.387.06-.695.199-.925.417-.23.218-.345.514-.345.889 0 .339.127.635.381.889.266.254.611.381 1.035.381zm-2.069-10.106c0-.29.097-.538.29-.744.206-.205.454-.308.744-.308.303 0 .557.103.762.308.206.206.309.454.309.744 0 .303-.103.557-.309.762a1.066 1.066 0 01-.762.291c-.29 0-.538-.097-.744-.291a1.07 1.07 0 01-.29-.762zm3.393 0c0-.29.097-.538.29-.744.206-.205.46-.308.762-.308.291 0 .539.103.744.308.206.206.309.454.309.744 0 .303-.103.557-.309.762a1.043 1.043 0 01-.744.291 1.07 1.07 0 01-.762-.291 1.07 1.07 0 01-.29-.762zm13.38 2.54l-3.719 3.684 3.792 5.044h-2.141l-2.849-3.847-1.216 1.216v2.631h-1.687v-13.137h1.687v8.274l3.774-3.865h2.359zm6.557-.09v1.814a5.3 5.3 0 00-.744-.054c-1.596 0-2.395.895-2.395 2.685v4.373h-1.705v-8.728h1.669v1.524c.532-1.112 1.403-1.669 2.613-1.669.193 0 .381.018.562.055zm1.274 6.477c0-.75.242-1.349.725-1.796.484-.46 1.125-.744 1.924-.853l2.358-.345c.448-.06.672-.278.672-.653 0-.46-.157-.835-.472-1.125-.314-.29-.786-.435-1.415-.435-.581 0-1.04.163-1.379.49-.339.314-.538.737-.599 1.27l-1.633-.381c.085-.835.466-1.512 1.143-2.033.678-.532 1.488-.798 2.432-.798 1.233 0 2.147.303 2.739.907.593.593.889 1.355.889 2.286v4.373c0 .52.037.998.109 1.434h-1.669a7.13 7.13 0 01-.091-1.18c-.242.387-.599.726-1.07 1.016-.46.291-1.041.436-1.742.436-.859 0-1.561-.254-2.105-.762-.544-.52-.816-1.137-.816-1.851zm3.157 1.179c.762 0 1.373-.205 1.832-.617.46-.411.69-1.064.69-1.959v-.399l-2.667.399c-.387.06-.696.199-.926.417-.23.218-.344.514-.344.889 0 .339.127.635.381.889.266.254.61.381 1.034.381zm7.9-3.229c0 .919.224 1.669.672 2.25.459.58 1.088.87 1.887.87.762 0 1.373-.296 1.832-.889.46-.592.69-1.348.69-2.268 0-.907-.224-1.639-.672-2.195-.447-.556-1.058-.835-1.832-.835s-1.397.285-1.869.853c-.472.569-.708 1.307-.708 2.214zm5.099 3.211v-.145c-.23.448-.581.823-1.053 1.125-.459.29-1.01.435-1.651.435-1.246 0-2.25-.435-3.012-1.306-.75-.883-1.124-1.99-1.124-3.32 0-1.27.387-2.347 1.161-3.23.774-.895 1.766-1.343 2.975-1.343.714 0 1.295.146 1.742.436.448.278.756.623.926 1.034v-5.643h1.687v11.522c0 .592.03 1.131.091 1.615h-1.651a6.73 6.73 0 01-.091-1.18z" fill="#9B9BAA"/></g><g><g filter="url(#filter2_d)"><path fill-rule="evenodd" clip-rule="evenodd" d="M48 330.304c0-5.726 4.642-10.368 10.368-10.368H482.16c5.726 0 10.368 4.642 10.368 10.368v108.864c0 5.726-4.642 10.368-10.368 10.368H58.368c-5.726 0-10.368-4.642-10.368-10.368V330.304z" fill="#fff"/></g><path d="M467.443 378.208l.916.917-12.122 12.122-12.122-12.122.916-.917 11.206 11.206 11.206-11.206z" fill="#9B9BAA"/><path d="M165.51 365.047l-2.302-.228v-.891h4.894l3.214 9.58.767 2.778.684-2.778 3.194-9.58h4.852v.891l-2.281.228 1.638 13.188 1.887.208v.891h-5.578v-.891l1.929-.187-.954-9.455-.456-4.148-.913 2.862-3.753 11.073h-.83l-3.525-9.912-1.347-4.023-.415 4.148-.85 9.455 2.032.187v.891h-5.184v-.891l1.762-.187 1.535-13.209zm20.065.602c-.746 0-1.12-.394-1.12-1.182 0-.401.118-.726.353-.975.235-.262.553-.394.954-.394.414 0 .712.118.891.353.18.221.27.497.27.829 0 .429-.118.767-.353 1.016-.221.235-.546.353-.974.353h-.021zm-.663 3.546l-1.618-.353v-.933l2.841-.332h.041l.415.332v10.389l1.804.145v.891h-5.308v-.891l1.825-.166v-9.082zm6.266 0l-1.596-.353v-.933l2.633-.332h.062l.394.332v.912l-.02.519c.511-.443 1.188-.85 2.032-1.224.843-.373 1.624-.56 2.343-.56.885 0 1.562.173 2.032.519.484.332.816.85.995 1.555.194.691.291 1.624.291 2.799v5.869l1.555.145v.891h-4.624v-.891l1.389-.145v-5.889c0-.871-.062-1.556-.187-2.053-.11-.498-.338-.871-.684-1.12-.332-.263-.822-.394-1.472-.394-.553 0-1.154.138-1.804.415a7.378 7.378 0 00-1.659.974v8.046l1.514.166v.891h-4.583v-.891l1.389-.166v-9.082zm12.366 7.112c0-1.341.663-2.309 1.99-2.903 1.327-.608 2.979-.933 4.956-.975v-.642c0-.705-.076-1.258-.228-1.659-.138-.415-.387-.712-.746-.892-.36-.193-.864-.29-1.514-.29-.705 0-1.348.11-1.929.332-.566.207-1.119.463-1.658.767l-.457-.913c.152-.138.47-.331.954-.58.484-.249 1.037-.47 1.659-.664a6.081 6.081 0 011.804-.29c.94 0 1.68.131 2.219.394.553.263.947.684 1.182 1.265.249.58.373 1.361.373 2.343v6.843h1.286v.767c-.761.207-1.403.311-1.929.311-.331 0-.56-.055-.684-.166-.124-.097-.187-.332-.187-.705v-.767c-.497.442-1.043.836-1.638 1.182-.58.332-1.244.498-1.99.498-.996 0-1.825-.277-2.489-.83-.649-.553-.974-1.362-.974-2.426zm4.085 2.032c.387 0 .85-.124 1.389-.373a7.435 7.435 0 001.472-.892v-3.67c-1.672.014-2.944.263-3.815.746-.857.484-1.286 1.134-1.286 1.95 0 .788.201 1.361.602 1.721.4.345.946.518 1.638.518zm23.306-5.184c0 1.189-.242 2.274-.726 3.256a5.654 5.654 0 01-2.074 2.301c-.884.567-1.9.851-3.048.851-.387 0-.795-.035-1.223-.104a5.307 5.307 0 01-1.058-.228l.042 1.762v2.24l2.301.207v.913h-5.557v-.913l1.597-.207v-14.038l-1.618-.353v-.933l2.655-.332h.041l.373.332v1.265a5.922 5.922 0 011.618-1.161c.636-.332 1.348-.498 2.136-.498.801 0 1.548.2 2.239.601.691.401 1.244 1.023 1.659 1.867.429.843.643 1.9.643 3.172zm-5.226-4.375c-.594 0-1.147.124-1.659.373-.511.249-.912.525-1.202.83v7.9c.11.18.387.346.829.498.456.138.954.207 1.493.207 1.189 0 2.143-.435 2.862-1.306.732-.885 1.099-2.185 1.099-3.899 0-1.534-.325-2.682-.975-3.442-.636-.774-1.451-1.161-2.447-1.161zm7.196 9.684l1.659-.125v-9.144l-1.597-.353v-.933l2.634-.332h.041l.394.332v.332l-.041 1.576h.041c.028-.028.208-.235.539-.622.346-.401.851-.781 1.514-1.141.678-.359 1.355-.539 2.032-.539.222 0 .429.028.622.083v1.825c-.055-.042-.179-.083-.373-.125a2.605 2.605 0 00-.58-.062c-.788 0-1.459.118-2.012.353a7.613 7.613 0 00-1.534.87v7.859l2.758.166v.85h-6.097v-.87zm10.808 6.034c-.194 0-.394-.014-.602-.042a1.47 1.47 0 01-.414-.103v-1.535c.166.083.518.125 1.057.125.429 0 .816-.09 1.161-.27.36-.166.726-.512 1.099-1.037.374-.525.74-1.292 1.099-2.302h-.912l-3.961-10.388-.974-.27v-.85h4.583v.85l-1.68.249 2.177 6.345 1.078 3.38 1.037-3.401 1.949-6.324-1.451-.249v-.85h3.981v.85l-1.078.249a728.257 728.257 0 01-2.468 7.465c-.594 1.783-.974 2.875-1.14 3.276-.484 1.217-.913 2.15-1.286 2.8-.373.663-.815 1.168-1.327 1.513-.511.346-1.154.519-1.928.519zm12.011-20.84l-1.762-.187v-.767l3.027-.352h.021l.394.269v15.677l1.949.145v.891H253.9v-.891l1.824-.166v-14.619zm5.249 12.649c0-1.341.663-2.309 1.99-2.903 1.327-.608 2.979-.933 4.956-.975v-.642c0-.705-.076-1.258-.228-1.659-.138-.415-.387-.712-.746-.892-.36-.193-.864-.29-1.514-.29-.705 0-1.348.11-1.929.332-.566.207-1.119.463-1.658.767l-.457-.913c.152-.138.47-.331.954-.58.484-.249 1.037-.47 1.659-.664a6.081 6.081 0 011.804-.29c.94 0 1.68.131 2.219.394.553.263.947.684 1.182 1.265.249.58.373 1.361.373 2.343v6.843h1.286v.767c-.761.207-1.403.311-1.929.311-.331 0-.56-.055-.684-.166-.124-.097-.187-.332-.187-.705v-.767c-.497.442-1.043.836-1.638 1.182-.58.332-1.244.498-1.99.498-.996 0-1.825-.277-2.489-.83-.649-.553-.974-1.362-.974-2.426zm4.085 2.032c.387 0 .85-.124 1.389-.373a7.435 7.435 0 001.472-.892v-3.67c-1.672.014-2.944.263-3.815.746-.857.484-1.286 1.134-1.286 1.95 0 .788.201 1.361.602 1.721.4.345.946.518 1.638.518zm7.416.125l1.659-.125v-9.144l-1.597-.353v-.933l2.633-.332h.042l.394.332v.332l-.042 1.576h.042c.027-.028.207-.235.539-.622.346-.401.85-.781 1.514-1.141.677-.359 1.354-.539 2.032-.539.221 0 .428.028.622.083v1.825c-.055-.042-.18-.083-.373-.125a2.614 2.614 0 00-.581-.062c-.788 0-1.458.118-2.011.353a7.62 7.62 0 00-1.535.87v7.859l2.758.166v.85h-6.096v-.87z" fill="#414150"/><path d="M162.954 405.061c0-.75.242-1.349.726-1.796.484-.46 1.125-.744 1.923-.853l2.359-.345c.447-.06.671-.278.671-.653 0-.46-.157-.835-.472-1.125-.314-.29-.786-.435-1.415-.435-.58 0-1.04.163-1.379.49-.338.314-.538.737-.599 1.27l-1.632-.381c.084-.835.465-1.512 1.143-2.032.677-.533 1.487-.799 2.431-.799 1.234 0 2.147.303 2.74.907.592.593.889 1.355.889 2.287v4.372c0 .52.036.998.109 1.434h-1.67a7.245 7.245 0 01-.09-1.18c-.242.387-.599.726-1.071 1.016-.46.291-1.04.436-1.742.436-.859 0-1.56-.254-2.104-.762-.545-.52-.817-1.137-.817-1.851zm3.157 1.179c.762 0 1.373-.205 1.833-.617.459-.411.689-1.064.689-1.959v-.399l-2.667.399c-.387.06-.696.2-.925.417-.23.218-.345.514-.345.889 0 .339.127.635.381.889.266.254.611.381 1.034.381zm-2.068-10.106c0-.29.096-.538.29-.744.206-.205.454-.308.744-.308.302 0 .556.103.762.308.206.206.308.454.308.744 0 .303-.102.557-.308.762a1.07 1.07 0 01-.762.291c-.29 0-.538-.097-.744-.291a1.065 1.065 0 01-.29-.762zm3.393 0c0-.29.096-.538.29-.744.206-.205.46-.308.762-.308.29 0 .538.103.744.308.206.206.308.454.308.744 0 .303-.102.557-.308.762a1.047 1.047 0 01-.744.291 1.07 1.07 0 01-.762-.291 1.065 1.065 0 01-.29-.762zm10.404 2.45v1.814a5.3 5.3 0 00-.744-.054c-1.596 0-2.395.895-2.395 2.685v4.373h-1.705v-8.728h1.669v1.524c.532-1.112 1.403-1.669 2.613-1.669.193 0 .381.018.562.055zm10.745 1.633h-2.105v7.185h-1.76v-7.185h-1.615v-1.543h1.615v-1.469c0-.932.272-1.664.817-2.196.544-.532 1.227-.798 2.05-.798.52 0 .859.06 1.016.181v1.524c-.182-.072-.43-.108-.744-.108-.375 0-.702.115-.98.344-.266.218-.399.599-.399 1.143v1.379h2.105v1.543zm3.27 5.116a2.61 2.61 0 001.941.817c.763 0 1.404-.272 1.924-.817.532-.556.798-1.324.798-2.304 0-.968-.266-1.724-.798-2.268a2.527 2.527 0 00-1.924-.835c-.762 0-1.409.278-1.941.835-.52.544-.78 1.3-.78 2.268 0 .98.26 1.748.78 2.304zm-1.27-5.606c.847-.883 1.917-1.325 3.211-1.325 1.295 0 2.359.442 3.194 1.325.847.871 1.27 1.971 1.27 3.302 0 1.343-.417 2.455-1.252 3.338-.835.871-1.905 1.307-3.212 1.307-1.306 0-2.376-.436-3.211-1.307-.835-.883-1.252-1.995-1.252-3.338 0-1.331.417-2.431 1.252-3.302zm.454-3.593c0-.29.096-.538.29-.744.206-.205.453-.308.744-.308.302 0 .556.103.762.308.205.206.308.454.308.744 0 .303-.103.557-.308.762a1.07 1.07 0 01-.762.291c-.291 0-.538-.097-.744-.291a1.065 1.065 0 01-.29-.762zm3.393 0c0-.29.096-.538.29-.744.205-.205.459-.308.762-.308.29 0 .538.103.744.308.205.206.308.454.308.744 0 .303-.103.557-.308.762a1.047 1.047 0 01-.744.291c-.303 0-.557-.097-.762-.291a1.065 1.065 0 01-.29-.762zm10.854 2.45v1.814a5.296 5.296 0 00-.743-.054c-1.597 0-2.395.895-2.395 2.685v4.373h-1.706v-8.728h1.669v1.524c.532-1.112 1.403-1.669 2.613-1.669.194 0 .381.018.562.055zm1.002 6.55l1.542-.545c.06.472.266.865.617 1.18.351.302.822.453 1.415.453.46 0 .823-.109 1.089-.326.266-.23.399-.508.399-.835 0-.581-.375-.956-1.125-1.125l-1.488-.326c-.677-.146-1.209-.436-1.596-.871-.388-.436-.581-.962-.581-1.579 0-.75.302-1.397.907-1.941.617-.545 1.349-.817 2.196-.817.556 0 1.052.085 1.487.254.436.157.774.369 1.016.635s.424.514.545.744c.121.23.211.466.272.708l-1.506.562a1.677 1.677 0 00-.127-.417 2.115 2.115 0 00-.29-.472 1.194 1.194 0 00-.545-.399 2.06 2.06 0 00-.852-.163c-.424 0-.775.115-1.053.344-.266.23-.399.502-.399.817 0 .556.333.907.998 1.052l1.415.309c.774.169 1.367.484 1.778.943.424.448.635.998.635 1.651 0 .69-.284 1.313-.852 1.869-.557.557-1.337.835-2.341.835-1.077 0-1.917-.266-2.522-.799-.605-.544-.95-1.124-1.034-1.741zm8.299-.073c0-.75.241-1.349.725-1.796.484-.46 1.125-.744 1.924-.853l2.358-.345c.448-.06.672-.278.672-.653 0-.46-.158-.835-.472-1.125-.315-.29-.786-.435-1.415-.435-.581 0-1.041.163-1.379.49-.339.314-.539.737-.599 1.27l-1.633-.381c.085-.835.466-1.512 1.143-2.032.677-.533 1.488-.799 2.431-.799 1.234 0 2.147.303 2.74.907.593.593.889 1.355.889 2.287v4.372c0 .52.036.998.109 1.434h-1.669a7.13 7.13 0 01-.091-1.18c-.242.387-.599.726-1.07 1.016-.46.291-1.041.436-1.742.436-.859 0-1.561-.254-2.105-.762-.544-.52-.816-1.137-.816-1.851zm3.157 1.179c.762 0 1.372-.205 1.832-.617.46-.411.69-1.064.69-1.959v-.399l-2.668.399c-.387.06-.695.2-.925.417-.23.218-.345.514-.345.889 0 .339.127.635.381.889.266.254.611.381 1.035.381zm-2.069-10.106c0-.29.097-.538.29-.744.206-.205.454-.308.744-.308.303 0 .557.103.762.308.206.206.309.454.309.744 0 .303-.103.557-.309.762a1.066 1.066 0 01-.762.291c-.29 0-.538-.097-.744-.291a1.07 1.07 0 01-.29-.762zm3.393 0c0-.29.097-.538.29-.744.206-.205.46-.308.762-.308.291 0 .539.103.744.308.206.206.309.454.309.744 0 .303-.103.557-.309.762a1.043 1.043 0 01-.744.291 1.07 1.07 0 01-.762-.291 1.07 1.07 0 01-.29-.762zm13.38 2.54l-3.719 3.684 3.792 5.044h-2.141l-2.849-3.847-1.216 1.216v2.631h-1.687v-13.137h1.687v8.274l3.774-3.865h2.359zm6.557-.09v1.814a5.3 5.3 0 00-.744-.054c-1.596 0-2.395.895-2.395 2.685v4.373h-1.705v-8.728h1.669v1.524c.532-1.112 1.403-1.669 2.613-1.669.193 0 .381.018.562.055zm1.274 6.477c0-.75.242-1.349.725-1.796.484-.46 1.125-.744 1.924-.853l2.358-.345c.448-.06.672-.278.672-.653 0-.46-.157-.835-.472-1.125-.314-.29-.786-.435-1.415-.435-.581 0-1.04.163-1.379.49-.339.314-.538.737-.599 1.27l-1.633-.381c.085-.835.466-1.512 1.143-2.032.678-.533 1.488-.799 2.432-.799 1.233 0 2.147.303 2.739.907.593.593.889 1.355.889 2.287v4.372c0 .52.037.998.109 1.434h-1.669a7.13 7.13 0 01-.091-1.18c-.242.387-.599.726-1.07 1.016-.46.291-1.041.436-1.742.436-.859 0-1.561-.254-2.105-.762-.544-.52-.816-1.137-.816-1.851zm3.157 1.179c.762 0 1.373-.205 1.832-.617.46-.411.69-1.064.69-1.959v-.399l-2.667.399c-.387.06-.696.2-.926.417-.23.218-.344.514-.344.889 0 .339.127.635.381.889.266.254.61.381 1.034.381zm7.9-3.229c0 .919.224 1.669.672 2.25.459.58 1.088.871 1.887.871.762 0 1.373-.297 1.832-.89.46-.592.69-1.348.69-2.268 0-.907-.224-1.639-.672-2.195-.447-.556-1.058-.835-1.832-.835s-1.397.285-1.869.853c-.472.569-.708 1.307-.708 2.214zm5.099 3.211v-.145c-.23.448-.581.823-1.053 1.125-.459.29-1.01.435-1.651.435-1.246 0-2.25-.435-3.012-1.306-.75-.883-1.124-1.99-1.124-3.32 0-1.27.387-2.347 1.161-3.23.774-.895 1.766-1.343 2.975-1.343.714 0 1.295.146 1.742.436.448.278.756.623.926 1.034v-5.643h1.687v11.522c0 .592.03 1.131.091 1.615h-1.651a6.73 6.73 0 01-.091-1.18zm5.659-4.082h4.772c-.025-.653-.242-1.186-.654-1.597-.411-.423-.991-.635-1.741-.635-.678 0-1.234.224-1.67.671a2.34 2.34 0 00-.707 1.561zm5.026 2.268l1.469.508a3.91 3.91 0 01-1.415 1.996c-.689.508-1.524.762-2.504.762-1.222 0-2.262-.418-3.121-1.252-.846-.847-1.27-1.984-1.27-3.411 0-1.331.412-2.432 1.234-3.302.823-.871 1.802-1.307 2.939-1.307 1.319 0 2.347.417 3.085 1.252.738.823 1.107 1.929 1.107 3.32 0 .218-.012.4-.037.545h-6.568c.012.774.266 1.409.762 1.905.508.496 1.131.744 1.869.744 1.246 0 2.063-.587 2.45-1.76z" fill="#9B9BAA"/><g fill-rule="evenodd" clip-rule="evenodd"><path d="M109.657 414.585a5.282 5.282 0 01-2.68-4.589v-19.108h4.608v19.108c0 .284.176.484.341.577l-2.269 4.012z" fill="#B0FEEB"/><path d="M136.04 415.264h-25.251v-4.608h25.251a.662.662 0 00.661-.66v-24.977h4.608v24.977a5.275 5.275 0 01-5.269 5.268z" fill="#1BE9B6"/><path d="M120.133 367.412h8.019v-4.608h-8.019v4.608zM127.599 402.565a3.456 3.456 0 11-6.911 0 3.456 3.456 0 016.911 0z" fill="#009175"/><path d="M111.585 390.887h-4.608v-30.834a5.275 5.275 0 015.269-5.269h23.796a5.276 5.276 0 015.27 5.269v24.966h-4.608v-24.966a.663.663 0 00-.662-.661h-23.796a.662.662 0 00-.661.661v30.834zM72.014 392.581c-4.984 0-9.039 4.055-9.039 9.038 0 4.983 4.055 9.037 9.039 9.037 4.983 0 9.038-4.054 9.038-9.037 0-4.983-4.055-9.038-9.038-9.038zm0 22.683c-7.525 0-13.647-6.121-13.647-13.645 0-7.526 6.122-13.646 13.647-13.646s13.646 6.12 13.646 13.646c0 7.524-6.121 13.645-13.646 13.645z" fill="#009175"/><path d="M76.15 399.256l8-13.521h13.292l-7.998 13.543-13.294-.022zm29.365-18.129H81.521L70.898 399.08l2.725 4.78 18.448.03 13.444-22.763z" fill="#1BE9B6"/><path d="M81.523 381.127h23.994L92.073 403.89l-2.627-4.612 7.998-13.543H84.151l-2.628-4.608z" fill="#009175"/><path d="M110.795 392.581c-4.984 0-9.039 4.055-9.039 9.038 0 4.983 4.055 9.037 9.039 9.037s9.039-4.054 9.039-9.037c0-4.983-4.055-9.038-9.039-9.038zm0 22.683c-7.525 0-13.647-6.121-13.647-13.645 0-7.526 6.122-13.646 13.647-13.646s13.647 6.12 13.647 13.646c0 7.524-6.122 13.645-13.647 13.645z" fill="#1BE9B6"/><path d="M108.637 402.378l-10.926-28.972h13.873v4.608h-7.211l8.574 22.738-4.31 1.626zM76.89 378.014h10.245v-4.608H76.891v4.608z" fill="#1BE9B6"/></g></g><defs><filter id="filter0_d" x="44" y="177.968" width="452.528" height="137.6" filterUnits="userSpaceOnUse" color-interpolation-filters="sRGB"><feFlood flood-opacity="0" result="BackgroundImageFix"/><feColorMatrix in="SourceAlpha" values="0 0 0 0 0 0 0 0 0 0 0 0 0 0 0 0 0 0 127 0"/><feOffset dy="1"/><feGaussianBlur stdDeviation="1"/><feColorMatrix values="0 0 0 0 0 0 0 0 0 0 0 0 0 0 0 0 0 0 0.15 0"/><feBlend in2="BackgroundImageFix" result="effect1_dropShadow"/><feBlend in="SourceGraphic" in2="effect1_dropShadow" result="shape"/></filter><filter id="filter1_d" x="44" y="38" width="452.528" height="137.6" filterUnits="userSpaceOnUse" color-interpolation-filters="sRGB"><feFlood flood-opacity="0" result="BackgroundImageFix"/><feColorMatrix in="SourceAlpha" values="0 0 0 0 0 0 0 0 0 0 0 0 0 0 0 0 0 0 127 0"/><feOffset dy="1"/><feGaussianBlur stdDeviation="1"/><feColorMatrix values="0 0 0 0 0 0 0 0 0 0 0 0 0 0 0 0 0 0 0.15 0"/><feBlend in2="BackgroundImageFix" result="effect1_dropShadow"/><feBlend in="SourceGraphic" in2="effect1_dropShadow" result="shape"/></filter><filter id="filter2_d" x="44" y="317.936" width="452.528" height="137.6" filterUnits="userSpaceOnUse" color-interpolation-filters="sRGB"><feFlood flood-opacity="0" result="BackgroundImageFix"/><feColorMatrix in="SourceAlpha" values="0 0 0 0 0 0 0 0 0 0 0 0 0 0 0 0 0 0 127 0"/><feOffset dy="1"/><feGaussianBlur stdDeviation="1"/><feColorMatrix values="0 0 0 0 0 0 0 0 0 0 0 0 0 0 0 0 0 0 0.15 0"/><feBlend in2="BackgroundImageFix" result="effect1_dropShadow"/><feBlend in="SourceGraphic" in2="effect1_dropShadow" result="shape"/></filter></defs></svg>