<svg width="540" height="516" viewBox="0 0 540 516" fill="none" xmlns="http://www.w3.org/2000/svg">
<g id="enkel_overblick">
<rect id="Rectangle" width="540" height="516" rx="8" fill="white"/>
<path id="Oval" fill-rule="evenodd" clip-rule="evenodd" d="M372 486C447.111 486 508 425.111 508 350C508 274.889 447.111 214 372 214C296.889 214 236 274.889 236 350C236 425.111 296.889 486 372 486Z" fill="#651EFF"/>
<g id="&#195;&#150;versikt">
<g id="row 2">
<g id="Rectangle 2 Copy" filter="url(#filter0_d)">
<path fill-rule="evenodd" clip-rule="evenodd" d="M48 190.336C48 184.61 52.6419 179.968 58.368 179.968H482.16C487.886 179.968 492.528 184.61 492.528 190.336V299.2C492.528 304.926 487.886 309.568 482.16 309.568H58.368C52.6419 309.568 48 304.926 48 299.2V190.336Z" fill="white"/>
</g>
<g id="icons/expand copy">
<path id="Path 2" d="M467.443 238.24L468.359 239.157L456.237 251.279L444.115 239.157L445.031 238.24L456.237 249.446L467.443 238.24Z" fill="#9B9BAA"/>
</g>
<path id="Odengatan 22" d="M169.201 239.595C167.86 239.595 166.706 239.27 165.738 238.62C164.784 237.956 164.058 237.037 163.561 235.862C163.063 234.687 162.814 233.325 162.814 231.777C162.814 230.187 163.118 228.791 163.726 227.588C164.335 226.372 165.164 225.439 166.215 224.789C167.265 224.125 168.434 223.794 169.719 223.794C171.088 223.794 172.256 224.112 173.224 224.748C174.205 225.383 174.945 226.282 175.442 227.443C175.954 228.604 176.21 229.966 176.21 231.528C176.21 233.132 175.899 234.549 175.276 235.779C174.654 236.996 173.811 237.936 172.747 238.599C171.682 239.263 170.5 239.595 169.201 239.595ZM169.533 224.768C168.053 224.768 166.878 225.37 166.007 226.572C165.137 227.761 164.701 229.496 164.701 231.777C164.701 233.104 164.888 234.286 165.261 235.323C165.634 236.36 166.18 237.168 166.899 237.749C167.618 238.33 168.475 238.62 169.47 238.62C170.438 238.62 171.281 238.357 172 237.832C172.719 237.293 173.279 236.491 173.68 235.427C174.081 234.362 174.281 233.063 174.281 231.528C174.281 230.187 174.094 229.012 173.721 228.003C173.348 226.98 172.802 226.185 172.083 225.618C171.378 225.052 170.528 224.768 169.533 224.768ZM182.446 239.595C181.63 239.595 180.877 239.387 180.186 238.972C179.494 238.544 178.942 237.901 178.527 237.044C178.112 236.187 177.905 235.136 177.905 233.892C177.905 232.703 178.147 231.632 178.63 230.678C179.114 229.71 179.799 228.95 180.683 228.397C181.582 227.83 182.626 227.547 183.814 227.547C184.575 227.547 185.307 227.63 186.013 227.796V223.69L183.856 223.483V222.736L187.257 222.384H187.298L187.692 222.674V238.433H188.957V239.242C188.888 239.256 188.653 239.311 188.252 239.408C187.851 239.505 187.423 239.553 186.966 239.553C186.648 239.553 186.42 239.498 186.282 239.387C186.158 239.277 186.095 239.035 186.095 238.661V237.936C185.667 238.406 185.142 238.8 184.52 239.118C183.911 239.436 183.22 239.595 182.446 239.595ZM183.13 238.288C183.725 238.288 184.285 238.15 184.81 237.873C185.349 237.583 185.75 237.265 186.013 236.92V229.289C185.902 229.095 185.612 228.929 185.142 228.791C184.685 228.653 184.195 228.584 183.669 228.584C182.48 228.584 181.527 229.012 180.808 229.869C180.089 230.713 179.729 231.998 179.729 233.726C179.729 235.275 180.047 236.422 180.683 237.168C181.319 237.915 182.135 238.288 183.13 238.288ZM195.741 239.595C194.138 239.595 192.9 239.049 192.029 237.956C191.172 236.85 190.744 235.385 190.744 233.56C190.744 232.385 190.972 231.342 191.428 230.429C191.884 229.517 192.513 228.812 193.315 228.314C194.131 227.803 195.043 227.547 196.052 227.547C197.282 227.547 198.236 227.899 198.914 228.604C199.605 229.309 199.978 230.326 200.033 231.653C200.033 232.51 199.992 233.118 199.909 233.477H192.527C192.527 234.929 192.852 236.118 193.502 237.044C194.165 237.956 195.091 238.413 196.28 238.413C196.861 238.413 197.455 238.309 198.064 238.102C198.672 237.894 199.142 237.645 199.474 237.355L199.805 238.122C199.404 238.537 198.817 238.89 198.043 239.18C197.282 239.456 196.515 239.595 195.741 239.595ZM198.167 232.503C198.209 232.213 198.229 231.908 198.229 231.59C198.216 230.678 197.994 229.952 197.566 229.413C197.151 228.874 196.508 228.604 195.637 228.604C193.744 228.604 192.714 229.904 192.548 232.503H198.167ZM203.207 229.227L201.61 228.874V227.941L204.244 227.609H204.306L204.7 227.941V228.853L204.679 229.372C205.191 228.929 205.868 228.522 206.711 228.148C207.555 227.775 208.336 227.588 209.054 227.588C209.939 227.588 210.617 227.761 211.087 228.107C211.57 228.439 211.902 228.957 212.082 229.662C212.275 230.353 212.372 231.286 212.372 232.461V238.33L213.927 238.475V239.366H209.303V238.475L210.693 238.33V232.441C210.693 231.57 210.63 230.885 210.506 230.388C210.395 229.89 210.167 229.517 209.822 229.268C209.49 229.005 208.999 228.874 208.349 228.874C207.796 228.874 207.195 229.012 206.545 229.289C205.909 229.565 205.356 229.89 204.886 230.263V238.309L206.4 238.475V239.366H201.818V238.475L203.207 238.309V229.227ZM220.362 244.965C217.1 244.965 215.468 243.928 215.468 241.855C215.468 241.233 215.655 240.666 216.028 240.154C216.415 239.643 216.872 239.242 217.397 238.952C216.747 238.606 216.422 238.032 216.422 237.231C216.422 236.719 216.567 236.242 216.858 235.8C217.148 235.344 217.521 234.998 217.978 234.763C217.328 234.459 216.816 234.03 216.443 233.477C216.084 232.911 215.904 232.254 215.904 231.508C215.904 230.706 216.125 230.008 216.567 229.413C217.01 228.805 217.584 228.342 218.289 228.024C219.007 227.706 219.754 227.547 220.528 227.547C221.814 227.547 222.844 227.83 223.618 228.397C223.825 228.204 224.143 228.017 224.572 227.837C225.014 227.644 225.484 227.547 225.982 227.547H226.666V229.081H224.302C224.703 229.634 224.903 230.305 224.903 231.093C224.903 231.908 224.696 232.634 224.281 233.27C223.867 233.892 223.307 234.376 222.602 234.722C221.91 235.067 221.143 235.24 220.3 235.24C219.733 235.24 219.215 235.178 218.745 235.053C218.496 235.247 218.295 235.475 218.143 235.738C218.005 235.986 217.936 236.242 217.936 236.505C217.936 237.03 218.102 237.397 218.434 237.604C218.779 237.811 219.374 237.915 220.217 237.915H222.664C223.95 237.915 224.896 238.164 225.505 238.661C226.127 239.159 226.438 239.857 226.438 240.756C226.438 241.502 226.168 242.193 225.629 242.829C225.09 243.479 224.35 243.997 223.41 244.385C222.484 244.772 221.468 244.965 220.362 244.965ZM220.507 234.224C222.263 234.224 223.141 233.256 223.141 231.321C223.141 229.482 222.228 228.563 220.404 228.563C218.579 228.563 217.666 229.468 217.666 231.279C217.666 232.15 217.902 232.862 218.372 233.415C218.842 233.954 219.553 234.224 220.507 234.224ZM220.466 243.908C221.212 243.908 221.924 243.797 222.602 243.576C223.279 243.369 223.825 243.057 224.24 242.643C224.655 242.242 224.862 241.772 224.862 241.233C224.862 240.804 224.793 240.459 224.655 240.196C224.53 239.933 224.274 239.726 223.887 239.574C223.514 239.436 222.968 239.366 222.249 239.366H219.678C219.014 239.366 218.51 239.325 218.164 239.242C217.487 239.892 217.148 240.652 217.148 241.523C217.148 242.311 217.397 242.905 217.895 243.306C218.392 243.707 219.249 243.908 220.466 243.908ZM227.945 236.339C227.945 234.998 228.608 234.03 229.936 233.436C231.263 232.828 232.915 232.503 234.891 232.461V231.819C234.891 231.114 234.815 230.561 234.663 230.16C234.525 229.745 234.276 229.448 233.917 229.268C233.557 229.074 233.053 228.978 232.403 228.978C231.698 228.978 231.055 229.088 230.475 229.309C229.908 229.517 229.355 229.773 228.816 230.077L228.36 229.164C228.512 229.026 228.83 228.833 229.313 228.584C229.797 228.335 230.35 228.114 230.972 227.92C231.594 227.727 232.196 227.63 232.776 227.63C233.716 227.63 234.456 227.761 234.995 228.024C235.548 228.287 235.942 228.708 236.177 229.289C236.426 229.869 236.55 230.65 236.55 231.632V238.475H237.836V239.242C237.076 239.449 236.433 239.553 235.908 239.553C235.576 239.553 235.348 239.498 235.223 239.387C235.099 239.29 235.037 239.055 235.037 238.682V237.915C234.539 238.357 233.993 238.751 233.398 239.097C232.818 239.429 232.154 239.595 231.408 239.595C230.412 239.595 229.583 239.318 228.92 238.765C228.27 238.212 227.945 237.403 227.945 236.339ZM232.03 238.371C232.417 238.371 232.88 238.247 233.419 237.998C233.958 237.749 234.449 237.452 234.891 237.106V233.436C233.219 233.45 231.947 233.699 231.076 234.182C230.219 234.666 229.79 235.316 229.79 236.132C229.79 236.92 229.991 237.493 230.392 237.853C230.793 238.198 231.339 238.371 232.03 238.371ZM242.95 239.595C242.218 239.595 241.665 239.429 241.291 239.097C240.918 238.751 240.732 238.143 240.732 237.272V229.081H239.156V228.273C239.847 228.121 240.248 228.01 240.358 227.941C240.566 227.83 240.718 227.616 240.815 227.298C240.897 227.091 241.008 226.717 241.146 226.178C241.285 225.639 241.388 225.218 241.457 224.913H242.411V227.858H246.081V229.081H242.411V235.8C242.411 236.602 242.439 237.168 242.494 237.5C242.549 237.818 242.66 238.026 242.826 238.122C242.992 238.219 243.282 238.267 243.697 238.267C244.098 238.267 244.547 238.212 245.045 238.102C245.542 237.991 245.916 237.873 246.164 237.749L246.434 238.537C246.116 238.786 245.591 239.028 244.858 239.263C244.125 239.484 243.489 239.595 242.95 239.595ZM247.911 236.339C247.911 234.998 248.575 234.03 249.902 233.436C251.229 232.828 252.881 232.503 254.858 232.461V231.819C254.858 231.114 254.782 230.561 254.63 230.16C254.492 229.745 254.243 229.448 253.883 229.268C253.524 229.074 253.019 228.978 252.37 228.978C251.665 228.978 251.022 229.088 250.441 229.309C249.874 229.517 249.321 229.773 248.782 230.077L248.326 229.164C248.478 229.026 248.796 228.833 249.28 228.584C249.764 228.335 250.317 228.114 250.939 227.92C251.561 227.727 252.162 227.63 252.743 227.63C253.683 227.63 254.423 227.761 254.962 228.024C255.515 228.287 255.909 228.708 256.144 229.289C256.392 229.869 256.517 230.65 256.517 231.632V238.475H257.802V239.242C257.042 239.449 256.399 239.553 255.874 239.553C255.542 239.553 255.314 239.498 255.19 239.387C255.065 239.29 255.003 239.055 255.003 238.682V237.915C254.505 238.357 253.959 238.751 253.365 239.097C252.784 239.429 252.121 239.595 251.374 239.595C250.379 239.595 249.55 239.318 248.886 238.765C248.236 238.212 247.911 237.403 247.911 236.339ZM251.996 238.371C252.383 238.371 252.847 238.247 253.386 237.998C253.925 237.749 254.416 237.452 254.858 237.106V233.436C253.185 233.45 251.913 233.699 251.043 234.182C250.185 234.666 249.757 235.316 249.757 236.132C249.757 236.92 249.957 237.493 250.358 237.853C250.759 238.198 251.305 238.371 251.996 238.371ZM260.636 229.227L259.039 228.874V227.941L261.673 227.609H261.735L262.129 227.941V228.853L262.108 229.372C262.62 228.929 263.297 228.522 264.14 228.148C264.984 227.775 265.765 227.588 266.483 227.588C267.368 227.588 268.046 227.761 268.516 228.107C268.999 228.439 269.331 228.957 269.511 229.662C269.704 230.353 269.801 231.286 269.801 232.461V238.33L271.356 238.475V239.366H266.732V238.475L268.122 238.33V232.441C268.122 231.57 268.059 230.885 267.935 230.388C267.824 229.89 267.596 229.517 267.251 229.268C266.919 229.005 266.428 228.874 265.778 228.874C265.225 228.874 264.624 229.012 263.974 229.289C263.338 229.565 262.785 229.89 262.315 230.263V238.309L263.829 238.475V239.366H259.247V238.475L260.636 238.309V229.227ZM277.943 238.661C279.228 237.943 280.424 237.099 281.53 236.132C282.65 235.15 283.541 234.134 284.205 233.083C284.882 232.033 285.221 231.065 285.221 230.18C285.221 229.365 284.979 228.715 284.495 228.231C284.011 227.747 283.32 227.505 282.422 227.505C281.592 227.505 280.866 227.678 280.244 228.024C279.636 228.356 279.09 228.757 278.606 229.227L278.026 228.439C278.537 227.872 279.221 227.367 280.078 226.925C280.936 226.469 281.869 226.241 282.878 226.241C283.818 226.241 284.606 226.42 285.242 226.78C285.891 227.125 286.368 227.588 286.673 228.169C286.99 228.736 287.149 229.351 287.149 230.015C287.149 231.425 286.472 232.89 285.117 234.411C283.776 235.917 282.124 237.244 280.161 238.392L286.859 237.956L287.543 236.152L288.456 236.339L287.958 239.366H278.191L277.943 238.661ZM290.255 238.661C291.54 237.943 292.736 237.099 293.842 236.132C294.962 235.15 295.853 234.134 296.517 233.083C297.194 232.033 297.533 231.065 297.533 230.18C297.533 229.365 297.291 228.715 296.807 228.231C296.323 227.747 295.632 227.505 294.734 227.505C293.904 227.505 293.178 227.678 292.556 228.024C291.948 228.356 291.402 228.757 290.918 229.227L290.338 228.439C290.849 227.872 291.533 227.367 292.39 226.925C293.248 226.469 294.181 226.241 295.19 226.241C296.13 226.241 296.918 226.42 297.554 226.78C298.203 227.125 298.68 227.588 298.985 228.169C299.302 228.736 299.461 229.351 299.461 230.015C299.461 231.425 298.784 232.89 297.429 234.411C296.088 235.917 294.436 237.244 292.473 238.392L299.171 237.956L299.855 236.152L300.768 236.339L300.27 239.366H290.503L290.255 238.661Z" fill="#414150"/>
<path id="&#195;&#164;r f&#195;&#182;rs&#195;&#164;krad" d="M162.954 265.093C162.954 264.343 163.196 263.744 163.68 263.297C164.164 262.837 164.805 262.553 165.603 262.444L167.962 262.099C168.409 262.039 168.633 261.821 168.633 261.446C168.633 260.986 168.476 260.611 168.161 260.321C167.847 260.031 167.375 259.886 166.746 259.886C166.166 259.886 165.706 260.049 165.367 260.376C165.029 260.69 164.829 261.113 164.768 261.646L163.136 261.265C163.22 260.43 163.601 259.753 164.279 259.233C164.956 258.7 165.766 258.434 166.71 258.434C167.944 258.434 168.857 258.737 169.45 259.341C170.042 259.934 170.339 260.696 170.339 261.628V266C170.339 266.52 170.375 266.998 170.448 267.434H168.778C168.718 267.071 168.688 266.678 168.688 266.254C168.446 266.641 168.089 266.98 167.617 267.27C167.157 267.561 166.577 267.706 165.875 267.706C165.016 267.706 164.315 267.452 163.771 266.944C163.226 266.424 162.954 265.807 162.954 265.093ZM166.111 266.272C166.873 266.272 167.484 266.067 167.944 265.655C168.403 265.244 168.633 264.591 168.633 263.696V263.297L165.966 263.696C165.579 263.756 165.27 263.896 165.041 264.113C164.811 264.331 164.696 264.627 164.696 265.002C164.696 265.341 164.823 265.637 165.077 265.891C165.343 266.145 165.688 266.272 166.111 266.272ZM164.043 256.166C164.043 255.876 164.139 255.628 164.333 255.422C164.539 255.217 164.787 255.114 165.077 255.114C165.379 255.114 165.633 255.217 165.839 255.422C166.045 255.628 166.147 255.876 166.147 256.166C166.147 256.469 166.045 256.723 165.839 256.928C165.633 257.122 165.379 257.219 165.077 257.219C164.787 257.219 164.539 257.122 164.333 256.928C164.139 256.723 164.043 256.469 164.043 256.166ZM167.436 256.166C167.436 255.876 167.532 255.628 167.726 255.422C167.932 255.217 168.186 255.114 168.488 255.114C168.778 255.114 169.026 255.217 169.232 255.422C169.438 255.628 169.54 255.876 169.54 256.166C169.54 256.469 169.438 256.723 169.232 256.928C169.026 257.122 168.778 257.219 168.488 257.219C168.186 257.219 167.932 257.122 167.726 256.928C167.532 256.723 167.436 256.469 167.436 256.166ZM177.84 258.616V260.43C177.586 260.394 177.338 260.376 177.096 260.376C175.5 260.376 174.701 261.271 174.701 263.061V267.434H172.996V258.706H174.665V260.23C175.197 259.118 176.068 258.561 177.278 258.561C177.471 258.561 177.659 258.579 177.84 258.616ZM188.585 260.249H186.48V267.434H184.72V260.249H183.105V258.706H184.72V257.237C184.72 256.305 184.992 255.573 185.537 255.041C186.081 254.509 186.764 254.243 187.587 254.243C188.107 254.243 188.446 254.303 188.603 254.424V255.948C188.421 255.876 188.173 255.84 187.859 255.84C187.484 255.84 187.157 255.954 186.879 256.184C186.613 256.402 186.48 256.783 186.48 257.327V258.706H188.585V260.249ZM191.855 265.365C192.387 265.909 193.034 266.182 193.796 266.182C194.559 266.182 195.2 265.909 195.72 265.365C196.252 264.809 196.518 264.041 196.518 263.061C196.518 262.093 196.252 261.337 195.72 260.793C195.2 260.236 194.559 259.958 193.796 259.958C193.034 259.958 192.387 260.236 191.855 260.793C191.335 261.337 191.075 262.093 191.075 263.061C191.075 264.041 191.335 264.809 191.855 265.365ZM190.585 259.759C191.432 258.876 192.502 258.434 193.796 258.434C195.091 258.434 196.155 258.876 196.99 259.759C197.837 260.63 198.26 261.73 198.26 263.061C198.26 264.404 197.843 265.516 197.008 266.399C196.173 267.27 195.103 267.706 193.796 267.706C192.49 267.706 191.42 267.27 190.585 266.399C189.75 265.516 189.333 264.404 189.333 263.061C189.333 261.73 189.75 260.63 190.585 259.759ZM191.039 256.166C191.039 255.876 191.135 255.628 191.329 255.422C191.535 255.217 191.782 255.114 192.073 255.114C192.375 255.114 192.629 255.217 192.835 255.422C193.04 255.628 193.143 255.876 193.143 256.166C193.143 256.469 193.04 256.723 192.835 256.928C192.629 257.122 192.375 257.219 192.073 257.219C191.782 257.219 191.535 257.122 191.329 256.928C191.135 256.723 191.039 256.469 191.039 256.166ZM194.432 256.166C194.432 255.876 194.528 255.628 194.722 255.422C194.927 255.217 195.181 255.114 195.484 255.114C195.774 255.114 196.022 255.217 196.228 255.422C196.433 255.628 196.536 255.876 196.536 256.166C196.536 256.469 196.433 256.723 196.228 256.928C196.022 257.122 195.774 257.219 195.484 257.219C195.181 257.219 194.927 257.122 194.722 256.928C194.528 256.723 194.432 256.469 194.432 256.166ZM205.286 258.616V260.43C205.032 260.394 204.784 260.376 204.543 260.376C202.946 260.376 202.148 261.271 202.148 263.061V267.434H200.442V258.706H202.111V260.23C202.643 259.118 203.514 258.561 204.724 258.561C204.918 258.561 205.105 258.579 205.286 258.616ZM206.288 265.166L207.83 264.621C207.89 265.093 208.096 265.486 208.447 265.801C208.798 266.103 209.269 266.254 209.862 266.254C210.322 266.254 210.685 266.145 210.951 265.928C211.217 265.698 211.35 265.42 211.35 265.093C211.35 264.512 210.975 264.137 210.225 263.968L208.737 263.641C208.06 263.496 207.528 263.206 207.141 262.771C206.753 262.335 206.56 261.809 206.56 261.192C206.56 260.442 206.862 259.795 207.467 259.251C208.084 258.706 208.816 258.434 209.663 258.434C210.219 258.434 210.715 258.519 211.15 258.688C211.586 258.845 211.924 259.057 212.166 259.323C212.408 259.589 212.59 259.837 212.711 260.067C212.832 260.297 212.922 260.533 212.983 260.775L211.477 261.337C211.453 261.192 211.41 261.053 211.35 260.92C211.289 260.775 211.193 260.617 211.06 260.448C210.939 260.279 210.757 260.146 210.515 260.049C210.273 259.94 209.989 259.886 209.663 259.886C209.239 259.886 208.888 260.001 208.61 260.23C208.344 260.46 208.211 260.732 208.211 261.047C208.211 261.603 208.544 261.954 209.209 262.099L210.624 262.408C211.398 262.577 211.991 262.892 212.402 263.351C212.826 263.799 213.037 264.349 213.037 265.002C213.037 265.692 212.753 266.315 212.185 266.871C211.628 267.428 210.848 267.706 209.844 267.706C208.767 267.706 207.927 267.44 207.322 266.907C206.717 266.363 206.372 265.782 206.288 265.166ZM214.587 265.093C214.587 264.343 214.828 263.744 215.312 263.297C215.796 262.837 216.437 262.553 217.236 262.444L219.594 262.099C220.042 262.039 220.266 261.821 220.266 261.446C220.266 260.986 220.108 260.611 219.794 260.321C219.479 260.031 219.008 259.886 218.379 259.886C217.798 259.886 217.338 260.049 217 260.376C216.661 260.69 216.461 261.113 216.401 261.646L214.768 261.265C214.853 260.43 215.234 259.753 215.911 259.233C216.588 258.7 217.399 258.434 218.342 258.434C219.576 258.434 220.489 258.737 221.082 259.341C221.675 259.934 221.971 260.696 221.971 261.628V266C221.971 266.52 222.007 266.998 222.08 267.434H220.411C220.35 267.071 220.32 266.678 220.32 266.254C220.078 266.641 219.721 266.98 219.25 267.27C218.79 267.561 218.209 267.706 217.508 267.706C216.649 267.706 215.947 267.452 215.403 266.944C214.859 266.424 214.587 265.807 214.587 265.093ZM217.744 266.272C218.506 266.272 219.116 266.067 219.576 265.655C220.036 265.244 220.266 264.591 220.266 263.696V263.297L217.598 263.696C217.211 263.756 216.903 263.896 216.673 264.113C216.443 264.331 216.328 264.627 216.328 265.002C216.328 265.341 216.455 265.637 216.709 265.891C216.975 266.145 217.32 266.272 217.744 266.272ZM215.675 256.166C215.675 255.876 215.772 255.628 215.965 255.422C216.171 255.217 216.419 255.114 216.709 255.114C217.012 255.114 217.266 255.217 217.471 255.422C217.677 255.628 217.78 255.876 217.78 256.166C217.78 256.469 217.677 256.723 217.471 256.928C217.266 257.122 217.012 257.219 216.709 257.219C216.419 257.219 216.171 257.122 215.965 256.928C215.772 256.723 215.675 256.469 215.675 256.166ZM219.068 256.166C219.068 255.876 219.165 255.628 219.358 255.422C219.564 255.217 219.818 255.114 220.12 255.114C220.411 255.114 220.659 255.217 220.864 255.422C221.07 255.628 221.173 255.876 221.173 256.166C221.173 256.469 221.07 256.723 220.864 256.928C220.659 257.122 220.411 257.219 220.12 257.219C219.818 257.219 219.564 257.122 219.358 256.928C219.165 256.723 219.068 256.469 219.068 256.166ZM232.448 258.706L228.729 262.39L232.521 267.434H230.38L227.531 263.587L226.315 264.803V267.434H224.628V254.297H226.315V262.571L230.089 258.706H232.448ZM239.005 258.616V260.43C238.751 260.394 238.503 260.376 238.261 260.376C236.665 260.376 235.866 261.271 235.866 263.061V267.434H234.161V258.706H235.83V260.23C236.362 259.118 237.233 258.561 238.443 258.561C238.636 258.561 238.824 258.579 239.005 258.616ZM240.279 265.093C240.279 264.343 240.521 263.744 241.004 263.297C241.488 262.837 242.129 262.553 242.928 262.444L245.286 262.099C245.734 262.039 245.958 261.821 245.958 261.446C245.958 260.986 245.801 260.611 245.486 260.321C245.172 260.031 244.7 259.886 244.071 259.886C243.49 259.886 243.031 260.049 242.692 260.376C242.353 260.69 242.154 261.113 242.093 261.646L240.46 261.265C240.545 260.43 240.926 259.753 241.603 259.233C242.281 258.7 243.091 258.434 244.035 258.434C245.268 258.434 246.182 258.737 246.774 259.341C247.367 259.934 247.663 260.696 247.663 261.628V266C247.663 266.52 247.7 266.998 247.772 267.434H246.103C246.042 267.071 246.012 266.678 246.012 266.254C245.77 266.641 245.413 266.98 244.942 267.27C244.482 267.561 243.901 267.706 243.2 267.706C242.341 267.706 241.639 267.452 241.095 266.944C240.551 266.424 240.279 265.807 240.279 265.093ZM243.436 266.272C244.198 266.272 244.809 266.067 245.268 265.655C245.728 265.244 245.958 264.591 245.958 263.696V263.297L243.291 263.696C242.904 263.756 242.595 263.896 242.365 264.113C242.135 264.331 242.021 264.627 242.021 265.002C242.021 265.341 242.148 265.637 242.402 265.891C242.668 266.145 243.012 266.272 243.436 266.272ZM251.336 263.043C251.336 263.962 251.56 264.712 252.008 265.293C252.467 265.873 253.096 266.164 253.895 266.164C254.657 266.164 255.268 265.867 255.727 265.274C256.187 264.682 256.417 263.926 256.417 263.006C256.417 262.099 256.193 261.367 255.745 260.811C255.298 260.255 254.687 259.976 253.913 259.976C253.139 259.976 252.516 260.261 252.044 260.829C251.572 261.398 251.336 262.136 251.336 263.043ZM256.435 266.254V266.109C256.205 266.557 255.854 266.932 255.382 267.234C254.923 267.524 254.372 267.669 253.731 267.669C252.485 267.669 251.481 267.234 250.719 266.363C249.969 265.48 249.595 264.373 249.595 263.043C249.595 261.773 249.982 260.696 250.756 259.813C251.53 258.918 252.522 258.47 253.731 258.47C254.445 258.47 255.026 258.616 255.473 258.906C255.921 259.184 256.229 259.529 256.399 259.94V254.297H258.086V265.819C258.086 266.411 258.116 266.95 258.177 267.434H256.526C256.465 267.095 256.435 266.702 256.435 266.254Z" fill="#9B9BAA"/>
<g id="icons/categories/lagenhet">
<g id="Page 1">
<path id="Fill 1" fill-rule="evenodd" clip-rule="evenodd" d="M83.5377 266.233H87.6906V261.309C87.6906 260.163 86.7598 259.232 85.6147 259.232C84.4697 259.232 83.5377 260.163 83.5377 261.309V266.233ZM92.2986 270.841H78.9297V261.309C78.9297 257.623 81.9295 254.624 85.6147 254.624C89.3 254.624 92.2986 257.623 92.2986 261.309V270.841Z" fill="#FF8A80"/>
<mask id="mask0" mask-type="alpha" maskUnits="userSpaceOnUse" x="62" y="212" width="84" height="65">
<path id="Clip 4" fill-rule="evenodd" clip-rule="evenodd" d="M62.2578 276.446H145.202V212.512H62.2578V276.446Z" fill="white"/>
</mask>
<g mask="url(#mask0)">
<path id="Fill 3" fill-rule="evenodd" clip-rule="evenodd" d="M65.0781 276.446H69.6861V254.924H65.0781V276.446Z" fill="#FF8A80"/>
<path id="Fill 5" fill-rule="evenodd" clip-rule="evenodd" d="M65.5157 260.396L62.2578 257.139L85.6791 233.716L105.049 253.085L101.791 256.342L85.6791 240.232L65.5157 260.396Z" fill="#AA0045"/>
<path id="Fill 6" fill-rule="evenodd" clip-rule="evenodd" d="M119.702 243.626H123.855V238.702C123.855 237.556 122.924 236.625 121.779 236.625C120.634 236.625 119.702 237.556 119.702 238.702V243.626ZM128.463 248.234H115.094V238.702C115.094 235.016 118.094 232.017 121.779 232.017C125.464 232.017 128.463 235.016 128.463 238.702V248.234Z" fill="#FF8A80"/>
<path id="Fill 7" fill-rule="evenodd" clip-rule="evenodd" d="M119.702 266.233H123.855V261.309C123.855 260.163 122.924 259.232 121.779 259.232C120.634 259.232 119.702 260.163 119.702 261.309V266.233ZM128.463 270.841H115.094V261.309C115.094 257.623 118.094 254.624 121.779 254.624C125.464 254.624 128.463 257.623 128.463 261.309V270.841Z" fill="#FF8A80"/>
<path id="Fill 8" fill-rule="evenodd" clip-rule="evenodd" d="M133.014 228.611L132.922 216.755L137.53 216.72L137.622 228.575L133.014 228.611Z" fill="#FF8A80"/>
<path id="Fill 9" fill-rule="evenodd" clip-rule="evenodd" d="M137.734 276.372H142.342V233.723H137.734V276.372Z" fill="#FF8A80"/>
<path id="Fill 10" fill-rule="evenodd" clip-rule="evenodd" d="M101.219 276.372H105.827V233.723H101.219V276.372Z" fill="#FF8A80"/>
<path id="Fill 11" fill-rule="evenodd" clip-rule="evenodd" d="M101.609 239.241L98.3516 235.983L121.822 212.512L145.206 235.895L141.948 239.153L121.822 219.028L101.609 239.241Z" fill="#AA0045"/>
</g>
</g>
</g>
</g>
<g id="row 1">
<g id="Rectangle 2" filter="url(#filter1_d)">
<path fill-rule="evenodd" clip-rule="evenodd" d="M48 50.368C48 44.6419 52.6419 40 58.368 40H482.16C487.886 40 492.528 44.6419 492.528 50.368V159.232C492.528 164.958 487.886 169.6 482.16 169.6H58.368C52.6419 169.6 48 164.958 48 159.232V50.368Z" fill="white"/>
</g>
<g id="icons/categories/du_och_din_familj">
<g id="Page 1_2">
<path id="Fill 1_2" fill-rule="evenodd" clip-rule="evenodd" d="M116.328 109.738L119.586 112.996L134.198 98.3851L130.939 95.1272L116.328 109.738Z" fill="#651EFF"/>
<g id="Group 14">
<path id="Fill 2" fill-rule="evenodd" clip-rule="evenodd" d="M110.108 92.4362C107.725 92.4362 105.788 94.3751 105.788 96.7562C105.788 99.1374 107.725 101.076 110.108 101.076C112.49 101.076 114.428 99.1374 114.428 96.7562C114.428 94.3751 112.49 92.4362 110.108 92.4362ZM110.108 105.684C105.185 105.684 101.18 101.679 101.18 96.7562C101.18 91.8338 105.185 87.8282 110.108 87.8282C115.03 87.8282 119.036 91.8338 119.036 96.7562C119.036 101.679 115.03 105.684 110.108 105.684Z" fill="#0F007A"/>
<path id="Fill 4" fill-rule="evenodd" clip-rule="evenodd" d="M122.2 129.568H117.592V117.205C117.592 113.076 114.233 109.717 110.104 109.717C105.975 109.717 102.616 113.076 102.616 117.205V129.301H98.0078V117.205C98.0078 110.535 103.434 105.109 110.104 105.109C116.774 105.109 122.2 110.535 122.2 117.205V129.568Z" fill="#0F007A"/>
<path id="Fill 6_2" fill-rule="evenodd" clip-rule="evenodd" d="M81.0428 105.779L66.4297 91.1645L69.6875 87.9066L84.3007 102.521L81.0428 105.779Z" fill="#0F007A"/>
<path id="Fill 8_2" fill-rule="evenodd" clip-rule="evenodd" d="M90.5218 85.216C88.1394 85.216 86.2017 87.1549 86.2017 89.536C86.2017 91.9172 88.1394 93.856 90.5218 93.856C92.9041 93.856 94.8418 91.9172 94.8418 89.536C94.8418 87.1549 92.9041 85.216 90.5218 85.216ZM90.5217 98.464C85.5993 98.464 81.5938 94.4585 81.5938 89.536C81.5938 84.6135 85.5993 80.608 90.5217 80.608C95.4442 80.608 99.4497 84.6135 99.4497 89.536C99.4497 94.4585 95.4442 98.464 90.5217 98.464Z" fill="#651EFF"/>
<path id="Fill 10_2" fill-rule="evenodd" clip-rule="evenodd" d="M102.622 133.6H98.0137V109.984C98.0137 105.855 94.6545 102.496 90.5257 102.496C86.3969 102.496 83.0377 105.855 83.0377 109.984V114.304H78.4297V109.984C78.4297 103.314 83.8556 97.8881 90.5257 97.8881C97.1958 97.8881 102.622 103.314 102.622 109.984V133.6Z" fill="#651EFF"/>
<path id="Fill 12" fill-rule="evenodd" clip-rule="evenodd" d="M80.7561 116.608C78.3738 116.608 76.4361 118.547 76.4361 120.928C76.4361 123.309 78.3738 125.248 80.7561 125.248C83.1385 125.248 85.0761 123.309 85.0761 120.928C85.0761 118.547 83.1385 116.608 80.7561 116.608ZM80.7561 129.856C75.8336 129.856 71.8281 125.85 71.8281 120.928C71.8281 116.006 75.8336 112 80.7561 112C85.6786 112 89.6841 116.006 89.6841 120.928C89.6841 125.85 85.6786 129.856 80.7561 129.856Z" fill="#0F007A"/>
</g>
</g>
</g>
<g id="icons/expand">
<path id="Path 2_2" d="M467.443 98.2724L468.359 99.1888L456.237 111.311L444.115 99.1888L445.031 98.2724L456.237 109.478L467.443 98.2724Z" fill="#9B9BAA"/>
</g>
<path id="Jag" d="M162.026 102.239C162.662 102.073 163.229 101.755 163.726 101.285C164.224 100.829 164.577 100.262 164.784 99.5851C164.964 99.0183 165.074 98.3824 165.116 97.6773C165.171 96.9723 165.199 95.7973 165.199 94.1522V85.1321L163.125 84.8832V83.9916H168.91V84.8832L166.92 85.1321V93.696V95.3134C166.92 96.1844 166.906 96.9032 166.878 97.47C166.851 98.0229 166.795 98.5206 166.712 98.963C166.491 100.083 165.973 100.988 165.157 101.679C164.355 102.371 163.464 102.806 162.482 102.986L162.026 102.239ZM170.88 96.371C170.88 95.0301 171.544 94.0624 172.871 93.4679C174.198 92.8597 175.85 92.5348 177.827 92.4933V91.8505C177.827 91.1455 177.751 90.5925 177.599 90.1917C177.461 89.7769 177.212 89.4797 176.852 89.3C176.493 89.1065 175.988 89.0097 175.339 89.0097C174.634 89.0097 173.991 89.1203 173.41 89.3415C172.843 89.5488 172.29 89.8046 171.751 90.1087L171.295 89.1963C171.447 89.0581 171.765 88.8645 172.249 88.6157C172.733 88.3669 173.286 88.1457 173.908 87.9522C174.53 87.7586 175.131 87.6619 175.712 87.6619C176.652 87.6619 177.392 87.7932 177.931 88.0558C178.484 88.3185 178.878 88.7401 179.113 89.3207C179.361 89.9013 179.486 90.6824 179.486 91.6639V98.5068H180.771V99.274C180.011 99.4814 179.368 99.5851 178.843 99.5851C178.511 99.5851 178.283 99.5298 178.159 99.4192C178.034 99.3224 177.972 99.0874 177.972 98.7141V97.9469C177.474 98.3893 176.928 98.7833 176.334 99.1289C175.753 99.4606 175.09 99.6265 174.343 99.6265C173.348 99.6265 172.519 99.3501 171.855 98.7971C171.205 98.2441 170.88 97.4354 170.88 96.371ZM174.965 98.4031C175.352 98.4031 175.816 98.2787 176.355 98.0299C176.894 97.781 177.385 97.4838 177.827 97.1382V93.4679C176.154 93.4818 174.882 93.7306 174.012 94.2144C173.154 94.6983 172.726 95.348 172.726 96.1636C172.726 96.9516 172.926 97.5253 173.327 97.8847C173.728 98.2303 174.274 98.4031 174.965 98.4031ZM187.213 104.997C183.95 104.997 182.319 103.96 182.319 101.887C182.319 101.265 182.506 100.698 182.879 100.186C183.266 99.6749 183.722 99.274 184.248 98.9837C183.598 98.6381 183.273 98.0644 183.273 97.2626C183.273 96.7511 183.418 96.2742 183.709 95.8318C183.999 95.3757 184.372 95.0301 184.828 94.795C184.179 94.4909 183.667 94.0624 183.294 93.5094C182.934 92.9426 182.755 92.286 182.755 91.5395C182.755 90.7377 182.976 90.0396 183.418 89.4452C183.861 88.8369 184.434 88.3738 185.139 88.0558C185.858 87.7379 186.605 87.5789 187.379 87.5789C188.664 87.5789 189.694 87.8623 190.468 88.4291C190.676 88.2356 190.994 88.0489 191.422 87.8692C191.865 87.6757 192.335 87.5789 192.832 87.5789H193.517V89.1134H191.153C191.554 89.6663 191.754 90.3368 191.754 91.1248C191.754 91.9404 191.547 92.6661 191.132 93.3021C190.717 93.9241 190.157 94.408 189.452 94.7536C188.761 95.0992 187.994 95.272 187.151 95.272C186.584 95.272 186.066 95.2098 185.596 95.0853C185.347 95.2789 185.146 95.507 184.994 95.7696C184.856 96.0185 184.787 96.2742 184.787 96.5369C184.787 97.0622 184.953 97.4285 185.284 97.6359C185.63 97.8432 186.225 97.9469 187.068 97.9469H189.515C190.8 97.9469 191.747 98.1957 192.355 98.6934C192.978 99.1911 193.289 99.8892 193.289 100.788C193.289 101.534 193.019 102.225 192.48 102.861C191.941 103.511 191.201 104.029 190.261 104.417C189.335 104.804 188.319 104.997 187.213 104.997ZM187.358 94.2559C189.114 94.2559 189.992 93.2882 189.992 91.3529C189.992 89.5143 189.079 88.595 187.254 88.595C185.43 88.595 184.517 89.5005 184.517 91.3114C184.517 92.1823 184.752 92.8942 185.222 93.4472C185.692 93.9863 186.404 94.2559 187.358 94.2559ZM187.317 103.94C188.063 103.94 188.775 103.829 189.452 103.608C190.13 103.4 190.676 103.089 191.091 102.675C191.505 102.274 191.713 101.804 191.713 101.265C191.713 100.836 191.644 100.491 191.505 100.228C191.381 99.9652 191.125 99.7579 190.738 99.6058C190.365 99.4676 189.819 99.3984 189.1 99.3984H186.529C185.865 99.3984 185.361 99.357 185.015 99.274C184.338 99.9237 183.999 100.684 183.999 101.555C183.999 102.343 184.248 102.937 184.745 103.338C185.243 103.739 186.1 103.94 187.317 103.94Z" fill="#414150"/>
<path id="&#195;&#164;r f&#195;&#182;rs&#195;&#164;krad_2" d="M162.954 125.125C162.954 124.375 163.196 123.776 163.68 123.329C164.164 122.869 164.805 122.585 165.603 122.476L167.962 122.131C168.409 122.071 168.633 121.853 168.633 121.478C168.633 121.018 168.476 120.643 168.161 120.353C167.847 120.063 167.375 119.918 166.746 119.918C166.166 119.918 165.706 120.081 165.367 120.408C165.029 120.722 164.829 121.145 164.768 121.678L163.136 121.297C163.22 120.462 163.601 119.785 164.279 119.264C164.956 118.732 165.766 118.466 166.71 118.466C167.944 118.466 168.857 118.769 169.45 119.373C170.042 119.966 170.339 120.728 170.339 121.659V126.032C170.339 126.552 170.375 127.03 170.448 127.466H168.778C168.718 127.103 168.688 126.71 168.688 126.286C168.446 126.673 168.089 127.012 167.617 127.302C167.157 127.593 166.577 127.738 165.875 127.738C165.016 127.738 164.315 127.484 163.771 126.976C163.226 126.456 162.954 125.839 162.954 125.125ZM166.111 126.304C166.873 126.304 167.484 126.099 167.944 125.687C168.403 125.276 168.633 124.623 168.633 123.728V123.329L165.966 123.728C165.579 123.788 165.27 123.927 165.041 124.145C164.811 124.363 164.696 124.659 164.696 125.034C164.696 125.373 164.823 125.669 165.077 125.923C165.343 126.177 165.688 126.304 166.111 126.304ZM164.043 116.198C164.043 115.908 164.139 115.66 164.333 115.454C164.539 115.249 164.787 115.146 165.077 115.146C165.379 115.146 165.633 115.249 165.839 115.454C166.045 115.66 166.147 115.908 166.147 116.198C166.147 116.501 166.045 116.755 165.839 116.96C165.633 117.154 165.379 117.251 165.077 117.251C164.787 117.251 164.539 117.154 164.333 116.96C164.139 116.755 164.043 116.501 164.043 116.198ZM167.436 116.198C167.436 115.908 167.532 115.66 167.726 115.454C167.932 115.249 168.186 115.146 168.488 115.146C168.778 115.146 169.026 115.249 169.232 115.454C169.438 115.66 169.54 115.908 169.54 116.198C169.54 116.501 169.438 116.755 169.232 116.96C169.026 117.154 168.778 117.251 168.488 117.251C168.186 117.251 167.932 117.154 167.726 116.96C167.532 116.755 167.436 116.501 167.436 116.198ZM177.84 118.648V120.462C177.586 120.426 177.338 120.408 177.096 120.408C175.5 120.408 174.701 121.303 174.701 123.093V127.466H172.996V118.738H174.665V120.262C175.197 119.15 176.068 118.593 177.278 118.593C177.471 118.593 177.659 118.611 177.84 118.648ZM188.585 120.281H186.48V127.466H184.72V120.281H183.105V118.738H184.72V117.269C184.72 116.337 184.992 115.605 185.537 115.073C186.081 114.541 186.764 114.275 187.587 114.275C188.107 114.275 188.446 114.335 188.603 114.456V115.98C188.421 115.908 188.173 115.872 187.859 115.872C187.484 115.872 187.157 115.986 186.879 116.216C186.613 116.434 186.48 116.815 186.48 117.359V118.738H188.585V120.281ZM191.855 125.397C192.387 125.941 193.034 126.214 193.796 126.214C194.559 126.214 195.2 125.941 195.72 125.397C196.252 124.841 196.518 124.073 196.518 123.093C196.518 122.125 196.252 121.369 195.72 120.825C195.2 120.268 194.559 119.99 193.796 119.99C193.034 119.99 192.387 120.268 191.855 120.825C191.335 121.369 191.075 122.125 191.075 123.093C191.075 124.073 191.335 124.841 191.855 125.397ZM190.585 119.791C191.432 118.908 192.502 118.466 193.796 118.466C195.091 118.466 196.155 118.908 196.99 119.791C197.837 120.662 198.26 121.762 198.26 123.093C198.26 124.436 197.843 125.548 197.008 126.431C196.173 127.302 195.103 127.738 193.796 127.738C192.49 127.738 191.42 127.302 190.585 126.431C189.75 125.548 189.333 124.436 189.333 123.093C189.333 121.762 189.75 120.662 190.585 119.791ZM191.039 116.198C191.039 115.908 191.135 115.66 191.329 115.454C191.535 115.249 191.782 115.146 192.073 115.146C192.375 115.146 192.629 115.249 192.835 115.454C193.04 115.66 193.143 115.908 193.143 116.198C193.143 116.501 193.04 116.755 192.835 116.96C192.629 117.154 192.375 117.251 192.073 117.251C191.782 117.251 191.535 117.154 191.329 116.96C191.135 116.755 191.039 116.501 191.039 116.198ZM194.432 116.198C194.432 115.908 194.528 115.66 194.722 115.454C194.927 115.249 195.181 115.146 195.484 115.146C195.774 115.146 196.022 115.249 196.228 115.454C196.433 115.66 196.536 115.908 196.536 116.198C196.536 116.501 196.433 116.755 196.228 116.96C196.022 117.154 195.774 117.251 195.484 117.251C195.181 117.251 194.927 117.154 194.722 116.96C194.528 116.755 194.432 116.501 194.432 116.198ZM205.286 118.648V120.462C205.032 120.426 204.784 120.408 204.543 120.408C202.946 120.408 202.148 121.303 202.148 123.093V127.466H200.442V118.738H202.111V120.262C202.643 119.15 203.514 118.593 204.724 118.593C204.918 118.593 205.105 118.611 205.286 118.648ZM206.288 125.198L207.83 124.653C207.89 125.125 208.096 125.518 208.447 125.833C208.798 126.135 209.269 126.286 209.862 126.286C210.322 126.286 210.685 126.177 210.951 125.96C211.217 125.73 211.35 125.452 211.35 125.125C211.35 124.544 210.975 124.169 210.225 124L208.737 123.673C208.06 123.528 207.528 123.238 207.141 122.803C206.753 122.367 206.56 121.841 206.56 121.224C206.56 120.474 206.862 119.827 207.467 119.283C208.084 118.738 208.816 118.466 209.663 118.466C210.219 118.466 210.715 118.551 211.15 118.72C211.586 118.877 211.924 119.089 212.166 119.355C212.408 119.621 212.59 119.869 212.711 120.099C212.832 120.329 212.922 120.565 212.983 120.807L211.477 121.369C211.453 121.224 211.41 121.085 211.35 120.952C211.289 120.807 211.193 120.649 211.06 120.48C210.939 120.311 210.757 120.178 210.515 120.081C210.273 119.972 209.989 119.918 209.663 119.918C209.239 119.918 208.888 120.033 208.61 120.262C208.344 120.492 208.211 120.764 208.211 121.079C208.211 121.635 208.544 121.986 209.209 122.131L210.624 122.44C211.398 122.609 211.991 122.924 212.402 123.383C212.826 123.831 213.037 124.381 213.037 125.034C213.037 125.724 212.753 126.347 212.185 126.903C211.628 127.46 210.848 127.738 209.844 127.738C208.767 127.738 207.927 127.472 207.322 126.939C206.717 126.395 206.372 125.814 206.288 125.198ZM214.587 125.125C214.587 124.375 214.828 123.776 215.312 123.329C215.796 122.869 216.437 122.585 217.236 122.476L219.594 122.131C220.042 122.071 220.266 121.853 220.266 121.478C220.266 121.018 220.108 120.643 219.794 120.353C219.479 120.063 219.008 119.918 218.379 119.918C217.798 119.918 217.338 120.081 217 120.408C216.661 120.722 216.461 121.145 216.401 121.678L214.768 121.297C214.853 120.462 215.234 119.785 215.911 119.264C216.588 118.732 217.399 118.466 218.342 118.466C219.576 118.466 220.489 118.769 221.082 119.373C221.675 119.966 221.971 120.728 221.971 121.659V126.032C221.971 126.552 222.007 127.03 222.08 127.466H220.411C220.35 127.103 220.32 126.71 220.32 126.286C220.078 126.673 219.721 127.012 219.25 127.302C218.79 127.593 218.209 127.738 217.508 127.738C216.649 127.738 215.947 127.484 215.403 126.976C214.859 126.456 214.587 125.839 214.587 125.125ZM217.744 126.304C218.506 126.304 219.116 126.099 219.576 125.687C220.036 125.276 220.266 124.623 220.266 123.728V123.329L217.598 123.728C217.211 123.788 216.903 123.927 216.673 124.145C216.443 124.363 216.328 124.659 216.328 125.034C216.328 125.373 216.455 125.669 216.709 125.923C216.975 126.177 217.32 126.304 217.744 126.304ZM215.675 116.198C215.675 115.908 215.772 115.66 215.965 115.454C216.171 115.249 216.419 115.146 216.709 115.146C217.012 115.146 217.266 115.249 217.471 115.454C217.677 115.66 217.78 115.908 217.78 116.198C217.78 116.501 217.677 116.755 217.471 116.96C217.266 117.154 217.012 117.251 216.709 117.251C216.419 117.251 216.171 117.154 215.965 116.96C215.772 116.755 215.675 116.501 215.675 116.198ZM219.068 116.198C219.068 115.908 219.165 115.66 219.358 115.454C219.564 115.249 219.818 115.146 220.12 115.146C220.411 115.146 220.659 115.249 220.864 115.454C221.07 115.66 221.173 115.908 221.173 116.198C221.173 116.501 221.07 116.755 220.864 116.96C220.659 117.154 220.411 117.251 220.12 117.251C219.818 117.251 219.564 117.154 219.358 116.96C219.165 116.755 219.068 116.501 219.068 116.198ZM232.448 118.738L228.729 122.422L232.521 127.466H230.38L227.531 123.619L226.315 124.835V127.466H224.628V114.329H226.315V122.603L230.089 118.738H232.448ZM239.005 118.648V120.462C238.751 120.426 238.503 120.408 238.261 120.408C236.665 120.408 235.866 121.303 235.866 123.093V127.466H234.161V118.738H235.83V120.262C236.362 119.15 237.233 118.593 238.443 118.593C238.636 118.593 238.824 118.611 239.005 118.648ZM240.279 125.125C240.279 124.375 240.521 123.776 241.004 123.329C241.488 122.869 242.129 122.585 242.928 122.476L245.286 122.131C245.734 122.071 245.958 121.853 245.958 121.478C245.958 121.018 245.801 120.643 245.486 120.353C245.172 120.063 244.7 119.918 244.071 119.918C243.49 119.918 243.031 120.081 242.692 120.408C242.353 120.722 242.154 121.145 242.093 121.678L240.46 121.297C240.545 120.462 240.926 119.785 241.603 119.264C242.281 118.732 243.091 118.466 244.035 118.466C245.268 118.466 246.182 118.769 246.774 119.373C247.367 119.966 247.663 120.728 247.663 121.659V126.032C247.663 126.552 247.7 127.03 247.772 127.466H246.103C246.042 127.103 246.012 126.71 246.012 126.286C245.77 126.673 245.413 127.012 244.942 127.302C244.482 127.593 243.901 127.738 243.2 127.738C242.341 127.738 241.639 127.484 241.095 126.976C240.551 126.456 240.279 125.839 240.279 125.125ZM243.436 126.304C244.198 126.304 244.809 126.099 245.268 125.687C245.728 125.276 245.958 124.623 245.958 123.728V123.329L243.291 123.728C242.904 123.788 242.595 123.927 242.365 124.145C242.135 124.363 242.021 124.659 242.021 125.034C242.021 125.373 242.148 125.669 242.402 125.923C242.668 126.177 243.012 126.304 243.436 126.304ZM251.336 123.075C251.336 123.994 251.56 124.744 252.008 125.325C252.467 125.905 253.096 126.195 253.895 126.195C254.657 126.195 255.268 125.899 255.727 125.306C256.187 124.714 256.417 123.958 256.417 123.038C256.417 122.131 256.193 121.399 255.745 120.843C255.298 120.287 254.687 120.008 253.913 120.008C253.139 120.008 252.516 120.293 252.044 120.861C251.572 121.43 251.336 122.168 251.336 123.075ZM256.435 126.286V126.141C256.205 126.589 255.854 126.964 255.382 127.266C254.923 127.556 254.372 127.701 253.731 127.701C252.485 127.701 251.481 127.266 250.719 126.395C249.969 125.512 249.595 124.405 249.595 123.075C249.595 121.805 249.982 120.728 250.756 119.845C251.53 118.95 252.522 118.502 253.731 118.502C254.445 118.502 255.026 118.648 255.473 118.938C255.921 119.216 256.229 119.561 256.399 119.972V114.329H258.086V125.851C258.086 126.443 258.116 126.982 258.177 127.466H256.526C256.465 127.127 256.435 126.734 256.435 126.286Z" fill="#9B9BAA"/>
</g>
<g id="row 3">
<g id="Rectangle 2 Copy 2" filter="url(#filter2_d)">
<path fill-rule="evenodd" clip-rule="evenodd" d="M48 330.304C48 324.578 52.6419 319.936 58.368 319.936H482.16C487.886 319.936 492.528 324.578 492.528 330.304V439.168C492.528 444.894 487.886 449.536 482.16 449.536H58.368C52.6419 449.536 48 444.894 48 439.168V330.304Z" fill="white"/>
</g>
<g id="icons/expand copy 2">
<path id="Path 2_3" d="M467.443 378.208L468.359 379.125L456.237 391.247L444.115 379.125L445.031 378.208L456.237 389.414L467.443 378.208Z" fill="#9B9BAA"/>
</g>
<path id="Mina prylar" d="M165.51 365.047L163.208 364.819V363.928H168.102L171.316 373.508L172.083 376.286L172.767 373.508L175.961 363.928H180.813V364.819L178.532 365.047L180.17 378.235L182.057 378.443V379.334H176.479V378.443L178.408 378.256L177.454 368.801L176.998 364.653L176.085 367.515L172.332 378.588H171.502L167.977 368.676L166.63 364.653L166.215 368.801L165.365 378.256L167.397 378.443V379.334H162.213V378.443L163.975 378.256L165.51 365.047ZM185.575 365.649C184.829 365.649 184.455 365.255 184.455 364.467C184.455 364.066 184.573 363.741 184.808 363.492C185.043 363.23 185.361 363.098 185.762 363.098C186.176 363.098 186.474 363.216 186.653 363.451C186.833 363.672 186.923 363.948 186.923 364.28C186.923 364.709 186.805 365.047 186.57 365.296C186.349 365.531 186.024 365.649 185.596 365.649H185.575ZM184.912 369.195L183.294 368.842V367.909L186.135 367.577H186.176L186.591 367.909V378.298L188.395 378.443V379.334H183.087V378.443L184.912 378.277V369.195ZM191.178 369.195L189.582 368.842V367.909L192.215 367.577H192.277L192.671 367.909V368.821L192.651 369.34C193.162 368.897 193.839 368.49 194.683 368.116C195.526 367.743 196.307 367.556 197.026 367.556C197.911 367.556 198.588 367.729 199.058 368.075C199.542 368.407 199.874 368.925 200.053 369.63C200.247 370.321 200.344 371.254 200.344 372.429V378.298L201.899 378.443V379.334H197.275V378.443L198.664 378.298V372.409C198.664 371.538 198.602 370.853 198.477 370.356C198.367 369.858 198.139 369.485 197.793 369.236C197.461 368.973 196.971 368.842 196.321 368.842C195.768 368.842 195.167 368.98 194.517 369.257C193.881 369.533 193.328 369.858 192.858 370.231V378.277L194.372 378.443V379.334H189.789V378.443L191.178 378.277V369.195ZM203.544 376.307C203.544 374.966 204.207 373.998 205.534 373.404C206.861 372.796 208.513 372.471 210.49 372.429V371.787C210.49 371.082 210.414 370.529 210.262 370.128C210.124 369.713 209.875 369.416 209.516 369.236C209.156 369.043 208.652 368.946 208.002 368.946C207.297 368.946 206.654 369.056 206.073 369.278C205.507 369.485 204.954 369.741 204.415 370.045L203.958 369.132C204.11 368.994 204.428 368.801 204.912 368.552C205.396 368.303 205.949 368.082 206.571 367.888C207.193 367.695 207.795 367.598 208.375 367.598C209.315 367.598 210.055 367.729 210.594 367.992C211.147 368.255 211.541 368.676 211.776 369.257C212.025 369.837 212.149 370.618 212.149 371.6V378.443H213.435V379.21C212.674 379.417 212.032 379.521 211.506 379.521C211.175 379.521 210.946 379.466 210.822 379.355C210.698 379.258 210.635 379.023 210.635 378.65V377.883C210.138 378.325 209.592 378.719 208.997 379.065C208.417 379.397 207.753 379.563 207.007 379.563C206.011 379.563 205.182 379.286 204.518 378.733C203.869 378.18 203.544 377.371 203.544 376.307ZM207.629 378.339C208.016 378.339 208.479 378.215 209.018 377.966C209.557 377.717 210.048 377.42 210.49 377.074V373.404C208.818 373.418 207.546 373.667 206.675 374.15C205.818 374.634 205.389 375.284 205.389 376.1C205.389 376.888 205.59 377.461 205.991 377.821C206.391 378.166 206.937 378.339 207.629 378.339ZM230.935 373.155C230.935 374.344 230.693 375.429 230.209 376.411C229.725 377.378 229.034 378.146 228.135 378.712C227.251 379.279 226.235 379.563 225.087 379.563C224.7 379.563 224.292 379.528 223.864 379.459C223.435 379.404 223.083 379.328 222.806 379.231L222.848 380.993V383.233L225.149 383.44V384.353H219.592V383.44L221.189 383.233V369.195L219.571 368.842V367.909L222.226 367.577H222.267L222.64 367.909V369.174C223.083 368.718 223.622 368.331 224.258 368.013C224.894 367.681 225.606 367.515 226.394 367.515C227.195 367.515 227.942 367.715 228.633 368.116C229.324 368.517 229.877 369.139 230.292 369.983C230.721 370.826 230.935 371.883 230.935 373.155ZM225.709 368.78C225.115 368.78 224.562 368.904 224.05 369.153C223.539 369.402 223.138 369.678 222.848 369.983V377.883C222.958 378.063 223.235 378.229 223.677 378.381C224.133 378.519 224.631 378.588 225.17 378.588C226.359 378.588 227.313 378.153 228.032 377.282C228.764 376.397 229.131 375.097 229.131 373.383C229.131 371.849 228.806 370.701 228.156 369.941C227.52 369.167 226.705 368.78 225.709 368.78ZM232.905 378.464L234.564 378.339V369.195L232.967 368.842V367.909L235.601 367.577H235.642L236.036 367.909V368.241L235.995 369.817H236.036C236.064 369.789 236.244 369.582 236.575 369.195C236.921 368.794 237.426 368.414 238.089 368.054C238.767 367.695 239.444 367.515 240.121 367.515C240.343 367.515 240.55 367.543 240.743 367.598V369.423C240.688 369.381 240.564 369.34 240.37 369.298C240.19 369.257 239.997 369.236 239.79 369.236C239.002 369.236 238.331 369.354 237.778 369.589C237.225 369.824 236.714 370.114 236.244 370.459V378.318L239.002 378.484V379.334H232.905V378.464ZM243.713 384.498C243.519 384.498 243.319 384.484 243.111 384.456C242.918 384.429 242.78 384.394 242.697 384.353V382.818C242.863 382.901 243.215 382.943 243.754 382.943C244.183 382.943 244.57 382.853 244.915 382.673C245.275 382.507 245.641 382.161 246.014 381.636C246.388 381.111 246.754 380.344 247.113 379.334H246.201L242.24 368.946L241.266 368.676V367.826H245.849V368.676L244.169 368.925L246.346 375.27L247.424 378.65L248.461 375.249L250.41 368.925L248.959 368.676V367.826H252.94V368.676L251.862 368.925C250.825 372.105 250.003 374.593 249.394 376.39C248.8 378.173 248.42 379.265 248.254 379.666C247.77 380.883 247.341 381.816 246.968 382.466C246.595 383.129 246.153 383.634 245.641 383.979C245.13 384.325 244.487 384.498 243.713 384.498ZM255.724 363.658L253.962 363.471V362.704L256.989 362.352H257.01L257.404 362.621V378.298L259.353 378.443V379.334H253.9V378.443L255.724 378.277V363.658ZM260.973 376.307C260.973 374.966 261.636 373.998 262.963 373.404C264.29 372.796 265.942 372.471 267.919 372.429V371.787C267.919 371.082 267.843 370.529 267.691 370.128C267.553 369.713 267.304 369.416 266.945 369.236C266.585 369.043 266.081 368.946 265.431 368.946C264.726 368.946 264.083 369.056 263.502 369.278C262.936 369.485 262.383 369.741 261.844 370.045L261.387 369.132C261.539 368.994 261.857 368.801 262.341 368.552C262.825 368.303 263.378 368.082 264 367.888C264.622 367.695 265.224 367.598 265.804 367.598C266.744 367.598 267.484 367.729 268.023 367.992C268.576 368.255 268.97 368.676 269.205 369.257C269.454 369.837 269.578 370.618 269.578 371.6V378.443H270.864V379.21C270.103 379.417 269.461 379.521 268.935 379.521C268.604 379.521 268.375 379.466 268.251 379.355C268.127 379.258 268.064 379.023 268.064 378.65V377.883C267.567 378.325 267.021 378.719 266.426 379.065C265.846 379.397 265.182 379.563 264.436 379.563C263.44 379.563 262.611 379.286 261.947 378.733C261.298 378.18 260.973 377.371 260.973 376.307ZM265.058 378.339C265.445 378.339 265.908 378.215 266.447 377.966C266.986 377.717 267.477 377.42 267.919 377.074V373.404C266.247 373.418 264.975 373.667 264.104 374.15C263.247 374.634 262.818 375.284 262.818 376.1C262.818 376.888 263.019 377.461 263.42 377.821C263.82 378.166 264.366 378.339 265.058 378.339ZM272.474 378.464L274.133 378.339V369.195L272.536 368.842V367.909L275.169 367.577H275.211L275.605 367.909V368.241L275.563 369.817H275.605C275.632 369.789 275.812 369.582 276.144 369.195C276.49 368.794 276.994 368.414 277.658 368.054C278.335 367.695 279.012 367.515 279.69 367.515C279.911 367.515 280.118 367.543 280.312 367.598V369.423C280.257 369.381 280.132 369.34 279.939 369.298C279.759 369.257 279.565 369.236 279.358 369.236C278.57 369.236 277.9 369.354 277.347 369.589C276.794 369.824 276.282 370.114 275.812 370.459V378.318L278.57 378.484V379.334H272.474V378.464Z" fill="#414150"/>
<path id="&#195;&#164;r f&#195;&#182;rs&#195;&#164;krade" d="M162.954 405.061C162.954 404.311 163.196 403.712 163.68 403.265C164.164 402.805 164.805 402.521 165.603 402.412L167.962 402.067C168.409 402.007 168.633 401.789 168.633 401.414C168.633 400.954 168.476 400.579 168.161 400.289C167.847 399.999 167.375 399.854 166.746 399.854C166.166 399.854 165.706 400.017 165.367 400.344C165.029 400.658 164.829 401.081 164.768 401.614L163.136 401.233C163.22 400.398 163.601 399.721 164.279 399.201C164.956 398.668 165.766 398.402 166.71 398.402C167.944 398.402 168.857 398.705 169.45 399.309C170.042 399.902 170.339 400.664 170.339 401.596V405.968C170.339 406.488 170.375 406.966 170.448 407.402H168.778C168.718 407.039 168.688 406.646 168.688 406.222C168.446 406.609 168.089 406.948 167.617 407.238C167.157 407.529 166.577 407.674 165.875 407.674C165.016 407.674 164.315 407.42 163.771 406.912C163.226 406.392 162.954 405.775 162.954 405.061ZM166.111 406.24C166.873 406.24 167.484 406.035 167.944 405.623C168.403 405.212 168.633 404.559 168.633 403.664V403.265L165.966 403.664C165.579 403.724 165.27 403.864 165.041 404.081C164.811 404.299 164.696 404.595 164.696 404.97C164.696 405.309 164.823 405.605 165.077 405.859C165.343 406.113 165.688 406.24 166.111 406.24ZM164.043 396.134C164.043 395.844 164.139 395.596 164.333 395.39C164.539 395.185 164.787 395.082 165.077 395.082C165.379 395.082 165.633 395.185 165.839 395.39C166.045 395.596 166.147 395.844 166.147 396.134C166.147 396.437 166.045 396.691 165.839 396.896C165.633 397.09 165.379 397.187 165.077 397.187C164.787 397.187 164.539 397.09 164.333 396.896C164.139 396.691 164.043 396.437 164.043 396.134ZM167.436 396.134C167.436 395.844 167.532 395.596 167.726 395.39C167.932 395.185 168.186 395.082 168.488 395.082C168.778 395.082 169.026 395.185 169.232 395.39C169.438 395.596 169.54 395.844 169.54 396.134C169.54 396.437 169.438 396.691 169.232 396.896C169.026 397.09 168.778 397.187 168.488 397.187C168.186 397.187 167.932 397.09 167.726 396.896C167.532 396.691 167.436 396.437 167.436 396.134ZM177.84 398.584V400.398C177.586 400.362 177.338 400.344 177.096 400.344C175.5 400.344 174.701 401.239 174.701 403.029V407.402H172.996V398.674H174.665V400.198C175.197 399.086 176.068 398.529 177.278 398.529C177.471 398.529 177.659 398.547 177.84 398.584ZM188.585 400.217H186.48V407.402H184.72V400.217H183.105V398.674H184.72V397.205C184.72 396.273 184.992 395.541 185.537 395.009C186.081 394.477 186.764 394.211 187.587 394.211C188.107 394.211 188.446 394.271 188.603 394.392V395.916C188.421 395.844 188.173 395.808 187.859 395.808C187.484 395.808 187.157 395.923 186.879 396.152C186.613 396.37 186.48 396.751 186.48 397.295V398.674H188.585V400.217ZM191.855 405.333C192.387 405.878 193.034 406.15 193.796 406.15C194.559 406.15 195.2 405.878 195.72 405.333C196.252 404.777 196.518 404.009 196.518 403.029C196.518 402.061 196.252 401.305 195.72 400.761C195.2 400.204 194.559 399.926 193.796 399.926C193.034 399.926 192.387 400.204 191.855 400.761C191.335 401.305 191.075 402.061 191.075 403.029C191.075 404.009 191.335 404.777 191.855 405.333ZM190.585 399.727C191.432 398.844 192.502 398.402 193.796 398.402C195.091 398.402 196.155 398.844 196.99 399.727C197.837 400.598 198.26 401.698 198.26 403.029C198.26 404.372 197.843 405.484 197.008 406.367C196.173 407.238 195.103 407.674 193.796 407.674C192.49 407.674 191.42 407.238 190.585 406.367C189.75 405.484 189.333 404.372 189.333 403.029C189.333 401.698 189.75 400.598 190.585 399.727ZM191.039 396.134C191.039 395.844 191.135 395.596 191.329 395.39C191.535 395.185 191.782 395.082 192.073 395.082C192.375 395.082 192.629 395.185 192.835 395.39C193.04 395.596 193.143 395.844 193.143 396.134C193.143 396.437 193.04 396.691 192.835 396.896C192.629 397.09 192.375 397.187 192.073 397.187C191.782 397.187 191.535 397.09 191.329 396.896C191.135 396.691 191.039 396.437 191.039 396.134ZM194.432 396.134C194.432 395.844 194.528 395.596 194.722 395.39C194.927 395.185 195.181 395.082 195.484 395.082C195.774 395.082 196.022 395.185 196.228 395.39C196.433 395.596 196.536 395.844 196.536 396.134C196.536 396.437 196.433 396.691 196.228 396.896C196.022 397.09 195.774 397.187 195.484 397.187C195.181 397.187 194.927 397.09 194.722 396.896C194.528 396.691 194.432 396.437 194.432 396.134ZM205.286 398.584V400.398C205.032 400.362 204.784 400.344 204.543 400.344C202.946 400.344 202.148 401.239 202.148 403.029V407.402H200.442V398.674H202.111V400.198C202.643 399.086 203.514 398.529 204.724 398.529C204.918 398.529 205.105 398.547 205.286 398.584ZM206.288 405.134L207.83 404.589C207.89 405.061 208.096 405.454 208.447 405.769C208.798 406.071 209.269 406.222 209.862 406.222C210.322 406.222 210.685 406.113 210.951 405.896C211.217 405.666 211.35 405.388 211.35 405.061C211.35 404.48 210.975 404.105 210.225 403.936L208.737 403.61C208.06 403.464 207.528 403.174 207.141 402.739C206.753 402.303 206.56 401.777 206.56 401.16C206.56 400.41 206.862 399.763 207.467 399.219C208.084 398.674 208.816 398.402 209.663 398.402C210.219 398.402 210.715 398.487 211.15 398.656C211.586 398.813 211.924 399.025 212.166 399.291C212.408 399.557 212.59 399.805 212.711 400.035C212.832 400.265 212.922 400.501 212.983 400.743L211.477 401.305C211.453 401.16 211.41 401.021 211.35 400.888C211.289 400.743 211.193 400.586 211.06 400.416C210.939 400.247 210.757 400.114 210.515 400.017C210.273 399.908 209.989 399.854 209.663 399.854C209.239 399.854 208.888 399.969 208.61 400.198C208.344 400.428 208.211 400.7 208.211 401.015C208.211 401.571 208.544 401.922 209.209 402.067L210.624 402.376C211.398 402.545 211.991 402.86 212.402 403.319C212.826 403.767 213.037 404.317 213.037 404.97C213.037 405.66 212.753 406.283 212.185 406.839C211.628 407.396 210.848 407.674 209.844 407.674C208.767 407.674 207.927 407.408 207.322 406.875C206.717 406.331 206.372 405.751 206.288 405.134ZM214.587 405.061C214.587 404.311 214.828 403.712 215.312 403.265C215.796 402.805 216.437 402.521 217.236 402.412L219.594 402.067C220.042 402.007 220.266 401.789 220.266 401.414C220.266 400.954 220.108 400.579 219.794 400.289C219.479 399.999 219.008 399.854 218.379 399.854C217.798 399.854 217.338 400.017 217 400.344C216.661 400.658 216.461 401.081 216.401 401.614L214.768 401.233C214.853 400.398 215.234 399.721 215.911 399.201C216.588 398.668 217.399 398.402 218.342 398.402C219.576 398.402 220.489 398.705 221.082 399.309C221.675 399.902 221.971 400.664 221.971 401.596V405.968C221.971 406.488 222.007 406.966 222.08 407.402H220.411C220.35 407.039 220.32 406.646 220.32 406.222C220.078 406.609 219.721 406.948 219.25 407.238C218.79 407.529 218.209 407.674 217.508 407.674C216.649 407.674 215.947 407.42 215.403 406.912C214.859 406.392 214.587 405.775 214.587 405.061ZM217.744 406.24C218.506 406.24 219.116 406.035 219.576 405.623C220.036 405.212 220.266 404.559 220.266 403.664V403.265L217.598 403.664C217.211 403.724 216.903 403.864 216.673 404.081C216.443 404.299 216.328 404.595 216.328 404.97C216.328 405.309 216.455 405.605 216.709 405.859C216.975 406.113 217.32 406.24 217.744 406.24ZM215.675 396.134C215.675 395.844 215.772 395.596 215.965 395.39C216.171 395.185 216.419 395.082 216.709 395.082C217.012 395.082 217.266 395.185 217.471 395.39C217.677 395.596 217.78 395.844 217.78 396.134C217.78 396.437 217.677 396.691 217.471 396.896C217.266 397.09 217.012 397.187 216.709 397.187C216.419 397.187 216.171 397.09 215.965 396.896C215.772 396.691 215.675 396.437 215.675 396.134ZM219.068 396.134C219.068 395.844 219.165 395.596 219.358 395.39C219.564 395.185 219.818 395.082 220.12 395.082C220.411 395.082 220.659 395.185 220.864 395.39C221.07 395.596 221.173 395.844 221.173 396.134C221.173 396.437 221.07 396.691 220.864 396.896C220.659 397.09 220.411 397.187 220.12 397.187C219.818 397.187 219.564 397.09 219.358 396.896C219.165 396.691 219.068 396.437 219.068 396.134ZM232.448 398.674L228.729 402.358L232.521 407.402H230.38L227.531 403.555L226.315 404.771V407.402H224.628V394.265H226.315V402.539L230.089 398.674H232.448ZM239.005 398.584V400.398C238.751 400.362 238.503 400.344 238.261 400.344C236.665 400.344 235.866 401.239 235.866 403.029V407.402H234.161V398.674H235.83V400.198C236.362 399.086 237.233 398.529 238.443 398.529C238.636 398.529 238.824 398.547 239.005 398.584ZM240.279 405.061C240.279 404.311 240.521 403.712 241.004 403.265C241.488 402.805 242.129 402.521 242.928 402.412L245.286 402.067C245.734 402.007 245.958 401.789 245.958 401.414C245.958 400.954 245.801 400.579 245.486 400.289C245.172 399.999 244.7 399.854 244.071 399.854C243.49 399.854 243.031 400.017 242.692 400.344C242.353 400.658 242.154 401.081 242.093 401.614L240.46 401.233C240.545 400.398 240.926 399.721 241.603 399.201C242.281 398.668 243.091 398.402 244.035 398.402C245.268 398.402 246.182 398.705 246.774 399.309C247.367 399.902 247.663 400.664 247.663 401.596V405.968C247.663 406.488 247.7 406.966 247.772 407.402H246.103C246.042 407.039 246.012 406.646 246.012 406.222C245.77 406.609 245.413 406.948 244.942 407.238C244.482 407.529 243.901 407.674 243.2 407.674C242.341 407.674 241.639 407.42 241.095 406.912C240.551 406.392 240.279 405.775 240.279 405.061ZM243.436 406.24C244.198 406.24 244.809 406.035 245.268 405.623C245.728 405.212 245.958 404.559 245.958 403.664V403.265L243.291 403.664C242.904 403.724 242.595 403.864 242.365 404.081C242.135 404.299 242.021 404.595 242.021 404.97C242.021 405.309 242.148 405.605 242.402 405.859C242.668 406.113 243.012 406.24 243.436 406.24ZM251.336 403.011C251.336 403.93 251.56 404.68 252.008 405.261C252.467 405.841 253.096 406.132 253.895 406.132C254.657 406.132 255.268 405.835 255.727 405.242C256.187 404.65 256.417 403.894 256.417 402.974C256.417 402.067 256.193 401.335 255.745 400.779C255.298 400.223 254.687 399.944 253.913 399.944C253.139 399.944 252.516 400.229 252.044 400.797C251.572 401.366 251.336 402.104 251.336 403.011ZM256.435 406.222V406.077C256.205 406.525 255.854 406.9 255.382 407.202C254.923 407.492 254.372 407.637 253.731 407.637C252.485 407.637 251.481 407.202 250.719 406.331C249.969 405.448 249.595 404.341 249.595 403.011C249.595 401.741 249.982 400.664 250.756 399.781C251.53 398.886 252.522 398.438 253.731 398.438C254.445 398.438 255.026 398.584 255.473 398.874C255.921 399.152 256.229 399.497 256.399 399.908V394.265H258.086V405.787C258.086 406.379 258.116 406.918 258.177 407.402H256.526C256.465 407.063 256.435 406.67 256.435 406.222ZM262.094 402.14H266.866C266.841 401.487 266.624 400.954 266.212 400.543C265.801 400.12 265.221 399.908 264.471 399.908C263.793 399.908 263.237 400.132 262.801 400.579C262.366 401.015 262.13 401.535 262.094 402.14ZM267.12 404.408L268.589 404.916C268.335 405.726 267.864 406.392 267.174 406.912C266.485 407.42 265.65 407.674 264.67 407.674C263.448 407.674 262.408 407.256 261.549 406.422C260.703 405.575 260.279 404.438 260.279 403.011C260.279 401.68 260.691 400.579 261.513 399.709C262.336 398.838 263.315 398.402 264.452 398.402C265.771 398.402 266.799 398.819 267.537 399.654C268.275 400.477 268.644 401.583 268.644 402.974C268.644 403.192 268.632 403.374 268.607 403.519H262.039C262.051 404.293 262.305 404.928 262.801 405.424C263.309 405.92 263.932 406.168 264.67 406.168C265.916 406.168 266.733 405.581 267.12 404.408Z" fill="#9B9BAA"/>
<g id="icons/categories/prylar">
<g id="Page 1_3">
<path id="Fill 1_3" fill-rule="evenodd" clip-rule="evenodd" d="M109.657 414.585C108.003 413.649 106.977 411.891 106.977 409.996V390.888H111.585V409.996C111.585 410.28 111.761 410.48 111.926 410.573L109.657 414.585Z" fill="#B0FEEB"/>
<path id="Fill 3_2" fill-rule="evenodd" clip-rule="evenodd" d="M136.04 415.264H110.789V410.656H136.04C136.404 410.656 136.701 410.36 136.701 409.996V385.019H141.309V409.996C141.309 412.9 138.945 415.264 136.04 415.264Z" fill="#1BE9B6"/>
<path id="Fill 5_2" fill-rule="evenodd" clip-rule="evenodd" d="M120.133 367.412H128.152V362.804H120.133V367.412Z" fill="#009175"/>
<path id="Fill 7_2" fill-rule="evenodd" clip-rule="evenodd" d="M127.599 402.565C127.599 404.474 126.052 406.021 124.143 406.021C122.235 406.021 120.688 404.474 120.688 402.565C120.688 400.656 122.235 399.109 124.143 399.109C126.052 399.109 127.599 400.656 127.599 402.565Z" fill="#009175"/>
<path id="Fill 8_3" fill-rule="evenodd" clip-rule="evenodd" d="M111.585 390.887H106.977V360.053C106.977 357.148 109.34 354.784 112.246 354.784H136.042C138.948 354.784 141.312 357.148 141.312 360.053V385.019H136.704V360.053C136.704 359.689 136.407 359.392 136.042 359.392H112.246C111.882 359.392 111.585 359.689 111.585 360.053V390.887Z" fill="#009175"/>
<path id="Fill 9_2" fill-rule="evenodd" clip-rule="evenodd" d="M72.0138 392.581C67.0302 392.581 62.9752 396.636 62.9752 401.619C62.9752 406.602 67.0302 410.656 72.0138 410.656C76.9973 410.656 81.0524 406.602 81.0524 401.619C81.0524 396.636 76.9973 392.581 72.0138 392.581ZM72.0138 415.264C64.4889 415.264 58.3672 409.143 58.3672 401.619C58.3672 394.093 64.4889 387.973 72.0138 387.973C79.5386 387.973 85.6604 394.093 85.6604 401.619C85.6604 409.143 79.5386 415.264 72.0138 415.264Z" fill="#009175"/>
<path id="Fill 10_3" fill-rule="evenodd" clip-rule="evenodd" d="M76.1496 399.256L84.1491 385.735H97.442L89.4437 399.278L76.1496 399.256ZM105.515 381.127H81.521L70.8984 399.08L73.6229 403.86L92.071 403.89L105.515 381.127Z" fill="#1BE9B6"/>
<path id="Fill 11_2" fill-rule="evenodd" clip-rule="evenodd" d="M81.5234 381.127H105.517L92.0735 403.89L89.4457 399.278L97.4441 385.735H84.1511L81.5234 381.127Z" fill="#009175"/>
<path id="Fill 12_2" fill-rule="evenodd" clip-rule="evenodd" d="M110.795 392.581C105.811 392.581 101.756 396.636 101.756 401.619C101.756 406.602 105.811 410.656 110.795 410.656C115.779 410.656 119.834 406.602 119.834 401.619C119.834 396.636 115.779 392.581 110.795 392.581ZM110.795 415.264C103.27 415.264 97.1484 409.143 97.1484 401.619C97.1484 394.093 103.27 387.973 110.795 387.973C118.32 387.973 124.442 394.093 124.442 401.619C124.442 409.143 118.32 415.264 110.795 415.264Z" fill="#1BE9B6"/>
<path id="Fill 13" fill-rule="evenodd" clip-rule="evenodd" d="M108.637 402.378L97.7109 373.406H111.584V378.014H104.373L112.947 400.752L108.637 402.378Z" fill="#1BE9B6"/>
<path id="Fill 14" fill-rule="evenodd" clip-rule="evenodd" d="M76.8906 378.014H87.1354V373.406H76.8906V378.014Z" fill="#1BE9B6"/>
</g>
</g>
</g>
</g>
</g>
<defs>
<filter id="filter0_d" x="44" y="177.968" width="452.528" height="137.6" filterUnits="userSpaceOnUse" color-interpolation-filters="sRGB">
<feFlood flood-opacity="0" result="BackgroundImageFix"/>
<feColorMatrix in="SourceAlpha" type="matrix" values="0 0 0 0 0 0 0 0 0 0 0 0 0 0 0 0 0 0 127 0"/>
<feOffset dy="1"/>
<feGaussianBlur stdDeviation="1"/>
<feColorMatrix type="matrix" values="0 0 0 0 0 0 0 0 0 0 0 0 0 0 0 0 0 0 0.15 0"/>
<feBlend mode="normal" in2="BackgroundImageFix" result="effect1_dropShadow"/>
<feBlend mode="normal" in="SourceGraphic" in2="effect1_dropShadow" result="shape"/>
</filter>
<filter id="filter1_d" x="44" y="38" width="452.528" height="137.6" filterUnits="userSpaceOnUse" color-interpolation-filters="sRGB">
<feFlood flood-opacity="0" result="BackgroundImageFix"/>
<feColorMatrix in="SourceAlpha" type="matrix" values="0 0 0 0 0 0 0 0 0 0 0 0 0 0 0 0 0 0 127 0"/>
<feOffset dy="1"/>
<feGaussianBlur stdDeviation="1"/>
<feColorMatrix type="matrix" values="0 0 0 0 0 0 0 0 0 0 0 0 0 0 0 0 0 0 0.15 0"/>
<feBlend mode="normal" in2="BackgroundImageFix" result="effect1_dropShadow"/>
<feBlend mode="normal" in="SourceGraphic" in2="effect1_dropShadow" result="shape"/>
</filter>
<filter id="filter2_d" x="44" y="317.936" width="452.528" height="137.6" filterUnits="userSpaceOnUse" color-interpolation-filters="sRGB">
<feFlood flood-opacity="0" result="BackgroundImageFix"/>
<feColorMatrix in="SourceAlpha" type="matrix" values="0 0 0 0 0 0 0 0 0 0 0 0 0 0 0 0 0 0 127 0"/>
<feOffset dy="1"/>
<feGaussianBlur stdDeviation="1"/>
<feColorMatrix type="matrix" values="0 0 0 0 0 0 0 0 0 0 0 0 0 0 0 0 0 0 0.15 0"/>
<feBlend mode="normal" in2="BackgroundImageFix" result="effect1_dropShadow"/>
<feBlend mode="normal" in="SourceGraphic" in2="effect1_dropShadow" result="shape"/>
</filter>
</defs>
</svg>
