<?xml version="1.0" encoding="UTF-8"?>
<svg width="270px" height="258px" viewBox="0 0 270 258" version="1.1" xmlns="http://www.w3.org/2000/svg" xmlns:xlink="http://www.w3.org/1999/xlink">
    <!-- Generator: Sketch 53.1 (72631) - https://sketchapp.com -->
    <title>simple_overview</title>
    <desc>Created with Sketch.</desc>
    <defs>
        <path d="M5.184,0 L217.08,0 C219.943044,-5.25932677e-16 222.264,2.32095586 222.264,5.184 L222.264,59.616 C222.264,62.4790441 219.943044,64.8 217.08,64.8 L5.184,64.8 C2.32095586,64.8 6.1224914e-16,62.4790441 -3.55271368e-15,59.616 L-8.8817842e-16,5.184 C-1.2388002e-15,2.32095586 2.32095586,5.25932677e-16 5.184,0 Z" id="path-1"></path>
        <filter x="-1.6%" y="-3.9%" width="103.1%" height="110.8%" filterUnits="objectBoundingBox" id="filter-2">
            <feOffset dx="0" dy="1" in="SourceAlpha" result="shadowOffsetOuter1"></feOffset>
            <feGaussianBlur stdDeviation="1" in="shadowOffsetOuter1" result="shadowBlurOuter1"></feGaussianBlur>
            <feColorMatrix values="0 0 0 0 0   0 0 0 0 0   0 0 0 0 0  0 0 0 0.15 0" type="matrix" in="shadowBlurOuter1"></feColorMatrix>
        </filter>
        <polygon id="path-3" points="0 31.3717205 40.6999149 31.3717205 40.6999149 -7.10542736e-15 0 -7.10542736e-15"></polygon>
        <path d="M5.184,0 L217.08,0 C219.943044,-5.25932677e-16 222.264,2.32095586 222.264,5.184 L222.264,59.616 C222.264,62.4790441 219.943044,64.8 217.08,64.8 L5.184,64.8 C2.32095586,64.8 6.1224914e-16,62.4790441 -3.55271368e-15,59.616 L-8.8817842e-16,5.184 C-1.2388002e-15,2.32095586 2.32095586,5.25932677e-16 5.184,0 Z" id="path-5"></path>
        <filter x="-1.6%" y="-3.9%" width="103.1%" height="110.8%" filterUnits="objectBoundingBox" id="filter-6">
            <feOffset dx="0" dy="1" in="SourceAlpha" result="shadowOffsetOuter1"></feOffset>
            <feGaussianBlur stdDeviation="1" in="shadowOffsetOuter1" result="shadowBlurOuter1"></feGaussianBlur>
            <feColorMatrix values="0 0 0 0 0   0 0 0 0 0   0 0 0 0 0  0 0 0 0.15 0" type="matrix" in="shadowBlurOuter1"></feColorMatrix>
        </filter>
        <path d="M5.184,0 L217.08,0 C219.943044,-5.25932677e-16 222.264,2.32095586 222.264,5.184 L222.264,59.616 C222.264,62.4790441 219.943044,64.8 217.08,64.8 L5.184,64.8 C2.32095586,64.8 6.1224914e-16,62.4790441 -3.55271368e-15,59.616 L-8.8817842e-16,5.184 C-1.2388002e-15,2.32095586 2.32095586,5.25932677e-16 5.184,0 Z" id="path-7"></path>
        <filter x="-1.6%" y="-3.9%" width="103.1%" height="110.8%" filterUnits="objectBoundingBox" id="filter-8">
            <feOffset dx="0" dy="1" in="SourceAlpha" result="shadowOffsetOuter1"></feOffset>
            <feGaussianBlur stdDeviation="1" in="shadowOffsetOuter1" result="shadowBlurOuter1"></feGaussianBlur>
            <feColorMatrix values="0 0 0 0 0   0 0 0 0 0   0 0 0 0 0  0 0 0 0.15 0" type="matrix" in="shadowBlurOuter1"></feColorMatrix>
        </filter>
    </defs>
    <g id="Page-1" stroke="none" stroke-width="1" fill="none" fill-rule="evenodd">
        <g id="English-Translations-Flattened" transform="translate(-223.000000, -304.000000)">
            <g id="simple_overview" transform="translate(223.000000, 304.000000)">
                <path d="M10.2555408,-4.14336123e-16 L259.744459,4.14336123e-16 C263.310534,-2.4074122e-16 264.603679,0.371302445 265.907383,1.06853082 C267.211087,1.76575919 268.234241,2.78891348 268.931469,4.09261719 C269.628698,5.39632089 270,6.68946584 270,10.2555408 L270,247.744459 C270,251.310534 269.628698,252.603679 268.931469,253.907383 C268.234241,255.211087 267.211087,256.234241 265.907383,256.931469 C264.603679,257.628698 263.310534,258 259.744459,258 L10.2555408,258 C6.68946584,258 5.39632089,257.628698 4.09261719,256.931469 C2.78891348,256.234241 1.76575919,255.211087 1.06853082,253.907383 C0.371302445,252.603679 1.60494146e-16,251.310534 -2.76224082e-16,247.744459 L2.76224082e-16,10.2555408 C-1.60494146e-16,6.68946584 0.371302445,5.39632089 1.06853082,4.09261719 C1.76575919,2.78891348 2.78891348,1.76575919 4.09261719,1.06853082 C5.39632089,0.371302445 6.68946584,2.4074122e-16 10.2555408,-4.14336123e-16 Z" id="Rectangle" fill="#FFFFFF" fill-rule="nonzero"></path>
                <circle id="Oval" fill="#651EFF" cx="186" cy="175" r="68"></circle>
                <g id="Översikt" transform="translate(24.000000, 20.000000)">
                    <g id="row-2" transform="translate(0.000000, 69.984000)">
                        <g id="Rectangle-2-Copy">
                            <use fill="black" fill-opacity="1" filter="url(#filter-2)" xlink:href="#path-1"></use>
                            <use fill="#FFFFFF" fill-rule="evenodd" xlink:href="#path-1"></use>
                        </g>
                        <g id="icons/expand" transform="translate(196.344000, 24.624000)" fill="#9B9BAA" fill-rule="nonzero">
                            <polygon id="Path-2" transform="translate(7.776214, 7.771823) scale(-1, 1) rotate(-90.000000) translate(-7.776214, -7.771823) " points="11.0358677 2.16892526 10.5776625 1.71072007 4.51655986 7.77182267 10.5776625 13.8329253 11.0358677 13.3747201 5.43297025 7.77182267"></polygon>
                        </g>
                        <path d="M60.60096,28.258048 C59.9304926,28.258048 59.3550744,28.0938896 58.874688,27.765568 C58.3943016,27.4372464 58.0296972,26.9793309 57.780864,26.391808 C57.5320308,25.8042851 57.407616,25.1234599 57.407616,24.349312 C57.407616,23.554428 57.5596785,22.854595 57.863808,22.249792 C58.1679375,21.644989 58.5826534,21.1784336 59.107968,20.850112 C59.6332826,20.5217904 60.2173408,20.357632 60.86016,20.357632 C61.5444514,20.357632 62.1302376,20.5166064 62.617536,20.83456 C63.1048344,21.1525136 63.4746227,21.6017891 63.726912,22.1824 C63.9792013,22.7630109 64.105344,23.4438361 64.105344,24.224896 C64.105344,25.026692 63.9498256,25.7334369 63.638784,26.345152 C63.3277424,26.9568671 62.9061147,27.4286063 62.373888,27.760384 C61.8416613,28.0921617 61.2506912,28.258048 60.60096,28.258048 Z M60.766848,20.844928 C60.0272603,20.844928 59.4397462,21.143869 59.004288,21.74176 C58.5688298,22.339651 58.351104,23.2088263 58.351104,24.349312 C58.351104,25.0128673 58.4444151,25.6038374 58.63104,26.12224 C58.8176649,26.6406426 59.0906862,27.0449905 59.450112,27.335296 C59.8095378,27.6256015 60.2380775,27.770752 60.735744,27.770752 C61.2195864,27.770752 61.6412142,27.6376973 62.00064,27.371584 C62.3600658,27.1054707 62.639999,26.7063067 62.840448,26.17408 C63.040897,25.6418533 63.14112,24.9921318 63.14112,24.224896 C63.14112,23.5544286 63.0478089,22.9651865 62.861184,22.457152 C62.6745591,21.9491175 62.4032658,21.5534094 62.047296,21.270016 C61.6913262,20.9866226 61.2645145,20.844928 60.766848,20.844928 Z M67.226112,28.258048 C66.818302,28.258048 66.4416017,28.1526411 66.096,27.941824 C65.7503983,27.7310069 65.473921,27.4113301 65.26656,26.982784 C65.059199,26.5542379 64.95552,26.0289311 64.95552,25.406848 C64.95552,24.812413 65.0764788,24.2750104 65.3184,23.794624 C65.5603212,23.3142376 65.9041898,22.9340814 66.350016,22.654144 C66.7958422,22.3742066 67.315965,22.23424 67.9104,22.23424 C68.2905619,22.23424 68.6568942,22.2757116 69.009408,22.358656 L69.009408,20.305792 L67.931136,20.202112 L67.931136,19.828864 L69.631488,19.652608 L69.652224,19.652608 L69.849216,19.79776 L69.849216,27.67744 L70.481664,27.67744 L70.481664,28.081792 C70.4471038,28.088704 70.329601,28.1163518 70.129152,28.164736 C69.928703,28.2131202 69.7144331,28.237312 69.486336,28.237312 C69.3273592,28.237312 69.2150403,28.2096643 69.149376,28.154368 C69.0837117,28.0990717 69.05088,27.9781129 69.05088,27.791488 L69.05088,27.428608 C68.8366069,27.6636172 68.5756815,27.8606072 68.268096,28.019584 C67.9605105,28.1785608 67.6131859,28.258048 67.226112,28.258048 Z M67.568256,27.604864 C67.8654735,27.604864 68.1471347,27.5340167 68.413248,27.39232 C68.6793613,27.2506233 68.8780793,27.0933769 69.009408,26.920576 L69.009408,23.105152 C68.9541117,23.0083835 68.8106892,22.9254403 68.579136,22.85632 C68.3475828,22.7871997 68.1004813,22.75264 67.837824,22.75264 C67.243389,22.75264 66.7664658,22.9651819 66.40704,23.390272 C66.0476142,23.8153621 65.867904,24.4598997 65.867904,25.323904 C65.867904,26.0980519 66.0268784,26.6717421 66.344832,27.044992 C66.6627856,27.4182419 67.0705895,27.604864 67.568256,27.604864 Z M73.872,28.258048 C73.070204,28.258048 72.4533142,27.9832987 72.021312,27.433792 C71.5893098,26.8842853 71.373312,26.1533486 71.373312,25.24096 C71.373312,24.6534371 71.4873589,24.1315863 71.715456,23.675392 C71.9435531,23.2191977 72.259774,22.8649613 72.664128,22.612672 C73.068482,22.3603827 73.5229415,22.23424 74.02752,22.23424 C74.6426911,22.23424 75.1213423,22.4104942 75.463488,22.763008 C75.8056337,23.1155218 75.9905279,23.6235487 76.018176,24.287104 C76.018176,24.7156501 75.9974402,25.0197751 75.955968,25.199488 L72.26496,25.199488 C72.26496,25.9252516 72.4291184,26.5179497 72.75744,26.9776 C73.0857616,27.4372503 73.547133,27.667072 74.141568,27.667072 C74.4318735,27.667072 74.7290865,27.6152325 75.033216,27.511552 C75.3373455,27.4078715 75.5723512,27.2834567 75.73824,27.138304 L75.904128,27.52192 C75.703679,27.729281 75.4116499,27.9038073 75.028032,28.045504 C74.6444141,28.1872007 74.2590739,28.258048 73.872,28.258048 Z M75.085056,24.712192 C75.1057921,24.5670393 75.11616,24.4149768 75.11616,24.256 C75.109248,23.7998057 75.0003851,23.4369293 74.789568,23.16736 C74.5787509,22.8977907 74.2556182,22.763008 73.82016,22.763008 C72.8732113,22.763008 72.3582724,23.4127295 72.275328,24.712192 L75.085056,24.712192 Z M77.60448,23.074048 L76.806144,22.897792 L76.806144,22.431232 L78.12288,22.265344 L78.153984,22.265344 L78.350976,22.431232 L78.350976,22.887424 L78.340608,23.146624 C78.5963533,22.9254389 78.9350379,22.7215369 79.356672,22.534912 C79.7783061,22.3482871 80.1688302,22.254976 80.528256,22.254976 C80.9706262,22.254976 81.3110388,22.3396472 81.549504,22.508992 C81.7879692,22.6783368 81.9538555,22.9375343 82.047168,23.286592 C82.1404805,23.6356497 82.187136,24.1039331 82.187136,24.691456 L82.187136,27.6256 L82.964736,27.698176 L82.964736,28.144 L80.652672,28.144 L80.652672,27.698176 L81.347328,27.6256 L81.347328,24.681088 C81.347328,24.2456298 81.3179523,23.9034892 81.2592,23.654656 C81.2004477,23.4058228 81.0864008,23.2174726 80.917056,23.0896 C80.7477112,22.9617274 80.5006096,22.897792 80.175744,22.897792 C79.8992626,22.897792 79.6003216,22.9669113 79.278912,23.105152 C78.9575024,23.2433927 78.6792972,23.4058231 78.444288,23.592448 L78.444288,27.615232 L79.201152,27.698176 L79.201152,28.144 L76.909824,28.144 L76.909824,27.698176 L77.60448,27.615232 L77.60448,23.074048 Z M86.178816,30.94336 C84.5475758,30.94336 83.731968,30.4249652 83.731968,29.38816 C83.731968,29.0771184 83.827007,28.7937293 84.017088,28.537984 C84.207169,28.2822387 84.4335347,28.0817927 84.696192,27.93664 C84.3713264,27.7638391 84.208896,27.476994 84.208896,27.076096 C84.208896,26.8203507 84.2814713,26.5801611 84.426624,26.35552 C84.5717767,26.1308789 84.7583989,25.9598086 84.986496,25.842304 C84.6616304,25.6902392 84.4076169,25.4742414 84.224448,25.194304 C84.0412791,24.9143666 83.949696,24.5877779 83.949696,24.214528 C83.949696,23.81363 84.0602869,23.4628495 84.281472,23.162176 C84.5026571,22.8615025 84.7912302,22.6316808 85.1472,22.472704 C85.5031698,22.3137272 85.8746861,22.23424 86.26176,22.23424 C86.9045792,22.23424 87.4195181,22.3759346 87.806592,22.659328 C87.9102725,22.5625595 88.0709749,22.4675205 88.288704,22.374208 C88.5064331,22.2808955 88.7397108,22.23424 88.988544,22.23424 L89.330688,22.23424 L89.330688,23.001472 L88.148736,23.001472 C88.349185,23.2779534 88.449408,23.613182 88.449408,24.007168 C88.449408,24.414978 88.345729,24.7761264 88.138368,25.090624 C87.931007,25.4051216 87.6528017,25.6487671 87.303744,25.821568 C86.9546863,25.9943689 86.5693461,26.080768 86.147712,26.080768 C85.8643186,26.080768 85.6051212,26.0496643 85.370112,25.987456 C85.2456954,26.0842245 85.1472004,26.1965434 85.074624,26.324416 C85.0020476,26.4522886 84.96576,26.5818873 84.96576,26.713216 C84.96576,26.9758733 85.0504312,27.1590395 85.219776,27.26272 C85.3891208,27.3664005 85.6846059,27.41824 86.10624,27.41824 L87.329664,27.41824 C87.9724832,27.41824 88.4476785,27.5426548 88.755264,27.791488 C89.0628495,28.0403212 89.21664,28.3893738 89.21664,28.838656 C89.21664,29.2119059 89.0818573,29.5592304 88.812288,29.88064 C88.5427187,30.2020496 88.1746583,30.459519 87.708096,30.653056 C87.2415337,30.846593 86.7317788,30.94336 86.178816,30.94336 Z M86.251392,25.572736 C87.1292204,25.572736 87.568128,25.0889008 87.568128,24.121216 C87.568128,23.2019154 87.1119406,22.742272 86.199552,22.742272 C85.2871634,22.742272 84.830976,23.1950035 84.830976,24.10048 C84.830976,24.5359382 84.9484788,24.8901746 85.183488,25.1632 C85.4184972,25.4362254 85.7744616,25.572736 86.251392,25.572736 Z M86.230656,30.414592 C86.6039059,30.414592 86.9598703,30.3610245 87.29856,30.253888 C87.6372497,30.1467515 87.910271,29.991233 88.117632,29.787328 C88.324993,29.583423 88.428672,29.3466893 88.428672,29.07712 C88.428672,28.8628469 88.3958403,28.6900487 88.330176,28.55872 C88.2645117,28.4273913 88.136641,28.3254404 87.94656,28.252864 C87.756479,28.1802876 87.4817298,28.144 87.122304,28.144 L85.836672,28.144 C85.5048943,28.144 85.2526089,28.1232642 85.079808,28.081792 C84.7411183,28.4066576 84.571776,28.7868138 84.571776,29.222272 C84.571776,29.616258 84.6961908,29.913471 84.945024,30.11392 C85.1938572,30.314369 85.622397,30.414592 86.230656,30.414592 Z M89.973504,26.630272 C89.973504,25.9598046 90.3052767,25.4742415 90.968832,25.173568 C91.6323873,24.8728945 92.4583631,24.7121921 93.446784,24.691456 L93.446784,24.370048 C93.446784,24.0175342 93.4104964,23.739329 93.33792,23.535424 C93.2653436,23.331519 93.1392009,23.1829125 92.959488,23.0896 C92.7797751,22.9962875 92.5274896,22.949632 92.202624,22.949632 C91.8501102,22.949632 91.5304334,23.0031995 91.243584,23.110336 C90.9567346,23.2174725 90.6785293,23.3470712 90.40896,23.499136 L90.180864,23.042944 C90.2568964,22.9738237 90.4158708,22.8770566 90.657792,22.75264 C90.8997132,22.6282234 91.1761904,22.5176325 91.487232,22.420864 C91.7982736,22.3240955 92.0989425,22.275712 92.389248,22.275712 C92.8592664,22.275712 93.2307826,22.3413753 93.503808,22.472704 C93.7768334,22.6040327 93.9738234,22.8148465 94.094784,23.105152 C94.2157446,23.3954575 94.276224,23.7859815 94.276224,24.276736 L94.276224,27.698176 L94.91904,27.698176 L94.91904,28.081792 C94.5388781,28.1854725 94.2174733,28.237312 93.954816,28.237312 C93.7889272,28.237312 93.6748803,28.2113923 93.612672,28.159552 C93.5504637,28.1077117 93.51936,27.9884809 93.51936,27.801856 L93.51936,27.41824 C93.2705268,27.6394251 92.9992335,27.8346872 92.705472,28.004032 C92.4117105,28.1733768 92.0782099,28.258048 91.70496,28.258048 C91.2072935,28.258048 90.7943056,28.1198094 90.465984,27.843328 C90.1376624,27.5668466 89.973504,27.1624987 89.973504,26.630272 Z M92.016,27.646336 C92.209537,27.646336 92.4410867,27.5841286 92.710656,27.459712 C92.9802253,27.3352954 93.2255989,27.1866889 93.446784,27.013888 L93.446784,25.178752 C92.6104278,25.185664 91.9762582,25.3100788 91.544256,25.552 C91.1122538,25.7939212 90.896256,26.118782 90.896256,26.526592 C90.896256,26.920578 90.996479,27.2056951 91.196928,27.381952 C91.397377,27.5582089 91.6703983,27.646336 92.016,27.646336 Z M97.479936,28.258048 C97.1135982,28.258048 96.8371209,28.1733768 96.650496,28.004032 C96.4638711,27.8346872 96.37056,27.5322902 96.37056,27.096832 L96.37056,23.001472 L95.582592,23.001472 L95.582592,22.59712 C95.9281937,22.5210876 96.1286397,22.4657922 96.183936,22.431232 C96.2876165,22.3759357 96.3636478,22.2688008 96.412032,22.109824 C96.4535042,22.0061435 96.5087997,21.8195213 96.57792,21.549952 C96.6470403,21.2803827 96.6988798,21.0695688 96.73344,20.917504 L97.210368,20.917504 L97.210368,22.38976 L99.045504,22.38976 L99.045504,23.001472 L97.210368,23.001472 L97.210368,26.360704 C97.210368,26.761602 97.2241919,27.0432632 97.25184,27.205696 C97.2794881,27.3681288 97.3347836,27.4735358 97.417728,27.52192 C97.5006724,27.5703042 97.645823,27.594496 97.853184,27.594496 C98.053633,27.594496 98.2782708,27.5668483 98.527104,27.511552 C98.7759372,27.4562557 98.9625594,27.3975043 99.086976,27.335296 L99.22176,27.72928 C99.0627832,27.8536966 98.8001298,27.9729274 98.433792,28.086976 C98.0674542,28.2010246 97.7495053,28.258048 97.479936,28.258048 Z M99.957888,26.630272 C99.957888,25.9598046 100.289661,25.4742415 100.953216,25.173568 C101.616771,24.8728945 102.442747,24.7121921 103.431168,24.691456 L103.431168,24.370048 C103.431168,24.0175342 103.39488,23.739329 103.322304,23.535424 C103.249728,23.331519 103.123585,23.1829125 102.943872,23.0896 C102.764159,22.9962875 102.511874,22.949632 102.187008,22.949632 C101.834494,22.949632 101.514817,23.0031995 101.227968,23.110336 C100.941119,23.2174725 100.662913,23.3470712 100.393344,23.499136 L100.165248,23.042944 C100.24128,22.9738237 100.400255,22.8770566 100.642176,22.75264 C100.884097,22.6282234 101.160574,22.5176325 101.471616,22.420864 C101.782658,22.3240955 102.083327,22.275712 102.373632,22.275712 C102.84365,22.275712 103.215167,22.3413753 103.488192,22.472704 C103.761217,22.6040327 103.958207,22.8148465 104.079168,23.105152 C104.200129,23.3954575 104.260608,23.7859815 104.260608,24.276736 L104.260608,27.698176 L104.903424,27.698176 L104.903424,28.081792 C104.523262,28.1854725 104.201857,28.237312 103.9392,28.237312 C103.773311,28.237312 103.659264,28.2113923 103.597056,28.159552 C103.534848,28.1077117 103.503744,27.9884809 103.503744,27.801856 L103.503744,27.41824 C103.254911,27.6394251 102.983617,27.8346872 102.689856,28.004032 C102.396095,28.1733768 102.062594,28.258048 101.689344,28.258048 C101.191678,28.258048 100.77869,28.1198094 100.450368,27.843328 C100.122046,27.5668466 99.957888,27.1624987 99.957888,26.630272 Z M102.000384,27.646336 C102.193921,27.646336 102.425471,27.5841286 102.69504,27.459712 C102.964609,27.3352954 103.209983,27.1866889 103.431168,27.013888 L103.431168,25.178752 C102.594812,25.185664 101.960642,25.3100788 101.52864,25.552 C101.096638,25.7939212 100.88064,26.118782 100.88064,26.526592 C100.88064,26.920578 100.980863,27.2056951 101.181312,27.381952 C101.381761,27.5582089 101.654782,27.646336 102.000384,27.646336 Z M106.32384,23.074048 L105.525504,22.897792 L105.525504,22.431232 L106.84224,22.265344 L106.873344,22.265344 L107.070336,22.431232 L107.070336,22.887424 L107.059968,23.146624 C107.315713,22.9254389 107.654398,22.7215369 108.076032,22.534912 C108.497666,22.3482871 108.88819,22.254976 109.247616,22.254976 C109.689986,22.254976 110.030399,22.3396472 110.268864,22.508992 C110.507329,22.6783368 110.673216,22.9375343 110.766528,23.286592 C110.85984,23.6356497 110.906496,24.1039331 110.906496,24.691456 L110.906496,27.6256 L111.684096,27.698176 L111.684096,28.144 L109.372032,28.144 L109.372032,27.698176 L110.066688,27.6256 L110.066688,24.681088 C110.066688,24.2456298 110.037312,23.9034892 109.97856,23.654656 C109.919808,23.4058228 109.805761,23.2174726 109.636416,23.0896 C109.467071,22.9617274 109.21997,22.897792 108.895104,22.897792 C108.618623,22.897792 108.319682,22.9669113 107.998272,23.105152 C107.676862,23.2433927 107.398657,23.4058231 107.163648,23.592448 L107.163648,27.615232 L107.920512,27.698176 L107.920512,28.144 L105.629184,28.144 L105.629184,27.698176 L106.32384,27.615232 L106.32384,23.074048 Z M114.970752,27.791488 C115.613571,27.4320622 116.213181,27.0087064 116.7696,26.521408 C117.326019,26.0341096 117.771838,25.5278106 118.107072,25.002496 C118.442306,24.4771814 118.60992,23.9933462 118.60992,23.550976 C118.60992,23.143166 118.488961,22.8183052 118.24704,22.576384 C118.005119,22.3344628 117.659522,22.213504 117.21024,22.213504 C116.795518,22.213504 116.43437,22.2981752 116.126784,22.46752 C115.819198,22.6368648 115.544449,22.8390388 115.302528,23.074048 L115.012224,22.680064 C115.267969,22.3966706 115.61011,22.1426571 116.038656,21.918016 C116.467202,21.6933749 116.933757,21.581056 117.438336,21.581056 C117.908354,21.581056 118.304062,21.6691831 118.625472,21.84544 C118.946882,22.0216969 119.185343,22.2532466 119.340864,22.540096 C119.496385,22.8269454 119.574144,23.1362543 119.574144,23.468032 C119.574144,24.1730595 119.237187,24.9039962 118.563264,25.660864 C117.889341,26.4177318 117.061637,27.0830051 116.080128,27.656704 L119.428992,27.438976 L119.771136,26.53696 L120.227328,26.630272 L119.978496,28.144 L115.095168,28.144 L114.970752,27.791488 Z M121.129344,27.791488 C121.772163,27.4320622 122.371773,27.0087064 122.928192,26.521408 C123.484611,26.0341096 123.93043,25.5278106 124.265664,25.002496 C124.600898,24.4771814 124.768512,23.9933462 124.768512,23.550976 C124.768512,23.143166 124.647553,22.8183052 124.405632,22.576384 C124.163711,22.3344628 123.818114,22.213504 123.368832,22.213504 C122.95411,22.213504 122.592962,22.2981752 122.285376,22.46752 C121.97779,22.6368648 121.703041,22.8390388 121.46112,23.074048 L121.170816,22.680064 C121.426561,22.3966706 121.768702,22.1426571 122.197248,21.918016 C122.625794,21.6933749 123.092349,21.581056 123.596928,21.581056 C124.066946,21.581056 124.462654,21.6691831 124.784064,21.84544 C125.105474,22.0216969 125.343935,22.2532466 125.499456,22.540096 C125.654977,22.8269454 125.732736,23.1362543 125.732736,23.468032 C125.732736,24.1730595 125.395779,24.9039962 124.721856,25.660864 C124.047933,26.4177318 123.220229,27.0830051 122.23872,27.656704 L125.587584,27.438976 L125.929728,26.53696 L126.38592,26.630272 L126.137088,28.144 L121.25376,28.144 L121.129344,27.791488 Z" id="Odengatan22" fill="#414150" fill-rule="nonzero"></path>
                        <path d="M58.593456,42.696 L57.74976,42.696 L57.74976,38.332368 L58.593456,38.332368 L58.593456,42.696 Z M57.731616,37.11672 C57.6167034,36.9957594 57.559248,36.8506088 57.559248,36.681264 C57.559248,36.5119192 57.6182154,36.3667686 57.736152,36.245808 C57.8540886,36.1248474 57.9977272,36.064368 58.167072,36.064368 C58.3364168,36.064368 58.4815674,36.1233354 58.602528,36.241272 C58.7234886,36.3592086 58.783968,36.5058711 58.783968,36.681264 C58.783968,36.8506088 58.7234886,36.9942474 58.602528,37.112184 C58.4815674,37.2301206 58.3364168,37.289088 58.167072,37.289088 C57.9977272,37.289088 57.8525766,37.2316326 57.731616,37.11672 Z M59.636736,41.562 L60.407856,41.28984 C60.4380962,41.5257132 60.5409111,41.7207592 60.716304,41.874984 C60.8916969,42.0292088 61.1275665,42.10632 61.42392,42.10632 C61.6537451,42.10632 61.8351833,42.0503766 61.96824,41.938488 C62.1012967,41.8265994 62.167824,41.6890088 62.167824,41.525712 C62.167824,41.2354065 61.9803379,41.0479204 61.60536,40.963248 L60.861456,40.799952 C60.5227663,40.7273756 60.256657,40.5822251 60.06312,40.364496 C59.869583,40.1467669 59.772816,39.8836815 59.772816,39.575232 C59.772816,39.2002541 59.9255265,38.8766894 60.230952,38.604528 C60.5363775,38.3323666 60.9007659,38.196288 61.324128,38.196288 C61.6023374,38.196288 61.8503029,38.2371116 62.068032,38.31876 C62.2857611,38.4004084 62.4551034,38.5077593 62.576064,38.640816 C62.6970246,38.7738727 62.7877437,38.8978554 62.848224,39.012768 C62.9087043,39.1276806 62.9540638,39.2456154 62.984304,39.366576 L62.231328,39.647808 C62.2192319,39.5752316 62.1980642,39.5041683 62.167824,39.434616 C62.1375838,39.3650637 62.0907123,39.2879524 62.027208,39.20328 C61.9637037,39.1186076 61.8714726,39.0505683 61.750512,38.99916 C61.6295514,38.9477517 61.4874248,38.922048 61.324128,38.922048 C61.1124469,38.922048 60.9385687,38.9795034 60.802488,39.094416 C60.6664073,39.2093286 60.598368,39.3454072 60.598368,39.502656 C60.598368,39.7808654 60.7646863,39.9562556 61.097328,40.028832 L61.804944,40.183056 C62.1920179,40.2677284 62.489879,40.4234629 62.698536,40.650264 C62.907193,40.8770651 63.01152,41.1537584 63.01152,41.480352 C63.01152,41.8250897 62.8709054,42.1365586 62.589672,42.414768 C62.3084386,42.6929774 61.9168345,42.83208 61.414848,42.83208 C60.8765733,42.83208 60.4562415,42.6975133 60.15384,42.428376 C59.8514385,42.1592387 59.6790722,41.8704495 59.636736,41.562 Z M68.246064,38.985552 C67.8771342,38.985552 67.5641533,39.1186067 67.307112,39.38472 C67.0500707,39.6508333 66.921552,40.0258056 66.921552,40.509648 C66.921552,40.9874424 67.0500707,41.3624146 67.307112,41.634576 C67.5641533,41.9067374 67.8801581,42.042816 68.255136,42.042816 C68.6180178,42.042816 68.894711,41.9520969 69.085224,41.770656 C69.275737,41.5892151 69.4042557,41.3805612 69.470784,41.144688 L70.22376,41.47128 C70.1027994,41.8341618 69.8744897,42.1516786 69.538824,42.42384 C69.2031583,42.6960014 68.7752666,42.83208 68.255136,42.83208 C67.6200928,42.83208 67.0939221,42.6113302 66.676608,42.169824 C66.2592939,41.7283178 66.05064,41.1749313 66.05064,40.509648 C66.05064,39.8322686 66.2592939,39.2773702 66.676608,38.844936 C67.0939221,38.4125018 67.6170689,38.196288 68.246064,38.196288 C68.7782907,38.196288 69.2092064,38.3323666 69.538824,38.604528 C69.8684416,38.8766894 70.0846555,39.2032781 70.187472,39.584304 L69.416352,39.910896 C69.3498237,39.6568787 69.2228169,39.4391529 69.035328,39.257712 C68.8478391,39.0762711 68.5847537,38.985552 68.246064,38.985552 Z M72.074448,41.661792 C72.3405613,41.9339534 72.6641261,42.070032 73.045152,42.070032 C73.4261779,42.070032 73.7482307,41.9324414 74.01132,41.657256 C74.2744093,41.3820706 74.405952,40.9995384 74.405952,40.509648 C74.405952,40.0258056 74.2744093,39.6462974 74.01132,39.371112 C73.7482307,39.0959266 73.4261779,38.958336 73.045152,38.958336 C72.6641261,38.958336 72.3420733,39.0959266 72.078984,39.371112 C71.8158947,39.6462974 71.684352,40.0258056 71.684352,40.509648 C71.684352,40.9995384 71.8143827,41.3835826 72.074448,41.661792 Z M71.439408,38.858544 C71.8627701,38.4170378 72.3980128,38.196288 73.045152,38.196288 C73.6922912,38.196288 74.2260219,38.4155258 74.64636,38.854008 C75.0666981,39.2924902 75.276864,39.8443647 75.276864,40.509648 C75.276864,41.1809794 75.0682101,41.7358778 74.650896,42.17436 C74.2335819,42.6128422 73.6983393,42.83208 73.045152,42.83208 C72.3919647,42.83208 71.8567221,42.6128422 71.439408,42.17436 C71.0220939,41.7358778 70.81344,41.1809794 70.81344,40.509648 C70.81344,39.8443647 71.0220939,39.2940022 71.439408,38.858544 Z M79.967088,38.332368 L78.225264,42.696 L77.363424,42.696 L75.594384,38.332368 L76.556016,38.332368 L77.79888,41.69808 L79.050816,38.332368 L79.967088,38.332368 Z M81.20088,40.06512 L83.586816,40.06512 C83.5747199,39.7385264 83.465857,39.470905 83.260224,39.262248 C83.054591,39.053591 82.7642899,38.949264 82.389312,38.949264 C82.0506223,38.949264 81.7724171,39.0596389 81.554688,39.280392 C81.3369589,39.5011451 81.2190241,39.7627185 81.20088,40.06512 Z M83.713824,41.19912 L84.448656,41.453136 C84.3216474,41.858354 84.0857777,42.1894787 83.74104,42.44652 C83.3963023,42.7035613 82.9789944,42.83208 82.489104,42.83208 C81.8782529,42.83208 81.3596421,42.6219141 80.933256,42.201576 C80.5068699,41.7812379 80.29368,41.2142436 80.29368,40.500576 C80.29368,39.8352927 80.4993099,39.2849302 80.910576,38.849472 C81.3218421,38.4140138 81.8117252,38.196288 82.38024,38.196288 C83.0394753,38.196288 83.5535502,38.4034299 83.92248,38.81772 C84.2914098,39.2320101 84.475872,39.7869085 84.475872,40.482432 C84.475872,40.5912965 84.4698241,40.6820156 84.457728,40.754592 L81.173664,40.754592 C81.179712,41.1416659 81.3082307,41.4591828 81.559224,41.707152 C81.8102173,41.9551212 82.1201742,42.079104 82.489104,42.079104 C83.1120511,42.079104 83.520287,41.7857789 83.713824,41.19912 Z M87.986736,38.287008 L87.986736,39.194208 C87.8597274,39.1760639 87.7357446,39.166992 87.614784,39.166992 C86.816444,39.166992 86.41728,39.6145395 86.41728,40.509648 L86.41728,42.696 L85.564512,42.696 L85.564512,38.332368 L86.399136,38.332368 L86.399136,39.094416 C86.6652493,38.5379972 87.100701,38.259792 87.705504,38.259792 C87.8022725,38.259792 87.8960155,38.2688639 87.986736,38.287008 Z M89.401968,40.06512 L91.787904,40.06512 C91.7758079,39.7385264 91.666945,39.470905 91.461312,39.262248 C91.255679,39.053591 90.9653779,38.949264 90.5904,38.949264 C90.2517103,38.949264 89.9735051,39.0596389 89.755776,39.280392 C89.5380469,39.5011451 89.4201121,39.7627185 89.401968,40.06512 Z M91.914912,41.19912 L92.649744,41.453136 C92.5227354,41.858354 92.2868657,42.1894787 91.942128,42.44652 C91.5973903,42.7035613 91.1800824,42.83208 90.690192,42.83208 C90.0793409,42.83208 89.5607301,42.6219141 89.134344,42.201576 C88.7079579,41.7812379 88.494768,41.2142436 88.494768,40.500576 C88.494768,39.8352927 88.7003979,39.2849302 89.111664,38.849472 C89.5229301,38.4140138 90.0128132,38.196288 90.581328,38.196288 C91.2405633,38.196288 91.7546382,38.4034299 92.123568,38.81772 C92.4924978,39.2320101 92.67696,39.7869085 92.67696,40.482432 C92.67696,40.5912965 92.6709121,40.6820156 92.658816,40.754592 L89.374752,40.754592 C89.3808,41.1416659 89.5093187,41.4591828 89.760312,41.707152 C90.0113053,41.9551212 90.3212622,42.079104 90.690192,42.079104 C91.3131391,42.079104 91.721375,41.7857789 91.914912,41.19912 Z M94.273632,40.500576 C94.273632,40.9602263 94.3870309,41.3351985 94.613832,41.625504 C94.8406331,41.9158095 95.153614,42.06096 95.552784,42.06096 C95.9338099,42.06096 96.2392309,41.9127855 96.469056,41.616432 C96.6988811,41.3200785 96.813792,40.9420823 96.813792,40.482432 C96.813792,40.0288297 96.7019051,39.6629294 96.478128,39.38472 C96.2543509,39.1065106 95.9489299,38.967408 95.561856,38.967408 C95.1747821,38.967408 94.8633132,39.1095346 94.62744,39.393792 C94.3915668,39.6780494 94.273632,40.0469737 94.273632,40.500576 Z M96.822864,42.10632 L96.822864,42.033744 C96.7079514,42.2575211 96.5340732,42.4434953 96.301224,42.591672 C96.0683748,42.7398487 95.7916816,42.813936 95.471136,42.813936 C94.8481889,42.813936 94.3477219,42.5946982 93.96972,42.156216 C93.5917181,41.7177338 93.40272,41.1658593 93.40272,40.500576 C93.40272,39.8655328 93.5962541,39.3257542 93.983328,38.881224 C94.3704019,38.4366938 94.866333,38.214432 95.471136,38.214432 C95.8279698,38.214432 96.1182709,38.2854953 96.342048,38.427624 C96.5658251,38.5697527 96.7200476,38.743631 96.80472,38.949264 L96.80472,36.127872 L97.648416,36.127872 L97.648416,41.888592 C97.648416,42.1849455 97.6635358,42.4540788 97.693776,42.696 L96.868224,42.696 C96.8379838,42.5266552 96.822864,42.3300971 96.822864,42.10632 Z" id="iscovered" fill="#9B9BAA" fill-rule="nonzero"></path>
                        <g id="icons/categories/lagenhet" transform="translate(7.128000, 11.664000)">
                            <g id="Page-1" transform="translate(0.000000, 4.522213)">
                                <path d="M10.4410544,26.3604304 L12.4788765,26.3604304 L12.4788765,23.9444383 C12.4788765,23.3819881 12.0221331,22.9252446 11.4602481,22.9252446 C10.8983632,22.9252446 10.4410544,23.3819881 10.4410544,23.9444383 L10.4410544,26.3604304 Z M14.7399829,28.6215368 L8.17994803,28.6215368 L8.17994803,23.9444383 C8.17994803,22.1355532 9.65192829,20.6641382 11.4602481,20.6641382 C13.2685679,20.6641382 14.7399829,22.1355532 14.7399829,23.9444383 L14.7399829,28.6215368 Z" id="Fill-1" fill="#FF8A80"></path>
                                <mask id="mask-4" fill="white">
                                    <use xlink:href="#path-3"></use>
                                </mask>
                                <g id="Clip-4"></g>
                                <polygon id="Fill-3" fill="#FF8A80" mask="url(#mask-4)" points="1.38436238 31.3717205 3.64546877 31.3717205 3.64546877 20.8112231 1.38436238 20.8112231"></polygon>
                                <polygon id="Fill-5" fill="#AA0045" mask="url(#mask-4)" points="1.59865874 23.4965131 5.65276596e-05 21.8979109 11.492695 10.4047071 20.9972557 19.9087025 19.3986535 21.5073047 11.492695 13.6019116"></polygon>
                                <path d="M28.1854259,15.267386 L30.2232481,15.267386 L30.2232481,12.8513938 C30.2232481,12.2889436 29.7665046,11.8322001 29.2046196,11.8322001 C28.6427347,11.8322001 28.1854259,12.2889436 28.1854259,12.8513938 L28.1854259,15.267386 Z M32.4843544,17.5284924 L25.9243195,17.5284924 L25.9243195,12.8513938 C25.9243195,11.0425087 27.3962998,9.57109374 29.2046196,9.57109374 C31.0129395,9.57109374 32.4843544,11.0425087 32.4843544,12.8513938 L32.4843544,17.5284924 Z" id="Fill-6" fill="#FF8A80" mask="url(#mask-4)"></path>
                                <path d="M28.1854259,26.3604304 L30.2232481,26.3604304 L30.2232481,23.9444383 C30.2232481,23.3819881 29.7665046,22.9252446 29.2046196,22.9252446 C28.6427347,22.9252446 28.1854259,23.3819881 28.1854259,23.9444383 L28.1854259,26.3604304 Z M32.4843544,28.6215368 L25.9243195,28.6215368 L25.9243195,23.9444383 C25.9243195,22.1355532 27.3962998,20.6641382 29.2046196,20.6641382 C31.0129395,20.6641382 32.4843544,22.1355532 32.4843544,23.9444383 L32.4843544,28.6215368 Z" id="Fill-7" fill="#FF8A80" mask="url(#mask-4)"></path>
                                <polygon id="Fill-8" fill="#FF8A80" mask="url(#mask-4)" points="34.719232 7.89951431 34.6740099 2.08225287 36.9351162 2.06472929 36.9803384 7.88199074"></polygon>
                                <polygon id="Fill-9" fill="#FF8A80" mask="url(#mask-4)" points="37.0363573 31.3355428 39.2974637 31.3355428 39.2974637 10.4078727 37.0363573 10.4078727"></polygon>
                                <polygon id="Fill-10" fill="#FF8A80" mask="url(#mask-4)" points="19.1170892 31.3355428 21.3781956 31.3355428 21.3781956 10.4078727 19.1170892 10.4078727"></polygon>
                                <polygon id="Fill-11" fill="#AA0045" mask="url(#mask-4)" points="19.3077005 13.1156041 17.7090982 11.5170019 29.2260436 5.65276596e-05 40.7000279 11.4740409 39.1014257 13.0726431 29.2260436 3.19726095"></polygon>
                            </g>
                        </g>
                    </g>
                    <g id="row-1">
                        <g id="Rectangle-2">
                            <use fill="black" fill-opacity="1" filter="url(#filter-6)" xlink:href="#path-5"></use>
                            <use fill="#FFFFFF" fill-rule="evenodd" xlink:href="#path-5"></use>
                        </g>
                        <g id="icons/categories/du_och_din_familj" transform="translate(5.184000, 11.664000)">
                            <g id="Page-1" transform="translate(3.956936, 8.479149)">
                                <polygon id="Fill-1" fill="#651EFF" points="24.4860863 14.2938666 26.0846885 15.8924689 33.2546569 8.72306579 31.6554894 7.12446357"></polygon>
                                <g id="Group-14">
                                    <path d="M21.4318969,5.80403397 C20.2629049,5.80403397 19.3121096,6.75539449 19.3121096,7.92382121 C19.3121096,9.09224793 20.2629049,10.0436084 21.4318969,10.0436084 C22.6008889,10.0436084 23.5516841,9.09224793 23.5516841,7.92382121 C23.5516841,6.75539449 22.6008889,5.80403397 21.4318969,5.80403397 M21.4318969,12.3047148 C19.01647,12.3047148 17.0510032,10.3392481 17.0510032,7.92382121 C17.0510032,5.50839431 19.01647,3.54292759 21.4318969,3.54292759 C23.8473237,3.54292759 25.8127905,5.50839431 25.8127905,7.92382121 C25.8127905,10.3392481 23.8473237,12.3047148 21.4318969,12.3047148" id="Fill-2" fill="#0F007A"></path>
                                    <path d="M27.3673011,24.0242553 L25.1061947,24.0242553 L25.1061947,17.9577069 C25.1061947,15.9317556 23.4578482,14.283409 21.4318969,14.283409 C19.4059455,14.283409 17.757599,15.9317556 17.757599,17.9577069 L17.757599,23.8931111 L15.4964926,23.8931111 L15.4964926,17.9577069 C15.4964926,14.6847554 18.1589454,12.0223026 21.4318969,12.0223026 C24.7048483,12.0223026 27.3673011,14.6847554 27.3673011,17.9577069 L27.3673011,24.0242553 Z" id="Fill-4" fill="#0F007A"></path>
                                    <polygon id="Fill-6" fill="#0F007A" points="7.17053362 12.3510675 0 5.17996861 1.59860221 3.5813664 8.76913583 10.7524653"></polygon>
                                    <path d="M11.8221947,2.26110638 C10.6532027,2.26110638 9.70240749,3.21246689 9.70240749,4.38089362 C9.70240749,5.54932034 10.6532027,6.50068085 11.8221947,6.50068085 C12.9911867,6.50068085 13.941982,5.54932034 13.941982,4.38089362 C13.941982,3.21246689 12.9911867,2.26110638 11.8221947,2.26110638 M11.8221947,8.76178723 C9.40676783,8.76178723 7.44130111,6.79632051 7.44130111,4.38089362 C7.44130111,1.96546672 9.40676783,0 11.8221947,0 C14.2376216,0 16.2030883,1.96546672 16.2030883,4.38089362 C16.2030883,6.79632051 14.2376216,8.76178723 11.8221947,8.76178723" id="Fill-8" fill="#651EFF"></path>
                                    <path d="M17.757599,26.0027234 L15.4964926,26.0027234 L15.4964926,14.4145532 C15.4964926,12.3886019 13.848146,10.7402553 11.8221947,10.7402553 C9.7962434,10.7402553 8.14789685,12.3886019 8.14789685,14.4145532 L8.14789685,16.5343404 L5.88679047,16.5343404 L5.88679047,14.4145532 C5.88679047,11.1416017 8.54924323,8.47914894 11.8221947,8.47914894 C15.0951462,8.47914894 17.757599,11.1416017 17.757599,14.4145532 L17.757599,26.0027234 Z" id="Fill-10" fill="#651EFF"></path>
                                    <path d="M7.02864919,17.6648936 C5.85965719,17.6648936 4.90886196,18.6162541 4.90886196,19.7846809 C4.90886196,20.9531076 5.85965719,21.9044681 7.02864919,21.9044681 C8.19764119,21.9044681 9.14843643,20.9531076 9.14843643,19.7846809 C9.14843643,18.6162541 8.19764119,17.6648936 7.02864919,17.6648936 M7.02864919,24.1655745 C4.6132223,24.1655745 2.64775557,22.2001077 2.64775557,19.7846809 C2.64775557,17.369254 4.6132223,15.4037872 7.02864919,15.4037872 C9.44407609,15.4037872 11.4095428,17.369254 11.4095428,19.7846809 C11.4095428,22.2001077 9.44407609,24.1655745 7.02864919,24.1655745" id="Fill-12" fill="#0F007A"></path>
                                </g>
                            </g>
                        </g>
                        <g id="icons/expand" transform="translate(196.344000, 24.624000)" fill="#9B9BAA" fill-rule="nonzero">
                            <polygon id="Path-2" transform="translate(7.776214, 7.771823) scale(-1, 1) rotate(-90.000000) translate(-7.776214, -7.771823) " points="11.0358677 2.16892526 10.5776625 1.71072007 4.51655986 7.77182267 10.5776625 13.8329253 11.0358677 13.3747201 5.43297025 7.77182267"></polygon>
                        </g>
                        <path d="M59.989248,28.258048 C59.6367342,28.258048 59.3256973,28.2269443 59.056128,28.164736 C58.7865587,28.1025277 58.4755218,28.0161286 58.123008,27.905536 C57.8879988,27.8295036 57.7463042,27.788032 57.69792,27.78112 L57.780864,25.935616 L58.32,25.935616 L58.47552,27.293824 C58.6068487,27.4182406 58.8159346,27.5253756 59.102784,27.615232 C59.3896334,27.7050884 59.7023983,27.750016 60.041088,27.750016 C60.6009628,27.750016 61.0295025,27.6221453 61.32672,27.3664 C61.6239375,27.1106547 61.772544,26.7581462 61.772544,26.308864 C61.772544,26.0185585 61.6947848,25.773185 61.539264,25.572736 C61.3837432,25.372287 61.1832972,25.2029447 60.93792,25.064704 C60.6925428,24.9264633 60.3521302,24.7640329 59.916672,24.577408 C59.508862,24.4046071 59.1615374,24.2318089 58.874688,24.059008 C58.5878386,23.8862071 58.3372811,23.6529295 58.123008,23.359168 C57.9087349,23.0654065 57.8016,22.714626 57.8016,22.306816 C57.8016,21.9266541 57.905279,21.5879695 58.11264,21.290752 C58.320001,20.9935345 58.6085742,20.7637128 58.978368,20.60128 C59.3481618,20.4388472 59.7715176,20.357632 60.248448,20.357632 C60.5387535,20.357632 60.7962229,20.3800958 61.020864,20.425024 C61.2455051,20.4699522 61.5306223,20.5407995 61.876224,20.637568 C62.0628489,20.6928643 62.1734398,20.723968 62.208,20.73088 L62.145792,22.431232 L61.627392,22.431232 L61.440768,21.1456 C61.3578236,21.0764797 61.1971212,21.0090883 60.958656,20.943424 C60.7201908,20.8777597 60.4661773,20.844928 60.196608,20.844928 C59.6851174,20.844928 59.2945933,20.9503349 59.025024,21.161152 C58.7554547,21.3719691 58.620672,21.6847339 58.620672,22.099456 C58.620672,22.3828494 58.6932473,22.619583 58.8384,22.809664 C58.9835527,22.999745 59.1701749,23.1604473 59.398272,23.291776 C59.6263691,23.4231047 59.9788776,23.5993589 60.455808,23.820544 C60.9534745,24.0555532 61.3422706,24.2577272 61.622208,24.427072 C61.9021454,24.5964168 62.1475189,24.8175986 62.358336,25.090624 C62.5691531,25.3636494 62.67456,25.6936941 62.67456,26.080768 C62.67456,26.4471058 62.5674251,26.7978863 62.353152,27.13312 C62.1388789,27.4683537 61.827842,27.739647 61.420032,27.947008 C61.012222,28.154369 60.5352987,28.258048 59.989248,28.258048 Z M63.586944,25.230592 C63.586944,24.629245 63.7130867,24.1004823 63.965376,23.644288 C64.2176653,23.1880937 64.5494379,22.8390412 64.960704,22.59712 C65.3719701,22.3551988 65.8022378,22.23424 66.25152,22.23424 C67.1224364,22.23424 67.7669739,22.5176292 68.185152,23.084416 C68.6033301,23.6512028 68.812416,24.3769556 68.812416,25.261696 C68.812416,25.863043 68.6862733,26.3918057 68.433984,26.848 C68.1816947,27.3041943 67.8499221,27.6532468 67.438656,27.895168 C67.0273899,28.1370892 66.5971222,28.258048 66.14784,28.258048 C65.2769236,28.258048 64.6323861,27.9746588 64.214208,27.407872 C63.7960299,26.8410852 63.586944,26.1153324 63.586944,25.230592 Z M66.19968,27.718912 C66.7319067,27.718912 67.1431665,27.51501 67.433472,27.1072 C67.7237775,26.69939 67.868928,26.1049639 67.868928,25.323904 C67.868928,24.5774043 67.7341453,23.9656984 67.464576,23.488768 C67.1950067,23.0118376 66.7768348,22.773376 66.210048,22.773376 C65.6778213,22.773376 65.2648335,22.977278 64.971072,23.385088 C64.6773105,23.792898 64.530432,24.3873241 64.530432,25.168384 C64.530432,25.9217958 64.6669426,26.5352296 64.939968,27.008704 C65.2129934,27.4821784 65.6328932,27.718912 66.19968,27.718912 Z M70.65792,23.01184 L69.610752,23.01184 L69.610752,22.59712 L70.65792,22.400128 L70.65792,21.892096 C70.65792,21.4773739 70.7650549,21.0954897 70.979328,20.746432 C71.1936011,20.3973743 71.4718063,20.119169 71.813952,19.911808 C72.1560977,19.704447 72.5137901,19.600768 72.88704,19.600768 C73.1082251,19.600768 73.3017592,19.6284157 73.467648,19.683712 L73.467648,20.533888 C73.4123517,20.4924158 73.3000328,20.4509442 73.130688,20.409472 C72.9613432,20.3679998 72.7660811,20.347264 72.544896,20.347264 C72.1785582,20.347264 71.9124488,20.444031 71.74656,20.637568 C71.5806712,20.831105 71.497728,21.1594217 71.497728,21.622528 L71.497728,22.400128 L73.001088,22.400128 L73.001088,23.01184 L71.497728,23.01184 L71.497728,27.6256 L72.67968,27.698176 L72.67968,28.144 L69.745536,28.144 L69.745536,27.698176 L70.65792,27.615232 L70.65792,23.01184 Z M75.06432,21.30112 C74.6910701,21.30112 74.504448,21.10413 74.504448,20.710144 C74.504448,20.509695 74.5631994,20.3455366 74.680704,20.217664 C74.7982086,20.0897914 74.957183,20.025856 75.157632,20.025856 C75.364993,20.025856 75.5135996,20.0828794 75.603456,20.196928 C75.6933124,20.3109766 75.73824,20.4509432 75.73824,20.616832 C75.73824,20.8311051 75.6812166,20.9987194 75.567168,21.11968 C75.4531194,21.2406406 75.2889611,21.30112 75.074688,21.30112 L75.06432,21.30112 Z M74.732544,23.074048 L73.92384,22.897792 L73.92384,22.431232 L75.344256,22.265344 L75.364992,22.265344 L75.572352,22.431232 L75.572352,27.6256 L76.474368,27.698176 L76.474368,28.144 L73.82016,28.144 L73.82016,27.698176 L74.732544,27.615232 L74.732544,23.074048 Z M77.272704,26.630272 C77.272704,25.9598046 77.6044767,25.4742415 78.268032,25.173568 C78.9315873,24.8728945 79.7575631,24.7121921 80.745984,24.691456 L80.745984,24.370048 C80.745984,24.0175342 80.7096964,23.739329 80.63712,23.535424 C80.5645436,23.331519 80.4384009,23.1829125 80.258688,23.0896 C80.0789751,22.9962875 79.8266896,22.949632 79.501824,22.949632 C79.1493102,22.949632 78.8296334,23.0031995 78.542784,23.110336 C78.2559346,23.2174725 77.9777293,23.3470712 77.70816,23.499136 L77.480064,23.042944 C77.5560964,22.9738237 77.7150708,22.8770566 77.956992,22.75264 C78.1989132,22.6282234 78.4753904,22.5176325 78.786432,22.420864 C79.0974736,22.3240955 79.3981425,22.275712 79.688448,22.275712 C80.1584664,22.275712 80.5299826,22.3413753 80.803008,22.472704 C81.0760334,22.6040327 81.2730234,22.8148465 81.393984,23.105152 C81.5149446,23.3954575 81.575424,23.7859815 81.575424,24.276736 L81.575424,27.698176 L82.21824,27.698176 L82.21824,28.081792 C81.8380781,28.1854725 81.5166733,28.237312 81.254016,28.237312 C81.0881272,28.237312 80.9740803,28.2113923 80.911872,28.159552 C80.8496637,28.1077117 80.81856,27.9884809 80.81856,27.801856 L80.81856,27.41824 C80.5697268,27.6394251 80.2984335,27.8346872 80.004672,28.004032 C79.7109105,28.1733768 79.3774099,28.258048 79.00416,28.258048 C78.5064935,28.258048 78.0935056,28.1198094 77.765184,27.843328 C77.4368624,27.5668466 77.272704,27.1624987 77.272704,26.630272 Z M79.3152,27.646336 C79.508737,27.646336 79.7402867,27.5841286 80.009856,27.459712 C80.2794253,27.3352954 80.5247989,27.1866889 80.745984,27.013888 L80.745984,25.178752 C79.9096278,25.185664 79.2754582,25.3100788 78.843456,25.552 C78.4114538,25.7939212 78.195456,26.118782 78.195456,26.526592 C78.195456,26.920578 78.295679,27.2056951 78.496128,27.381952 C78.696577,27.5582089 78.9695983,27.646336 79.3152,27.646336 Z" id="Sofia" fill="#414150" fill-rule="nonzero"></path>
                        <path d="M58.593456,42.696 L57.74976,42.696 L57.74976,38.332368 L58.593456,38.332368 L58.593456,42.696 Z M57.731616,37.11672 C57.6167034,36.9957594 57.559248,36.8506088 57.559248,36.681264 C57.559248,36.5119192 57.6182154,36.3667686 57.736152,36.245808 C57.8540886,36.1248474 57.9977272,36.064368 58.167072,36.064368 C58.3364168,36.064368 58.4815674,36.1233354 58.602528,36.241272 C58.7234886,36.3592086 58.783968,36.5058711 58.783968,36.681264 C58.783968,36.8506088 58.7234886,36.9942474 58.602528,37.112184 C58.4815674,37.2301206 58.3364168,37.289088 58.167072,37.289088 C57.9977272,37.289088 57.8525766,37.2316326 57.731616,37.11672 Z M59.636736,41.562 L60.407856,41.28984 C60.4380962,41.5257132 60.5409111,41.7207592 60.716304,41.874984 C60.8916969,42.0292088 61.1275665,42.10632 61.42392,42.10632 C61.6537451,42.10632 61.8351833,42.0503766 61.96824,41.938488 C62.1012967,41.8265994 62.167824,41.6890088 62.167824,41.525712 C62.167824,41.2354065 61.9803379,41.0479204 61.60536,40.963248 L60.861456,40.799952 C60.5227663,40.7273756 60.256657,40.5822251 60.06312,40.364496 C59.869583,40.1467669 59.772816,39.8836815 59.772816,39.575232 C59.772816,39.2002541 59.9255265,38.8766894 60.230952,38.604528 C60.5363775,38.3323666 60.9007659,38.196288 61.324128,38.196288 C61.6023374,38.196288 61.8503029,38.2371116 62.068032,38.31876 C62.2857611,38.4004084 62.4551034,38.5077593 62.576064,38.640816 C62.6970246,38.7738727 62.7877437,38.8978554 62.848224,39.012768 C62.9087043,39.1276806 62.9540638,39.2456154 62.984304,39.366576 L62.231328,39.647808 C62.2192319,39.5752316 62.1980642,39.5041683 62.167824,39.434616 C62.1375838,39.3650637 62.0907123,39.2879524 62.027208,39.20328 C61.9637037,39.1186076 61.8714726,39.0505683 61.750512,38.99916 C61.6295514,38.9477517 61.4874248,38.922048 61.324128,38.922048 C61.1124469,38.922048 60.9385687,38.9795034 60.802488,39.094416 C60.6664073,39.2093286 60.598368,39.3454072 60.598368,39.502656 C60.598368,39.7808654 60.7646863,39.9562556 61.097328,40.028832 L61.804944,40.183056 C62.1920179,40.2677284 62.489879,40.4234629 62.698536,40.650264 C62.907193,40.8770651 63.01152,41.1537584 63.01152,41.480352 C63.01152,41.8250897 62.8709054,42.1365586 62.589672,42.414768 C62.3084386,42.6929774 61.9168345,42.83208 61.414848,42.83208 C60.8765733,42.83208 60.4562415,42.6975133 60.15384,42.428376 C59.8514385,42.1592387 59.6790722,41.8704495 59.636736,41.562 Z M68.246064,38.985552 C67.8771342,38.985552 67.5641533,39.1186067 67.307112,39.38472 C67.0500707,39.6508333 66.921552,40.0258056 66.921552,40.509648 C66.921552,40.9874424 67.0500707,41.3624146 67.307112,41.634576 C67.5641533,41.9067374 67.8801581,42.042816 68.255136,42.042816 C68.6180178,42.042816 68.894711,41.9520969 69.085224,41.770656 C69.275737,41.5892151 69.4042557,41.3805612 69.470784,41.144688 L70.22376,41.47128 C70.1027994,41.8341618 69.8744897,42.1516786 69.538824,42.42384 C69.2031583,42.6960014 68.7752666,42.83208 68.255136,42.83208 C67.6200928,42.83208 67.0939221,42.6113302 66.676608,42.169824 C66.2592939,41.7283178 66.05064,41.1749313 66.05064,40.509648 C66.05064,39.8322686 66.2592939,39.2773702 66.676608,38.844936 C67.0939221,38.4125018 67.6170689,38.196288 68.246064,38.196288 C68.7782907,38.196288 69.2092064,38.3323666 69.538824,38.604528 C69.8684416,38.8766894 70.0846555,39.2032781 70.187472,39.584304 L69.416352,39.910896 C69.3498237,39.6568787 69.2228169,39.4391529 69.035328,39.257712 C68.8478391,39.0762711 68.5847537,38.985552 68.246064,38.985552 Z M72.074448,41.661792 C72.3405613,41.9339534 72.6641261,42.070032 73.045152,42.070032 C73.4261779,42.070032 73.7482307,41.9324414 74.01132,41.657256 C74.2744093,41.3820706 74.405952,40.9995384 74.405952,40.509648 C74.405952,40.0258056 74.2744093,39.6462974 74.01132,39.371112 C73.7482307,39.0959266 73.4261779,38.958336 73.045152,38.958336 C72.6641261,38.958336 72.3420733,39.0959266 72.078984,39.371112 C71.8158947,39.6462974 71.684352,40.0258056 71.684352,40.509648 C71.684352,40.9995384 71.8143827,41.3835826 72.074448,41.661792 Z M71.439408,38.858544 C71.8627701,38.4170378 72.3980128,38.196288 73.045152,38.196288 C73.6922912,38.196288 74.2260219,38.4155258 74.64636,38.854008 C75.0666981,39.2924902 75.276864,39.8443647 75.276864,40.509648 C75.276864,41.1809794 75.0682101,41.7358778 74.650896,42.17436 C74.2335819,42.6128422 73.6983393,42.83208 73.045152,42.83208 C72.3919647,42.83208 71.8567221,42.6128422 71.439408,42.17436 C71.0220939,41.7358778 70.81344,41.1809794 70.81344,40.509648 C70.81344,39.8443647 71.0220939,39.2940022 71.439408,38.858544 Z M79.967088,38.332368 L78.225264,42.696 L77.363424,42.696 L75.594384,38.332368 L76.556016,38.332368 L77.79888,41.69808 L79.050816,38.332368 L79.967088,38.332368 Z M81.20088,40.06512 L83.586816,40.06512 C83.5747199,39.7385264 83.465857,39.470905 83.260224,39.262248 C83.054591,39.053591 82.7642899,38.949264 82.389312,38.949264 C82.0506223,38.949264 81.7724171,39.0596389 81.554688,39.280392 C81.3369589,39.5011451 81.2190241,39.7627185 81.20088,40.06512 Z M83.713824,41.19912 L84.448656,41.453136 C84.3216474,41.858354 84.0857777,42.1894787 83.74104,42.44652 C83.3963023,42.7035613 82.9789944,42.83208 82.489104,42.83208 C81.8782529,42.83208 81.3596421,42.6219141 80.933256,42.201576 C80.5068699,41.7812379 80.29368,41.2142436 80.29368,40.500576 C80.29368,39.8352927 80.4993099,39.2849302 80.910576,38.849472 C81.3218421,38.4140138 81.8117252,38.196288 82.38024,38.196288 C83.0394753,38.196288 83.5535502,38.4034299 83.92248,38.81772 C84.2914098,39.2320101 84.475872,39.7869085 84.475872,40.482432 C84.475872,40.5912965 84.4698241,40.6820156 84.457728,40.754592 L81.173664,40.754592 C81.179712,41.1416659 81.3082307,41.4591828 81.559224,41.707152 C81.8102173,41.9551212 82.1201742,42.079104 82.489104,42.079104 C83.1120511,42.079104 83.520287,41.7857789 83.713824,41.19912 Z M87.986736,38.287008 L87.986736,39.194208 C87.8597274,39.1760639 87.7357446,39.166992 87.614784,39.166992 C86.816444,39.166992 86.41728,39.6145395 86.41728,40.509648 L86.41728,42.696 L85.564512,42.696 L85.564512,38.332368 L86.399136,38.332368 L86.399136,39.094416 C86.6652493,38.5379972 87.100701,38.259792 87.705504,38.259792 C87.8022725,38.259792 87.8960155,38.2688639 87.986736,38.287008 Z M89.401968,40.06512 L91.787904,40.06512 C91.7758079,39.7385264 91.666945,39.470905 91.461312,39.262248 C91.255679,39.053591 90.9653779,38.949264 90.5904,38.949264 C90.2517103,38.949264 89.9735051,39.0596389 89.755776,39.280392 C89.5380469,39.5011451 89.4201121,39.7627185 89.401968,40.06512 Z M91.914912,41.19912 L92.649744,41.453136 C92.5227354,41.858354 92.2868657,42.1894787 91.942128,42.44652 C91.5973903,42.7035613 91.1800824,42.83208 90.690192,42.83208 C90.0793409,42.83208 89.5607301,42.6219141 89.134344,42.201576 C88.7079579,41.7812379 88.494768,41.2142436 88.494768,40.500576 C88.494768,39.8352927 88.7003979,39.2849302 89.111664,38.849472 C89.5229301,38.4140138 90.0128132,38.196288 90.581328,38.196288 C91.2405633,38.196288 91.7546382,38.4034299 92.123568,38.81772 C92.4924978,39.2320101 92.67696,39.7869085 92.67696,40.482432 C92.67696,40.5912965 92.6709121,40.6820156 92.658816,40.754592 L89.374752,40.754592 C89.3808,41.1416659 89.5093187,41.4591828 89.760312,41.707152 C90.0113053,41.9551212 90.3212622,42.079104 90.690192,42.079104 C91.3131391,42.079104 91.721375,41.7857789 91.914912,41.19912 Z M94.273632,40.500576 C94.273632,40.9602263 94.3870309,41.3351985 94.613832,41.625504 C94.8406331,41.9158095 95.153614,42.06096 95.552784,42.06096 C95.9338099,42.06096 96.2392309,41.9127855 96.469056,41.616432 C96.6988811,41.3200785 96.813792,40.9420823 96.813792,40.482432 C96.813792,40.0288297 96.7019051,39.6629294 96.478128,39.38472 C96.2543509,39.1065106 95.9489299,38.967408 95.561856,38.967408 C95.1747821,38.967408 94.8633132,39.1095346 94.62744,39.393792 C94.3915668,39.6780494 94.273632,40.0469737 94.273632,40.500576 Z M96.822864,42.10632 L96.822864,42.033744 C96.7079514,42.2575211 96.5340732,42.4434953 96.301224,42.591672 C96.0683748,42.7398487 95.7916816,42.813936 95.471136,42.813936 C94.8481889,42.813936 94.3477219,42.5946982 93.96972,42.156216 C93.5917181,41.7177338 93.40272,41.1658593 93.40272,40.500576 C93.40272,39.8655328 93.5962541,39.3257542 93.983328,38.881224 C94.3704019,38.4366938 94.866333,38.214432 95.471136,38.214432 C95.8279698,38.214432 96.1182709,38.2854953 96.342048,38.427624 C96.5658251,38.5697527 96.7200476,38.743631 96.80472,38.949264 L96.80472,36.127872 L97.648416,36.127872 L97.648416,41.888592 C97.648416,42.1849455 97.6635358,42.4540788 97.693776,42.696 L96.868224,42.696 C96.8379838,42.5266552 96.822864,42.3300971 96.822864,42.10632 Z" id="iscovered" fill="#9B9BAA" fill-rule="nonzero"></path>
                    </g>
                    <g id="row-3" transform="translate(0.000000, 139.968000)">
                        <g id="Rectangle-2-Copy-2">
                            <use fill="black" fill-opacity="1" filter="url(#filter-8)" xlink:href="#path-7"></use>
                            <use fill="#FFFFFF" fill-rule="evenodd" xlink:href="#path-7"></use>
                        </g>
                        <g id="icons/expand" transform="translate(196.344000, 24.624000)" fill="#9B9BAA" fill-rule="nonzero">
                            <polygon id="Path-2" transform="translate(7.776214, 7.771823) scale(-1, 1) rotate(-90.000000) translate(-7.776214, -7.771823) " points="11.0358677 2.16892526 10.5776625 1.71072007 4.51655986 7.77182267 10.5776625 13.8329253 11.0358677 13.3747201 5.43297025 7.77182267"></polygon>
                        </g>
                        <path d="M58.755456,21.000448 L57.604608,20.8864 L57.604608,20.440576 L60.051456,20.440576 L61.658496,25.230592 L62.042112,26.619904 L62.384256,25.230592 L63.980928,20.440576 L66.40704,20.440576 L66.40704,20.8864 L65.26656,21.000448 L66.085632,27.594496 L67.02912,27.698176 L67.02912,28.144 L64.240128,28.144 L64.240128,27.698176 L65.204352,27.604864 L64.727424,22.877056 L64.499328,20.803456 L64.043136,22.23424 L62.166528,27.770752 L61.751808,27.770752 L59.989248,22.814848 L59.315328,20.803456 L59.107968,22.877056 L58.68288,27.604864 L59.698944,27.698176 L59.698944,28.144 L57.106944,28.144 L57.106944,27.698176 L57.988224,27.604864 L58.755456,21.000448 Z M68.356224,30.725632 C68.2594555,30.725632 68.1609605,30.7187201 68.060736,30.704896 C67.9605115,30.6910719 67.8896642,30.6737921 67.848192,30.653056 L67.848192,29.885824 C67.9311364,29.9272962 68.1073907,29.948032 68.37696,29.948032 C68.5912331,29.948032 68.7864951,29.9048324 68.962752,29.818432 C69.1390089,29.7320316 69.3204471,29.5575053 69.507072,29.294848 C69.6936969,29.0321907 69.8768631,28.6485785 70.056576,28.144 L69.600384,28.144 L67.620096,22.949632 L67.1328,22.814848 L67.1328,22.38976 L69.424128,22.38976 L69.424128,22.814848 L68.58432,22.939264 L69.67296,26.111872 L70.212096,27.801856 L70.730496,26.101504 L71.705088,22.939264 L70.979328,22.814848 L70.979328,22.38976 L72.969984,22.38976 L72.969984,22.814848 L72.430848,22.939264 C71.9124454,24.5290319 71.5029135,25.7714515 71.20224,26.66656 C70.9015665,27.5616685 70.7097604,28.109439 70.626816,28.309888 C70.3848948,28.918147 70.1706249,29.3864304 69.984,29.714752 C69.7973751,30.0430736 69.5761933,30.2936311 69.320448,30.466432 C69.0647027,30.6392329 68.7432979,30.725632 68.356224,30.725632 Z M76.816512,27.324928 C76.8925444,27.4424326 77.0515188,27.5461116 77.29344,27.635968 C77.5353612,27.7258244 77.7945586,27.770752 78.07104,27.770752 C78.9143082,27.770752 79.335936,27.4597151 79.335936,26.837632 C79.335936,26.5542386 79.2184332,26.3244169 78.983424,26.14816 C78.7484148,25.9719031 78.3475228,25.7766411 77.780736,25.562368 C77.2208612,25.361919 76.8130573,25.1234574 76.557312,24.846976 C76.3015667,24.5704946 76.173696,24.2007063 76.173696,23.7376 C76.173696,23.4403825 76.2652791,23.1811851 76.448448,22.96 C76.6316169,22.7388149 76.8769905,22.5677446 77.184576,22.446784 C77.4921615,22.3258234 77.8256622,22.265344 78.185088,22.265344 C78.5376018,22.265344 78.8330868,22.2964477 79.071552,22.358656 C79.3100172,22.4208643 79.5467508,22.4968956 79.78176,22.586752 L79.78176,23.820544 L79.273728,23.820544 L79.087104,23.06368 C79.0387198,22.9738236 78.916033,22.8977923 78.71904,22.835584 C78.522047,22.7733757 78.3060492,22.742272 78.07104,22.742272 C77.7392623,22.742272 77.469697,22.8165753 77.262336,22.965184 C77.054975,23.1137927 76.951296,23.3125108 76.951296,23.561344 C76.951296,23.7825291 77.0031355,23.9656953 77.106816,24.110848 C77.2104965,24.2560007 77.3383672,24.3717756 77.490432,24.458176 C77.6424968,24.5445764 77.8533107,24.6430714 78.12288,24.753664 L78.319872,24.836608 C78.713858,24.9886728 79.0318068,25.1320953 79.273728,25.26688 C79.5156492,25.4016647 79.7160952,25.5779189 79.875072,25.795648 C80.0340488,26.0133771 80.113536,26.2846704 80.113536,26.609536 C80.113536,27.1210266 79.918274,27.5236465 79.527744,27.817408 C79.137214,28.1111695 78.6170912,28.258048 77.96736,28.258048 C77.6701425,28.258048 77.3314579,28.2096645 76.951296,28.112896 C76.5711341,28.0161275 76.2877449,27.9193605 76.10112,27.822592 L76.10112,26.516224 L76.660992,26.516224 L76.816512,27.324928 Z M82.902528,28.258048 C82.5361902,28.258048 82.2597129,28.1733768 82.073088,28.004032 C81.8864631,27.8346872 81.793152,27.5322902 81.793152,27.096832 L81.793152,23.001472 L81.005184,23.001472 L81.005184,22.59712 C81.3507857,22.5210876 81.5512317,22.4657922 81.606528,22.431232 C81.7102085,22.3759357 81.7862398,22.2688008 81.834624,22.109824 C81.8760962,22.0061435 81.9313917,21.8195213 82.000512,21.549952 C82.0696323,21.2803827 82.1214718,21.0695688 82.156032,20.917504 L82.63296,20.917504 L82.63296,22.38976 L84.468096,22.38976 L84.468096,23.001472 L82.63296,23.001472 L82.63296,26.360704 C82.63296,26.761602 82.6467839,27.0432632 82.674432,27.205696 C82.7020801,27.3681288 82.7573756,27.4735358 82.84032,27.52192 C82.9232644,27.5703042 83.068415,27.594496 83.275776,27.594496 C83.476225,27.594496 83.7008628,27.5668483 83.949696,27.511552 C84.1985292,27.4562557 84.3851514,27.3975043 84.509568,27.335296 L84.644352,27.72928 C84.4853752,27.8536966 84.2227218,27.9729274 83.856384,28.086976 C83.4900462,28.2010246 83.1720973,28.258048 82.902528,28.258048 Z M90.066816,28.237312 C89.8871031,28.237312 89.7557764,28.2062083 89.672832,28.144 C89.5898876,28.0817917 89.548416,27.9677448 89.548416,27.801856 L89.548416,27.397504 C89.2926707,27.6256011 88.9920017,27.8260471 88.6464,27.998848 C88.3007983,28.1716489 87.9552017,28.258048 87.6096,28.258048 C86.9806049,28.258048 86.5330573,28.0817938 86.266944,27.72928 C86.0008307,27.3767662 85.867776,26.803076 85.867776,26.008192 L85.867776,22.96 L85.256064,22.783744 L85.256064,22.400128 L86.510592,22.265344 L86.52096,22.265344 L86.707584,22.38976 L86.707584,25.883776 C86.707584,26.3192342 86.7386877,26.6596468 86.800896,26.905024 C86.8631043,27.1504012 86.9771512,27.3318394 87.14304,27.449344 C87.3089288,27.5668486 87.5508464,27.6256 87.8688,27.6256 C88.1729295,27.6256 88.4632306,27.5599367 88.739712,27.428608 C89.0161934,27.2972793 89.254655,27.1417609 89.455104,26.962048 L89.455104,22.96 L88.667136,22.783744 L88.667136,22.400128 L90.04608,22.265344 L90.056448,22.265344 L90.294912,22.38976 L90.294912,27.687808 L90.937728,27.687808 L90.92736,28.081792 C90.8927998,28.088704 90.7925768,28.1163518 90.626688,28.164736 C90.4607992,28.2131202 90.274177,28.237312 90.066816,28.237312 Z M92.731392,23.01184 L91.684224,23.01184 L91.684224,22.59712 L92.731392,22.400128 L92.731392,21.892096 C92.731392,21.4773739 92.8385269,21.0954897 93.0528,20.746432 C93.2670731,20.3973743 93.5452783,20.119169 93.887424,19.911808 C94.2295697,19.704447 94.5872621,19.600768 94.960512,19.600768 C95.1816971,19.600768 95.3752312,19.6284157 95.54112,19.683712 L95.54112,20.533888 C95.4858237,20.4924158 95.3735048,20.4509442 95.20416,20.409472 C95.0348152,20.3679998 94.8395531,20.347264 94.618368,20.347264 C94.2520302,20.347264 93.9859208,20.444031 93.820032,20.637568 C93.6541432,20.831105 93.5712,21.1594217 93.5712,21.622528 L93.5712,22.400128 L95.07456,22.400128 L95.07456,23.01184 L93.5712,23.01184 L93.5712,27.6256 L94.753152,27.698176 L94.753152,28.144 L91.819008,28.144 L91.819008,27.698176 L92.731392,27.615232 L92.731392,23.01184 Z M96.826752,23.01184 L95.779584,23.01184 L95.779584,22.59712 L96.826752,22.400128 L96.826752,21.892096 C96.826752,21.4773739 96.9338869,21.0954897 97.14816,20.746432 C97.3624331,20.3973743 97.6406383,20.119169 97.982784,19.911808 C98.3249297,19.704447 98.6826221,19.600768 99.055872,19.600768 C99.2770571,19.600768 99.4705912,19.6284157 99.63648,19.683712 L99.63648,20.533888 C99.5811837,20.4924158 99.4688648,20.4509442 99.29952,20.409472 C99.1301752,20.3679998 98.9349131,20.347264 98.713728,20.347264 C98.3473902,20.347264 98.0812808,20.444031 97.915392,20.637568 C97.7495032,20.831105 97.66656,21.1594217 97.66656,21.622528 L97.66656,22.400128 L99.16992,22.400128 L99.16992,23.01184 L97.66656,23.01184 L97.66656,27.6256 L98.848512,27.698176 L98.848512,28.144 L95.914368,28.144 L95.914368,27.698176 L96.826752,27.615232 L96.826752,23.01184 Z" id="Mystuff" fill="#414150" fill-rule="nonzero"></path>
                        <path d="M58.593456,42.696 L57.74976,42.696 L57.74976,38.332368 L58.593456,38.332368 L58.593456,42.696 Z M57.731616,37.11672 C57.6167034,36.9957594 57.559248,36.8506088 57.559248,36.681264 C57.559248,36.5119192 57.6182154,36.3667686 57.736152,36.245808 C57.8540886,36.1248474 57.9977272,36.064368 58.167072,36.064368 C58.3364168,36.064368 58.4815674,36.1233354 58.602528,36.241272 C58.7234886,36.3592086 58.783968,36.5058711 58.783968,36.681264 C58.783968,36.8506088 58.7234886,36.9942474 58.602528,37.112184 C58.4815674,37.2301206 58.3364168,37.289088 58.167072,37.289088 C57.9977272,37.289088 57.8525766,37.2316326 57.731616,37.11672 Z M59.636736,41.562 L60.407856,41.28984 C60.4380962,41.5257132 60.5409111,41.7207592 60.716304,41.874984 C60.8916969,42.0292088 61.1275665,42.10632 61.42392,42.10632 C61.6537451,42.10632 61.8351833,42.0503766 61.96824,41.938488 C62.1012967,41.8265994 62.167824,41.6890088 62.167824,41.525712 C62.167824,41.2354065 61.9803379,41.0479204 61.60536,40.963248 L60.861456,40.799952 C60.5227663,40.7273756 60.256657,40.5822251 60.06312,40.364496 C59.869583,40.1467669 59.772816,39.8836815 59.772816,39.575232 C59.772816,39.2002541 59.9255265,38.8766894 60.230952,38.604528 C60.5363775,38.3323666 60.9007659,38.196288 61.324128,38.196288 C61.6023374,38.196288 61.8503029,38.2371116 62.068032,38.31876 C62.2857611,38.4004084 62.4551034,38.5077593 62.576064,38.640816 C62.6970246,38.7738727 62.7877437,38.8978554 62.848224,39.012768 C62.9087043,39.1276806 62.9540638,39.2456154 62.984304,39.366576 L62.231328,39.647808 C62.2192319,39.5752316 62.1980642,39.5041683 62.167824,39.434616 C62.1375838,39.3650637 62.0907123,39.2879524 62.027208,39.20328 C61.9637037,39.1186076 61.8714726,39.0505683 61.750512,38.99916 C61.6295514,38.9477517 61.4874248,38.922048 61.324128,38.922048 C61.1124469,38.922048 60.9385687,38.9795034 60.802488,39.094416 C60.6664073,39.2093286 60.598368,39.3454072 60.598368,39.502656 C60.598368,39.7808654 60.7646863,39.9562556 61.097328,40.028832 L61.804944,40.183056 C62.1920179,40.2677284 62.489879,40.4234629 62.698536,40.650264 C62.907193,40.8770651 63.01152,41.1537584 63.01152,41.480352 C63.01152,41.8250897 62.8709054,42.1365586 62.589672,42.414768 C62.3084386,42.6929774 61.9168345,42.83208 61.414848,42.83208 C60.8765733,42.83208 60.4562415,42.6975133 60.15384,42.428376 C59.8514385,42.1592387 59.6790722,41.8704495 59.636736,41.562 Z M68.246064,38.985552 C67.8771342,38.985552 67.5641533,39.1186067 67.307112,39.38472 C67.0500707,39.6508333 66.921552,40.0258056 66.921552,40.509648 C66.921552,40.9874424 67.0500707,41.3624146 67.307112,41.634576 C67.5641533,41.9067374 67.8801581,42.042816 68.255136,42.042816 C68.6180178,42.042816 68.894711,41.9520969 69.085224,41.770656 C69.275737,41.5892151 69.4042557,41.3805612 69.470784,41.144688 L70.22376,41.47128 C70.1027994,41.8341618 69.8744897,42.1516786 69.538824,42.42384 C69.2031583,42.6960014 68.7752666,42.83208 68.255136,42.83208 C67.6200928,42.83208 67.0939221,42.6113302 66.676608,42.169824 C66.2592939,41.7283178 66.05064,41.1749313 66.05064,40.509648 C66.05064,39.8322686 66.2592939,39.2773702 66.676608,38.844936 C67.0939221,38.4125018 67.6170689,38.196288 68.246064,38.196288 C68.7782907,38.196288 69.2092064,38.3323666 69.538824,38.604528 C69.8684416,38.8766894 70.0846555,39.2032781 70.187472,39.584304 L69.416352,39.910896 C69.3498237,39.6568787 69.2228169,39.4391529 69.035328,39.257712 C68.8478391,39.0762711 68.5847537,38.985552 68.246064,38.985552 Z M72.074448,41.661792 C72.3405613,41.9339534 72.6641261,42.070032 73.045152,42.070032 C73.4261779,42.070032 73.7482307,41.9324414 74.01132,41.657256 C74.2744093,41.3820706 74.405952,40.9995384 74.405952,40.509648 C74.405952,40.0258056 74.2744093,39.6462974 74.01132,39.371112 C73.7482307,39.0959266 73.4261779,38.958336 73.045152,38.958336 C72.6641261,38.958336 72.3420733,39.0959266 72.078984,39.371112 C71.8158947,39.6462974 71.684352,40.0258056 71.684352,40.509648 C71.684352,40.9995384 71.8143827,41.3835826 72.074448,41.661792 Z M71.439408,38.858544 C71.8627701,38.4170378 72.3980128,38.196288 73.045152,38.196288 C73.6922912,38.196288 74.2260219,38.4155258 74.64636,38.854008 C75.0666981,39.2924902 75.276864,39.8443647 75.276864,40.509648 C75.276864,41.1809794 75.0682101,41.7358778 74.650896,42.17436 C74.2335819,42.6128422 73.6983393,42.83208 73.045152,42.83208 C72.3919647,42.83208 71.8567221,42.6128422 71.439408,42.17436 C71.0220939,41.7358778 70.81344,41.1809794 70.81344,40.509648 C70.81344,39.8443647 71.0220939,39.2940022 71.439408,38.858544 Z M79.967088,38.332368 L78.225264,42.696 L77.363424,42.696 L75.594384,38.332368 L76.556016,38.332368 L77.79888,41.69808 L79.050816,38.332368 L79.967088,38.332368 Z M81.20088,40.06512 L83.586816,40.06512 C83.5747199,39.7385264 83.465857,39.470905 83.260224,39.262248 C83.054591,39.053591 82.7642899,38.949264 82.389312,38.949264 C82.0506223,38.949264 81.7724171,39.0596389 81.554688,39.280392 C81.3369589,39.5011451 81.2190241,39.7627185 81.20088,40.06512 Z M83.713824,41.19912 L84.448656,41.453136 C84.3216474,41.858354 84.0857777,42.1894787 83.74104,42.44652 C83.3963023,42.7035613 82.9789944,42.83208 82.489104,42.83208 C81.8782529,42.83208 81.3596421,42.6219141 80.933256,42.201576 C80.5068699,41.7812379 80.29368,41.2142436 80.29368,40.500576 C80.29368,39.8352927 80.4993099,39.2849302 80.910576,38.849472 C81.3218421,38.4140138 81.8117252,38.196288 82.38024,38.196288 C83.0394753,38.196288 83.5535502,38.4034299 83.92248,38.81772 C84.2914098,39.2320101 84.475872,39.7869085 84.475872,40.482432 C84.475872,40.5912965 84.4698241,40.6820156 84.457728,40.754592 L81.173664,40.754592 C81.179712,41.1416659 81.3082307,41.4591828 81.559224,41.707152 C81.8102173,41.9551212 82.1201742,42.079104 82.489104,42.079104 C83.1120511,42.079104 83.520287,41.7857789 83.713824,41.19912 Z M87.986736,38.287008 L87.986736,39.194208 C87.8597274,39.1760639 87.7357446,39.166992 87.614784,39.166992 C86.816444,39.166992 86.41728,39.6145395 86.41728,40.509648 L86.41728,42.696 L85.564512,42.696 L85.564512,38.332368 L86.399136,38.332368 L86.399136,39.094416 C86.6652493,38.5379972 87.100701,38.259792 87.705504,38.259792 C87.8022725,38.259792 87.8960155,38.2688639 87.986736,38.287008 Z M89.401968,40.06512 L91.787904,40.06512 C91.7758079,39.7385264 91.666945,39.470905 91.461312,39.262248 C91.255679,39.053591 90.9653779,38.949264 90.5904,38.949264 C90.2517103,38.949264 89.9735051,39.0596389 89.755776,39.280392 C89.5380469,39.5011451 89.4201121,39.7627185 89.401968,40.06512 Z M91.914912,41.19912 L92.649744,41.453136 C92.5227354,41.858354 92.2868657,42.1894787 91.942128,42.44652 C91.5973903,42.7035613 91.1800824,42.83208 90.690192,42.83208 C90.0793409,42.83208 89.5607301,42.6219141 89.134344,42.201576 C88.7079579,41.7812379 88.494768,41.2142436 88.494768,40.500576 C88.494768,39.8352927 88.7003979,39.2849302 89.111664,38.849472 C89.5229301,38.4140138 90.0128132,38.196288 90.581328,38.196288 C91.2405633,38.196288 91.7546382,38.4034299 92.123568,38.81772 C92.4924978,39.2320101 92.67696,39.7869085 92.67696,40.482432 C92.67696,40.5912965 92.6709121,40.6820156 92.658816,40.754592 L89.374752,40.754592 C89.3808,41.1416659 89.5093187,41.4591828 89.760312,41.707152 C90.0113053,41.9551212 90.3212622,42.079104 90.690192,42.079104 C91.3131391,42.079104 91.721375,41.7857789 91.914912,41.19912 Z M94.273632,40.500576 C94.273632,40.9602263 94.3870309,41.3351985 94.613832,41.625504 C94.8406331,41.9158095 95.153614,42.06096 95.552784,42.06096 C95.9338099,42.06096 96.2392309,41.9127855 96.469056,41.616432 C96.6988811,41.3200785 96.813792,40.9420823 96.813792,40.482432 C96.813792,40.0288297 96.7019051,39.6629294 96.478128,39.38472 C96.2543509,39.1065106 95.9489299,38.967408 95.561856,38.967408 C95.1747821,38.967408 94.8633132,39.1095346 94.62744,39.393792 C94.3915668,39.6780494 94.273632,40.0469737 94.273632,40.500576 Z M96.822864,42.10632 L96.822864,42.033744 C96.7079514,42.2575211 96.5340732,42.4434953 96.301224,42.591672 C96.0683748,42.7398487 95.7916816,42.813936 95.471136,42.813936 C94.8481889,42.813936 94.3477219,42.5946982 93.96972,42.156216 C93.5917181,41.7177338 93.40272,41.1658593 93.40272,40.500576 C93.40272,39.8655328 93.5962541,39.3257542 93.983328,38.881224 C94.3704019,38.4366938 94.866333,38.214432 95.471136,38.214432 C95.8279698,38.214432 96.1182709,38.2854953 96.342048,38.427624 C96.5658251,38.5697527 96.7200476,38.743631 96.80472,38.949264 L96.80472,36.127872 L97.648416,36.127872 L97.648416,41.888592 C97.648416,42.1849455 97.6635358,42.4540788 97.693776,42.696 L96.868224,42.696 C96.8379838,42.5266552 96.822864,42.3300971 96.822864,42.10632 Z" id="iscovered" fill="#9B9BAA" fill-rule="nonzero"></path>
                        <g id="icons/categories/prylar" transform="translate(5.184000, 11.664000)">
                            <g id="Page-1" transform="translate(0.000000, 5.652766)">
                                <path d="M25.1674707,29.3436211 C24.3557335,28.8846165 23.8520721,28.0220045 23.8520721,27.0921245 L23.8520721,17.7158816 L26.1131785,17.7158816 L26.1131785,27.0921245 C26.1131785,27.2311825 26.1996658,27.3295406 26.2805003,27.375328 L25.1674707,29.3436211 Z" id="Fill-1" fill="#B0FEEB"></path>
                                <path d="M38.1142267,29.6770213 L25.723929,29.6770213 L25.723929,27.4159149 L38.1142267,27.4159149 C38.2928541,27.4159149 38.4386955,27.2706388 38.4386955,27.0920114 L38.4386955,14.8362495 L40.6998018,14.8362495 L40.6998018,27.0920114 C40.6998018,28.5170737 39.5398543,29.6770213 38.1142267,29.6770213" id="Fill-3" fill="#1BE9B6"></path>
                                <polygon id="Fill-5" fill="#009175" points="30.3084352 6.19656204 34.2433256 6.19656204 34.2433256 3.93545566 30.3084352 3.93545566"></polygon>
                                <path d="M33.9717667,23.4457513 C33.9717667,24.3824146 33.2126003,25.141581 32.275937,25.141581 C31.3392736,25.141581 30.5801072,24.3824146 30.5801072,23.4457513 C30.5801072,22.5090879 31.3392736,21.7499215 32.275937,21.7499215 C33.2126003,21.7499215 33.9717667,22.5090879 33.9717667,23.4457513" id="Fill-7" fill="#009175"></path>
                                <path d="M26.1131219,17.7156555 L23.8520155,17.7156555 L23.8520155,2.58546209 C23.8520155,1.15983452 25.0119631,-0.000113055319 26.4375907,-0.000113055319 L38.1139441,-0.000113055319 C39.5401369,-0.000113055319 40.7000845,1.15983452 40.7000845,2.58546209 L40.7000845,14.8361365 L38.4389781,14.8361365 L38.4389781,2.58546209 C38.4389781,2.40683469 38.2931367,2.26099333 38.1139441,2.26099333 L26.4375907,2.26099333 C26.2589633,2.26099333 26.1131219,2.40683469 26.1131219,2.58546209 L26.1131219,17.7156555 Z" id="Fill-8" fill="#009175"></path>
                                <path d="M6.69609697,18.546499 C4.25071042,18.546499 2.2609368,20.5362726 2.2609368,22.9816592 C2.2609368,25.4264804 4.25071042,27.4156888 6.69609697,27.4156888 C9.14148352,27.4156888 11.1312571,25.4264804 11.1312571,22.9816592 C11.1312571,20.5362726 9.14148352,18.546499 6.69609697,18.546499 M6.69609697,29.6767952 C3.00371025,29.6767952 -0.000169582979,26.6734806 -0.000169582979,22.9816592 C-0.000169582979,19.2887072 3.00371025,16.2853926 6.69609697,16.2853926 C10.3884837,16.2853926 13.3923635,19.2887072 13.3923635,22.9816592 C13.3923635,26.6734806 10.3884837,29.6767952 6.69609697,29.6767952" id="Fill-9" fill="#009175"></path>
                                <path d="M8.72532689,21.8222203 L12.6506076,15.1875689 L19.1733342,15.1875689 L15.2486188,21.8329606 L8.72532689,21.8222203 Z M23.1347926,12.9264626 L11.3612117,12.9264626 L6.14879617,21.735733 L7.48567532,24.0810656 L16.5380147,24.0957628 L23.1347926,12.9264626 Z" id="Fill-10" fill="#1BE9B6"></path>
                                <polygon id="Fill-11" fill="#009175" points="11.3612682 12.926293 23.1348491 12.926293 16.5380713 24.0961585 15.2486753 21.832791 19.1733907 15.1873994 12.6506641 15.1873994"></polygon>
                                <path d="M25.7244943,18.546499 C23.2791077,18.546499 21.2893341,20.5362726 21.2893341,22.9816592 C21.2893341,25.4264804 23.2791077,27.4156888 25.7244943,27.4156888 C28.1698808,27.4156888 30.1596544,25.4264804 30.1596544,22.9816592 C30.1596544,20.5362726 28.1698808,18.546499 25.7244943,18.546499 M25.7244943,29.6767952 C22.0321075,29.6767952 19.0282277,26.6734806 19.0282277,22.9816592 C19.0282277,19.2887072 22.0321075,16.2853926 25.7244943,16.2853926 C29.416881,16.2853926 32.4207608,19.2887072 32.4207608,22.9816592 C32.4207608,26.6734806 29.416881,29.6767952 25.7244943,29.6767952" id="Fill-12" fill="#1BE9B6"></path>
                                <polygon id="Fill-13" fill="#1BE9B6" points="24.6668052 23.3541199 19.305722 9.13797881 26.113348 9.13797881 26.113348 11.3990852 22.5747165 11.3990852 26.7820702 22.5559494"></polygon>
                                <polygon id="Fill-14" fill="#1BE9B6" points="9.08738655 11.3988026 14.1143913 11.3988026 14.1143913 9.13769617 9.08738655 9.13769617"></polygon>
                            </g>
                        </g>
                    </g>
                </g>
            </g>
        </g>
    </g>
</svg>