<?xml version="1.0" encoding="UTF-8"?>
<svg width="270px" height="258px" viewBox="0 0 270 258" version="1.1" xmlns="http://www.w3.org/2000/svg" xmlns:xlink="http://www.w3.org/1999/xlink">
    <!-- Generator: Sketch 53.1 (72631) - https://sketchapp.com -->
    <title>simple_overview</title>
    <desc>Created with Sketch.</desc>
    <defs>
        <path d="M5.184,0 L217.08,0 C219.943044,-5.25932677e-16 222.264,2.32095586 222.264,5.184 L222.264,59.616 C222.264,62.4790441 219.943044,64.8 217.08,64.8 L5.184,64.8 C2.32095586,64.8 6.1224914e-16,62.4790441 -3.55271368e-15,59.616 L-8.8817842e-16,5.184 C-1.2388002e-15,2.32095586 2.32095586,5.25932677e-16 5.184,0 Z" id="path-1"></path>
        <filter x="-1.6%" y="-3.9%" width="103.1%" height="110.8%" filterUnits="objectBoundingBox" id="filter-2">
            <feOffset dx="0" dy="1" in="SourceAlpha" result="shadowOffsetOuter1"></feOffset>
            <feGaussianBlur stdDeviation="1" in="shadowOffsetOuter1" result="shadowBlurOuter1"></feGaussianBlur>
            <feColorMatrix values="0 0 0 0 0   0 0 0 0 0   0 0 0 0 0  0 0 0 0.15 0" type="matrix" in="shadowBlurOuter1"></feColorMatrix>
        </filter>
        <polygon id="path-3" points="0 31.3717205 40.6999149 31.3717205 40.6999149 -7.10542736e-15 0 -7.10542736e-15"></polygon>
        <path d="M5.184,0 L217.08,0 C219.943044,-5.25932677e-16 222.264,2.32095586 222.264,5.184 L222.264,59.616 C222.264,62.4790441 219.943044,64.8 217.08,64.8 L5.184,64.8 C2.32095586,64.8 6.1224914e-16,62.4790441 -3.55271368e-15,59.616 L-8.8817842e-16,5.184 C-1.2388002e-15,2.32095586 2.32095586,5.25932677e-16 5.184,0 Z" id="path-5"></path>
        <filter x="-1.6%" y="-3.9%" width="103.1%" height="110.8%" filterUnits="objectBoundingBox" id="filter-6">
            <feOffset dx="0" dy="1" in="SourceAlpha" result="shadowOffsetOuter1"></feOffset>
            <feGaussianBlur stdDeviation="1" in="shadowOffsetOuter1" result="shadowBlurOuter1"></feGaussianBlur>
            <feColorMatrix values="0 0 0 0 0   0 0 0 0 0   0 0 0 0 0  0 0 0 0.15 0" type="matrix" in="shadowBlurOuter1"></feColorMatrix>
        </filter>
        <path d="M5.184,0 L217.08,0 C219.943044,-5.25932677e-16 222.264,2.32095586 222.264,5.184 L222.264,59.616 C222.264,62.4790441 219.943044,64.8 217.08,64.8 L5.184,64.8 C2.32095586,64.8 6.1224914e-16,62.4790441 -3.55271368e-15,59.616 L-8.8817842e-16,5.184 C-1.2388002e-15,2.32095586 2.32095586,5.25932677e-16 5.184,0 Z" id="path-7"></path>
        <filter x="-1.6%" y="-3.9%" width="103.1%" height="110.8%" filterUnits="objectBoundingBox" id="filter-8">
            <feOffset dx="0" dy="1" in="SourceAlpha" result="shadowOffsetOuter1"></feOffset>
            <feGaussianBlur stdDeviation="1" in="shadowOffsetOuter1" result="shadowBlurOuter1"></feGaussianBlur>
            <feColorMatrix values="0 0 0 0 0   0 0 0 0 0   0 0 0 0 0  0 0 0 0.15 0" type="matrix" in="shadowBlurOuter1"></feColorMatrix>
        </filter>
    </defs>
    <g id="Page-1" stroke="none" stroke-width="1" fill="none" fill-rule="evenodd">
        <g id="English-Translations" transform="translate(-223.000000, -304.000000)">
            <g id="simple_overview" transform="translate(223.000000, 304.000000)">
                <path d="M10.2555408,-4.14336123e-16 L259.744459,4.14336123e-16 C263.310534,-2.4074122e-16 264.603679,0.371302445 265.907383,1.06853082 C267.211087,1.76575919 268.234241,2.78891348 268.931469,4.09261719 C269.628698,5.39632089 270,6.68946584 270,10.2555408 L270,247.744459 C270,251.310534 269.628698,252.603679 268.931469,253.907383 C268.234241,255.211087 267.211087,256.234241 265.907383,256.931469 C264.603679,257.628698 263.310534,258 259.744459,258 L10.2555408,258 C6.68946584,258 5.39632089,257.628698 4.09261719,256.931469 C2.78891348,256.234241 1.76575919,255.211087 1.06853082,253.907383 C0.371302445,252.603679 1.60494146e-16,251.310534 -2.76224082e-16,247.744459 L2.76224082e-16,10.2555408 C-1.60494146e-16,6.68946584 0.371302445,5.39632089 1.06853082,4.09261719 C1.76575919,2.78891348 2.78891348,1.76575919 4.09261719,1.06853082 C5.39632089,0.371302445 6.68946584,2.4074122e-16 10.2555408,-4.14336123e-16 Z" id="Rectangle" fill="#FFFFFF" fill-rule="nonzero"></path>
                <circle id="Oval" fill="#651EFF" cx="186" cy="175" r="68"></circle>
                <g id="Översikt" transform="translate(24.000000, 20.000000)">
                    <g id="row-2" transform="translate(0.000000, 69.984000)">
                        <g id="Rectangle-2-Copy">
                            <use fill="black" fill-opacity="1" filter="url(#filter-2)" xlink:href="#path-1"></use>
                            <use fill="#FFFFFF" fill-rule="evenodd" xlink:href="#path-1"></use>
                        </g>
                        <g id="icons/expand" transform="translate(196.344000, 24.624000)" fill="#9B9BAA" fill-rule="nonzero">
                            <polygon id="Path-2" transform="translate(7.776214, 7.771823) scale(-1, 1) rotate(-90.000000) translate(-7.776214, -7.771823) " points="11.0358677 2.16892526 10.5776625 1.71072007 4.51655986 7.77182267 10.5776625 13.8329253 11.0358677 13.3747201 5.43297025 7.77182267"></polygon>
                        </g>
                        <text id="Odengatan-22" font-family="Merriweather-Light, Merriweather" font-size="10.368" font-weight="300" line-spacing="15.552" fill="#414150">
                            <tspan x="57.024" y="28.144">Odengatan 22</tspan>
                        </text>
                        <text id="is-covered" font-family="CircularStd-Book, Circular Std" font-size="9.072" font-weight="300" line-spacing="12.96" fill="#9B9BAA">
                            <tspan x="57.024" y="42.696">is covered</tspan>
                        </text>
                        <g id="icons/categories/lagenhet" transform="translate(7.128000, 11.664000)">
                            <g id="Page-1" transform="translate(0.000000, 4.522213)">
                                <path d="M10.4410544,26.3604304 L12.4788765,26.3604304 L12.4788765,23.9444383 C12.4788765,23.3819881 12.0221331,22.9252446 11.4602481,22.9252446 C10.8983632,22.9252446 10.4410544,23.3819881 10.4410544,23.9444383 L10.4410544,26.3604304 Z M14.7399829,28.6215368 L8.17994803,28.6215368 L8.17994803,23.9444383 C8.17994803,22.1355532 9.65192829,20.6641382 11.4602481,20.6641382 C13.2685679,20.6641382 14.7399829,22.1355532 14.7399829,23.9444383 L14.7399829,28.6215368 Z" id="Fill-1" fill="#FF8A80"></path>
                                <mask id="mask-4" fill="white">
                                    <use xlink:href="#path-3"></use>
                                </mask>
                                <g id="Clip-4"></g>
                                <polygon id="Fill-3" fill="#FF8A80" mask="url(#mask-4)" points="1.38436238 31.3717205 3.64546877 31.3717205 3.64546877 20.8112231 1.38436238 20.8112231"></polygon>
                                <polygon id="Fill-5" fill="#AA0045" mask="url(#mask-4)" points="1.59865874 23.4965131 5.65276596e-05 21.8979109 11.492695 10.4047071 20.9972557 19.9087025 19.3986535 21.5073047 11.492695 13.6019116"></polygon>
                                <path d="M28.1854259,15.267386 L30.2232481,15.267386 L30.2232481,12.8513938 C30.2232481,12.2889436 29.7665046,11.8322001 29.2046196,11.8322001 C28.6427347,11.8322001 28.1854259,12.2889436 28.1854259,12.8513938 L28.1854259,15.267386 Z M32.4843544,17.5284924 L25.9243195,17.5284924 L25.9243195,12.8513938 C25.9243195,11.0425087 27.3962998,9.57109374 29.2046196,9.57109374 C31.0129395,9.57109374 32.4843544,11.0425087 32.4843544,12.8513938 L32.4843544,17.5284924 Z" id="Fill-6" fill="#FF8A80" mask="url(#mask-4)"></path>
                                <path d="M28.1854259,26.3604304 L30.2232481,26.3604304 L30.2232481,23.9444383 C30.2232481,23.3819881 29.7665046,22.9252446 29.2046196,22.9252446 C28.6427347,22.9252446 28.1854259,23.3819881 28.1854259,23.9444383 L28.1854259,26.3604304 Z M32.4843544,28.6215368 L25.9243195,28.6215368 L25.9243195,23.9444383 C25.9243195,22.1355532 27.3962998,20.6641382 29.2046196,20.6641382 C31.0129395,20.6641382 32.4843544,22.1355532 32.4843544,23.9444383 L32.4843544,28.6215368 Z" id="Fill-7" fill="#FF8A80" mask="url(#mask-4)"></path>
                                <polygon id="Fill-8" fill="#FF8A80" mask="url(#mask-4)" points="34.719232 7.89951431 34.6740099 2.08225287 36.9351162 2.06472929 36.9803384 7.88199074"></polygon>
                                <polygon id="Fill-9" fill="#FF8A80" mask="url(#mask-4)" points="37.0363573 31.3355428 39.2974637 31.3355428 39.2974637 10.4078727 37.0363573 10.4078727"></polygon>
                                <polygon id="Fill-10" fill="#FF8A80" mask="url(#mask-4)" points="19.1170892 31.3355428 21.3781956 31.3355428 21.3781956 10.4078727 19.1170892 10.4078727"></polygon>
                                <polygon id="Fill-11" fill="#AA0045" mask="url(#mask-4)" points="19.3077005 13.1156041 17.7090982 11.5170019 29.2260436 5.65276596e-05 40.7000279 11.4740409 39.1014257 13.0726431 29.2260436 3.19726095"></polygon>
                            </g>
                        </g>
                    </g>
                    <g id="row-1">
                        <g id="Rectangle-2">
                            <use fill="black" fill-opacity="1" filter="url(#filter-6)" xlink:href="#path-5"></use>
                            <use fill="#FFFFFF" fill-rule="evenodd" xlink:href="#path-5"></use>
                        </g>
                        <g id="icons/categories/du_och_din_familj" transform="translate(5.184000, 11.664000)">
                            <g id="Page-1" transform="translate(3.956936, 8.479149)">
                                <polygon id="Fill-1" fill="#651EFF" points="24.4860863 14.2938666 26.0846885 15.8924689 33.2546569 8.72306579 31.6554894 7.12446357"></polygon>
                                <g id="Group-14">
                                    <path d="M21.4318969,5.80403397 C20.2629049,5.80403397 19.3121096,6.75539449 19.3121096,7.92382121 C19.3121096,9.09224793 20.2629049,10.0436084 21.4318969,10.0436084 C22.6008889,10.0436084 23.5516841,9.09224793 23.5516841,7.92382121 C23.5516841,6.75539449 22.6008889,5.80403397 21.4318969,5.80403397 M21.4318969,12.3047148 C19.01647,12.3047148 17.0510032,10.3392481 17.0510032,7.92382121 C17.0510032,5.50839431 19.01647,3.54292759 21.4318969,3.54292759 C23.8473237,3.54292759 25.8127905,5.50839431 25.8127905,7.92382121 C25.8127905,10.3392481 23.8473237,12.3047148 21.4318969,12.3047148" id="Fill-2" fill="#0F007A"></path>
                                    <path d="M27.3673011,24.0242553 L25.1061947,24.0242553 L25.1061947,17.9577069 C25.1061947,15.9317556 23.4578482,14.283409 21.4318969,14.283409 C19.4059455,14.283409 17.757599,15.9317556 17.757599,17.9577069 L17.757599,23.8931111 L15.4964926,23.8931111 L15.4964926,17.9577069 C15.4964926,14.6847554 18.1589454,12.0223026 21.4318969,12.0223026 C24.7048483,12.0223026 27.3673011,14.6847554 27.3673011,17.9577069 L27.3673011,24.0242553 Z" id="Fill-4" fill="#0F007A"></path>
                                    <polygon id="Fill-6" fill="#0F007A" points="7.17053362 12.3510675 0 5.17996861 1.59860221 3.5813664 8.76913583 10.7524653"></polygon>
                                    <path d="M11.8221947,2.26110638 C10.6532027,2.26110638 9.70240749,3.21246689 9.70240749,4.38089362 C9.70240749,5.54932034 10.6532027,6.50068085 11.8221947,6.50068085 C12.9911867,6.50068085 13.941982,5.54932034 13.941982,4.38089362 C13.941982,3.21246689 12.9911867,2.26110638 11.8221947,2.26110638 M11.8221947,8.76178723 C9.40676783,8.76178723 7.44130111,6.79632051 7.44130111,4.38089362 C7.44130111,1.96546672 9.40676783,0 11.8221947,0 C14.2376216,0 16.2030883,1.96546672 16.2030883,4.38089362 C16.2030883,6.79632051 14.2376216,8.76178723 11.8221947,8.76178723" id="Fill-8" fill="#651EFF"></path>
                                    <path d="M17.757599,26.0027234 L15.4964926,26.0027234 L15.4964926,14.4145532 C15.4964926,12.3886019 13.848146,10.7402553 11.8221947,10.7402553 C9.7962434,10.7402553 8.14789685,12.3886019 8.14789685,14.4145532 L8.14789685,16.5343404 L5.88679047,16.5343404 L5.88679047,14.4145532 C5.88679047,11.1416017 8.54924323,8.47914894 11.8221947,8.47914894 C15.0951462,8.47914894 17.757599,11.1416017 17.757599,14.4145532 L17.757599,26.0027234 Z" id="Fill-10" fill="#651EFF"></path>
                                    <path d="M7.02864919,17.6648936 C5.85965719,17.6648936 4.90886196,18.6162541 4.90886196,19.7846809 C4.90886196,20.9531076 5.85965719,21.9044681 7.02864919,21.9044681 C8.19764119,21.9044681 9.14843643,20.9531076 9.14843643,19.7846809 C9.14843643,18.6162541 8.19764119,17.6648936 7.02864919,17.6648936 M7.02864919,24.1655745 C4.6132223,24.1655745 2.64775557,22.2001077 2.64775557,19.7846809 C2.64775557,17.369254 4.6132223,15.4037872 7.02864919,15.4037872 C9.44407609,15.4037872 11.4095428,17.369254 11.4095428,19.7846809 C11.4095428,22.2001077 9.44407609,24.1655745 7.02864919,24.1655745" id="Fill-12" fill="#0F007A"></path>
                                </g>
                            </g>
                        </g>
                        <g id="icons/expand" transform="translate(196.344000, 24.624000)" fill="#9B9BAA" fill-rule="nonzero">
                            <polygon id="Path-2" transform="translate(7.776214, 7.771823) scale(-1, 1) rotate(-90.000000) translate(-7.776214, -7.771823) " points="11.0358677 2.16892526 10.5776625 1.71072007 4.51655986 7.77182267 10.5776625 13.8329253 11.0358677 13.3747201 5.43297025 7.77182267"></polygon>
                        </g>
                        <text id="Sofia" font-family="Merriweather-Light, Merriweather" font-size="10.368" font-weight="300" line-spacing="15.552" fill="#414150">
                            <tspan x="57.024" y="28.144">Sofia</tspan>
                        </text>
                        <text id="is-covered" font-family="CircularStd-Book, Circular Std" font-size="9.072" font-weight="300" line-spacing="12.96" fill="#9B9BAA">
                            <tspan x="57.024" y="42.696">is covered</tspan>
                        </text>
                    </g>
                    <g id="row-3" transform="translate(0.000000, 139.968000)">
                        <g id="Rectangle-2-Copy-2">
                            <use fill="black" fill-opacity="1" filter="url(#filter-8)" xlink:href="#path-7"></use>
                            <use fill="#FFFFFF" fill-rule="evenodd" xlink:href="#path-7"></use>
                        </g>
                        <g id="icons/expand" transform="translate(196.344000, 24.624000)" fill="#9B9BAA" fill-rule="nonzero">
                            <polygon id="Path-2" transform="translate(7.776214, 7.771823) scale(-1, 1) rotate(-90.000000) translate(-7.776214, -7.771823) " points="11.0358677 2.16892526 10.5776625 1.71072007 4.51655986 7.77182267 10.5776625 13.8329253 11.0358677 13.3747201 5.43297025 7.77182267"></polygon>
                        </g>
                        <text id="My-stuff" font-family="Merriweather-Light, Merriweather" font-size="10.368" font-weight="300" line-spacing="15.552" fill="#414150">
                            <tspan x="57.024" y="28.144">My stuff</tspan>
                        </text>
                        <text id="is-covered" font-family="CircularStd-Book, Circular Std" font-size="9.072" font-weight="300" line-spacing="12.96" fill="#9B9BAA">
                            <tspan x="57.024" y="42.696">is covered</tspan>
                        </text>
                        <g id="icons/categories/prylar" transform="translate(5.184000, 11.664000)">
                            <g id="Page-1" transform="translate(0.000000, 5.652766)">
                                <path d="M25.1674707,29.3436211 C24.3557335,28.8846165 23.8520721,28.0220045 23.8520721,27.0921245 L23.8520721,17.7158816 L26.1131785,17.7158816 L26.1131785,27.0921245 C26.1131785,27.2311825 26.1996658,27.3295406 26.2805003,27.375328 L25.1674707,29.3436211 Z" id="Fill-1" fill="#B0FEEB"></path>
                                <path d="M38.1142267,29.6770213 L25.723929,29.6770213 L25.723929,27.4159149 L38.1142267,27.4159149 C38.2928541,27.4159149 38.4386955,27.2706388 38.4386955,27.0920114 L38.4386955,14.8362495 L40.6998018,14.8362495 L40.6998018,27.0920114 C40.6998018,28.5170737 39.5398543,29.6770213 38.1142267,29.6770213" id="Fill-3" fill="#1BE9B6"></path>
                                <polygon id="Fill-5" fill="#009175" points="30.3084352 6.19656204 34.2433256 6.19656204 34.2433256 3.93545566 30.3084352 3.93545566"></polygon>
                                <path d="M33.9717667,23.4457513 C33.9717667,24.3824146 33.2126003,25.141581 32.275937,25.141581 C31.3392736,25.141581 30.5801072,24.3824146 30.5801072,23.4457513 C30.5801072,22.5090879 31.3392736,21.7499215 32.275937,21.7499215 C33.2126003,21.7499215 33.9717667,22.5090879 33.9717667,23.4457513" id="Fill-7" fill="#009175"></path>
                                <path d="M26.1131219,17.7156555 L23.8520155,17.7156555 L23.8520155,2.58546209 C23.8520155,1.15983452 25.0119631,-0.000113055319 26.4375907,-0.000113055319 L38.1139441,-0.000113055319 C39.5401369,-0.000113055319 40.7000845,1.15983452 40.7000845,2.58546209 L40.7000845,14.8361365 L38.4389781,14.8361365 L38.4389781,2.58546209 C38.4389781,2.40683469 38.2931367,2.26099333 38.1139441,2.26099333 L26.4375907,2.26099333 C26.2589633,2.26099333 26.1131219,2.40683469 26.1131219,2.58546209 L26.1131219,17.7156555 Z" id="Fill-8" fill="#009175"></path>
                                <path d="M6.69609697,18.546499 C4.25071042,18.546499 2.2609368,20.5362726 2.2609368,22.9816592 C2.2609368,25.4264804 4.25071042,27.4156888 6.69609697,27.4156888 C9.14148352,27.4156888 11.1312571,25.4264804 11.1312571,22.9816592 C11.1312571,20.5362726 9.14148352,18.546499 6.69609697,18.546499 M6.69609697,29.6767952 C3.00371025,29.6767952 -0.000169582979,26.6734806 -0.000169582979,22.9816592 C-0.000169582979,19.2887072 3.00371025,16.2853926 6.69609697,16.2853926 C10.3884837,16.2853926 13.3923635,19.2887072 13.3923635,22.9816592 C13.3923635,26.6734806 10.3884837,29.6767952 6.69609697,29.6767952" id="Fill-9" fill="#009175"></path>
                                <path d="M8.72532689,21.8222203 L12.6506076,15.1875689 L19.1733342,15.1875689 L15.2486188,21.8329606 L8.72532689,21.8222203 Z M23.1347926,12.9264626 L11.3612117,12.9264626 L6.14879617,21.735733 L7.48567532,24.0810656 L16.5380147,24.0957628 L23.1347926,12.9264626 Z" id="Fill-10" fill="#1BE9B6"></path>
                                <polygon id="Fill-11" fill="#009175" points="11.3612682 12.926293 23.1348491 12.926293 16.5380713 24.0961585 15.2486753 21.832791 19.1733907 15.1873994 12.6506641 15.1873994"></polygon>
                                <path d="M25.7244943,18.546499 C23.2791077,18.546499 21.2893341,20.5362726 21.2893341,22.9816592 C21.2893341,25.4264804 23.2791077,27.4156888 25.7244943,27.4156888 C28.1698808,27.4156888 30.1596544,25.4264804 30.1596544,22.9816592 C30.1596544,20.5362726 28.1698808,18.546499 25.7244943,18.546499 M25.7244943,29.6767952 C22.0321075,29.6767952 19.0282277,26.6734806 19.0282277,22.9816592 C19.0282277,19.2887072 22.0321075,16.2853926 25.7244943,16.2853926 C29.416881,16.2853926 32.4207608,19.2887072 32.4207608,22.9816592 C32.4207608,26.6734806 29.416881,29.6767952 25.7244943,29.6767952" id="Fill-12" fill="#1BE9B6"></path>
                                <polygon id="Fill-13" fill="#1BE9B6" points="24.6668052 23.3541199 19.305722 9.13797881 26.113348 9.13797881 26.113348 11.3990852 22.5747165 11.3990852 26.7820702 22.5559494"></polygon>
                                <polygon id="Fill-14" fill="#1BE9B6" points="9.08738655 11.3988026 14.1143913 11.3988026 14.1143913 9.13769617 9.08738655 9.13769617"></polygon>
                            </g>
                        </g>
                    </g>
                </g>
            </g>
        </g>
    </g>
</svg>