<svg width="56" height="56" viewBox="0 0 56 56" fill="none" xmlns="http://www.w3.org/2000/svg"><mask id="a" maskUnits="userSpaceOnUse" x="0" y="0" width="56" height="56"><path fill-rule="evenodd" clip-rule="evenodd" d="M0 0h56v56H0V0z" fill="#fff"/></mask><g mask="url(#a)"><path fill-rule="evenodd" clip-rule="evenodd" d="M56 28c0 15.464-12.536 28-28 28S0 43.464 0 28 12.536 0 28 0s28 12.536 28 28z" fill="#651EFF"/></g><path fill-rule="evenodd" clip-rule="evenodd" d="M37.543 29.973l-.707-.707 7.607-7.607.707.707-7.607 7.607zM33.097 19.063a2.952 2.952 0 00-2.949 2.95 2.952 2.952 0 002.95 2.947 2.95 2.95 0 002.947-2.948 2.952 2.952 0 00-2.948-2.949zm0 6.897a3.953 3.953 0 01-3.949-3.948 3.953 3.953 0 013.95-3.949 3.953 3.953 0 013.947 3.95 3.952 3.952 0 01-3.948 3.947z" fill="#fff"/><path fill-rule="evenodd" clip-rule="evenodd" d="M38.697 39.097h-1V32.66a4.603 4.603 0 00-4.599-4.599 4.603 4.603 0 00-4.598 4.6v6.297h-1V32.66a5.605 5.605 0 015.598-5.599 5.606 5.606 0 015.599 5.6v6.437zM18.46 26.215l-7.608-7.608.707-.707 7.609 7.609-.707.706zM22.902 15.303a2.952 2.952 0 00-2.949 2.95 2.952 2.952 0 002.95 2.948 2.952 2.952 0 002.948-2.949 2.952 2.952 0 00-2.949-2.949zm0 6.898a3.953 3.953 0 01-3.949-3.949 3.953 3.953 0 013.95-3.949 3.953 3.953 0 013.948 3.95 3.953 3.953 0 01-3.949 3.948z" fill="#fff"/><path fill-rule="evenodd" clip-rule="evenodd" d="M28.502 41.196h-1V28.9a4.604 4.604 0 00-4.6-4.6 4.603 4.603 0 00-4.597 4.6v2.249h-1v-2.25a5.605 5.605 0 015.598-5.598 5.606 5.606 0 015.599 5.599v12.296z" fill="#fff"/><path fill-rule="evenodd" clip-rule="evenodd" d="M17.816 31.65a2.952 2.952 0 00-2.949 2.948 2.952 2.952 0 002.95 2.95 2.952 2.952 0 002.948-2.95 2.952 2.952 0 00-2.949-2.949zm0 6.897a3.953 3.953 0 01-3.949-3.949 3.953 3.953 0 013.95-3.949 3.953 3.953 0 013.948 3.95 3.953 3.953 0 01-3.949 3.948z" fill="#fff"/></svg>