<svg width="48" height="48" viewBox="0 0 48 48" fill="none" xmlns="http://www.w3.org/2000/svg"><mask id="a" maskUnits="userSpaceOnUse" x="0" y="0" width="48" height="48"><path fill-rule="evenodd" clip-rule="evenodd" d="M0 0h48v48H0V0z" fill="#fff"/></mask><g mask="url(#a)"><path fill-rule="evenodd" clip-rule="evenodd" d="M48 24c0 13.255-10.745 24-24 24S0 37.255 0 24 10.745 0 24 0s24 10.745 24 24z" fill="#0F007A"/></g><path fill-rule="evenodd" clip-rule="evenodd" d="M23.553 18.977c0-.343.264-.605.625-.605a.62.62 0 01.625.614.609.609 0 01-.625.616.617.617 0 01-.625-.625zm-1.416 5.927c0-.087.02-.195.059-.323l.957-3.416c.097-.334-.01-.49-.42-.44l-.166.02.029-.099 1.797-.459-1.104 3.945c-.068.226.01.323.157.323.205 0 .586-.332.966-.82l.098.068c-.576.782-1.357 1.65-1.953 1.65-.215 0-.42-.107-.42-.449z" fill="#fff"/><path fill-rule="evenodd" clip-rule="evenodd" d="M17.962 27.201h14.296V16.22c0-1.445.738-2.414 1.838-2.414h1.053a.936.936 0 000-1.87h-.111c-.687-.029-2.616.09-3.358.814-.806.785-1.181 1.368-1.271 2.744a1.31 1.31 0 01-1.297 1.226H13.156a.292.292 0 00-.241.121.293.293 0 00-.05.265l2.366 8.144c.416 1.157 1.423 1.896 2.59 1.94l.14.012zm9.63 6.74H15.344v-1h12.248c2.044 0 3.625-1.195 4.13-2.376.523-1.22.536-2.28.536-2.29V28.2l-14.571-.017a3.818 3.818 0 01-3.353-2.485l-.03-.056-2.4-8.26a1.297 1.297 0 01.21-1.145c.249-.33.629-.519 1.042-.519h15.956a.306.306 0 00.299-.29c.11-1.685.615-2.465 1.57-3.396 1.179-1.15 3.793-1.109 4.086-1.099 1.15 0 2.018.87 2.018 1.936a1.938 1.938 0 01-1.936 1.935h-1.053c-.661 0-.838.888-.838 1.414v12.057c0 .052-.01 1.265-.616 2.683-.616 1.436-2.457 2.982-5.05 2.982zM19.015 37.238a1.452 1.452 0 10-2.904 0 1.452 1.452 0 002.904 0zM29.837 37.238a1.452 1.452 0 10-2.904 0 1.452 1.452 0 002.904 0z" fill="#fff"/></svg>