<svg width="48" height="47" viewBox="0 0 48 47" fill="none" xmlns="http://www.w3.org/2000/svg">
<mask id="mask0" mask-type="alpha" maskUnits="userSpaceOnUse" x="0" y="0" width="48" height="47">
<path fill-rule="evenodd" clip-rule="evenodd" d="M9.15527e-05 0.178711H48V46.7417H9.15527e-05V0.178711Z" fill="white"/>
</mask>
<g mask="url(#mask0)">
<path fill-rule="evenodd" clip-rule="evenodd" d="M48.0001 23.4602C48.0001 36.3184 37.2551 46.7417 24.0001 46.7417C10.7451 46.7417 9.15527e-05 36.3184 9.15527e-05 23.4602C9.15527e-05 10.602 10.7451 0.178711 24.0001 0.178711C37.2551 0.178711 48.0001 10.602 48.0001 23.4602Z" fill="#0F007A"/>
</g>
<path fill-rule="evenodd" clip-rule="evenodd" d="M23.5511 18.5869C23.5511 18.2551 23.8151 18 24.1761 18C24.5281 18 24.8011 18.2745 24.8011 18.5966C24.8011 18.9283 24.5371 19.1932 24.1761 19.1932C23.8151 19.1932 23.5511 18.9186 23.5511 18.5869ZM22.137 24.3375C22.137 24.2521 22.157 24.1474 22.196 24.0242L23.153 20.7095C23.25 20.3864 23.143 20.2351 22.733 20.2826L22.567 20.302L22.596 20.207L24.393 19.7617L23.289 23.5886C23.221 23.8069 23.299 23.9019 23.446 23.9019C23.651 23.9019 24.032 23.5789 24.412 23.1055L24.51 23.1725C23.934 23.9301 23.153 24.7731 22.557 24.7731C22.342 24.7731 22.137 24.6693 22.137 24.3375Z" fill="white"/>
<path fill-rule="evenodd" clip-rule="evenodd" d="M17.962 26.5655H32.258V15.9123C32.258 14.5105 32.996 13.5705 34.096 13.5705H35.149C35.665 13.5705 36.085 13.1641 36.085 12.6635C36.085 12.163 35.665 11.7555 35.149 11.7555H35.038C34.351 11.7284 32.422 11.8428 31.68 12.5461C30.874 13.3076 30.499 13.8732 30.409 15.208C30.363 15.8744 29.794 16.3973 29.112 16.3973H13.156C13.025 16.3973 12.948 16.47 12.915 16.5147C12.881 16.5583 12.829 16.6495 12.866 16.7717L15.231 24.6719C15.647 25.7943 16.654 26.5112 17.822 26.5538L17.962 26.5655ZM27.5921 33.1037H15.3441V32.1336H27.5921C29.6361 32.1336 31.2171 30.9744 31.7221 29.8288C32.2451 28.6453 32.2581 27.617 32.2581 27.6063V27.5355L17.6871 27.519C16.1701 27.4269 14.8671 26.4917 14.3341 25.1084L14.3041 25.0541L11.9051 17.0414C11.7911 16.6563 11.8671 16.2518 12.1151 15.9307C12.3631 15.6105 12.7431 15.4272 13.1561 15.4272H29.1121C29.2691 15.4272 29.4001 15.303 29.4111 15.1449C29.5221 13.5113 30.0261 12.7547 30.9821 11.8516C32.1601 10.736 34.7741 10.7758 35.0671 10.7855H35.0681C36.2171 10.7855 37.0851 11.6284 37.0851 12.6635C37.0851 13.6976 36.2171 14.5406 35.1491 14.5406H34.0961C33.4351 14.5406 33.2581 15.402 33.2581 15.9122V27.6083C33.2581 27.6587 33.2491 28.8354 32.6421 30.211C32.0261 31.604 30.1851 33.1037 27.5921 33.1037Z" fill="white"/>
<path fill-rule="evenodd" clip-rule="evenodd" d="M19.0149 36.3021C19.0149 35.5241 18.3649 34.8936 17.5619 34.8936C16.7599 34.8936 16.1099 35.5241 16.1099 36.3021C16.1099 37.081 16.7599 37.7116 17.5619 37.7116C18.3649 37.7116 19.0149 37.081 19.0149 36.3021Z" fill="white"/>
<path fill-rule="evenodd" clip-rule="evenodd" d="M29.8372 36.3021C29.8372 35.5241 29.1872 34.8936 28.3842 34.8936C27.5822 34.8936 26.9322 35.5241 26.9322 36.3021C26.9322 37.081 27.5822 37.7116 28.3842 37.7116C29.1872 37.7116 29.8372 37.081 29.8372 36.3021Z" fill="white"/>
</svg>
