<svg width="48" height="48" viewBox="0 0 48 48" fill="none" xmlns="http://www.w3.org/2000/svg"><mask id="a" maskUnits="userSpaceOnUse" x="0" y="0" width="48" height="48"><path fill-rule="evenodd" clip-rule="evenodd" d="M0 0h48v48H0V0z" fill="#fff"/></mask><g mask="url(#a)"><path fill-rule="evenodd" clip-rule="evenodd" d="M48 24c0 13.255-10.745 24-24 24S0 37.255 0 24 10.745 0 24 0s24 10.745 24 24z" fill="#0F007A"/></g><path fill-rule="evenodd" clip-rule="evenodd" d="M16.754 11.582c-.827 0-1.5.673-1.5 1.5v21.836c0 .827.673 1.5 1.5 1.5h14.492c.827 0 1.5-.673 1.5-1.5V13.082c0-.827-.673-1.5-1.5-1.5H16.754zm14.492 25.836H16.754a2.502 2.502 0 01-2.5-2.5V13.082c0-1.379 1.12-2.5 2.5-2.5h14.492c1.379 0 2.5 1.121 2.5 2.5v21.836c0 1.379-1.121 2.5-2.5 2.5z" fill="#fff"/><mask id="b" maskUnits="userSpaceOnUse" x="0" y="0" width="48" height="48"><path fill-rule="evenodd" clip-rule="evenodd" d="M0 48h48V0H0v48z" fill="#fff"/></mask><g mask="url(#b)" fill-rule="evenodd" clip-rule="evenodd" fill="#fff"><path d="M17.89 16.883h12.22v-1H17.89v1zM17.89 21.974h12.22v-1H17.89v1zM17.89 27.063h12.22v-1H17.89v1zM17.89 32.154h6.61v-1h-6.61v1z"/></g></svg>