<svg width="48" height="47" viewBox="0 0 48 47" fill="none" xmlns="http://www.w3.org/2000/svg"><mask id="a" maskUnits="userSpaceOnUse" x="0" y="0" width="49" height="47"><path fill-rule="evenodd" clip-rule="evenodd" d="M0 .232h48v46.563H0V.232z" fill="#fff"/></mask><g mask="url(#a)"><path fill-rule="evenodd" clip-rule="evenodd" d="M48 23.514c0 12.858-10.745 23.281-24 23.281S0 36.372 0 23.514C0 10.656 10.745.232 24 .232s24 10.424 24 23.282z" fill="#FF8A80"/></g><path fill-rule="evenodd" clip-rule="evenodd" d="M30.686 21.016h-1v-4.573c0-3.042-2.551-5.516-5.686-5.516h-.5v-.97h.5c3.687 0 6.686 2.91 6.686 6.486v4.573z" fill="#fff"/><mask id="b" maskUnits="userSpaceOnUse" x="0" y="0" width="48" height="47"><path fill-rule="evenodd" clip-rule="evenodd" d="M0 46.795h48V.232H0v46.563z" fill="#fff"/></mask><g mask="url(#b)" fill-rule="evenodd" clip-rule="evenodd" fill="#fff"><path d="M17.315 21.015h1v-5.058h-1v5.058zM33.34 35.561H14.66v-.97h17.68v-14.51h1v15.48z"/><path d="M15.66 35.561h-1v-15.48h18.68v.97H15.66v14.51z"/><path d="M32.34 35.561h1v-15.48h-1v15.48zM23.5 31.852h1v-2.698h-1v2.698z"/><path d="M24 24.654c-1.088 0-1.973.858-1.973 1.913 0 1.056.885 1.914 1.973 1.914s1.973-.858 1.973-1.914c0-1.055-.885-1.913-1.973-1.913zm0 4.798c-1.639 0-2.973-1.295-2.973-2.884 0-1.591 1.334-2.884 2.973-2.884 1.64 0 2.973 1.293 2.973 2.884 0 1.59-1.334 2.884-2.973 2.884zM17.36 11.182l-1.402-1.097.627-.756 1.402 1.098-.627.755z"/></g></svg>