<svg width="48" height="48" viewBox="0 0 48 48" fill="none" xmlns="http://www.w3.org/2000/svg"><g opacity=".3"><mask id="a" maskUnits="userSpaceOnUse" x="0" y="0" width="48" height="48"><path fill-rule="evenodd" clip-rule="evenodd" d="M0 0h48v48H0V0z" fill="#fff"/></mask><g mask="url(#a)"><path fill-rule="evenodd" clip-rule="evenodd" d="M48 24c0 13.255-10.745 24-24 24S0 37.255 0 24 10.745 0 24 0s24 10.745 24 24z" fill="#FF8A80"/></g><path fill-rule="evenodd" clip-rule="evenodd" d="M30.686 21.424h-1V16.71A5.692 5.692 0 0024 11.024h-.5v-1h.5a6.693 6.693 0 016.686 6.686v4.714z" fill="#fff"/><mask id="b" maskUnits="userSpaceOnUse" x="0" y="0" width="48" height="48"><path fill-rule="evenodd" clip-rule="evenodd" d="M0 48h48V0H0v48z" fill="#fff"/></mask><g mask="url(#b)" fill-rule="evenodd" clip-rule="evenodd" fill="#fff"><path d="M17.315 21.424h1V16.21h-1v5.214zM33.34 36.419H14.66v-1h17.68V20.46h1v15.959z"/><path d="M15.66 36.419h-1V20.46h18.68v1H15.66v14.959z"/><path d="M32.34 36.419h1V20.46h-1v15.959zM23.5 32.596h1v-2.781h-1v2.781z"/><path d="M24 25.175a1.975 1.975 0 00-1.973 1.973c0 1.088.885 1.973 1.973 1.973a1.975 1.975 0 001.973-1.973A1.975 1.975 0 0024 25.175zm0 4.946a2.977 2.977 0 01-2.973-2.973A2.976 2.976 0 0124 24.175a2.976 2.976 0 012.973 2.973A2.977 2.977 0 0124 30.12zM17.36 11.287l-1.402-1.131.627-.779 1.402 1.132-.627.778z"/></g></g></svg>