<svg width="48" height="48" viewBox="0 0 48 48" fill="none" xmlns="http://www.w3.org/2000/svg"><mask id="a" maskUnits="userSpaceOnUse" x="0" y="0" width="48" height="48"><path fill-rule="evenodd" clip-rule="evenodd" d="M0 0h48v48H0V0z" fill="#fff"/></mask><g mask="url(#a)"><path fill-rule="evenodd" clip-rule="evenodd" d="M48 24c0 13.255-10.745 24-24 24S0 37.255 0 24 10.745 0 24 0s24 10.745 24 24" fill="#651EFF"/></g><path fill-rule="evenodd" clip-rule="evenodd" d="M14.673 33.54h-1V12.305c0-.883.72-1.602 1.602-1.602h17.45c.884 0 1.602.719 1.602 1.602v17.979h-1v-17.98a.603.603 0 00-.602-.601h-17.45a.603.603 0 00-.602.602V33.54z" fill="#fff"/><mask id="b" maskUnits="userSpaceOnUse" x="0" y="0" width="48" height="48"><path fill-rule="evenodd" clip-rule="evenodd" d="M0 48h48V0H0v48z" fill="#fff"/></mask><g mask="url(#b)" fill-rule="evenodd" clip-rule="evenodd" fill="#fff"><path d="M13.838 34.041h20.489v-1h-20.49v1z"/><path d="M34.327 37.298H17.431a3.762 3.762 0 01-3.758-3.758 3.762 3.762 0 013.758-3.758h16.896v1H17.431a2.761 2.761 0 00-2.758 2.758 2.76 2.76 0 002.758 2.758h16.896v1zM24.083 19.558a2.273 2.273 0 01-2.271-2.271 2.273 2.273 0 012.271-2.271h2.526v1h-2.526c-.701 0-1.271.57-1.271 1.27 0 .702.57 1.272 1.271 1.272v1z"/><path d="M24.083 19.558c-.701 0-1.271.57-1.271 1.27a1.272 1.272 0 002.542 0c0-.7-.571-1.27-1.271-1.27zm0 3.54a2.273 2.273 0 01-2.271-2.27 2.273 2.273 0 012.271-2.27 2.274 2.274 0 012.271 2.27 2.274 2.274 0 01-2.271 2.27z"/><path d="M24.083 26.64h-2.527v-1h2.527c.7 0 1.271-.57 1.271-1.27 0-.7-.57-1.272-1.27-1.272v-1a2.274 2.274 0 012.27 2.271 2.274 2.274 0 01-2.27 2.271"/></g></svg>