<svg width="56" height="56" viewBox="0 0 56 56" fill="none" xmlns="http://www.w3.org/2000/svg"><mask id="a" maskUnits="userSpaceOnUse" x="0" y="0" width="56" height="56"><path fill-rule="evenodd" clip-rule="evenodd" d="M0 0h56v56H0V0z" fill="#fff"/></mask><g mask="url(#a)"><path fill-rule="evenodd" clip-rule="evenodd" d="M56 28c0 15.464-12.536 28-28 28S0 43.464 0 28 12.536 0 28 0s28 12.536 28 28z" fill="#FF8A80"/></g><path fill-rule="evenodd" clip-rule="evenodd" d="M34.145 24.962h3.014v-2.811a1.509 1.509 0 00-3.014 0v2.811zm4.014 1h-5.014v-3.811a2.51 2.51 0 012.506-2.506 2.51 2.51 0 012.508 2.506v3.811zM34.145 35.32h3.014v-2.812a1.509 1.509 0 00-3.014 0v2.813zm4.014 1h-5.014v-3.812a2.51 2.51 0 012.506-2.506 2.51 2.51 0 012.508 2.506v3.813zM17.398 35.32h3.014v-2.812a1.508 1.508 0 00-3.014 0v2.813zm4.014 1h-5.014v-3.812a2.51 2.51 0 012.507-2.506 2.51 2.51 0 012.507 2.506v3.813zM41.352 17.523l-.043-5.432 1-.007.043 5.431-1 .008z" fill="#fff"/><mask id="b" maskUnits="userSpaceOnUse" x="0" y="0" width="56" height="56"><path fill-rule="evenodd" clip-rule="evenodd" d="M0 56h56V0H0v56z" fill="#fff"/></mask><g mask="url(#b)" fill-rule="evenodd" clip-rule="evenodd" fill="#fff"><path d="M43.516 39.5h1V19.869h-1V39.5zM10.055 39.534h1v-9.95h-1v9.95z"/><path d="M9.305 31.698l-.707-.707 10.339-10.34 8.48 8.483-.706.707-7.774-7.775-9.632 9.632z"/><path d="M26.785 39.5h1V19.869h-1V39.5z"/><path d="M26.016 22.006l-.707-.707 10.36-10.361 10.32 10.32-.706.707-9.614-9.614-9.653 9.655z"/></g></svg>