<svg width="48" height="48" viewBox="0 0 48 48" fill="none" xmlns="http://www.w3.org/2000/svg"><g opacity=".3"><mask id="a" maskUnits="userSpaceOnUse" x="0" y="0" width="48" height="48"><path fill-rule="evenodd" clip-rule="evenodd" d="M0 0h48v48H0V0z" fill="#fff"/></mask><g mask="url(#a)"><path fill-rule="evenodd" clip-rule="evenodd" d="M48 24c0 13.255-10.745 24-24 24S0 37.255 0 24 10.745 0 24 0s24 10.745 24 24z" fill="#FF8A80"/></g><path fill-rule="evenodd" clip-rule="evenodd" d="M25.895 38.683v-5.98h-2.06v-6.792h1v5.793h2.06v4.509l5.608-5.791h-2.298l1.852-4.695.93.367-1.314 3.328h3.192l-8.97 9.26zM15.304 31.243a.5.5 0 01-.5-.5V25.9a.5.5 0 111 0v4.844a.5.5 0 01-.5.5zM19.718 36.576a.5.5 0 01-.5-.5v-9.777a.5.5 0 111 0v9.777a.5.5 0 01-.5.5z" fill="#fff"/><path fill-rule="evenodd" clip-rule="evenodd" d="M14.017 18.73a3.304 3.304 0 00-3.34 3.34 3.304 3.304 0 003.34 3.34h20.35a2.96 2.96 0 002.956-2.955 2.925 2.925 0 00-2.956-2.956c-.444 0-.813.08-1.16.254a.5.5 0 01-.67-.67c.114-.23.178-.532.178-.852a2.574 2.574 0 00-2.572-2.572c-.575 0-1.023.189-1.518.472a.498.498 0 01-.731-.307 6.41 6.41 0 00-12.608 1.639c0 .262 0 .534.05.688a.498.498 0 01-.595.642c-.248-.062-.428-.062-.724-.062zm20.35 7.68h-20.35c-2.433 0-4.34-1.906-4.34-4.34 0-2.433 1.907-4.34 4.34-4.34.093 0 .181 0 .27.003-.002-.09-.002-.18-.002-.27 0-4.086 3.325-7.411 7.412-7.411a7.41 7.41 0 016.982 4.929 3.555 3.555 0 011.465-.322 3.576 3.576 0 013.556 3.894 3.96 3.96 0 014.623 3.902 3.96 3.96 0 01-3.956 3.955z" fill="#fff"/></g></svg>