<svg width="48" height="47" viewBox="0 0 48 47" fill="none" xmlns="http://www.w3.org/2000/svg"><mask id="a" maskUnits="userSpaceOnUse" x="0" y="0" width="49" height="47"><path fill-rule="evenodd" clip-rule="evenodd" d="M0 .232h48v46.563H0V.232z" fill="#fff"/></mask><g mask="url(#a)"><path fill-rule="evenodd" clip-rule="evenodd" d="M48 23.514c0 12.858-10.745 23.281-24 23.281S0 36.372 0 23.514C0 10.656 10.745.232 24 .232s24 10.424 24 23.282z" fill="#FF8A80"/></g><path fill-rule="evenodd" clip-rule="evenodd" d="M25.895 37.757v-5.8h-2.06v-6.59h1v5.62h2.06v4.374l5.608-5.618h-2.298l1.852-4.554.93.356-1.314 3.228h3.192l-8.97 8.984zM15.304 30.54a.493.493 0 01-.5-.485v-4.699c0-.269.224-.485.5-.485s.5.216.5.485v4.7a.493.493 0 01-.5.484zM19.718 35.714a.493.493 0 01-.5-.485v-9.485c0-.268.224-.485.5-.485s.5.217.5.485v9.485a.493.493 0 01-.5.485z" fill="#fff"/><path fill-rule="evenodd" clip-rule="evenodd" d="M14.017 18.402c-1.872 0-3.34 1.424-3.34 3.24 0 1.816 1.468 3.24 3.34 3.24h20.35c1.629 0 2.956-1.286 2.956-2.867 0-1.608-1.3-2.867-2.956-2.867a2.57 2.57 0 00-1.16.246.509.509 0 01-.576-.09.475.475 0 01-.093-.56c.114-.223.177-.516.177-.827 0-1.375-1.153-2.495-2.571-2.495-.575 0-1.023.184-1.52.458a.51.51 0 01-.44.026.487.487 0 01-.29-.324c-.74-2.725-3.288-4.629-6.197-4.629-3.535 0-6.411 2.79-6.411 6.22 0 .254 0 .518.05.667a.473.473 0 01-.108.482.507.507 0 01-.487.14c-.247-.06-.427-.06-.724-.06zm20.35 7.45h-20.35c-2.433 0-4.34-1.85-4.34-4.21s1.907-4.21 4.34-4.21c.093 0 .182 0 .27.002l-.001-.262c0-3.963 3.324-7.189 7.41-7.189 3.157 0 5.946 1.939 6.983 4.782a3.648 3.648 0 011.465-.313c1.969 0 3.57 1.556 3.57 3.466 0 .104-.004.21-.014.312a4.11 4.11 0 01.667-.053c2.18 0 3.956 1.721 3.956 3.838 0 2.116-1.775 3.837-3.956 3.837z" fill="#fff"/></svg>