<svg width="48" height="48" viewBox="0 0 48 48" fill="none" xmlns="http://www.w3.org/2000/svg"><g opacity=".3"><mask id="a" maskUnits="userSpaceOnUse" x="0" y="0" width="48" height="48"><path fill-rule="evenodd" clip-rule="evenodd" d="M0 0h48v48H0V0z" fill="#fff"/></mask><g mask="url(#a)"><path fill-rule="evenodd" clip-rule="evenodd" d="M48 24c0 13.255-10.745 24-24 24S0 37.255 0 24 10.745 0 24 0s24 10.745 24 24" fill="#1BE9B6"/></g><path fill-rule="evenodd" clip-rule="evenodd" d="M25.895 38.683v-5.979h-2.06V25.91h1v5.793h2.06v4.51l5.607-5.792h-2.298l1.852-4.695.93.368-1.313 3.327h3.192l-8.97 9.262zM15.304 31.243a.5.5 0 01-.5-.5v-4.844a.5.5 0 011 0v4.844a.5.5 0 01-.5.5M19.718 36.576a.5.5 0 01-.5-.5V26.3a.5.5 0 111 0v9.777a.5.5 0 01-.5.5" fill="#fff"/><path fill-rule="evenodd" clip-rule="evenodd" d="M14.017 18.731a3.304 3.304 0 00-3.34 3.34 3.304 3.304 0 003.34 3.34h20.35a2.925 2.925 0 002.956-2.957 2.96 2.96 0 00-2.956-2.955c-.444 0-.812.081-1.16.254a.499.499 0 01-.67-.67c.115-.23.178-.533.178-.852a2.574 2.574 0 00-2.571-2.572c-.575 0-1.023.19-1.52.472a.499.499 0 01-.73-.307 6.41 6.41 0 00-12.608 1.64c0 .261 0 .533.05.687a.498.498 0 01-.595.642c-.247-.062-.427-.062-.724-.062zm20.35 7.68h-20.35c-2.433 0-4.34-1.908-4.34-4.34 0-2.434 1.907-4.34 4.34-4.34.093 0 .182 0 .27.002l-.001-.27c0-4.086 3.324-7.41 7.41-7.41a7.41 7.41 0 016.983 4.928 3.555 3.555 0 011.465-.322 3.575 3.575 0 013.556 3.894 3.96 3.96 0 014.623 3.901 3.96 3.96 0 01-3.956 3.956z" fill="#fff"/></g></svg>