<svg width="48" height="48" viewBox="0 0 48 48" fill="none" xmlns="http://www.w3.org/2000/svg"><g opacity=".3"><mask id="a" maskUnits="userSpaceOnUse" x="0" y="0" width="48" height="48"><path fill-rule="evenodd" clip-rule="evenodd" d="M0 0h48v48H0V0z" fill="#fff"/></mask><g mask="url(#a)"><path fill-rule="evenodd" clip-rule="evenodd" d="M48 24c0 13.255-10.745 24-24 24S0 37.255 0 24 10.745 0 24 0s24 10.745 24 24" fill="#651EFF"/></g><path fill-rule="evenodd" clip-rule="evenodd" d="M31.5 33.697h-1v-9c0-3.584-2.916-6.5-6.5-6.5a6.508 6.508 0 00-6.5 6.5v9h-1v-9c0-4.136 3.364-7.5 7.5-7.5s7.5 3.364 7.5 7.5v9z" fill="#fff"/><mask id="b" maskUnits="userSpaceOnUse" x="0" y="0" width="48" height="48"><path fill-rule="evenodd" clip-rule="evenodd" d="M0 48h48V0H0v48z" fill="#fff"/></mask><g mask="url(#b)" fill-rule="evenodd" clip-rule="evenodd" fill="#fff"><path d="M14 35.197h20v-1H14v1zM21.194 24.529h-1c0-1.986 1.597-3.602 3.56-3.602v1c-1.413 0-2.56 1.167-2.56 2.602M23.5 13.705h1V9.303h-1v4.402zM8.556 24.697h4.402v-1H8.556v1zM35.042 24.697h4.401v-1h-4.401v1zM16.228 17.132l-3.112-3.113.707-.707 3.112 3.113-.707.707zM31.772 17.132l-.707-.707 3.112-3.113.707.707-3.112 3.113z"/></g></g></svg>