<svg width="56" height="56" viewBox="0 0 56 56" fill="none" xmlns="http://www.w3.org/2000/svg"><mask id="a" maskUnits="userSpaceOnUse" x="0" y="0" width="56" height="57"><path fill-rule="evenodd" clip-rule="evenodd" d="M0 0h56v56H0V0z" fill="#fff"/></mask><g mask="url(#a)"><path fill-rule="evenodd" clip-rule="evenodd" d="M56 28c0 15.464-12.536 28-28 28S0 43.464 0 28 12.536 0 28 0s28 12.536 28 28z" fill="#1BE9B6"/></g><path fill-rule="evenodd" clip-rule="evenodd" d="M31.048 39.93l-.324-.177a1.894 1.894 0 01-.966-1.646v-8.932h1v8.932c0 .319.173.615.452.772l.318.175-.48.877z" fill="#fff"/><path fill-rule="evenodd" clip-rule="evenodd" d="M43.036 39.992H30.965v-1h12.07a.887.887 0 00.888-.886V26.432h1v11.674c0 1.04-.847 1.886-1.887 1.886z" fill="#fff"/><mask id="b" maskUnits="userSpaceOnUse" x="0" y="0" width="56" height="56"><path fill-rule="evenodd" clip-rule="evenodd" d="M0 56h56V0H0v56z" fill="#fff"/></mask><g mask="url(#b)" fill-rule="evenodd" clip-rule="evenodd" fill="#fff"><path d="M35.695 17.626h3.748v-1h-3.748v1zM38.958 34.634a1.616 1.616 0 11-3.232-.001 1.616 1.616 0 013.232 0z"/><path d="M30.758 29.175h-1V14.763c0-1.04.846-1.886 1.886-1.886h11.39c1.04 0 1.888.846 1.888 1.886v11.67h-1v-11.67a.887.887 0 00-.887-.886H31.644a.887.887 0 00-.886.886v14.412zM12.84 29.39a4.807 4.807 0 00-4.8 4.802 4.807 4.807 0 004.8 4.8 4.808 4.808 0 004.802-4.8 4.808 4.808 0 00-4.802-4.802zm0 10.603a5.808 5.808 0 01-5.8-5.801 5.809 5.809 0 015.8-5.802 5.809 5.809 0 015.802 5.802 5.809 5.809 0 01-5.802 5.8z"/><path d="M13.764 33.662l7.554.013 4.42-7.485h-7.553l-4.421 7.472zm8.124 1.013l-9.876-.015 5.603-9.47h9.876l-5.603 9.485zM30.966 29.39a4.808 4.808 0 00-4.802 4.802 4.808 4.808 0 004.802 4.8 4.808 4.808 0 004.802-4.8 4.808 4.808 0 00-4.802-4.802zm0 10.603a5.809 5.809 0 01-5.802-5.801 5.809 5.809 0 015.802-5.802 5.809 5.809 0 015.802 5.802 5.809 5.809 0 01-5.802 5.8z"/><path d="M30.5 34.343L25.687 21.58h4.575v1h-3.13l4.303 11.408-.935.354zM15.117 22.581h4.788v-1h-4.788v1z"/></g></svg>