<svg width="48" height="48" viewBox="0 0 48 48" fill="none" xmlns="http://www.w3.org/2000/svg"><g opacity=".3"><mask id="a" maskUnits="userSpaceOnUse" x="0" y="0" width="48" height="48"><path fill-rule="evenodd" clip-rule="evenodd" d="M0 0h48v48H0V0z" fill="#fff"/></mask><g mask="url(#a)"><path fill-rule="evenodd" clip-rule="evenodd" d="M48 24c0 13.255-10.745 24-24 24S0 37.255 0 24 10.745 0 24 0s24 10.745 24 24" fill="#651EFF"/></g><path fill-rule="evenodd" clip-rule="evenodd" d="M35.717 29.16l-9.846-1.688.17-.986 8.676 1.487v-3.132h1v4.318zM10.91 29.16v-4.658l9.576-3.805.37.93-8.946 3.553v2.793l8.676-1.487.17.986-9.846 1.687z" fill="#fff"/><path fill-rule="evenodd" clip-rule="evenodd" d="M17.259 37.378V34.97l2.89-2.742.022-17.407a3.152 3.152 0 012.51-3.078l.2.98a2.148 2.148 0 00-1.71 2.1l-.022 17.836-2.89 2.741v.765l5.055-.984 5.055.984V35.4l-2.89-2.74-.01-7.569h1l.01 7.137 2.89 2.742v2.41l-6.055-1.18-6.055 1.18zM30.638 11.729a5.458 5.458 0 00-5.452 5.451 5.458 5.458 0 005.452 5.451 5.458 5.458 0 005.452-5.45 5.458 5.458 0 00-5.452-5.453zm0 11.902a6.459 6.459 0 01-6.452-6.45 6.459 6.459 0 016.452-6.453 6.459 6.459 0 016.452 6.452 6.459 6.459 0 01-6.452 6.451z" fill="#fff"/><path fill-rule="evenodd" clip-rule="evenodd" d="M33.885 18.238h-4.296v-4.313h1v3.313h3.296v1z" fill="#fff"/></g></svg>