<svg width="48" height="48" viewBox="0 0 48 48" fill="none" xmlns="http://www.w3.org/2000/svg">
<mask id="mask0" mask-type="alpha" maskUnits="userSpaceOnUse" x="0" y="0" width="48" height="48">
<path fill-rule="evenodd" clip-rule="evenodd" d="M0 0H47.9999V48H0V0Z" fill="white"/>
</mask>
<g mask="url(#mask0)">
<path fill-rule="evenodd" clip-rule="evenodd" d="M48 24C48 37.255 37.255 48 24 48C10.745 48 0 37.255 0 24C0 10.745 10.745 0 24 0C37.255 0 48 10.745 48 24" fill="#651EFF"/>
</g>
<path fill-rule="evenodd" clip-rule="evenodd" d="M35.7168 29.1593L25.8708 27.4723L26.0408 26.4863L34.7168 27.9733V24.8413H35.7168V29.1593Z" fill="white"/>
<path fill-rule="evenodd" clip-rule="evenodd" d="M10.9102 29.1593V24.5023L20.4862 20.6973L20.8552 21.6273L11.9102 25.1803V27.9733L20.5862 26.4863L20.7562 27.4723L10.9102 29.1593Z" fill="white"/>
<path fill-rule="evenodd" clip-rule="evenodd" d="M17.2588 37.3782V34.9692L20.1488 32.2272L20.1708 14.8202C20.1708 13.3342 21.2268 12.0402 22.6808 11.7422L22.8818 12.7222C21.8908 12.9242 21.1708 13.8072 21.1708 14.8212L21.1488 32.6582L18.2588 35.3992V36.1642L23.3138 35.1802L28.3688 36.1642V35.3992L25.4798 32.6582L25.4698 25.0902L26.4698 25.0892L26.4798 32.2272L29.3688 34.9692V37.3782L23.3138 36.1982L17.2588 37.3782Z" fill="white"/>
<path fill-rule="evenodd" clip-rule="evenodd" d="M30.6378 11.7285C27.6318 11.7285 25.1858 14.1745 25.1858 17.1805C25.1858 20.1865 27.6318 22.6315 30.6378 22.6315C33.6438 22.6315 36.0898 20.1865 36.0898 17.1805C36.0898 14.1745 33.6438 11.7285 30.6378 11.7285V11.7285ZM30.6378 23.6315C27.0798 23.6315 24.1858 20.7375 24.1858 17.1805C24.1858 13.6225 27.0798 10.7285 30.6378 10.7285C34.1958 10.7285 37.0898 13.6225 37.0898 17.1805C37.0898 20.7375 34.1958 23.6315 30.6378 23.6315V23.6315Z" fill="white"/>
<path fill-rule="evenodd" clip-rule="evenodd" d="M33.8849 18.2378H29.5889V13.9248H30.5889V17.2378H33.8849V18.2378Z" fill="white"/>
</svg>
