<svg width="48" height="48" viewBox="0 0 48 48" fill="none" xmlns="http://www.w3.org/2000/svg">
<mask id="mask0" mask-type="alpha" maskUnits="userSpaceOnUse" x="0" y="0" width="48" height="48">
<path fill-rule="evenodd" clip-rule="evenodd" d="M0 0H47.9999V48H0V0Z" fill="white"/>
</mask>
<g mask="url(#mask0)">
<path fill-rule="evenodd" clip-rule="evenodd" d="M48 24C48 37.255 37.255 48 24 48C10.745 48 0 37.255 0 24C0 10.745 10.745 0 24 0C37.255 0 48 10.745 48 24" fill="#651EFF"/>
</g>
<path fill-rule="evenodd" clip-rule="evenodd" d="M28.1954 35.0256H19.8044V28.1956H12.9744V27.1956H20.8044V34.0256H27.1954V27.1956H34.0254V20.8046H27.1954V12.9746H28.1954V19.8046H35.0254V28.1956H28.1954V35.0256Z" fill="white"/>
<path fill-rule="evenodd" clip-rule="evenodd" d="M13.9746 28.1951H12.9746V19.8041H19.8046V12.9741H28.1956V13.9741H20.8046V20.8041H13.9746V28.1951Z" fill="white"/>
</svg>
