<svg width="48" height="48" viewBox="0 0 48 48" fill="none" xmlns="http://www.w3.org/2000/svg"><mask id="a" maskUnits="userSpaceOnUse" x="0" y="0" width="48" height="48"><path fill-rule="evenodd" clip-rule="evenodd" d="M0 0h48v48H0V0z" fill="#fff"/></mask><g mask="url(#a)"><path fill-rule="evenodd" clip-rule="evenodd" d="M48 24c0 13.255-10.745 24-24 24S0 37.255 0 24 10.745 0 24 0s24 10.745 24 24" fill="#651EFF"/></g><path fill-rule="evenodd" clip-rule="evenodd" d="M28.195 35.026h-8.39v-6.83h-6.83v-1h7.83v6.83h6.39v-6.83h6.83v-6.391h-6.83v-7.83h1v6.83h6.83v8.39h-6.83v6.83z" fill="#fff"/><path fill-rule="evenodd" clip-rule="evenodd" d="M13.975 28.195h-1v-8.39h6.83v-6.83h8.39v1h-7.39v6.83h-6.83v7.39z" fill="#fff"/></svg>