<svg width="48" height="48" viewBox="0 0 48 48" fill="none" xmlns="http://www.w3.org/2000/svg"><g opacity=".3"><mask id="a" maskUnits="userSpaceOnUse" x="0" y="0" width="48" height="48"><path fill-rule="evenodd" clip-rule="evenodd" d="M0 0h48v48H0V0z" fill="#fff"/></mask><g mask="url(#a)"><path fill-rule="evenodd" clip-rule="evenodd" d="M48 24c0 13.255-10.745 24-24 24S0 37.255 0 24 10.745 0 24 0s24 10.745 24 24z" fill="#FF8A80"/></g><path fill-rule="evenodd" clip-rule="evenodd" d="M16.183 33.346l1.667 1.667 5.039-5.039 12.677-9.552a3.421 3.421 0 10-4.792-4.792L21.22 28.307l-5.038 5.039zm1.667 3.082l-3.081-3.082 5.72-5.72 9.486-12.598a4.424 4.424 0 013.224-1.75 4.44 4.44 0 013.435 1.284 4.416 4.416 0 011.284 3.435 4.418 4.418 0 01-1.751 3.224l-12.624 9.506-5.693 5.701z" fill="#fff"/><path fill-rule="evenodd" clip-rule="evenodd" d="M18.436 36.806a.502.502 0 01-.354-.146l-3.545-3.546a.499.499 0 010-.707.499.499 0 01.707 0l3.546 3.545a.502.502 0 01-.354.854zM11.525 23.639h-.955a.5.5 0 010-1h.955a.5.5 0 010 1z" fill="#fff"/><path fill-rule="evenodd" clip-rule="evenodd" d="M18.203 36.075l-.707-.707 4.686-4.686.707.707-4.686 4.686zM15.86 33.732l-.707-.707 4.686-4.686.707.707-4.686 4.686z" fill="#fff"/><path fill-rule="evenodd" clip-rule="evenodd" d="M22.535 31.742l-3.082-3.082.707-.707 3.082 3.082-.707.707zM18.025 23.639H14.57a.5.5 0 010-1h3.455a.5.5 0 010 1zM17.825 14.193h-.955a.5.5 0 010-1h.955a.5.5 0 010 1zM24.325 14.193H20.87a.5.5 0 010-1h3.455a.5.5 0 010 1zM16.976 18.916H13.02a.5.5 0 010-1h3.954a.5.5 0 010 1zM21.476 18.916H20.02a.5.5 0 010-1h1.456a.5.5 0 010 1z" fill="#fff"/></g></svg>