<svg width="48" height="47" viewBox="0 0 48 47" fill="none" xmlns="http://www.w3.org/2000/svg"><mask id="a" maskUnits="userSpaceOnUse" x="0" y="0" width="49" height="47"><path fill-rule="evenodd" clip-rule="evenodd" d="M0 .232h48v46.563H0V.232z" fill="#fff"/></mask><g mask="url(#a)"><path fill-rule="evenodd" clip-rule="evenodd" d="M48 23.514c0 12.858-10.745 23.281-24 23.281S0 36.372 0 23.514C0 10.656 10.745.232 24 .232s24 10.424 24 23.282z" fill="#FF8A80"/></g><path fill-rule="evenodd" clip-rule="evenodd" d="M16.183 32.58l1.667 1.618 5.039-4.889 12.677-9.266a3.293 3.293 0 001.355-2.419 3.26 3.26 0 00-.994-2.58 3.494 3.494 0 00-2.658-.964 3.451 3.451 0 00-2.495 1.315L21.22 27.692l-5.038 4.889zm1.667 2.99l-3.081-2.99 5.72-5.55 9.486-12.22a4.463 4.463 0 013.224-1.698 4.518 4.518 0 013.435 1.247 4.212 4.212 0 011.284 3.332 4.253 4.253 0 01-1.751 3.127L23.543 30.04l-5.693 5.53z" fill="#fff"/><path fill-rule="evenodd" clip-rule="evenodd" d="M18.436 35.937a.51.51 0 01-.354-.142l-3.545-3.44a.473.473 0 010-.685.51.51 0 01.707 0l3.546 3.438a.476.476 0 010 .687.51.51 0 01-.354.142zM11.525 23.163h-.955a.493.493 0 01-.5-.485c0-.267.224-.485.5-.485h.955c.277 0 .5.218.5.485a.493.493 0 01-.5.485z" fill="#fff"/><path fill-rule="evenodd" clip-rule="evenodd" d="M18.203 35.227l-.707-.686 4.686-4.546.707.686-4.686 4.546zM15.86 32.954l-.707-.686 4.687-4.545.707.686-4.687 4.545z" fill="#fff"/><path fill-rule="evenodd" clip-rule="evenodd" d="M22.535 31.024l-3.082-2.99.707-.685 3.082 2.99-.707.685zM18.026 23.163H14.57a.493.493 0 01-.5-.485c0-.267.224-.485.5-.485h3.456c.276 0 .5.218.5.485a.493.493 0 01-.5.485zM17.825 14h-.955a.493.493 0 01-.5-.484c0-.268.224-.485.5-.485h.955c.276 0 .5.217.5.485a.493.493 0 01-.5.485zM24.325 14H20.87a.493.493 0 01-.5-.484c0-.268.224-.485.5-.485h3.455c.276 0 .5.217.5.485a.493.493 0 01-.5.485zM16.976 18.582H13.02a.493.493 0 01-.5-.485c0-.268.224-.485.5-.485h3.955c.276 0 .5.217.5.485a.493.493 0 01-.5.485zM21.476 18.582H20.02a.493.493 0 01-.5-.485c0-.268.224-.485.5-.485h1.455c.276 0 .5.217.5.485a.493.493 0 01-.5.485z" fill="#fff"/></svg>