<svg width="48" height="48" viewBox="0 0 48 48" xmlns="http://www.w3.org/2000/svg"><g fill="none" fill-rule="evenodd"><path d="M48 24c0 13.255-10.745 24-24 24S0 37.255 0 24 10.745 0 24 0s24 10.745 24 24" fill="#FFDCDA" fill-rule="nonzero"/><g transform="translate(9 10)"><rect stroke="#FFF" x="7" y="4" width="16" height="22" rx="8"/><circle fill="#FFF" fill-rule="nonzero" cx="15" cy="9" r="1"/><circle fill="#FFF" fill-rule="nonzero" cx="15" cy="15" r="1"/><circle fill="#FFF" fill-rule="nonzero" cx="15" cy="21" r="1"/><path fill="#FFF" fill-rule="nonzero" d="M22.5 9h5.2v1h-5.2zM22.5 21h5.2v1h-5.2zM22.5 15h7v1h-7zM7.2 9H2v1h5.2zM21.085.308l-3.677 3.677.707.707 3.677-3.677zM9.115.308l3.677 3.677-.707.707-3.677-3.677zM8 21H2v1h6zM7 15H0v1h7z"/></g></g></svg>