<svg width="48" height="48" viewBox="0 0 48 48" fill="none" xmlns="http://www.w3.org/2000/svg"><mask id="a" maskUnits="userSpaceOnUse" x="0" y="0" width="48" height="48"><path fill-rule="evenodd" clip-rule="evenodd" d="M0 0h48v48H0V0z" fill="#fff"/></mask><g mask="url(#a)"><path fill-rule="evenodd" clip-rule="evenodd" d="M48 24c0 13.255-10.745 24-24 24S0 37.255 0 24 10.745 0 24 0s24 10.745 24 24" fill="#1BE9B6"/></g><path fill-rule="evenodd" clip-rule="evenodd" d="M16.183 33.346l1.667 1.668 5.039-5.04 12.677-9.552a3.418 3.418 0 001.355-2.494 3.418 3.418 0 00-.994-2.66 3.425 3.425 0 00-5.153.361L21.22 28.308l-5.038 5.039zm1.667 3.082l-3.081-3.082 5.72-5.721 9.486-12.596a4.418 4.418 0 013.224-1.751 4.406 4.406 0 013.435 1.284 4.418 4.418 0 011.284 3.436 4.418 4.418 0 01-1.751 3.223l-12.624 9.507-5.693 5.7z" fill="#fff"/><path fill-rule="evenodd" clip-rule="evenodd" d="M18.436 36.807a.502.502 0 01-.354-.146l-3.545-3.546a.499.499 0 010-.707.499.499 0 01.707 0l3.546 3.545a.502.502 0 01-.354.854M11.525 23.639h-.955a.5.5 0 010-1h.955a.5.5 0 010 1" fill="#fff"/><path fill-rule="evenodd" clip-rule="evenodd" d="M18.203 36.075l-.707-.707 4.686-4.686.707.707-4.686 4.686zM15.86 33.732l-.707-.707 4.686-4.686.707.707-4.686 4.686z" fill="#fff"/><path fill-rule="evenodd" clip-rule="evenodd" d="M22.535 31.743l-3.082-3.082.707-.707 3.082 3.082-.707.707zM18.025 23.639H14.57a.5.5 0 010-1h3.455a.5.5 0 010 1M17.825 14.194h-.955a.5.5 0 010-1h.955a.5.5 0 010 1M24.325 14.194H20.87a.5.5 0 010-1h3.455a.5.5 0 010 1M16.976 18.916H13.02a.5.5 0 010-1h3.954a.5.5 0 010 1M21.476 18.916H20.02a.5.5 0 010-1h1.455a.5.5 0 010 1" fill="#fff"/></svg>