<svg width="48" height="48" viewBox="0 0 48 48" fill="none" xmlns="http://www.w3.org/2000/svg">
<mask id="mask0" mask-type="alpha" maskUnits="userSpaceOnUse" x="0" y="0" width="48" height="48">
<path fill-rule="evenodd" clip-rule="evenodd" d="M0 0H47.9999V47.9998H0V0Z" fill="white"/>
</mask>
<g mask="url(#mask0)">
<path fill-rule="evenodd" clip-rule="evenodd" d="M48 24C48 37.255 37.255 48 24 48C10.745 48 0 37.255 0 24C0 10.745 10.745 0 24 0C37.255 0 48 10.745 48 24" fill="#1BE9B6"/>
</g>
<path fill-rule="evenodd" clip-rule="evenodd" d="M16.1829 33.3457L17.8499 35.0137L22.8889 29.9747L35.5659 20.4217C36.3579 19.8257 36.8519 18.9167 36.9209 17.9277C36.9909 16.9387 36.6279 15.9697 35.9269 15.2687C35.2249 14.5677 34.2509 14.2067 33.2689 14.2747C32.2799 14.3447 31.3709 14.8377 30.7739 15.6297L21.2209 28.3067L16.1829 33.3457ZM17.8498 36.4279L14.7688 33.3459L20.4898 27.6249L29.9748 15.0289C30.7458 14.0049 31.9208 13.3669 33.1988 13.2779C34.4748 13.1839 35.7288 13.6569 36.6338 14.5619C37.5398 15.4679 38.0078 16.7199 37.9178 17.9979C37.8288 19.2749 37.1908 20.4499 36.1668 21.2209L23.5428 30.7279L17.8498 36.4279Z" fill="white"/>
<path fill-rule="evenodd" clip-rule="evenodd" d="M18.4356 36.8067C18.3076 36.8067 18.1796 36.7577 18.0816 36.6607L14.5366 33.1147C14.3406 32.9187 14.3406 32.6027 14.5366 32.4077C14.7316 32.2117 15.0476 32.2117 15.2436 32.4077L18.7896 35.9527C18.9846 36.1487 18.9846 36.4647 18.7896 36.6607C18.6916 36.7577 18.5636 36.8067 18.4356 36.8067" fill="white"/>
<path fill-rule="evenodd" clip-rule="evenodd" d="M11.5253 23.6387H10.5703C10.2943 23.6387 10.0703 23.4147 10.0703 23.1387C10.0703 22.8627 10.2943 22.6387 10.5703 22.6387H11.5253C11.8013 22.6387 12.0253 22.8627 12.0253 23.1387C12.0253 23.4147 11.8013 23.6387 11.5253 23.6387" fill="white"/>
<path fill-rule="evenodd" clip-rule="evenodd" d="M18.2033 36.0746L17.4963 35.3676L22.1823 30.6816L22.8893 31.3886L18.2033 36.0746Z" fill="white"/>
<path fill-rule="evenodd" clip-rule="evenodd" d="M15.8603 33.7319L15.1533 33.0249L19.8393 28.3389L20.5463 29.0459L15.8603 33.7319Z" fill="white"/>
<path fill-rule="evenodd" clip-rule="evenodd" d="M22.5354 31.7426L19.4534 28.6606L20.1604 27.9536L23.2424 31.0356L22.5354 31.7426Z" fill="white"/>
<path fill-rule="evenodd" clip-rule="evenodd" d="M18.0253 23.6387H14.5703C14.2943 23.6387 14.0703 23.4147 14.0703 23.1387C14.0703 22.8627 14.2943 22.6387 14.5703 22.6387H18.0253C18.3013 22.6387 18.5253 22.8627 18.5253 23.1387C18.5253 23.4147 18.3013 23.6387 18.0253 23.6387" fill="white"/>
<path fill-rule="evenodd" clip-rule="evenodd" d="M17.8254 14.1938H16.8704C16.5944 14.1938 16.3704 13.9698 16.3704 13.6938C16.3704 13.4178 16.5944 13.1938 16.8704 13.1938H17.8254C18.1014 13.1938 18.3254 13.4178 18.3254 13.6938C18.3254 13.9698 18.1014 14.1938 17.8254 14.1938" fill="white"/>
<path fill-rule="evenodd" clip-rule="evenodd" d="M24.3254 14.1938H20.8704C20.5944 14.1938 20.3704 13.9698 20.3704 13.6938C20.3704 13.4178 20.5944 13.1938 20.8704 13.1938H24.3254C24.6014 13.1938 24.8254 13.4178 24.8254 13.6938C24.8254 13.9698 24.6014 14.1938 24.3254 14.1938" fill="white"/>
<path fill-rule="evenodd" clip-rule="evenodd" d="M16.9755 18.9165H13.0205C12.7445 18.9165 12.5205 18.6925 12.5205 18.4165C12.5205 18.1405 12.7445 17.9165 13.0205 17.9165H16.9755C17.2515 17.9165 17.4755 18.1405 17.4755 18.4165C17.4755 18.6925 17.2515 18.9165 16.9755 18.9165" fill="white"/>
<path fill-rule="evenodd" clip-rule="evenodd" d="M21.4758 18.9165H20.0208C19.7448 18.9165 19.5208 18.6925 19.5208 18.4165C19.5208 18.1405 19.7448 17.9165 20.0208 17.9165H21.4758C21.7518 17.9165 21.9758 18.1405 21.9758 18.4165C21.9758 18.6925 21.7518 18.9165 21.4758 18.9165" fill="white"/>
</svg>
