<?xml version="1.0" encoding="UTF-8"?>
<svg width="48px" height="48px" viewBox="0 0 48 48" version="1.1" xmlns="http://www.w3.org/2000/svg" xmlns:xlink="http://www.w3.org/1999/xlink">
    <!-- Generator: Sketch 60.1 (88133) - https://sketch.com -->
    <title>icons/perils/lagenhetsskyddet/skadedjur</title>
    <desc>Created with Sketch.</desc>
    <g id="icons/perils/lagenhetsskyddet/skadedjur" stroke="none" stroke-width="1" fill="none" fill-rule="evenodd">
        <g id="Page-1" fill="#FF8A80">
            <g id="Group-3">
                <path d="M48.0001,24.0002 C48.0001,37.2552 37.2551,48.0002 24.0001,48.0002 C10.7451,48.0002 0.0001,37.2552 0.0001,24.0002 C0.0001,10.7452 10.7451,0.0002 24.0001,0.0002 C37.2551,0.0002 48.0001,10.7452 48.0001,24.0002" id="Fill-1"></path>
            </g>
        </g>
        <g id="Group" transform="translate(9.000000, 10.000000)">
            <rect id="Rectangle" stroke="#FFFFFF" x="7" y="4" width="16" height="22" rx="8"></rect>
            <circle id="Oval" fill="#FFFFFF" cx="15" cy="9" r="1"></circle>
            <circle id="Oval" fill="#FFFFFF" cx="15" cy="15" r="1"></circle>
            <circle id="Oval" fill="#FFFFFF" cx="15" cy="21" r="1"></circle>
            <rect id="Rectangle" fill="#FFFFFF" x="22.5" y="9" width="5.2" height="1"></rect>
            <rect id="Rectangle" fill="#FFFFFF" x="22.5" y="21" width="5.2" height="1"></rect>
            <rect id="Rectangle" fill="#FFFFFF" x="22.5" y="15" width="7" height="1"></rect>
            <rect id="Rectangle" fill="#FFFFFF" transform="translate(4.600000, 9.500000) scale(-1, 1) translate(-4.600000, -9.500000) " x="2" y="9" width="5.2" height="1"></rect>
            <rect id="Rectangle" fill="#FFFFFF" transform="translate(19.600000, 2.500000) scale(-1, 1) rotate(-315.000000) translate(-19.600000, -2.500000) " x="17" y="2" width="5.2" height="1"></rect>
            <rect id="Rectangle" fill="#FFFFFF" transform="translate(10.600000, 2.500000) rotate(-315.000000) translate(-10.600000, -2.500000) " x="8" y="2" width="5.2" height="1"></rect>
            <rect id="Rectangle" fill="#FFFFFF" transform="translate(5.000000, 21.500000) scale(-1, 1) translate(-5.000000, -21.500000) " x="2" y="21" width="6" height="1"></rect>
            <rect id="Rectangle" fill="#FFFFFF" transform="translate(3.500000, 15.500000) scale(-1, 1) translate(-3.500000, -15.500000) " x="0" y="15" width="7" height="1"></rect>
        </g>
    </g>
</svg>