<svg width="270" height="258" viewBox="0 0 270 258" xmlns="http://www.w3.org/2000/svg" xmlns:xlink="http://www.w3.org/1999/xlink"><defs><filter x="-3%" y="-6.3%" width="105.9%" height="115.9%" filterUnits="objectBoundingBox" id="a"><feOffset dy="1" in="SourceAlpha" result="shadowOffsetOuter1"/><feGaussianBlur stdDeviation="1.5" in="shadowOffsetOuter1" result="shadowBlurOuter1"/><feColorMatrix values="0 0 0 0 0 0 0 0 0 0 0 0 0 0 0 0 0 0 0.1 0" in="shadowBlurOuter1"/></filter><rect id="b" x="0" y="45" width="169" height="63" rx="6.272"/></defs><g fill="none" fill-rule="evenodd"><path d="M10.256 0h249.488c3.567 0 4.86.371 6.163 1.069a7.27 7.27 0 013.024 3.024C269.63 5.396 270 6.689 270 10.256v237.488c0 3.567-.371 4.86-1.069 6.163a7.27 7.27 0 01-3.024 3.024c-1.303.698-2.596 1.069-6.163 1.069H10.256c-3.567 0-4.86-.371-6.163-1.069a7.27 7.27 0 01-3.024-3.024C.37 252.604 0 251.311 0 247.744V10.256c0-3.567.371-4.86 1.069-6.163a7.27 7.27 0 013.024-3.024C5.396.37 6.689 0 10.256 0z" fill="#FFF" fill-rule="nonzero"/><g transform="translate(76 61)" fill="#FF8A80"><circle cx="6.5" cy="137.5" r="1.5"/><circle cx="6.5" cy="129.5" r="1.5"/><circle cx="56.5" cy="137.5" r="1.5"/><circle cx="56.5" cy="129.5" r="1.5"/><circle cx="1.5" cy="141.5" r="1.5"/><circle cx="1.5" cy="133.5" r="1.5"/><circle cx="51.5" cy="141.5" r="1.5"/><circle cx="51.5" cy="133.5" r="1.5"/><circle cx="16.5" cy="137.5" r="1.5"/><circle cx="16.5" cy="129.5" r="1.5"/><circle cx="66.5" cy="137.5" r="1.5"/><circle cx="66.5" cy="129.5" r="1.5"/><circle cx="11.5" cy="141.5" r="1.5"/><circle cx="11.5" cy="133.5" r="1.5"/><circle cx="61.5" cy="141.5" r="1.5"/><circle cx="61.5" cy="133.5" r="1.5"/><circle cx="26.5" cy="137.5" r="1.5"/><circle cx="26.5" cy="129.5" r="1.5"/><circle cx="76.5" cy="137.5" r="1.5"/><circle cx="76.5" cy="129.5" r="1.5"/><circle cx="21.5" cy="141.5" r="1.5"/><circle cx="21.5" cy="133.5" r="1.5"/><circle cx="71.5" cy="141.5" r="1.5"/><circle cx="71.5" cy="133.5" r="1.5"/><circle cx="36.5" cy="137.5" r="1.5"/><circle cx="36.5" cy="129.5" r="1.5"/><circle cx="86.5" cy="137.5" r="1.5"/><circle cx="86.5" cy="129.5" r="1.5"/><circle cx="106.5" cy="137.5" r="1.5"/><circle cx="106.5" cy="129.5" r="1.5"/><circle cx="31.5" cy="141.5" r="1.5"/><circle cx="31.5" cy="133.5" r="1.5"/><circle cx="81.5" cy="141.5" r="1.5"/><circle cx="81.5" cy="133.5" r="1.5"/><circle cx="101.5" cy="141.5" r="1.5"/><circle cx="101.5" cy="133.5" r="1.5"/><circle cx="46.5" cy="137.5" r="1.5"/><circle cx="46.5" cy="129.5" r="1.5"/><circle cx="96.5" cy="137.5" r="1.5"/><circle cx="96.5" cy="129.5" r="1.5"/><circle cx="116.5" cy="137.5" r="1.5"/><circle cx="116.5" cy="129.5" r="1.5"/><circle cx="41.5" cy="141.5" r="1.5"/><circle cx="41.5" cy="133.5" r="1.5"/><circle cx="91.5" cy="141.5" r="1.5"/><circle cx="91.5" cy="133.5" r="1.5"/><circle cx="111.5" cy="141.5" r="1.5"/><circle cx="111.5" cy="133.5" r="1.5"/><circle cx="6.5" cy="121.5" r="1.5"/><circle cx="56.5" cy="121.5" r="1.5"/><circle cx="1.5" cy="125.5" r="1.5"/><circle cx="51.5" cy="125.5" r="1.5"/><circle cx="16.5" cy="121.5" r="1.5"/><circle cx="66.5" cy="121.5" r="1.5"/><circle cx="11.5" cy="125.5" r="1.5"/><circle cx="61.5" cy="125.5" r="1.5"/><circle cx="26.5" cy="121.5" r="1.5"/><circle cx="76.5" cy="121.5" r="1.5"/><circle cx="21.5" cy="125.5" r="1.5"/><circle cx="71.5" cy="125.5" r="1.5"/><circle cx="36.5" cy="121.5" r="1.5"/><circle cx="86.5" cy="121.5" r="1.5"/><circle cx="106.5" cy="121.5" r="1.5"/><circle cx="31.5" cy="125.5" r="1.5"/><circle cx="81.5" cy="125.5" r="1.5"/><circle cx="101.5" cy="125.5" r="1.5"/><circle cx="46.5" cy="121.5" r="1.5"/><circle cx="96.5" cy="121.5" r="1.5"/><circle cx="116.5" cy="121.5" r="1.5"/><circle cx="41.5" cy="125.5" r="1.5"/><circle cx="91.5" cy="125.5" r="1.5"/><circle cx="111.5" cy="125.5" r="1.5"/><circle cx="6.5" cy="113.5" r="1.5"/><circle cx="56.5" cy="113.5" r="1.5"/><circle cx="1.5" cy="117.5" r="1.5"/><circle cx="51.5" cy="117.5" r="1.5"/><circle cx="16.5" cy="113.5" r="1.5"/><circle cx="66.5" cy="113.5" r="1.5"/><circle cx="11.5" cy="117.5" r="1.5"/><circle cx="61.5" cy="117.5" r="1.5"/><circle cx="26.5" cy="113.5" r="1.5"/><circle cx="76.5" cy="113.5" r="1.5"/><circle cx="21.5" cy="117.5" r="1.5"/><circle cx="71.5" cy="117.5" r="1.5"/><circle cx="36.5" cy="113.5" r="1.5"/><circle cx="86.5" cy="113.5" r="1.5"/><circle cx="106.5" cy="113.5" r="1.5"/><circle cx="31.5" cy="117.5" r="1.5"/><circle cx="81.5" cy="117.5" r="1.5"/><circle cx="101.5" cy="117.5" r="1.5"/><circle cx="46.5" cy="113.5" r="1.5"/><circle cx="96.5" cy="113.5" r="1.5"/><circle cx="116.5" cy="113.5" r="1.5"/><circle cx="41.5" cy="117.5" r="1.5"/><circle cx="91.5" cy="117.5" r="1.5"/><circle cx="111.5" cy="117.5" r="1.5"/><circle cx="6.5" cy="105.5" r="1.5"/><circle cx="56.5" cy="105.5" r="1.5"/><circle cx="1.5" cy="109.5" r="1.5"/><circle cx="51.5" cy="109.5" r="1.5"/><circle cx="16.5" cy="105.5" r="1.5"/><circle cx="66.5" cy="105.5" r="1.5"/><circle cx="11.5" cy="109.5" r="1.5"/><circle cx="61.5" cy="109.5" r="1.5"/><circle cx="26.5" cy="105.5" r="1.5"/><circle cx="76.5" cy="105.5" r="1.5"/><circle cx="21.5" cy="109.5" r="1.5"/><circle cx="71.5" cy="109.5" r="1.5"/><circle cx="36.5" cy="105.5" r="1.5"/><circle cx="86.5" cy="105.5" r="1.5"/><circle cx="106.5" cy="105.5" r="1.5"/><circle cx="31.5" cy="109.5" r="1.5"/><circle cx="81.5" cy="109.5" r="1.5"/><circle cx="101.5" cy="109.5" r="1.5"/><circle cx="46.5" cy="105.5" r="1.5"/><circle cx="96.5" cy="105.5" r="1.5"/><circle cx="116.5" cy="105.5" r="1.5"/><circle cx="41.5" cy="109.5" r="1.5"/><circle cx="91.5" cy="109.5" r="1.5"/><circle cx="111.5" cy="109.5" r="1.5"/><circle cx="6.5" cy="97.5" r="1.5"/><circle cx="56.5" cy="97.5" r="1.5"/><circle cx="1.5" cy="101.5" r="1.5"/><circle cx="51.5" cy="101.5" r="1.5"/><circle cx="16.5" cy="97.5" r="1.5"/><circle cx="66.5" cy="97.5" r="1.5"/><circle cx="11.5" cy="101.5" r="1.5"/><circle cx="61.5" cy="101.5" r="1.5"/><circle cx="26.5" cy="97.5" r="1.5"/><circle cx="76.5" cy="97.5" r="1.5"/><circle cx="21.5" cy="101.5" r="1.5"/><circle cx="71.5" cy="101.5" r="1.5"/><circle cx="36.5" cy="97.5" r="1.5"/><circle cx="86.5" cy="97.5" r="1.5"/><circle cx="106.5" cy="97.5" r="1.5"/><circle cx="31.5" cy="101.5" r="1.5"/><circle cx="81.5" cy="101.5" r="1.5"/><circle cx="101.5" cy="101.5" r="1.5"/><circle cx="46.5" cy="97.5" r="1.5"/><circle cx="96.5" cy="97.5" r="1.5"/><circle cx="116.5" cy="97.5" r="1.5"/><circle cx="41.5" cy="101.5" r="1.5"/><circle cx="91.5" cy="101.5" r="1.5"/><circle cx="111.5" cy="101.5" r="1.5"/><circle cx="6.5" cy="89.5" r="1.5"/><circle cx="56.5" cy="89.5" r="1.5"/><circle cx="1.5" cy="93.5" r="1.5"/><circle cx="51.5" cy="93.5" r="1.5"/><circle cx="16.5" cy="89.5" r="1.5"/><circle cx="66.5" cy="89.5" r="1.5"/><circle cx="11.5" cy="93.5" r="1.5"/><circle cx="61.5" cy="93.5" r="1.5"/><circle cx="26.5" cy="89.5" r="1.5"/><circle cx="76.5" cy="89.5" r="1.5"/><circle cx="21.5" cy="93.5" r="1.5"/><circle cx="71.5" cy="93.5" r="1.5"/><circle cx="36.5" cy="89.5" r="1.5"/><circle cx="86.5" cy="89.5" r="1.5"/><circle cx="106.5" cy="89.5" r="1.5"/><circle cx="31.5" cy="93.5" r="1.5"/><circle cx="81.5" cy="93.5" r="1.5"/><circle cx="101.5" cy="93.5" r="1.5"/><circle cx="46.5" cy="89.5" r="1.5"/><circle cx="96.5" cy="89.5" r="1.5"/><circle cx="116.5" cy="89.5" r="1.5"/><circle cx="41.5" cy="93.5" r="1.5"/><circle cx="91.5" cy="93.5" r="1.5"/><circle cx="111.5" cy="93.5" r="1.5"/><circle cx="6.5" cy="81.5" r="1.5"/><circle cx="56.5" cy="81.5" r="1.5"/><circle cx="1.5" cy="85.5" r="1.5"/><circle cx="51.5" cy="85.5" r="1.5"/><circle cx="16.5" cy="81.5" r="1.5"/><circle cx="66.5" cy="81.5" r="1.5"/><circle cx="11.5" cy="85.5" r="1.5"/><circle cx="61.5" cy="85.5" r="1.5"/><circle cx="26.5" cy="81.5" r="1.5"/><circle cx="76.5" cy="81.5" r="1.5"/><circle cx="21.5" cy="85.5" r="1.5"/><circle cx="71.5" cy="85.5" r="1.5"/><circle cx="36.5" cy="81.5" r="1.5"/><circle cx="86.5" cy="81.5" r="1.5"/><circle cx="106.5" cy="81.5" r="1.5"/><circle cx="31.5" cy="85.5" r="1.5"/><circle cx="81.5" cy="85.5" r="1.5"/><circle cx="101.5" cy="85.5" r="1.5"/><circle cx="46.5" cy="81.5" r="1.5"/><circle cx="96.5" cy="81.5" r="1.5"/><circle cx="116.5" cy="81.5" r="1.5"/><circle cx="41.5" cy="85.5" r="1.5"/><circle cx="91.5" cy="85.5" r="1.5"/><circle cx="111.5" cy="85.5" r="1.5"/><circle cx="6.5" cy="73.5" r="1.5"/><circle cx="56.5" cy="73.5" r="1.5"/><circle cx="1.5" cy="77.5" r="1.5"/><circle cx="51.5" cy="77.5" r="1.5"/><circle cx="16.5" cy="73.5" r="1.5"/><circle cx="66.5" cy="73.5" r="1.5"/><circle cx="11.5" cy="77.5" r="1.5"/><circle cx="61.5" cy="77.5" r="1.5"/><circle cx="26.5" cy="73.5" r="1.5"/><circle cx="76.5" cy="73.5" r="1.5"/><circle cx="21.5" cy="77.5" r="1.5"/><circle cx="71.5" cy="77.5" r="1.5"/><circle cx="36.5" cy="73.5" r="1.5"/><circle cx="86.5" cy="73.5" r="1.5"/><circle cx="106.5" cy="73.5" r="1.5"/><circle cx="31.5" cy="77.5" r="1.5"/><circle cx="81.5" cy="77.5" r="1.5"/><circle cx="101.5" cy="77.5" r="1.5"/><circle cx="46.5" cy="73.5" r="1.5"/><circle cx="96.5" cy="73.5" r="1.5"/><circle cx="116.5" cy="73.5" r="1.5"/><circle cx="41.5" cy="77.5" r="1.5"/><circle cx="91.5" cy="77.5" r="1.5"/><circle cx="111.5" cy="77.5" r="1.5"/><circle cx="6.5" cy="65.5" r="1.5"/><circle cx="56.5" cy="65.5" r="1.5"/><circle cx="1.5" cy="69.5" r="1.5"/><circle cx="51.5" cy="69.5" r="1.5"/><circle cx="16.5" cy="65.5" r="1.5"/><circle cx="66.5" cy="65.5" r="1.5"/><circle cx="11.5" cy="69.5" r="1.5"/><circle cx="61.5" cy="69.5" r="1.5"/><circle cx="26.5" cy="65.5" r="1.5"/><circle cx="76.5" cy="65.5" r="1.5"/><circle cx="21.5" cy="69.5" r="1.5"/><circle cx="71.5" cy="69.5" r="1.5"/><circle cx="36.5" cy="65.5" r="1.5"/><circle cx="86.5" cy="65.5" r="1.5"/><circle cx="106.5" cy="65.5" r="1.5"/><circle cx="31.5" cy="69.5" r="1.5"/><circle cx="81.5" cy="69.5" r="1.5"/><circle cx="101.5" cy="69.5" r="1.5"/><circle cx="46.5" cy="65.5" r="1.5"/><circle cx="96.5" cy="65.5" r="1.5"/><circle cx="116.5" cy="65.5" r="1.5"/><circle cx="41.5" cy="69.5" r="1.5"/><circle cx="91.5" cy="69.5" r="1.5"/><circle cx="111.5" cy="69.5" r="1.5"/><circle cx="6.5" cy="57.5" r="1.5"/><circle cx="56.5" cy="57.5" r="1.5"/><circle cx="1.5" cy="61.5" r="1.5"/><circle cx="51.5" cy="61.5" r="1.5"/><circle cx="16.5" cy="57.5" r="1.5"/><circle cx="66.5" cy="57.5" r="1.5"/><circle cx="11.5" cy="61.5" r="1.5"/><circle cx="61.5" cy="61.5" r="1.5"/><circle cx="26.5" cy="57.5" r="1.5"/><circle cx="76.5" cy="57.5" r="1.5"/><circle cx="21.5" cy="61.5" r="1.5"/><circle cx="71.5" cy="61.5" r="1.5"/><circle cx="36.5" cy="57.5" r="1.5"/><circle cx="86.5" cy="57.5" r="1.5"/><circle cx="106.5" cy="57.5" r="1.5"/><circle cx="31.5" cy="61.5" r="1.5"/><circle cx="81.5" cy="61.5" r="1.5"/><circle cx="101.5" cy="61.5" r="1.5"/><circle cx="46.5" cy="57.5" r="1.5"/><circle cx="96.5" cy="57.5" r="1.5"/><circle cx="116.5" cy="57.5" r="1.5"/><circle cx="41.5" cy="61.5" r="1.5"/><circle cx="91.5" cy="61.5" r="1.5"/><circle cx="111.5" cy="61.5" r="1.5"/><circle cx="6.5" cy="49.5" r="1.5"/><circle cx="56.5" cy="49.5" r="1.5"/><circle cx="1.5" cy="53.5" r="1.5"/><circle cx="51.5" cy="53.5" r="1.5"/><circle cx="16.5" cy="49.5" r="1.5"/><circle cx="66.5" cy="49.5" r="1.5"/><circle cx="11.5" cy="53.5" r="1.5"/><circle cx="61.5" cy="53.5" r="1.5"/><circle cx="26.5" cy="49.5" r="1.5"/><circle cx="76.5" cy="49.5" r="1.5"/><circle cx="21.5" cy="53.5" r="1.5"/><circle cx="71.5" cy="53.5" r="1.5"/><circle cx="36.5" cy="49.5" r="1.5"/><circle cx="86.5" cy="49.5" r="1.5"/><circle cx="106.5" cy="49.5" r="1.5"/><circle cx="31.5" cy="53.5" r="1.5"/><circle cx="81.5" cy="53.5" r="1.5"/><circle cx="101.5" cy="53.5" r="1.5"/><circle cx="46.5" cy="49.5" r="1.5"/><circle cx="96.5" cy="49.5" r="1.5"/><circle cx="116.5" cy="49.5" r="1.5"/><circle cx="41.5" cy="53.5" r="1.5"/><circle cx="91.5" cy="53.5" r="1.5"/><circle cx="111.5" cy="53.5" r="1.5"/><circle cx="6.5" cy="41.5" r="1.5"/><circle cx="56.5" cy="41.5" r="1.5"/><circle cx="1.5" cy="45.5" r="1.5"/><circle cx="51.5" cy="45.5" r="1.5"/><circle cx="16.5" cy="41.5" r="1.5"/><circle cx="66.5" cy="41.5" r="1.5"/><circle cx="11.5" cy="45.5" r="1.5"/><circle cx="61.5" cy="45.5" r="1.5"/><circle cx="26.5" cy="41.5" r="1.5"/><circle cx="76.5" cy="41.5" r="1.5"/><circle cx="21.5" cy="45.5" r="1.5"/><circle cx="71.5" cy="45.5" r="1.5"/><circle cx="36.5" cy="41.5" r="1.5"/><circle cx="86.5" cy="41.5" r="1.5"/><circle cx="106.5" cy="41.5" r="1.5"/><circle cx="31.5" cy="45.5" r="1.5"/><circle cx="81.5" cy="45.5" r="1.5"/><circle cx="101.5" cy="45.5" r="1.5"/><circle cx="46.5" cy="41.5" r="1.5"/><circle cx="96.5" cy="41.5" r="1.5"/><circle cx="116.5" cy="41.5" r="1.5"/><circle cx="41.5" cy="45.5" r="1.5"/><circle cx="91.5" cy="45.5" r="1.5"/><circle cx="111.5" cy="45.5" r="1.5"/><circle cx="6.5" cy="33.5" r="1.5"/><circle cx="56.5" cy="33.5" r="1.5"/><circle cx="1.5" cy="37.5" r="1.5"/><circle cx="51.5" cy="37.5" r="1.5"/><circle cx="16.5" cy="33.5" r="1.5"/><circle cx="66.5" cy="33.5" r="1.5"/><circle cx="11.5" cy="37.5" r="1.5"/><circle cx="61.5" cy="37.5" r="1.5"/><circle cx="26.5" cy="33.5" r="1.5"/><circle cx="76.5" cy="33.5" r="1.5"/><circle cx="21.5" cy="37.5" r="1.5"/><circle cx="71.5" cy="37.5" r="1.5"/><circle cx="36.5" cy="33.5" r="1.5"/><circle cx="86.5" cy="33.5" r="1.5"/><circle cx="106.5" cy="33.5" r="1.5"/><circle cx="31.5" cy="37.5" r="1.5"/><circle cx="81.5" cy="37.5" r="1.5"/><circle cx="101.5" cy="37.5" r="1.5"/><circle cx="46.5" cy="33.5" r="1.5"/><circle cx="96.5" cy="33.5" r="1.5"/><circle cx="116.5" cy="33.5" r="1.5"/><circle cx="41.5" cy="37.5" r="1.5"/><circle cx="91.5" cy="37.5" r="1.5"/><circle cx="111.5" cy="37.5" r="1.5"/><circle cx="6.5" cy="25.5" r="1.5"/><circle cx="56.5" cy="25.5" r="1.5"/><circle cx="1.5" cy="29.5" r="1.5"/><circle cx="51.5" cy="29.5" r="1.5"/><circle cx="16.5" cy="25.5" r="1.5"/><circle cx="66.5" cy="25.5" r="1.5"/><circle cx="11.5" cy="29.5" r="1.5"/><circle cx="61.5" cy="29.5" r="1.5"/><circle cx="26.5" cy="25.5" r="1.5"/><circle cx="76.5" cy="25.5" r="1.5"/><circle cx="21.5" cy="29.5" r="1.5"/><circle cx="71.5" cy="29.5" r="1.5"/><circle cx="36.5" cy="25.5" r="1.5"/><circle cx="86.5" cy="25.5" r="1.5"/><circle cx="106.5" cy="25.5" r="1.5"/><circle cx="31.5" cy="29.5" r="1.5"/><circle cx="81.5" cy="29.5" r="1.5"/><circle cx="101.5" cy="29.5" r="1.5"/><circle cx="46.5" cy="25.5" r="1.5"/><circle cx="96.5" cy="25.5" r="1.5"/><circle cx="116.5" cy="25.5" r="1.5"/><circle cx="41.5" cy="29.5" r="1.5"/><circle cx="91.5" cy="29.5" r="1.5"/><circle cx="111.5" cy="29.5" r="1.5"/><circle cx="6.5" cy="17.5" r="1.5"/><circle cx="56.5" cy="17.5" r="1.5"/><circle cx="1.5" cy="21.5" r="1.5"/><circle cx="51.5" cy="21.5" r="1.5"/><circle cx="16.5" cy="17.5" r="1.5"/><circle cx="66.5" cy="17.5" r="1.5"/><circle cx="11.5" cy="21.5" r="1.5"/><circle cx="61.5" cy="21.5" r="1.5"/><circle cx="26.5" cy="17.5" r="1.5"/><circle cx="76.5" cy="17.5" r="1.5"/><circle cx="21.5" cy="21.5" r="1.5"/><circle cx="71.5" cy="21.5" r="1.5"/><circle cx="36.5" cy="17.5" r="1.5"/><circle cx="86.5" cy="17.5" r="1.5"/><circle cx="106.5" cy="17.5" r="1.5"/><circle cx="31.5" cy="21.5" r="1.5"/><circle cx="81.5" cy="21.5" r="1.5"/><circle cx="101.5" cy="21.5" r="1.5"/><circle cx="46.5" cy="17.5" r="1.5"/><circle cx="96.5" cy="17.5" r="1.5"/><circle cx="116.5" cy="17.5" r="1.5"/><circle cx="41.5" cy="21.5" r="1.5"/><circle cx="91.5" cy="21.5" r="1.5"/><circle cx="111.5" cy="21.5" r="1.5"/><circle cx="6.5" cy="9.5" r="1.5"/><circle cx="56.5" cy="9.5" r="1.5"/><circle cx="1.5" cy="13.5" r="1.5"/><circle cx="51.5" cy="13.5" r="1.5"/><circle cx="16.5" cy="9.5" r="1.5"/><circle cx="66.5" cy="9.5" r="1.5"/><circle cx="11.5" cy="13.5" r="1.5"/><circle cx="61.5" cy="13.5" r="1.5"/><circle cx="26.5" cy="9.5" r="1.5"/><circle cx="76.5" cy="9.5" r="1.5"/><circle cx="21.5" cy="13.5" r="1.5"/><circle cx="71.5" cy="13.5" r="1.5"/><circle cx="36.5" cy="9.5" r="1.5"/><circle cx="86.5" cy="9.5" r="1.5"/><circle cx="106.5" cy="9.5" r="1.5"/><circle cx="31.5" cy="13.5" r="1.5"/><circle cx="81.5" cy="13.5" r="1.5"/><circle cx="101.5" cy="13.5" r="1.5"/><circle cx="46.5" cy="9.5" r="1.5"/><circle cx="96.5" cy="9.5" r="1.5"/><circle cx="116.5" cy="9.5" r="1.5"/><circle cx="41.5" cy="13.5" r="1.5"/><circle cx="91.5" cy="13.5" r="1.5"/><circle cx="111.5" cy="13.5" r="1.5"/><circle cx="6.5" cy="1.5" r="1.5"/><circle cx="56.5" cy="1.5" r="1.5"/><circle cx="1.5" cy="5.5" r="1.5"/><circle cx="51.5" cy="5.5" r="1.5"/><circle cx="16.5" cy="1.5" r="1.5"/><circle cx="66.5" cy="1.5" r="1.5"/><circle cx="11.5" cy="5.5" r="1.5"/><circle cx="61.5" cy="5.5" r="1.5"/><circle cx="26.5" cy="1.5" r="1.5"/><circle cx="76.5" cy="1.5" r="1.5"/><circle cx="21.5" cy="5.5" r="1.5"/><circle cx="71.5" cy="5.5" r="1.5"/><circle cx="36.5" cy="1.5" r="1.5"/><circle cx="86.5" cy="1.5" r="1.5"/><circle cx="106.5" cy="1.5" r="1.5"/><circle cx="31.5" cy="5.5" r="1.5"/><circle cx="81.5" cy="5.5" r="1.5"/><circle cx="101.5" cy="5.5" r="1.5"/><circle cx="46.5" cy="1.5" r="1.5"/><circle cx="96.5" cy="1.5" r="1.5"/><circle cx="116.5" cy="1.5" r="1.5"/><circle cx="41.5" cy="5.5" r="1.5"/><circle cx="91.5" cy="5.5" r="1.5"/><circle cx="111.5" cy="5.5" r="1.5"/></g><g transform="translate(10 46)"><use fill="#000" filter="url(#a)" xlink:href="#b"/><use fill="#F9FAFC" xlink:href="#b"/></g><path d="M23.18 105.811l-1.286-.173v-.674h3.935v.674l-1.364.173v4.406h5.99v-4.406l-1.301-.173v-.674h3.888v.674l-1.286.173v9.988l1.286.141v.675h-3.904v-.675l1.317-.14v-4.752h-5.99v4.751l1.38.141v.675h-3.998v-.675l1.333-.14v-9.989zm13.28.455c-.564 0-.846-.298-.846-.894 0-.303.089-.551.266-.745.178-.193.418-.29.722-.29.313 0 .538.086.674.259a.994.994 0 01.204.635c0 .324-.087.577-.259.76-.173.183-.42.275-.745.275h-.016zm-.501 2.681l-1.223-.267v-.705l2.148-.251h.031l.314.25v7.856l1.364.11v.675h-4.014v-.675l1.38-.125v-6.868zm6.162 4.061h-.8l-.392-10.223h1.521l-.329 10.223zm-1.301 2.917c0-.283.107-.523.321-.722.214-.198.452-.298.713-.298.293 0 .515.081.667.243a.87.87 0 01.227.62.951.951 0 01-.313.729 1.05 1.05 0 01-.737.29.889.889 0 01-.62-.235.806.806 0 01-.258-.627zm7.15-10.96h3.951v.674l-1.537.172 2.274 7.448.517 2.477.612-2.477 1.881-6.13-.423-1.318-1.16-.172v-.675h4.077v.675l-1.553.172 2.211 7.448.612 2.666.517-2.666 2.086-7.448-1.647-.172v-.675h3.716v.675l-1.05.172-3.215 10.882h-1.207l-2.54-8.2-2.493 8.2h-1.145l-3.387-10.866-1.097-.188v-.675zm17.436-.205l-1.396-.14v-.58l2.32-.267h.032l.298.203v3.732l-.031 1.302c.334-.303.805-.596 1.411-.878.606-.283 1.202-.424 1.788-.424.658 0 1.17.126 1.536.377.366.25.622.64.768 1.168.147.528.22 1.241.22 2.14v4.422l1.145.125v.675h-3.513v-.675l1.098-.125v-4.438c0-.669-.045-1.191-.133-1.568-.09-.376-.264-.658-.526-.846-.261-.189-.643-.283-1.144-.283-.418 0-.868.102-1.349.306-.48.204-.904.447-1.27.73v6.099l1.16.125v.674h-3.402v-.674l.988-.11v-11.07zm9.408 9.565c0-1.014.502-1.748 1.505-2.203 1.004-.455 2.253-.698 3.748-.729v-.486c0-.533-.055-.954-.165-1.262-.11-.309-.3-.533-.572-.674-.272-.142-.654-.212-1.145-.212-.533 0-1.017.08-1.45.243a8.913 8.913 0 00-1.263.588l-.345-.69c.115-.105.356-.25.722-.44a7.835 7.835 0 011.254-.5c.47-.147.925-.22 1.364-.22.711 0 1.273.099 1.686.298.413.198.71.517.894.956.182.44.274 1.03.274 1.772v5.174h.972v.58c-.575.157-1.06.236-1.458.236-.251 0-.423-.04-.518-.118-.094-.078-.14-.259-.14-.54v-.581c-.377.334-.787.63-1.232.886a2.974 2.974 0 01-1.513.384c-.752 0-1.377-.21-1.873-.627-.497-.418-.745-1.03-.745-1.835zm3.089 1.537c.292 0 .643-.094 1.05-.282a5.636 5.636 0 001.114-.675v-2.775c-1.265.01-2.224.199-2.878.565-.653.365-.98.857-.98 1.473 0 .596.152 1.027.455 1.294.303.267.716.4 1.239.4zm8.263.925c-.554 0-.972-.128-1.254-.384-.283-.256-.424-.714-.424-1.372v-6.194h-1.191v-.611c.522-.115.825-.199.91-.251.156-.084.27-.246.344-.486a7.96 7.96 0 00.25-.847c.105-.408.184-.726.236-.956h.721v2.226h2.776v.925h-2.776v5.08c0 .607.021 1.033.063 1.278.042.246.126.406.251.479.125.073.345.11.659.11.303 0 .642-.042 1.019-.126.376-.084.658-.172.846-.267l.204.596c-.24.188-.637.369-1.191.541-.554.173-1.035.259-1.443.259zm7.197-4.469c0-.847.165-1.623.494-2.328a3.94 3.94 0 011.474-1.686c.653-.418 1.45-.627 2.391-.627.408 0 .805.05 1.192.149.387.1.721.206 1.003.321l-.062 2.243h-.784l-.33-1.506c-.062-.313-.512-.47-1.348-.47-.815 0-1.466.313-1.952.94-.486.628-.73 1.485-.73 2.572 0 1.296.262 2.279.785 2.948.522.669 1.202 1.004 2.038 1.004.44 0 .865-.074 1.278-.22a4.373 4.373 0 001.027-.502l.25.518c-.302.303-.72.564-1.253.784-.534.22-1.061.329-1.584.329-.826 0-1.532-.196-2.117-.588a3.657 3.657 0 01-1.325-1.6c-.298-.674-.447-1.434-.447-2.28zm8.248 2.007c0-1.014.502-1.748 1.505-2.203 1.004-.455 2.253-.698 3.748-.729v-.486c0-.533-.055-.954-.165-1.262-.11-.309-.3-.533-.572-.674-.272-.142-.654-.212-1.145-.212-.533 0-1.017.08-1.45.243a8.913 8.913 0 00-1.263.588l-.345-.69c.115-.105.356-.25.722-.44a7.835 7.835 0 011.254-.5c.47-.147.925-.22 1.364-.22.711 0 1.273.099 1.686.298.413.198.71.517.894.956.183.44.274 1.03.274 1.772v5.174h.972v.58c-.575.157-1.06.236-1.458.236-.25 0-.423-.04-.517-.118-.095-.078-.142-.259-.142-.54v-.581c-.376.334-.786.63-1.23.886a2.974 2.974 0 01-1.514.384c-.752 0-1.377-.21-1.873-.627-.497-.418-.745-1.03-.745-1.835zm3.089 1.537c.293 0 .643-.094 1.05-.282a5.636 5.636 0 001.114-.675v-2.775c-1.265.01-2.224.199-2.878.565-.653.365-.98.857-.98 1.473 0 .596.152 1.027.455 1.294.303.267.716.4 1.239.4zm6.538-6.915l-1.207-.267v-.705l1.991-.251h.047l.298.25v.69l-.015.393c.386-.335.899-.643 1.536-.925.638-.283 1.229-.424 1.772-.424.67 0 1.184.128 1.545.384.36.257.611.649.752 1.176.141.528.212 1.237.212 2.125v4.438l1.176.11v.674h-3.497v-.675l1.05-.11v-4.453c0-.658-.044-1.176-.132-1.552-.09-.376-.262-.661-.518-.854-.256-.194-.63-.29-1.121-.29-.418 0-.87.104-1.356.313-.486.21-.907.455-1.263.737v6.084l1.145.125v.675h-3.465v-.675l1.05-.125v-6.868zm14.724-3.136l-1.521-.172v-.675h4.343v.675l-1.52.172v9.988l1.52.157v.659h-4.343v-.675l1.52-.14v-9.989zm9.094-1.05l-1.395-.142v-.58l2.32-.266h.032l.298.203v3.732l-.032 1.302c.335-.303.805-.596 1.412-.878.606-.283 1.202-.424 1.787-.424.659 0 1.17.126 1.537.377.366.25.622.64.768 1.168.146.528.22 1.241.22 2.14v4.422l1.144.125v.675h-3.512v-.675l1.097-.125v-4.438c0-.669-.044-1.191-.133-1.568-.089-.376-.264-.658-.525-.846-.261-.189-.643-.283-1.145-.283-.418 0-.867.102-1.348.306-.481.204-.904.447-1.27.73v6.099l1.16.125v.674h-3.403v-.674l.988-.11v-11.07zm13.124 12.026c-1.212 0-2.145-.416-2.798-1.247-.654-.83-.98-1.936-.98-3.316 0-.888.172-1.678.517-2.368.345-.69.823-1.225 1.435-1.607a3.815 3.815 0 012.062-.572c.93 0 1.654.266 2.171.8.518.533.797 1.301.84 2.305 0 .648-.032 1.108-.095 1.38h-5.582c0 1.097.248 1.993.745 2.689.496.695 1.194 1.042 2.093 1.042.44 0 .889-.078 1.349-.235.46-.157.815-.345 1.066-.564l.25.58c-.302.313-.744.577-1.324.792a5.014 5.014 0 01-1.749.321zm1.835-5.363c.031-.22.047-.45.047-.69-.01-.69-.175-1.238-.494-1.646-.319-.408-.807-.611-1.466-.611-1.432 0-2.21.982-2.336 2.947h4.249zm4.108-6.664l-1.333-.14v-.58l2.29-.267h.015l.298.203v11.855l1.474.11v.674h-4.124v-.675l1.38-.125V104.76zm12.23 7.182c0 .899-.182 1.717-.548 2.454a4.285 4.285 0 01-1.56 1.748c-.675.429-1.446.643-2.313.643-.293 0-.601-.024-.925-.07a4.379 4.379 0 01-.8-.18l.031 1.332v1.693l1.74.157v.69h-4.201v-.69l1.207-.157v-10.615l-1.223-.267v-.705l2.007-.251h.031l.283.25v.957a4.6 4.6 0 011.223-.886 3.498 3.498 0 011.615-.368c.606 0 1.17.151 1.693.455.523.303.944.773 1.262 1.41.32.638.479 1.438.479 2.4zm-3.95-3.309c-.45 0-.868.094-1.255.283-.387.188-.69.397-.91.627v5.974c.084.136.296.259.635.368.34.11.714.165 1.122.165.899 0 1.622-.332 2.171-.996.549-.663.823-1.643.823-2.94 0-1.16-.243-2.03-.729-2.61-.486-.58-1.105-.87-1.858-.87zm-141.45 21.231h3.403v.643l-1.255.188 1.396 4.877.517 2.18.518-2.196 1.568-5.692H28.4l1.568 5.692.502 2.21.564-2.194 1.38-4.861-1.207-.204v-.643h3.073v.643l-.862.204-2.447 7.98h-1.27l-1.709-5.832-.439-1.976-.376 1.976-1.646 5.833h-1.24l-2.508-7.997-.831-.188v-.643zm15.727-1.646c-.564 0-.847-.298-.847-.894 0-.303.09-.551.267-.745.178-.193.418-.29.721-.29.314 0 .538.086.674.259a.994.994 0 01.204.635c0 .324-.086.577-.259.76-.172.183-.42.275-.744.275h-.016zm-.502 2.681l-1.223-.267v-.705l2.148-.251h.032l.313.25v7.857l1.364.11v.674h-4.014v-.675l1.38-.125v-6.868zm6.46 7.84c-.554 0-.972-.128-1.254-.384-.282-.256-.423-.714-.423-1.372v-6.194h-1.192v-.611c.523-.115.826-.199.91-.251.156-.084.271-.246.344-.486a7.96 7.96 0 00.251-.847c.105-.408.183-.726.235-.956h.722v2.226h2.775v.925h-2.775v5.08c0 .607.02 1.033.062 1.278.042.246.126.406.251.479.126.073.345.11.659.11.303 0 .643-.042 1.02-.126.375-.084.658-.172.846-.267l.204.596c-.24.188-.638.369-1.192.541-.554.173-1.035.259-1.443.259zm4.563-12.027l-1.395-.14v-.58l2.32-.267h.032l.298.203v3.732l-.032 1.302c.335-.303.805-.596 1.412-.878.606-.283 1.202-.424 1.787-.424.659 0 1.17.126 1.537.377.366.25.622.64.768 1.168.146.528.22 1.241.22 2.14v4.422l1.144.125v.675H51.78v-.675l1.097-.125v-4.438c0-.669-.044-1.191-.133-1.568-.089-.376-.264-.658-.525-.846-.261-.189-.643-.283-1.145-.283-.418 0-.867.102-1.348.306-.481.204-.904.447-1.27.73v6.099l1.16.125v.675h-3.403v-.675l.988-.11v-11.07zm15.743 12.027c-.554 0-.972-.128-1.254-.384-.283-.256-.424-.714-.424-1.372v-6.194h-1.191v-.611c.522-.115.825-.199.909-.251.157-.084.272-.246.345-.486a7.96 7.96 0 00.25-.847c.105-.408.184-.726.236-.956h.721v2.226h2.776v.925h-2.776v5.08c0 .607.021 1.033.063 1.278.042.246.125.406.25.479.126.073.346.11.66.11.303 0 .642-.042 1.019-.126.376-.084.658-.172.846-.267l.204.596c-.24.188-.637.369-1.191.541-.554.173-1.035.259-1.443.259zm3.653-4.579c0-.909.191-1.709.573-2.399.381-.69.883-1.217 1.505-1.583a3.795 3.795 0 011.952-.55c1.317 0 2.292.43 2.925 1.287.632.857.948 1.954.948 3.292 0 .91-.19 1.71-.572 2.4-.382.69-.883 1.217-1.505 1.583a3.795 3.795 0 01-1.953.549c-1.317 0-2.291-.429-2.924-1.286-.632-.857-.949-1.955-.949-3.293zm3.952 3.764c.805 0 1.427-.309 1.866-.925.439-.617.658-1.516.658-2.697 0-1.13-.204-2.055-.611-2.776-.408-.721-1.04-1.082-1.898-1.082-.804 0-1.429.309-1.873.925-.445.617-.667 1.516-.667 2.697 0 1.14.207 2.067.62 2.784.413.716 1.048 1.074 1.905 1.074zm8.828.815c-.617 0-1.187-.16-1.71-.478-.522-.32-.94-.803-1.254-1.45-.313-.649-.47-1.443-.47-2.384 0-.899.183-1.712.549-2.438a4.254 4.254 0 011.56-1.725c.674-.423 1.46-.635 2.36-.635.574 0 1.128.063 1.662.188v-3.105l-1.631-.156v-.565l2.571-.266h.032l.298.22v11.916h.956v.611c-.052.01-.23.053-.533.126-.303.073-.627.11-.972.11-.24 0-.41-.042-.51-.126-.099-.083-.149-.266-.149-.549v-.548a4.18 4.18 0 01-1.184.893c-.465.24-.99.361-1.575.361zm.517-.988c.45 0 .876-.107 1.278-.321.402-.215.703-.452.902-.714v-5.77c-.084-.146-.3-.272-.651-.376a3.9 3.9 0 00-1.121-.157c-.9 0-1.62.321-2.164.964s-.815 1.618-.815 2.925c0 1.17.24 2.038.72 2.602.482.565 1.098.847 1.851.847zm5.817-1.474c0-1.014.502-1.748 1.506-2.203 1.003-.455 2.252-.698 3.747-.729v-.486c0-.533-.055-.954-.164-1.262-.11-.309-.301-.533-.573-.674-.272-.142-.653-.212-1.144-.212-.534 0-1.017.08-1.45.243a8.913 8.913 0 00-1.263.588l-.345-.69c.115-.105.355-.25.721-.44a7.835 7.835 0 011.255-.5c.47-.147.925-.22 1.364-.22.71 0 1.272.099 1.685.298.413.198.711.517.894.956.183.44.275 1.03.275 1.772v5.174h.972v.58c-.575.157-1.061.236-1.459.236-.25 0-.423-.04-.517-.118-.094-.078-.141-.259-.141-.54v-.581c-.376.334-.787.63-1.231.886a2.974 2.974 0 01-1.513.384c-.753 0-1.377-.21-1.874-.627-.496-.418-.745-1.03-.745-1.835zm3.09 1.537c.292 0 .642-.094 1.05-.282a5.636 5.636 0 001.113-.675v-2.775c-1.265.01-2.224.199-2.877.565-.653.365-.98.857-.98 1.473 0 .596.151 1.027.455 1.294.303.267.716.4 1.238.4zm6.726 4.657c-.146 0-.295-.01-.447-.032a1.133 1.133 0 01-.321-.078v-1.16c.125.062.392.094.8.094.323 0 .619-.066.885-.196.267-.13.541-.395.824-.792.282-.397.559-.977.83-1.74h-.69l-2.994-7.856-.737-.204v-.643h3.465v.643l-1.27.188 1.646 4.798.816 2.556.784-2.571 1.474-4.783-1.098-.188v-.643h3.01v.643l-.815.188a712.79 712.79 0 01-1.858 5.637c-.455 1.354-.745 2.182-.87 2.485-.366.92-.69 1.628-.972 2.125-.282.497-.617.875-1.004 1.137-.386.261-.873.392-1.458.392zm9.753-7.574c-.24-.595-.387-1.327-.439-2.195 0-.439.165-.813.494-1.12.33-.31.813-.652 1.45-1.028.47-.272.837-.512 1.098-.721.261-.21.439-.44.533-.69v-.894a2.48 2.48 0 00-.463-1.427c-.308-.45-.744-.813-1.309-1.09-.564-.277-1.223-.415-1.976-.415-.47 0-.862.068-1.176.204l-.203-.816c.167-.094.41-.172.729-.235s.63-.094.933-.094c1.526 0 2.657.356 3.394 1.066.737.711 1.106 1.647 1.106 2.807 0 .47-.1.894-.298 1.27a3.628 3.628 0 01-.713.957c-.277.261-.636.564-1.075.91-.345.27-.606.49-.784.658-.177.167-.313.34-.407.517v.078c0 .962.02 1.715.062 2.258h-.956zm.016 3.842a.889.889 0 01-.62-.235.806.806 0 01-.258-.627c0-.283.107-.523.321-.722.214-.198.452-.298.713-.298.293 0 .515.081.667.243a.87.87 0 01.227.62.951.951 0 01-.313.729 1.05 1.05 0 01-.737.29z" fill="#0F007A" fill-rule="nonzero"/><path fill="#1BE9B6" d="M39.586 79.997h4.79v-11.88h-4.79z"/><path d="M44.375 68.118h-4.79c0-4.023-3.094-7.298-6.897-7.298-3.805 0-6.9 3.275-6.9 7.298H21c0-6.817 5.244-12.363 11.689-12.363 6.444 0 11.687 5.546 11.687 12.363" fill="#651EFF"/><path fill="#0F007A" d="M21 80h4.79V46H21z"/><path fill="#FF8A80" d="M21 79.997h4.79v-11.88H21z"/></g></svg>