<?xml version="1.0" encoding="UTF-8"?>
<svg width="270px" height="258px" viewBox="0 0 270 258" version="1.1" xmlns="http://www.w3.org/2000/svg" xmlns:xlink="http://www.w3.org/1999/xlink">
    <!-- Generator: Sketch 53.1 (72631) - https://sketchapp.com -->
    <title>fast_answers</title>
    <desc>Created with Sketch.</desc>
    <defs>
        <rect id="path-1" x="0" y="45" width="169" height="63" rx="6.272"></rect>
        <filter x="-3.0%" y="-6.3%" width="105.9%" height="115.9%" filterUnits="objectBoundingBox" id="filter-2">
            <feOffset dx="0" dy="1" in="SourceAlpha" result="shadowOffsetOuter1"></feOffset>
            <feGaussianBlur stdDeviation="1.5" in="shadowOffsetOuter1" result="shadowBlurOuter1"></feGaussianBlur>
            <feColorMatrix values="0 0 0 0 0   0 0 0 0 0   0 0 0 0 0  0 0 0 0.1 0" type="matrix" in="shadowBlurOuter1"></feColorMatrix>
        </filter>
    </defs>
    <g id="Page-1" stroke="none" stroke-width="1" fill="none" fill-rule="evenodd">
        <g id="English-Translations" transform="translate(-585.000000, -304.000000)">
            <g id="fast_answers" transform="translate(585.000000, 304.000000)">
                <path d="M10.2555408,-4.14336123e-16 L259.744459,4.14336123e-16 C263.310534,-2.4074122e-16 264.603679,0.371302445 265.907383,1.06853082 C267.211087,1.76575919 268.234241,2.78891348 268.931469,4.09261719 C269.628698,5.39632089 270,6.68946584 270,10.2555408 L270,247.744459 C270,251.310534 269.628698,252.603679 268.931469,253.907383 C268.234241,255.211087 267.211087,256.234241 265.907383,256.931469 C264.603679,257.628698 263.310534,258 259.744459,258 L10.2555408,258 C6.68946584,258 5.39632089,257.628698 4.09261719,256.931469 C2.78891348,256.234241 1.76575919,255.211087 1.06853082,253.907383 C0.371302445,252.603679 1.60494146e-16,251.310534 -2.76224082e-16,247.744459 L2.76224082e-16,10.2555408 C-1.60494146e-16,6.68946584 0.371302445,5.39632089 1.06853082,4.09261719 C1.76575919,2.78891348 2.78891348,1.76575919 4.09261719,1.06853082 C5.39632089,0.371302445 6.68946584,2.4074122e-16 10.2555408,-4.14336123e-16 Z" id="Rectangle-Copy" fill="#FFFFFF" fill-rule="nonzero"></path>
                <g id="Polka-Pattern" transform="translate(76.000000, 61.000000)" fill="#FF8A80">
                    <g id="Pattern">
                        <circle id="Oval" cx="6.5" cy="137.5" r="1.5"></circle>
                        <circle id="Oval-Copy-2" cx="6.5" cy="129.5" r="1.5"></circle>
                        <circle id="Oval-Copy" cx="56.5" cy="137.5" r="1.5"></circle>
                        <circle id="Oval-Copy-3" cx="56.5" cy="129.5" r="1.5"></circle>
                        <circle id="Oval-Copy-388" cx="1.5" cy="141.5" r="1.5"></circle>
                        <circle id="Oval-Copy-406" cx="1.5" cy="133.5" r="1.5"></circle>
                        <circle id="Oval-Copy-393" cx="51.5" cy="141.5" r="1.5"></circle>
                        <circle id="Oval-Copy-407" cx="51.5" cy="133.5" r="1.5"></circle>
                        <circle id="Oval-Copy-384" cx="16.5" cy="137.5" r="1.5"></circle>
                        <circle id="Oval-Copy-408" cx="16.5" cy="129.5" r="1.5"></circle>
                        <circle id="Oval-Copy-394" cx="66.5" cy="137.5" r="1.5"></circle>
                        <circle id="Oval-Copy-409" cx="66.5" cy="129.5" r="1.5"></circle>
                        <circle id="Oval-Copy-389" cx="11.5" cy="141.5" r="1.5"></circle>
                        <circle id="Oval-Copy-410" cx="11.5" cy="133.5" r="1.5"></circle>
                        <circle id="Oval-Copy-395" cx="61.5" cy="141.5" r="1.5"></circle>
                        <circle id="Oval-Copy-411" cx="61.5" cy="133.5" r="1.5"></circle>
                        <circle id="Oval-Copy-385" cx="26.5" cy="137.5" r="1.5"></circle>
                        <circle id="Oval-Copy-412" cx="26.5" cy="129.5" r="1.5"></circle>
                        <circle id="Oval-Copy-396" cx="76.5" cy="137.5" r="1.5"></circle>
                        <circle id="Oval-Copy-413" cx="76.5" cy="129.5" r="1.5"></circle>
                        <circle id="Oval-Copy-390" cx="21.5" cy="141.5" r="1.5"></circle>
                        <circle id="Oval-Copy-414" cx="21.5" cy="133.5" r="1.5"></circle>
                        <circle id="Oval-Copy-397" cx="71.5" cy="141.5" r="1.5"></circle>
                        <circle id="Oval-Copy-415" cx="71.5" cy="133.5" r="1.5"></circle>
                        <circle id="Oval-Copy-386" cx="36.5" cy="137.5" r="1.5"></circle>
                        <circle id="Oval-Copy-416" cx="36.5" cy="129.5" r="1.5"></circle>
                        <circle id="Oval-Copy-398" cx="86.5" cy="137.5" r="1.5"></circle>
                        <circle id="Oval-Copy-417" cx="86.5" cy="129.5" r="1.5"></circle>
                        <circle id="Oval-Copy-402" cx="106.5" cy="137.5" r="1.5"></circle>
                        <circle id="Oval-Copy-418" cx="106.5" cy="129.5" r="1.5"></circle>
                        <circle id="Oval-Copy-391" cx="31.5" cy="141.5" r="1.5"></circle>
                        <circle id="Oval-Copy-419" cx="31.5" cy="133.5" r="1.5"></circle>
                        <circle id="Oval-Copy-399" cx="81.5" cy="141.5" r="1.5"></circle>
                        <circle id="Oval-Copy-420" cx="81.5" cy="133.5" r="1.5"></circle>
                        <circle id="Oval-Copy-403" cx="101.5" cy="141.5" r="1.5"></circle>
                        <circle id="Oval-Copy-421" cx="101.5" cy="133.5" r="1.5"></circle>
                        <circle id="Oval-Copy-387" cx="46.5" cy="137.5" r="1.5"></circle>
                        <circle id="Oval-Copy-422" cx="46.5" cy="129.5" r="1.5"></circle>
                        <circle id="Oval-Copy-400" cx="96.5" cy="137.5" r="1.5"></circle>
                        <circle id="Oval-Copy-423" cx="96.5" cy="129.5" r="1.5"></circle>
                        <circle id="Oval-Copy-404" cx="116.5" cy="137.5" r="1.5"></circle>
                        <circle id="Oval-Copy-424" cx="116.5" cy="129.5" r="1.5"></circle>
                        <circle id="Oval-Copy-392" cx="41.5" cy="141.5" r="1.5"></circle>
                        <circle id="Oval-Copy-425" cx="41.5" cy="133.5" r="1.5"></circle>
                        <circle id="Oval-Copy-401" cx="91.5" cy="141.5" r="1.5"></circle>
                        <circle id="Oval-Copy-426" cx="91.5" cy="133.5" r="1.5"></circle>
                        <circle id="Oval-Copy-405" cx="111.5" cy="141.5" r="1.5"></circle>
                        <circle id="Oval-Copy-427" cx="111.5" cy="133.5" r="1.5"></circle>
                        <circle id="Oval-Copy-5" cx="6.5" cy="121.5" r="1.5"></circle>
                        <circle id="Oval-Copy-4" cx="56.5" cy="121.5" r="1.5"></circle>
                        <circle id="Oval-Copy-449" cx="1.5" cy="125.5" r="1.5"></circle>
                        <circle id="Oval-Copy-448" cx="51.5" cy="125.5" r="1.5"></circle>
                        <circle id="Oval-Copy-447" cx="16.5" cy="121.5" r="1.5"></circle>
                        <circle id="Oval-Copy-446" cx="66.5" cy="121.5" r="1.5"></circle>
                        <circle id="Oval-Copy-445" cx="11.5" cy="125.5" r="1.5"></circle>
                        <circle id="Oval-Copy-444" cx="61.5" cy="125.5" r="1.5"></circle>
                        <circle id="Oval-Copy-443" cx="26.5" cy="121.5" r="1.5"></circle>
                        <circle id="Oval-Copy-442" cx="76.5" cy="121.5" r="1.5"></circle>
                        <circle id="Oval-Copy-441" cx="21.5" cy="125.5" r="1.5"></circle>
                        <circle id="Oval-Copy-440" cx="71.5" cy="125.5" r="1.5"></circle>
                        <circle id="Oval-Copy-439" cx="36.5" cy="121.5" r="1.5"></circle>
                        <circle id="Oval-Copy-438" cx="86.5" cy="121.5" r="1.5"></circle>
                        <circle id="Oval-Copy-437" cx="106.5" cy="121.5" r="1.5"></circle>
                        <circle id="Oval-Copy-436" cx="31.5" cy="125.5" r="1.5"></circle>
                        <circle id="Oval-Copy-435" cx="81.5" cy="125.5" r="1.5"></circle>
                        <circle id="Oval-Copy-434" cx="101.5" cy="125.5" r="1.5"></circle>
                        <circle id="Oval-Copy-433" cx="46.5" cy="121.5" r="1.5"></circle>
                        <circle id="Oval-Copy-432" cx="96.5" cy="121.5" r="1.5"></circle>
                        <circle id="Oval-Copy-431" cx="116.5" cy="121.5" r="1.5"></circle>
                        <circle id="Oval-Copy-430" cx="41.5" cy="125.5" r="1.5"></circle>
                        <circle id="Oval-Copy-429" cx="91.5" cy="125.5" r="1.5"></circle>
                        <circle id="Oval-Copy-428" cx="111.5" cy="125.5" r="1.5"></circle>
                        <circle id="Oval-Copy-7" cx="6.5" cy="113.5" r="1.5"></circle>
                        <circle id="Oval-Copy-6" cx="56.5" cy="113.5" r="1.5"></circle>
                        <circle id="Oval-Copy-471" cx="1.5" cy="117.5" r="1.5"></circle>
                        <circle id="Oval-Copy-470" cx="51.5" cy="117.5" r="1.5"></circle>
                        <circle id="Oval-Copy-469" cx="16.5" cy="113.5" r="1.5"></circle>
                        <circle id="Oval-Copy-468" cx="66.5" cy="113.5" r="1.5"></circle>
                        <circle id="Oval-Copy-467" cx="11.5" cy="117.5" r="1.5"></circle>
                        <circle id="Oval-Copy-466" cx="61.5" cy="117.5" r="1.5"></circle>
                        <circle id="Oval-Copy-465" cx="26.5" cy="113.5" r="1.5"></circle>
                        <circle id="Oval-Copy-464" cx="76.5" cy="113.5" r="1.5"></circle>
                        <circle id="Oval-Copy-463" cx="21.5" cy="117.5" r="1.5"></circle>
                        <circle id="Oval-Copy-462" cx="71.5" cy="117.5" r="1.5"></circle>
                        <circle id="Oval-Copy-461" cx="36.5" cy="113.5" r="1.5"></circle>
                        <circle id="Oval-Copy-460" cx="86.5" cy="113.5" r="1.5"></circle>
                        <circle id="Oval-Copy-459" cx="106.5" cy="113.5" r="1.5"></circle>
                        <circle id="Oval-Copy-458" cx="31.5" cy="117.5" r="1.5"></circle>
                        <circle id="Oval-Copy-457" cx="81.5" cy="117.5" r="1.5"></circle>
                        <circle id="Oval-Copy-456" cx="101.5" cy="117.5" r="1.5"></circle>
                        <circle id="Oval-Copy-455" cx="46.5" cy="113.5" r="1.5"></circle>
                        <circle id="Oval-Copy-454" cx="96.5" cy="113.5" r="1.5"></circle>
                        <circle id="Oval-Copy-453" cx="116.5" cy="113.5" r="1.5"></circle>
                        <circle id="Oval-Copy-452" cx="41.5" cy="117.5" r="1.5"></circle>
                        <circle id="Oval-Copy-451" cx="91.5" cy="117.5" r="1.5"></circle>
                        <circle id="Oval-Copy-450" cx="111.5" cy="117.5" r="1.5"></circle>
                        <circle id="Oval-Copy-9" cx="6.5" cy="105.5" r="1.5"></circle>
                        <circle id="Oval-Copy-8" cx="56.5" cy="105.5" r="1.5"></circle>
                        <circle id="Oval-Copy-493" cx="1.5" cy="109.5" r="1.5"></circle>
                        <circle id="Oval-Copy-492" cx="51.5" cy="109.5" r="1.5"></circle>
                        <circle id="Oval-Copy-491" cx="16.5" cy="105.5" r="1.5"></circle>
                        <circle id="Oval-Copy-490" cx="66.5" cy="105.5" r="1.5"></circle>
                        <circle id="Oval-Copy-489" cx="11.5" cy="109.5" r="1.5"></circle>
                        <circle id="Oval-Copy-488" cx="61.5" cy="109.5" r="1.5"></circle>
                        <circle id="Oval-Copy-487" cx="26.5" cy="105.5" r="1.5"></circle>
                        <circle id="Oval-Copy-486" cx="76.5" cy="105.5" r="1.5"></circle>
                        <circle id="Oval-Copy-485" cx="21.5" cy="109.5" r="1.5"></circle>
                        <circle id="Oval-Copy-484" cx="71.5" cy="109.5" r="1.5"></circle>
                        <circle id="Oval-Copy-483" cx="36.5" cy="105.5" r="1.5"></circle>
                        <circle id="Oval-Copy-482" cx="86.5" cy="105.5" r="1.5"></circle>
                        <circle id="Oval-Copy-481" cx="106.5" cy="105.5" r="1.5"></circle>
                        <circle id="Oval-Copy-480" cx="31.5" cy="109.5" r="1.5"></circle>
                        <circle id="Oval-Copy-479" cx="81.5" cy="109.5" r="1.5"></circle>
                        <circle id="Oval-Copy-478" cx="101.5" cy="109.5" r="1.5"></circle>
                        <circle id="Oval-Copy-477" cx="46.5" cy="105.5" r="1.5"></circle>
                        <circle id="Oval-Copy-476" cx="96.5" cy="105.5" r="1.5"></circle>
                        <circle id="Oval-Copy-475" cx="116.5" cy="105.5" r="1.5"></circle>
                        <circle id="Oval-Copy-474" cx="41.5" cy="109.5" r="1.5"></circle>
                        <circle id="Oval-Copy-473" cx="91.5" cy="109.5" r="1.5"></circle>
                        <circle id="Oval-Copy-472" cx="111.5" cy="109.5" r="1.5"></circle>
                        <circle id="Oval-Copy-11" cx="6.5" cy="97.5" r="1.5"></circle>
                        <circle id="Oval-Copy-10" cx="56.5" cy="97.5" r="1.5"></circle>
                        <circle id="Oval-Copy-515" cx="1.5" cy="101.5" r="1.5"></circle>
                        <circle id="Oval-Copy-514" cx="51.5" cy="101.5" r="1.5"></circle>
                        <circle id="Oval-Copy-513" cx="16.5" cy="97.5" r="1.5"></circle>
                        <circle id="Oval-Copy-512" cx="66.5" cy="97.5" r="1.5"></circle>
                        <circle id="Oval-Copy-511" cx="11.5" cy="101.5" r="1.5"></circle>
                        <circle id="Oval-Copy-510" cx="61.5" cy="101.5" r="1.5"></circle>
                        <circle id="Oval-Copy-509" cx="26.5" cy="97.5" r="1.5"></circle>
                        <circle id="Oval-Copy-508" cx="76.5" cy="97.5" r="1.5"></circle>
                        <circle id="Oval-Copy-507" cx="21.5" cy="101.5" r="1.5"></circle>
                        <circle id="Oval-Copy-506" cx="71.5" cy="101.5" r="1.5"></circle>
                        <circle id="Oval-Copy-505" cx="36.5" cy="97.5" r="1.5"></circle>
                        <circle id="Oval-Copy-504" cx="86.5" cy="97.5" r="1.5"></circle>
                        <circle id="Oval-Copy-503" cx="106.5" cy="97.5" r="1.5"></circle>
                        <circle id="Oval-Copy-502" cx="31.5" cy="101.5" r="1.5"></circle>
                        <circle id="Oval-Copy-501" cx="81.5" cy="101.5" r="1.5"></circle>
                        <circle id="Oval-Copy-500" cx="101.5" cy="101.5" r="1.5"></circle>
                        <circle id="Oval-Copy-499" cx="46.5" cy="97.5" r="1.5"></circle>
                        <circle id="Oval-Copy-498" cx="96.5" cy="97.5" r="1.5"></circle>
                        <circle id="Oval-Copy-497" cx="116.5" cy="97.5" r="1.5"></circle>
                        <circle id="Oval-Copy-496" cx="41.5" cy="101.5" r="1.5"></circle>
                        <circle id="Oval-Copy-495" cx="91.5" cy="101.5" r="1.5"></circle>
                        <circle id="Oval-Copy-494" cx="111.5" cy="101.5" r="1.5"></circle>
                        <circle id="Oval-Copy-13" cx="6.5" cy="89.5" r="1.5"></circle>
                        <circle id="Oval-Copy-12" cx="56.5" cy="89.5" r="1.5"></circle>
                        <circle id="Oval-Copy-537" cx="1.5" cy="93.5" r="1.5"></circle>
                        <circle id="Oval-Copy-536" cx="51.5" cy="93.5" r="1.5"></circle>
                        <circle id="Oval-Copy-535" cx="16.5" cy="89.5" r="1.5"></circle>
                        <circle id="Oval-Copy-534" cx="66.5" cy="89.5" r="1.5"></circle>
                        <circle id="Oval-Copy-533" cx="11.5" cy="93.5" r="1.5"></circle>
                        <circle id="Oval-Copy-532" cx="61.5" cy="93.5" r="1.5"></circle>
                        <circle id="Oval-Copy-531" cx="26.5" cy="89.5" r="1.5"></circle>
                        <circle id="Oval-Copy-530" cx="76.5" cy="89.5" r="1.5"></circle>
                        <circle id="Oval-Copy-529" cx="21.5" cy="93.5" r="1.5"></circle>
                        <circle id="Oval-Copy-528" cx="71.5" cy="93.5" r="1.5"></circle>
                        <circle id="Oval-Copy-527" cx="36.5" cy="89.5" r="1.5"></circle>
                        <circle id="Oval-Copy-526" cx="86.5" cy="89.5" r="1.5"></circle>
                        <circle id="Oval-Copy-525" cx="106.5" cy="89.5" r="1.5"></circle>
                        <circle id="Oval-Copy-524" cx="31.5" cy="93.5" r="1.5"></circle>
                        <circle id="Oval-Copy-523" cx="81.5" cy="93.5" r="1.5"></circle>
                        <circle id="Oval-Copy-522" cx="101.5" cy="93.5" r="1.5"></circle>
                        <circle id="Oval-Copy-521" cx="46.5" cy="89.5" r="1.5"></circle>
                        <circle id="Oval-Copy-520" cx="96.5" cy="89.5" r="1.5"></circle>
                        <circle id="Oval-Copy-519" cx="116.5" cy="89.5" r="1.5"></circle>
                        <circle id="Oval-Copy-518" cx="41.5" cy="93.5" r="1.5"></circle>
                        <circle id="Oval-Copy-517" cx="91.5" cy="93.5" r="1.5"></circle>
                        <circle id="Oval-Copy-516" cx="111.5" cy="93.5" r="1.5"></circle>
                        <circle id="Oval-Copy-15" cx="6.5" cy="81.5" r="1.5"></circle>
                        <circle id="Oval-Copy-14" cx="56.5" cy="81.5" r="1.5"></circle>
                        <circle id="Oval-Copy-559" cx="1.5" cy="85.5" r="1.5"></circle>
                        <circle id="Oval-Copy-558" cx="51.5" cy="85.5" r="1.5"></circle>
                        <circle id="Oval-Copy-557" cx="16.5" cy="81.5" r="1.5"></circle>
                        <circle id="Oval-Copy-556" cx="66.5" cy="81.5" r="1.5"></circle>
                        <circle id="Oval-Copy-555" cx="11.5" cy="85.5" r="1.5"></circle>
                        <circle id="Oval-Copy-554" cx="61.5" cy="85.5" r="1.5"></circle>
                        <circle id="Oval-Copy-553" cx="26.5" cy="81.5" r="1.5"></circle>
                        <circle id="Oval-Copy-552" cx="76.5" cy="81.5" r="1.5"></circle>
                        <circle id="Oval-Copy-551" cx="21.5" cy="85.5" r="1.5"></circle>
                        <circle id="Oval-Copy-550" cx="71.5" cy="85.5" r="1.5"></circle>
                        <circle id="Oval-Copy-549" cx="36.5" cy="81.5" r="1.5"></circle>
                        <circle id="Oval-Copy-548" cx="86.5" cy="81.5" r="1.5"></circle>
                        <circle id="Oval-Copy-547" cx="106.5" cy="81.5" r="1.5"></circle>
                        <circle id="Oval-Copy-546" cx="31.5" cy="85.5" r="1.5"></circle>
                        <circle id="Oval-Copy-545" cx="81.5" cy="85.5" r="1.5"></circle>
                        <circle id="Oval-Copy-544" cx="101.5" cy="85.5" r="1.5"></circle>
                        <circle id="Oval-Copy-543" cx="46.5" cy="81.5" r="1.5"></circle>
                        <circle id="Oval-Copy-542" cx="96.5" cy="81.5" r="1.5"></circle>
                        <circle id="Oval-Copy-541" cx="116.5" cy="81.5" r="1.5"></circle>
                        <circle id="Oval-Copy-540" cx="41.5" cy="85.5" r="1.5"></circle>
                        <circle id="Oval-Copy-539" cx="91.5" cy="85.5" r="1.5"></circle>
                        <circle id="Oval-Copy-538" cx="111.5" cy="85.5" r="1.5"></circle>
                        <circle id="Oval-Copy-17" cx="6.5" cy="73.5" r="1.5"></circle>
                        <circle id="Oval-Copy-16" cx="56.5" cy="73.5" r="1.5"></circle>
                        <circle id="Oval-Copy-581" cx="1.5" cy="77.5" r="1.5"></circle>
                        <circle id="Oval-Copy-580" cx="51.5" cy="77.5" r="1.5"></circle>
                        <circle id="Oval-Copy-579" cx="16.5" cy="73.5" r="1.5"></circle>
                        <circle id="Oval-Copy-578" cx="66.5" cy="73.5" r="1.5"></circle>
                        <circle id="Oval-Copy-577" cx="11.5" cy="77.5" r="1.5"></circle>
                        <circle id="Oval-Copy-576" cx="61.5" cy="77.5" r="1.5"></circle>
                        <circle id="Oval-Copy-575" cx="26.5" cy="73.5" r="1.5"></circle>
                        <circle id="Oval-Copy-574" cx="76.5" cy="73.5" r="1.5"></circle>
                        <circle id="Oval-Copy-573" cx="21.5" cy="77.5" r="1.5"></circle>
                        <circle id="Oval-Copy-572" cx="71.5" cy="77.5" r="1.5"></circle>
                        <circle id="Oval-Copy-571" cx="36.5" cy="73.5" r="1.5"></circle>
                        <circle id="Oval-Copy-570" cx="86.5" cy="73.5" r="1.5"></circle>
                        <circle id="Oval-Copy-569" cx="106.5" cy="73.5" r="1.5"></circle>
                        <circle id="Oval-Copy-568" cx="31.5" cy="77.5" r="1.5"></circle>
                        <circle id="Oval-Copy-567" cx="81.5" cy="77.5" r="1.5"></circle>
                        <circle id="Oval-Copy-566" cx="101.5" cy="77.5" r="1.5"></circle>
                        <circle id="Oval-Copy-565" cx="46.5" cy="73.5" r="1.5"></circle>
                        <circle id="Oval-Copy-564" cx="96.5" cy="73.5" r="1.5"></circle>
                        <circle id="Oval-Copy-563" cx="116.5" cy="73.5" r="1.5"></circle>
                        <circle id="Oval-Copy-562" cx="41.5" cy="77.5" r="1.5"></circle>
                        <circle id="Oval-Copy-561" cx="91.5" cy="77.5" r="1.5"></circle>
                        <circle id="Oval-Copy-560" cx="111.5" cy="77.5" r="1.5"></circle>
                        <circle id="Oval-Copy-19" cx="6.5" cy="65.5" r="1.5"></circle>
                        <circle id="Oval-Copy-18" cx="56.5" cy="65.5" r="1.5"></circle>
                        <circle id="Oval-Copy-603" cx="1.5" cy="69.5" r="1.5"></circle>
                        <circle id="Oval-Copy-602" cx="51.5" cy="69.5" r="1.5"></circle>
                        <circle id="Oval-Copy-601" cx="16.5" cy="65.5" r="1.5"></circle>
                        <circle id="Oval-Copy-600" cx="66.5" cy="65.5" r="1.5"></circle>
                        <circle id="Oval-Copy-599" cx="11.5" cy="69.5" r="1.5"></circle>
                        <circle id="Oval-Copy-598" cx="61.5" cy="69.5" r="1.5"></circle>
                        <circle id="Oval-Copy-597" cx="26.5" cy="65.5" r="1.5"></circle>
                        <circle id="Oval-Copy-596" cx="76.5" cy="65.5" r="1.5"></circle>
                        <circle id="Oval-Copy-595" cx="21.5" cy="69.5" r="1.5"></circle>
                        <circle id="Oval-Copy-594" cx="71.5" cy="69.5" r="1.5"></circle>
                        <circle id="Oval-Copy-593" cx="36.5" cy="65.5" r="1.5"></circle>
                        <circle id="Oval-Copy-592" cx="86.5" cy="65.5" r="1.5"></circle>
                        <circle id="Oval-Copy-591" cx="106.5" cy="65.5" r="1.5"></circle>
                        <circle id="Oval-Copy-590" cx="31.5" cy="69.5" r="1.5"></circle>
                        <circle id="Oval-Copy-589" cx="81.5" cy="69.5" r="1.5"></circle>
                        <circle id="Oval-Copy-588" cx="101.5" cy="69.5" r="1.5"></circle>
                        <circle id="Oval-Copy-587" cx="46.5" cy="65.5" r="1.5"></circle>
                        <circle id="Oval-Copy-586" cx="96.5" cy="65.5" r="1.5"></circle>
                        <circle id="Oval-Copy-585" cx="116.5" cy="65.5" r="1.5"></circle>
                        <circle id="Oval-Copy-584" cx="41.5" cy="69.5" r="1.5"></circle>
                        <circle id="Oval-Copy-583" cx="91.5" cy="69.5" r="1.5"></circle>
                        <circle id="Oval-Copy-582" cx="111.5" cy="69.5" r="1.5"></circle>
                        <circle id="Oval-Copy-21" cx="6.5" cy="57.5" r="1.5"></circle>
                        <circle id="Oval-Copy-20" cx="56.5" cy="57.5" r="1.5"></circle>
                        <circle id="Oval-Copy-625" cx="1.5" cy="61.5" r="1.5"></circle>
                        <circle id="Oval-Copy-624" cx="51.5" cy="61.5" r="1.5"></circle>
                        <circle id="Oval-Copy-623" cx="16.5" cy="57.5" r="1.5"></circle>
                        <circle id="Oval-Copy-622" cx="66.5" cy="57.5" r="1.5"></circle>
                        <circle id="Oval-Copy-621" cx="11.5" cy="61.5" r="1.5"></circle>
                        <circle id="Oval-Copy-620" cx="61.5" cy="61.5" r="1.5"></circle>
                        <circle id="Oval-Copy-619" cx="26.5" cy="57.5" r="1.5"></circle>
                        <circle id="Oval-Copy-618" cx="76.5" cy="57.5" r="1.5"></circle>
                        <circle id="Oval-Copy-617" cx="21.5" cy="61.5" r="1.5"></circle>
                        <circle id="Oval-Copy-616" cx="71.5" cy="61.5" r="1.5"></circle>
                        <circle id="Oval-Copy-615" cx="36.5" cy="57.5" r="1.5"></circle>
                        <circle id="Oval-Copy-614" cx="86.5" cy="57.5" r="1.5"></circle>
                        <circle id="Oval-Copy-613" cx="106.5" cy="57.5" r="1.5"></circle>
                        <circle id="Oval-Copy-612" cx="31.5" cy="61.5" r="1.5"></circle>
                        <circle id="Oval-Copy-611" cx="81.5" cy="61.5" r="1.5"></circle>
                        <circle id="Oval-Copy-610" cx="101.5" cy="61.5" r="1.5"></circle>
                        <circle id="Oval-Copy-609" cx="46.5" cy="57.5" r="1.5"></circle>
                        <circle id="Oval-Copy-608" cx="96.5" cy="57.5" r="1.5"></circle>
                        <circle id="Oval-Copy-607" cx="116.5" cy="57.5" r="1.5"></circle>
                        <circle id="Oval-Copy-606" cx="41.5" cy="61.5" r="1.5"></circle>
                        <circle id="Oval-Copy-605" cx="91.5" cy="61.5" r="1.5"></circle>
                        <circle id="Oval-Copy-604" cx="111.5" cy="61.5" r="1.5"></circle>
                        <circle id="Oval-Copy-23" cx="6.5" cy="49.5" r="1.5"></circle>
                        <circle id="Oval-Copy-22" cx="56.5" cy="49.5" r="1.5"></circle>
                        <circle id="Oval-Copy-647" cx="1.5" cy="53.5" r="1.5"></circle>
                        <circle id="Oval-Copy-646" cx="51.5" cy="53.5" r="1.5"></circle>
                        <circle id="Oval-Copy-645" cx="16.5" cy="49.5" r="1.5"></circle>
                        <circle id="Oval-Copy-644" cx="66.5" cy="49.5" r="1.5"></circle>
                        <circle id="Oval-Copy-643" cx="11.5" cy="53.5" r="1.5"></circle>
                        <circle id="Oval-Copy-642" cx="61.5" cy="53.5" r="1.5"></circle>
                        <circle id="Oval-Copy-641" cx="26.5" cy="49.5" r="1.5"></circle>
                        <circle id="Oval-Copy-640" cx="76.5" cy="49.5" r="1.5"></circle>
                        <circle id="Oval-Copy-639" cx="21.5" cy="53.5" r="1.5"></circle>
                        <circle id="Oval-Copy-638" cx="71.5" cy="53.5" r="1.5"></circle>
                        <circle id="Oval-Copy-637" cx="36.5" cy="49.5" r="1.5"></circle>
                        <circle id="Oval-Copy-636" cx="86.5" cy="49.5" r="1.5"></circle>
                        <circle id="Oval-Copy-635" cx="106.5" cy="49.5" r="1.5"></circle>
                        <circle id="Oval-Copy-634" cx="31.5" cy="53.5" r="1.5"></circle>
                        <circle id="Oval-Copy-633" cx="81.5" cy="53.5" r="1.5"></circle>
                        <circle id="Oval-Copy-632" cx="101.5" cy="53.5" r="1.5"></circle>
                        <circle id="Oval-Copy-631" cx="46.5" cy="49.5" r="1.5"></circle>
                        <circle id="Oval-Copy-630" cx="96.5" cy="49.5" r="1.5"></circle>
                        <circle id="Oval-Copy-629" cx="116.5" cy="49.5" r="1.5"></circle>
                        <circle id="Oval-Copy-628" cx="41.5" cy="53.5" r="1.5"></circle>
                        <circle id="Oval-Copy-627" cx="91.5" cy="53.5" r="1.5"></circle>
                        <circle id="Oval-Copy-626" cx="111.5" cy="53.5" r="1.5"></circle>
                        <circle id="Oval-Copy-25" cx="6.5" cy="41.5" r="1.5"></circle>
                        <circle id="Oval-Copy-24" cx="56.5" cy="41.5" r="1.5"></circle>
                        <circle id="Oval-Copy-669" cx="1.5" cy="45.5" r="1.5"></circle>
                        <circle id="Oval-Copy-668" cx="51.5" cy="45.5" r="1.5"></circle>
                        <circle id="Oval-Copy-667" cx="16.5" cy="41.5" r="1.5"></circle>
                        <circle id="Oval-Copy-666" cx="66.5" cy="41.5" r="1.5"></circle>
                        <circle id="Oval-Copy-665" cx="11.5" cy="45.5" r="1.5"></circle>
                        <circle id="Oval-Copy-664" cx="61.5" cy="45.5" r="1.5"></circle>
                        <circle id="Oval-Copy-663" cx="26.5" cy="41.5" r="1.5"></circle>
                        <circle id="Oval-Copy-662" cx="76.5" cy="41.5" r="1.5"></circle>
                        <circle id="Oval-Copy-661" cx="21.5" cy="45.5" r="1.5"></circle>
                        <circle id="Oval-Copy-660" cx="71.5" cy="45.5" r="1.5"></circle>
                        <circle id="Oval-Copy-659" cx="36.5" cy="41.5" r="1.5"></circle>
                        <circle id="Oval-Copy-658" cx="86.5" cy="41.5" r="1.5"></circle>
                        <circle id="Oval-Copy-657" cx="106.5" cy="41.5" r="1.5"></circle>
                        <circle id="Oval-Copy-656" cx="31.5" cy="45.5" r="1.5"></circle>
                        <circle id="Oval-Copy-655" cx="81.5" cy="45.5" r="1.5"></circle>
                        <circle id="Oval-Copy-654" cx="101.5" cy="45.5" r="1.5"></circle>
                        <circle id="Oval-Copy-653" cx="46.5" cy="41.5" r="1.5"></circle>
                        <circle id="Oval-Copy-652" cx="96.5" cy="41.5" r="1.5"></circle>
                        <circle id="Oval-Copy-651" cx="116.5" cy="41.5" r="1.5"></circle>
                        <circle id="Oval-Copy-650" cx="41.5" cy="45.5" r="1.5"></circle>
                        <circle id="Oval-Copy-649" cx="91.5" cy="45.5" r="1.5"></circle>
                        <circle id="Oval-Copy-648" cx="111.5" cy="45.5" r="1.5"></circle>
                        <circle id="Oval-Copy-27" cx="6.5" cy="33.5" r="1.5"></circle>
                        <circle id="Oval-Copy-26" cx="56.5" cy="33.5" r="1.5"></circle>
                        <circle id="Oval-Copy-691" cx="1.5" cy="37.5" r="1.5"></circle>
                        <circle id="Oval-Copy-690" cx="51.5" cy="37.5" r="1.5"></circle>
                        <circle id="Oval-Copy-689" cx="16.5" cy="33.5" r="1.5"></circle>
                        <circle id="Oval-Copy-688" cx="66.5" cy="33.5" r="1.5"></circle>
                        <circle id="Oval-Copy-687" cx="11.5" cy="37.5" r="1.5"></circle>
                        <circle id="Oval-Copy-686" cx="61.5" cy="37.5" r="1.5"></circle>
                        <circle id="Oval-Copy-685" cx="26.5" cy="33.5" r="1.5"></circle>
                        <circle id="Oval-Copy-684" cx="76.5" cy="33.5" r="1.5"></circle>
                        <circle id="Oval-Copy-683" cx="21.5" cy="37.5" r="1.5"></circle>
                        <circle id="Oval-Copy-682" cx="71.5" cy="37.5" r="1.5"></circle>
                        <circle id="Oval-Copy-681" cx="36.5" cy="33.5" r="1.5"></circle>
                        <circle id="Oval-Copy-680" cx="86.5" cy="33.5" r="1.5"></circle>
                        <circle id="Oval-Copy-679" cx="106.5" cy="33.5" r="1.5"></circle>
                        <circle id="Oval-Copy-678" cx="31.5" cy="37.5" r="1.5"></circle>
                        <circle id="Oval-Copy-677" cx="81.5" cy="37.5" r="1.5"></circle>
                        <circle id="Oval-Copy-676" cx="101.5" cy="37.5" r="1.5"></circle>
                        <circle id="Oval-Copy-675" cx="46.5" cy="33.5" r="1.5"></circle>
                        <circle id="Oval-Copy-674" cx="96.5" cy="33.5" r="1.5"></circle>
                        <circle id="Oval-Copy-673" cx="116.5" cy="33.5" r="1.5"></circle>
                        <circle id="Oval-Copy-672" cx="41.5" cy="37.5" r="1.5"></circle>
                        <circle id="Oval-Copy-671" cx="91.5" cy="37.5" r="1.5"></circle>
                        <circle id="Oval-Copy-670" cx="111.5" cy="37.5" r="1.5"></circle>
                        <circle id="Oval-Copy-29" cx="6.5" cy="25.5" r="1.5"></circle>
                        <circle id="Oval-Copy-28" cx="56.5" cy="25.5" r="1.5"></circle>
                        <circle id="Oval-Copy-713" cx="1.5" cy="29.5" r="1.5"></circle>
                        <circle id="Oval-Copy-712" cx="51.5" cy="29.5" r="1.5"></circle>
                        <circle id="Oval-Copy-711" cx="16.5" cy="25.5" r="1.5"></circle>
                        <circle id="Oval-Copy-710" cx="66.5" cy="25.5" r="1.5"></circle>
                        <circle id="Oval-Copy-709" cx="11.5" cy="29.5" r="1.5"></circle>
                        <circle id="Oval-Copy-708" cx="61.5" cy="29.5" r="1.5"></circle>
                        <circle id="Oval-Copy-707" cx="26.5" cy="25.5" r="1.5"></circle>
                        <circle id="Oval-Copy-706" cx="76.5" cy="25.5" r="1.5"></circle>
                        <circle id="Oval-Copy-705" cx="21.5" cy="29.5" r="1.5"></circle>
                        <circle id="Oval-Copy-704" cx="71.5" cy="29.5" r="1.5"></circle>
                        <circle id="Oval-Copy-703" cx="36.5" cy="25.5" r="1.5"></circle>
                        <circle id="Oval-Copy-702" cx="86.5" cy="25.5" r="1.5"></circle>
                        <circle id="Oval-Copy-701" cx="106.5" cy="25.5" r="1.5"></circle>
                        <circle id="Oval-Copy-700" cx="31.5" cy="29.5" r="1.5"></circle>
                        <circle id="Oval-Copy-699" cx="81.5" cy="29.5" r="1.5"></circle>
                        <circle id="Oval-Copy-698" cx="101.5" cy="29.5" r="1.5"></circle>
                        <circle id="Oval-Copy-697" cx="46.5" cy="25.5" r="1.5"></circle>
                        <circle id="Oval-Copy-696" cx="96.5" cy="25.5" r="1.5"></circle>
                        <circle id="Oval-Copy-695" cx="116.5" cy="25.5" r="1.5"></circle>
                        <circle id="Oval-Copy-694" cx="41.5" cy="29.5" r="1.5"></circle>
                        <circle id="Oval-Copy-693" cx="91.5" cy="29.5" r="1.5"></circle>
                        <circle id="Oval-Copy-692" cx="111.5" cy="29.5" r="1.5"></circle>
                        <circle id="Oval-Copy-31" cx="6.5" cy="17.5" r="1.5"></circle>
                        <circle id="Oval-Copy-30" cx="56.5" cy="17.5" r="1.5"></circle>
                        <circle id="Oval-Copy-735" cx="1.5" cy="21.5" r="1.5"></circle>
                        <circle id="Oval-Copy-734" cx="51.5" cy="21.5" r="1.5"></circle>
                        <circle id="Oval-Copy-733" cx="16.5" cy="17.5" r="1.5"></circle>
                        <circle id="Oval-Copy-732" cx="66.5" cy="17.5" r="1.5"></circle>
                        <circle id="Oval-Copy-731" cx="11.5" cy="21.5" r="1.5"></circle>
                        <circle id="Oval-Copy-730" cx="61.5" cy="21.5" r="1.5"></circle>
                        <circle id="Oval-Copy-729" cx="26.5" cy="17.5" r="1.5"></circle>
                        <circle id="Oval-Copy-728" cx="76.5" cy="17.5" r="1.5"></circle>
                        <circle id="Oval-Copy-727" cx="21.5" cy="21.5" r="1.5"></circle>
                        <circle id="Oval-Copy-726" cx="71.5" cy="21.5" r="1.5"></circle>
                        <circle id="Oval-Copy-725" cx="36.5" cy="17.5" r="1.5"></circle>
                        <circle id="Oval-Copy-724" cx="86.5" cy="17.5" r="1.5"></circle>
                        <circle id="Oval-Copy-723" cx="106.5" cy="17.5" r="1.5"></circle>
                        <circle id="Oval-Copy-722" cx="31.5" cy="21.5" r="1.5"></circle>
                        <circle id="Oval-Copy-721" cx="81.5" cy="21.5" r="1.5"></circle>
                        <circle id="Oval-Copy-720" cx="101.5" cy="21.5" r="1.5"></circle>
                        <circle id="Oval-Copy-719" cx="46.5" cy="17.5" r="1.5"></circle>
                        <circle id="Oval-Copy-718" cx="96.5" cy="17.5" r="1.5"></circle>
                        <circle id="Oval-Copy-717" cx="116.5" cy="17.5" r="1.5"></circle>
                        <circle id="Oval-Copy-716" cx="41.5" cy="21.5" r="1.5"></circle>
                        <circle id="Oval-Copy-715" cx="91.5" cy="21.5" r="1.5"></circle>
                        <circle id="Oval-Copy-714" cx="111.5" cy="21.5" r="1.5"></circle>
                        <circle id="Oval-Copy-33" cx="6.5" cy="9.5" r="1.5"></circle>
                        <circle id="Oval-Copy-32" cx="56.5" cy="9.5" r="1.5"></circle>
                        <circle id="Oval-Copy-757" cx="1.5" cy="13.5" r="1.5"></circle>
                        <circle id="Oval-Copy-756" cx="51.5" cy="13.5" r="1.5"></circle>
                        <circle id="Oval-Copy-755" cx="16.5" cy="9.5" r="1.5"></circle>
                        <circle id="Oval-Copy-754" cx="66.5" cy="9.5" r="1.5"></circle>
                        <circle id="Oval-Copy-753" cx="11.5" cy="13.5" r="1.5"></circle>
                        <circle id="Oval-Copy-752" cx="61.5" cy="13.5" r="1.5"></circle>
                        <circle id="Oval-Copy-751" cx="26.5" cy="9.5" r="1.5"></circle>
                        <circle id="Oval-Copy-750" cx="76.5" cy="9.5" r="1.5"></circle>
                        <circle id="Oval-Copy-749" cx="21.5" cy="13.5" r="1.5"></circle>
                        <circle id="Oval-Copy-748" cx="71.5" cy="13.5" r="1.5"></circle>
                        <circle id="Oval-Copy-747" cx="36.5" cy="9.5" r="1.5"></circle>
                        <circle id="Oval-Copy-746" cx="86.5" cy="9.5" r="1.5"></circle>
                        <circle id="Oval-Copy-745" cx="106.5" cy="9.5" r="1.5"></circle>
                        <circle id="Oval-Copy-744" cx="31.5" cy="13.5" r="1.5"></circle>
                        <circle id="Oval-Copy-743" cx="81.5" cy="13.5" r="1.5"></circle>
                        <circle id="Oval-Copy-742" cx="101.5" cy="13.5" r="1.5"></circle>
                        <circle id="Oval-Copy-741" cx="46.5" cy="9.5" r="1.5"></circle>
                        <circle id="Oval-Copy-740" cx="96.5" cy="9.5" r="1.5"></circle>
                        <circle id="Oval-Copy-739" cx="116.5" cy="9.5" r="1.5"></circle>
                        <circle id="Oval-Copy-738" cx="41.5" cy="13.5" r="1.5"></circle>
                        <circle id="Oval-Copy-737" cx="91.5" cy="13.5" r="1.5"></circle>
                        <circle id="Oval-Copy-736" cx="111.5" cy="13.5" r="1.5"></circle>
                        <circle id="Oval-Copy-35" cx="6.5" cy="1.5" r="1.5"></circle>
                        <circle id="Oval-Copy-34" cx="56.5" cy="1.5" r="1.5"></circle>
                        <circle id="Oval-Copy-779" cx="1.5" cy="5.5" r="1.5"></circle>
                        <circle id="Oval-Copy-778" cx="51.5" cy="5.5" r="1.5"></circle>
                        <circle id="Oval-Copy-777" cx="16.5" cy="1.5" r="1.5"></circle>
                        <circle id="Oval-Copy-776" cx="66.5" cy="1.5" r="1.5"></circle>
                        <circle id="Oval-Copy-775" cx="11.5" cy="5.5" r="1.5"></circle>
                        <circle id="Oval-Copy-774" cx="61.5" cy="5.5" r="1.5"></circle>
                        <circle id="Oval-Copy-773" cx="26.5" cy="1.5" r="1.5"></circle>
                        <circle id="Oval-Copy-772" cx="76.5" cy="1.5" r="1.5"></circle>
                        <circle id="Oval-Copy-771" cx="21.5" cy="5.5" r="1.5"></circle>
                        <circle id="Oval-Copy-770" cx="71.5" cy="5.5" r="1.5"></circle>
                        <circle id="Oval-Copy-769" cx="36.5" cy="1.5" r="1.5"></circle>
                        <circle id="Oval-Copy-768" cx="86.5" cy="1.5" r="1.5"></circle>
                        <circle id="Oval-Copy-767" cx="106.5" cy="1.5" r="1.5"></circle>
                        <circle id="Oval-Copy-766" cx="31.5" cy="5.5" r="1.5"></circle>
                        <circle id="Oval-Copy-765" cx="81.5" cy="5.5" r="1.5"></circle>
                        <circle id="Oval-Copy-764" cx="101.5" cy="5.5" r="1.5"></circle>
                        <circle id="Oval-Copy-763" cx="46.5" cy="1.5" r="1.5"></circle>
                        <circle id="Oval-Copy-762" cx="96.5" cy="1.5" r="1.5"></circle>
                        <circle id="Oval-Copy-761" cx="116.5" cy="1.5" r="1.5"></circle>
                        <circle id="Oval-Copy-760" cx="41.5" cy="5.5" r="1.5"></circle>
                        <circle id="Oval-Copy-759" cx="91.5" cy="5.5" r="1.5"></circle>
                        <circle id="Oval-Copy-758" cx="111.5" cy="5.5" r="1.5"></circle>
                    </g>
                </g>
                <g id="Vad-kan-jag-hjälpa-till-med" transform="translate(10.000000, 46.000000)">
                    <g id="BG">
                        <use fill="black" fill-opacity="1" filter="url(#filter-2)" xlink:href="#path-1"></use>
                        <use fill="#F9FAFC" fill-rule="evenodd" xlink:href="#path-1"></use>
                    </g>
                    <text id="11:16:13:14" font-family="Merriweather-Light, Merriweather" font-size="15.68" font-weight="300" line-spacing="21.952" fill="#0F007A">
                        <tspan x="11" y="68.6625">Hi! What can I help </tspan>
                        <tspan x="11" y="90.6145">with today?</tspan>
                    </text>
                    <g id="identity/hedvig_symbol/hedvig_symbol" transform="translate(11.000000, 0.000000)">
                        <g id="Group-2">
                            <polygon id="Fill-1" fill="#1BE9B6" points="18.5862857 33.99728 23.3755714 33.99728 23.3755714 22.11768 18.5862857 22.11768"></polygon>
                            <path d="M23.3750571,22.117816 L18.5857714,22.117816 C18.5857714,18.094936 15.4910571,14.820056 11.6879143,14.820056 C7.88348571,14.820056 4.78877143,18.094936 4.78877143,22.117816 L-0.000514285715,22.117816 C-0.000514285715,15.301496 5.24262857,9.755416 11.6879143,9.755416 C18.1319143,9.755416 23.3750571,15.301496 23.3750571,22.117816" id="Fill-2" fill="#651EFF"></path>
                            <polygon id="Fill-5" fill="#0F007A" points="0 34 4.78928571 34 4.78928571 0 0 0"></polygon>
                            <polygon id="Fill-7" fill="#FF8A80" points="0 33.99728 4.78928571 33.99728 4.78928571 22.11768 0 22.11768"></polygon>
                        </g>
                    </g>
                </g>
            </g>
        </g>
    </g>
</svg>