<?xml version="1.0" encoding="UTF-8"?>
<svg width="270px" height="258px" viewBox="0 0 270 258" version="1.1" xmlns="http://www.w3.org/2000/svg" xmlns:xlink="http://www.w3.org/1999/xlink">
    <!-- Generator: Sketch 53.1 (72631) - https://sketchapp.com -->
    <title>fast_answers</title>
    <desc>Created with Sketch.</desc>
    <defs>
        <rect id="path-1" x="0" y="45" width="169" height="63" rx="6.272"></rect>
        <filter x="-3.0%" y="-6.3%" width="105.9%" height="115.9%" filterUnits="objectBoundingBox" id="filter-2">
            <feOffset dx="0" dy="1" in="SourceAlpha" result="shadowOffsetOuter1"></feOffset>
            <feGaussianBlur stdDeviation="1.5" in="shadowOffsetOuter1" result="shadowBlurOuter1"></feGaussianBlur>
            <feColorMatrix values="0 0 0 0 0   0 0 0 0 0   0 0 0 0 0  0 0 0 0.1 0" type="matrix" in="shadowBlurOuter1"></feColorMatrix>
        </filter>
    </defs>
    <g id="Page-1" stroke="none" stroke-width="1" fill="none" fill-rule="evenodd">
        <g id="English-Translations-Flattened" transform="translate(-585.000000, -304.000000)">
            <g id="fast_answers" transform="translate(585.000000, 304.000000)">
                <path d="M10.2555408,-4.14336123e-16 L259.744459,4.14336123e-16 C263.310534,-2.4074122e-16 264.603679,0.371302445 265.907383,1.06853082 C267.211087,1.76575919 268.234241,2.78891348 268.931469,4.09261719 C269.628698,5.39632089 270,6.68946584 270,10.2555408 L270,247.744459 C270,251.310534 269.628698,252.603679 268.931469,253.907383 C268.234241,255.211087 267.211087,256.234241 265.907383,256.931469 C264.603679,257.628698 263.310534,258 259.744459,258 L10.2555408,258 C6.68946584,258 5.39632089,257.628698 4.09261719,256.931469 C2.78891348,256.234241 1.76575919,255.211087 1.06853082,253.907383 C0.371302445,252.603679 1.60494146e-16,251.310534 -2.76224082e-16,247.744459 L2.76224082e-16,10.2555408 C-1.60494146e-16,6.68946584 0.371302445,5.39632089 1.06853082,4.09261719 C1.76575919,2.78891348 2.78891348,1.76575919 4.09261719,1.06853082 C5.39632089,0.371302445 6.68946584,2.4074122e-16 10.2555408,-4.14336123e-16 Z" id="Rectangle-Copy" fill="#FFFFFF" fill-rule="nonzero"></path>
                <g id="Polka-Pattern" transform="translate(76.000000, 61.000000)" fill="#FF8A80">
                    <g id="Pattern">
                        <circle id="Oval" cx="6.5" cy="137.5" r="1.5"></circle>
                        <circle id="Oval-Copy-2" cx="6.5" cy="129.5" r="1.5"></circle>
                        <circle id="Oval-Copy" cx="56.5" cy="137.5" r="1.5"></circle>
                        <circle id="Oval-Copy-3" cx="56.5" cy="129.5" r="1.5"></circle>
                        <circle id="Oval-Copy-388" cx="1.5" cy="141.5" r="1.5"></circle>
                        <circle id="Oval-Copy-406" cx="1.5" cy="133.5" r="1.5"></circle>
                        <circle id="Oval-Copy-393" cx="51.5" cy="141.5" r="1.5"></circle>
                        <circle id="Oval-Copy-407" cx="51.5" cy="133.5" r="1.5"></circle>
                        <circle id="Oval-Copy-384" cx="16.5" cy="137.5" r="1.5"></circle>
                        <circle id="Oval-Copy-408" cx="16.5" cy="129.5" r="1.5"></circle>
                        <circle id="Oval-Copy-394" cx="66.5" cy="137.5" r="1.5"></circle>
                        <circle id="Oval-Copy-409" cx="66.5" cy="129.5" r="1.5"></circle>
                        <circle id="Oval-Copy-389" cx="11.5" cy="141.5" r="1.5"></circle>
                        <circle id="Oval-Copy-410" cx="11.5" cy="133.5" r="1.5"></circle>
                        <circle id="Oval-Copy-395" cx="61.5" cy="141.5" r="1.5"></circle>
                        <circle id="Oval-Copy-411" cx="61.5" cy="133.5" r="1.5"></circle>
                        <circle id="Oval-Copy-385" cx="26.5" cy="137.5" r="1.5"></circle>
                        <circle id="Oval-Copy-412" cx="26.5" cy="129.5" r="1.5"></circle>
                        <circle id="Oval-Copy-396" cx="76.5" cy="137.5" r="1.5"></circle>
                        <circle id="Oval-Copy-413" cx="76.5" cy="129.5" r="1.5"></circle>
                        <circle id="Oval-Copy-390" cx="21.5" cy="141.5" r="1.5"></circle>
                        <circle id="Oval-Copy-414" cx="21.5" cy="133.5" r="1.5"></circle>
                        <circle id="Oval-Copy-397" cx="71.5" cy="141.5" r="1.5"></circle>
                        <circle id="Oval-Copy-415" cx="71.5" cy="133.5" r="1.5"></circle>
                        <circle id="Oval-Copy-386" cx="36.5" cy="137.5" r="1.5"></circle>
                        <circle id="Oval-Copy-416" cx="36.5" cy="129.5" r="1.5"></circle>
                        <circle id="Oval-Copy-398" cx="86.5" cy="137.5" r="1.5"></circle>
                        <circle id="Oval-Copy-417" cx="86.5" cy="129.5" r="1.5"></circle>
                        <circle id="Oval-Copy-402" cx="106.5" cy="137.5" r="1.5"></circle>
                        <circle id="Oval-Copy-418" cx="106.5" cy="129.5" r="1.5"></circle>
                        <circle id="Oval-Copy-391" cx="31.5" cy="141.5" r="1.5"></circle>
                        <circle id="Oval-Copy-419" cx="31.5" cy="133.5" r="1.5"></circle>
                        <circle id="Oval-Copy-399" cx="81.5" cy="141.5" r="1.5"></circle>
                        <circle id="Oval-Copy-420" cx="81.5" cy="133.5" r="1.5"></circle>
                        <circle id="Oval-Copy-403" cx="101.5" cy="141.5" r="1.5"></circle>
                        <circle id="Oval-Copy-421" cx="101.5" cy="133.5" r="1.5"></circle>
                        <circle id="Oval-Copy-387" cx="46.5" cy="137.5" r="1.5"></circle>
                        <circle id="Oval-Copy-422" cx="46.5" cy="129.5" r="1.5"></circle>
                        <circle id="Oval-Copy-400" cx="96.5" cy="137.5" r="1.5"></circle>
                        <circle id="Oval-Copy-423" cx="96.5" cy="129.5" r="1.5"></circle>
                        <circle id="Oval-Copy-404" cx="116.5" cy="137.5" r="1.5"></circle>
                        <circle id="Oval-Copy-424" cx="116.5" cy="129.5" r="1.5"></circle>
                        <circle id="Oval-Copy-392" cx="41.5" cy="141.5" r="1.5"></circle>
                        <circle id="Oval-Copy-425" cx="41.5" cy="133.5" r="1.5"></circle>
                        <circle id="Oval-Copy-401" cx="91.5" cy="141.5" r="1.5"></circle>
                        <circle id="Oval-Copy-426" cx="91.5" cy="133.5" r="1.5"></circle>
                        <circle id="Oval-Copy-405" cx="111.5" cy="141.5" r="1.5"></circle>
                        <circle id="Oval-Copy-427" cx="111.5" cy="133.5" r="1.5"></circle>
                        <circle id="Oval-Copy-5" cx="6.5" cy="121.5" r="1.5"></circle>
                        <circle id="Oval-Copy-4" cx="56.5" cy="121.5" r="1.5"></circle>
                        <circle id="Oval-Copy-449" cx="1.5" cy="125.5" r="1.5"></circle>
                        <circle id="Oval-Copy-448" cx="51.5" cy="125.5" r="1.5"></circle>
                        <circle id="Oval-Copy-447" cx="16.5" cy="121.5" r="1.5"></circle>
                        <circle id="Oval-Copy-446" cx="66.5" cy="121.5" r="1.5"></circle>
                        <circle id="Oval-Copy-445" cx="11.5" cy="125.5" r="1.5"></circle>
                        <circle id="Oval-Copy-444" cx="61.5" cy="125.5" r="1.5"></circle>
                        <circle id="Oval-Copy-443" cx="26.5" cy="121.5" r="1.5"></circle>
                        <circle id="Oval-Copy-442" cx="76.5" cy="121.5" r="1.5"></circle>
                        <circle id="Oval-Copy-441" cx="21.5" cy="125.5" r="1.5"></circle>
                        <circle id="Oval-Copy-440" cx="71.5" cy="125.5" r="1.5"></circle>
                        <circle id="Oval-Copy-439" cx="36.5" cy="121.5" r="1.5"></circle>
                        <circle id="Oval-Copy-438" cx="86.5" cy="121.5" r="1.5"></circle>
                        <circle id="Oval-Copy-437" cx="106.5" cy="121.5" r="1.5"></circle>
                        <circle id="Oval-Copy-436" cx="31.5" cy="125.5" r="1.5"></circle>
                        <circle id="Oval-Copy-435" cx="81.5" cy="125.5" r="1.5"></circle>
                        <circle id="Oval-Copy-434" cx="101.5" cy="125.5" r="1.5"></circle>
                        <circle id="Oval-Copy-433" cx="46.5" cy="121.5" r="1.5"></circle>
                        <circle id="Oval-Copy-432" cx="96.5" cy="121.5" r="1.5"></circle>
                        <circle id="Oval-Copy-431" cx="116.5" cy="121.5" r="1.5"></circle>
                        <circle id="Oval-Copy-430" cx="41.5" cy="125.5" r="1.5"></circle>
                        <circle id="Oval-Copy-429" cx="91.5" cy="125.5" r="1.5"></circle>
                        <circle id="Oval-Copy-428" cx="111.5" cy="125.5" r="1.5"></circle>
                        <circle id="Oval-Copy-7" cx="6.5" cy="113.5" r="1.5"></circle>
                        <circle id="Oval-Copy-6" cx="56.5" cy="113.5" r="1.5"></circle>
                        <circle id="Oval-Copy-471" cx="1.5" cy="117.5" r="1.5"></circle>
                        <circle id="Oval-Copy-470" cx="51.5" cy="117.5" r="1.5"></circle>
                        <circle id="Oval-Copy-469" cx="16.5" cy="113.5" r="1.5"></circle>
                        <circle id="Oval-Copy-468" cx="66.5" cy="113.5" r="1.5"></circle>
                        <circle id="Oval-Copy-467" cx="11.5" cy="117.5" r="1.5"></circle>
                        <circle id="Oval-Copy-466" cx="61.5" cy="117.5" r="1.5"></circle>
                        <circle id="Oval-Copy-465" cx="26.5" cy="113.5" r="1.5"></circle>
                        <circle id="Oval-Copy-464" cx="76.5" cy="113.5" r="1.5"></circle>
                        <circle id="Oval-Copy-463" cx="21.5" cy="117.5" r="1.5"></circle>
                        <circle id="Oval-Copy-462" cx="71.5" cy="117.5" r="1.5"></circle>
                        <circle id="Oval-Copy-461" cx="36.5" cy="113.5" r="1.5"></circle>
                        <circle id="Oval-Copy-460" cx="86.5" cy="113.5" r="1.5"></circle>
                        <circle id="Oval-Copy-459" cx="106.5" cy="113.5" r="1.5"></circle>
                        <circle id="Oval-Copy-458" cx="31.5" cy="117.5" r="1.5"></circle>
                        <circle id="Oval-Copy-457" cx="81.5" cy="117.5" r="1.5"></circle>
                        <circle id="Oval-Copy-456" cx="101.5" cy="117.5" r="1.5"></circle>
                        <circle id="Oval-Copy-455" cx="46.5" cy="113.5" r="1.5"></circle>
                        <circle id="Oval-Copy-454" cx="96.5" cy="113.5" r="1.5"></circle>
                        <circle id="Oval-Copy-453" cx="116.5" cy="113.5" r="1.5"></circle>
                        <circle id="Oval-Copy-452" cx="41.5" cy="117.5" r="1.5"></circle>
                        <circle id="Oval-Copy-451" cx="91.5" cy="117.5" r="1.5"></circle>
                        <circle id="Oval-Copy-450" cx="111.5" cy="117.5" r="1.5"></circle>
                        <circle id="Oval-Copy-9" cx="6.5" cy="105.5" r="1.5"></circle>
                        <circle id="Oval-Copy-8" cx="56.5" cy="105.5" r="1.5"></circle>
                        <circle id="Oval-Copy-493" cx="1.5" cy="109.5" r="1.5"></circle>
                        <circle id="Oval-Copy-492" cx="51.5" cy="109.5" r="1.5"></circle>
                        <circle id="Oval-Copy-491" cx="16.5" cy="105.5" r="1.5"></circle>
                        <circle id="Oval-Copy-490" cx="66.5" cy="105.5" r="1.5"></circle>
                        <circle id="Oval-Copy-489" cx="11.5" cy="109.5" r="1.5"></circle>
                        <circle id="Oval-Copy-488" cx="61.5" cy="109.5" r="1.5"></circle>
                        <circle id="Oval-Copy-487" cx="26.5" cy="105.5" r="1.5"></circle>
                        <circle id="Oval-Copy-486" cx="76.5" cy="105.5" r="1.5"></circle>
                        <circle id="Oval-Copy-485" cx="21.5" cy="109.5" r="1.5"></circle>
                        <circle id="Oval-Copy-484" cx="71.5" cy="109.5" r="1.5"></circle>
                        <circle id="Oval-Copy-483" cx="36.5" cy="105.5" r="1.5"></circle>
                        <circle id="Oval-Copy-482" cx="86.5" cy="105.5" r="1.5"></circle>
                        <circle id="Oval-Copy-481" cx="106.5" cy="105.5" r="1.5"></circle>
                        <circle id="Oval-Copy-480" cx="31.5" cy="109.5" r="1.5"></circle>
                        <circle id="Oval-Copy-479" cx="81.5" cy="109.5" r="1.5"></circle>
                        <circle id="Oval-Copy-478" cx="101.5" cy="109.5" r="1.5"></circle>
                        <circle id="Oval-Copy-477" cx="46.5" cy="105.5" r="1.5"></circle>
                        <circle id="Oval-Copy-476" cx="96.5" cy="105.5" r="1.5"></circle>
                        <circle id="Oval-Copy-475" cx="116.5" cy="105.5" r="1.5"></circle>
                        <circle id="Oval-Copy-474" cx="41.5" cy="109.5" r="1.5"></circle>
                        <circle id="Oval-Copy-473" cx="91.5" cy="109.5" r="1.5"></circle>
                        <circle id="Oval-Copy-472" cx="111.5" cy="109.5" r="1.5"></circle>
                        <circle id="Oval-Copy-11" cx="6.5" cy="97.5" r="1.5"></circle>
                        <circle id="Oval-Copy-10" cx="56.5" cy="97.5" r="1.5"></circle>
                        <circle id="Oval-Copy-515" cx="1.5" cy="101.5" r="1.5"></circle>
                        <circle id="Oval-Copy-514" cx="51.5" cy="101.5" r="1.5"></circle>
                        <circle id="Oval-Copy-513" cx="16.5" cy="97.5" r="1.5"></circle>
                        <circle id="Oval-Copy-512" cx="66.5" cy="97.5" r="1.5"></circle>
                        <circle id="Oval-Copy-511" cx="11.5" cy="101.5" r="1.5"></circle>
                        <circle id="Oval-Copy-510" cx="61.5" cy="101.5" r="1.5"></circle>
                        <circle id="Oval-Copy-509" cx="26.5" cy="97.5" r="1.5"></circle>
                        <circle id="Oval-Copy-508" cx="76.5" cy="97.5" r="1.5"></circle>
                        <circle id="Oval-Copy-507" cx="21.5" cy="101.5" r="1.5"></circle>
                        <circle id="Oval-Copy-506" cx="71.5" cy="101.5" r="1.5"></circle>
                        <circle id="Oval-Copy-505" cx="36.5" cy="97.5" r="1.5"></circle>
                        <circle id="Oval-Copy-504" cx="86.5" cy="97.5" r="1.5"></circle>
                        <circle id="Oval-Copy-503" cx="106.5" cy="97.5" r="1.5"></circle>
                        <circle id="Oval-Copy-502" cx="31.5" cy="101.5" r="1.5"></circle>
                        <circle id="Oval-Copy-501" cx="81.5" cy="101.5" r="1.5"></circle>
                        <circle id="Oval-Copy-500" cx="101.5" cy="101.5" r="1.5"></circle>
                        <circle id="Oval-Copy-499" cx="46.5" cy="97.5" r="1.5"></circle>
                        <circle id="Oval-Copy-498" cx="96.5" cy="97.5" r="1.5"></circle>
                        <circle id="Oval-Copy-497" cx="116.5" cy="97.5" r="1.5"></circle>
                        <circle id="Oval-Copy-496" cx="41.5" cy="101.5" r="1.5"></circle>
                        <circle id="Oval-Copy-495" cx="91.5" cy="101.5" r="1.5"></circle>
                        <circle id="Oval-Copy-494" cx="111.5" cy="101.5" r="1.5"></circle>
                        <circle id="Oval-Copy-13" cx="6.5" cy="89.5" r="1.5"></circle>
                        <circle id="Oval-Copy-12" cx="56.5" cy="89.5" r="1.5"></circle>
                        <circle id="Oval-Copy-537" cx="1.5" cy="93.5" r="1.5"></circle>
                        <circle id="Oval-Copy-536" cx="51.5" cy="93.5" r="1.5"></circle>
                        <circle id="Oval-Copy-535" cx="16.5" cy="89.5" r="1.5"></circle>
                        <circle id="Oval-Copy-534" cx="66.5" cy="89.5" r="1.5"></circle>
                        <circle id="Oval-Copy-533" cx="11.5" cy="93.5" r="1.5"></circle>
                        <circle id="Oval-Copy-532" cx="61.5" cy="93.5" r="1.5"></circle>
                        <circle id="Oval-Copy-531" cx="26.5" cy="89.5" r="1.5"></circle>
                        <circle id="Oval-Copy-530" cx="76.5" cy="89.5" r="1.5"></circle>
                        <circle id="Oval-Copy-529" cx="21.5" cy="93.5" r="1.5"></circle>
                        <circle id="Oval-Copy-528" cx="71.5" cy="93.5" r="1.5"></circle>
                        <circle id="Oval-Copy-527" cx="36.5" cy="89.5" r="1.5"></circle>
                        <circle id="Oval-Copy-526" cx="86.5" cy="89.5" r="1.5"></circle>
                        <circle id="Oval-Copy-525" cx="106.5" cy="89.5" r="1.5"></circle>
                        <circle id="Oval-Copy-524" cx="31.5" cy="93.5" r="1.5"></circle>
                        <circle id="Oval-Copy-523" cx="81.5" cy="93.5" r="1.5"></circle>
                        <circle id="Oval-Copy-522" cx="101.5" cy="93.5" r="1.5"></circle>
                        <circle id="Oval-Copy-521" cx="46.5" cy="89.5" r="1.5"></circle>
                        <circle id="Oval-Copy-520" cx="96.5" cy="89.5" r="1.5"></circle>
                        <circle id="Oval-Copy-519" cx="116.5" cy="89.5" r="1.5"></circle>
                        <circle id="Oval-Copy-518" cx="41.5" cy="93.5" r="1.5"></circle>
                        <circle id="Oval-Copy-517" cx="91.5" cy="93.5" r="1.5"></circle>
                        <circle id="Oval-Copy-516" cx="111.5" cy="93.5" r="1.5"></circle>
                        <circle id="Oval-Copy-15" cx="6.5" cy="81.5" r="1.5"></circle>
                        <circle id="Oval-Copy-14" cx="56.5" cy="81.5" r="1.5"></circle>
                        <circle id="Oval-Copy-559" cx="1.5" cy="85.5" r="1.5"></circle>
                        <circle id="Oval-Copy-558" cx="51.5" cy="85.5" r="1.5"></circle>
                        <circle id="Oval-Copy-557" cx="16.5" cy="81.5" r="1.5"></circle>
                        <circle id="Oval-Copy-556" cx="66.5" cy="81.5" r="1.5"></circle>
                        <circle id="Oval-Copy-555" cx="11.5" cy="85.5" r="1.5"></circle>
                        <circle id="Oval-Copy-554" cx="61.5" cy="85.5" r="1.5"></circle>
                        <circle id="Oval-Copy-553" cx="26.5" cy="81.5" r="1.5"></circle>
                        <circle id="Oval-Copy-552" cx="76.5" cy="81.5" r="1.5"></circle>
                        <circle id="Oval-Copy-551" cx="21.5" cy="85.5" r="1.5"></circle>
                        <circle id="Oval-Copy-550" cx="71.5" cy="85.5" r="1.5"></circle>
                        <circle id="Oval-Copy-549" cx="36.5" cy="81.5" r="1.5"></circle>
                        <circle id="Oval-Copy-548" cx="86.5" cy="81.5" r="1.5"></circle>
                        <circle id="Oval-Copy-547" cx="106.5" cy="81.5" r="1.5"></circle>
                        <circle id="Oval-Copy-546" cx="31.5" cy="85.5" r="1.5"></circle>
                        <circle id="Oval-Copy-545" cx="81.5" cy="85.5" r="1.5"></circle>
                        <circle id="Oval-Copy-544" cx="101.5" cy="85.5" r="1.5"></circle>
                        <circle id="Oval-Copy-543" cx="46.5" cy="81.5" r="1.5"></circle>
                        <circle id="Oval-Copy-542" cx="96.5" cy="81.5" r="1.5"></circle>
                        <circle id="Oval-Copy-541" cx="116.5" cy="81.5" r="1.5"></circle>
                        <circle id="Oval-Copy-540" cx="41.5" cy="85.5" r="1.5"></circle>
                        <circle id="Oval-Copy-539" cx="91.5" cy="85.5" r="1.5"></circle>
                        <circle id="Oval-Copy-538" cx="111.5" cy="85.5" r="1.5"></circle>
                        <circle id="Oval-Copy-17" cx="6.5" cy="73.5" r="1.5"></circle>
                        <circle id="Oval-Copy-16" cx="56.5" cy="73.5" r="1.5"></circle>
                        <circle id="Oval-Copy-581" cx="1.5" cy="77.5" r="1.5"></circle>
                        <circle id="Oval-Copy-580" cx="51.5" cy="77.5" r="1.5"></circle>
                        <circle id="Oval-Copy-579" cx="16.5" cy="73.5" r="1.5"></circle>
                        <circle id="Oval-Copy-578" cx="66.5" cy="73.5" r="1.5"></circle>
                        <circle id="Oval-Copy-577" cx="11.5" cy="77.5" r="1.5"></circle>
                        <circle id="Oval-Copy-576" cx="61.5" cy="77.5" r="1.5"></circle>
                        <circle id="Oval-Copy-575" cx="26.5" cy="73.5" r="1.5"></circle>
                        <circle id="Oval-Copy-574" cx="76.5" cy="73.5" r="1.5"></circle>
                        <circle id="Oval-Copy-573" cx="21.5" cy="77.5" r="1.5"></circle>
                        <circle id="Oval-Copy-572" cx="71.5" cy="77.5" r="1.5"></circle>
                        <circle id="Oval-Copy-571" cx="36.5" cy="73.5" r="1.5"></circle>
                        <circle id="Oval-Copy-570" cx="86.5" cy="73.5" r="1.5"></circle>
                        <circle id="Oval-Copy-569" cx="106.5" cy="73.5" r="1.5"></circle>
                        <circle id="Oval-Copy-568" cx="31.5" cy="77.5" r="1.5"></circle>
                        <circle id="Oval-Copy-567" cx="81.5" cy="77.5" r="1.5"></circle>
                        <circle id="Oval-Copy-566" cx="101.5" cy="77.5" r="1.5"></circle>
                        <circle id="Oval-Copy-565" cx="46.5" cy="73.5" r="1.5"></circle>
                        <circle id="Oval-Copy-564" cx="96.5" cy="73.5" r="1.5"></circle>
                        <circle id="Oval-Copy-563" cx="116.5" cy="73.5" r="1.5"></circle>
                        <circle id="Oval-Copy-562" cx="41.5" cy="77.5" r="1.5"></circle>
                        <circle id="Oval-Copy-561" cx="91.5" cy="77.5" r="1.5"></circle>
                        <circle id="Oval-Copy-560" cx="111.5" cy="77.5" r="1.5"></circle>
                        <circle id="Oval-Copy-19" cx="6.5" cy="65.5" r="1.5"></circle>
                        <circle id="Oval-Copy-18" cx="56.5" cy="65.5" r="1.5"></circle>
                        <circle id="Oval-Copy-603" cx="1.5" cy="69.5" r="1.5"></circle>
                        <circle id="Oval-Copy-602" cx="51.5" cy="69.5" r="1.5"></circle>
                        <circle id="Oval-Copy-601" cx="16.5" cy="65.5" r="1.5"></circle>
                        <circle id="Oval-Copy-600" cx="66.5" cy="65.5" r="1.5"></circle>
                        <circle id="Oval-Copy-599" cx="11.5" cy="69.5" r="1.5"></circle>
                        <circle id="Oval-Copy-598" cx="61.5" cy="69.5" r="1.5"></circle>
                        <circle id="Oval-Copy-597" cx="26.5" cy="65.5" r="1.5"></circle>
                        <circle id="Oval-Copy-596" cx="76.5" cy="65.5" r="1.5"></circle>
                        <circle id="Oval-Copy-595" cx="21.5" cy="69.5" r="1.5"></circle>
                        <circle id="Oval-Copy-594" cx="71.5" cy="69.5" r="1.5"></circle>
                        <circle id="Oval-Copy-593" cx="36.5" cy="65.5" r="1.5"></circle>
                        <circle id="Oval-Copy-592" cx="86.5" cy="65.5" r="1.5"></circle>
                        <circle id="Oval-Copy-591" cx="106.5" cy="65.5" r="1.5"></circle>
                        <circle id="Oval-Copy-590" cx="31.5" cy="69.5" r="1.5"></circle>
                        <circle id="Oval-Copy-589" cx="81.5" cy="69.5" r="1.5"></circle>
                        <circle id="Oval-Copy-588" cx="101.5" cy="69.5" r="1.5"></circle>
                        <circle id="Oval-Copy-587" cx="46.5" cy="65.5" r="1.5"></circle>
                        <circle id="Oval-Copy-586" cx="96.5" cy="65.5" r="1.5"></circle>
                        <circle id="Oval-Copy-585" cx="116.5" cy="65.5" r="1.5"></circle>
                        <circle id="Oval-Copy-584" cx="41.5" cy="69.5" r="1.5"></circle>
                        <circle id="Oval-Copy-583" cx="91.5" cy="69.5" r="1.5"></circle>
                        <circle id="Oval-Copy-582" cx="111.5" cy="69.5" r="1.5"></circle>
                        <circle id="Oval-Copy-21" cx="6.5" cy="57.5" r="1.5"></circle>
                        <circle id="Oval-Copy-20" cx="56.5" cy="57.5" r="1.5"></circle>
                        <circle id="Oval-Copy-625" cx="1.5" cy="61.5" r="1.5"></circle>
                        <circle id="Oval-Copy-624" cx="51.5" cy="61.5" r="1.5"></circle>
                        <circle id="Oval-Copy-623" cx="16.5" cy="57.5" r="1.5"></circle>
                        <circle id="Oval-Copy-622" cx="66.5" cy="57.5" r="1.5"></circle>
                        <circle id="Oval-Copy-621" cx="11.5" cy="61.5" r="1.5"></circle>
                        <circle id="Oval-Copy-620" cx="61.5" cy="61.5" r="1.5"></circle>
                        <circle id="Oval-Copy-619" cx="26.5" cy="57.5" r="1.5"></circle>
                        <circle id="Oval-Copy-618" cx="76.5" cy="57.5" r="1.5"></circle>
                        <circle id="Oval-Copy-617" cx="21.5" cy="61.5" r="1.5"></circle>
                        <circle id="Oval-Copy-616" cx="71.5" cy="61.5" r="1.5"></circle>
                        <circle id="Oval-Copy-615" cx="36.5" cy="57.5" r="1.5"></circle>
                        <circle id="Oval-Copy-614" cx="86.5" cy="57.5" r="1.5"></circle>
                        <circle id="Oval-Copy-613" cx="106.5" cy="57.5" r="1.5"></circle>
                        <circle id="Oval-Copy-612" cx="31.5" cy="61.5" r="1.5"></circle>
                        <circle id="Oval-Copy-611" cx="81.5" cy="61.5" r="1.5"></circle>
                        <circle id="Oval-Copy-610" cx="101.5" cy="61.5" r="1.5"></circle>
                        <circle id="Oval-Copy-609" cx="46.5" cy="57.5" r="1.5"></circle>
                        <circle id="Oval-Copy-608" cx="96.5" cy="57.5" r="1.5"></circle>
                        <circle id="Oval-Copy-607" cx="116.5" cy="57.5" r="1.5"></circle>
                        <circle id="Oval-Copy-606" cx="41.5" cy="61.5" r="1.5"></circle>
                        <circle id="Oval-Copy-605" cx="91.5" cy="61.5" r="1.5"></circle>
                        <circle id="Oval-Copy-604" cx="111.5" cy="61.5" r="1.5"></circle>
                        <circle id="Oval-Copy-23" cx="6.5" cy="49.5" r="1.5"></circle>
                        <circle id="Oval-Copy-22" cx="56.5" cy="49.5" r="1.5"></circle>
                        <circle id="Oval-Copy-647" cx="1.5" cy="53.5" r="1.5"></circle>
                        <circle id="Oval-Copy-646" cx="51.5" cy="53.5" r="1.5"></circle>
                        <circle id="Oval-Copy-645" cx="16.5" cy="49.5" r="1.5"></circle>
                        <circle id="Oval-Copy-644" cx="66.5" cy="49.5" r="1.5"></circle>
                        <circle id="Oval-Copy-643" cx="11.5" cy="53.5" r="1.5"></circle>
                        <circle id="Oval-Copy-642" cx="61.5" cy="53.5" r="1.5"></circle>
                        <circle id="Oval-Copy-641" cx="26.5" cy="49.5" r="1.5"></circle>
                        <circle id="Oval-Copy-640" cx="76.5" cy="49.5" r="1.5"></circle>
                        <circle id="Oval-Copy-639" cx="21.5" cy="53.5" r="1.5"></circle>
                        <circle id="Oval-Copy-638" cx="71.5" cy="53.5" r="1.5"></circle>
                        <circle id="Oval-Copy-637" cx="36.5" cy="49.5" r="1.5"></circle>
                        <circle id="Oval-Copy-636" cx="86.5" cy="49.5" r="1.5"></circle>
                        <circle id="Oval-Copy-635" cx="106.5" cy="49.5" r="1.5"></circle>
                        <circle id="Oval-Copy-634" cx="31.5" cy="53.5" r="1.5"></circle>
                        <circle id="Oval-Copy-633" cx="81.5" cy="53.5" r="1.5"></circle>
                        <circle id="Oval-Copy-632" cx="101.5" cy="53.5" r="1.5"></circle>
                        <circle id="Oval-Copy-631" cx="46.5" cy="49.5" r="1.5"></circle>
                        <circle id="Oval-Copy-630" cx="96.5" cy="49.5" r="1.5"></circle>
                        <circle id="Oval-Copy-629" cx="116.5" cy="49.5" r="1.5"></circle>
                        <circle id="Oval-Copy-628" cx="41.5" cy="53.5" r="1.5"></circle>
                        <circle id="Oval-Copy-627" cx="91.5" cy="53.5" r="1.5"></circle>
                        <circle id="Oval-Copy-626" cx="111.5" cy="53.5" r="1.5"></circle>
                        <circle id="Oval-Copy-25" cx="6.5" cy="41.5" r="1.5"></circle>
                        <circle id="Oval-Copy-24" cx="56.5" cy="41.5" r="1.5"></circle>
                        <circle id="Oval-Copy-669" cx="1.5" cy="45.5" r="1.5"></circle>
                        <circle id="Oval-Copy-668" cx="51.5" cy="45.5" r="1.5"></circle>
                        <circle id="Oval-Copy-667" cx="16.5" cy="41.5" r="1.5"></circle>
                        <circle id="Oval-Copy-666" cx="66.5" cy="41.5" r="1.5"></circle>
                        <circle id="Oval-Copy-665" cx="11.5" cy="45.5" r="1.5"></circle>
                        <circle id="Oval-Copy-664" cx="61.5" cy="45.5" r="1.5"></circle>
                        <circle id="Oval-Copy-663" cx="26.5" cy="41.5" r="1.5"></circle>
                        <circle id="Oval-Copy-662" cx="76.5" cy="41.5" r="1.5"></circle>
                        <circle id="Oval-Copy-661" cx="21.5" cy="45.5" r="1.5"></circle>
                        <circle id="Oval-Copy-660" cx="71.5" cy="45.5" r="1.5"></circle>
                        <circle id="Oval-Copy-659" cx="36.5" cy="41.5" r="1.5"></circle>
                        <circle id="Oval-Copy-658" cx="86.5" cy="41.5" r="1.5"></circle>
                        <circle id="Oval-Copy-657" cx="106.5" cy="41.5" r="1.5"></circle>
                        <circle id="Oval-Copy-656" cx="31.5" cy="45.5" r="1.5"></circle>
                        <circle id="Oval-Copy-655" cx="81.5" cy="45.5" r="1.5"></circle>
                        <circle id="Oval-Copy-654" cx="101.5" cy="45.5" r="1.5"></circle>
                        <circle id="Oval-Copy-653" cx="46.5" cy="41.5" r="1.5"></circle>
                        <circle id="Oval-Copy-652" cx="96.5" cy="41.5" r="1.5"></circle>
                        <circle id="Oval-Copy-651" cx="116.5" cy="41.5" r="1.5"></circle>
                        <circle id="Oval-Copy-650" cx="41.5" cy="45.5" r="1.5"></circle>
                        <circle id="Oval-Copy-649" cx="91.5" cy="45.5" r="1.5"></circle>
                        <circle id="Oval-Copy-648" cx="111.5" cy="45.5" r="1.5"></circle>
                        <circle id="Oval-Copy-27" cx="6.5" cy="33.5" r="1.5"></circle>
                        <circle id="Oval-Copy-26" cx="56.5" cy="33.5" r="1.5"></circle>
                        <circle id="Oval-Copy-691" cx="1.5" cy="37.5" r="1.5"></circle>
                        <circle id="Oval-Copy-690" cx="51.5" cy="37.5" r="1.5"></circle>
                        <circle id="Oval-Copy-689" cx="16.5" cy="33.5" r="1.5"></circle>
                        <circle id="Oval-Copy-688" cx="66.5" cy="33.5" r="1.5"></circle>
                        <circle id="Oval-Copy-687" cx="11.5" cy="37.5" r="1.5"></circle>
                        <circle id="Oval-Copy-686" cx="61.5" cy="37.5" r="1.5"></circle>
                        <circle id="Oval-Copy-685" cx="26.5" cy="33.5" r="1.5"></circle>
                        <circle id="Oval-Copy-684" cx="76.5" cy="33.5" r="1.5"></circle>
                        <circle id="Oval-Copy-683" cx="21.5" cy="37.5" r="1.5"></circle>
                        <circle id="Oval-Copy-682" cx="71.5" cy="37.5" r="1.5"></circle>
                        <circle id="Oval-Copy-681" cx="36.5" cy="33.5" r="1.5"></circle>
                        <circle id="Oval-Copy-680" cx="86.5" cy="33.5" r="1.5"></circle>
                        <circle id="Oval-Copy-679" cx="106.5" cy="33.5" r="1.5"></circle>
                        <circle id="Oval-Copy-678" cx="31.5" cy="37.5" r="1.5"></circle>
                        <circle id="Oval-Copy-677" cx="81.5" cy="37.5" r="1.5"></circle>
                        <circle id="Oval-Copy-676" cx="101.5" cy="37.5" r="1.5"></circle>
                        <circle id="Oval-Copy-675" cx="46.5" cy="33.5" r="1.5"></circle>
                        <circle id="Oval-Copy-674" cx="96.5" cy="33.5" r="1.5"></circle>
                        <circle id="Oval-Copy-673" cx="116.5" cy="33.5" r="1.5"></circle>
                        <circle id="Oval-Copy-672" cx="41.5" cy="37.5" r="1.5"></circle>
                        <circle id="Oval-Copy-671" cx="91.5" cy="37.5" r="1.5"></circle>
                        <circle id="Oval-Copy-670" cx="111.5" cy="37.5" r="1.5"></circle>
                        <circle id="Oval-Copy-29" cx="6.5" cy="25.5" r="1.5"></circle>
                        <circle id="Oval-Copy-28" cx="56.5" cy="25.5" r="1.5"></circle>
                        <circle id="Oval-Copy-713" cx="1.5" cy="29.5" r="1.5"></circle>
                        <circle id="Oval-Copy-712" cx="51.5" cy="29.5" r="1.5"></circle>
                        <circle id="Oval-Copy-711" cx="16.5" cy="25.5" r="1.5"></circle>
                        <circle id="Oval-Copy-710" cx="66.5" cy="25.5" r="1.5"></circle>
                        <circle id="Oval-Copy-709" cx="11.5" cy="29.5" r="1.5"></circle>
                        <circle id="Oval-Copy-708" cx="61.5" cy="29.5" r="1.5"></circle>
                        <circle id="Oval-Copy-707" cx="26.5" cy="25.5" r="1.5"></circle>
                        <circle id="Oval-Copy-706" cx="76.5" cy="25.5" r="1.5"></circle>
                        <circle id="Oval-Copy-705" cx="21.5" cy="29.5" r="1.5"></circle>
                        <circle id="Oval-Copy-704" cx="71.5" cy="29.5" r="1.5"></circle>
                        <circle id="Oval-Copy-703" cx="36.5" cy="25.5" r="1.5"></circle>
                        <circle id="Oval-Copy-702" cx="86.5" cy="25.5" r="1.5"></circle>
                        <circle id="Oval-Copy-701" cx="106.5" cy="25.5" r="1.5"></circle>
                        <circle id="Oval-Copy-700" cx="31.5" cy="29.5" r="1.5"></circle>
                        <circle id="Oval-Copy-699" cx="81.5" cy="29.5" r="1.5"></circle>
                        <circle id="Oval-Copy-698" cx="101.5" cy="29.5" r="1.5"></circle>
                        <circle id="Oval-Copy-697" cx="46.5" cy="25.5" r="1.5"></circle>
                        <circle id="Oval-Copy-696" cx="96.5" cy="25.5" r="1.5"></circle>
                        <circle id="Oval-Copy-695" cx="116.5" cy="25.5" r="1.5"></circle>
                        <circle id="Oval-Copy-694" cx="41.5" cy="29.5" r="1.5"></circle>
                        <circle id="Oval-Copy-693" cx="91.5" cy="29.5" r="1.5"></circle>
                        <circle id="Oval-Copy-692" cx="111.5" cy="29.5" r="1.5"></circle>
                        <circle id="Oval-Copy-31" cx="6.5" cy="17.5" r="1.5"></circle>
                        <circle id="Oval-Copy-30" cx="56.5" cy="17.5" r="1.5"></circle>
                        <circle id="Oval-Copy-735" cx="1.5" cy="21.5" r="1.5"></circle>
                        <circle id="Oval-Copy-734" cx="51.5" cy="21.5" r="1.5"></circle>
                        <circle id="Oval-Copy-733" cx="16.5" cy="17.5" r="1.5"></circle>
                        <circle id="Oval-Copy-732" cx="66.5" cy="17.5" r="1.5"></circle>
                        <circle id="Oval-Copy-731" cx="11.5" cy="21.5" r="1.5"></circle>
                        <circle id="Oval-Copy-730" cx="61.5" cy="21.5" r="1.5"></circle>
                        <circle id="Oval-Copy-729" cx="26.5" cy="17.5" r="1.5"></circle>
                        <circle id="Oval-Copy-728" cx="76.5" cy="17.5" r="1.5"></circle>
                        <circle id="Oval-Copy-727" cx="21.5" cy="21.5" r="1.5"></circle>
                        <circle id="Oval-Copy-726" cx="71.5" cy="21.5" r="1.5"></circle>
                        <circle id="Oval-Copy-725" cx="36.5" cy="17.5" r="1.5"></circle>
                        <circle id="Oval-Copy-724" cx="86.5" cy="17.5" r="1.5"></circle>
                        <circle id="Oval-Copy-723" cx="106.5" cy="17.5" r="1.5"></circle>
                        <circle id="Oval-Copy-722" cx="31.5" cy="21.5" r="1.5"></circle>
                        <circle id="Oval-Copy-721" cx="81.5" cy="21.5" r="1.5"></circle>
                        <circle id="Oval-Copy-720" cx="101.5" cy="21.5" r="1.5"></circle>
                        <circle id="Oval-Copy-719" cx="46.5" cy="17.5" r="1.5"></circle>
                        <circle id="Oval-Copy-718" cx="96.5" cy="17.5" r="1.5"></circle>
                        <circle id="Oval-Copy-717" cx="116.5" cy="17.5" r="1.5"></circle>
                        <circle id="Oval-Copy-716" cx="41.5" cy="21.5" r="1.5"></circle>
                        <circle id="Oval-Copy-715" cx="91.5" cy="21.5" r="1.5"></circle>
                        <circle id="Oval-Copy-714" cx="111.5" cy="21.5" r="1.5"></circle>
                        <circle id="Oval-Copy-33" cx="6.5" cy="9.5" r="1.5"></circle>
                        <circle id="Oval-Copy-32" cx="56.5" cy="9.5" r="1.5"></circle>
                        <circle id="Oval-Copy-757" cx="1.5" cy="13.5" r="1.5"></circle>
                        <circle id="Oval-Copy-756" cx="51.5" cy="13.5" r="1.5"></circle>
                        <circle id="Oval-Copy-755" cx="16.5" cy="9.5" r="1.5"></circle>
                        <circle id="Oval-Copy-754" cx="66.5" cy="9.5" r="1.5"></circle>
                        <circle id="Oval-Copy-753" cx="11.5" cy="13.5" r="1.5"></circle>
                        <circle id="Oval-Copy-752" cx="61.5" cy="13.5" r="1.5"></circle>
                        <circle id="Oval-Copy-751" cx="26.5" cy="9.5" r="1.5"></circle>
                        <circle id="Oval-Copy-750" cx="76.5" cy="9.5" r="1.5"></circle>
                        <circle id="Oval-Copy-749" cx="21.5" cy="13.5" r="1.5"></circle>
                        <circle id="Oval-Copy-748" cx="71.5" cy="13.5" r="1.5"></circle>
                        <circle id="Oval-Copy-747" cx="36.5" cy="9.5" r="1.5"></circle>
                        <circle id="Oval-Copy-746" cx="86.5" cy="9.5" r="1.5"></circle>
                        <circle id="Oval-Copy-745" cx="106.5" cy="9.5" r="1.5"></circle>
                        <circle id="Oval-Copy-744" cx="31.5" cy="13.5" r="1.5"></circle>
                        <circle id="Oval-Copy-743" cx="81.5" cy="13.5" r="1.5"></circle>
                        <circle id="Oval-Copy-742" cx="101.5" cy="13.5" r="1.5"></circle>
                        <circle id="Oval-Copy-741" cx="46.5" cy="9.5" r="1.5"></circle>
                        <circle id="Oval-Copy-740" cx="96.5" cy="9.5" r="1.5"></circle>
                        <circle id="Oval-Copy-739" cx="116.5" cy="9.5" r="1.5"></circle>
                        <circle id="Oval-Copy-738" cx="41.5" cy="13.5" r="1.5"></circle>
                        <circle id="Oval-Copy-737" cx="91.5" cy="13.5" r="1.5"></circle>
                        <circle id="Oval-Copy-736" cx="111.5" cy="13.5" r="1.5"></circle>
                        <circle id="Oval-Copy-35" cx="6.5" cy="1.5" r="1.5"></circle>
                        <circle id="Oval-Copy-34" cx="56.5" cy="1.5" r="1.5"></circle>
                        <circle id="Oval-Copy-779" cx="1.5" cy="5.5" r="1.5"></circle>
                        <circle id="Oval-Copy-778" cx="51.5" cy="5.5" r="1.5"></circle>
                        <circle id="Oval-Copy-777" cx="16.5" cy="1.5" r="1.5"></circle>
                        <circle id="Oval-Copy-776" cx="66.5" cy="1.5" r="1.5"></circle>
                        <circle id="Oval-Copy-775" cx="11.5" cy="5.5" r="1.5"></circle>
                        <circle id="Oval-Copy-774" cx="61.5" cy="5.5" r="1.5"></circle>
                        <circle id="Oval-Copy-773" cx="26.5" cy="1.5" r="1.5"></circle>
                        <circle id="Oval-Copy-772" cx="76.5" cy="1.5" r="1.5"></circle>
                        <circle id="Oval-Copy-771" cx="21.5" cy="5.5" r="1.5"></circle>
                        <circle id="Oval-Copy-770" cx="71.5" cy="5.5" r="1.5"></circle>
                        <circle id="Oval-Copy-769" cx="36.5" cy="1.5" r="1.5"></circle>
                        <circle id="Oval-Copy-768" cx="86.5" cy="1.5" r="1.5"></circle>
                        <circle id="Oval-Copy-767" cx="106.5" cy="1.5" r="1.5"></circle>
                        <circle id="Oval-Copy-766" cx="31.5" cy="5.5" r="1.5"></circle>
                        <circle id="Oval-Copy-765" cx="81.5" cy="5.5" r="1.5"></circle>
                        <circle id="Oval-Copy-764" cx="101.5" cy="5.5" r="1.5"></circle>
                        <circle id="Oval-Copy-763" cx="46.5" cy="1.5" r="1.5"></circle>
                        <circle id="Oval-Copy-762" cx="96.5" cy="1.5" r="1.5"></circle>
                        <circle id="Oval-Copy-761" cx="116.5" cy="1.5" r="1.5"></circle>
                        <circle id="Oval-Copy-760" cx="41.5" cy="5.5" r="1.5"></circle>
                        <circle id="Oval-Copy-759" cx="91.5" cy="5.5" r="1.5"></circle>
                        <circle id="Oval-Copy-758" cx="111.5" cy="5.5" r="1.5"></circle>
                    </g>
                </g>
                <g id="Vad-kan-jag-hjälpa-till-med" transform="translate(10.000000, 46.000000)">
                    <g id="BG">
                        <use fill="black" fill-opacity="1" filter="url(#filter-2)" xlink:href="#path-1"></use>
                        <use fill="#F9FAFC" fill-rule="evenodd" xlink:href="#path-1"></use>
                    </g>
                    <path d="M13.17952,59.81098 L11.89376,59.6385 L11.89376,58.96426 L15.82944,58.96426 L15.82944,59.6385 L14.46528,59.81098 L14.46528,64.21706 L20.45504,64.21706 L20.45504,59.81098 L19.1536,59.6385 L19.1536,58.96426 L23.04224,58.96426 L23.04224,59.6385 L21.75648,59.81098 L21.75648,69.79914 L23.04224,69.94026 L23.04224,70.6145 L19.13792,70.6145 L19.13792,69.94026 L20.45504,69.79914 L20.45504,65.0481 L14.46528,65.0481 L14.46528,69.79914 L15.84512,69.94026 L15.84512,70.6145 L11.84672,70.6145 L11.84672,69.94026 L13.17952,69.79914 L13.17952,59.81098 Z M26.46048,60.2657 C25.8959972,60.2657 25.61376,59.967783 25.61376,59.37194 C25.61376,59.0687918 25.7026124,58.8205276 25.88032,58.62714 C26.0580276,58.4337524 26.2984518,58.33706 26.6016,58.33706 C26.9152016,58.33706 27.139946,58.4232991 27.27584,58.59578 C27.411734,58.7682609 27.47968,58.9799387 27.47968,59.23082 C27.47968,59.554875 27.3934409,59.8083658 27.22096,59.9913 C27.0484791,60.1742342 26.800215,60.2657 26.47616,60.2657 L26.46048,60.2657 Z M25.95872,62.94698 L24.73568,62.68042 L24.73568,61.97482 L26.88384,61.72394 L26.9152,61.72394 L27.2288,61.97482 L27.2288,69.8305 L28.59296,69.94026 L28.59296,70.6145 L24.57888,70.6145 L24.57888,69.94026 L25.95872,69.81482 L25.95872,62.94698 Z M32.12096,67.0081 L31.32128,67.0081 L30.92928,56.78474 L32.45024,56.78474 L32.12096,67.0081 Z M30.81952,69.92458 C30.81952,69.6423386 30.9266656,69.4019143 31.14096,69.2033 C31.3552544,69.0046857 31.5930654,68.90538 31.8544,68.90538 C32.1470948,68.90538 32.3692259,68.9863925 32.5208,69.14842 C32.6723741,69.3104475 32.74816,69.5168987 32.74816,69.76778 C32.74816,70.0604748 32.6436277,70.3035124 32.43456,70.4969 C32.2254923,70.6902876 31.9798414,70.78698 31.6976,70.78698 C31.4571721,70.78698 31.2507209,70.7085808 31.07824,70.55178 C30.9057591,70.3949792 30.81952,70.1859146 30.81952,69.92458 Z M37.9696,58.96426 L41.92096,58.96426 L41.92096,59.6385 L40.38432,59.81098 L42.65792,67.25898 L43.17536,69.73642 L43.78688,67.25898 L45.66848,61.1281 L45.24512,59.81098 L44.0848,59.6385 L44.0848,58.96426 L48.1616,58.96426 L48.1616,59.6385 L46.60928,59.81098 L48.82016,67.25898 L49.43168,69.92458 L49.94912,67.25898 L52.03456,59.81098 L50.38816,59.6385 L50.38816,58.96426 L54.10432,58.96426 L54.10432,59.6385 L53.05376,59.81098 L49.83936,70.6929 L48.632,70.6929 L46.09184,62.49226 L43.59872,70.6929 L42.45408,70.6929 L39.0672,59.82666 L37.9696,59.6385 L37.9696,58.96426 Z M55.40576,58.76042 L54.01024,58.6193 L54.01024,58.03914 L56.33088,57.77258 L56.36224,57.77258 L56.66016,57.97642 L56.66016,61.70826 L56.6288,63.0097 C56.9633083,62.7065518 57.4337036,62.4138614 58.04,62.13162 C58.6462964,61.8493786 59.2421304,61.70826 59.82752,61.70826 C60.4860833,61.70826 60.9982915,61.8336987 61.36416,62.08458 C61.7300285,62.3354613 61.9861326,62.724844 62.13248,63.25274 C62.2788274,63.780636 62.352,64.4940688 62.352,65.39306 L62.352,69.81482 L63.49664,69.94026 L63.49664,70.6145 L59.98432,70.6145 L59.98432,69.94026 L61.08192,69.81482 L61.08192,65.37738 C61.08192,64.7083633 61.0374938,64.1857019 60.94864,63.80938 C60.8597862,63.4330581 60.6846946,63.1508209 60.42336,62.96266 C60.1620254,62.7744991 59.7804825,62.68042 59.27872,62.68042 C58.8605846,62.68042 58.4110957,62.782339 57.93024,62.98618 C57.4493843,63.190021 57.0260285,63.4330586 56.66016,63.7153 L56.66016,69.81482 L57.82048,69.94026 L57.82048,70.6145 L54.41792,70.6145 L54.41792,69.94026 L55.40576,69.8305 L55.40576,58.76042 Z M64.81376,68.32522 C64.81376,67.3112416 65.315515,66.5769023 66.31904,66.12218 C67.322565,65.6674577 68.5717259,65.4244202 70.06656,65.39306 L70.06656,64.90698 C70.06656,64.3738573 70.0116805,63.9531149 69.90192,63.64474 C69.7921595,63.3363651 69.601388,63.1116207 69.3296,62.9705 C69.057812,62.8293793 68.6762691,62.75882 68.18496,62.75882 C67.6518373,62.75882 67.1683755,62.8398325 66.73456,63.00186 C66.3007445,63.1638875 65.880002,63.3598855 65.47232,63.58986 L65.12736,62.89994 C65.2423472,62.7954061 65.4827715,62.6490609 65.84864,62.4609 C66.2145085,62.2727391 66.6326376,62.1054874 67.10304,61.95914 C67.5734424,61.8127926 68.0281578,61.73962 68.4672,61.73962 C69.1780302,61.73962 69.7398913,61.8389257 70.1528,62.03754 C70.5657087,62.2361543 70.8636258,62.5549778 71.04656,62.99402 C71.2294942,63.4330622 71.32096,64.0236696 71.32096,64.76586 L71.32096,69.94026 L72.29312,69.94026 L72.29312,70.52042 C71.7181838,70.6772208 71.2321087,70.75562 70.83488,70.75562 C70.5839987,70.75562 70.4115205,70.7164204 70.31744,70.63802 C70.2233595,70.5596196 70.17632,70.3793014 70.17632,70.09706 L70.17632,69.5169 C69.7999981,69.8514083 69.3897089,70.1467121 68.94544,70.40282 C68.5011711,70.6589279 67.9968028,70.78698 67.43232,70.78698 C66.6796762,70.78698 66.0550958,70.5779154 65.55856,70.15978 C65.0620242,69.7416446 64.81376,69.1301307 64.81376,68.32522 Z M67.90272,69.86186 C68.1954148,69.86186 68.545598,69.7677809 68.95328,69.57962 C69.360962,69.3914591 69.7320517,69.1667146 70.06656,68.90538 L70.06656,66.13002 C68.8017003,66.1404734 67.8426166,66.3286315 67.18928,66.6945 C66.5359434,67.0603685 66.20928,67.5516702 66.20928,68.16842 C66.20928,68.764263 66.3608518,69.1954587 66.664,69.46202 C66.9671482,69.7285813 67.3800507,69.86186 67.90272,69.86186 Z M76.16608,70.78698 C75.6120506,70.78698 75.1939214,70.6589279 74.91168,70.40282 C74.6294386,70.1467121 74.48832,69.6893833 74.48832,69.03082 L74.48832,62.83722 L73.29664,62.83722 L73.29664,62.2257 C73.8193093,62.1107128 74.1224529,62.0270869 74.20608,61.97482 C74.3628808,61.8911929 74.4778663,61.7291679 74.55104,61.48874 C74.6137603,61.3319392 74.6973861,61.049702 74.80192,60.64202 C74.9064539,60.234338 74.9848531,59.9155145 75.03712,59.68554 L75.7584,59.68554 L75.7584,61.9121 L78.53376,61.9121 L78.53376,62.83722 L75.7584,62.83722 L75.7584,67.91754 C75.7584,68.5238364 75.7793065,68.9498054 75.82112,69.19546 C75.8629335,69.4411146 75.9465594,69.6005263 76.072,69.6737 C76.1974406,69.7468737 76.4169584,69.78346 76.73056,69.78346 C77.0337082,69.78346 77.3734381,69.7416471 77.74976,69.65802 C78.1260819,69.5743929 78.4083191,69.4855405 78.59648,69.39146 L78.80032,69.9873 C78.5598921,70.1754609 78.1626694,70.3557791 77.60864,70.52826 C77.0546106,70.7007409 76.573762,70.78698 76.16608,70.78698 Z M83.3632,66.31818 C83.3632,65.4714558 83.5278384,64.6953035 83.85712,63.9897 C84.1864016,63.2840965 84.6777034,62.7222354 85.33104,62.3041 C85.9843766,61.8859646 86.7814353,61.6769 87.72224,61.6769 C88.129922,61.6769 88.5271447,61.7265528 88.91392,61.82586 C89.3006953,61.9251672 89.6351986,62.0323128 89.91744,62.1473 L89.85472,64.38954 L89.07072,64.38954 L88.74144,62.88426 C88.6787197,62.5706584 88.2292308,62.41386 87.39296,62.41386 C86.5775959,62.41386 85.9268824,62.7274569 85.4408,63.35466 C84.9547176,63.9818631 84.71168,64.8390279 84.71168,65.92618 C84.71168,67.2223998 84.9730107,68.2050033 85.49568,68.87402 C86.0183493,69.5430367 86.6978092,69.87754 87.53408,69.87754 C87.9731222,69.87754 88.3990913,69.8043674 88.812,69.65802 C89.2249087,69.5116726 89.567252,69.3444209 89.83904,69.15626 L90.08992,69.6737 C89.7867718,69.9768482 89.3686427,70.2381789 88.83552,70.4577 C88.3023973,70.6772211 87.7745093,70.78698 87.25184,70.78698 C86.4260225,70.78698 85.7204296,70.590982 85.13504,70.19898 C84.5496504,69.806978 84.1080015,69.2738634 83.81008,68.59962 C83.5121585,67.9253766 83.3632,67.1649042 83.3632,66.31818 Z M91.61088,68.32522 C91.61088,67.3112416 92.112635,66.5769023 93.11616,66.12218 C94.119685,65.6674577 95.3688459,65.4244202 96.86368,65.39306 L96.86368,64.90698 C96.86368,64.3738573 96.8088005,63.9531149 96.69904,63.64474 C96.5892795,63.3363651 96.398508,63.1116207 96.12672,62.9705 C95.854932,62.8293793 95.4733891,62.75882 94.98208,62.75882 C94.4489573,62.75882 93.9654955,62.8398325 93.53168,63.00186 C93.0978645,63.1638875 92.677122,63.3598855 92.26944,63.58986 L91.92448,62.89994 C92.0394672,62.7954061 92.2798915,62.6490609 92.64576,62.4609 C93.0116285,62.2727391 93.4297576,62.1054874 93.90016,61.95914 C94.3705624,61.8127926 94.8252778,61.73962 95.26432,61.73962 C95.9751502,61.73962 96.5370113,61.8389257 96.94992,62.03754 C97.3628287,62.2361543 97.6607458,62.5549778 97.84368,62.99402 C98.0266142,63.4330622 98.11808,64.0236696 98.11808,64.76586 L98.11808,69.94026 L99.09024,69.94026 L99.09024,70.52042 C98.5153038,70.6772208 98.0292287,70.75562 97.632,70.75562 C97.3811187,70.75562 97.2086405,70.7164204 97.11456,70.63802 C97.0204795,70.5596196 96.97344,70.3793014 96.97344,70.09706 L96.97344,69.5169 C96.5971181,69.8514083 96.1868289,70.1467121 95.74256,70.40282 C95.2982911,70.6589279 94.7939228,70.78698 94.22944,70.78698 C93.4767962,70.78698 92.8522158,70.5779154 92.35568,70.15978 C91.8591442,69.7416446 91.61088,69.1301307 91.61088,68.32522 Z M94.69984,69.86186 C94.9925348,69.86186 95.342718,69.7677809 95.7504,69.57962 C96.158082,69.3914591 96.5291717,69.1667146 96.86368,68.90538 L96.86368,66.13002 C95.5988203,66.1404734 94.6397366,66.3286315 93.9864,66.6945 C93.3330634,67.0603685 93.0064,67.5516702 93.0064,68.16842 C93.0064,68.764263 93.1579718,69.1954587 93.46112,69.46202 C93.7642682,69.7285813 94.1771707,69.86186 94.69984,69.86186 Z M101.2384,62.94698 L100.03104,62.68042 L100.03104,61.97482 L102.0224,61.72394 L102.06944,61.72394 L102.36736,61.97482 L102.36736,62.66474 L102.35168,63.05674 C102.738455,62.7222317 103.250663,62.4138614 103.88832,62.13162 C104.525977,61.8493786 105.116584,61.70826 105.66016,61.70826 C106.329177,61.70826 106.843998,61.8363121 107.20464,62.09242 C107.565282,62.3485279 107.816159,62.740524 107.95728,63.26842 C108.098401,63.796316 108.16896,64.5045222 108.16896,65.39306 L108.16896,69.8305 L109.34496,69.94026 L109.34496,70.6145 L105.84832,70.6145 L105.84832,69.94026 L106.89888,69.8305 L106.89888,65.37738 C106.89888,64.7188167 106.854454,64.2013819 106.7656,63.82506 C106.676746,63.4487381 106.504268,63.1638876 106.24816,62.9705 C105.992052,62.7771124 105.618349,62.68042 105.12704,62.68042 C104.708905,62.68042 104.256802,62.7849523 103.77072,62.99402 C103.284638,63.2030877 102.863895,63.4487386 102.50848,63.73098 L102.50848,69.81482 L103.65312,69.94026 L103.65312,70.6145 L100.18784,70.6145 L100.18784,69.94026 L101.2384,69.81482 L101.2384,62.94698 Z M115.96192,59.81098 L114.44096,59.6385 L114.44096,58.96426 L118.78432,58.96426 L118.78432,59.6385 L117.26336,59.81098 L117.26336,69.79914 L118.78432,69.95594 L118.78432,70.6145 L114.44096,70.6145 L114.44096,69.94026 L115.96192,69.79914 L115.96192,59.81098 Z M125.05632,58.76042 L123.6608,58.6193 L123.6608,58.03914 L125.98144,57.77258 L126.0128,57.77258 L126.31072,57.97642 L126.31072,61.70826 L126.27936,63.0097 C126.613868,62.7065518 127.084264,62.4138614 127.69056,62.13162 C128.296856,61.8493786 128.89269,61.70826 129.47808,61.70826 C130.136643,61.70826 130.648852,61.8336987 131.01472,62.08458 C131.380588,62.3354613 131.636693,62.724844 131.78304,63.25274 C131.929387,63.780636 132.00256,64.4940688 132.00256,65.39306 L132.00256,69.81482 L133.1472,69.94026 L133.1472,70.6145 L129.63488,70.6145 L129.63488,69.94026 L130.73248,69.81482 L130.73248,65.37738 C130.73248,64.7083633 130.688054,64.1857019 130.5992,63.80938 C130.510346,63.4330581 130.335255,63.1508209 130.07392,62.96266 C129.812585,62.7744991 129.431043,62.68042 128.92928,62.68042 C128.511145,62.68042 128.061656,62.782339 127.5808,62.98618 C127.099944,63.190021 126.676588,63.4330586 126.31072,63.7153 L126.31072,69.81482 L127.47104,69.94026 L127.47104,70.6145 L124.06848,70.6145 L124.06848,69.94026 L125.05632,69.8305 L125.05632,58.76042 Z M138.18048,70.78698 C136.967887,70.78698 136.034937,70.3714642 135.3816,69.54042 C134.728263,68.7093758 134.4016,67.6039469 134.4016,66.2241 C134.4016,65.3355622 134.574078,64.5463434 134.91904,63.85642 C135.264002,63.1664966 135.742237,62.6307686 136.35376,62.24922 C136.965283,61.8676714 137.652583,61.6769 138.41568,61.6769 C139.346031,61.6769 140.069917,61.9434573 140.58736,62.47658 C141.104803,63.0097027 141.384426,63.778015 141.42624,64.78154 C141.42624,65.4296499 141.39488,65.889592 141.33216,66.16138 L135.75008,66.16138 C135.75008,67.2589855 135.998344,68.1553499 136.49488,68.8505 C136.991416,69.5456501 137.689169,69.89322 138.58816,69.89322 C139.027202,69.89322 139.476691,69.8148208 139.93664,69.65802 C140.396589,69.5012192 140.751999,69.3130611 141.00288,69.09354 L141.25376,69.6737 C140.950612,69.9873016 140.508963,70.2512456 139.9288,70.46554 C139.348637,70.6798344 138.76587,70.78698 138.18048,70.78698 Z M140.01504,65.42442 C140.0464,65.2048989 140.06208,64.9749279 140.06208,64.7345 C140.051627,64.0445766 139.886988,63.495782 139.56816,63.0881 C139.249332,62.680418 138.760643,62.47658 138.10208,62.47658 C136.669966,62.47658 135.891201,63.4591835 135.76576,65.42442 L140.01504,65.42442 Z M144.1232,58.76042 L142.7904,58.6193 L142.7904,58.03914 L145.07968,57.77258 L145.09536,57.77258 L145.39328,57.97642 L145.39328,69.8305 L146.8672,69.94026 L146.8672,70.6145 L142.74336,70.6145 L142.74336,69.94026 L144.1232,69.81482 L144.1232,58.76042 Z M156.3536,65.94186 C156.3536,66.8408512 156.170668,67.6588163 155.8048,68.39578 C155.438932,69.1327437 154.918883,69.7155112 154.24464,70.1441 C153.570397,70.5726888 152.799471,70.78698 151.93184,70.78698 C151.639145,70.78698 151.330775,70.7634602 151.00672,70.71642 C150.682665,70.6693798 150.416108,70.6092737 150.20704,70.5361 L150.2384,71.8689 L150.2384,73.56234 L151.97888,73.71914 L151.97888,74.40906 L147.77664,74.40906 L147.77664,73.71914 L148.984,73.56234 L148.984,62.94698 L147.76096,62.68042 L147.76096,61.97482 L149.768,61.72394 L149.79936,61.72394 L150.0816,61.97482 L150.0816,62.9313 C150.416108,62.5863383 150.823784,62.2910346 151.30464,62.04538 C151.785496,61.7997254 152.323837,61.6769 152.91968,61.6769 C153.525976,61.6769 154.090451,61.8284718 154.61312,62.13162 C155.135789,62.4347682 155.556532,62.9051635 155.87536,63.54282 C156.194188,64.1804765 156.3536,64.9801485 156.3536,65.94186 Z M152.40224,62.63338 C151.952744,62.63338 151.534615,62.7274591 151.14784,62.91562 C150.761065,63.1037809 150.457921,63.3128455 150.2384,63.54282 L150.2384,69.5169 C150.322027,69.652794 150.533705,69.7756195 150.87344,69.88538 C151.213175,69.9951405 151.586878,70.05002 151.99456,70.05002 C152.893551,70.05002 153.617437,69.71813 154.16624,69.05434 C154.715043,68.39055 154.98944,67.4105598 154.98944,66.11434 C154.98944,64.9540142 154.746402,64.0837829 154.26032,63.50362 C153.774238,62.9234571 153.154884,62.63338 152.40224,62.63338 Z M10.95296,83.8641 L14.35552,83.8641 L14.35552,84.50698 L13.10112,84.69514 L14.49664,89.57162 L15.01408,91.75114 L15.53152,89.55594 L17.09952,83.8641 L18.40096,83.8641 L19.96896,89.55594 L20.47072,91.76682 L21.0352,89.57162 L22.41504,84.71082 L21.20768,84.50698 L21.20768,83.8641 L24.28096,83.8641 L24.28096,84.50698 L23.41856,84.71082 L20.97248,92.69194 L19.7024,92.69194 L17.99328,86.85898 L17.55424,84.8833 L17.17792,86.85898 L15.53152,92.69194 L14.2928,92.69194 L11.784,84.69514 L10.95296,84.50698 L10.95296,83.8641 Z M26.68,82.2177 C26.1155172,82.2177 25.83328,81.919783 25.83328,81.32394 C25.83328,81.0207918 25.9221324,80.7725276 26.09984,80.57914 C26.2775476,80.3857524 26.5179718,80.28906 26.82112,80.28906 C27.1347216,80.28906 27.359466,80.3752991 27.49536,80.54778 C27.631254,80.7202609 27.6992,80.9319387 27.6992,81.18282 C27.6992,81.506875 27.6129609,81.7603658 27.44048,81.9433 C27.2679991,82.1262342 27.019735,82.2177 26.69568,82.2177 L26.68,82.2177 Z M26.17824,84.89898 L24.9552,84.63242 L24.9552,83.92682 L27.10336,83.67594 L27.13472,83.67594 L27.44832,83.92682 L27.44832,91.7825 L28.81248,91.89226 L28.81248,92.5665 L24.7984,92.5665 L24.7984,91.89226 L26.17824,91.76682 L26.17824,84.89898 Z M32.6384,92.73898 C32.0843706,92.73898 31.6662414,92.6109279 31.384,92.35482 C31.1017586,92.0987121 30.96064,91.6413833 30.96064,90.98282 L30.96064,84.78922 L29.76896,84.78922 L29.76896,84.1777 C30.2916293,84.0627128 30.5947729,83.9790869 30.6784,83.92682 C30.8352008,83.8431929 30.9501863,83.6811679 31.02336,83.44074 C31.0860803,83.2839392 31.1697061,83.001702 31.27424,82.59402 C31.3787739,82.186338 31.4571731,81.8675145 31.50944,81.63754 L32.23072,81.63754 L32.23072,83.8641 L35.00608,83.8641 L35.00608,84.78922 L32.23072,84.78922 L32.23072,89.86954 C32.23072,90.4758364 32.2516265,90.9018054 32.29344,91.14746 C32.3352535,91.3931146 32.4188794,91.5525263 32.54432,91.6257 C32.6697606,91.6988737 32.8892784,91.73546 33.20288,91.73546 C33.5060282,91.73546 33.8457581,91.6936471 34.22208,91.61002 C34.5984019,91.5263929 34.8806391,91.4375405 35.0688,91.34346 L35.27264,91.9393 C35.0322121,92.1274609 34.6349894,92.3077791 34.08096,92.48026 C33.5269306,92.6527409 33.046082,92.73898 32.6384,92.73898 Z M37.20128,80.71242 L35.80576,80.5713 L35.80576,79.99114 L38.1264,79.72458 L38.15776,79.72458 L38.45568,79.92842 L38.45568,83.66026 L38.42432,84.9617 C38.7588283,84.6585518 39.2292236,84.3658614 39.83552,84.08362 C40.4418164,83.8013786 41.0376504,83.66026 41.62304,83.66026 C42.2816033,83.66026 42.7938115,83.7856987 43.15968,84.03658 C43.5255485,84.2874613 43.7816526,84.676844 43.928,85.20474 C44.0743474,85.732636 44.14752,86.4460688 44.14752,87.34506 L44.14752,91.76682 L45.29216,91.89226 L45.29216,92.5665 L41.77984,92.5665 L41.77984,91.89226 L42.87744,91.76682 L42.87744,87.32938 C42.87744,86.6603633 42.8330138,86.1377019 42.74416,85.76138 C42.6553062,85.3850581 42.4802146,85.1028209 42.21888,84.91466 C41.9575454,84.7264991 41.5760025,84.63242 41.07424,84.63242 C40.6561046,84.63242 40.2066157,84.734339 39.72576,84.93818 C39.2449043,85.142021 38.8215485,85.3850586 38.45568,85.6673 L38.45568,91.76682 L39.616,91.89226 L39.616,92.5665 L36.21344,92.5665 L36.21344,91.89226 L37.20128,91.7825 L37.20128,80.71242 Z M52.944,92.73898 C52.3899706,92.73898 51.9718414,92.6109279 51.6896,92.35482 C51.4073586,92.0987121 51.26624,91.6413833 51.26624,90.98282 L51.26624,84.78922 L50.07456,84.78922 L50.07456,84.1777 C50.5972293,84.0627128 50.9003729,83.9790869 50.984,83.92682 C51.1408008,83.8431929 51.2557863,83.6811679 51.32896,83.44074 C51.3916803,83.2839392 51.4753061,83.001702 51.57984,82.59402 C51.6843739,82.186338 51.7627731,81.8675145 51.81504,81.63754 L52.53632,81.63754 L52.53632,83.8641 L55.31168,83.8641 L55.31168,84.78922 L52.53632,84.78922 L52.53632,89.86954 C52.53632,90.4758364 52.5572265,90.9018054 52.59904,91.14746 C52.6408535,91.3931146 52.7244794,91.5525263 52.84992,91.6257 C52.9753606,91.6988737 53.1948784,91.73546 53.50848,91.73546 C53.8116282,91.73546 54.1513581,91.6936471 54.52768,91.61002 C54.9040019,91.5263929 55.1862391,91.4375405 55.3744,91.34346 L55.57824,91.9393 C55.3378121,92.1274609 54.9405894,92.3077791 54.38656,92.48026 C53.8325306,92.6527409 53.351682,92.73898 52.944,92.73898 Z M56.59744,88.16042 C56.59744,87.2509755 56.7882114,86.4513034 57.16976,85.76138 C57.5513086,85.0714566 58.0530636,84.5435685 58.67504,84.1777 C59.2970164,83.8118315 59.9477299,83.6289 60.6272,83.6289 C61.9443266,83.6289 62.9190902,84.0574824 63.55152,84.91466 C64.1839498,85.7718376 64.50016,86.8694266 64.50016,88.20746 C64.50016,89.1169045 64.3093886,89.9165766 63.92784,90.6065 C63.5462914,91.2964234 63.0445364,91.8243115 62.42256,92.19018 C61.8005836,92.5560485 61.1498701,92.73898 60.4704,92.73898 C59.1532734,92.73898 58.1785098,92.3103976 57.54608,91.45322 C56.9136502,90.5960424 56.59744,89.4984534 56.59744,88.16042 Z M60.5488,91.92362 C61.3537107,91.92362 61.9756778,91.6152498 62.41472,90.9985 C62.8537622,90.3817502 63.07328,89.4827726 63.07328,88.30154 C63.07328,87.1725744 62.869442,86.2474636 62.46176,85.52618 C62.054078,84.8048964 61.4216576,84.44426 60.56448,84.44426 C59.7595693,84.44426 59.1349889,84.7526302 58.69072,85.36938 C58.2464511,85.9861298 58.02432,86.8851074 58.02432,88.06634 C58.02432,89.205759 58.2307713,90.1334831 58.64368,90.84954 C59.0565887,91.5655969 59.6916224,91.92362 60.5488,91.92362 Z M69.37664,92.73898 C68.7598902,92.73898 68.1901893,92.5795683 67.66752,92.26074 C67.1448507,91.9419117 66.7267216,91.4584499 66.41312,90.81034 C66.0995184,90.1622301 65.94272,89.3677847 65.94272,88.42698 C65.94272,87.5279888 66.1256515,86.7152503 66.49152,85.98874 C66.8573885,85.2622297 67.3774366,84.6873021 68.05168,84.26394 C68.7259234,83.8405779 69.5125288,83.6289 70.41152,83.6289 C70.9864562,83.6289 71.5404773,83.6916194 72.0736,83.81706 L72.0736,80.71242 L70.44288,80.55562 L70.44288,79.99114 L73.0144,79.72458 L73.04576,79.72458 L73.34368,79.9441 L73.34368,91.8609 L74.30016,91.8609 L74.30016,92.47242 C74.2478931,92.4828734 74.0701882,92.5246863 73.76704,92.59786 C73.4638918,92.6710337 73.1398417,92.70762 72.79488,92.70762 C72.5544521,92.70762 72.3845872,92.6658071 72.28528,92.58218 C72.1859728,92.4985529 72.13632,92.3156214 72.13632,92.03338 L72.13632,91.48458 C71.812265,91.8399951 71.4176557,92.1379121 70.95248,92.37834 C70.4873043,92.6187679 69.9620296,92.73898 69.37664,92.73898 Z M69.89408,91.75114 C70.3435756,91.75114 70.7695447,91.6439944 71.172,91.4297 C71.5744553,91.2154056 71.8749857,90.9775946 72.0736,90.71626 L72.0736,84.94602 C71.9899729,84.7996726 71.7730684,84.6742339 71.42288,84.5697 C71.0726916,84.4651661 70.6989887,84.4129 70.30176,84.4129 C69.4027688,84.4129 68.6814961,84.7343368 68.13792,85.37722 C67.5943439,86.0201032 67.32256,86.9948668 67.32256,88.30154 C67.32256,89.4723192 67.5629843,90.3399372 68.04384,90.90442 C68.5246957,91.4689028 69.1414362,91.75114 69.89408,91.75114 Z M75.71136,90.27722 C75.71136,89.2632416 76.213115,88.5289023 77.21664,88.07418 C78.220165,87.6194577 79.4693259,87.3764202 80.96416,87.34506 L80.96416,86.85898 C80.96416,86.3258573 80.9092805,85.9051149 80.79952,85.59674 C80.6897595,85.2883651 80.498988,85.0636207 80.2272,84.9225 C79.955412,84.7813793 79.5738691,84.71082 79.08256,84.71082 C78.5494373,84.71082 78.0659755,84.7918325 77.63216,84.95386 C77.1983445,85.1158875 76.777602,85.3118855 76.36992,85.54186 L76.02496,84.85194 C76.1399472,84.7474061 76.3803715,84.6010609 76.74624,84.4129 C77.1121085,84.2247391 77.5302376,84.0574874 78.00064,83.91114 C78.4710424,83.7647926 78.9257578,83.69162 79.3648,83.69162 C80.0756302,83.69162 80.6374913,83.7909257 81.0504,83.98954 C81.4633087,84.1881543 81.7612258,84.5069778 81.94416,84.94602 C82.1270942,85.3850622 82.21856,85.9756696 82.21856,86.71786 L82.21856,91.89226 L83.19072,91.89226 L83.19072,92.47242 C82.6157838,92.6292208 82.1297087,92.70762 81.73248,92.70762 C81.4815987,92.70762 81.3091205,92.6684204 81.21504,92.59002 C81.1209595,92.5116196 81.07392,92.3313014 81.07392,92.04906 L81.07392,91.4689 C80.6975981,91.8034083 80.2873089,92.0987121 79.84304,92.35482 C79.3987711,92.6109279 78.8944028,92.73898 78.32992,92.73898 C77.5772762,92.73898 76.9526958,92.5299154 76.45616,92.11178 C75.9596242,91.6936446 75.71136,91.0821307 75.71136,90.27722 Z M78.80032,91.81386 C79.0930148,91.81386 79.443198,91.7197809 79.85088,91.53162 C80.258562,91.3434591 80.6296517,91.1187146 80.96416,90.85738 L80.96416,88.08202 C79.6993003,88.0924734 78.7402166,88.2806315 78.08688,88.6465 C77.4335434,89.0123685 77.10688,89.5036702 77.10688,90.12042 C77.10688,90.716263 77.2584518,91.1474587 77.5616,91.41402 C77.8647482,91.6805813 78.2776507,91.81386 78.80032,91.81386 Z M85.52704,96.47082 C85.3806926,96.47082 85.2317341,96.4603668 85.08016,96.43946 C84.9285859,96.4185532 84.8214403,96.3924202 84.75872,96.36106 L84.75872,95.20074 C84.8841606,95.2634603 85.150718,95.29482 85.5584,95.29482 C85.882455,95.29482 86.1777587,95.2294873 86.44432,95.09882 C86.7108813,94.9681527 86.9852786,94.7042087 87.26752,94.30698 C87.5497614,93.9097513 87.826772,93.3295971 88.09856,92.5665 L87.40864,92.5665 L84.41376,84.71082 L83.6768,84.50698 L83.6768,83.8641 L87.14208,83.8641 L87.14208,84.50698 L85.872,84.69514 L87.5184,89.49322 L88.33376,92.04906 L89.11776,89.47754 L90.59168,84.69514 L89.49408,84.50698 L89.49408,83.8641 L92.50464,83.8641 L92.50464,84.50698 L91.68928,84.69514 C90.9052761,87.0994187 90.2859223,88.9783866 89.8312,90.3321 C89.3764777,91.6858134 89.0864006,92.5142318 88.96096,92.81738 C88.5950915,93.7372779 88.2710414,94.4454842 87.9888,94.94202 C87.7065586,95.4385558 87.3720553,95.8174854 86.98528,96.07882 C86.5985047,96.3401546 86.1124296,96.47082 85.52704,96.47082 Z M95.28,88.89738 C95.0395721,88.301537 94.8932269,87.569811 94.84096,86.70218 C94.84096,86.2631378 95.0055984,85.8894349 95.33488,85.58106 C95.6641616,85.2726851 96.1476235,84.9303419 96.78528,84.55402 C97.2556824,84.282232 97.6215454,84.0418077 97.88288,83.83274 C98.1442146,83.6236723 98.3219195,83.3937013 98.416,83.14282 L98.416,82.24906 C98.416,81.7472975 98.2618149,81.2716756 97.95344,80.82218 C97.6450651,80.3726844 97.2086428,80.0094347 96.64416,79.73242 C96.0796772,79.4554053 95.4211238,79.3169 94.66848,79.3169 C94.1980776,79.3169 93.8060816,79.384846 93.49248,79.52074 L93.28864,78.70538 C93.4558942,78.6112995 93.6989317,78.5329003 94.01776,78.47018 C94.3365883,78.4074597 94.6475718,78.3761 94.95072,78.3761 C96.4769143,78.3761 97.6084763,78.7315098 98.34544,79.44234 C99.0824037,80.1531702 99.45088,81.0887342 99.45088,82.24906 C99.45088,82.7194624 99.3515743,83.1428181 99.15296,83.51914 C98.9543457,83.8954619 98.7165347,84.2142854 98.43952,84.47562 C98.1625053,84.7369546 97.8044822,85.0400983 97.36544,85.38506 C97.0204783,85.656848 96.7591476,85.8763658 96.58144,86.04362 C96.4037324,86.2108742 96.2678405,86.3833524 96.17376,86.56106 L96.17376,86.63946 C96.17376,87.6011715 96.1946665,88.3538039 96.23648,88.89738 L95.28,88.89738 Z M95.29568,92.73898 C95.0552521,92.73898 94.8488009,92.6605808 94.67632,92.50378 C94.5038391,92.3469792 94.4176,92.1379146 94.4176,91.87658 C94.4176,91.5943386 94.5247456,91.3539143 94.73904,91.1553 C94.9533344,90.9566857 95.1911454,90.85738 95.45248,90.85738 C95.7451748,90.85738 95.9673059,90.9383925 96.11888,91.10042 C96.2704541,91.2624475 96.34624,91.4688987 96.34624,91.71978 C96.34624,92.0124748 96.2417077,92.2555124 96.03264,92.4489 C95.8235723,92.6422876 95.5779214,92.73898 95.29568,92.73898 Z" id="Hi!WhatcanIhelpwithtoday?" fill="#0F007A" fill-rule="nonzero"></path>
                    <g id="identity/hedvig_symbol/hedvig_symbol" transform="translate(11.000000, 0.000000)">
                        <g id="Group-2">
                            <polygon id="Fill-1" fill="#1BE9B6" points="18.5862857 33.99728 23.3755714 33.99728 23.3755714 22.11768 18.5862857 22.11768"></polygon>
                            <path d="M23.3750571,22.117816 L18.5857714,22.117816 C18.5857714,18.094936 15.4910571,14.820056 11.6879143,14.820056 C7.88348571,14.820056 4.78877143,18.094936 4.78877143,22.117816 L-0.000514285715,22.117816 C-0.000514285715,15.301496 5.24262857,9.755416 11.6879143,9.755416 C18.1319143,9.755416 23.3750571,15.301496 23.3750571,22.117816" id="Fill-2" fill="#651EFF"></path>
                            <polygon id="Fill-5" fill="#0F007A" points="0 34 4.78928571 34 4.78928571 0 0 0"></polygon>
                            <polygon id="Fill-7" fill="#FF8A80" points="0 33.99728 4.78928571 33.99728 4.78928571 22.11768 0 22.11768"></polygon>
                        </g>
                    </g>
                </g>
            </g>
        </g>
    </g>
</svg>