<svg width="270" height="258" viewBox="0 0 270 258" fill="none" xmlns="http://www.w3.org/2000/svg"><path d="M0 12.8c0-4.48 0-6.72.872-8.432A8 8 0 014.368.872C6.08 0 8.32 0 12.8 0h244.4c4.48 0 6.721 0 8.432.872a8.001 8.001 0 013.496 3.496C270 6.08 270 8.32 270 12.8v232.4c0 4.48 0 6.721-.872 8.432a8.003 8.003 0 01-3.496 3.496c-1.711.872-3.952.872-8.432.872H12.8c-4.48 0-6.72 0-8.432-.872a8.001 8.001 0 01-3.496-3.496C0 251.921 0 249.68 0 245.2V12.8z" fill="#fff"/><path fill-rule="evenodd" clip-rule="evenodd" d="M82.5 200a1.5 1.5 0 100-3 1.5 1.5 0 000 3zM82.5 192a1.5 1.5 0 100-3 1.5 1.5 0 000 3zM132.5 200a1.5 1.5 0 10-.001-3.001A1.5 1.5 0 00132.5 200zM132.5 192a1.5 1.5 0 10-.001-3.001A1.5 1.5 0 00132.5 192zM77.5 204a1.5 1.5 0 100-3 1.5 1.5 0 000 3zM77.5 196a1.5 1.5 0 100-3 1.5 1.5 0 000 3zM127.5 204a1.5 1.5 0 10-.001-3.001A1.5 1.5 0 00127.5 204zM127.5 196a1.5 1.5 0 10-.001-3.001A1.5 1.5 0 00127.5 196zM92.5 200a1.5 1.5 0 100-3 1.5 1.5 0 000 3zM92.5 192a1.5 1.5 0 100-3 1.5 1.5 0 000 3zM142.5 200a1.5 1.5 0 10-.001-3.001A1.5 1.5 0 00142.5 200zM142.5 192a1.5 1.5 0 10-.001-3.001A1.5 1.5 0 00142.5 192zM87.5 204a1.5 1.5 0 100-3 1.5 1.5 0 000 3zM87.5 196a1.5 1.5 0 100-3 1.5 1.5 0 000 3zM137.5 204a1.5 1.5 0 10-.001-3.001A1.5 1.5 0 00137.5 204zM137.5 196a1.5 1.5 0 10-.001-3.001A1.5 1.5 0 00137.5 196zM102.5 200a1.5 1.5 0 10-.001-3.001A1.5 1.5 0 00102.5 200zM102.5 192a1.5 1.5 0 10-.001-3.001A1.5 1.5 0 00102.5 192zM152.5 200a1.5 1.5 0 10-.001-3.001A1.5 1.5 0 00152.5 200zM152.5 192a1.5 1.5 0 10-.001-3.001A1.5 1.5 0 00152.5 192zM97.5 204a1.5 1.5 0 100-3 1.5 1.5 0 000 3zM97.5 196a1.5 1.5 0 100-3 1.5 1.5 0 000 3zM147.5 204a1.5 1.5 0 10-.001-3.001A1.5 1.5 0 00147.5 204zM147.5 196a1.5 1.5 0 10-.001-3.001A1.5 1.5 0 00147.5 196zM112.5 200a1.5 1.5 0 10-.001-3.001A1.5 1.5 0 00112.5 200zM112.5 192a1.5 1.5 0 10-.001-3.001A1.5 1.5 0 00112.5 192zM162.5 200a1.5 1.5 0 10-.001-3.001A1.5 1.5 0 00162.5 200zM162.5 192a1.5 1.5 0 10-.001-3.001A1.5 1.5 0 00162.5 192zM182.5 200a1.5 1.5 0 10-.001-3.001A1.5 1.5 0 00182.5 200zM182.5 192a1.5 1.5 0 10-.001-3.001A1.5 1.5 0 00182.5 192zM107.5 204a1.5 1.5 0 10-.001-3.001A1.5 1.5 0 00107.5 204zM107.5 196a1.5 1.5 0 10-.001-3.001A1.5 1.5 0 00107.5 196zM157.5 204a1.5 1.5 0 10-.001-3.001A1.5 1.5 0 00157.5 204zM157.5 196a1.5 1.5 0 10-.001-3.001A1.5 1.5 0 00157.5 196zM177.5 204a1.5 1.5 0 10-.001-3.001A1.5 1.5 0 00177.5 204zM177.5 196a1.5 1.5 0 10-.001-3.001A1.5 1.5 0 00177.5 196zM122.5 200a1.5 1.5 0 10-.001-3.001A1.5 1.5 0 00122.5 200zM122.5 192a1.5 1.5 0 10-.001-3.001A1.5 1.5 0 00122.5 192zM172.5 200a1.5 1.5 0 10-.001-3.001A1.5 1.5 0 00172.5 200zM172.5 192a1.5 1.5 0 10-.001-3.001A1.5 1.5 0 00172.5 192zM192.5 200a1.5 1.5 0 10-.001-3.001A1.5 1.5 0 00192.5 200zM192.5 192a1.5 1.5 0 10-.001-3.001A1.5 1.5 0 00192.5 192zM117.5 204a1.5 1.5 0 10-.001-3.001A1.5 1.5 0 00117.5 204zM117.5 196a1.5 1.5 0 10-.001-3.001A1.5 1.5 0 00117.5 196zM167.5 204a1.5 1.5 0 10-.001-3.001A1.5 1.5 0 00167.5 204zM167.5 196a1.5 1.5 0 10-.001-3.001A1.5 1.5 0 00167.5 196zM187.5 204a1.5 1.5 0 10-.001-3.001A1.5 1.5 0 00187.5 204zM187.5 196a1.5 1.5 0 10-.001-3.001A1.5 1.5 0 00187.5 196zM82.5 184a1.5 1.5 0 100-3 1.5 1.5 0 000 3zM132.5 184a1.5 1.5 0 10-.001-3.001A1.5 1.5 0 00132.5 184zM77.5 188a1.5 1.5 0 100-3 1.5 1.5 0 000 3zM127.5 188a1.5 1.5 0 10-.001-3.001A1.5 1.5 0 00127.5 188zM92.5 184a1.5 1.5 0 100-3 1.5 1.5 0 000 3zM142.5 184a1.5 1.5 0 10-.001-3.001A1.5 1.5 0 00142.5 184zM87.5 188a1.5 1.5 0 100-3 1.5 1.5 0 000 3zM137.5 188a1.5 1.5 0 10-.001-3.001A1.5 1.5 0 00137.5 188zM102.5 184a1.5 1.5 0 10-.001-3.001A1.5 1.5 0 00102.5 184zM152.5 184a1.5 1.5 0 10-.001-3.001A1.5 1.5 0 00152.5 184zM97.5 188a1.5 1.5 0 100-3 1.5 1.5 0 000 3zM147.5 188a1.5 1.5 0 10-.001-3.001A1.5 1.5 0 00147.5 188zM112.5 184a1.5 1.5 0 10-.001-3.001A1.5 1.5 0 00112.5 184zM162.5 184a1.5 1.5 0 10-.001-3.001A1.5 1.5 0 00162.5 184zM182.5 184a1.5 1.5 0 10-.001-3.001A1.5 1.5 0 00182.5 184zM107.5 188a1.5 1.5 0 10-.001-3.001A1.5 1.5 0 00107.5 188zM157.5 188a1.5 1.5 0 10-.001-3.001A1.5 1.5 0 00157.5 188zM177.5 188a1.5 1.5 0 10-.001-3.001A1.5 1.5 0 00177.5 188zM122.5 184a1.5 1.5 0 10-.001-3.001A1.5 1.5 0 00122.5 184zM172.5 184a1.5 1.5 0 10-.001-3.001A1.5 1.5 0 00172.5 184zM192.5 184a1.5 1.5 0 10-.001-3.001A1.5 1.5 0 00192.5 184zM117.5 188a1.5 1.5 0 10-.001-3.001A1.5 1.5 0 00117.5 188zM167.5 188a1.5 1.5 0 10-.001-3.001A1.5 1.5 0 00167.5 188zM187.5 188a1.5 1.5 0 10-.001-3.001A1.5 1.5 0 00187.5 188zM82.5 176a1.5 1.5 0 100-3 1.5 1.5 0 000 3zM132.5 176a1.5 1.5 0 10-.001-3.001A1.5 1.5 0 00132.5 176zM77.5 180a1.5 1.5 0 100-3 1.5 1.5 0 000 3zM127.5 180a1.5 1.5 0 10-.001-3.001A1.5 1.5 0 00127.5 180zM92.5 176a1.5 1.5 0 100-3 1.5 1.5 0 000 3zM142.5 176a1.5 1.5 0 10-.001-3.001A1.5 1.5 0 00142.5 176zM87.5 180a1.5 1.5 0 100-3 1.5 1.5 0 000 3zM137.5 180a1.5 1.5 0 10-.001-3.001A1.5 1.5 0 00137.5 180zM102.5 176a1.5 1.5 0 10-.001-3.001A1.5 1.5 0 00102.5 176zM152.5 176a1.5 1.5 0 10-.001-3.001A1.5 1.5 0 00152.5 176zM97.5 180a1.5 1.5 0 100-3 1.5 1.5 0 000 3zM147.5 180a1.5 1.5 0 10-.001-3.001A1.5 1.5 0 00147.5 180zM112.5 176a1.5 1.5 0 10-.001-3.001A1.5 1.5 0 00112.5 176zM162.5 176a1.5 1.5 0 10-.001-3.001A1.5 1.5 0 00162.5 176zM182.5 176a1.5 1.5 0 10-.001-3.001A1.5 1.5 0 00182.5 176zM107.5 180a1.5 1.5 0 10-.001-3.001A1.5 1.5 0 00107.5 180zM157.5 180a1.5 1.5 0 10-.001-3.001A1.5 1.5 0 00157.5 180zM177.5 180a1.5 1.5 0 10-.001-3.001A1.5 1.5 0 00177.5 180zM122.5 176a1.5 1.5 0 10-.001-3.001A1.5 1.5 0 00122.5 176zM172.5 176a1.5 1.5 0 10-.001-3.001A1.5 1.5 0 00172.5 176zM192.5 176a1.5 1.5 0 10-.001-3.001A1.5 1.5 0 00192.5 176zM117.5 180a1.5 1.5 0 10-.001-3.001A1.5 1.5 0 00117.5 180zM167.5 180a1.5 1.5 0 10-.001-3.001A1.5 1.5 0 00167.5 180zM187.5 180a1.5 1.5 0 10-.001-3.001A1.5 1.5 0 00187.5 180zM82.5 168a1.5 1.5 0 100-3 1.5 1.5 0 000 3zM132.5 168a1.5 1.5 0 10-.001-3.001A1.5 1.5 0 00132.5 168zM77.5 172a1.5 1.5 0 100-3 1.5 1.5 0 000 3zM127.5 172a1.5 1.5 0 10-.001-3.001A1.5 1.5 0 00127.5 172zM92.5 168a1.5 1.5 0 100-3 1.5 1.5 0 000 3zM142.5 168a1.5 1.5 0 10-.001-3.001A1.5 1.5 0 00142.5 168zM87.5 172a1.5 1.5 0 100-3 1.5 1.5 0 000 3zM137.5 172a1.5 1.5 0 10-.001-3.001A1.5 1.5 0 00137.5 172zM102.5 168a1.5 1.5 0 10-.001-3.001A1.5 1.5 0 00102.5 168zM152.5 168a1.5 1.5 0 10-.001-3.001A1.5 1.5 0 00152.5 168zM97.5 172a1.5 1.5 0 100-3 1.5 1.5 0 000 3zM147.5 172a1.5 1.5 0 10-.001-3.001A1.5 1.5 0 00147.5 172zM112.5 168a1.5 1.5 0 10-.001-3.001A1.5 1.5 0 00112.5 168zM162.5 168a1.5 1.5 0 10-.001-3.001A1.5 1.5 0 00162.5 168zM182.5 168a1.5 1.5 0 10-.001-3.001A1.5 1.5 0 00182.5 168zM107.5 172a1.5 1.5 0 10-.001-3.001A1.5 1.5 0 00107.5 172zM157.5 172a1.5 1.5 0 10-.001-3.001A1.5 1.5 0 00157.5 172zM177.5 172a1.5 1.5 0 10-.001-3.001A1.5 1.5 0 00177.5 172zM122.5 168a1.5 1.5 0 10-.001-3.001A1.5 1.5 0 00122.5 168zM172.5 168a1.5 1.5 0 10-.001-3.001A1.5 1.5 0 00172.5 168zM192.5 168a1.5 1.5 0 10-.001-3.001A1.5 1.5 0 00192.5 168zM117.5 172a1.5 1.5 0 10-.001-3.001A1.5 1.5 0 00117.5 172zM167.5 172a1.5 1.5 0 10-.001-3.001A1.5 1.5 0 00167.5 172zM187.5 172a1.5 1.5 0 10-.001-3.001A1.5 1.5 0 00187.5 172zM82.5 160a1.5 1.5 0 100-3 1.5 1.5 0 000 3zM132.5 160a1.5 1.5 0 10-.001-3.001A1.5 1.5 0 00132.5 160zM77.5 164a1.5 1.5 0 100-3 1.5 1.5 0 000 3zM127.5 164a1.5 1.5 0 10-.001-3.001A1.5 1.5 0 00127.5 164zM92.5 160a1.5 1.5 0 100-3 1.5 1.5 0 000 3zM142.5 160a1.5 1.5 0 10-.001-3.001A1.5 1.5 0 00142.5 160zM87.5 164a1.5 1.5 0 100-3 1.5 1.5 0 000 3zM137.5 164a1.5 1.5 0 10-.001-3.001A1.5 1.5 0 00137.5 164zM102.5 160a1.5 1.5 0 10-.001-3.001A1.5 1.5 0 00102.5 160zM152.5 160a1.5 1.5 0 10-.001-3.001A1.5 1.5 0 00152.5 160zM97.5 164a1.5 1.5 0 100-3 1.5 1.5 0 000 3zM147.5 164a1.5 1.5 0 10-.001-3.001A1.5 1.5 0 00147.5 164zM112.5 160a1.5 1.5 0 10-.001-3.001A1.5 1.5 0 00112.5 160zM162.5 160a1.5 1.5 0 10-.001-3.001A1.5 1.5 0 00162.5 160zM182.5 160a1.5 1.5 0 10-.001-3.001A1.5 1.5 0 00182.5 160zM107.5 164a1.5 1.5 0 10-.001-3.001A1.5 1.5 0 00107.5 164zM157.5 164a1.5 1.5 0 10-.001-3.001A1.5 1.5 0 00157.5 164zM177.5 164a1.5 1.5 0 10-.001-3.001A1.5 1.5 0 00177.5 164zM122.5 160a1.5 1.5 0 10-.001-3.001A1.5 1.5 0 00122.5 160zM172.5 160a1.5 1.5 0 10-.001-3.001A1.5 1.5 0 00172.5 160zM192.5 160a1.5 1.5 0 10-.001-3.001A1.5 1.5 0 00192.5 160zM117.5 164a1.5 1.5 0 10-.001-3.001A1.5 1.5 0 00117.5 164zM167.5 164a1.5 1.5 0 10-.001-3.001A1.5 1.5 0 00167.5 164zM187.5 164a1.5 1.5 0 10-.001-3.001A1.5 1.5 0 00187.5 164zM82.5 152a1.5 1.5 0 100-3 1.5 1.5 0 000 3zM132.5 152a1.5 1.5 0 10-.001-3.001A1.5 1.5 0 00132.5 152zM77.5 156a1.5 1.5 0 100-3 1.5 1.5 0 000 3zM127.5 156a1.5 1.5 0 10-.001-3.001A1.5 1.5 0 00127.5 156zM92.5 152a1.5 1.5 0 100-3 1.5 1.5 0 000 3zM142.5 152a1.5 1.5 0 10-.001-3.001A1.5 1.5 0 00142.5 152zM87.5 156a1.5 1.5 0 100-3 1.5 1.5 0 000 3zM137.5 156a1.5 1.5 0 10-.001-3.001A1.5 1.5 0 00137.5 156zM102.5 152a1.5 1.5 0 10-.001-3.001A1.5 1.5 0 00102.5 152zM152.5 152a1.5 1.5 0 10-.001-3.001A1.5 1.5 0 00152.5 152zM97.5 156a1.5 1.5 0 100-3 1.5 1.5 0 000 3zM147.5 156a1.5 1.5 0 10-.001-3.001A1.5 1.5 0 00147.5 156zM112.5 152a1.5 1.5 0 10-.001-3.001A1.5 1.5 0 00112.5 152zM162.5 152a1.5 1.5 0 10-.001-3.001A1.5 1.5 0 00162.5 152zM182.5 152a1.5 1.5 0 10-.001-3.001A1.5 1.5 0 00182.5 152zM107.5 156a1.5 1.5 0 10-.001-3.001A1.5 1.5 0 00107.5 156zM157.5 156a1.5 1.5 0 10-.001-3.001A1.5 1.5 0 00157.5 156zM177.5 156a1.5 1.5 0 10-.001-3.001A1.5 1.5 0 00177.5 156zM122.5 152a1.5 1.5 0 10-.001-3.001A1.5 1.5 0 00122.5 152zM172.5 152a1.5 1.5 0 10-.001-3.001A1.5 1.5 0 00172.5 152zM192.5 152a1.5 1.5 0 10-.001-3.001A1.5 1.5 0 00192.5 152zM117.5 156a1.5 1.5 0 10-.001-3.001A1.5 1.5 0 00117.5 156zM167.5 156a1.5 1.5 0 10-.001-3.001A1.5 1.5 0 00167.5 156zM187.5 156a1.5 1.5 0 10-.001-3.001A1.5 1.5 0 00187.5 156zM82.5 144a1.5 1.5 0 100-3 1.5 1.5 0 000 3zM132.5 144a1.5 1.5 0 10-.001-3.001A1.5 1.5 0 00132.5 144zM77.5 148a1.5 1.5 0 100-3 1.5 1.5 0 000 3zM127.5 148a1.5 1.5 0 10-.001-3.001A1.5 1.5 0 00127.5 148zM92.5 144a1.5 1.5 0 100-3 1.5 1.5 0 000 3zM142.5 144a1.5 1.5 0 10-.001-3.001A1.5 1.5 0 00142.5 144zM87.5 148a1.5 1.5 0 100-3 1.5 1.5 0 000 3zM137.5 148a1.5 1.5 0 10-.001-3.001A1.5 1.5 0 00137.5 148zM102.5 144a1.5 1.5 0 10-.001-3.001A1.5 1.5 0 00102.5 144zM152.5 144a1.5 1.5 0 10-.001-3.001A1.5 1.5 0 00152.5 144zM97.5 148a1.5 1.5 0 100-3 1.5 1.5 0 000 3zM147.5 148a1.5 1.5 0 10-.001-3.001A1.5 1.5 0 00147.5 148zM112.5 144a1.5 1.5 0 10-.001-3.001A1.5 1.5 0 00112.5 144zM162.5 144a1.5 1.5 0 10-.001-3.001A1.5 1.5 0 00162.5 144zM182.5 144a1.5 1.5 0 10-.001-3.001A1.5 1.5 0 00182.5 144zM107.5 148a1.5 1.5 0 10-.001-3.001A1.5 1.5 0 00107.5 148zM157.5 148a1.5 1.5 0 10-.001-3.001A1.5 1.5 0 00157.5 148zM177.5 148a1.5 1.5 0 10-.001-3.001A1.5 1.5 0 00177.5 148zM122.5 144a1.5 1.5 0 10-.001-3.001A1.5 1.5 0 00122.5 144zM172.5 144a1.5 1.5 0 10-.001-3.001A1.5 1.5 0 00172.5 144zM192.5 144a1.5 1.5 0 10-.001-3.001A1.5 1.5 0 00192.5 144zM117.5 148a1.5 1.5 0 10-.001-3.001A1.5 1.5 0 00117.5 148zM167.5 148a1.5 1.5 0 10-.001-3.001A1.5 1.5 0 00167.5 148zM187.5 148a1.5 1.5 0 10-.001-3.001A1.5 1.5 0 00187.5 148zM82.5 136a1.5 1.5 0 100-3 1.5 1.5 0 000 3zM132.5 136a1.5 1.5 0 10-.001-3.001A1.5 1.5 0 00132.5 136zM77.5 140a1.5 1.5 0 100-3 1.5 1.5 0 000 3zM127.5 140a1.5 1.5 0 10-.001-3.001A1.5 1.5 0 00127.5 140zM92.5 136a1.5 1.5 0 100-3 1.5 1.5 0 000 3zM142.5 136a1.5 1.5 0 10-.001-3.001A1.5 1.5 0 00142.5 136zM87.5 140a1.5 1.5 0 100-3 1.5 1.5 0 000 3zM137.5 140a1.5 1.5 0 10-.001-3.001A1.5 1.5 0 00137.5 140zM102.5 136a1.5 1.5 0 10-.001-3.001A1.5 1.5 0 00102.5 136zM152.5 136a1.5 1.5 0 10-.001-3.001A1.5 1.5 0 00152.5 136zM97.5 140a1.5 1.5 0 100-3 1.5 1.5 0 000 3zM147.5 140a1.5 1.5 0 10-.001-3.001A1.5 1.5 0 00147.5 140zM112.5 136a1.5 1.5 0 10-.001-3.001A1.5 1.5 0 00112.5 136zM162.5 136a1.5 1.5 0 10-.001-3.001A1.5 1.5 0 00162.5 136zM182.5 136a1.5 1.5 0 10-.001-3.001A1.5 1.5 0 00182.5 136zM107.5 140a1.5 1.5 0 10-.001-3.001A1.5 1.5 0 00107.5 140zM157.5 140a1.5 1.5 0 10-.001-3.001A1.5 1.5 0 00157.5 140zM177.5 140a1.5 1.5 0 10-.001-3.001A1.5 1.5 0 00177.5 140zM122.5 136a1.5 1.5 0 10-.001-3.001A1.5 1.5 0 00122.5 136zM172.5 136a1.5 1.5 0 10-.001-3.001A1.5 1.5 0 00172.5 136zM192.5 136a1.5 1.5 0 10-.001-3.001A1.5 1.5 0 00192.5 136zM117.5 140a1.5 1.5 0 10-.001-3.001A1.5 1.5 0 00117.5 140zM167.5 140a1.5 1.5 0 10-.001-3.001A1.5 1.5 0 00167.5 140zM187.5 140a1.5 1.5 0 10-.001-3.001A1.5 1.5 0 00187.5 140zM82.5 128a1.5 1.5 0 100-3 1.5 1.5 0 000 3zM132.5 128a1.5 1.5 0 10-.001-3.001A1.5 1.5 0 00132.5 128zM77.5 132a1.5 1.5 0 100-3 1.5 1.5 0 000 3zM127.5 132a1.5 1.5 0 10-.001-3.001A1.5 1.5 0 00127.5 132zM92.5 128a1.5 1.5 0 100-3 1.5 1.5 0 000 3zM142.5 128a1.5 1.5 0 10-.001-3.001A1.5 1.5 0 00142.5 128zM87.5 132a1.5 1.5 0 100-3 1.5 1.5 0 000 3zM137.5 132a1.5 1.5 0 10-.001-3.001A1.5 1.5 0 00137.5 132zM102.5 128a1.5 1.5 0 10-.001-3.001A1.5 1.5 0 00102.5 128zM152.5 128a1.5 1.5 0 10-.001-3.001A1.5 1.5 0 00152.5 128zM97.5 132a1.5 1.5 0 100-3 1.5 1.5 0 000 3zM147.5 132a1.5 1.5 0 10-.001-3.001A1.5 1.5 0 00147.5 132zM112.5 128a1.5 1.5 0 10-.001-3.001A1.5 1.5 0 00112.5 128zM162.5 128a1.5 1.5 0 10-.001-3.001A1.5 1.5 0 00162.5 128zM182.5 128a1.5 1.5 0 10-.001-3.001A1.5 1.5 0 00182.5 128zM107.5 132a1.5 1.5 0 10-.001-3.001A1.5 1.5 0 00107.5 132zM157.5 132a1.5 1.5 0 10-.001-3.001A1.5 1.5 0 00157.5 132zM177.5 132a1.5 1.5 0 10-.001-3.001A1.5 1.5 0 00177.5 132zM122.5 128a1.5 1.5 0 10-.001-3.001A1.5 1.5 0 00122.5 128zM172.5 128a1.5 1.5 0 10-.001-3.001A1.5 1.5 0 00172.5 128zM192.5 128a1.5 1.5 0 10-.001-3.001A1.5 1.5 0 00192.5 128zM117.5 132a1.5 1.5 0 10-.001-3.001A1.5 1.5 0 00117.5 132zM167.5 132a1.5 1.5 0 10-.001-3.001A1.5 1.5 0 00167.5 132zM187.5 132a1.5 1.5 0 10-.001-3.001A1.5 1.5 0 00187.5 132zM82.5 120a1.5 1.5 0 100-3 1.5 1.5 0 000 3zM132.5 120a1.5 1.5 0 10-.001-3.001A1.5 1.5 0 00132.5 120zM77.5 124a1.5 1.5 0 100-3 1.5 1.5 0 000 3zM127.5 124a1.5 1.5 0 10-.001-3.001A1.5 1.5 0 00127.5 124zM92.5 120a1.5 1.5 0 100-3 1.5 1.5 0 000 3zM142.5 120a1.5 1.5 0 10-.001-3.001A1.5 1.5 0 00142.5 120zM87.5 124a1.5 1.5 0 100-3 1.5 1.5 0 000 3zM137.5 124a1.5 1.5 0 10-.001-3.001A1.5 1.5 0 00137.5 124zM102.5 120a1.5 1.5 0 10-.001-3.001A1.5 1.5 0 00102.5 120zM152.5 120a1.5 1.5 0 10-.001-3.001A1.5 1.5 0 00152.5 120zM97.5 124a1.5 1.5 0 100-3 1.5 1.5 0 000 3zM147.5 124a1.5 1.5 0 10-.001-3.001A1.5 1.5 0 00147.5 124zM112.5 120a1.5 1.5 0 10-.001-3.001A1.5 1.5 0 00112.5 120zM162.5 120a1.5 1.5 0 10-.001-3.001A1.5 1.5 0 00162.5 120zM182.5 120a1.5 1.5 0 10-.001-3.001A1.5 1.5 0 00182.5 120zM107.5 124a1.5 1.5 0 10-.001-3.001A1.5 1.5 0 00107.5 124zM157.5 124a1.5 1.5 0 10-.001-3.001A1.5 1.5 0 00157.5 124zM177.5 124a1.5 1.5 0 10-.001-3.001A1.5 1.5 0 00177.5 124zM122.5 120a1.5 1.5 0 10-.001-3.001A1.5 1.5 0 00122.5 120zM172.5 120a1.5 1.5 0 10-.001-3.001A1.5 1.5 0 00172.5 120zM192.5 120a1.5 1.5 0 10-.001-3.001A1.5 1.5 0 00192.5 120zM117.5 124a1.5 1.5 0 10-.001-3.001A1.5 1.5 0 00117.5 124zM167.5 124a1.5 1.5 0 10-.001-3.001A1.5 1.5 0 00167.5 124zM187.5 124a1.5 1.5 0 10-.001-3.001A1.5 1.5 0 00187.5 124zM82.5 112a1.5 1.5 0 100-3 1.5 1.5 0 000 3zM132.5 112a1.5 1.5 0 10-.001-3.001A1.5 1.5 0 00132.5 112zM77.5 116a1.5 1.5 0 100-3 1.5 1.5 0 000 3zM127.5 116a1.5 1.5 0 10-.001-3.001A1.5 1.5 0 00127.5 116zM92.5 112a1.5 1.5 0 100-3 1.5 1.5 0 000 3zM142.5 112a1.5 1.5 0 10-.001-3.001A1.5 1.5 0 00142.5 112zM87.5 116a1.5 1.5 0 100-3 1.5 1.5 0 000 3zM137.5 116a1.5 1.5 0 10-.001-3.001A1.5 1.5 0 00137.5 116zM102.5 112a1.5 1.5 0 10-.001-3.001A1.5 1.5 0 00102.5 112zM152.5 112a1.5 1.5 0 10-.001-3.001A1.5 1.5 0 00152.5 112zM97.5 116a1.5 1.5 0 100-3 1.5 1.5 0 000 3zM147.5 116a1.5 1.5 0 10-.001-3.001A1.5 1.5 0 00147.5 116zM112.5 112a1.5 1.5 0 10-.001-3.001A1.5 1.5 0 00112.5 112zM162.5 112a1.5 1.5 0 10-.001-3.001A1.5 1.5 0 00162.5 112zM182.5 112a1.5 1.5 0 10-.001-3.001A1.5 1.5 0 00182.5 112zM107.5 116a1.5 1.5 0 10-.001-3.001A1.5 1.5 0 00107.5 116zM157.5 116a1.5 1.5 0 10-.001-3.001A1.5 1.5 0 00157.5 116zM177.5 116a1.5 1.5 0 10-.001-3.001A1.5 1.5 0 00177.5 116zM122.5 112a1.5 1.5 0 10-.001-3.001A1.5 1.5 0 00122.5 112zM172.5 112a1.5 1.5 0 10-.001-3.001A1.5 1.5 0 00172.5 112zM192.5 112a1.5 1.5 0 10-.001-3.001A1.5 1.5 0 00192.5 112zM117.5 116a1.5 1.5 0 10-.001-3.001A1.5 1.5 0 00117.5 116zM167.5 116a1.5 1.5 0 10-.001-3.001A1.5 1.5 0 00167.5 116zM187.5 116a1.5 1.5 0 10-.001-3.001A1.5 1.5 0 00187.5 116zM82.5 104a1.5 1.5 0 100-3 1.5 1.5 0 000 3zM132.5 104a1.5 1.5 0 10-.001-3.001A1.5 1.5 0 00132.5 104zM77.5 108a1.5 1.5 0 100-3 1.5 1.5 0 000 3zM127.5 108a1.5 1.5 0 10-.001-3.001A1.5 1.5 0 00127.5 108zM92.5 104a1.5 1.5 0 100-3 1.5 1.5 0 000 3zM142.5 104a1.5 1.5 0 10-.001-3.001A1.5 1.5 0 00142.5 104zM87.5 108a1.5 1.5 0 100-3 1.5 1.5 0 000 3zM137.5 108a1.5 1.5 0 10-.001-3.001A1.5 1.5 0 00137.5 108zM102.5 104a1.5 1.5 0 10-.001-3.001A1.5 1.5 0 00102.5 104zM152.5 104a1.5 1.5 0 10-.001-3.001A1.5 1.5 0 00152.5 104zM97.5 108a1.5 1.5 0 100-3 1.5 1.5 0 000 3zM147.5 108a1.5 1.5 0 10-.001-3.001A1.5 1.5 0 00147.5 108zM112.5 104a1.5 1.5 0 10-.001-3.001A1.5 1.5 0 00112.5 104zM162.5 104a1.5 1.5 0 10-.001-3.001A1.5 1.5 0 00162.5 104zM182.5 104a1.5 1.5 0 10-.001-3.001A1.5 1.5 0 00182.5 104zM107.5 108a1.5 1.5 0 10-.001-3.001A1.5 1.5 0 00107.5 108zM157.5 108a1.5 1.5 0 10-.001-3.001A1.5 1.5 0 00157.5 108zM177.5 108a1.5 1.5 0 10-.001-3.001A1.5 1.5 0 00177.5 108zM122.5 104a1.5 1.5 0 10-.001-3.001A1.5 1.5 0 00122.5 104zM172.5 104a1.5 1.5 0 10-.001-3.001A1.5 1.5 0 00172.5 104zM192.5 104a1.5 1.5 0 10-.001-3.001A1.5 1.5 0 00192.5 104zM117.5 108a1.5 1.5 0 10-.001-3.001A1.5 1.5 0 00117.5 108zM167.5 108a1.5 1.5 0 10-.001-3.001A1.5 1.5 0 00167.5 108zM187.5 108a1.5 1.5 0 10-.001-3.001A1.5 1.5 0 00187.5 108zM82.5 96a1.5 1.5 0 100-3 1.5 1.5 0 000 3zM132.5 96a1.5 1.5 0 100-3 1.5 1.5 0 000 3zM77.5 100a1.5 1.5 0 100-3 1.5 1.5 0 000 3zM127.5 100a1.5 1.5 0 100-3 1.5 1.5 0 000 3zM92.5 96a1.5 1.5 0 100-3 1.5 1.5 0 000 3zM142.5 96a1.5 1.5 0 100-3 1.5 1.5 0 000 3zM87.5 100a1.5 1.5 0 100-3 1.5 1.5 0 000 3zM137.5 100a1.5 1.5 0 100-3 1.5 1.5 0 000 3zM102.5 96a1.5 1.5 0 100-3 1.5 1.5 0 000 3zM152.5 96a1.5 1.5 0 100-3 1.5 1.5 0 000 3zM97.5 100a1.5 1.5 0 100-3 1.5 1.5 0 000 3zM147.5 100a1.5 1.5 0 100-3 1.5 1.5 0 000 3zM112.5 96a1.5 1.5 0 100-3 1.5 1.5 0 000 3zM162.5 96a1.5 1.5 0 100-3 1.5 1.5 0 000 3zM182.5 96a1.5 1.5 0 100-3 1.5 1.5 0 000 3zM107.5 100a1.5 1.5 0 100-3 1.5 1.5 0 000 3zM157.5 100a1.5 1.5 0 100-3 1.5 1.5 0 000 3zM177.5 100a1.5 1.5 0 100-3 1.5 1.5 0 000 3zM122.5 96a1.5 1.5 0 100-3 1.5 1.5 0 000 3zM172.5 96a1.5 1.5 0 100-3 1.5 1.5 0 000 3zM192.5 96a1.5 1.5 0 100-3 1.5 1.5 0 000 3zM117.5 100a1.5 1.5 0 100-3 1.5 1.5 0 000 3zM167.5 100a1.5 1.5 0 100-3 1.5 1.5 0 000 3zM187.5 100a1.5 1.5 0 100-3 1.5 1.5 0 000 3zM82.5 88a1.5 1.5 0 100-3 1.5 1.5 0 000 3zM132.5 88a1.5 1.5 0 100-3 1.5 1.5 0 000 3zM77.5 92a1.5 1.5 0 100-3 1.5 1.5 0 000 3zM127.5 92a1.5 1.5 0 100-3 1.5 1.5 0 000 3zM92.5 88a1.5 1.5 0 100-3 1.5 1.5 0 000 3zM142.5 88a1.5 1.5 0 100-3 1.5 1.5 0 000 3zM87.5 92a1.5 1.5 0 100-3 1.5 1.5 0 000 3zM137.5 92a1.5 1.5 0 100-3 1.5 1.5 0 000 3zM102.5 88a1.5 1.5 0 100-3 1.5 1.5 0 000 3zM152.5 88a1.5 1.5 0 100-3 1.5 1.5 0 000 3zM97.5 92a1.5 1.5 0 100-3 1.5 1.5 0 000 3zM147.5 92a1.5 1.5 0 100-3 1.5 1.5 0 000 3zM112.5 88a1.5 1.5 0 100-3 1.5 1.5 0 000 3zM162.5 88a1.5 1.5 0 100-3 1.5 1.5 0 000 3zM182.5 88a1.5 1.5 0 100-3 1.5 1.5 0 000 3zM107.5 92a1.5 1.5 0 100-3 1.5 1.5 0 000 3zM157.5 92a1.5 1.5 0 100-3 1.5 1.5 0 000 3zM177.5 92a1.5 1.5 0 100-3 1.5 1.5 0 000 3zM122.5 88a1.5 1.5 0 100-3 1.5 1.5 0 000 3zM172.5 88a1.5 1.5 0 100-3 1.5 1.5 0 000 3zM192.5 88a1.5 1.5 0 100-3 1.5 1.5 0 000 3zM117.5 92a1.5 1.5 0 100-3 1.5 1.5 0 000 3zM167.5 92a1.5 1.5 0 100-3 1.5 1.5 0 000 3zM187.5 92a1.5 1.5 0 100-3 1.5 1.5 0 000 3zM82.5 80a1.5 1.5 0 100-3 1.5 1.5 0 000 3zM132.5 80a1.5 1.5 0 100-3 1.5 1.5 0 000 3zM77.5 84a1.5 1.5 0 100-3 1.5 1.5 0 000 3zM127.5 84a1.5 1.5 0 100-3 1.5 1.5 0 000 3zM92.5 80a1.5 1.5 0 100-3 1.5 1.5 0 000 3zM142.5 80a1.5 1.5 0 100-3 1.5 1.5 0 000 3zM87.5 84a1.5 1.5 0 100-3 1.5 1.5 0 000 3zM137.5 84a1.5 1.5 0 100-3 1.5 1.5 0 000 3zM102.5 80a1.5 1.5 0 100-3 1.5 1.5 0 000 3zM152.5 80a1.5 1.5 0 100-3 1.5 1.5 0 000 3zM97.5 84a1.5 1.5 0 100-3 1.5 1.5 0 000 3zM147.5 84a1.5 1.5 0 100-3 1.5 1.5 0 000 3zM112.5 80a1.5 1.5 0 100-3 1.5 1.5 0 000 3zM162.5 80a1.5 1.5 0 100-3 1.5 1.5 0 000 3zM182.5 80a1.5 1.5 0 100-3 1.5 1.5 0 000 3zM107.5 84a1.5 1.5 0 100-3 1.5 1.5 0 000 3zM157.5 84a1.5 1.5 0 100-3 1.5 1.5 0 000 3zM177.5 84a1.5 1.5 0 100-3 1.5 1.5 0 000 3zM122.5 80a1.5 1.5 0 100-3 1.5 1.5 0 000 3zM172.5 80a1.5 1.5 0 100-3 1.5 1.5 0 000 3zM192.5 80a1.5 1.5 0 100-3 1.5 1.5 0 000 3zM117.5 84a1.5 1.5 0 100-3 1.5 1.5 0 000 3zM167.5 84a1.5 1.5 0 100-3 1.5 1.5 0 000 3zM187.5 84a1.5 1.5 0 100-3 1.5 1.5 0 000 3zM82.5 72a1.5 1.5 0 100-3 1.5 1.5 0 000 3zM132.5 72a1.5 1.5 0 100-3 1.5 1.5 0 000 3zM77.5 76a1.5 1.5 0 100-3 1.5 1.5 0 000 3zM127.5 76a1.5 1.5 0 100-3 1.5 1.5 0 000 3zM92.5 72a1.5 1.5 0 100-3 1.5 1.5 0 000 3zM142.5 72a1.5 1.5 0 100-3 1.5 1.5 0 000 3zM87.5 76a1.5 1.5 0 100-3 1.5 1.5 0 000 3zM137.5 76a1.5 1.5 0 100-3 1.5 1.5 0 000 3zM102.5 72a1.5 1.5 0 100-3 1.5 1.5 0 000 3zM152.5 72a1.5 1.5 0 100-3 1.5 1.5 0 000 3zM97.5 76a1.5 1.5 0 100-3 1.5 1.5 0 000 3zM147.5 76a1.5 1.5 0 100-3 1.5 1.5 0 000 3zM112.5 72a1.5 1.5 0 100-3 1.5 1.5 0 000 3zM162.5 72a1.5 1.5 0 100-3 1.5 1.5 0 000 3zM182.5 72a1.5 1.5 0 100-3 1.5 1.5 0 000 3zM107.5 76a1.5 1.5 0 100-3 1.5 1.5 0 000 3zM157.5 76a1.5 1.5 0 100-3 1.5 1.5 0 000 3zM177.5 76a1.5 1.5 0 100-3 1.5 1.5 0 000 3zM122.5 72a1.5 1.5 0 100-3 1.5 1.5 0 000 3zM172.5 72a1.5 1.5 0 100-3 1.5 1.5 0 000 3zM192.5 72a1.5 1.5 0 100-3 1.5 1.5 0 000 3zM117.5 76a1.5 1.5 0 100-3 1.5 1.5 0 000 3zM167.5 76a1.5 1.5 0 100-3 1.5 1.5 0 000 3zM187.5 76a1.5 1.5 0 100-3 1.5 1.5 0 000 3zM82.5 64a1.5 1.5 0 100-3 1.5 1.5 0 000 3zM132.5 64a1.5 1.5 0 100-3 1.5 1.5 0 000 3zM77.5 68a1.5 1.5 0 100-3 1.5 1.5 0 000 3zM127.5 68a1.5 1.5 0 100-3 1.5 1.5 0 000 3zM92.5 64a1.5 1.5 0 100-3 1.5 1.5 0 000 3zM142.5 64a1.5 1.5 0 100-3 1.5 1.5 0 000 3zM87.5 68a1.5 1.5 0 100-3 1.5 1.5 0 000 3zM137.5 68a1.5 1.5 0 100-3 1.5 1.5 0 000 3zM102.5 64a1.5 1.5 0 100-3 1.5 1.5 0 000 3zM152.5 64a1.5 1.5 0 100-3 1.5 1.5 0 000 3zM97.5 68a1.5 1.5 0 100-3 1.5 1.5 0 000 3zM147.5 68a1.5 1.5 0 100-3 1.5 1.5 0 000 3zM112.5 64a1.5 1.5 0 100-3 1.5 1.5 0 000 3zM162.5 64a1.5 1.5 0 100-3 1.5 1.5 0 000 3zM182.5 64a1.5 1.5 0 100-3 1.5 1.5 0 000 3zM107.5 68a1.5 1.5 0 100-3 1.5 1.5 0 000 3zM157.5 68a1.5 1.5 0 100-3 1.5 1.5 0 000 3zM177.5 68a1.5 1.5 0 100-3 1.5 1.5 0 000 3zM122.5 64a1.5 1.5 0 100-3 1.5 1.5 0 000 3zM172.5 64a1.5 1.5 0 100-3 1.5 1.5 0 000 3zM192.5 64a1.5 1.5 0 100-3 1.5 1.5 0 000 3zM117.5 68a1.5 1.5 0 100-3 1.5 1.5 0 000 3zM167.5 68a1.5 1.5 0 100-3 1.5 1.5 0 000 3zM187.5 68a1.5 1.5 0 100-3 1.5 1.5 0 000 3z" fill="#FF8A80"/><g filter="url(#filter0_d)"><rect x="10" y="91" width="198" height="63" rx="6.272" fill="#F9FAFC"/></g><path d="M23.18 105.427l-1.286-.173v-.674h3.935v.674l-1.364.173v4.406h5.99v-4.406l-1.301-.173v-.674h3.888v.674l-1.286.173v9.988l1.286.141v.674h-3.904v-.674l1.317-.141v-4.751h-5.99v4.751l1.38.141v.674h-3.998v-.674l1.332-.141v-9.988zm15.26 10.976c-1.213 0-2.149-.413-2.807-1.239-.648-.836-.972-1.944-.972-3.324 0-.888.172-1.678.517-2.368.345-.69.82-1.223 1.427-1.599a3.814 3.814 0 012.07-.58c.93 0 1.651.266 2.164.8.522.533.805 1.301.846 2.305 0 .648-.031 1.108-.094 1.379H36.01c0 1.098.246 1.997.737 2.697.502.69 1.202 1.035 2.101 1.035a4.16 4.16 0 001.349-.235c.46-.157.815-.345 1.066-.564l.25.58c-.302.313-.746.58-1.332.799a5.062 5.062 0 01-1.74.314zm1.834-5.363c.032-.219.047-.449.047-.69-.01-.689-.177-1.238-.502-1.646-.313-.408-.8-.611-1.458-.611-1.432 0-2.21.982-2.336 2.947h4.25zm4.626-5.158c-.564 0-.846-.298-.846-.894 0-.303.088-.549.266-.737.178-.199.418-.298.721-.298.314 0 .539.089.675.267a.961.961 0 01.204.627c0 .324-.09.58-.267.768-.167.178-.413.267-.737.267H44.9zm-1.819 1.709l2.18-.251h.031l.298.251v8.545c0 2.457-.8 3.758-2.399 3.905-.125.01-.298.01-.517 0-.21-.011-.335-.032-.377-.063l-.062-.643c.083.011.209 0 .376-.031.167-.021.34-.063.518-.126.449-.136.763-.491.94-1.066.178-.575.267-1.333.267-2.274l-.016-7.212-1.239-.283v-.752zm7.254 5.033h-.8l-.391-10.223h1.52l-.329 10.223zm-1.301 2.917a.96.96 0 01.313-.722c.22-.198.46-.298.722-.298.292 0 .512.084.658.251a.828.828 0 01.236.612.977.977 0 01-.314.737 1.066 1.066 0 01-.737.282.916.916 0 01-.627-.235c-.167-.157-.251-.366-.251-.627zm7.24-10.961h3.81v.674l-1.442.173 2.728 7.558.659 2.132.596-2.164 2.446-7.526-1.254-.173v-.674h3.308v.674l-1.004.173-3.778 10.929h-1.035l-4.061-10.929-.972-.173v-.674zm11.387 9.361c0-1.014.501-1.746 1.505-2.195 1.003-.46 2.253-.706 3.747-.737v-.486c0-.533-.057-.951-.172-1.254a1.11 1.11 0 00-.564-.675c-.272-.146-.654-.219-1.145-.219a4.05 4.05 0 00-1.458.251c-.429.156-.847.35-1.255.58l-.345-.69c.115-.105.356-.251.721-.439a7.818 7.818 0 011.255-.502c.47-.146.925-.219 1.364-.219.71 0 1.27.099 1.678.298.418.198.716.517.894.956.188.439.282 1.03.282 1.772v5.174h.972v.58c-.575.157-1.061.236-1.458.236-.251 0-.424-.042-.518-.126-.094-.073-.14-.251-.14-.533v-.58c-.377.334-.79.632-1.24.894-.439.251-.94.376-1.505.376-.752 0-1.38-.209-1.881-.627-.492-.418-.737-1.03-.737-1.835zm3.089 1.537c.292 0 .642-.094 1.05-.282a5.647 5.647 0 001.113-.675v-2.775c-1.264.01-2.226.199-2.885.564-.648.366-.972.858-.972 1.474 0 .596.152 1.03.455 1.302.303.261.716.392 1.239.392zm8.994.925a3.267 3.267 0 01-1.709-.47c-.522-.325-.94-.811-1.254-1.459-.314-.648-.47-1.442-.47-2.383 0-.899.182-1.709.548-2.43a4.205 4.205 0 011.553-1.725c.679-.429 1.468-.643 2.367-.643.575 0 1.13.063 1.662.188v-3.105l-1.63-.156v-.565l2.571-.266h.031l.298.219v11.917h.957v.611c-.053.011-.23.053-.533.126-.303.073-.628.11-.973.11-.24 0-.412-.042-.517-.126-.094-.083-.141-.266-.141-.549v-.548a4.142 4.142 0 01-1.192.893c-.46.241-.982.361-1.568.361zm.518-.988c.45 0 .873-.104 1.27-.313.407-.22.71-.46.91-.722v-5.77c-.084-.146-.304-.272-.66-.376a3.806 3.806 0 00-1.113-.157c-.899 0-1.62.324-2.163.972-.544.638-.816 1.61-.816 2.917 0 1.17.24 2.038.722 2.602.48.565 1.097.847 1.85.847zm10.34-11.039l-1.286-.141v-.58l2.243-.266h.015l.298.203v7.793l-.031.988 3.889-3.998-1.177-.22v-.627h3.607v.627l-1.207.22-2.54 2.493 3.12 4.578 1.035.11v.674h-3.591v-.674l1.082-.125-2.462-3.857-1.756 1.724.031.8v1.333l1.208.125v.674h-3.513v-.674l1.035-.125v-11.055zm8.311 9.565c0-1.014.502-1.746 1.506-2.195 1.003-.46 2.252-.706 3.747-.737v-.486c0-.533-.057-.951-.172-1.254a1.11 1.11 0 00-.565-.675c-.272-.146-.653-.219-1.144-.219-.533 0-1.02.083-1.459.251-.428.156-.846.35-1.254.58l-.345-.69c.115-.105.355-.251.721-.439a7.792 7.792 0 011.255-.502c.47-.146.925-.219 1.364-.219.711 0 1.27.099 1.678.298.418.198.716.517.893.956.189.439.283 1.03.283 1.772v5.174h.972v.58c-.575.157-1.061.236-1.458.236-.251 0-.424-.042-.518-.126-.094-.073-.141-.251-.141-.533v-.58a7.67 7.67 0 01-1.239.894c-.439.251-.941.376-1.505.376-.753 0-1.38-.209-1.882-.627-.49-.418-.737-1.03-.737-1.835zm3.089 1.537c.293 0 .643-.094 1.051-.282a5.621 5.621 0 001.113-.675v-2.775c-1.265.01-2.226.199-2.885.564-.648.366-.972.858-.972 1.474 0 .596.152 1.03.455 1.302.303.261.716.392 1.238.392zm6.533-6.915l-1.207-.267v-.705l1.991-.251h.047l.298.251v.69l-.015.392c.386-.335.899-.643 1.536-.925.638-.283 1.229-.424 1.772-.424.669 0 1.181.131 1.537.392.366.251.616.643.752 1.176.147.523.22 1.228.22 2.117v4.437l1.176.11v.674h-3.497v-.674l1.051-.11v-4.453c0-.658-.047-1.176-.141-1.552-.084-.376-.256-.659-.518-.847-.251-.198-.622-.298-1.113-.298-.418 0-.873.105-1.364.314a5.609 5.609 0 00-1.255.737v6.084l1.145.125v.674h-3.465v-.674l1.05-.125v-6.868zm14.781-2.681c-.565 0-.847-.298-.847-.894 0-.303.089-.549.267-.737.177-.199.418-.298.721-.298.313 0 .538.089.674.267a.96.96 0 01.204.627c0 .324-.089.58-.267.768-.167.178-.413.267-.737.267h-.015zm-1.819 1.709l2.179-.251h.032l.298.251v8.545c0 2.457-.8 3.758-2.399 3.905-.126.01-.298.01-.518 0-.209-.011-.334-.032-.376-.063l-.063-.643c.084.011.209 0 .376-.031a2.47 2.47 0 00.518-.126c.449-.136.763-.491.941-1.066.177-.575.266-1.333.266-2.274l-.015-7.212-1.239-.283v-.752zm4.933 6.35c0-1.014.502-1.746 1.505-2.195 1.004-.46 2.253-.706 3.748-.737v-.486c0-.533-.058-.951-.173-1.254a1.106 1.106 0 00-.564-.675c-.272-.146-.653-.219-1.145-.219a4.05 4.05 0 00-1.458.251c-.429.156-.847.35-1.254.58l-.345-.69c.115-.105.355-.251.721-.439a7.832 7.832 0 011.254-.502 4.596 4.596 0 011.364-.219c.711 0 1.271.099 1.678.298.418.198.716.517.894.956.188.439.282 1.03.282 1.772v5.174h.972v.58c-.575.157-1.061.236-1.458.236-.251 0-.423-.042-.517-.126-.094-.073-.141-.251-.141-.533v-.58a7.76 7.76 0 01-1.239.894c-.439.251-.941.376-1.505.376-.753 0-1.38-.209-1.882-.627-.491-.418-.737-1.03-.737-1.835zm3.089 1.537c.293 0 .643-.094 1.051-.282a5.68 5.68 0 001.113-.675v-2.775c-1.265.01-2.227.199-2.885.564-.648.366-.972.858-.972 1.474 0 .596.151 1.03.454 1.302.303.261.716.392 1.239.392zm9.261 4.986c-2.467 0-3.7-.784-3.7-2.352 0-.47.141-.899.423-1.286.293-.386.638-.69 1.035-.909-.491-.261-.737-.695-.737-1.302 0-.386.11-.747.329-1.081.22-.345.502-.607.847-.784a2.796 2.796 0 01-1.16-.973c-.272-.428-.408-.925-.408-1.489 0-.607.167-1.134.502-1.584.334-.46.768-.81 1.301-1.05a4.136 4.136 0 011.694-.361c.972 0 1.751.214 2.336.643.157-.147.397-.288.721-.424.335-.146.69-.219 1.066-.219h.518v1.16h-1.788c.304.418.455.925.455 1.521 0 .617-.157 1.166-.47 1.647-.314.47-.737.836-1.27 1.097a3.843 3.843 0 01-1.741.392c-.428 0-.82-.047-1.176-.141a1.79 1.79 0 00-.455.517 1.19 1.19 0 00-.156.581c0 .397.125.674.376.831.261.156.711.235 1.348.235h1.851c.972 0 1.688.188 2.148.564.47.377.705.905.705 1.584 0 .565-.203 1.087-.611 1.568-.408.491-.967.883-1.678 1.176-.7.293-1.469.439-2.305.439zm.11-8.122c1.328 0 1.991-.732 1.991-2.195 0-1.391-.69-2.086-2.069-2.086-1.38 0-2.07.685-2.07 2.054 0 .659.178 1.197.533 1.615.355.408.894.612 1.615.612zm-.031 7.322c.564 0 1.102-.083 1.615-.25.512-.157.925-.392 1.238-.706.314-.303.471-.659.471-1.066 0-.324-.053-.586-.157-.784-.094-.199-.288-.356-.58-.471-.282-.104-.695-.157-1.239-.157h-1.944c-.502 0-.884-.031-1.145-.094-.512.492-.768 1.067-.768 1.725 0 .596.188 1.046.564 1.349.377.303 1.025.454 1.945.454zm10.191-15.288l-1.395-.141v-.58l2.32-.266h.032l.298.203v3.732l-.032 1.302c.335-.303.805-.596 1.412-.878.606-.283 1.202-.424 1.787-.424.659 0 1.171.126 1.537.377.366.25.622.642.768 1.176.146.522.22 1.233.22 2.132v4.422l1.144.125v.674h-3.512v-.674l1.098-.125v-4.438c0-.669-.048-1.191-.142-1.568-.083-.376-.256-.658-.517-.846-.261-.189-.643-.283-1.145-.283-.418 0-.867.105-1.348.314a5.532 5.532 0 00-1.27.721v6.1l1.16.125v.674h-3.402v-.674l.987-.11v-11.07zm11.123 1.506c-.565 0-.847-.298-.847-.894 0-.303.089-.549.267-.737.177-.199.418-.298.721-.298.314 0 .538.089.674.267a.96.96 0 01.204.627c0 .324-.089.58-.266.768-.168.178-.413.267-.737.267h-.016zm-1.819 1.709l2.18-.251h.031l.298.251v8.545c0 2.457-.8 3.758-2.399 3.905-.126.01-.298.01-.518 0-.209-.011-.334-.032-.376-.063l-.063-.643c.084.011.209 0 .377-.031.167-.021.339-.063.517-.126.45-.136.763-.491.941-1.066.178-.575.266-1.333.266-2.274l-.015-7.212-1.239-.283v-.752zm4.933 6.35c0-1.014.502-1.746 1.505-2.195 1.004-.46 2.253-.706 3.748-.737v-.486c0-.533-.058-.951-.172-1.254a1.11 1.11 0 00-.565-.675c-.272-.146-.653-.219-1.145-.219a4.05 4.05 0 00-1.458.251c-.428.156-.847.35-1.254.58l-.345-.69c.115-.105.355-.251.721-.439a7.832 7.832 0 011.254-.502 4.602 4.602 0 011.365-.219c.71 0 1.27.099 1.677.298.419.198.716.517.894.956.188.439.282 1.03.282 1.772v5.174h.973v.58c-.575.157-1.061.236-1.459.236-.251 0-.423-.042-.517-.126-.094-.073-.141-.251-.141-.533v-.58a7.715 7.715 0 01-1.239.894c-.439.251-.941.376-1.505.376-.753 0-1.38-.209-1.882-.627-.491-.418-.737-1.03-.737-1.835zm3.089 1.537c.293 0 .643-.094 1.051-.282a5.68 5.68 0 001.113-.675v-2.775c-1.265.01-2.227.199-2.885.564-.648.366-.972.858-.972 1.474 0 .596.151 1.03.454 1.302.304.261.716.392 1.239.392zm-1.442-9.628a.733.733 0 01-.581-.251c-.146-.167-.219-.381-.219-.642 0-.283.078-.523.235-.722.167-.209.397-.313.69-.313.251 0 .45.094.596.282a.917.917 0 01.235.627c0 .293-.084.538-.251.737-.167.188-.402.282-.705.282zm3.402 0a.712.712 0 01-.564-.251.973.973 0 01-.22-.642c0-.283.079-.523.235-.722.168-.209.398-.313.69-.313.251 0 .45.094.596.282a.917.917 0 01.235.627c0 .293-.083.538-.251.737-.167.188-.407.282-.721.282zm4.871-1.474l-1.333-.141v-.58l2.289-.266h.016l.298.203v11.854l1.474.11v.674h-4.124v-.674l1.38-.125v-11.055zm12.232 7.182c0 .899-.183 1.719-.549 2.462a4.281 4.281 0 01-1.568 1.74c-.669.429-1.437.643-2.305.643-.292 0-.601-.026-.925-.078a4.061 4.061 0 01-.8-.173l.032 1.333v1.693l1.74.157v.69h-4.202v-.69l1.207-.157v-10.615l-1.223-.267v-.705l2.007-.251h.032l.282.251v.956a4.467 4.467 0 011.223-.878 3.436 3.436 0 011.615-.376c.606 0 1.171.151 1.694.455.522.303.94.773 1.254 1.411.324.637.486 1.437.486 2.399zm-3.951-3.309c-.45 0-.868.094-1.255.283-.387.188-.69.397-.909.627v5.974c.083.136.292.261.627.376.345.105.721.157 1.129.157.899 0 1.62-.329 2.164-.988.554-.669.831-1.651.831-2.948 0-1.16-.246-2.028-.737-2.603-.481-.585-1.098-.878-1.85-.878zm5.472 5.692c0-1.014.502-1.746 1.506-2.195 1.003-.46 2.252-.706 3.747-.737v-.486c0-.533-.057-.951-.172-1.254a1.11 1.11 0 00-.565-.675c-.272-.146-.653-.219-1.144-.219-.534 0-1.02.083-1.459.251-.428.156-.846.35-1.254.58l-.345-.69c.115-.105.355-.251.721-.439a7.807 7.807 0 011.255-.502c.47-.146.925-.219 1.364-.219.711 0 1.27.099 1.678.298.418.198.716.517.893.956.188.439.283 1.03.283 1.772v5.174h.972v.58c-.575.157-1.061.236-1.459.236-.25 0-.423-.042-.517-.126-.094-.073-.141-.251-.141-.533v-.58a7.67 7.67 0 01-1.239.894c-.439.251-.941.376-1.505.376-.753 0-1.38-.209-1.882-.627-.491-.418-.737-1.03-.737-1.835zm3.089 1.537c.293 0 .643-.094 1.051-.282a5.621 5.621 0 001.113-.675v-2.775c-1.265.01-2.226.199-2.885.564-.648.366-.972.858-.972 1.474 0 .596.151 1.03.455 1.302.303.261.716.392 1.238.392zm-165.63 22.925c-.555 0-.973-.125-1.255-.376-.282-.262-.424-.722-.424-1.38v-6.194H21.55v-.611c.523-.115.826-.199.91-.251.156-.084.271-.246.344-.486.063-.157.146-.439.251-.847.105-.408.183-.727.235-.956h.722v2.226h2.775v.925H24.01v5.081c0 .606.02 1.034.062 1.285.042.241.126.397.251.471.126.073.345.109.659.109.303 0 .643-.041 1.019-.125.376-.084.659-.172.847-.267l.203.596c-.24.188-.637.371-1.191.549-.554.167-1.035.251-1.443.251zm5.491-10.521c-.564 0-.847-.298-.847-.894 0-.303.09-.549.267-.737.178-.199.418-.298.721-.298.314 0 .539.089.675.267a.961.961 0 01.203.627c0 .324-.088.58-.266.768-.168.178-.413.267-.737.267h-.016zm-.502 2.681l-1.223-.267v-.705l2.149-.251h.03l.314.251v7.855l1.365.11v.674h-4.014v-.674l1.38-.125v-6.868zm5.037-4.187l-1.333-.141v-.58l2.29-.266h.015l.298.203v11.854l1.474.11v.674h-4.124v-.674l1.38-.125v-11.055zm5.16 0l-1.332-.141v-.58l2.289-.266h.016l.297.203v11.854l1.474.11v.674h-4.123v-.674l1.38-.125v-11.055zm7.58 11.18l1.004-.125v-6.868l-1.208-.267v-.705l1.992-.251.345.251v.69l-.016.392c.387-.335.894-.643 1.521-.925.627-.283 1.197-.424 1.71-.424.564 0 1.013.094 1.348.282.345.189.606.481.784.879.324-.272.794-.534 1.41-.784.628-.251 1.203-.377 1.726-.377.658 0 1.165.126 1.52.377.366.25.623.637.769 1.16.146.523.22 1.228.22 2.117v4.453l1.191.125v.674H57.99v-.674l1.066-.125v-4.406c0-.659-.047-1.182-.141-1.568-.094-.387-.277-.68-.549-.878-.272-.199-.669-.298-1.192-.298-.386 0-.794.089-1.223.266a5.068 5.068 0 00-1.082.58c.105.481.157 1.108.157 1.882v4.422l1.192.125v.674h-3.59v-.674l1.128-.125v-4.438c0-.669-.042-1.191-.125-1.568-.074-.376-.236-.658-.486-.846-.251-.189-.622-.283-1.114-.283-.407 0-.852.105-1.332.314-.47.199-.884.439-1.24.721v6.1l1.114.125v.674h-3.387v-.674zm19.261.847c-1.212 0-2.148-.413-2.807-1.239-.648-.836-.972-1.944-.972-3.324 0-.888.173-1.678.518-2.368.345-.69.82-1.223 1.427-1.599a3.814 3.814 0 012.07-.58c.93 0 1.651.266 2.163.8.523.533.805 1.301.847 2.305 0 .648-.031 1.108-.094 1.379h-5.582c0 1.098.245 1.997.737 2.697.501.69 1.202 1.035 2.1 1.035.44 0 .89-.078 1.35-.235.46-.157.815-.345 1.066-.564l.25.58c-.303.313-.747.58-1.332.799a5.062 5.062 0 01-1.74.314zm1.835-5.363c.031-.219.047-.449.047-.69-.01-.689-.178-1.238-.502-1.646-.314-.408-.8-.611-1.458-.611-1.432 0-2.211.982-2.337 2.947h4.25zm6.272 5.363a3.267 3.267 0 01-1.709-.47c-.522-.325-.94-.811-1.254-1.459-.314-.648-.47-1.442-.47-2.383 0-.899.182-1.709.548-2.43a4.205 4.205 0 011.552-1.725c.68-.429 1.47-.643 2.368-.643.575 0 1.13.063 1.662.188v-3.105l-1.63-.156v-.565l2.571-.266h.031l.298.219v11.917h.957v.611c-.052.011-.23.053-.533.126-.303.073-.627.11-.972.11-.24 0-.413-.042-.518-.126-.094-.083-.141-.266-.141-.549v-.548a4.142 4.142 0 01-1.192.893c-.46.241-.982.361-1.568.361zm.518-.988c.45 0 .873-.104 1.27-.313.408-.22.71-.46.91-.722v-5.77c-.084-.146-.304-.272-.66-.376a3.805 3.805 0 00-1.113-.157c-.898 0-1.62.324-2.163.972-.544.638-.816 1.61-.816 2.917 0 1.17.24 2.038.722 2.602.48.565 1.097.847 1.85.847zm11.281-9.533c-.564 0-.847-.298-.847-.894 0-.303.09-.549.267-.737.178-.199.418-.298.721-.298.314 0 .538.089.674.267a.961.961 0 01.204.627c0 .324-.089.58-.266.768-.168.178-.413.267-.737.267h-.016zm-.502 2.681l-1.223-.267v-.705l2.148-.251h.032l.313.251v7.855l1.364.11v.674H84.47v-.674l1.38-.125v-6.868zm7.2 7.84a3.267 3.267 0 01-1.708-.47c-.523-.325-.941-.811-1.255-1.459-.313-.648-.47-1.442-.47-2.383 0-.899.183-1.709.549-2.43a4.205 4.205 0 011.552-1.725c.68-.429 1.469-.643 2.368-.643.575 0 1.129.063 1.662.188v-3.105l-1.63-.156v-.565l2.57-.266h.032l.298.219v11.917h.956v.611c-.052.011-.23.053-.533.126-.303.073-.627.11-.972.11-.24 0-.413-.042-.517-.126-.094-.083-.141-.266-.141-.549v-.548a4.142 4.142 0 01-1.192.893c-.46.241-.983.361-1.568.361zm.518-.988c.45 0 .873-.104 1.27-.313.408-.22.711-.46.91-.722v-5.77c-.084-.146-.303-.272-.659-.376a3.805 3.805 0 00-1.113-.157c-.899 0-1.62.324-2.164.972-.543.638-.815 1.61-.815 2.917 0 1.17.24 2.038.721 2.602.48.565 1.098.847 1.85.847zm5.82-1.474c0-1.014.502-1.746 1.505-2.195 1.004-.46 2.253-.706 3.748-.737v-.486c0-.533-.058-.951-.173-1.254a1.106 1.106 0 00-.564-.675c-.272-.146-.653-.219-1.145-.219a4.05 4.05 0 00-1.458.251c-.429.156-.847.35-1.254.58l-.345-.69c.115-.105.355-.251.721-.439a7.832 7.832 0 011.254-.502 4.602 4.602 0 011.365-.219c.71 0 1.27.099 1.677.298.418.198.716.517.894.956.188.439.282 1.03.282 1.772v5.174h.972v.58c-.574.157-1.061.236-1.458.236-.251 0-.423-.042-.517-.126-.094-.073-.141-.251-.141-.533v-.58a7.76 7.76 0 01-1.239.894c-.439.251-.941.376-1.505.376-.753 0-1.38-.209-1.882-.627-.491-.418-.737-1.03-.737-1.835zm3.089 1.537c.293 0 .643-.094 1.051-.282a5.68 5.68 0 001.113-.675v-2.775c-1.265.01-2.227.199-2.885.564-.648.366-.972.858-.972 1.474 0 .596.151 1.03.454 1.302.304.261.716.392 1.239.392zm9.261 4.986c-2.467 0-3.7-.784-3.7-2.352 0-.47.141-.899.423-1.286.293-.386.638-.69 1.035-.909-.491-.261-.737-.695-.737-1.302 0-.386.11-.747.329-1.081.22-.345.502-.607.847-.784a2.796 2.796 0 01-1.16-.973c-.272-.428-.408-.925-.408-1.489 0-.607.167-1.134.502-1.584.334-.46.768-.81 1.301-1.05a4.136 4.136 0 011.694-.361c.972 0 1.751.214 2.336.643.157-.147.397-.288.721-.424a2.64 2.64 0 011.067-.219h.517v1.16h-1.787c.303.418.454.925.454 1.521 0 .617-.157 1.166-.47 1.647-.314.47-.737.836-1.27 1.097a3.843 3.843 0 01-1.741.392c-.428 0-.82-.047-1.176-.141a1.786 1.786 0 00-.454.517 1.18 1.18 0 00-.157.581c0 .397.125.674.376.831.261.156.711.235 1.349.235h1.85c.972 0 1.688.188 2.148.564.47.377.706.905.706 1.584 0 .565-.204 1.087-.612 1.568-.408.491-.967.883-1.678 1.176-.7.293-1.468.439-2.305.439zm.11-8.122c1.328 0 1.991-.732 1.991-2.195 0-1.391-.689-2.086-2.069-2.086s-2.07.685-2.07 2.054c0 .659.178 1.197.533 1.615.355.408.894.612 1.615.612zm-.031 7.322c.564 0 1.103-.083 1.615-.25.512-.157.925-.392 1.238-.706.314-.303.471-.659.471-1.066 0-.324-.052-.586-.157-.784-.094-.199-.287-.356-.58-.471-.282-.104-.695-.157-1.239-.157h-1.944c-.502 0-.883-.031-1.145-.094-.512.492-.768 1.067-.768 1.725 0 .596.188 1.046.564 1.349.377.303 1.025.454 1.945.454zm7.521-7.103c-.24-.595-.387-1.327-.439-2.195 0-.439.162-.81.486-1.113.335-.314.821-.659 1.458-1.035a9.067 9.067 0 001.098-.721c.261-.209.439-.439.533-.69v-.894c0-.502-.157-.977-.47-1.427-.303-.449-.737-.81-1.302-1.082-.564-.282-1.223-.423-1.975-.423-.471 0-.863.068-1.176.204l-.204-.816c.167-.094.407-.172.721-.235.324-.063.638-.094.941-.094 1.526 0 2.655.355 3.387 1.066.742.711 1.113 1.647 1.113 2.807 0 .47-.099.894-.298 1.27a3.57 3.57 0 01-.721.957 14.59 14.59 0 01-1.066.909c-.345.272-.607.491-.784.659a1.996 1.996 0 00-.408.517v.078c0 .962.021 1.715.063 2.258h-.957zm.016 3.842a.914.914 0 01-.627-.235c-.168-.157-.251-.366-.251-.627 0-.283.104-.523.313-.722.22-.198.46-.298.722-.298.292 0 .512.084.658.251a.828.828 0 01.235.612.977.977 0 01-.313.737 1.067 1.067 0 01-.737.282z" fill="#0F007A"/><path fill-rule="evenodd" clip-rule="evenodd" d="M40.023 79.997h4.902v-11.88h-4.902v11.88z" fill="#1BE9B6"/><path fill-rule="evenodd" clip-rule="evenodd" d="M44.922 68.118h-4.9c0-4.023-3.168-7.298-7.06-7.298-3.894 0-7.06 3.275-7.06 7.298H21c0-6.816 5.366-12.363 11.962-12.363 6.595 0 11.96 5.546 11.96 12.363z" fill="#651EFF"/><path fill-rule="evenodd" clip-rule="evenodd" d="M21 80h4.901V46H21v34z" fill="#0F007A"/><path fill-rule="evenodd" clip-rule="evenodd" d="M21 79.997h4.901v-11.88H21v11.88z" fill="#FF8A80"/><defs><filter id="filter0_d" x="7" y="89" width="204" height="69" filterUnits="userSpaceOnUse" color-interpolation-filters="sRGB"><feFlood flood-opacity="0" result="BackgroundImageFix"/><feColorMatrix in="SourceAlpha" values="0 0 0 0 0 0 0 0 0 0 0 0 0 0 0 0 0 0 127 0"/><feOffset dy="1"/><feGaussianBlur stdDeviation="1.5"/><feColorMatrix values="0 0 0 0 0 0 0 0 0 0 0 0 0 0 0 0 0 0 0.1 0"/><feBlend in2="BackgroundImageFix" result="effect1_dropShadow"/><feBlend in="SourceGraphic" in2="effect1_dropShadow" result="shape"/></filter></defs></svg>