<svg width="48" height="48" viewBox="0 0 48 48" fill="none" xmlns="http://www.w3.org/2000/svg"><mask id="a" maskUnits="userSpaceOnUse" x="0" y="0" width="48" height="48"><path fill-rule="evenodd" clip-rule="evenodd" d="M0 0h48v48H0V0z" fill="#fff"/></mask><g mask="url(#a)"><path fill-rule="evenodd" clip-rule="evenodd" d="M48 24c0 13.255-10.745 24-24 24S0 37.255 0 24 10.745 0 24 0s24 10.745 24 24" fill="#1BE9B6"/></g><path fill-rule="evenodd" clip-rule="evenodd" d="M33.628 22.47h-1v-7.974c0-.766-.683-1.389-1.522-1.389H16.894c-.839 0-1.522.623-1.522 1.39v7.973h-1v-7.974c0-1.317 1.131-2.389 2.522-2.389h14.212c1.39 0 2.522 1.072 2.522 2.39v7.973z" fill="#fff"/><mask id="b" maskUnits="userSpaceOnUse" x="0" y="0" width="48" height="48"><path fill-rule="evenodd" clip-rule="evenodd" d="M0 48h48V0H0v48z" fill="#fff"/></mask><g mask="url(#b)" fill-rule="evenodd" clip-rule="evenodd" fill="#fff"><path d="M8.727 22.471h30.547v-1H8.727v1zM14.108 26.508v6.58c0 .59.275 1.125.755 1.467.48.344 1.076.43 1.632.238L24 32.296l7.502 2.496a1.782 1.782 0 001.635-.237 1.78 1.78 0 00.755-1.466v-6.581H14.108zm1.794 9.387a2.774 2.774 0 01-1.62-.526 2.77 2.77 0 01-1.174-2.28v-7.581h21.785v7.58a2.77 2.77 0 01-1.174 2.28 2.774 2.774 0 01-2.537.37L24 33.35l-7.186 2.39a2.814 2.814 0 01-.913.155z"/><path d="M20.373 31.222l-3.532-1.855.465-.886 3.532 1.855-.465.886zM27.621 31.222l-.465-.886 3.532-1.855.465.886-3.532 1.855z"/></g></svg>