<svg width="48" height="48" viewBox="0 0 48 48" xmlns="http://www.w3.org/2000/svg"><g fill="none" fill-rule="evenodd"><path d="M48 24c0 13.255-10.745 24-24 24S0 37.255 0 24 10.745 0 24 0s24 10.745 24 24" fill="#FFDCDA" fill-rule="nonzero"/><g transform="translate(11 13)"><path stroke="#FFF" d="M18 5h5M26 5h2"/><rect fill="#FFF" fill-rule="nonzero" x="24" width="1" height="10" rx=".5"/><path stroke="#FFF" d="M9 13h3M15.5 8h0a3 3 0 000-6"/><rect fill="#FFF" fill-rule="nonzero" x="21" y="12" width="2" height="2" rx="1"/><rect fill="#FFF" fill-rule="nonzero" x="20" y="15" width="2" height="2" rx="1"/><rect fill="#FFF" fill-rule="nonzero" x="21" y="18" width="2" height="2" rx="1"/><rect fill="#FFF" fill-rule="nonzero" transform="rotate(90 5 6.5)" x="4.5" y="4.5" width="1" height="4" rx=".5"/><rect fill="#FFF" fill-rule="nonzero" transform="rotate(90 5 3.5)" x="4.5" y="1.5" width="1" height="4" rx=".5"/><path stroke="#FFF" d="M5.25 9.5H10l-2.25 8H3zM15.578 9.5H1.733c-.608 0-1.1-.504-1.1-1.125v-6.75c0-.621.492-1.125 1.1-1.125h13.9l-.055 9z"/><rect stroke="#FFF" y="17.5" width="11" height="4" rx="1"/></g></g></svg>