<svg width="48" height="48" viewBox="0 0 48 48" fill="none" xmlns="http://www.w3.org/2000/svg"><g opacity=".3"><mask id="a" maskUnits="userSpaceOnUse" x="0" y="0" width="48" height="48"><path fill-rule="evenodd" clip-rule="evenodd" d="M0 0h48v48H0V0z" fill="#fff"/></mask><g mask="url(#a)"><path fill-rule="evenodd" clip-rule="evenodd" d="M48 24c0 13.255-10.745 24-24 24S0 37.255 0 24 10.745 0 24 0s24 10.745 24 24z" fill="#FF8A80"/></g><mask id="b" maskUnits="userSpaceOnUse" x="0" y="0" width="48" height="48"><path fill-rule="evenodd" clip-rule="evenodd" d="M0 48h48V0H0v48z" fill="#fff"/></mask><g mask="url(#b)" fill-rule="evenodd" clip-rule="evenodd" fill="#fff"><path d="M20.067 36.111h1v-4.445h-1v4.445zM35.286 24.476c-.719 1.492-1.323 2.9-1.323 3.682a1.326 1.326 0 002.651 0c0-.758-.55-2.054-1.328-3.682zm.003 6.006a2.329 2.329 0 01-2.326-2.324c0-1.056.66-2.588 1.878-5.047l.452-.91.445.913c1.133 2.323 1.876 3.93 1.876 5.044a2.327 2.327 0 01-2.325 2.324zM35.267 13.611a2.503 2.503 0 00-2.5 2.5c0 1.378 1.12 2.5 2.5 2.5 1.379 0 2.5-1.122 2.5-2.5s-1.121-2.5-2.5-2.5zm0 6c-1.93 0-3.5-1.57-3.5-3.5s1.57-3.5 3.5-3.5 3.5 1.57 3.5 3.5-1.57 3.5-3.5 3.5z"/><path d="M20.566 37.388c-5.146 0-9.333-4.187-9.333-9.333V12.888h7v15.167a2.336 2.336 0 002.333 2.333 2.336 2.336 0 002.334-2.333V18.11a5.505 5.505 0 015.498-5.499h6.868v1h-6.868a4.504 4.504 0 00-4.498 4.5v9.945a3.337 3.337 0 01-3.334 3.333 3.337 3.337 0 01-3.333-3.333V13.888h-5v14.167c0 4.595 3.738 8.333 8.333 8.333 4.596 0 8.334-3.738 8.334-8.333V18.61h6.366v1H29.9v8.445c0 5.146-4.188 9.333-9.334 9.333z"/></g></g></svg>