<svg width="48" height="48" viewBox="0 0 48 48" fill="none" xmlns="http://www.w3.org/2000/svg">
<g opacity="0.3">
<mask id="mask0" mask-type="alpha" maskUnits="userSpaceOnUse" x="0" y="0" width="48" height="48">
<path fill-rule="evenodd" clip-rule="evenodd" d="M0 0H47.9999V47.9998H0V0Z" fill="white"/>
</mask>
<g mask="url(#mask0)">
<path fill-rule="evenodd" clip-rule="evenodd" d="M48 24C48 37.255 37.255 48 24 48C10.745 48 0 37.255 0 24C0 10.745 10.745 0 24 0C37.255 0 48 10.745 48 24Z" fill="#FF8A80"/>
</g>
<mask id="mask1" mask-type="alpha" maskUnits="userSpaceOnUse" x="0" y="0" width="48" height="48">
<path fill-rule="evenodd" clip-rule="evenodd" d="M0 48H48V0H0V48Z" fill="white"/>
</mask>
<g mask="url(#mask1)">
<path fill-rule="evenodd" clip-rule="evenodd" d="M20.0669 36.111H21.0669V31.666H20.0669V36.111Z" fill="white"/>
<path fill-rule="evenodd" clip-rule="evenodd" d="M35.2864 24.4761C34.5674 25.9681 33.9634 27.3751 33.9634 28.1581C33.9644 28.8881 34.5584 29.4821 35.2894 29.4821C36.0194 29.4821 36.6144 28.8881 36.6144 28.1581C36.6144 27.4001 36.0644 26.1041 35.2864 24.4761ZM35.2894 30.4822C34.0084 30.4822 32.9644 29.4402 32.9634 28.1582C32.9634 27.1022 33.6234 25.5702 34.8414 23.1112L35.2934 22.2002L35.7384 23.1142C36.8714 25.4372 37.6144 27.0432 37.6144 28.1582C37.6144 29.4392 36.5714 30.4822 35.2894 30.4822Z" fill="white"/>
<path fill-rule="evenodd" clip-rule="evenodd" d="M35.2666 13.6113C33.8876 13.6113 32.7666 14.7333 32.7666 16.1113C32.7666 17.4893 33.8876 18.6113 35.2666 18.6113C36.6456 18.6113 37.7666 17.4893 37.7666 16.1113C37.7666 14.7333 36.6456 13.6113 35.2666 13.6113ZM35.2666 19.6113C33.3366 19.6113 31.7666 18.0413 31.7666 16.1113C31.7666 14.1813 33.3366 12.6113 35.2666 12.6113C37.1966 12.6113 38.7666 14.1813 38.7666 16.1113C38.7666 18.0413 37.1966 19.6113 35.2666 19.6113Z" fill="white"/>
<path fill-rule="evenodd" clip-rule="evenodd" d="M20.5664 37.3884C15.4204 37.3884 11.2334 33.2014 11.2334 28.0554V12.8884H18.2334V28.0554C18.2334 29.3424 19.2804 30.3884 20.5664 30.3884C21.8534 30.3884 22.9004 29.3424 22.9004 28.0554V18.1094C22.9004 15.0774 25.3674 12.6104 28.3984 12.6104H35.2664V13.6104H28.3984C25.9184 13.6104 23.9004 15.6284 23.9004 18.1094V28.0554C23.9004 29.8934 22.4044 31.3884 20.5664 31.3884C18.7284 31.3884 17.2334 29.8934 17.2334 28.0554V13.8884H12.2334V28.0554C12.2334 32.6504 15.9714 36.3884 20.5664 36.3884C25.1624 36.3884 28.9004 32.6504 28.9004 28.0554V18.6104H35.2664V19.6104H29.9004V28.0554C29.9004 33.2014 25.7124 37.3884 20.5664 37.3884Z" fill="white"/>
</g>
</g>
</svg>
