<svg width="48" height="47" viewBox="0 0 48 47" fill="none" xmlns="http://www.w3.org/2000/svg"><mask id="a" maskUnits="userSpaceOnUse" x="0" y="0" width="49" height="47"><path fill-rule="evenodd" clip-rule="evenodd" d="M0 .232h48v46.563H0V.232z" fill="#fff"/></mask><g mask="url(#a)"><path fill-rule="evenodd" clip-rule="evenodd" d="M48 23.514c0 12.858-10.745 23.281-24 23.281S0 36.372 0 23.514C0 10.656 10.745.232 24 .232s24 10.424 24 23.282z" fill="#FF8A80"/></g><mask id="b" maskUnits="userSpaceOnUse" x="0" y="0" width="48" height="47"><path fill-rule="evenodd" clip-rule="evenodd" d="M0 46.795h48V.232H0v46.563z" fill="#fff"/></mask><g mask="url(#b)" fill-rule="evenodd" clip-rule="evenodd" fill="#fff"><path d="M20.067 35.262h1V30.95h-1v4.312zM35.286 23.976c-.719 1.447-1.323 2.812-1.323 3.572.001.708.595 1.284 1.326 1.284.73 0 1.325-.576 1.325-1.284 0-.736-.55-1.993-1.328-3.572zm.003 5.826c-1.28 0-2.325-1.01-2.326-2.254 0-1.025.66-2.51 1.878-4.896l.452-.884.445.887c1.133 2.253 1.876 3.811 1.876 4.893 0 1.242-1.043 2.254-2.325 2.254zM35.267 13.436c-1.38 0-2.5 1.088-2.5 2.425 0 1.337 1.12 2.425 2.5 2.425 1.379 0 2.5-1.088 2.5-2.425 0-1.337-1.121-2.425-2.5-2.425zm0 5.82c-1.93 0-3.5-1.523-3.5-3.395s1.57-3.395 3.5-3.395 3.5 1.523 3.5 3.395-1.57 3.395-3.5 3.395z"/><path d="M20.567 36.502c-5.146 0-9.334-4.062-9.334-9.054V12.735h7v14.713c0 1.249 1.047 2.264 2.334 2.264 1.287 0 2.334-1.015 2.334-2.264V17.8c0-2.941 2.466-5.334 5.497-5.334h6.869v.97h-6.869c-2.48 0-4.497 1.957-4.497 4.364v9.648c0 1.783-1.497 3.234-3.334 3.234-1.838 0-3.334-1.45-3.334-3.234V13.706h-5v13.742c0 4.458 3.739 8.084 8.334 8.084 4.596 0 8.334-3.626 8.334-8.084v-9.162h6.366v.97H29.9v8.192c0 4.992-4.188 9.054-9.333 9.054z"/></g></svg>