<svg width="48" height="48" viewBox="0 0 48 48" fill="none" xmlns="http://www.w3.org/2000/svg"><mask id="a" maskUnits="userSpaceOnUse" x="0" y="0" width="48" height="48"><path fill-rule="evenodd" clip-rule="evenodd" d="M0 0h48v48H0V0z" fill="#fff"/></mask><g mask="url(#a)"><path fill-rule="evenodd" clip-rule="evenodd" d="M48 24c0 13.255-10.745 24-24 24S0 37.255 0 24 10.745 0 24 0s24 10.745 24 24" fill="#1BE9B6"/></g><mask id="b" maskUnits="userSpaceOnUse" x="0" y="0" width="48" height="48"><path fill-rule="evenodd" clip-rule="evenodd" d="M0 48h48V0H0v48z" fill="#fff"/></mask><g mask="url(#b)" fill-rule="evenodd" clip-rule="evenodd" fill="#fff"><path d="M20.067 36.111h1v-4.444h-1v4.444zM35.286 24.476c-.719 1.493-1.323 2.9-1.323 3.682a1.327 1.327 0 002.651 0c0-.757-.55-2.053-1.328-3.682zm.003 6.007a2.33 2.33 0 01-2.326-2.324c0-1.056.66-2.59 1.878-5.048l.452-.911.445.914c1.133 2.324 1.876 3.93 1.876 5.044a2.328 2.328 0 01-2.325 2.325zM35.267 13.611a2.503 2.503 0 00-2.5 2.5c0 1.378 1.12 2.5 2.5 2.5 1.379 0 2.5-1.122 2.5-2.5s-1.121-2.5-2.5-2.5zm0 6c-1.93 0-3.5-1.57-3.5-3.5s1.57-3.5 3.5-3.5 3.5 1.57 3.5 3.5-1.57 3.5-3.5 3.5z"/><path d="M20.566 37.389c-5.146 0-9.333-4.187-9.333-9.333V12.889h7v15.167a2.336 2.336 0 002.333 2.333 2.336 2.336 0 002.334-2.333V18.11a5.505 5.505 0 015.498-5.5h6.868v1h-6.868a4.504 4.504 0 00-4.498 4.5v9.946a3.337 3.337 0 01-3.334 3.333 3.337 3.337 0 01-3.333-3.333V13.889h-5v14.167c0 4.595 3.738 8.333 8.333 8.333 4.596 0 8.334-3.738 8.334-8.333V18.61h6.366v1H29.9v8.445c0 5.146-4.188 9.333-9.334 9.333"/></g></svg>