<svg width="48" height="48" viewBox="0 0 48 48" fill="none" xmlns="http://www.w3.org/2000/svg">
<g opacity="0.3">
<mask id="mask0" mask-type="alpha" maskUnits="userSpaceOnUse" x="0" y="0" width="48" height="48">
<path fill-rule="evenodd" clip-rule="evenodd" d="M0 0H47.9999V47.9998H0V0Z" fill="white"/>
</mask>
<g mask="url(#mask0)">
<path fill-rule="evenodd" clip-rule="evenodd" d="M48 24C48 37.255 37.255 48 24 48C10.745 48 0 37.255 0 24C0 10.745 10.745 0 24 0C37.255 0 48 10.745 48 24Z" fill="#FF8A80"/>
</g>
<path fill-rule="evenodd" clip-rule="evenodd" d="M29.4113 26.7278L29.0123 26.4278C26.0603 24.2148 21.9393 24.2148 18.9883 26.4278L18.5893 26.7278L17.9883 25.9278L18.3893 25.6278C21.6913 23.1488 26.3083 23.1488 29.6113 25.6278L30.0123 25.9278L29.4113 26.7278Z" fill="white"/>
<path fill-rule="evenodd" clip-rule="evenodd" d="M16.4209 35.619C16.1449 35.619 15.9209 35.395 15.9209 35.119V33.791C15.9209 33.515 16.1449 33.291 16.4209 33.291C16.6969 33.291 16.9209 33.515 16.9209 33.791V35.119C16.9209 35.395 16.6969 35.619 16.4209 35.619Z" fill="white"/>
<path fill-rule="evenodd" clip-rule="evenodd" d="M31.5791 35.619C31.3031 35.619 31.0791 35.395 31.0791 35.119V33.791C31.0791 33.515 31.3031 33.291 31.5791 33.291C31.8551 33.291 32.0791 33.515 32.0791 33.791V35.119C32.0791 35.395 31.8551 35.619 31.5791 35.619Z" fill="white"/>
<mask id="mask1" mask-type="alpha" maskUnits="userSpaceOnUse" x="0" y="0" width="48" height="48">
<path fill-rule="evenodd" clip-rule="evenodd" d="M0 48H48V0H0V48Z" fill="white"/>
</mask>
<g mask="url(#mask1)">
<path fill-rule="evenodd" clip-rule="evenodd" d="M13.877 32.2999H34.123V13.3809H13.877V32.2999ZM12.877 33.2999H35.123V12.3809H12.877V33.2999Z" fill="white"/>
<path fill-rule="evenodd" clip-rule="evenodd" d="M20.0166 18.1932C20.0166 17.4602 19.4216 16.8652 18.6886 16.8652C17.9546 16.8652 17.3606 17.4602 17.3606 18.1932C17.3606 18.9262 17.9546 19.5212 18.6886 19.5212C19.4216 19.5212 20.0166 18.9262 20.0166 18.1932Z" fill="white"/>
<path fill-rule="evenodd" clip-rule="evenodd" d="M25.3284 18.1932C25.3284 17.4602 24.7334 16.8652 24.0004 16.8652C23.2664 16.8652 22.6724 17.4602 22.6724 18.1932C22.6724 18.9262 23.2664 19.5212 24.0004 19.5212C24.7334 19.5212 25.3284 18.9262 25.3284 18.1932Z" fill="white"/>
<path fill-rule="evenodd" clip-rule="evenodd" d="M30.6399 18.1932C30.6399 17.4602 30.0449 16.8652 29.3119 16.8652C28.5779 16.8652 27.9839 17.4602 27.9839 18.1932C27.9839 18.9262 28.5779 19.5212 29.3119 19.5212C30.0449 19.5212 30.6399 18.9262 30.6399 18.1932Z" fill="white"/>
</g>
</g>
</svg>
