<svg width="48" height="47" viewBox="0 0 48 47" fill="none" xmlns="http://www.w3.org/2000/svg"><mask id="a" maskUnits="userSpaceOnUse" x="0" y="0" width="49" height="47"><path fill-rule="evenodd" clip-rule="evenodd" d="M0 .232h48v46.563H0V.232z" fill="#fff"/></mask><g mask="url(#a)"><path fill-rule="evenodd" clip-rule="evenodd" d="M48 23.514c0 12.858-10.745 23.281-24 23.281S0 36.372 0 23.514C0 10.656 10.745.232 24 .232s24 10.424 24 23.282z" fill="#FF8A80"/></g><path fill-rule="evenodd" clip-rule="evenodd" d="M29.411 26.16l-.399-.291c-2.952-2.147-7.073-2.147-10.024 0l-.399.29-.6-.775.4-.291c3.302-2.405 7.92-2.405 11.222 0l.401.29-.6.777zM16.421 34.785a.493.493 0 01-.5-.485V33.01c0-.267.224-.485.5-.485s.5.218.5.485V34.3a.493.493 0 01-.5.485zM31.58 34.785a.493.493 0 01-.5-.485V33.01c0-.267.223-.485.5-.485.275 0 .5.218.5.485V34.3a.493.493 0 01-.5.485z" fill="#fff"/><mask id="b" maskUnits="userSpaceOnUse" x="0" y="0" width="48" height="47"><path fill-rule="evenodd" clip-rule="evenodd" d="M0 46.795h48V.232H0v46.563z" fill="#fff"/></mask><g mask="url(#b)" fill-rule="evenodd" clip-rule="evenodd" fill="#fff"><path d="M13.877 31.565h20.246V13.213H13.877v18.352zm-1 .97h22.246V12.243H12.877v20.292z"/><path d="M20.017 17.88c0-.71-.595-1.288-1.328-1.288-.734 0-1.328.578-1.328 1.289 0 .71.594 1.288 1.328 1.288.733 0 1.328-.577 1.328-1.288zM25.328 17.88c0-.71-.595-1.288-1.328-1.288-.734 0-1.328.578-1.328 1.289 0 .71.594 1.288 1.328 1.288.733 0 1.328-.577 1.328-1.288zM30.64 17.88c0-.71-.595-1.288-1.328-1.288-.734 0-1.328.578-1.328 1.289 0 .71.594 1.288 1.328 1.288.733 0 1.328-.577 1.328-1.288z"/></g></svg>