<svg width="48" height="48" viewBox="0 0 48 48" fill="none" xmlns="http://www.w3.org/2000/svg"><g opacity=".3"><mask id="a" maskUnits="userSpaceOnUse" x="0" y="0" width="48" height="48"><path fill-rule="evenodd" clip-rule="evenodd" d="M0 0h48v48H0V0z" fill="#fff"/></mask><g mask="url(#a)"><path fill-rule="evenodd" clip-rule="evenodd" d="M48 24c0 13.255-10.745 24-24 24S0 37.255 0 24 10.745 0 24 0s24 10.745 24 24z" fill="#FF8A80"/></g><path fill-rule="evenodd" clip-rule="evenodd" d="M29.411 26.728l-.399-.3c-2.952-2.213-7.073-2.213-10.024 0l-.399.3-.6-.8.4-.3c3.302-2.48 7.92-2.48 11.222 0l.401.3-.6.8zM16.42 35.619a.5.5 0 01-.5-.5v-1.328a.5.5 0 011 0v1.328a.5.5 0 01-.5.5zM31.58 35.619a.5.5 0 01-.5-.5v-1.328a.5.5 0 011 0v1.328a.5.5 0 01-.5.5z" fill="#fff"/><mask id="b" maskUnits="userSpaceOnUse" x="0" y="0" width="48" height="48"><path fill-rule="evenodd" clip-rule="evenodd" d="M0 48h48V0H0v48z" fill="#fff"/></mask><g mask="url(#b)" fill-rule="evenodd" clip-rule="evenodd" fill="#fff"><path d="M13.877 32.3h20.246V13.38H13.877V32.3zm-1 1h22.246V12.38H12.877V33.3z"/><path d="M20.017 18.193a1.329 1.329 0 10-2.658.001 1.329 1.329 0 002.658 0zM25.328 18.193a1.329 1.329 0 10-2.657.001 1.329 1.329 0 002.657 0zM30.64 18.193a1.329 1.329 0 10-2.657.001 1.329 1.329 0 002.657 0z"/></g></g></svg>