<svg width="48" height="47" viewBox="0 0 48 47" fill="none" xmlns="http://www.w3.org/2000/svg">
<mask id="mask0" mask-type="alpha" maskUnits="userSpaceOnUse" x="0" y="0" width="49" height="47">
<path fill-rule="evenodd" clip-rule="evenodd" d="M0.00012207 0.232422H48V46.7952H0.00012207V0.232422Z" fill="white"/>
</mask>
<g mask="url(#mask0)">
<path fill-rule="evenodd" clip-rule="evenodd" d="M48.0001 23.5139C48.0001 36.3721 37.2551 46.7954 24.0001 46.7954C10.7451 46.7954 0.00012207 36.3721 0.00012207 23.5139C0.00012207 10.6557 10.7451 0.232422 24.0001 0.232422C37.2551 0.232422 48.0001 10.6557 48.0001 23.5139Z" fill="#FF8A80"/>
</g>
<path fill-rule="evenodd" clip-rule="evenodd" d="M29.4113 26.1597L29.0123 25.8687C26.0603 23.722 21.9393 23.722 18.9883 25.8687L18.5893 26.1597L17.9883 25.3837L18.3893 25.0926C21.6913 22.6879 26.3083 22.6879 29.6113 25.0926L30.0123 25.3837L29.4113 26.1597Z" fill="white"/>
<path fill-rule="evenodd" clip-rule="evenodd" d="M16.421 34.7847C16.145 34.7847 15.921 34.5674 15.921 34.2996V33.0114C15.921 32.7437 16.145 32.5264 16.421 32.5264C16.697 32.5264 16.921 32.7437 16.921 33.0114V34.2996C16.921 34.5674 16.697 34.7847 16.421 34.7847Z" fill="white"/>
<path fill-rule="evenodd" clip-rule="evenodd" d="M31.5792 34.7847C31.3032 34.7847 31.0792 34.5674 31.0792 34.2996V33.0114C31.0792 32.7437 31.3032 32.5264 31.5792 32.5264C31.8552 32.5264 32.0792 32.7437 32.0792 33.0114V34.2996C32.0792 34.5674 31.8552 34.7847 31.5792 34.7847Z" fill="white"/>
<mask id="mask1" mask-type="alpha" maskUnits="userSpaceOnUse" x="0" y="0" width="48" height="47">
<path fill-rule="evenodd" clip-rule="evenodd" d="M0 46.7954H48V0.232422H0V46.7954Z" fill="white"/>
</mask>
<g mask="url(#mask1)">
<path fill-rule="evenodd" clip-rule="evenodd" d="M13.877 31.5653H34.123V13.2126H13.877V31.5653ZM12.877 32.5354H35.123V12.2427H12.877V32.5354Z" fill="white"/>
<path fill-rule="evenodd" clip-rule="evenodd" d="M20.0167 17.8805C20.0167 17.1695 19.4217 16.5923 18.6887 16.5923C17.9547 16.5923 17.3607 17.1695 17.3607 17.8805C17.3607 18.5916 17.9547 19.1688 18.6887 19.1688C19.4217 19.1688 20.0167 18.5916 20.0167 17.8805Z" fill="white"/>
<path fill-rule="evenodd" clip-rule="evenodd" d="M25.3282 17.8805C25.3282 17.1695 24.7332 16.5923 24.0002 16.5923C23.2662 16.5923 22.6722 17.1695 22.6722 17.8805C22.6722 18.5916 23.2662 19.1688 24.0002 19.1688C24.7332 19.1688 25.3282 18.5916 25.3282 17.8805Z" fill="white"/>
<path fill-rule="evenodd" clip-rule="evenodd" d="M30.6398 17.8805C30.6398 17.1695 30.0448 16.5923 29.3118 16.5923C28.5778 16.5923 27.9838 17.1695 27.9838 17.8805C27.9838 18.5916 28.5778 19.1688 29.3118 19.1688C30.0448 19.1688 30.6398 18.5916 30.6398 17.8805Z" fill="white"/>
</g>
</svg>
