<svg xmlns="http://www.w3.org/2000/svg" width="476" height="417" viewBox="0 0 476 417">
  <g fill="none" fill-rule="evenodd">
    <path fill="#FFE8E6" d="M238 416.327c163.956 0 238-105.47 238-164.45C476 192.899 324.11 87.43 192.667 87.43 61.223 87.429 0 202.688 0 293.51c0 90.823 74.044 122.817 238 122.817z"/>
    <path fill="#0F007A" d="M169.7 382.11c-1.45-1.053-30.928-13.592-49.377-38.962-18.45-25.37-25.672-63.236-24.082-81.409 4.87-55.666 46.817-89.565 94.537-85.39 47.72 4.175 83.143 44.842 78.273 100.509-1.506 17.21-10.59 49.136-34.286 72.511-23.696 23.376-57.264 32.448-58.96 33.275-2.142 1.044.354 4.629 7.487 10.754a3.146 3.146 0 0 1-.79 4.383c-.605.42-1.34.616-2.074.552l-18.004-1.576a3.147 3.147 0 1 1-1.964-5.357c8.089-4.793 11.169-7.89 9.24-9.29z"/>
    <path fill="#FAD80E" d="M188.817 241.138c-1.137-.825-24.249-10.656-38.713-30.546-14.464-19.89-20.126-49.577-18.88-63.824 3.819-43.643 36.705-70.22 74.117-66.946 37.413 3.273 65.184 35.156 61.366 78.799-1.18 13.492-8.302 38.522-26.88 56.849-18.577 18.326-44.895 25.439-46.225 26.087-1.679.819.278 3.629 5.87 8.43a2.467 2.467 0 0 1-2.246 3.87l-14.114-1.235a2.471 2.471 0 0 1-1.54-4.2c6.341-3.758 8.756-6.186 7.245-7.284z"/>
    <path fill="#FF8A80" d="M180.4 161.166l11.691 8.375a4.44 4.44 0 0 1-1.436 7.9l-17.187 4.605a4.44 4.44 0 0 1-5.194-6.124l5.63-12.418-16.372-8.436c-49.622-25.598-82.404-42.51-90.805-73.861-7.23-26.987 8.2-53.783 35.137-61 12.453-3.337 26.27-1.813 38 4.197 7.155-11.07 18.359-19.299 30.811-22.636 26.937-7.217 53.699 8.273 60.93 35.26 8.4 31.351-11.533 62.388-41.709 109.368l-9.497 14.77z"/>
    <path fill="#FFF" d="M306.56 349.451c-1.806-1.09-37.627-12.81-61.841-40.765-24.214-27.954-36.556-71.77-36.556-93.319 0-66.007 45.667-110.216 102-110.216s102 44.209 102 110.216c0 20.407-7.369 58.911-32.734 88.858-25.364 29.947-63.76 44.079-65.663 45.226-2.402 1.45.89 5.41 9.873 11.884a3.728 3.728 0 0 1-.475 5.24 3.702 3.702 0 0 1-2.374.862h-21.253a3.715 3.715 0 0 1-3.71-3.72c0-.87.305-1.714.86-2.382 8.984-6.473 12.275-10.434 9.873-11.884z"/>
    <path fill="#1BE9B6" d="M328.282 254.757h12.715v-29h-12.715z"/>
    <path fill="#651EFF" d="M340.995 225.757h-12.714c0-9.82-8.216-17.815-18.313-17.815-10.1 0-18.316 7.994-18.316 17.815h-12.715c0-16.64 13.92-30.179 31.031-30.179 17.108 0 31.027 13.54 31.027 30.179"/>
    <path fill="#0F007A" d="M278.939 225.757h12.714v-53.994H278.94z"/>
    <path fill="#FF8A80" d="M278.939 254.757h12.714v-29H278.94z"/>
  </g>
</svg>
