<svg xmlns="http://www.w3.org/2000/svg" viewBox="0 0 511.399 511.399"><path d="M459.87 217.357l-86.609-50.019-118.66 88.66 118.658 88.66 86.904-50.191c13.55-8.232 21.636-22.617 21.636-38.467s-8.087-30.234-21.929-38.643z" fill="#ff9100"/><path d="M284.601 256l-105 135-136.5 107.5c-8.401-8.401-13.5-19.799-13.5-32.401V45.157c0-12.599 5.099-24 13.5-32.399L179.601 121l105 135z" fill="#25d9f8"/><path fill="#00c0f1" d="M284.601 256l-30 38.699v-77.4z"/><path d="M373.402 167.199L284.601 256 43.101 12.759c2.999-2.701 6-4.801 9.3-6.901 14.399-8.099 31.5-7.8 45.601.901L254.601 98.8l118.801 68.399z" fill="#7fe881"/><path fill="#5bc980" d="M373.402 167.199L284.601 256l-30-30V98.8z"/><path d="M373.402 344.799L254.601 413.2 97.702 504.8c-7.2 4.199-15 6.599-23.101 6.599-7.5 0-15-2.1-22.2-6-3.3-2.1-6.301-4.199-9.3-6.899l241.5-242.5 88.801 88.799z" fill="#ff637b"/><path fill="#e63950" d="M373.402 344.799L254.601 413.2V286l30-30z"/></svg>