<svg width="734" height="600" viewBox="0 0 734 600" fill="none" xmlns="http://www.w3.org/2000/svg">
<g clip-path="url(#clip0)">
<path d="M616.524 122.09C621.114 125.056 622.243 129.363 621.82 134.236C621.537 137.766 621.184 141.368 620.054 144.828C619.207 147.37 618.148 149.77 616.665 152.101C613.205 157.467 608.827 161.845 604.378 166.294C601.412 169.26 598.164 172.014 595.128 174.979C593.857 176.25 592.162 176.886 591.032 178.369C589.479 180.417 588.631 182.606 588.49 185.077C588.42 187.76 588.631 190.514 589.832 192.986C591.315 195.951 593.009 198.847 594.422 201.812C596.893 207.038 600.071 211.91 601.271 217.63C601.907 220.737 602.683 223.844 602.683 227.092C602.683 231.046 601.554 234.577 599.788 238.108C596.116 245.31 591.527 251.948 587.219 258.727C581.005 268.612 576.91 279.346 573.591 290.432C572.037 295.728 570.625 301.024 568.86 306.249C567.589 310.133 565.965 313.946 564.341 317.689C562.01 322.985 559.539 328.139 557.067 333.365C556.785 334 556.291 334.565 555.867 335.271C555.726 334.918 555.655 334.777 555.655 334.706C557.35 328.563 558.48 322.208 561.163 316.347C563.14 312.04 564.341 307.45 565.4 302.789C567.942 292.056 571.049 281.464 575.497 271.366C577.969 265.647 580.723 259.927 584.465 254.843C587.149 251.1 589.691 247.217 592.233 243.333C595.41 238.461 598.023 233.376 599.506 227.727C600.989 221.867 600.141 216.571 596.54 211.698C593.857 207.956 590.962 204.354 588.42 200.471C584.677 194.822 582.841 188.678 584.324 181.829C584.818 179.499 585.878 177.451 587.572 175.827C590.326 173.214 592.939 170.39 596.328 168.412C598.659 167.071 600.636 165.235 602.825 163.611C603.107 163.399 603.46 163.116 603.672 162.834C608.333 156.549 612.852 150.194 614.829 142.356C616.453 135.789 616.1 129.505 613.205 123.291C610.733 117.995 607.626 113.193 603.39 109.168C602.048 107.897 601.201 106.343 600.989 104.507C601.483 103.872 602.048 103.801 602.683 104.225C604.519 105.567 606.426 106.979 608.191 108.391C609.886 109.733 611.651 110.086 613.84 109.874C616.877 109.662 619.984 110.086 623.02 110.51C627.469 111.145 631.776 112.134 636.295 112.416C637.778 112.487 639.332 112.981 640.815 113.263C645.546 114.111 650.347 115.029 655.078 115.876C659.951 116.724 664.894 117.642 669.766 118.348C672.52 118.771 675.344 118.983 678.169 119.195C682.829 119.619 687.137 121.384 691.091 123.714C695.116 126.186 699 128.94 702.954 131.552C707.473 134.589 710.933 138.684 714.605 142.639C719.407 147.793 721.667 154.149 724.138 160.433C725.48 164.034 726.398 167.777 727.457 171.449C727.81 172.79 728.022 174.203 728.234 175.544C729.081 181.405 729.646 187.266 729.364 193.127C729.081 199.412 729.01 205.696 728.728 211.91C728.657 214.099 728.304 216.217 727.81 218.406C726.751 223.42 726.045 228.504 724.703 233.447C723.926 236.342 723.785 239.52 723.361 242.556C722.655 248.135 722.514 253.784 722.514 259.433C722.514 260.351 722.514 261.269 722.585 262.116C723.079 266.494 723.15 270.801 722.938 275.179C722.796 278.145 723.22 281.04 723.079 284.006C722.938 288.596 722.796 293.256 722.302 297.846C721.949 301.377 721.031 304.908 720.325 308.438C719.689 311.969 719.054 315.429 718.348 318.96C718.277 319.454 718.207 320.019 717.995 320.442C716.018 323.903 714.747 327.716 712.346 330.893C712.063 331.317 711.781 331.741 711.569 332.235C708.956 337.672 705.002 342.262 701.471 347.064C700.765 347.982 699.847 348.9 699.635 349.888C698.859 353.066 696.599 355.184 694.41 357.373C691.797 359.986 689.043 362.528 686.36 365.07C685.442 365.917 684.383 366.623 683.465 367.541C678.663 372.131 674.003 376.933 668.777 380.958C668.001 381.593 667.295 382.3 666.447 383.076C666.165 391.267 665.741 399.459 665.529 407.65C665.459 409.839 665.882 411.957 665.953 414.146C665.953 417.959 665.882 421.843 665.741 425.656C665.67 426.927 665.388 428.198 665.176 429.61C657.197 430.67 649.359 432.647 641.238 431.023C640.603 430.881 639.967 431.023 639.332 431.093C636.013 431.376 632.694 431.093 629.375 430.67C627.257 430.387 626.621 429.399 626.692 426.786C630.081 426.503 633.4 425.656 636.931 425.797C638.414 425.868 639.967 425.515 641.521 425.374C642.439 425.303 643.286 425.162 644.204 425.091C647.523 425.021 650.842 424.809 654.16 424.95C656.208 425.021 657.903 424.526 659.88 423.608C660.233 418.665 660.798 413.722 660.869 408.78C660.939 402.707 661.363 396.705 661.999 390.773C662.14 389.502 662.352 388.231 661.292 386.96C660.798 387.243 660.233 387.454 659.739 387.807C655.078 391.55 650.347 395.292 645.758 399.176C643.427 401.153 641.238 403.342 639.12 405.531C635.872 408.991 632.835 412.593 629.587 415.982C625.35 420.431 621.114 424.809 616.736 429.116C614.547 431.305 611.722 432.647 608.968 434.059C607.838 434.624 606.708 435.189 605.579 435.824C601.836 437.872 597.882 438.578 593.716 437.943C591.315 437.59 588.985 436.742 586.725 435.966C585.171 435.401 583.83 434.483 582.7 433.141C581.853 432.082 580.723 431.164 579.593 430.105C577.475 432.788 575.356 435.471 573.097 438.366C573.379 438.861 573.591 439.567 574.015 440.202C575.356 442.25 576.698 444.298 578.181 446.205C581.005 449.806 582.488 453.972 583.83 458.279C585.242 462.799 586.654 467.318 588.208 471.766C589.408 475.085 590.185 478.404 590.538 481.864C590.679 483.63 591.103 485.395 591.456 487.16C592.445 491.538 593.504 495.846 594.634 500.224C595.905 505.025 597.246 509.827 598.588 514.629C598.87 515.758 599.294 516.818 599.718 517.877C601.13 521.054 602.683 524.091 603.955 527.339C606.144 532.917 609.321 537.719 612.922 542.45C616.029 546.546 619.631 550.147 623.303 553.678C626.48 556.785 629.87 559.75 633.965 561.728C636.225 562.857 638.343 564.411 640.603 565.4C643.286 566.6 646.04 567.518 648.794 568.506C650.206 569.001 651.76 569.283 653.172 569.778C659.103 571.613 665.247 572.037 671.39 572.037C675.203 572.037 679.016 571.825 682.829 570.837C688.267 569.424 693.774 568.153 698.647 565.117C700.342 564.058 702.389 563.422 704.155 562.434C708.391 559.892 712.558 557.067 716.794 554.525C720.537 552.265 723.22 549.159 725.268 545.416C725.621 544.78 726.115 544.145 726.539 543.58C731.129 544.922 733.247 547.464 733.177 551.771C733.177 552.548 733.035 553.325 732.753 554.031C731.694 556.502 730.564 558.974 728.587 560.88C726.61 562.857 724.844 565.046 722.585 566.812C720.749 568.153 719.478 570.131 717.924 571.755C715.523 574.297 712.699 576.203 709.733 577.969C707.685 579.24 705.355 580.087 703.307 581.287C701.048 582.629 698.435 582.77 696.034 583.688C693.563 584.677 690.95 585.312 688.337 585.877C685.23 586.513 682.053 587.078 678.875 587.219C672.52 587.501 666.235 588.561 659.81 587.431C655.573 586.654 651.265 586.019 647.099 585.101C639.897 583.547 632.835 581.287 626.692 576.909C624.503 575.356 622.102 574.156 619.984 572.602C614.97 568.86 610.239 564.693 606.214 559.892C602.613 555.584 599.294 551.136 596.611 546.122C596.258 545.416 595.834 544.78 595.41 544.145C591.456 538.143 588.561 531.646 586.301 524.797C585.878 523.597 585.383 522.396 584.889 521.196C583.618 518.018 582.488 514.77 581.994 511.31C581.57 508.485 580.511 505.731 580.087 502.836C579.311 497.399 577.828 492.103 576.557 486.736C576.204 485.112 575.921 483.488 575.639 481.864C574.721 477.062 573.308 472.473 571.755 467.883C570.555 464.281 568.93 460.751 567.448 457.22C566.459 454.89 564.694 452.983 563.776 450.512C563.14 448.958 561.516 447.758 560.245 446.275C559.256 446.487 558.268 446.558 557.35 446.911C554.031 448.252 550.712 447.758 547.605 446.628C542.662 444.863 537.578 443.451 532.918 440.909C531.929 440.344 530.729 440.132 529.669 439.779C528.045 439.284 526.704 438.437 525.291 437.448C521.337 434.553 520.207 430.599 520.49 426.009C520.631 423.185 520.772 420.36 520.913 417.394C519.501 415.982 517.806 416.053 516.112 416.829C515.406 417.112 514.77 417.536 514.135 418.03C512.51 419.23 510.957 419.442 509.121 418.524C504.178 416.123 499.165 413.793 494.292 411.322C491.327 409.768 488.502 408.003 485.677 406.237C484.477 405.461 483.488 404.472 482.5 403.484C479.252 400.306 478.475 396.493 479.534 392.185C479.605 391.832 479.817 391.479 479.958 391.126C480.028 390.773 480.099 390.42 480.24 389.785C478.757 388.867 477.204 387.949 475.721 387.031C475.086 386.607 474.45 386.183 473.814 385.76C472.543 385.054 472.049 383.994 472.473 382.511C473.179 380.252 473.038 377.922 472.261 375.733C471.272 372.837 469.578 370.507 466.612 369.236C464.211 368.177 462.093 368.812 460.257 370.507C458.35 372.202 457.644 374.25 458.562 376.721C459.409 379.193 461.104 380.817 463.222 382.088C464.211 382.653 465.482 382.794 465.906 384.347C464.07 385.477 462.234 385.83 460.257 384.7C458.35 383.641 456.444 382.653 455.738 380.252C455.455 379.263 454.82 378.416 454.184 377.639C452.631 375.662 452.772 373.544 453.619 371.425C455.667 366.482 461.881 363.516 467.036 365.141C470.072 366.059 472.614 367.753 474.45 370.366C475.862 372.343 476.71 374.462 476.427 376.862C476.074 379.828 477.486 381.452 479.958 382.582C480.452 382.794 480.876 383.006 481.299 383.288C483.488 384.7 485.677 385.124 488.078 383.5C489.702 382.37 491.75 382.441 493.657 382.3C497.329 382.088 500.789 382.935 504.249 384.065C508.132 385.336 511.875 387.101 515.406 389.22C518.442 391.126 521.478 393.033 524.585 394.869C526.421 395.999 526.774 397.481 526.28 399.459C525.927 400.8 524.938 401.93 525.362 403.695C525.998 403.342 526.633 403.201 527.057 402.848C527.692 402.213 528.187 401.436 528.822 400.8C531.647 397.905 534.824 395.645 538.779 394.516C542.239 393.527 545.628 392.327 549.159 391.55C552.124 390.914 555.231 390.703 558.409 390.279C558.409 390.35 558.621 390.067 558.55 389.926C557.562 387.454 558.056 385.407 560.245 383.853C560.316 383.782 560.457 383.712 560.527 383.571C565.188 376.368 572.249 371.496 577.969 365.282C580.582 362.457 583.053 359.562 585.666 356.738C588.278 353.913 590.962 351.23 593.645 348.405C594.422 347.558 595.269 346.781 595.975 345.863C598.729 342.333 601.554 338.873 604.59 335.554C606.426 333.577 607.909 331.317 609.604 329.269C612.357 325.88 615.676 323.055 618.925 320.16C620.76 318.536 622.102 316.488 623.444 314.511C627.257 308.933 628.175 302.436 629.799 296.152C630.505 293.398 630.929 290.644 630.011 287.819C629.799 287.113 629.94 286.266 630.011 285.56C630.646 279.346 631.282 273.061 632.059 266.847C632.27 264.799 632.765 262.822 633.4 260.845C634.954 256.185 635.66 251.383 636.578 246.581C637.213 243.333 638.131 240.085 638.837 236.837C639.614 233.235 640.179 229.563 640.885 225.891C641.309 223.491 641.662 221.09 642.297 218.76C642.721 217.065 643.498 215.37 644.275 213.817C644.769 212.828 645.475 211.839 646.746 211.769C647.876 214.805 648.088 217.347 647.24 220.384C646.393 223.702 645.263 227.021 644.486 230.34C643.498 234.859 642.862 239.379 641.662 243.827C641.238 245.381 641.168 247.146 641.238 248.77C641.309 251.595 640.744 254.349 640.25 257.173C639.544 261.198 638.908 265.294 638.273 269.319C637.919 271.578 637.425 273.838 637.001 276.097C636.225 280.264 635.519 284.43 634.671 288.525C634.036 291.42 633.541 294.316 633.753 297.281C633.753 297.564 633.753 297.846 633.683 298.058C631.847 302.719 631.776 307.803 630.011 312.534C628.952 315.5 627.539 318.112 625.28 320.301C623.02 322.561 620.69 324.75 618.289 326.868C615.111 329.622 612.499 333.012 609.745 336.26C607.415 339.014 605.155 341.768 603.037 344.663C600.565 348.052 597.246 350.453 594.21 353.136C591.527 355.537 588.914 357.938 586.301 360.41C582.771 363.728 579.24 367.118 575.78 370.507C572.955 373.261 569.99 375.944 567.448 378.981C565.541 381.17 564.129 383.782 562.716 386.395C561.869 387.949 562.716 389.361 563.776 390.561C564.905 391.832 566.106 392.962 567.165 394.233C571.119 398.964 574.368 404.119 577.404 409.556C580.087 414.287 581.288 419.23 582.135 424.456C582.418 426.08 582.7 427.704 583.053 429.469C585.666 431.093 588.067 433.07 591.103 433.847C594.492 434.765 597.67 434.271 600.777 432.859C606.285 430.387 611.298 427.21 615.323 422.549C615.606 422.267 615.818 421.984 616.1 421.702C619.913 419.018 622.526 415.205 625.209 411.463C627.116 408.85 628.952 406.237 630.788 403.625C631.282 402.919 631.917 402.213 632.553 401.577C637.284 397.058 641.944 392.609 647.452 389.008C649.218 387.878 651.124 386.678 652.466 384.912C652.889 384.418 653.313 383.924 653.878 383.641C660.869 379.758 666.377 373.967 672.732 369.236C675.274 367.33 677.463 364.929 679.722 362.74C683.536 359.138 687.419 355.678 691.021 351.865C694.622 348.052 697.799 343.886 700.624 339.437C701.754 337.601 703.166 335.977 704.225 334.071C706.838 329.34 708.744 324.326 710.933 319.383C712.063 316.912 713.052 314.44 713.758 311.828C715.453 305.755 716.653 299.682 716.583 293.327C716.512 289.09 716.936 284.924 717.077 280.687C717.147 278.498 716.865 276.309 716.724 274.191C716.512 271.013 716.229 267.836 716.018 264.587C715.876 262.681 715.947 260.774 715.876 258.868C715.806 256.679 715.594 254.49 715.453 252.371C715.17 249.053 715.029 245.734 715.594 242.415C716.159 238.884 716.371 235.283 716.794 231.752C716.865 231.117 716.865 230.481 717.006 229.846C718.277 225.821 719.69 221.867 720.749 217.771C722.302 211.839 723.503 205.837 723.503 199.623C723.503 195.245 723.644 190.938 723.714 186.56C723.714 185.571 723.714 184.512 723.714 183.524C723.644 181.193 723.361 178.934 723.503 176.604C723.785 172.79 722.867 169.189 721.808 165.658C720.749 161.845 719.266 158.173 717.995 154.431C717.712 153.725 717.359 153.019 716.865 152.454C713.476 148.076 710.51 143.486 706.202 139.885C705.002 138.896 703.802 137.978 702.531 137.06C698.647 134.377 695.187 131.058 691.021 128.798C690.385 128.445 689.679 128.092 688.973 127.739C687.137 126.68 684.807 127.527 683.112 126.115C681.347 124.632 679.087 124.632 676.969 124.138C674.991 123.714 672.944 123.573 670.896 123.22C669.766 123.008 668.566 122.867 667.506 122.514C663.27 120.96 658.821 120.537 654.443 119.619C650.418 118.771 646.464 117.853 642.439 117.288C637.001 116.582 631.706 115.029 626.268 114.252C624.644 114.04 622.949 113.97 621.255 113.97C619.348 113.97 617.795 114.888 616.806 116.512C616.1 117.571 615.535 118.701 616.312 120.113C616.382 120.466 616.382 121.172 616.524 122.09ZM540.473 405.955C541.25 407.862 540.544 408.991 539.908 410.051C537.649 414.005 534.683 417.324 531.223 420.219C529.528 421.702 527.834 421.914 526.068 420.289C525.927 420.219 525.645 420.36 525.221 420.431C524.515 422.832 524.656 425.374 525.009 427.916C525.291 429.61 526.068 431.023 527.551 432.011C528.963 432.929 530.234 433.918 531.717 434.765C535.177 436.742 538.567 438.719 542.097 440.485C546.122 442.533 550.359 443.804 555.02 442.815C563.846 440.908 570.06 435.542 574.65 427.986C575.992 425.797 577.192 423.538 576.415 420.854C576.133 419.725 575.921 418.595 575.427 417.536C574.297 414.782 573.026 412.169 571.896 409.415C570.413 405.814 568.436 402.566 566.106 399.529C564.764 397.834 563.423 396.14 562.01 394.445C557.915 393.951 555.443 394.092 551.348 395.222C548.876 395.928 546.405 396.422 543.792 396.634C540.614 396.917 537.437 397.623 534.542 399.035C532.212 400.165 530.023 401.436 528.822 404.048C532.423 407.226 535.954 408.991 540.473 405.955ZM522.467 398.329C517.171 394.304 511.946 390.561 506.085 387.878C502.766 386.395 499.306 385.336 495.705 385.477C490.762 385.618 486.878 387.807 484.618 392.468C483.488 394.869 483.488 397.27 485.324 399.317C486.737 400.941 488.361 402.424 490.126 403.625C492.456 405.178 494.928 406.591 497.47 407.862C501.918 410.051 506.438 412.169 511.028 414.217C513.499 415.276 514.276 414.993 516.041 412.946C519.431 408.709 521.408 403.978 522.467 398.329Z" fill="white"/>
<path d="M529.599 111.71C530.517 113.193 530.164 114.393 529.175 115.382C524.797 119.76 522.608 125.409 520.207 130.917C519.713 132.117 519.289 133.318 519.007 134.589C516.606 145.322 515.688 156.126 517.948 167C518.583 170.107 520.066 173.073 521.266 175.968C521.69 176.957 522.679 177.804 523.455 178.581C527.692 182.817 530.093 187.831 530.093 193.974C530.093 198.776 528.54 203.013 526.562 207.25C525.503 209.439 524.373 211.557 523.102 213.675C519.854 219.042 519.289 224.762 520.419 230.764C521.266 235.142 522.326 239.52 523.314 243.898C524.868 251.171 526.28 258.444 527.975 265.717C529.105 270.59 530.587 275.391 531.858 280.193C534.047 288.243 536.307 296.293 538.496 304.272C538.637 304.837 538.708 305.473 538.284 306.179C538.072 305.755 537.79 305.402 537.649 304.978C534.824 296.505 531.858 287.96 529.175 279.416C526.633 271.508 524.162 263.528 521.973 255.478C520.137 248.911 518.583 242.344 517.312 235.636C516.253 230.058 515.97 224.409 517.03 218.76C517.595 215.582 518.866 212.616 520.631 209.862C522.114 207.603 523.597 205.343 525.009 203.083C528.398 197.787 527.622 192.562 524.656 187.478C523.597 185.571 522.114 183.947 520.843 182.182C519.572 180.417 518.23 178.722 517.665 176.533C517.595 176.18 517.383 175.827 517.171 175.544C514.488 172.014 513.923 167.847 513.217 163.611C511.592 153.301 512.652 143.133 515.617 133.176C516.041 131.835 516.606 130.564 517.171 129.222C517.665 128.022 518.23 126.892 518.583 125.621C518.724 124.985 518.513 124.067 518.159 123.502C517.736 122.726 516.888 122.867 516.112 123.149C510.039 125.409 503.754 126.327 497.399 127.033C492.598 127.598 487.796 128.516 483.065 129.575C476.78 130.917 470.637 132.47 464.493 134.518C455.526 137.484 447.758 142.215 441.827 149.629C438.084 154.29 435.471 159.515 433.989 165.305C433.424 167.636 432.718 170.036 432.294 172.367C431.941 174.344 431.658 176.392 431.588 178.439C431.517 180.346 431.376 182.253 431.093 184.159C430.529 187.76 431.235 191.291 432.082 194.822C433.141 198.917 434.483 202.872 436.389 206.685C439.073 212.051 441.262 217.63 443.663 223.208C445.075 226.456 445.357 229.916 445.357 233.376C445.357 238.602 444.934 243.827 444.651 249.053C444.228 256.891 444.581 264.658 445.71 272.426C446.275 276.592 447.405 280.687 448.959 284.642C451.006 289.867 453.054 295.163 455.173 300.388C456.02 302.436 456.585 304.484 456.585 306.744C456.585 308.297 456.797 309.851 457.009 311.333C457.573 316.347 454.961 319.171 450.795 319.948C443.874 321.36 436.884 322.208 429.822 322.278C419.937 322.42 410.121 322.278 400.236 322.561C395.504 322.702 390.773 323.408 386.113 323.903C384.206 324.114 382.3 324.326 380.393 324.609C379.122 324.821 377.851 325.103 376.651 325.315C373.191 325.88 370.366 330.187 370.578 333.294C370.719 335.201 370.719 337.178 371.143 339.014C371.92 342.756 372.626 346.569 374.038 350.171C375.45 353.843 376.651 357.656 377.922 361.469C378.84 364.293 380.605 366.27 383.006 367.965C386.113 370.154 389.432 371.072 393.104 370.931C398.611 370.719 404.119 370.507 409.627 370.154C411.251 370.084 412.946 369.801 414.57 369.307C418.171 368.318 421.702 368.459 425.233 369.448C429.54 370.648 433.918 371.637 438.437 372.061C438.649 372.061 438.932 372.273 439.285 372.414C439.849 373.755 438.932 375.026 438.79 376.651C437.872 376.651 437.025 376.862 436.178 376.721C434.2 376.298 432.223 375.662 430.246 375.168C428.622 374.744 427.069 374.25 425.444 373.826C423.538 373.332 421.631 373.332 419.795 374.108C415.206 375.944 410.404 376.58 405.602 377.286C404.261 377.498 402.848 377.145 401.436 377.004C399.882 376.862 398.4 376.298 396.917 376.368C392.397 376.58 388.302 375.168 384.559 372.837C380.888 370.578 377.074 368.318 374.885 364.223C373.12 363.87 371.567 364.646 370.013 365.141C359.28 368.318 348.335 370.366 337.319 371.778C331.953 372.484 326.586 373.049 321.219 373.191C316.347 373.332 311.475 373.049 306.814 371.566C305.473 371.143 304.131 370.578 302.719 370.437C296.646 369.66 291.915 365.917 286.69 363.305C284.642 361.116 282.1 359.139 281.958 355.678C281.958 354.619 282.17 353.701 282.947 352.854C284.571 351.089 286.548 349.888 288.808 349.323C295.234 347.629 301.66 345.793 308.297 345.086C310.204 344.875 312.11 344.804 314.017 344.31C312.11 343.957 310.204 343.533 308.227 343.18C304.131 342.333 300.459 340.708 297.564 337.531C295.446 335.201 295.587 332.8 298.27 331.105C300.247 329.834 302.436 329.199 304.837 329.128C305.967 329.128 307.167 329.128 308.297 329.199C310.416 329.269 312.463 328.987 314.299 327.998C318.254 325.88 322.49 325.809 326.657 326.656C337.814 328.845 349.041 328.845 360.339 329.41C363.517 329.552 366.059 328.775 368.318 326.445C369.589 325.032 371.284 323.973 372.767 322.843C374.744 321.36 377.074 320.584 379.546 320.231C382.723 319.807 385.901 319.313 389.079 318.96C390.985 318.748 392.892 318.818 394.869 318.677C403.696 317.83 412.522 317.689 421.349 317.9C425.727 317.971 430.034 317.9 434.412 317.759C437.59 317.618 440.767 317.336 443.945 316.912C448.111 316.418 450.583 313.099 450.442 308.862C450.371 304.131 448.959 299.753 446.84 295.587C443.874 289.726 441.615 283.582 439.567 277.368C437.378 270.66 435.895 263.811 435.754 256.679C435.683 251.03 435.754 245.381 436.107 239.802C436.178 239.167 436.107 238.531 436.248 237.896C437.449 232.741 436.601 227.727 434.977 222.785C434.483 221.231 433.918 219.607 433.636 218.053C433.282 216.006 432.506 214.17 431.588 212.334C430.034 209.015 429.611 205.414 428.975 201.954C428.057 196.516 426.998 191.079 426.857 185.571C426.504 170.39 429.893 156.267 440.414 144.616C444.086 140.591 448.464 137.484 453.054 134.73C459.551 130.846 466.683 128.234 473.956 126.186C481.511 124.067 489.137 122.443 496.976 121.737C501.848 121.313 506.65 120.678 511.451 120.042C514.629 119.619 517.736 118.983 520.843 118.277C521.62 118.136 522.396 117.43 523.032 116.865C524.585 115.523 525.998 114.04 527.622 112.769C527.975 112.275 528.822 112.063 529.599 111.71ZM365.211 334.424C364.505 334.353 364.011 334.283 363.517 334.212C355.467 334 347.346 333.788 339.296 333.435C337.037 333.365 334.707 332.941 332.447 332.447C329.834 331.882 327.222 331.176 324.679 330.258C321.502 329.128 318.324 329.269 315.217 329.763C312.322 330.258 309.356 330.47 306.391 330.47C303.919 330.47 301.589 331.246 299.4 332.306C296.858 333.647 296.717 336.542 298.976 338.308C299.259 338.519 299.612 338.731 299.965 338.873C303.425 340.285 306.885 341.556 310.627 341.838C314.441 342.191 318.254 342.897 321.996 343.533C324.609 343.957 327.292 344.592 329.905 345.157C330.752 345.369 331.6 345.651 332.376 346.075C333.082 346.428 333.012 347.77 332.306 347.982C331.458 348.264 330.54 348.476 329.693 348.405C325.033 347.982 320.513 348.829 315.923 349.323C309.921 349.959 303.99 351.159 297.988 351.371C295.304 351.442 292.621 351.724 290.008 352.007C287.961 352.218 286.407 353.207 285.207 354.831C284.712 355.537 284.642 356.385 285.277 356.949C287.608 359.209 289.867 361.398 293.257 362.034C297.423 362.81 301.518 363.87 305.685 364.646C315.712 366.482 325.739 367.33 335.836 365.847C337.743 365.564 339.649 365.635 341.556 365.564C342.192 365.564 342.827 365.564 343.463 365.423C351.442 364.081 359.351 362.528 367.118 360.41C368.46 360.056 369.801 359.703 370.719 358.785C370.719 358.291 370.79 358.009 370.719 357.797C369.166 353.843 367.542 349.959 367.189 345.651C367.118 344.804 366.694 343.957 366.482 343.039C366.271 342.262 366.129 341.556 366.059 340.779C365.776 338.731 365.494 336.613 365.211 334.424Z" fill="white"/>
<path d="M175.968 429.752C177.027 428.975 177.804 428.339 178.651 427.845C181.829 426.08 184.371 426.433 187.337 428.692C188.608 429.681 190.02 430.528 191.503 431.305C193.056 432.082 194.257 433.141 195.387 434.412C195.599 434.695 196.022 434.765 196.587 435.048C196.87 434.412 197.223 433.847 197.293 433.282C197.505 431.376 197.646 429.469 197.788 427.563C197.999 424.738 198.141 421.914 198.282 419.089C198.282 418.595 198.423 418.03 198.635 417.606C198.776 417.324 199.2 416.971 199.482 416.971C199.906 417.041 200.541 417.324 200.683 417.677C200.895 418.524 201.036 419.442 200.965 420.36C200.895 425.374 200.824 430.387 200.683 435.401C200.541 441.685 200.33 447.97 200.118 454.254C199.906 460.821 199.694 467.318 199.482 473.885C199.341 478.475 199.27 483.135 199.27 487.725C199.27 498.105 199.341 508.485 199.341 518.936C199.341 524.444 199.623 529.952 198.847 535.46C198.635 537.225 198.705 539.061 198.705 540.826C198.847 548.523 199.129 556.22 199.129 563.917C199.129 568.012 198.847 572.108 198.776 576.203C198.635 581.711 198.564 587.219 198.352 592.727C198.282 594.916 197.929 597.034 197.576 599.223C197.505 599.576 196.94 600.141 196.516 600.141C196.163 600.141 195.599 599.647 195.457 599.294C194.892 598.023 194.681 596.611 194.822 595.198C195.104 591.738 195.457 588.278 194.892 584.818C194.822 584.324 194.61 583.9 194.469 583.265C194.045 583.618 193.551 583.759 193.48 584.041C193.268 584.606 193.339 585.312 193.268 585.948C192.774 589.267 192.703 589.196 189.879 590.961C188.82 591.668 187.76 591.879 186.631 591.526C185.642 591.244 184.653 590.961 183.594 590.608C182.323 590.75 181.476 592.444 179.852 591.879C178.651 591.456 177.451 591.032 176.109 590.608C175.262 589.62 174.344 588.561 173.497 587.572C173.638 585.736 173.779 583.971 173.85 582.135C174.132 572.178 174.415 562.151 174.485 552.195C174.556 546.546 174.273 540.897 174.273 535.318C174.273 528.398 174.485 521.478 174.556 514.558C174.697 503.119 174.768 491.75 174.838 480.311C174.838 477.627 174.556 474.944 174.556 472.261C174.697 467.671 174.979 463.081 175.191 458.421C175.474 451.642 175.756 444.863 176.039 438.084C176.109 436.954 175.968 435.754 175.968 434.624C175.968 432.859 175.968 431.235 175.968 429.752Z" fill="white"/>
<path d="M147.511 429.328C149.276 428.128 150.053 426.433 149.982 424.385C149.982 422.055 149.912 419.795 149.982 417.465C150.194 412.24 152.242 408.003 156.832 405.319C157.609 404.896 158.456 404.26 159.303 404.331C163.046 404.613 166.435 402.424 170.39 403.413C170.672 401.93 170.884 400.73 171.096 399.247C169.119 398.47 167.071 397.693 165.517 396.14C164.599 395.222 163.681 394.304 163.258 393.103C162.128 390.208 161.563 387.243 161.704 384.065C161.987 378.769 163.54 374.038 166.93 369.942C170.178 365.988 174.344 363.799 179.357 362.952C180.628 362.74 181.9 362.457 183.171 362.316C184.583 362.175 185.995 361.963 187.407 362.175C192.633 362.952 197.717 364.293 202.66 366.059C206.473 367.471 208.733 370.225 209.933 373.967C210.357 375.309 210.568 376.721 210.568 378.133C210.639 382.017 210.004 385.76 208.803 389.432C207.744 392.538 206.402 395.363 203.154 396.705C202.942 399.388 203.013 401.93 203.154 404.402C204.637 405.037 205.908 404.966 207.179 404.966C209.368 404.966 211.557 404.966 213.675 405.037C216.853 405.108 219.607 406.449 222.29 408.073C222.855 408.426 223.349 408.78 223.773 409.274C226.456 411.957 226.103 415.7 222.855 417.818C221.16 418.948 219.183 419.654 217.135 419.866C210.71 420.36 205.626 417.959 201.742 412.946C201.318 412.451 200.965 411.957 200.471 411.251C198.141 411.11 195.74 410.898 193.268 410.827C187.478 410.757 181.758 410.757 175.968 410.615C174.768 410.615 173.779 410.757 172.72 411.463C171.308 412.522 169.683 413.228 167.777 414.358C167.565 414.923 167.212 415.841 166.859 416.829C166.082 418.665 164.741 420.007 162.975 420.925C161.775 421.561 160.645 421.349 159.798 420.501C158.88 419.654 159.021 418.665 159.445 417.677C159.868 416.759 160.362 415.841 160.857 414.852C159.798 413.722 158.88 412.593 157.82 411.463C155.42 414.005 154.855 415.77 155.067 419.089C155.208 420.643 155.278 422.125 155.208 423.679C155.067 426.009 154.431 428.198 153.089 430.175C152.524 431.023 151.96 431.799 151.253 432.788C151.818 433.424 152.242 434.059 152.736 434.553C155.349 437.237 155.843 440.202 154.572 443.733C152.877 448.394 150.477 452.56 147.652 456.514C147.017 457.432 146.24 458.35 145.746 459.409C143.839 463.081 141.368 466.4 138.896 469.577C137.625 471.202 136.142 472.614 134.518 473.885C132.894 475.156 131.058 476.003 128.798 475.721C127.104 475.509 125.833 476.356 124.985 477.769C124.562 478.404 124.138 479.04 123.855 479.746C122.161 483.206 119.831 486.313 117.288 489.208C114.464 492.527 111.569 495.846 108.532 498.953C103.307 504.249 98.0817 509.545 92.2914 514.205C89.1138 516.818 86.0068 519.501 82.7586 521.972C78.6631 525.079 74.7087 528.257 70.4719 531.152C64.8229 534.965 58.962 538.355 52.9599 541.603C47.0284 544.851 40.8144 547.605 34.318 549.653C30.1518 550.994 25.915 551.983 21.7489 553.184C17.7945 554.313 13.699 554.737 9.74463 555.796C8.04992 556.22 6.42581 556.29 5.08416 554.949C5.01355 554.878 4.87232 554.737 4.7311 554.737C1.12983 554.172 0.706147 551.206 0.0706286 548.452C-0.282437 547.111 0.635534 545.84 1.97718 545.557C2.25964 545.487 2.47148 545.487 2.75393 545.487C7.48501 545.557 11.7924 543.792 16.0998 542.309C17.0884 541.956 18.0064 541.603 19.0656 541.391C23.7966 540.685 28.1747 538.708 32.4115 536.66C38.4136 533.765 44.4863 531.082 49.9941 527.198C50.6297 526.774 51.3358 526.421 51.9713 526.068C58.962 522.467 65.176 517.736 71.743 513.499C74.4969 511.663 77.2508 509.756 79.8635 507.709C82.1937 505.873 84.3121 503.895 86.5011 501.918C90.8085 498.105 95.3278 494.504 99.4233 490.479C103.801 486.172 107.756 481.44 110.721 476.003C111.781 474.097 112.769 472.19 113.899 470.284C114.817 468.73 115.453 467.106 115.453 465.199C115.453 463.646 115.735 462.163 115.947 460.61C116.37 457.785 117.288 455.172 119.054 452.842C120.749 450.583 122.09 448.111 123.714 445.781C126.609 441.685 129.505 437.66 133.106 434.13C136.848 430.528 141.014 428.481 146.31 429.328C146.734 429.328 147.087 429.328 147.511 429.328ZM199.694 404.331C199.765 403.907 199.906 403.413 199.906 402.919C199.976 401.224 200.047 399.6 199.906 397.905C199.765 395.928 200.259 394.374 202.236 393.598C203.366 393.103 204.072 392.256 204.566 391.197C206.897 386.395 207.956 381.24 207.25 375.944C206.897 372.979 205.202 370.648 202.519 369.307C200.118 368.106 197.576 367.188 195.034 366.27C194.186 365.988 193.268 365.847 192.421 365.847C189.243 366.059 186.066 366.341 182.888 366.765C181.758 366.906 180.628 367.33 179.64 367.824C174.415 370.366 171.802 374.885 170.39 380.322C169.26 384.559 170.672 387.807 173.779 390.561C174.485 391.126 175.191 391.621 175.897 392.185C176.815 392.962 177.38 393.88 177.451 395.151C177.521 396.422 177.38 397.835 177.875 398.894C178.651 400.518 179.146 402.142 178.651 403.907C183.806 404.684 197.011 404.896 199.694 404.331ZM142.85 432.506C140.803 432.717 139.108 433.494 137.484 434.695C133.812 437.378 130.987 440.909 128.163 444.369C124.067 449.311 120.607 454.678 117.995 460.61C117.288 462.304 117.359 463.293 118.913 464.281C122.443 466.4 125.621 468.942 128.798 471.555C129.01 471.696 129.222 471.908 129.434 471.978C130.564 472.614 131.694 472.543 132.682 471.837C133.318 471.413 133.883 470.849 134.306 470.213C137.625 465.835 141.156 461.598 143.98 456.867C144.686 455.667 145.534 454.537 146.24 453.336C147.652 450.724 149.064 448.182 150.194 445.498C151.395 442.815 151.324 440.061 149.982 437.307C148.57 434.2 146.028 432.435 142.85 432.506Z" fill="white"/>
<path d="M559.185 152.666C559.468 153.301 559.892 153.937 560.103 154.643C560.527 156.267 560.81 157.891 561.304 159.515C561.516 160.221 561.869 160.927 562.292 161.563C562.928 162.551 564.128 162.693 564.905 161.845C565.611 161.069 566.247 160.292 566.812 159.444C570.695 153.725 574.508 147.935 578.392 142.215C579.734 140.167 581.146 138.19 582.558 136.213C586.442 130.776 590.467 125.48 593.574 119.548C594.068 118.63 594.704 117.853 595.198 117.077C596.187 117.147 596.116 117.783 595.975 118.206C595.128 121.031 594.563 123.997 593.292 126.609C586.866 139.532 582.558 153.231 578.322 166.929C575.638 175.756 573.026 184.653 571.472 193.762C570.272 201.106 569.001 208.45 567.941 215.794C566.953 222.926 566.247 230.058 565.399 237.19C565.117 239.59 564.693 241.991 564.27 244.392C562.928 252.089 562.081 259.927 560.245 267.483C558.832 273.202 557.491 278.922 556.22 284.712C554.737 291.209 553.183 297.705 551.842 304.201C550.783 309.497 549.935 314.793 549.088 320.089C548.947 320.937 548.947 321.855 549.017 322.773C549.582 329.41 549.653 336.119 550.712 342.686C551.206 345.863 551.347 349.041 551.63 352.289C551.912 355.467 552.195 358.715 552.477 361.892C552.83 365.847 553.113 369.801 552.83 373.826C552.689 376.227 552.972 378.698 553.042 381.099C553.042 381.593 553.042 382.158 552.195 382.158C551.418 381.523 551.63 380.605 551.63 379.758C551.418 376.297 551.277 372.837 551.206 369.377C551.065 362.034 549.935 354.831 549.088 347.558C548.382 341.415 547.746 335.342 547.252 329.199C547.111 327.292 547.252 325.385 547.393 323.408C547.817 317.406 548.735 311.404 549.865 305.472C550.429 302.224 550.994 298.905 551.489 295.587C551.63 294.881 551.559 294.104 551.418 293.327C548.594 279.628 545.698 265.929 542.944 252.301C542.38 249.406 542.097 246.44 541.673 243.545C540.897 238.319 539.979 233.165 539.414 227.939C538.778 222.573 538.284 217.206 538.072 211.839C537.648 199.765 537.366 187.76 537.084 175.685C537.013 173.002 537.154 170.319 537.084 167.636C537.013 162.269 536.801 156.902 536.73 151.465C537.648 151.112 537.79 151.818 538.002 152.383C538.849 154.643 539.696 156.973 540.473 159.233C541.179 161.21 542.168 162.975 543.933 164.458C544.427 163.893 544.992 163.54 545.204 163.046C545.91 161.139 546.546 159.162 547.181 157.255C547.393 156.62 547.534 155.984 547.817 155.49C547.958 155.208 548.452 154.996 548.735 154.996C549.017 154.996 549.511 155.349 549.511 155.631C549.653 156.479 549.723 157.397 549.653 158.315C548.947 165.235 548.24 172.084 547.534 179.004C547.04 183.453 546.546 187.902 546.051 192.35C545.063 200.894 544.357 209.439 544.074 218.053C543.862 224.479 543.015 230.834 542.662 237.26C542.521 239.52 542.45 241.921 542.944 244.18C545.628 257.667 548.452 271.084 551.206 284.5C551.489 285.701 551.559 287.042 553.042 287.96C553.395 287.466 553.889 287.042 554.101 286.548C554.454 285.418 554.596 284.289 554.807 283.159C556.008 276.874 557.067 270.519 558.338 264.234C559.397 258.727 560.598 253.148 561.728 247.64C562.222 245.239 562.01 242.768 561.586 240.367C560.174 232.176 559.327 223.844 558.691 215.511C557.773 203.719 558.197 191.927 557.914 180.134C557.773 172.932 557.561 165.8 557.35 158.597C557.35 157.538 557.35 156.549 557.35 155.49C557.138 154.007 557.773 153.16 559.185 152.666Z" fill="white"/>
<path d="M573.944 99.2115C573.802 106.767 570.342 111.074 563.846 111.71C557.985 112.275 552.054 112.346 546.193 112.769C542.874 113.052 539.555 112.84 536.236 112.487C531.929 111.992 529.81 109.733 529.387 105.143C529.175 103.095 529.246 101.047 529.175 98.9996C529.175 96.1045 528.469 93.4212 527.268 90.8085C523.455 82.7586 523.596 84.5946 523.95 74.5675C524.091 69.9776 523.314 65.7408 521.266 61.5747C518.442 55.7844 516.394 49.7117 515.617 43.2859C514.982 38.2723 514.911 33.2588 516.465 28.3865C517.947 23.8672 519.925 19.5598 523.385 16.0998C524.938 14.5463 526.492 12.9928 528.186 11.6512C530.799 9.53277 533.482 7.62622 536.166 5.64905C536.872 5.15476 537.648 4.66046 538.496 4.3074C544.145 1.76532 550.076 0.141222 556.29 -4.60479e-06C568.577 -0.282457 579.028 4.16617 588.137 12.2867C589.055 13.134 589.902 14.1226 590.608 15.1818C595.34 22.2431 598.729 29.7281 598.235 38.4842C598.093 40.7438 598.023 43.074 597.882 45.4749C598.729 45.8985 599.506 46.181 600.282 46.6047C604.237 48.7231 606.285 52.1125 606.355 56.5611C606.496 61.5747 604.378 65.7408 600.989 69.3421C600.706 69.6246 600.424 69.907 600.071 70.0482C599.506 70.2601 598.87 70.3307 598.305 70.4013C598.235 69.8364 597.882 69.1303 598.023 68.636C598.729 67.0119 599.647 65.4584 600.424 63.8343C601.2 62.2102 601.836 60.5861 602.471 58.8914C603.248 56.9848 602.825 55.0783 602.118 53.2423C600.565 49.3586 597.74 47.8757 593.433 49.4998C591.95 50.0647 590.608 51.2651 589.267 52.2537C588.208 53.0305 587.29 53.8778 586.301 54.6546C586.089 54.7958 585.595 54.6546 585.312 54.4427C585.171 54.3721 585.101 53.9484 585.171 53.7366C585.454 53.1717 585.665 52.4656 586.089 52.1125C587.643 50.6296 589.196 49.0055 590.961 47.8051C593.362 46.2516 594.422 44.2038 594.563 41.4499C594.633 40.5319 594.633 39.6846 594.633 38.7666C594.21 30.2224 591.244 22.7374 585.454 16.4529C582.135 12.9222 577.969 10.8038 573.52 8.96787C568.083 6.77886 562.434 5.86089 556.643 5.36659C551.559 4.94292 546.758 6.63763 542.238 8.75603C537.79 10.8744 533.906 13.7696 530.94 17.7945C530.517 18.43 529.952 18.9949 529.457 19.5598C525.291 24.1497 522.961 29.5869 521.761 35.6596C520.631 41.1675 520.278 46.5341 521.478 52.0419C522.255 55.5725 523.596 58.962 525.221 62.1396C527.41 66.3764 528.328 70.825 527.692 75.5561C527.127 79.9341 527.974 83.959 530.305 87.7015C532.423 91.2322 533.341 94.9747 533.27 99.0702C533.27 100.836 533.341 102.672 533.553 104.437C533.977 107.544 535.813 109.239 538.99 109.309C541.32 109.38 543.58 109.309 545.91 109.168C550.641 108.815 555.372 108.321 560.104 107.897C560.457 107.897 560.88 107.826 561.233 107.826C566.176 107.544 570.131 105.637 572.32 100.906C572.743 100.483 573.167 100.129 573.944 99.2115Z" fill="white"/>
<path d="M564.411 154.713C562.434 153.089 561.939 150.759 561.304 148.57C559.821 143.627 557.914 138.896 555.725 134.236C555.161 133.106 554.737 131.835 553.678 131.129C552.407 131.34 551.912 132.258 551.63 133.247C550.076 138.402 548.452 143.486 546.899 148.641C546.193 151.112 545.698 153.584 544.992 156.055C544.78 156.691 544.286 157.255 543.651 158.173C542.944 156.761 542.238 155.843 541.885 154.784C539.696 148.499 537.366 142.215 535.53 135.86C534.118 130.776 534.259 125.48 534.612 120.184C534.683 119.054 534.824 117.853 536.236 117.077C536.872 117.5 537.578 117.924 538.213 118.489C540.261 120.466 542.168 122.514 544.216 124.42C545.416 125.55 546.899 126.398 548.24 127.316C551.559 129.646 555.09 129.716 558.832 128.375C563.14 126.821 566.812 124.279 570.342 121.525C576.133 116.865 581.57 111.781 586.725 106.485C589.479 103.66 591.668 104.649 592.586 107.897C593.009 109.309 593.009 110.933 592.797 112.416C592.374 115.735 590.961 118.842 589.055 121.596C586.795 124.915 584.465 128.092 582.205 131.34C578.463 136.566 574.72 141.721 570.907 146.875C569.142 149.276 567.306 151.536 565.399 153.795C565.258 154.149 564.835 154.36 564.411 154.713Z" fill="white"/>
<path d="M522.679 584.324C521.266 584.112 520.56 583.406 520.348 582.347C520.136 581.358 519.995 580.299 519.995 579.31C519.854 575.709 519.783 572.178 519.642 568.577C519.572 567.024 519.501 565.541 519.36 563.987C519.077 558.479 518.865 552.972 518.512 547.534C518.371 544.71 518.583 541.956 518.936 539.131C519.218 537.013 519.218 534.753 518.865 532.635C518.089 527.198 517.1 521.761 516.041 516.394C515.405 513.358 515.476 510.321 515.405 507.214C515.405 504.39 515.476 501.565 515.335 498.741C515.123 494.363 514.77 490.055 514.558 485.677C514.417 483.276 514.558 480.805 514.487 478.404C514.417 476.215 514.417 474.026 514.276 471.908C513.852 466.047 513.499 460.186 513.004 454.325C512.793 451.642 512.44 448.958 512.228 446.275C512.157 445.357 512.157 444.51 512.228 443.592C512.298 442.674 513.358 441.968 514.205 442.25C515.688 442.674 517.241 443.168 517.665 444.934C518.018 446.275 518.301 447.687 518.442 449.029C518.936 453.478 519.43 457.926 519.854 462.375C520.56 469.648 521.196 476.921 521.831 484.194C522.255 488.643 522.608 493.092 522.89 497.611C523.385 505.167 523.808 512.722 524.373 520.207C524.444 521.69 524.02 522.961 523.879 524.303C523.455 527.692 523.385 531.152 523.314 534.612C523.243 537.437 523.526 540.191 523.808 543.015C524.091 546.546 523.808 550.147 523.808 553.748C523.808 555.302 523.808 556.785 523.808 558.338C524.02 566.882 524.232 575.497 522.679 584.324Z" fill="white"/>
<path d="M488.643 224.762C490.62 225.327 491.468 226.598 491.609 228.434C491.892 231.258 492.174 234.012 492.527 236.836C493.021 241.144 493.516 245.451 494.081 249.759C494.292 251.312 494.434 252.866 494.857 254.278C495.775 257.667 496.199 261.057 496.481 264.517C496.764 267.412 497.399 270.307 498.176 273.132C499.306 277.368 500.365 281.535 500.436 285.913C500.506 288.455 501.283 290.926 501.424 293.468C501.565 295.869 501.142 298.341 501.071 300.741C501.001 303.425 501.001 306.108 501.142 308.721C501.566 316.135 502.342 323.479 504.461 330.681C506.297 337.037 507.568 343.604 507.144 350.382C507.003 353.348 507.073 356.243 507.215 359.209C507.285 361.469 507.497 363.799 508.909 365.776C509.262 366.27 509.474 366.977 509.545 367.541C509.898 369.801 510.886 371.637 512.652 372.979C512.44 374.179 511.593 374.25 510.886 374.108C510.322 373.967 509.686 373.544 509.474 373.049C508.839 371.496 508.486 369.872 507.921 368.318C507.568 367.259 507.426 365.917 506.72 365.141C504.672 363.022 504.531 360.339 504.108 357.726C503.119 351.936 502.272 346.146 501.354 340.285C501.071 338.378 500.93 336.472 500.577 334.565C500.224 332.659 499.659 330.823 499.235 328.987C499.023 328.21 498.953 327.504 498.812 326.727C497.541 320.584 497.188 314.299 496.905 308.015C496.905 307.662 496.764 307.238 496.764 306.885C496.27 303.072 495.846 299.259 495.281 295.445C494.504 290.644 493.586 285.842 492.88 281.04C492.103 276.38 491.468 271.649 490.832 266.988C490.267 262.54 489.844 258.091 489.279 253.642C489.208 253.148 489.067 252.654 489.138 252.089C489.491 247.075 488.149 242.203 487.584 237.19C487.231 234.012 487.16 230.834 487.09 227.586C486.807 226.739 487.372 225.68 488.643 224.762Z" fill="white"/>
<path d="M557.42 566.388C557.209 562.999 557.138 560.104 554.102 558.621C554.596 554.666 554.313 550.853 554.667 547.04C555.09 542.309 554.808 537.578 554.808 532.847C554.808 529.387 554.878 525.927 554.737 522.467C554.596 519.289 554.525 516.041 553.819 512.934C552.831 508.556 552.689 504.107 552.266 499.659C552.195 498.741 551.913 497.893 551.913 496.975C551.913 495.281 551.701 493.586 552.054 492.032C552.972 487.654 554.031 483.276 554.243 478.757C554.243 478.545 554.455 478.333 554.596 478.122C556.997 478.828 557.844 479.675 558.056 481.935C558.338 485.889 558.48 489.843 558.692 493.798C558.974 500.224 559.186 506.579 559.398 513.005C559.539 518.512 559.892 524.02 559.751 529.528C559.609 535.813 559.821 542.097 560.104 548.311C560.245 552.548 559.539 556.714 559.186 560.951C559.045 562.222 558.833 563.493 558.621 564.693C558.409 565.117 557.985 565.47 557.42 566.388Z" fill="white"/>
<path d="M648.935 510.109C648.794 504.248 648.723 498.317 648.582 492.456C648.582 491.821 648.582 491.185 648.441 490.55C647.381 484.265 648.864 478.404 651.406 472.684C652.395 470.425 653.383 468.306 654.725 466.259C656.49 463.434 657.761 460.327 658.538 457.079C659.597 452.842 660.586 448.605 661.433 444.369C661.786 442.391 661.645 440.273 661.716 438.225C661.786 436.601 662.634 435.824 664.117 436.177C664.964 436.389 665.529 436.884 665.458 437.731C665.388 438.719 665.176 439.779 665.035 440.767C664.681 444.227 664.47 447.617 664.046 451.077C663.764 453.336 663.34 455.596 662.775 457.856C661.645 462.304 660.586 466.753 659.244 471.202C658.538 473.532 657.408 475.721 656.349 477.91C655.008 480.734 654.231 483.629 654.019 486.736C653.313 496.552 652.536 506.367 651.971 516.182C651.759 520.136 650.771 524.02 651.124 527.974C651.194 528.469 651.053 528.963 650.983 529.528C650.841 530.163 649.923 530.799 649.288 530.728C648.511 530.658 648.229 529.952 648.299 529.316C648.441 527.127 648.794 525.009 648.794 522.82C648.864 518.583 648.794 514.346 648.794 510.18C648.794 510.109 648.864 510.109 648.935 510.109Z" fill="white"/>
<path d="M548.311 50.6296C548.664 50.4884 549.088 50.4178 549.37 50.206C553.254 47.5933 557.42 47.8051 561.445 49.7117C563.352 50.559 565.046 50.7709 566.953 50.4884C571.402 49.9235 575.85 49.2174 580.299 49.288C580.934 49.288 581.57 49.288 582.205 49.288C582.77 49.288 583.265 49.6411 583.123 50.206C583.053 50.6296 582.558 51.0533 582.205 51.2652C581.923 51.477 581.499 51.477 581.076 51.477C576.345 52.0419 571.684 52.6774 566.953 53.0305C565.117 53.1717 563.846 53.8072 562.787 55.2901C560.81 58.044 557.985 58.8914 554.666 58.6089C552.195 58.3971 550.359 57.1967 548.947 55.1489C548.24 54.0897 547.464 53.0305 546.546 52.2537C544.71 50.7002 542.591 50.9827 541.179 52.8186C540.614 53.5248 540.191 54.3015 539.696 55.0783C536.942 58.962 531.505 60.1624 527.41 57.7616C526.774 57.4085 526.139 56.9142 525.644 56.2787C523.738 53.9485 524.303 51.1945 527.057 49.9235C531.081 48.0876 535.177 47.6639 539.131 50.206C539.414 50.4178 539.767 50.559 540.261 50.7709C540.685 50.4884 541.109 50.206 541.462 49.9235C544.145 48.2288 544.427 48.2288 547.181 50.1353C547.605 50.3472 547.958 50.4178 548.311 50.6296Z" fill="white"/>
<path d="M589.549 77.1096C590.538 76.474 591.244 75.9798 592.021 75.5561C593.927 74.4969 595.763 74.9206 597.387 76.121C598.8 77.1802 598.87 78.8749 597.67 80.1459C596.681 81.2051 595.34 81.6994 593.857 81.77C592.727 81.77 591.597 81.77 590.185 81.77C590.326 82.5468 590.467 83.0411 590.609 83.8884C591.668 83.3941 592.445 82.9705 593.221 82.6174C594.634 82.0525 595.975 82.2643 597.317 82.8292C598.941 83.5354 599.435 85.1595 598.588 86.6423C597.599 88.4077 596.116 89.1844 594.139 89.1138C593.292 89.1138 592.445 88.8314 591.456 88.6901C590.326 91.9383 592.445 94.4098 593.08 97.0931C592.303 98.0817 591.597 97.8698 591.103 97.0931C589.408 94.4098 588.702 91.444 588.914 88.3371C588.984 87.1366 589.196 86.0774 588.49 85.0182C587.502 83.3941 588.278 81.4876 587.996 79.7929C587.643 78.2394 586.442 76.8271 586.442 75.0618C586.442 72.096 586.937 69.2009 588.702 66.6588C589.338 65.7408 590.114 64.8229 590.75 63.9755C590.75 62.4926 590.609 61.0804 590.82 59.6681C591.173 57.1967 593.08 55.855 595.41 56.0668C597.034 56.2787 597.952 57.1967 598.094 58.8208C598.235 61.3628 597.034 63.7637 594.634 64.6816C592.586 65.4584 591.103 66.5882 590.114 68.5654C588.984 70.825 588.208 73.0846 588.773 75.6267C588.984 76.0504 589.196 76.4034 589.549 77.1096ZM596.116 78.0275C594.422 77.5332 592.868 76.9683 591.809 79.0867C593.574 79.7223 594.987 79.8635 596.116 78.0275ZM592.868 86.0068C594.28 86.3599 595.41 86.5717 596.187 84.9476C594.775 84.524 593.645 84.4533 592.868 86.0068Z" fill="white"/>
<path d="M554.172 80.499C553.748 82.688 552.054 83.8884 550.288 84.9476C548.17 86.2186 545.769 86.7835 543.368 86.9248C540.403 87.066 538.214 85.7243 536.872 83.041C535.107 79.4398 534.895 75.6267 535.883 71.8136C536.448 69.5539 537.154 67.3649 537.861 65.1759C538.425 63.1988 538.99 61.2216 539.555 59.315C540.05 57.6203 540.403 55.855 542.168 54.937C543.439 55.6431 543.227 56.7729 543.086 57.6909C542.168 62.2102 541.038 66.6588 540.05 71.178C539.555 73.2964 539.061 75.4148 538.778 77.5332C538.214 82.8292 543.933 85.795 547.888 83.2529C549.37 82.2643 550.853 81.2757 552.407 80.3578C552.972 79.9341 553.607 79.7222 554.172 80.499Z" fill="white"/>
<path d="M538.143 92.5032C541.886 91.091 553.254 90.0318 556.149 90.3848C555.796 90.8791 555.655 91.3734 555.302 91.5853C554.384 92.0089 553.396 92.362 552.407 92.5739C548.382 93.4212 544.286 93.4212 540.191 93.1388C539.485 93.0681 538.849 92.7151 538.143 92.5032Z" fill="white"/>
<path d="M557.35 569.142C557.35 568.648 557.35 568.083 557.35 567.589C557.42 567.589 557.561 567.589 557.632 567.589C557.632 568.083 557.632 568.648 557.632 569.142C557.561 569.142 557.491 569.142 557.35 569.142Z" fill="white"/>
</g>
<defs>
<clipPath id="clip0">
<rect width="733.247" height="600" fill="white"/>
</clipPath>
</defs>
</svg>
