<svg width="637" height="600" viewBox="0 0 637 600" fill="none" xmlns="http://www.w3.org/2000/svg">
<g clip-path="url(#clip0)">
<path d="M213.46 523.163C213.318 521.379 213.175 519.81 213.103 518.312C212.747 513.389 212.319 508.538 211.962 503.615C211.962 503.472 211.962 503.329 211.962 503.258C212.604 498.193 211.463 493.199 210.749 488.205C210.464 486.278 210.178 484.352 210.107 482.426C209.964 477.004 208.609 471.653 208.038 466.302C208.038 466.088 207.824 465.874 207.539 465.446C205.398 464.875 203.044 465.161 200.761 465.161C199.191 465.161 197.622 465.303 196.124 465.303C187.848 465.589 179.572 466.017 171.296 466.017C165.731 466.017 160.167 465.446 154.673 465.018C152.247 464.804 149.822 464.376 147.396 464.09C142.616 463.52 139.762 460.523 137.836 456.528C137.194 455.244 136.694 453.888 136.552 452.461C136.124 448.323 135.41 444.257 135.91 440.048C136.409 435.767 136.338 431.558 135.981 427.277C135.624 423.567 136.124 419.786 136.409 416.076C136.552 414.293 136.98 412.509 136.48 410.725C136.338 410.226 136.338 409.655 136.409 409.156C137.051 403.805 136.266 398.383 136.766 393.032C137.051 389.75 137.051 386.326 136.266 383.044C136.195 382.759 136.124 382.545 136.124 382.259C136.195 378.549 136.124 374.768 136.338 371.058C136.48 368.561 136.552 366.207 135.767 363.781C134.625 363.639 134.269 364.637 133.698 365.208C130.131 369.061 125.565 370.63 120.428 370.488C116.076 370.345 113.151 368.062 111.581 364.067C110.155 360.428 110.297 356.718 110.868 352.937C111.653 348.014 113.436 343.448 115.077 338.811C116.504 334.887 117.86 331.035 119.215 327.111C121.641 320.119 118.288 314.625 113.722 311.486C109.655 308.633 105.161 306.706 100.737 304.566C91.4626 299.929 81.6885 296.433 72.0571 292.723C66.421 290.511 60.8562 287.943 55.2914 285.517C46.3734 281.665 37.4554 277.812 28.6088 273.888C24.6136 272.105 20.6897 270.107 16.6944 268.181C12.0571 265.969 8.2759 262.545 5.06544 258.692C2.85378 256.052 1.42691 252.771 0.856162 249.203C0.713475 248.276 0.642131 247.42 0.4281 246.492C-0.713398 241.427 0.499443 236.718 2.92513 232.295C5.85022 226.873 9.77412 222.235 14.1974 218.026C22.9013 209.679 32.4614 202.331 42.5208 195.696C52.723 188.989 62.7824 182.14 71.9858 174.15C77.7646 169.156 84.1142 164.875 90.8205 161.094C92.5327 160.095 94.1736 159.168 95.7432 158.026C98.0975 156.314 99.4531 154.102 98.7396 151.034C98.3829 149.251 98.3829 147.396 97.8122 145.684C96.8134 142.759 96.8847 139.762 97.2414 136.837C97.8122 132.485 98.5969 128.133 100.381 124.067C102.878 118.573 106.73 114.364 112.081 111.581C114.721 110.226 117.36 108.87 120.285 108.086C124.566 107.015 128.918 106.445 133.341 106.373C135.339 106.373 137.408 106.944 139.691 107.301C139.762 106.587 139.976 105.874 139.976 105.161C139.976 89.893 140.048 74.6255 139.976 59.2866C139.976 55.648 139.691 52.0809 139.548 48.4423C139.334 40.4519 139.049 32.39 138.977 24.3995C138.906 20.6183 139.334 16.9084 139.548 13.1272C139.62 12.3425 139.691 11.5577 139.905 10.8442C140.904 5.70749 144.97 1.99762 150.178 1.85494C158.169 1.56956 166.159 0.856126 174.221 1.35553C176.79 1.49822 179.358 1.28419 181.926 1.1415C189.275 0.784782 196.623 0.285377 204.043 2.26807e-06C209.322 -0.142685 214.673 2.27339e-06 219.952 0.0713459C225.375 0.14269 230.797 0.14269 236.29 0.285377C238.216 0.285377 240.143 0.428064 242.069 0.642095C245.137 0.92747 248.276 0.998813 251.344 0.642095C252.913 0.499408 254.411 0.499408 255.981 0.428064C262.473 0.14269 268.894 0.642095 275.386 0.784782C276.528 0.784782 277.741 0.784782 278.882 0.713439C286.088 2.23618e-06 293.365 0.35672 300.642 0.35672C301.427 0.35672 302.212 0.356721 302.996 0.428064C309.56 1.1415 316.195 1.21284 322.83 1.07016C327.467 0.998813 332.176 1.28419 336.813 1.78359C338.312 1.92628 339.596 2.49703 340.666 3.49584C344.518 6.84899 347.23 10.7729 347.158 16.1237C347.158 19.6195 347.729 23.1153 347.515 26.5398C347.23 31.0345 348.014 35.5291 348.086 39.9524C348.086 44.8752 347.943 49.7979 347.872 54.7206C347.729 61.4269 347.658 68.2045 347.586 74.9108C347.586 77.4792 347.729 80.1189 347.586 82.6873C347.158 89.0369 348.086 95.3151 348.014 101.665C347.943 109.798 347.943 118.002 347.872 126.136C347.872 128.062 347.586 129.988 347.444 131.914C347.301 134.126 347.158 136.266 347.015 138.264C348.086 139.62 349.298 139.263 350.44 139.263C358.573 139.405 366.778 139.405 374.911 139.62C379.691 139.691 384.471 140.048 389.251 140.119C401.665 140.262 414.15 140.404 426.564 140.404C431.986 140.404 437.408 140.333 442.901 140.262C450.321 140.262 457.669 140.262 465.089 140.262C470.797 140.262 476.504 140.19 482.14 139.62C484.566 139.405 487.063 139.62 489.489 139.905C491.201 140.119 492.771 140.333 494.483 139.976C498.621 139.12 502.687 139.191 506.754 140.69C507.467 140.975 508.252 140.975 509.037 141.118C513.46 141.903 515.601 144.043 516.457 148.323C516.599 149.18 516.742 150.107 517.027 150.963C517.669 152.961 518.954 154.245 521.165 154.673C528.3 156.029 535.077 158.668 541.855 161.165C546.35 162.806 550.702 164.804 554.697 167.515C559.263 170.583 561.831 175.006 562.759 180.285C564.257 188.561 561.903 195.838 556.48 202.259C554.197 204.97 551.558 207.253 548.633 209.18C542.925 212.961 537.075 216.599 531.367 220.309C528.942 221.879 526.587 223.377 524.162 224.875C523.52 225.303 522.878 225.803 522.307 226.302C521.379 227.158 521.237 228.157 522.021 229.084C523.02 230.226 524.162 231.367 525.303 232.366C527.158 234.007 529.013 235.577 530.939 237.146C532.01 238.074 533.151 239.001 534.293 239.715C539.215 242.925 543.567 246.706 547.919 250.63C551.058 253.484 554.34 256.266 557.907 258.621C564.899 263.329 571.463 268.609 577.955 273.888C584.162 278.954 590.297 284.09 597.004 288.656C598.787 289.869 600.499 291.367 602.14 292.794C607.705 297.432 613.199 302.212 618.763 306.778C621.474 308.989 624.685 310.63 627.253 312.913C636.029 320.547 638.954 328.466 636.1 339.168C634.816 344.09 631.748 348.228 627.467 351.367C622.759 354.792 617.622 357.574 612.414 360.214C600.285 366.35 587.586 371.201 575.03 376.48C566.326 380.19 557.622 383.757 548.918 387.467C545.708 388.823 542.568 390.392 539.501 392.105C536.076 393.96 534.221 396.956 534.435 400.951C534.578 404.233 535.505 407.301 537.004 410.226C540.214 416.29 541.784 422.782 542.212 429.56C542.426 432.985 541.356 435.91 538.859 438.335C537.075 440.119 535.006 441.118 532.366 441.26C528.728 441.403 525.446 440.69 522.592 438.407C522.093 438.05 521.593 437.693 521.165 437.408C520.166 437.836 520.452 438.549 520.452 439.12C520.452 440.832 520.523 442.473 519.738 444.043C519.453 444.614 519.382 445.327 519.453 445.969C519.881 449.536 518.74 452.889 518.24 456.314C517.099 463.734 512.533 468.371 505.47 470.297C501.76 471.296 497.836 471.724 493.983 472.081C490.773 472.366 487.491 472.295 484.281 472.295C478.359 472.295 472.366 472.224 466.445 472.224C465.161 472.224 463.876 472.438 462.592 472.58C461.094 472.794 460.381 473.722 460.166 475.149C459.81 477.432 459.596 479.786 459.096 482.069C457.527 490.059 455.957 498.05 454.388 506.112C453.746 509.536 453.389 513.032 452.818 516.457C451.605 523.734 450.392 531.011 449.037 538.288C447.967 544.138 446.611 549.917 445.47 555.767C444.828 559.049 444.328 562.402 445.184 566.04C446.754 566.825 448.395 567.824 450.178 568.609C457.099 571.534 464.09 574.316 470.939 577.313C476.433 579.667 481.784 582.235 487.206 584.732C487.562 584.875 487.919 585.089 488.276 585.232C490.702 586.659 492.2 588.656 491.629 591.867C493.983 591.867 496.266 591.867 498.549 591.867C502.973 591.795 507.325 591.51 511.748 592.01C514.316 592.295 516.885 591.867 519.524 591.867C526.231 591.938 533.008 592.081 539.715 592.152C546.35 592.224 552.913 592.081 559.548 592.224C564.756 592.295 569.893 592.58 575.101 592.794C576.171 592.866 577.17 592.866 578.026 594.007C577.669 594.435 577.384 594.935 576.885 595.291C576.457 595.577 575.957 595.791 575.458 595.862C569.322 596.647 563.258 598.216 556.98 598.288C555.838 598.288 554.625 598.216 553.484 598.288C549.631 598.43 545.708 598.502 541.855 598.859C535.363 599.429 528.942 599.144 522.521 599.001C518.24 598.93 514.031 598.645 509.75 598.93C507.61 599.073 505.398 598.716 503.187 598.573C500.19 598.43 497.265 598.216 494.269 598.216C482.925 598.002 471.51 598.216 460.166 598.288C451.605 598.359 443.115 598.216 434.554 598.43C425.422 598.644 416.219 599.215 407.087 599.643C403.306 599.786 399.596 599.857 395.815 600C389.108 600.214 382.402 599.929 375.696 599.643C370.773 599.501 365.85 599.501 360.999 599.501C357.931 599.501 354.792 599.643 351.724 599.643C349.441 599.643 347.087 599.501 344.804 599.429C339.738 599.215 334.744 599.001 329.679 598.859C326.683 598.787 323.757 598.93 320.761 598.93C315.054 598.859 309.417 598.716 303.71 598.716C301.784 598.716 299.857 599.001 297.931 599.144C295.22 599.287 292.509 599.643 289.798 599.358C287.8 599.144 285.66 599.572 283.662 599.572C282.021 599.643 280.309 599.643 278.668 599.501C276.457 599.358 274.316 599.073 272.105 599.643C271.463 599.786 270.82 599.786 270.178 599.715C264.328 599.501 258.549 599.215 252.699 598.93C248.419 598.787 244.209 598.573 239.929 598.502C231.367 598.359 222.878 597.86 214.316 598.93C212.889 599.073 211.463 599.001 210.036 598.93C206.968 598.787 203.829 598.716 200.761 598.359C196.623 597.931 192.485 598.359 188.347 598.359C181.07 598.359 173.793 598.716 166.587 598.216C155.957 597.432 145.398 597.788 134.768 597.717C120.285 597.646 105.731 597.717 91.2485 597.646C87.2533 597.646 83.2581 597.218 79.1915 596.932C78.6921 596.932 78.1927 596.718 77.8359 596.576C77.2652 595.577 77.6933 594.863 78.478 594.578C79.3342 594.293 80.2616 594.079 81.1178 594.079C82.83 593.936 84.4709 593.936 86.1832 593.864C90.9632 593.722 95.7432 593.365 100.452 592.438C105.589 591.51 110.797 591.724 115.933 591.796C125.779 591.938 135.624 592.295 145.47 592.438C151.962 592.509 158.383 592.366 164.875 592.509C171.082 592.652 177.289 592.652 183.496 592.366C184.352 592.295 185.279 592.224 186.35 592.152C185.85 590.226 185.279 588.514 184.923 586.801C182.14 573.888 178.93 561.046 177.075 547.99C176.647 544.923 176.147 541.855 176.576 538.716C177.146 534.721 179.501 532.438 183.139 531.367C188.704 529.798 194.411 528.442 200.048 527.015C204.186 525.945 208.323 524.947 212.461 523.876C212.461 523.591 212.747 523.448 213.46 523.163ZM326.469 138.621C326.254 136.052 326.04 133.983 325.969 131.986C325.898 130.702 325.898 129.417 325.969 128.133C326.112 123.353 326.254 118.573 326.397 113.793C326.54 110.155 326.754 106.516 326.825 102.949C326.897 94.8157 326.897 86.6112 326.968 78.478C327.039 74.1974 327.111 69.9881 327.253 65.7075C327.325 63.0678 326.326 61.7123 323.829 60.7848C323.329 60.5708 322.83 60.4994 322.331 60.2854C318.621 59.0012 314.697 59.1439 310.844 59.0012C300.785 58.5731 290.654 58.3591 280.595 58.0737C274.102 57.931 267.61 57.931 261.189 57.8597C257.051 57.7884 252.842 58.1451 248.775 57.6457C243.853 57.0749 238.93 57.289 234.007 57.289C225.446 57.289 216.956 57.5743 208.395 57.6457C198.193 57.717 187.919 57.717 177.717 57.8597C173.722 57.931 169.727 58.2878 165.731 58.4304C162.735 58.5731 161.023 60.1427 160.167 62.9251C159.453 65.1367 158.954 67.4197 158.882 69.7741C158.668 79.9762 158.312 90.1784 158.169 100.452C158.098 107.158 158.312 113.864 158.383 120.642C158.454 123.853 158.597 127.063 158.526 130.273C158.383 135.553 158.098 140.832 158.026 146.112C157.812 158.24 157.812 170.44 157.527 182.568C157.384 190.059 157.598 197.622 156.671 205.042C156.599 205.684 156.671 206.326 156.813 206.968C157.17 209.322 157.241 211.605 156.813 213.888C156.671 214.53 156.742 215.172 156.742 215.815C156.813 217.384 156.885 218.882 156.885 220.452C156.885 223.805 156.528 227.158 156.885 230.44C157.598 237.788 156.956 245.137 156.813 252.485C156.742 256.48 156.671 260.476 156.671 264.471C156.671 266.54 156.599 268.609 156.599 270.678C156.599 273.103 156.599 275.6 156.599 278.026C156.671 282.164 156.885 286.231 156.885 290.369C156.885 295.291 156.599 300.214 156.528 305.137C156.457 308.989 156.671 312.913 156.314 316.766C155.957 320.476 155.743 324.257 155.815 327.967C155.957 333.888 156.243 339.881 156.385 345.803C156.599 355.648 156.599 365.493 156.956 375.339C157.17 381.902 157.527 388.537 157.384 395.101C157.313 398.098 157.741 401.023 158.026 404.019C158.24 406.373 159.524 407.515 161.807 407.515C167.015 407.515 172.152 407.444 177.36 407.301C183.425 407.158 189.56 406.73 195.624 406.73C211.32 406.73 226.944 406.944 242.64 407.015C251.201 407.015 259.762 406.873 268.252 406.801C269.964 406.801 271.605 406.73 273.318 406.73C278.526 406.873 283.662 407.015 288.799 406.373C290.725 406.159 292.652 406.159 294.649 406.159C298.787 406.017 302.925 405.945 307.063 405.803C308.419 405.731 309.631 405.446 310.702 403.948C310.702 402.735 310.702 401.165 310.702 399.667C310.773 393.746 310.773 387.753 310.844 381.831C310.916 375.196 311.058 368.633 310.987 361.998C310.773 348.799 310.559 335.6 310.987 322.402C311.415 309.845 311.843 297.289 311.986 284.732C312.128 272.961 311.914 261.189 311.843 249.346C311.843 238.502 311.843 227.586 311.843 216.742C311.843 209.108 311.772 201.474 311.772 193.841C311.772 189.56 311.7 185.279 311.772 181.07C311.843 176.433 312.128 171.724 312.057 167.087C311.986 160.951 312.557 154.958 313.413 148.894C314.055 144.4 316.552 141.688 320.904 140.547C322.687 139.976 324.614 139.191 326.469 138.621ZM451.962 225.232C453.175 224.59 453.746 224.376 454.245 224.019C461.308 219.025 468.371 213.96 475.434 208.894C481.641 204.471 487.776 199.834 494.625 196.48C497.408 195.125 500.048 193.484 502.616 191.772C504.471 190.559 506.112 189.061 507.753 187.705C508.823 186.849 509.394 185.707 509.465 184.352C509.536 183.424 509.822 182.568 509.822 181.641C510.178 176.718 510.535 171.795 510.749 166.944C510.892 163.163 511.249 159.453 511.962 155.743C512.247 154.459 512.39 153.175 512.247 151.891C512.105 149.679 511.106 148.038 508.823 147.253C506.825 146.611 504.828 146.183 502.759 146.112C494.34 145.755 485.922 145.47 477.503 145.113C472.295 144.899 467.158 144.614 461.95 144.471C458.454 144.4 454.958 144.257 451.463 144.614C446.04 145.113 440.618 145.398 435.196 144.542C433.413 144.257 431.629 144.185 429.845 144.97C429.061 145.327 428.062 145.398 427.206 145.398C418.502 145.398 409.869 145.47 401.165 145.398C397.313 145.398 393.389 145.184 389.536 145.042C379.834 144.828 370.131 144.542 360.357 144.328C359.358 144.328 358.216 144.185 357.289 144.4C352.937 145.47 348.514 144.97 344.162 144.471C337.027 143.686 329.964 143.757 322.973 145.612C322.259 145.826 321.403 146.04 320.904 146.611C317.337 150.678 314.483 155.03 314.554 160.809C314.625 165.232 314.625 169.584 314.483 174.007C314.055 183.424 313.698 192.913 314.697 202.331C314.84 203.757 314.768 205.184 314.768 206.611C314.697 212.461 314.697 218.24 315.41 224.09C315.981 228.442 316.266 232.866 316.266 237.289C316.338 253.341 316.409 269.394 316.266 285.446C316.195 293.579 316.124 301.712 316.266 309.917C316.338 316.124 316.48 322.331 315.696 328.537C315.482 329.964 315.482 331.391 315.482 332.818C315.339 339.667 315.125 346.516 315.054 353.365C314.982 356.861 315.339 360.357 315.339 363.853C315.41 371.986 315.268 380.19 315.41 388.323C315.624 397.384 315.196 406.445 315.339 415.505C315.41 421.07 315.054 426.635 314.982 432.2C314.911 438.121 314.911 444.114 314.911 450.036C314.911 451.034 316.052 457.741 316.338 458.312C316.98 459.881 317.765 461.379 318.264 462.949C319.334 466.373 321.76 468.014 324.97 468.656C329.536 469.584 334.174 470.297 338.74 471.153C341.023 471.581 343.377 471.653 345.731 471.51C353.08 471.011 360.428 470.511 367.848 470.583C368.989 470.583 370.202 470.654 371.344 470.583C377.408 469.941 383.472 470.012 389.608 470.012C391.534 470.012 393.46 469.869 395.386 469.727C400.309 469.441 405.161 468.87 410.083 468.799C416.29 468.728 422.497 469.013 428.704 469.084C433.341 469.156 437.979 469.227 442.616 468.728C446.326 468.371 450.036 467.658 453.817 467.658C463.805 467.8 473.793 467.658 483.71 467.658C488.633 467.658 493.555 467.872 498.478 467.729C501.974 467.658 505.398 467.23 508.252 464.804C510.321 463.092 511.463 461.094 511.605 458.526C511.748 456.742 511.677 454.887 511.677 453.103C511.748 445.47 511.891 437.836 511.962 430.202C512.033 421.784 512.176 413.365 512.176 404.946C512.176 393.96 512.247 382.973 512.033 371.986C511.891 361.641 511.391 351.296 511.249 340.951C511.106 332.176 511.177 323.329 511.106 314.554C511.106 313.769 511.32 312.913 511.106 312.2C510.107 308.847 510.749 305.565 511.034 302.212C511.534 296.147 511.962 290.083 511.32 284.019C510.963 280.166 510.606 276.243 510.606 272.39C510.606 261.546 510.749 250.63 510.82 239.786C510.82 238.074 510.82 236.433 510.606 234.721C510.392 233.151 509.251 232.509 507.753 233.151C506.54 233.65 505.47 234.293 504.328 234.935C501.903 236.361 499.405 237.86 496.98 239.287C491.7 242.497 486.421 245.85 481.07 248.989C477.146 251.272 475.077 254.554 474.721 259.049C474.578 261.118 474.079 263.115 473.864 265.184C473.365 269.679 472.152 274.102 470.939 278.454C469.869 282.378 468.086 285.945 465.446 289.084C464.733 290.012 463.948 290.868 463.234 291.795C460.309 295.291 456.742 297.717 452.247 298.502C450.178 298.859 448.181 299.358 446.112 299.643C443.686 300 441.189 300.071 438.906 298.716C432.128 294.578 427.776 288.87 426.635 280.809C425.922 275.743 425.708 270.749 425.922 265.684C426.278 259.477 427.42 253.341 430.131 247.634C430.416 246.992 430.916 246.278 430.202 245.351C428.276 245.208 426.207 244.923 424.209 244.851C418.002 244.709 411.796 244.637 405.589 244.423C403.948 244.352 402.235 244.067 400.595 243.639C397.955 242.925 396.1 241.213 395.03 238.644C394.031 236.361 393.746 233.936 393.746 231.439C393.746 220.166 393.674 208.894 393.746 197.622C393.746 192.842 393.888 188.062 394.102 183.282C394.245 180.571 394.673 177.86 395.672 175.291C396.243 173.936 397.027 172.794 398.24 172.01C400.309 170.583 402.521 169.584 405.089 169.512C407.8 169.441 410.511 169.37 413.222 169.441C420.856 169.584 428.49 169.798 436.124 170.083C438.478 170.155 440.761 170.297 443.115 170.583C444.542 170.725 445.898 171.225 447.182 171.724C449.251 172.58 450.606 174.078 451.035 176.29C451.391 177.931 451.534 179.643 451.534 181.284C451.534 192.556 451.391 203.829 451.391 215.101C451.819 218.026 451.962 221.237 451.962 225.232ZM369.845 473.793C368.276 473.793 366.849 473.793 365.493 473.793C352.652 473.793 339.881 473.722 327.039 473.722C325.755 473.722 324.471 473.722 323.187 474.007C318.264 475.006 314.625 473.294 311.843 469.227C310.702 467.586 309.417 465.945 308.276 464.518C305.422 463.948 302.925 464.376 300.214 464.518C299.144 466.944 298.074 469.298 297.004 471.653C294.935 476.361 292.937 481.142 290.725 485.85C287.586 492.557 284.304 499.12 281.165 505.755C278.383 511.605 275.601 517.455 272.961 523.306C270.178 529.441 267.61 535.648 264.899 541.784C264.614 542.497 264.328 543.211 263.971 543.924C263.329 545.137 262.473 545.922 260.975 546.136C259.691 546.278 258.407 546.635 257.194 546.849C253.698 547.277 253.341 548.704 253.127 551.486C252.842 555.125 252.699 558.692 252.485 562.331C252.414 563.615 252.557 564.899 252.414 566.183C252.2 567.895 252.985 568.823 254.34 569.679C257.408 571.605 260.476 573.532 263.401 575.672C270.749 580.951 278.026 586.373 285.303 591.724C286.159 592.366 286.944 592.794 288.014 592.937C292.509 593.579 297.004 593.65 301.57 593.508C305.422 593.365 309.346 593.008 313.199 593.151C317.836 593.365 322.473 593.294 327.111 593.151C331.249 593.08 335.386 592.652 339.382 594.15C340.666 594.649 341.807 594.15 342.878 593.222C348.656 588.228 355.291 584.376 361.57 580.024C364.352 578.098 367.348 576.528 369.917 574.388C372.2 572.461 374.625 570.749 377.051 569.037C377.979 568.323 378.835 567.61 379.691 566.754C381.76 564.828 383.686 562.687 385.969 560.975C387.967 559.405 388.609 557.551 388.466 555.196C388.395 553.627 388.109 552.128 387.753 550.63C386.897 546.992 385.969 543.353 385.184 539.715C383.543 532.01 382.045 524.233 380.333 516.528C378.05 506.54 376.195 496.552 374.625 486.421C374.055 482.568 372.628 479.001 371.13 475.434C370.773 474.935 370.416 474.578 369.845 473.793ZM136.694 153.46C132.485 156.243 128.918 158.668 125.208 161.094C123.567 162.164 121.926 163.234 120.214 164.09C116.861 165.874 113.508 166.159 109.798 164.732C105.803 163.163 101.522 162.378 97.2414 163.805C94.3163 164.804 91.4626 166.017 88.8942 167.872C83.4721 171.867 77.7646 175.434 72.4852 179.643C66.635 184.352 60.5708 188.775 54.5779 193.27C48.2997 197.979 41.8788 202.687 35.6005 207.396C34.1736 208.466 32.8895 209.75 31.4626 210.892C26.2545 215.172 20.9751 219.31 15.8383 223.662C12.7705 226.231 10.3449 229.441 8.2759 232.937C5.35081 237.86 4.42334 243.068 6.13559 248.561C7.41978 252.699 9.34605 256.552 12.8419 259.191C15.6956 261.403 18.7634 263.401 22.0452 264.97C32.3187 269.893 42.6635 274.673 53.151 278.882C58.4305 281.023 63.7099 283.02 69.0607 285.089C76.195 287.872 83.2581 290.654 90.3924 293.508C96.528 296.005 102.592 298.502 108.656 301.07C111.153 302.14 113.579 303.496 115.862 304.923C121.284 308.347 124.281 313.127 124.495 319.691C124.566 322.83 124.209 325.898 123.353 328.894C121.855 334.459 119.001 339.382 116.718 344.59C115.648 347.087 114.578 349.584 113.793 352.152C112.794 355.505 113.579 358.644 116.29 360.999C118.359 362.854 120.856 363.496 123.496 362.354C128.133 360.357 132.414 357.717 135.91 353.936C138.335 351.367 139.976 348.656 139.762 344.947C139.691 343.948 139.905 342.878 139.834 341.879C139.762 338.668 139.62 335.386 139.691 332.176C139.834 326.254 140.19 320.262 140.333 314.34C140.476 309.845 140.69 305.351 140.19 300.785C139.691 296.504 137.765 293.508 134.126 291.51C130.274 289.441 126.421 287.301 122.426 285.446C113.864 281.451 105.375 277.384 97.0987 272.747C90.2497 268.894 83.2581 265.113 76.2664 261.474C69.132 257.765 61.9977 254.197 55.1487 249.917C51.6528 247.705 47.943 245.85 44.3758 243.781C43.6623 243.353 42.9489 242.64 42.4495 241.926C41.8074 240.856 41.308 239.643 40.8086 238.573C42.0928 235.862 43.9477 233.936 46.2307 232.295C49.0845 230.297 51.8669 228.228 54.6493 226.159C58.5018 223.306 62.3544 220.452 66.1356 217.598C68.8466 215.6 71.3437 213.317 74.1261 211.391C79.8336 207.396 85.6837 203.543 91.4626 199.62C93.6029 198.193 95.8145 196.837 97.9549 195.41C101.237 193.127 104.376 190.559 107.8 188.561C113.222 185.493 118.288 181.998 123.425 178.502C127.277 175.862 131.13 173.294 135.838 172.438C136.052 172.438 136.195 172.152 136.552 171.867C136.694 166.159 136.694 160.166 136.694 153.46ZM517.884 270.25C524.804 275.03 531.439 279.596 538.002 284.162C541.855 286.801 545.565 289.655 549.417 292.224C552.414 294.221 555.624 295.862 558.692 297.86C563.115 300.713 567.539 303.781 571.891 306.706C577.17 310.273 582.378 313.769 587.658 317.408C591.082 319.762 594.507 322.045 597.86 324.471C599.073 325.398 600.214 326.469 601.213 327.61C602.283 328.823 602.283 330.25 601.498 331.534C600.927 332.39 600.357 333.246 599.643 333.96C598.502 335.03 597.36 336.1 596.005 336.885C592.366 339.168 588.728 341.379 585.018 343.448C575.6 348.585 566.183 353.793 556.623 358.716C547.776 363.282 538.716 367.42 529.798 371.772C527.444 372.913 525.161 374.055 522.878 375.268C520.88 376.338 519.81 377.979 519.81 380.262C519.81 386.183 519.738 392.176 519.81 398.098C519.881 403.948 520.095 409.727 520.238 415.577C520.309 419.073 520.238 422.568 520.309 426.064C520.309 427.063 520.452 428.276 521.023 428.989C524.304 432.913 528.442 435.339 533.508 436.195C535.648 436.552 537.218 435.41 537.86 433.27C538.002 432.628 538.074 431.986 538.216 431.344C538.716 428.133 537.788 425.208 536.576 422.283C535.434 419.572 534.15 416.861 533.222 414.007C532.01 410.583 530.654 407.23 530.083 403.662C529.156 398.312 530.939 393.674 533.65 389.322C534.15 388.466 535.077 387.753 535.933 387.253C538.716 385.612 541.498 383.971 544.423 382.616C548.704 380.547 553.127 378.692 557.479 376.694C562.117 374.625 566.683 372.557 571.32 370.559C579.738 366.92 588.3 363.496 596.576 359.572C603.639 356.29 610.773 353.365 617.907 350.369C622.259 348.514 626.254 346.302 629.394 342.664C634.816 336.314 633.746 326.683 627.039 321.688C622.687 318.478 618.407 315.125 614.126 311.7C610.131 308.419 606.278 304.994 602.283 301.641C595.291 295.862 588.3 290.083 581.308 284.304C573.746 278.026 566.112 271.819 558.478 265.612C552.556 260.832 546.492 256.124 540.499 251.415C535.505 247.491 530.583 243.496 525.66 239.572C524.875 238.93 524.019 238.216 523.092 237.788C520.595 236.504 518.454 237.788 518.169 240.571C518.098 241.213 518.098 241.855 518.098 242.497C517.955 250.416 517.884 258.264 517.741 266.183C517.741 267.539 517.884 268.823 517.884 270.25ZM137.907 287.586C137.907 285.303 137.907 283.234 137.907 281.237C137.907 275.529 137.693 269.893 138.121 264.185C138.335 261.118 138.407 258.05 138.407 254.982C138.478 249.203 138.621 243.353 138.478 237.574C138.335 229.941 137.907 222.378 137.622 214.744C137.551 213.746 137.479 212.675 137.479 211.677C137.408 209.251 137.265 206.754 137.194 204.328C137.123 201.76 136.694 199.12 136.908 196.623C137.265 192.414 135.981 188.419 135.196 184.352C134.84 182.426 133.484 181.498 131.558 181.498C130.559 181.498 129.489 181.712 128.561 182.069C127.348 182.568 126.278 183.282 125.208 183.924C120.642 186.778 116.005 189.703 111.439 192.628C107.515 195.125 103.662 197.765 99.8098 200.333C95.8859 203.044 91.962 205.826 88.0381 208.609C81.2604 213.389 74.4828 218.098 67.7765 222.878C63.5672 225.874 59.5006 229.013 55.3627 232.152C54.1499 233.08 52.8657 234.007 51.7242 235.077C50.1546 236.504 50.5113 238.859 52.509 239.501C57.7884 241.142 62.069 244.495 66.7777 247.134C71.8431 249.988 76.9085 252.842 81.9025 255.767C86.8966 258.692 91.962 261.617 96.956 264.614C100.095 266.468 103.02 268.609 106.231 270.178C112.937 273.46 119.073 277.883 125.636 281.451C127.919 282.664 129.988 284.233 132.271 285.375C133.912 286.373 135.838 286.801 137.907 287.586ZM432.271 263.757C432.342 264.685 432.271 265.541 432.414 266.469C432.699 268.68 433.27 270.82 433.27 273.032C433.341 277.669 434.554 281.95 435.91 286.302C436.837 289.298 438.692 291.724 441.189 293.294C444.186 295.22 447.681 296.005 451.106 294.15C454.102 292.58 456.885 290.725 459.168 288.228C460.024 287.301 460.951 286.302 461.522 285.161C463.02 282.021 464.447 278.811 465.66 275.529C466.445 273.389 466.944 271.034 467.444 268.823C468.585 262.973 469.655 257.122 470.725 251.272C471.51 247.063 473.793 244.067 477.646 241.998C482.854 239.144 487.919 236.005 493.056 233.008C499.191 229.441 505.256 225.731 511.605 222.378C523.02 216.314 534.435 210.178 545.351 203.258C547.562 201.903 549.845 200.618 551.486 198.549C554.554 194.697 556.623 190.416 556.623 185.422C556.623 183.139 556.48 180.642 555.624 178.573C554.197 175.291 551.914 172.366 548.704 170.369C542.711 166.659 536.433 163.662 529.727 161.522C528.228 161.094 526.73 160.809 525.161 160.666C520.951 160.238 519.382 161.593 519.168 165.731C519.096 167.658 519.168 169.584 519.168 171.51C519.168 172.794 519.738 173.508 521.023 173.579C522.949 173.65 524.875 173.436 526.801 173.365C528.086 173.294 529.37 173.08 530.654 173.222C531.795 173.365 533.08 173.579 533.579 174.792C534.079 176.076 533.08 176.932 532.224 177.788C531.867 178.145 531.51 178.573 531.082 178.859C527.372 181.641 523.662 184.495 519.596 186.778C515.957 188.775 512.319 190.773 508.823 192.913C502.616 196.694 496.552 200.547 490.416 204.4C487.705 206.112 485.065 208.109 482.212 209.536C477.788 211.819 473.936 214.816 470.012 217.741C465.375 221.237 460.88 224.947 456.243 228.442C450.25 232.937 444.899 238.288 439.334 243.282C437.408 245.065 435.981 247.277 435.054 249.703C433.27 254.269 432.057 258.835 432.271 263.757ZM518.882 371.7C519.239 371.629 519.524 371.629 519.738 371.558C527.444 367.277 535.077 362.996 542.711 358.644C552.128 353.222 561.474 347.729 570.963 342.307C575.101 339.952 579.382 337.812 583.591 335.458C584.947 334.744 586.302 333.888 587.515 332.961C590.083 331.035 590.083 329.536 587.586 327.396C586.873 326.825 586.159 326.326 585.375 325.826C584.661 325.327 583.805 324.899 583.092 324.328C577.455 319.976 571.819 315.624 566.183 311.272C560.476 306.849 554.697 302.497 548.49 298.716C542.14 294.863 536.29 290.44 531.296 284.947C529.798 283.306 528.3 281.736 526.73 280.166C525.232 278.74 523.662 277.384 522.021 276.1C520.737 275.101 519.382 275.315 518.169 276.457C517.241 277.313 516.813 278.383 516.599 279.524C516.457 280.523 516.457 281.593 516.457 282.592C516.385 289.298 516.171 296.005 516.243 302.782C516.314 309.346 516.314 315.981 516.885 322.545C517.598 330.963 517.883 339.31 518.026 347.729C518.098 354.221 518.098 360.642 518.169 367.134C518.24 368.775 518.24 370.345 518.882 371.7ZM225.161 591.082C225.945 589.727 225.446 588.799 224.59 588.157C223.377 587.23 222.021 586.373 220.737 585.589C217.527 583.662 214.316 581.736 210.963 580.024C209.037 579.025 208.181 577.598 207.824 575.458C207.039 570.178 206.183 564.97 205.327 559.762C205.042 557.979 204.756 556.195 204.471 554.411C204.257 552.628 204.97 551.344 206.611 550.702C208.323 550.06 210.036 549.489 211.748 549.061C220.452 547.134 229.227 545.351 237.931 543.353C243.71 542.069 249.489 540.428 255.268 539.073C256.552 538.787 257.265 538.002 257.836 536.932C260.618 532.081 263.472 527.301 266.112 522.449C267.253 520.452 267.967 518.169 268.966 516.1C271.249 511.177 273.674 506.326 275.957 501.403C277.812 497.265 279.596 493.127 281.308 488.918C284.233 481.712 287.087 474.507 289.869 467.301C290.226 466.373 290.226 465.303 290.369 464.019C284.162 464.09 278.312 463.306 272.319 463.876C270.606 467.158 268.894 470.369 267.182 473.579C265.755 476.29 264.4 479.144 262.83 481.784C260.761 485.351 259.12 489.132 257.765 493.056C256.623 496.338 255.125 499.548 253.698 502.687C252.2 505.969 250.559 509.18 249.203 512.533C247.776 516.029 245.351 518.954 243.71 522.307C243.567 522.664 243.21 522.878 242.925 523.163C240.071 526.017 236.718 528.157 232.866 529.584C226.873 531.796 220.666 532.937 214.459 534.221C212.319 534.649 210.178 535.149 208.038 535.791C205.826 536.433 203.543 536.861 201.26 537.36C199.334 537.717 197.479 538.074 195.553 538.43C193.27 538.859 190.987 539.358 188.704 539.857C187.206 540.214 185.708 540.571 184.423 540.928C183.639 543.781 183.639 543.781 183.924 545.779C184.423 549.631 184.851 553.484 185.422 557.337C185.85 560.119 186.278 562.973 186.92 565.755C188.704 572.889 190.488 580.095 192.985 587.015C193.555 588.728 193.983 590.44 194.554 592.366C196.052 592.438 197.265 592.58 198.549 592.509C205.042 592.224 211.463 591.938 217.955 591.653C220.381 591.439 222.806 591.225 225.161 591.082ZM484.138 590.654C484.281 590.369 484.352 590.083 484.495 589.798C484.138 589.37 483.781 588.799 483.353 588.514C481.926 587.658 480.428 586.801 478.93 586.088C470.297 581.807 461.379 578.454 452.176 575.672C448.609 574.602 445.113 573.246 441.617 571.748C438.407 570.392 437.337 568.538 437.693 564.97C438.05 561.26 438.407 557.479 439.12 553.769C441.118 543.71 443.401 533.793 445.969 523.876C447.539 518.026 448.68 512.033 449.394 505.969C450.392 497.337 451.32 488.704 452.319 480.143C452.461 479.001 452.533 477.788 452.461 476.647C452.319 474.863 451.106 473.864 449.322 473.936C447.895 473.936 446.469 474.15 445.042 474.221C439.762 474.293 434.411 474.364 429.132 474.435C428.419 474.435 427.634 474.649 426.92 474.721C426.421 477.646 425.922 480.428 425.422 483.21C425.351 483.567 425.422 483.995 425.351 484.352C425.208 491.058 425.065 497.836 424.923 504.542C424.709 514.245 424.495 523.948 424.138 533.65C423.781 544.923 423.21 556.124 422.782 567.396C422.568 572.604 422.426 577.741 422.354 582.949C422.354 584.376 422.64 585.731 422.854 587.158C423.068 588.656 424.067 589.441 425.494 589.584C428.561 589.869 431.7 590.226 434.768 590.369C439.263 590.583 443.829 590.511 448.395 590.654C452.889 590.797 457.455 590.868 461.95 590.654C466.373 590.44 470.725 590.654 475.149 590.654C478.216 590.725 481.142 590.654 484.138 590.654ZM379.762 475.791C379.191 477.717 379.62 479.358 380.119 480.927C380.975 483.496 381.903 486.064 382.616 488.704C384.257 494.982 385.898 501.189 387.396 507.467C387.824 509.18 388.109 511.035 388.109 512.818C388.109 517.241 388.537 521.593 389.465 525.874C390.392 529.941 391.249 533.936 391.891 538.074C392.675 543.496 393.817 548.775 395.815 553.841C396.671 556.052 396.385 558.121 395.101 560.048C393.96 561.76 392.889 563.543 391.748 565.256C391.106 566.254 390.25 566.897 389.037 567.182C387.824 567.467 386.683 568.252 385.755 569.108C382.331 572.105 378.549 574.53 374.768 577.099C369.774 580.523 364.923 584.233 360.071 587.943C359.287 588.585 358.502 589.37 358.002 590.226C357.004 591.867 357.788 593.722 359.715 594.079C360.713 594.293 361.784 594.15 362.782 594.079C366.635 593.936 370.559 593.722 374.411 593.508C375.054 593.508 375.696 593.436 376.338 593.365C380.69 592.937 385.113 592.438 389.465 591.938C394.388 591.439 399.239 591.153 403.948 589.298C404.304 589.156 404.732 589.013 405.089 589.156C406.373 589.513 407.372 588.87 408.442 588.514C411.296 587.586 412.152 586.373 412.224 583.377C412.295 581.165 412.152 578.954 412.01 576.813C411.367 568.323 410.654 559.834 410.083 551.272C409.441 541.57 409.084 531.867 408.442 522.235C407.943 514.744 407.23 507.253 406.659 499.834C406.445 497.551 406.231 495.196 406.017 492.913C405.446 487.919 404.947 482.854 404.376 477.86C404.162 476.361 403.662 475.648 402.164 475.577C399.952 475.434 397.741 475.291 395.601 475.577C394.031 475.791 392.604 475.933 391.034 475.791C387.182 475.648 383.472 475.648 379.762 475.791ZM102.235 140.404C102.664 143.329 102.806 146.326 103.448 149.251C103.948 151.391 104.732 153.46 105.874 155.315C108.157 159.31 112.866 160.666 117.004 158.74C117.788 158.383 118.645 157.955 119.358 157.384C121.57 155.6 123.781 153.817 125.85 151.819C129.346 148.395 132.842 144.899 136.195 141.332C139.263 138.05 142.188 134.554 145.184 131.201C146.825 129.346 147.61 127.206 147.681 124.851C147.681 123.425 147.325 122.069 147.111 120.642C146.825 118.93 145.898 117.788 144.4 117.146C142.901 116.504 141.26 115.933 139.691 115.434C132.557 113.008 125.422 113.294 118.359 115.719C113.864 117.289 109.941 119.786 107.372 123.924C104.162 128.918 102.378 134.411 102.235 140.404ZM246.564 464.019C245.422 464.019 244.209 464.019 243.068 464.019C236.576 464.162 230.155 464.304 223.662 464.447C223.163 464.447 222.592 464.518 222.093 464.447C220.381 464.376 219.382 465.375 218.954 466.801C218.597 468.014 218.526 469.37 218.526 470.654C218.668 475.149 219.096 479.715 219.168 484.209C219.239 495.196 220.523 506.112 221.237 517.099C221.308 518.383 221.522 519.667 222.806 520.809C224.162 520.452 225.589 520.024 227.087 519.738C229.37 519.239 231.653 518.882 233.936 518.454C236.005 518.098 237.432 516.885 238.43 515.101C238.859 514.316 239.215 513.46 239.572 512.675C241.641 508.109 243.781 503.472 245.779 498.906C246.207 497.836 246.564 496.694 246.635 495.553C246.778 493.341 246.635 491.13 246.706 488.989C246.849 482.64 247.063 476.29 247.277 470.012C247.42 467.943 247.134 466.088 246.564 464.019ZM245.493 549.774C243.995 549.417 242.64 549.988 241.284 550.274C238.216 550.844 235.22 551.558 232.224 552.128C231.225 552.342 230.226 552.485 229.156 552.628C226.73 553.056 225.66 554.697 225.232 556.837C225.089 557.693 225.089 558.621 225.232 559.548C225.589 563.258 226.017 566.968 226.373 570.749C226.873 575.386 227.444 579.952 227.943 584.59C228.157 586.73 229.084 588.514 230.939 589.798C231.581 590.226 232.224 590.725 232.723 591.296C233.722 592.295 234.935 592.438 236.29 592.366C240.143 592.224 244.067 592.152 247.919 592.152C252.699 592.152 257.479 592.152 262.259 592.152C266.112 592.152 270.036 592.081 273.888 592.01C274.602 592.01 275.315 591.938 276.1 591.938C275.672 590.654 274.744 590.511 273.96 590.226C271.035 589.084 268.466 587.372 266.04 585.446C261.76 582.164 257.408 578.882 252.913 575.815C250.987 574.459 249.346 572.818 247.634 571.249C246.136 569.822 245.565 568.181 245.636 566.04C245.779 560.975 245.779 555.981 245.85 550.916C245.779 550.63 245.565 550.202 245.493 549.774ZM398.24 210.749C399.025 211.463 399.667 212.105 400.381 212.675C402.806 214.53 405.375 216.314 407.8 218.312C409.512 219.738 411.367 220.309 413.508 220.166C416.219 219.952 418.93 219.738 421.641 219.81C424.637 219.81 427.562 220.024 430.559 220.238C432.128 220.309 433.698 220.381 434.982 219.382C438.835 216.385 442.759 213.389 446.611 210.392C447.396 209.75 447.61 208.966 447.681 208.038C447.824 206.469 447.182 205.398 445.969 204.4C443.115 201.974 440.333 199.477 437.551 196.98C436.623 196.195 435.767 195.696 434.483 195.624C426.706 195.054 419.001 195.696 411.225 195.91C409.084 195.981 407.158 196.694 405.517 198.05C403.02 200.048 400.595 202.188 398.169 204.186C398.24 206.326 398.24 208.395 398.24 210.749ZM249.631 418.002C248.205 418.216 246.92 418.43 245.636 418.502C241.641 418.716 238.074 420 234.792 422.212C231.653 424.281 230.083 427.277 229.513 430.844C229.156 433.199 229.727 435.482 231.51 437.337C232.081 437.907 232.509 438.549 232.937 439.191C234.293 441.046 236.147 442.188 238.359 442.687C242.497 443.615 246.635 444.257 250.987 443.757C256.552 443.115 260.761 440.761 264.4 436.766C266.254 434.768 266.825 432.485 265.969 429.988C264.756 426.635 262.973 423.71 260.119 421.498C256.98 418.93 253.199 418.645 249.631 418.002ZM416.361 575.244C418.502 565.327 418.359 555.91 418.359 546.421C418.359 540.499 417.717 534.578 418.074 528.656C418.145 527.372 418.288 526.088 418.288 524.804C418.288 519.81 418.145 514.744 418.216 509.75C418.288 498.621 418.502 487.491 418.644 476.362C418.644 475.862 418.43 475.434 418.359 474.792C416.647 474.721 415.149 474.721 413.579 474.721C412.937 474.721 412.366 474.935 411.581 475.006C411.439 475.791 411.225 476.361 411.296 477.004C411.653 481.356 411.867 485.708 411.796 490.131C411.724 493.341 412.081 496.623 412.224 499.834C412.366 503.472 412.509 507.039 412.723 510.678C413.08 517.527 413.579 524.376 413.864 531.225C414.078 536.504 414.15 541.855 414.364 547.134C414.721 556.052 415.22 564.97 415.648 573.888C415.648 574.102 415.933 574.388 416.361 575.244ZM412.438 189.845C419.643 189.988 426.278 190.202 433.27 190.345C433.555 184.709 434.34 179.429 433.127 174.078C429.56 173.436 415.648 173.222 412.295 173.793C412.438 179.001 411.51 184.209 412.438 189.845ZM245.065 30.6778C245.065 30.6064 245.065 30.5351 245.065 30.4637C242.354 30.6064 239.643 30.7491 236.932 30.8205C233.579 30.8918 230.226 30.8205 226.873 30.7491C225.018 30.7491 223.234 31.0345 221.665 32.0333C220.88 32.5327 220.167 33.1748 220.238 34.1736C220.309 35.1724 221.023 35.8145 221.95 36.0999C223.591 36.5993 225.161 37.17 226.801 37.3127C232.58 37.8121 238.43 38.5969 244.209 38.2402C251.843 37.8121 259.477 37.2414 267.039 36.6706C267.895 36.5993 268.823 36.3139 269.679 36.0285C270.892 35.6005 271.32 34.3163 270.678 33.1748C270.178 32.2473 269.465 31.4625 268.323 31.3199C266.683 31.1058 264.97 30.7491 263.329 30.7491C257.194 30.6064 251.13 30.6778 245.065 30.6778ZM432.913 224.946C427.919 223.948 415.933 223.876 412.438 224.732C411.867 228.728 411.867 236.79 412.509 239.501C418.216 239.715 423.995 239.929 429.774 240.071C430.63 240.071 431.486 239.786 432.556 239.572C432.414 234.578 433.627 229.798 432.913 224.946ZM447.967 198.835C448.181 198.193 448.395 197.765 448.395 197.265C448.323 191.7 448.323 186.207 448.181 180.642C448.181 179.643 448.038 178.573 447.753 177.574C447.467 176.433 446.825 175.434 445.684 174.935C443.187 173.793 440.618 173.222 437.765 174.293C437.622 178.074 437.479 181.855 437.408 185.565C437.408 186.849 437.479 188.133 437.551 189.417C437.622 190.488 438.05 191.344 438.977 192.057C440.69 193.413 442.331 194.911 444.043 196.266C445.184 197.122 446.255 198.264 447.967 198.835ZM407.729 173.436C403.662 172.58 400.737 174.007 399.453 177.646C398.882 179.215 398.526 180.856 398.454 182.497C398.24 186.992 398.169 191.486 398.098 195.981C398.098 196.552 397.955 197.265 399.025 197.622C400.381 196.623 401.807 195.553 403.234 194.554C404.804 193.413 406.373 192.342 407.729 191.344C408.157 185.85 408.228 175.648 407.729 173.436ZM398.098 216.1C398.24 221.807 398.312 226.73 398.454 231.653C398.454 232.652 398.74 233.722 398.954 234.721C399.524 236.932 400.951 238.288 403.163 238.859C404.661 239.215 406.231 239.501 407.729 238.93C408.371 235.577 408.585 227.943 408.157 223.805C404.947 221.593 402.164 218.74 398.098 216.1ZM219.881 580.523C219.881 579.596 219.952 578.882 219.881 578.169C219.738 576.385 219.382 574.602 219.382 572.747C219.239 568.323 219.239 563.971 219.168 559.548C219.168 558.549 218.954 557.551 218.811 556.195C216.1 556.98 213.532 556.98 211.249 558.335C211.677 561.546 212.176 564.614 212.39 567.681C212.675 570.749 212.461 573.888 213.389 576.956C215.244 578.526 217.17 579.952 219.881 580.523ZM446.968 215.458C444.114 217.598 441.974 219.453 439.62 220.951C437.194 222.449 436.552 224.518 436.552 227.158C436.623 230.012 436.552 232.866 436.552 235.648C436.552 236.076 436.766 236.576 436.98 237.36C438.763 235.791 440.262 234.364 441.831 233.08C443.543 231.724 445.327 230.44 447.111 229.084C447.039 224.732 447.539 220.523 446.968 215.458ZM253.912 479.001C255.91 475.862 258.692 467.444 258.906 464.447C257.408 464.518 255.838 464.09 254.269 464.733C253.341 469.513 253.698 474.221 253.912 479.001Z" fill="white"/>
<path d="M482.996 422.354C478.288 427.134 473.008 431.13 466.088 432.414C464.447 432.699 462.735 432.842 461.165 433.484C456.742 435.268 452.033 435.41 447.467 435.268C442.117 435.125 436.623 434.982 431.629 432.2C429.489 430.987 427.206 430.059 424.994 428.989C423.567 428.276 422.426 427.277 421.57 425.922C420.571 424.281 419.501 422.64 418.644 420.927C418.43 420.571 418.502 419.857 418.787 419.501C419.001 419.215 419.715 419.001 420.143 419.073C421.641 419.215 422.854 419.929 423.924 420.856C429.774 425.636 436.623 428.062 443.971 429.489C452.961 431.201 461.451 429.703 469.512 425.636C471.795 424.495 474.007 423.068 476.219 421.784C477.004 421.356 477.717 420.785 478.502 420.357C481.142 418.859 481.57 419.073 482.996 422.354Z" fill="white"/>
<path d="M427.349 409.299C427.991 409.798 428.561 410.083 428.989 410.511C436.195 416.79 444.614 419.358 454.102 418.644C459.025 418.216 463.306 416.219 467.444 413.65C468.728 412.866 470.012 411.938 471.368 411.153C472.794 410.369 473.437 410.511 475.077 412.081C474.863 412.509 474.649 412.937 474.364 413.365C472.295 416.433 469.37 418.573 466.445 420.642C465.089 421.57 463.377 422.14 461.736 422.354C455.601 423.282 449.394 423.853 443.187 422.854C437.408 421.926 431.986 419.786 427.491 415.791C425.494 414.078 425.137 412.723 426.064 410.654C426.207 410.226 426.778 409.869 427.349 409.299Z" fill="white"/>
<path d="M366.064 172.152C367.491 172.152 368.918 172.081 370.345 172.152C373.199 172.295 375.196 173.722 376.195 176.433C376.694 177.717 377.479 178.93 377.051 180.499C376.338 182.996 374.982 184.566 372.343 184.994C369.917 185.422 361.142 184.637 358.93 183.639C356.576 182.568 354.792 181.07 354.221 178.359C353.936 177.004 354.15 175.791 355.077 174.792C355.933 173.793 357.004 173.08 358.359 172.866C359.643 172.58 360.856 172.295 362.14 172.152C363.496 172.081 364.78 172.152 366.064 172.152ZM371.486 177.075C370.274 176.79 369.061 176.433 367.848 176.219C365.279 175.791 362.711 175.933 360.285 176.861C359.358 177.218 359.144 178.359 359.786 179.073C359.929 179.287 360.143 179.429 360.357 179.572C363.639 182.283 367.277 181.784 370.916 180.856C372.557 180.428 372.557 179.501 371.486 177.075Z" fill="white"/>
<path d="M367.277 355.648C365.493 355.648 363.639 355.791 361.855 355.648C359.144 355.363 357.004 354.078 355.577 351.653C354.364 349.655 354.578 347.658 355.648 345.803C356.005 345.161 356.718 344.59 357.36 344.376C361.712 343.163 366.136 342.021 370.702 343.02C371.843 343.306 372.913 343.734 373.983 344.09C377.051 345.018 377.907 347.729 377.622 350.939C377.337 353.579 374.982 355.577 371.914 355.719C370.345 355.791 368.847 355.719 367.277 355.719C367.277 355.719 367.277 355.719 367.277 355.648ZM368.704 352.438C369.774 352.295 370.844 352.295 371.843 352.081C372.628 351.938 373.413 351.367 373.413 350.511C373.413 349.798 373.127 348.942 372.628 348.514C372.057 347.872 371.13 347.372 370.345 347.158C366.849 346.302 363.425 346.801 360 347.8C358.859 348.157 358.573 349.584 359.572 350.297C360.357 350.868 361.356 351.51 362.283 351.653C364.423 352.081 366.635 352.224 368.704 352.438Z" fill="white"/>
<path d="M367.206 285.874C364.994 285.731 362.782 285.66 360.642 285.375C356.29 284.875 354.792 280.095 355.648 277.099C356.076 275.529 357.289 274.459 358.93 274.031C360.214 273.746 361.498 273.46 362.711 273.389C364.78 273.246 366.849 273.246 368.918 273.246C369.703 273.246 370.488 273.246 371.272 273.389C375.624 274.102 377.551 276.599 377.337 280.951C377.194 283.52 375.624 285.375 373.056 285.66C371.13 285.874 369.203 285.731 367.206 285.731C367.206 285.731 367.206 285.803 367.206 285.874ZM366.778 281.665C366.778 281.736 366.778 281.736 366.778 281.807C367.919 281.807 369.132 281.879 370.274 281.807C370.916 281.807 371.629 281.736 372.128 281.379C372.699 280.951 373.27 280.238 373.413 279.596C373.627 278.74 372.913 278.169 372.128 277.883C371.558 277.598 370.916 277.313 370.274 277.313C367.562 277.313 364.851 277.384 362.14 277.455C361.641 277.455 361.142 277.741 360.713 278.026C359.715 278.668 359.643 280.38 360.713 280.951C361.498 281.379 362.426 281.593 363.282 281.736C364.495 281.736 365.636 281.665 366.778 281.665Z" fill="white"/>
<path d="M366.278 396.599C367.848 396.671 369.346 396.742 370.916 396.956C371.915 397.099 372.985 397.384 373.841 397.812C376.052 398.882 377.551 401.379 377.051 403.448C376.481 405.874 375.41 408.371 372.699 408.799C368.062 409.584 363.425 409.584 358.93 408.228C357.004 407.658 355.22 406.302 355.149 403.805C355.077 401.165 355.72 398.882 358.288 397.669C359.429 397.17 360.714 396.885 361.998 396.742C363.425 396.599 364.852 396.671 366.278 396.671C366.278 396.671 366.278 396.671 366.278 396.599ZM367.705 405.589C368.989 405.517 370.416 405.446 371.843 405.303C372.842 405.161 373.341 404.376 373.27 403.377C373.199 402.378 372.771 401.522 371.843 401.308C368.062 400.238 364.209 400.238 360.428 401.379C359.643 401.593 359.144 402.378 359.287 403.163C359.429 403.662 359.929 404.304 360.357 404.59C362.64 405.66 365.137 405.589 367.705 405.589Z" fill="white"/>
<path d="M466.23 402.592C467.015 403.662 467.586 404.447 468.085 405.161C467.943 405.589 467.943 405.945 467.8 406.088C465.588 408.086 463.163 409.727 460.309 410.725C458.811 411.225 457.384 411.724 455.957 412.366C453.888 413.365 451.748 413.365 449.536 412.937C447.253 412.509 444.97 412.081 442.687 411.653C439.833 411.153 437.336 409.941 435.053 408.157C433.698 407.158 433.341 405.589 432.913 404.162C432.77 403.734 433.341 402.949 433.769 402.592C434.054 402.307 434.839 402.235 435.196 402.449C436.694 403.163 438.121 404.09 439.548 404.875C442.188 406.302 445.041 407.015 447.966 407.515C452.747 408.442 457.17 407.229 461.45 405.161C462.949 404.447 464.376 403.591 466.23 402.592Z" fill="white"/>
<path d="M364.352 326.683C367.491 326.683 370.559 327.253 373.413 328.466C375.696 329.465 377.122 331.177 377.194 333.817C377.265 336.385 375.41 338.312 372.842 339.096C368.847 340.38 364.709 340.166 360.642 338.882C358.716 338.24 357.36 336.813 356.29 335.244C354.292 332.319 355.363 328.966 358.644 327.61C359.215 327.396 359.857 327.111 360.499 327.039C361.784 326.825 363.068 326.754 364.352 326.683ZM367.134 336.171C367.134 336.1 367.134 336.1 367.134 336.029C368.276 336.029 369.489 336.1 370.63 336.029C371.986 335.957 372.913 335.03 373.056 333.96C373.127 333.103 372.414 332.319 371.13 331.748C367.705 330.321 364.281 331.249 360.856 331.891C360.357 331.962 359.857 332.675 359.715 333.246C359.429 334.102 360 334.744 360.713 335.172C361.141 335.458 361.641 335.6 362.14 335.672C363.781 335.886 365.493 336.029 367.134 336.171Z" fill="white"/>
<path d="M366.421 232.152C365.137 231.867 363.068 231.581 361.07 231.082C360.072 230.868 359.144 230.369 358.288 229.798C354.649 227.372 355.434 223.306 357.86 221.237C358.288 220.809 359.001 220.523 359.572 220.452C362.14 220.166 364.709 219.738 367.277 219.738C369.418 219.738 371.701 220.095 373.77 220.809C377.123 221.879 378.05 224.376 376.481 227.515C374.768 230.868 374.055 231.439 370.274 231.938C369.275 232.01 368.205 232.01 366.421 232.152ZM373.27 226.944C372.2 225.803 371.772 224.946 371.058 224.59C368.633 223.234 365.922 223.306 363.211 223.377C361.784 223.377 360.5 223.662 359.429 224.732C360.5 226.801 360.785 227.23 362.426 227.372C364.994 227.658 367.563 227.8 370.06 227.8C370.916 227.872 371.701 227.444 373.27 226.944Z" fill="white"/>
<path d="M366.635 254.483C364.709 254.269 362.783 254.126 360.856 253.912C357.86 253.555 356.362 251.486 355.505 248.989C354.721 246.778 355.505 244.923 357.574 243.71C359.144 242.782 360.714 242.14 362.64 241.998C365.208 241.784 367.777 241.57 370.345 241.998C371.201 242.14 372.129 242.283 372.985 242.64C375.624 243.639 377.051 245.993 376.695 248.704C376.267 252.2 373.984 254.411 371.344 254.411C369.774 254.411 368.276 254.411 366.706 254.411C366.635 254.411 366.635 254.483 366.635 254.483ZM365.422 245.636C365.422 245.707 365.422 245.779 365.422 245.922C364.923 245.922 364.352 245.85 363.853 245.922C362.497 246.136 361.07 246.35 359.715 246.778C358.573 247.134 358.359 248.205 359.073 249.275C359.715 250.202 360.5 250.773 361.641 250.844C364.495 251.058 367.277 251.272 370.131 251.415C370.63 251.415 371.201 251.344 371.629 251.13C372.485 250.773 373.27 250.131 373.199 249.132C373.127 248.419 372.628 247.705 372.129 247.206C371.7 246.778 370.987 246.492 370.416 246.421C368.704 246.136 367.063 245.922 365.422 245.636Z" fill="white"/>
<path d="M367.42 412.509C368.561 412.509 369.774 412.295 370.916 412.509C376.552 413.579 377.408 417.36 376.052 421.712C375.838 422.354 375.125 422.996 374.554 423.353C373.769 423.781 372.913 423.995 371.986 424.209C368.347 424.923 364.78 424.423 361.213 423.781C360.571 423.639 360 423.425 359.358 423.21C357.004 422.212 356.005 420.642 356.148 418.43C356.362 415.862 357.788 413.936 360.143 413.294C361.142 413.008 362.14 412.866 363.211 412.723C364.638 412.58 366.064 412.509 367.42 412.366C367.42 412.366 367.42 412.438 367.42 412.509ZM373.341 419.929C372.129 417.646 371.915 417.218 370.488 417.146C367.634 417.004 364.78 417.004 361.998 417.004C361.498 417.004 360.999 417.146 360.5 417.432C359.929 417.717 359.358 418.216 359.572 418.93C359.715 419.358 360.143 419.929 360.5 420C364.637 421.213 368.847 421.213 373.341 419.929Z" fill="white"/>
<path d="M367.848 440.476C365.493 440.19 363.425 439.976 361.427 439.691C359.786 439.477 358.502 438.692 357.289 437.693C354.935 435.624 354.792 433.627 356.932 430.916C357.931 429.631 359.358 428.918 360.999 428.847C364.352 428.775 367.705 428.704 371.058 428.775C372.057 428.775 373.056 429.275 373.983 429.703C376.908 431.201 377.836 434.34 376.266 437.265C375.624 438.478 374.768 439.334 373.341 439.548C371.344 439.976 369.489 440.19 367.848 440.476ZM365.779 436.552C367.063 436.552 367.562 436.552 368.062 436.552C369.061 436.552 370.131 436.552 371.13 436.409C371.986 436.266 372.414 435.624 372.485 434.768C372.556 434.055 372.128 433.555 371.486 433.341C370.773 433.056 370.059 432.699 369.275 432.628C366.706 432.557 364.138 432.556 361.57 432.556C361.142 432.556 360.642 432.913 360.214 433.199C359.287 433.912 359.358 435.196 360.428 435.696C360.999 435.981 361.641 436.266 362.212 436.338C363.639 436.552 365.065 436.552 365.779 436.552Z" fill="white"/>
<path d="M367.634 270.178C364.637 270.178 361.641 270.178 358.93 268.823C356.005 267.467 354.792 264.328 356.005 261.332C356.433 260.19 357.146 259.263 358.288 258.835C359.358 258.407 360.428 257.907 361.57 257.765C364.923 257.337 368.276 257.622 371.629 258.121C373.413 258.407 374.768 259.405 375.838 260.69C377.051 262.117 377.693 263.829 376.908 265.755C375.981 268.038 374.411 269.75 371.914 270.107C370.487 270.392 369.061 270.178 367.634 270.178ZM365.279 260.761C363.71 260.904 362.64 260.904 361.641 261.118C360.642 261.332 359.572 261.76 359.429 262.973C359.287 264.114 360 264.899 360.927 265.47C361.213 265.684 361.57 265.898 361.926 266.04C365.351 267.182 368.775 267.182 372.128 266.04C373.555 265.541 373.841 263.9 372.77 262.973C372.057 262.402 371.272 261.902 370.416 261.688C368.561 261.189 366.635 260.975 365.279 260.761Z" fill="white"/>
<path d="M367.134 359.001C368.775 359.144 370.488 359.144 372.128 359.501C376.694 360.357 378.264 364.851 375.482 368.561C374.197 370.273 372.557 371.13 370.559 370.987C367.491 370.844 364.352 370.702 361.284 370.273C358.002 369.845 356.433 368.062 356.147 364.923C355.933 362.64 356.932 360.927 359.144 360.143C361.712 359.215 364.352 358.93 367.134 359.001ZM366.706 367.348C368.775 367.206 370.059 367.277 371.344 367.063C372.128 366.92 372.771 366.421 372.842 365.565C372.913 364.709 372.342 364.138 371.629 363.71C371.486 363.639 371.415 363.567 371.272 363.567C367.705 362.854 364.138 362.711 360.499 363.424C360.071 363.496 359.572 363.995 359.501 364.423C359.429 364.851 359.715 365.422 360.071 365.707C360.499 366.136 361.142 366.492 361.712 366.635C363.639 366.992 365.565 367.206 366.706 367.348Z" fill="white"/>
<path d="M366.992 288.799C367.919 288.799 368.918 288.728 369.988 288.799C371.986 288.942 373.769 289.584 375.339 290.797C377.765 292.723 377.979 295.291 376.267 297.931C375.196 299.572 373.841 300.428 371.843 300.571C368.633 300.785 365.422 300.785 362.212 300.285C359.929 299.857 358.074 298.93 356.861 296.861C355.22 294.007 356.504 290.725 359.643 289.655C361.998 288.87 364.423 288.585 366.992 288.799ZM373.199 294.721C369.846 292.081 366.207 292.01 362.497 292.723C361.784 292.866 361.142 293.436 360.571 293.936C359.643 294.649 359.857 295.862 360.928 296.433C361.284 296.576 361.641 296.79 361.998 296.861C364.637 297.503 367.349 297.646 369.988 297.218C371.201 297.004 372.485 296.576 373.199 294.721Z" fill="white"/>
<path d="M369.703 215.886C365.279 216.742 361.998 215.743 358.93 213.96C357.146 212.961 355.933 211.534 355.648 209.465C355.434 208.038 355.719 206.825 356.932 206.04C358.002 205.327 359.073 204.542 360.285 204.257C364.637 203.115 369.061 203.615 373.199 205.113C376.409 206.254 378.05 209.608 377.194 212.961C376.766 214.673 375.624 215.672 373.912 215.815C372.271 216.029 370.63 215.886 369.703 215.886ZM367.848 212.675C367.848 212.604 367.848 212.461 367.919 212.39C368.918 212.39 369.988 212.461 370.987 212.319C371.558 212.247 372.414 211.819 372.485 211.463C372.628 210.82 372.343 210.036 372.2 209.322C372.128 209.108 371.843 208.966 371.7 208.752C369.203 206.469 362.854 205.969 360 207.824C359.144 208.395 359.001 209.893 359.857 210.535C360.428 211.035 361.142 211.463 361.855 211.605C363.781 212.033 365.85 212.319 367.848 212.675Z" fill="white"/>
<path d="M367.848 323.115C365.636 322.901 363.496 322.759 361.284 322.545C359.714 322.402 358.288 321.76 357.075 320.761C354.72 318.763 355.006 315.196 357.646 313.555C358.216 313.199 358.787 312.985 359.429 312.771C363.71 311.558 368.062 311.486 372.414 312.628C373.698 312.985 374.768 313.698 375.624 314.697C378.335 317.979 376.766 322.188 372.485 322.83C370.987 323.044 369.417 322.901 367.848 322.901C367.919 322.973 367.919 323.044 367.848 323.115ZM367.42 319.905C367.42 319.834 367.42 319.762 367.42 319.691C368.846 319.691 370.273 319.762 371.7 319.62C372.057 319.62 372.628 319.049 372.699 318.692C372.77 318.264 372.485 317.551 372.2 317.336C371.201 316.837 370.059 316.266 368.989 316.195C366.278 315.981 363.567 315.981 360.856 315.981C359.429 315.981 358.787 316.48 358.787 317.194C358.787 318.335 359.786 318.621 360.571 319.049C361.141 319.334 361.783 319.405 362.426 319.477C364.066 319.691 365.707 319.762 367.42 319.905Z" fill="white"/>
<path d="M366.35 188.561C367.919 188.561 369.489 188.49 370.987 188.561C373.199 188.704 374.839 189.845 376.052 191.7C377.479 193.841 376.766 196.266 375.624 197.836C375.196 198.478 374.197 199.049 373.413 199.191C369.489 200.19 365.493 200.262 361.498 199.405C360.285 199.12 359.144 198.478 358.002 197.907C355.933 196.837 355.149 195.054 355.363 192.771C355.577 190.844 356.29 189.774 358.216 189.132C360.927 188.347 363.639 188.205 366.35 188.561ZM373.056 195.981C373.555 194.411 372.628 193.627 371.558 193.056C368.062 191.13 364.423 191.058 360.713 192.2C360 192.414 359.287 192.913 359.215 193.769C359.144 194.768 359.786 195.482 360.642 195.91C361.213 196.195 361.855 196.338 362.497 196.48C365.565 196.98 368.633 197.122 371.772 196.552C372.2 196.409 372.628 196.124 373.056 195.981Z" fill="white"/>
<path d="M368.419 393.389C365.066 393.318 361.712 392.961 358.645 391.463C355.577 389.964 354.935 386.469 357.503 384.186C358.074 383.686 358.716 383.187 359.429 382.973C361.712 382.117 364.138 381.474 366.635 381.617C368.419 381.76 370.202 382.045 371.986 382.331C372.628 382.402 373.27 382.687 373.841 382.973C375.981 384.043 377.337 386.469 376.98 388.752C376.623 391.035 374.412 393.175 371.914 393.46C370.773 393.46 369.56 393.389 368.419 393.389ZM359.643 388.038C360.285 388.466 360.642 388.752 361.142 388.966C364.637 390.464 368.276 389.964 371.843 389.822C372.913 389.822 373.341 388.323 372.699 387.396C371.986 386.326 370.987 385.755 369.917 385.47C366.849 384.685 363.71 384.828 360.785 386.183C360.285 386.326 360.071 387.325 359.643 388.038Z" fill="white"/>
<path d="M439.477 397.241C441.047 395.957 442.473 396.599 443.758 397.027C447.967 398.454 452.176 398.169 456.386 397.384C457.028 397.241 457.598 397.027 458.24 396.885C459.168 396.742 459.667 397.384 460.095 398.026C460.452 398.74 460.024 399.239 459.525 399.667C456.956 401.665 454.031 402.663 450.821 402.235C448.038 401.879 445.256 401.165 442.473 400.452C440.904 400.095 439.762 399.096 439.477 397.241Z" fill="white"/>
</g>
<defs>
<clipPath id="clip0">
<rect width="636.885" height="600" fill="white"/>
</clipPath>
</defs>
</svg>
