<svg xmlns="http://www.w3.org/2000/svg" width="476" height="317" viewBox="0 0 476 317"><g fill="none" fill-rule="evenodd"><path fill="#FFE8E6" fill-rule="nonzero" d="M41.319 135.226c-6.587 1.99-12.752 6.808-14.397 13.492-1.882 7.682 2.457 15.426 3.085 23.314 2.026 25.843-34.739 44.076-29.494 69.462 2.082 10.093 10.5 17.518 18.793 23.652 13.287 9.796 28.029 18.45 44.355 20.892 24.778 3.712 50.668-7.199 74.753-.303 19.426 5.563 34.291 21.868 53.584 27.884 14.685 4.582 30.506 2.777 45.763.92 8.227-.997 16.844-2.149 23.483-7.085 12.34-9.189 13.117-27.334 21.38-40.338 12.762-20.054 40.744-23.992 64.207-20.095 23.462 3.898 46.246 13.493 70.017 12.711 5.08-.17 10.284-.859 14.716-3.353 5.389-3.028 9.03-8.365 12.248-13.646a220.82 220.82 0 0032.019-109.723c.139-6.66-.098-13.606-3.23-19.483-3.958-7.435-11.872-11.883-19.75-14.876-18.916-7.198-39.813-8.376-58.35-16.495-17.878-7.831-32.358-21.565-47.927-33.335A255.29 255.29 0 00241.427 1.994c-8.942-1.728-18.223-2.962-27.108-.967-10.238 2.298-19.062 8.68-26.995 15.55-21.108 18.274-38.025 40.82-57.477 60.849a327.226 327.226 0 01-43.665 37.654c-7.199 5.188-14.85 11.348-22.871 15.184-7.343 3.507-14.228 2.622-21.992 4.962z"/><g transform="translate(166.53 187.347)"><path fill="#651EFF" fill-rule="nonzero" d="M227.592 5.551v2.776c0 9.197-7.456 16.653-16.653 16.653h-55.51c-10.73 0-19.429 8.698-19.429 19.428v43.714c0 11.114-9.01 20.123-20.122 20.123-11.114 0-20.123-9.01-20.123-20.123v-39.55c0-6.898-5.592-12.49-12.49-12.49-6.898 0-12.49 5.592-12.49 12.49V73.55a6.939 6.939 0 11-13.877 0v-4.857c0-8.048-6.524-14.572-14.571-14.572-8.048 0-14.572 6.524-14.572 14.572v22.204c0 6.515-5.281 11.796-11.796 11.796S4.163 97.413 4.163 90.898V20.816H1.388v70.082c0 8.048 6.524 14.571 14.571 14.571 8.048 0 14.572-6.523 14.572-14.571V68.694c0-6.515 5.28-11.796 11.796-11.796 6.514 0 11.795 5.281 11.795 11.796v4.857c0 5.365 4.35 9.714 9.715 9.714s9.714-4.349 9.714-9.714v-24.98c0-5.365 4.35-9.714 9.714-9.714 5.365 0 9.715 4.35 9.715 9.714v39.551c0 12.647 10.251 22.898 22.898 22.898 12.646 0 22.898-10.251 22.898-22.898V44.408c0-9.197 7.455-16.653 16.653-16.653h55.51c10.73 0 19.428-8.698 19.428-19.428V5.55h-2.775z"/><rect width="5.551" height="8.327" x="226.204" fill="#9361FF" rx="2"/></g><g transform="translate(44.408 43.576)"><path fill="#9B9BAA" d="M17.763 59.951h214.269v91.037H17.763z"/><path fill="#E9ECEF" d="M33.306 59.951H53.29v8.882H33.306zm134.335 0h19.984v8.882h-19.984zm-105.47 0h19.984v8.882H62.171zm134.335 0h19.984v8.882h-19.984zm-163.2 82.155H53.29v8.882H33.306zm134.335 0h19.984v8.882h-19.984zm-105.47 0h19.984v8.882H62.171zm134.335 0h19.984v8.882h-19.984z"/><path fill="#FFF" d="M35.527 68.833H51.07v73.273H35.527zm134.334 0h15.543v73.273h-15.543zm-105.469 0h15.543v73.273H64.392zm134.335 0h15.543v73.273h-15.543z"/><path fill="#E9ECEF" d="M0 59.951L124.898 0l124.898 59.951z"/><path fill="#F9FAFC" d="M11.102 59.951l113.796-54.4 113.796 54.4z"/><path stroke="#141033" stroke-width=".5" d="M139.238 8.482l110.558 51.469H0L120.457 0"/><path fill="#F9FAFC" d="M9.992 147.657l229.812 2.22-1.11 14.433H11.102z"/><path stroke="#141033" stroke-width=".5" d="M62.171 150.988h176.523v13.322H11.102"/><path fill="#414150" d="M125.453 88.816c9.81 0 17.763 7.953 17.763 17.764v44.408H107.69V106.58c0-9.81 7.953-17.764 17.763-17.764z"/><circle cx="124.343" cy="39.967" r="11.102" fill="#C1A5FF"/><circle cx="125.453" cy="41.078" r="11.102" fill="#EFE8FF"/></g><g fill-rule="nonzero" transform="translate(358.04 37.47)"><path fill="#FFDCD9" d="M.113 23.958h1.554V45.94H.113zm0 29.532h1.554v12.434H.113z"/><rect width="69.943" height="151.876" x="1.223" y="2.42" fill="#FFADA6" rx="7.536"/><rect width="69.943" height="138.331" x="1.223" y="9.526" fill="#FFF" rx="7.536"/><rect width="11.546" height="1.554" x="30.533" y="5.751" fill="#CC6E66" rx=".56"/><circle cx="46.076" cy="6.639" r="1.11" fill="#CC6E66"/><path stroke="#141033" stroke-width=".5" d="M2.334 127.673V10.658C2.334 4.882 7.016.2 12.792.2h49.026c5.776 0 10.459 4.682 10.459 10.458v130.96c0 5.776-4.683 10.458-10.459 10.458"/></g><path fill="#1BE9B6" d="M401.32 126.084h4.173v-9.783h-4.172z"/><path fill="#651EFF" d="M405.492 116.301h-4.172a6.017 6.017 0 00-6.009-6.01 6.017 6.017 0 00-6.01 6.01h-4.172c0-5.613 4.568-10.18 10.182-10.18 5.614 0 10.181 4.567 10.181 10.18"/><path fill="#0F007A" d="M385.13 116.301h4.172V98.087h-4.172z"/><path fill="#FF8A80" d="M385.13 126.084h4.172v-9.783h-4.172z"/></g></svg>